<?xml version="1.0" encoding="UTF-8" standalone="no"?>
<svg
   xmlns:svg="http://www.w3.org/2000/svg"
   xmlns="http://www.w3.org/2000/svg"
   width="800.0"
   height="800.0"

>
    <g transform="scale(12.244897959183675, -12.244897959183675)   translate(34.266666666666666,-21.266666666666666)" stroke-width="0.08166666666666667"  fill="none">
       <!-- hidden lines -->
       <g  stroke="rgb(180,180,180)" fill="none" stroke-dasharray="0.08166666666666667,0.08166666666666667" >

       </g>

       <!-- solid lines -->
       <g  stroke="rgb(40,40,40)" fill="none">
			<path d="M-17.74823934929885,3.000000000000002 L-31.0,3.000000000000004 " />
			<path d="M-17.74823934929885,-2.999999999999998 L-31.0,-2.999999999999996 " />
			<path d="M-31.0,3.000000000000004 L-31.0,-2.999999999999996 " />
			<path d="M18.0,0.0 L17.99602585336034,0.3782241203125575 L17.984105168312645,0.7562812275010286 L17.96424320869584,1.1340043821896206 L17.936448744992173,1.511226792466564 L17.90073405045435,1.8877818875347252 L17.85711489568608,2.26350339126458 L17.80561054167818,2.6382253956170736 L17.74624373130347,3.0117824339039387 L17.679040679274166,3.384009553853128 L17.604031060566204,3.7547423904470936 L17.521247997315598,4.12381723850175 L17.430728044192637,4.491071124954076 L17.332511172260386,4.856341880826437 L17.22664075132457,5.219468212835827 L17.1131635307827,5.580289774616458 L16.99212961898085,5.9386472375241866 L16.863592461087237,6.294382360991568 L16.727608815492307,6.64733806240243 L16.584238728745863,6.997358486455141 L16.433545509042183,7.344289073983914 L16.275595698264897,7.6879766302077925 L16.110459042603978,8.028269392377146 L15.938208461757778,8.365017096787835 L15.758920016733747,8.698071045133423 L15.572672876262033,9.027284170166173 L15.379549281836796,9.352511100637802 L15.179634511400682,9.673608225491323 L14.973016841688487,9.990433757275653 L14.759787509246632,10.302847794754957 L14.54004067014567,10.610712384685105 L14.313873358403622,10.913891582729917 L14.081385443138487,11.212251513490388 L13.842679584468844,11.505660429620262 L13.59786118818203,11.793988770001977 L13.347038359189936,12.077109216957197 L13.090321853792885,12.354896752466706 L12.827825030772804,12.627228713374867 L12.559663801337146,12.8939848455542 L12.285956577935785,13.155047357006225 L12.006824221973401,13.410300969875092 L11.722389990440492,13.659632971351044 L11.432779481486552,13.902933263441211 L11.138120578959466,14.140094411585789 L10.838543395935602,14.371011692098115 L10.534180217265547,14.5955831384077 L10.225165441160822,14.813709586085803 L9.911635519847437,15.025294716633637 L9.593728899312413,15.230245100013914 L9.271585958169947,15.428470235906925 L8.945348945674148,15.619882593672925 L8.615161918905793,15.8043976510032 L8.281170679160754,15.981933931242747 L7.943522707568268,16.15241303936806 L7.6023670999674104,16.31575969660417 L7.257854501070577,16.47190177366565 L6.910137037943016,16.620770322606838 L6.559368252827794,16.76229960726734 L6.205703035345878,16.896427132299273 L5.8492975541012235,17.023093670763416 L5.490309187721125,17.142243290282195 L5.12889645536224,17.253823377737834 L4.765218946712996,17.357784662504816 L4.399437251523273,17.45408123820642 L4.03171288869249,17.54267058298567 L3.6622082349474114,17.62351357828181 L3.29108645314115,17.696574526103937 L2.9185114202050455,17.76182116479424 L2.544647654785229,17.81922468327385 L2.169660244595814,17.86875973376497 L1.793714773520815,17.910404442983783 L1.4169772484969607,17.944140421799034 L1.039614026209708,17.96995277335219 L0.6617917396348102,17.987830099635453 L0.2836772244578878,17.9977645065248 L-0.09456255459551552,17.999751607265818 L-0.472760577486854,17.993790524410755 L-0.8507498426159278,17.979883890205993 L-1.2283634405640877,17.958037845429704 L-1.6054346277967373,17.928262036680273 L-1.9817969002925808,17.89056961211662 L-2.357284067067115,17.84497721565235 L-2.7317303235578874,17.79150497960626 L-3.1049703248391243,17.73017651581248 L-3.4768392586333943,17.66101890519416 L-3.847172918088072,17.584062685805282 L-4.2158077742844595,17.49934183934592 L-4.582581048447556,17.406893776156885 L-4.947330783824581,17.306759318700358 L-5.309895917200514,17.198982683533853 L-5.670116350019082,17.083611461785424 L-6.027833019077773,16.96069659813876 L-6.382887966765665,16.830292368337457 L-6.735124410813063,16.692456355218365 L-7.084386813522136,16.547249423284633 L-7.430520950447987,16.394735691829666 L-7.773373978499823,16.234982506623833 L-8.112794503432163,16.068060410176486 L-8.448632646696273,15.894043110586367 L-8.780740111622318,15.713007448994189 L-9.108970248902997,15.525033365651751 L-9.433178121349737,15.330203864622565 L-9.75322056789289,15.12860497712962 L-10.06895626679763,14.920325723566384 L-10.380245798067639,14.705458074187934 L-10.686951705009069,14.484096908499465 L-10.988938554927534,14.256339973360173 L-11.286072998931392,14.022287839820997 L-11.578223830814844,13.78204385871527 L-11.865262044994914,13.535714115021902 L-12.14706089347667,13.283407381021245 L-12.42349594182159,13.025235068264314 L-12.694445124094289,12.761311178376568 L-12.959788796763402,12.491752252718024 L-13.219409791532811,12.216677320921859 L-13.473193467079854,11.936207848334277 L-13.72102775967771,11.650467682378837 L-13.962803232679589,11.359582997868909 L-14.198413124842872,11.063682241292438 L-14.427753397471868,10.762896074093579 L-14.650722780358375,10.457357314976292 L-14.867222816499758,10.147200881255333 L-15.077157905574778,9.832563729280578 L-15.280435346158015,9.513584793960938 L-15.476965376654201,9.19040492741463 L-15.666661214934415,8.863166836772832 L-15.849439096656628,8.532015021164245 L-16.02521831225368,8.197095707908339 L-16.193921242572348,7.858556787945484 L-16.355473393147786,7.5165477505324745 L-16.50980342709818,7.171219617232286 L-16.656843196625104,6.8227248752272 L-16.79652777310567,6.471217409984758 L-16.92879547576319,6.116852437306273 L-17.05358789890366,5.759786434787896 L-17.170849937706066,5.400177072724524 L-17.280529812555134,5.038183144487026 L-17.38257909190575,4.673964496403568 L-17.476952713668954,4.307681957175968 L-17.563609005110102,3.9394972668622765 L-17.64250970125037,3.5695730054569133 L-17.713619961763477,3.198072521099921 L-17.776908386360233,2.825159857947027 L-17.832347028653963,2.4509996837323604 L-17.879911408500902,2.075757217055815 L-17.919580522809895,1.6995981544271679 L-17.951336854816798,1.3226885970991669 L-17.97516638181937,0.9451949777218907 L-17.99105858136932,0.5672839868507771 L-17.99900643591871,0.1891224993407663 L-17.99900643591871,-0.18912249934093772 L-17.991058581369316,-0.5672839868509485 L-17.975166381819363,-0.9451949777220618 L-17.951336854816784,-1.3226885970993378 L-17.91958052280988,-1.6995981544273386 L-17.87991140850088,-2.075757217055985 L-17.832347028653942,-2.45099968373253 L-17.776908386360205,-2.8251598579471966 L-17.71361996176345,-3.1980725211000895 L-17.642509701250333,-3.569573005457081 L-17.563609005110063,-3.939497266862444 L-17.47695271366891,-4.3076819571761344 L-17.382579091905708,-4.673964496403734 L-17.280529812555088,-5.038183144487191 L-17.170849937706013,-5.400177072724688 L-17.053587898903604,-5.759786434788059 L-16.928795475763135,-6.1168524373064335 L-16.79652777310561,-6.471217409984918 L-16.65684319662504,-6.822724875227358 L-16.509803427098113,-7.171219617232444 L-16.355473393147715,-7.516547750532631 L-16.193921242572273,-7.858556787945639 L-16.025218312253603,-8.197095707908492 L-15.849439096656548,-8.532015021164398 L-15.666661214934331,-8.863166836772981 L-15.476965376654114,-9.190404927414777 L-15.280435346157924,-9.513584793961083 L-15.077157905574683,-9.832563729280722 L-14.867222816499662,-10.147200881255475 L-14.650722780358276,-10.45735731497643 L-14.427753397471765,-10.762896074093716 L-14.198413124842766,-11.063682241292573 L-13.96280323267948,-11.359582997869044 L-13.721027759677597,-11.650467682378968 L-13.473193467079739,-11.936207848334405 L-13.219409791532694,-12.216677320921985 L-12.959788796763284,-12.491752252718147 L-12.694445124094168,-12.761311178376689 L-12.423495941821466,-13.025235068264431 L-12.147060893476544,-13.283407381021362 L-11.865262044994783,-13.535714115022015 L-11.57822383081472,-13.782043858715372 L-11.286072998931266,-14.022287839821098 L-10.988938554927405,-14.256339973360273 L-10.686951705008937,-14.484096908499563 L-10.380245798067506,-14.70545807418803 L-10.068956266797496,-14.920325723566474 L-9.753220567892754,-15.128604977129708 L-9.433178121349597,-15.330203864622652 L-9.108970248902855,-15.525033365651833 L-8.780740111622176,-15.713007448994269 L-8.448632646696128,-15.894043110586443 L-8.112794503432017,-16.068060410176557 L-7.773373978499675,-16.2349825066239 L-7.430520950447838,-16.394735691829734 L-7.084386813521986,-16.5472494232847 L-6.735124410812912,-16.692456355218425 L-6.382887966765512,-16.830292368337513 L-6.027833019077619,-16.960696598138814 L-5.670116350018928,-17.083611461785473 L-5.3098959172003575,-17.198982683533902 L-4.947330783824423,-17.3067593187004 L-4.582581048447398,-17.406893776156927 L-4.2158077742843005,-17.49934183934596 L-3.847172918087912,-17.584062685805318 L-3.476839258633234,-17.661018905194194 L-3.1049703248389635,-17.73017651581251 L-2.731730323557726,-17.791504979606284 L-2.3572840670669533,-17.84497721565237 L-1.9817969002924185,-17.890569612116643 L-1.6054346277965743,-17.92826203668029 L-1.2283634405639248,-17.95803784542972 L-0.8507498426157645,-17.979883890206 L-0.4727605774866906,-17.99379052441076 L-0.09456255459535208,-17.999751607265818 L0.2836772244580512,-17.997764506524796 L0.6617917396349735,-17.987830099635445 L1.039614026209871,-17.96995277335218 L1.4169772484971235,-17.94414042179902 L1.7937147735209775,-17.910404442983765 L2.1696602445959763,-17.86875973376495 L2.5446476547853902,-17.819224683273827 L2.918511420205207,-17.761821164794217 L3.29108645314131,-17.69657452610391 L3.6622082349475713,-17.623513578281777 L4.03171288869265,-17.542670582985636 L4.399437251523432,-17.45408123820638 L4.765218946713154,-17.357784662504773 L5.128896455362397,-17.25382337773779 L5.49030918772128,-17.142243290282146 L5.849297554101378,-17.023093670763362 L6.205703035346031,-16.896427132299213 L6.559368252827946,-16.76229960726728 L6.910137037943166,-16.620770322606774 L7.257854501070727,-16.471901773665582 L7.60236709996756,-16.315759696604104 L7.943522707568413,-16.15241303936799 L8.281170679160898,-15.981933931242672 L8.615161918905935,-15.804397651003121 L8.94534894567429,-15.619882593672843 L9.271585958170085,-15.42847023590684 L9.593728899312552,-15.230245100013825 L9.911635519847573,-15.025294716633544 L10.225165441160959,-14.813709586085709 L10.534180217265682,-14.595583138407603 L10.838543395935739,-14.371011692098012 L11.138120578959601,-14.140094411585682 L11.432779481486687,-13.902933263441101 L11.722389990440625,-13.65963297135093 L12.006824221973533,-13.410300969874974 L12.285956577935917,-13.1550473570061 L12.559663801337276,-12.893984845554073 L12.827825030772933,-12.627228713374738 L13.090321853793013,-12.354896752466573 L13.347038359190062,-12.077109216957057 L13.597861188182154,-11.793988770001835 L13.842679584468964,-11.505660429620116 L14.08138544313861,-11.212251513490235 L14.313873358403743,-10.913891582729764 L14.540040670145785,-10.610712384684945 L14.759787509246745,-10.302847794754793 L14.9730168416886,-9.990433757275484 L15.179634511400792,-9.67360822549115 L15.379549281836901,-9.352511100637626 L15.572672876262136,-9.027284170165995 L15.75892001673385,-8.69807104513324 L15.938208461757876,-8.365017096787648 L16.110459042604074,-8.028269392376956 L16.275595698264986,-7.687976630207599 L16.43354550904227,-7.3442890739837186 L16.584238728745948,-6.997358486454942 L16.727608815492385,-6.64733806240223 L16.86359246108731,-6.2943823609913645 L16.992129618980925,-5.9386472375239805 L17.113163530782767,-5.580289774616249 L17.226640751324634,-5.219468212835617 L17.332511172260446,-4.856341880826223 L17.430728044192694,-4.491071124953861 L17.521247997315648,-4.123817238501532 L17.60403106056625,-3.7547423904468733 L17.67904067927421,-3.3840095538529065 L17.746243731303508,-3.011782433903715 L17.805610541678213,-2.638225395616848 L17.857114895686113,-2.263503391264353 L17.900734050454375,-1.8877818875344963 L17.93644874499219,-1.5112267924663338 L17.96424320869586,-1.1340043821893888 L17.984105168312652,-0.7562812275007955 L17.996025853360347,-0.3782241203123232 L18.0,2.3539944484210335e-13 " />
			<path d="M-2.0,0.0 L-1.9960534568565431,0.12558103905862675 L-1.9842294026289558,0.2506664671286085 L-1.9645745014573774,0.37476262917144926 L-1.9371663222572622,0.4973797743297096 L-1.902113032590307,0.6180339887498948 L-1.859552971776503,0.7362491053693558 L-1.8096541049320392,0.8515585831301452 L-1.7526133600877272,0.9635073482034304 L-1.6886558510040304,1.071653589957993 L-1.618033988749895,1.175570504584946 L-1.5410264855515787,1.2748479794973793 L-1.4579372548428233,1.369094211857377 L-1.3690942118573777,1.4579372548428227 L-1.2748479794973797,1.541026485551578 L-1.1755705045849467,1.6180339887498945 L-1.0716535899579935,1.68865585100403 L-0.9635073482034306,1.7526133600877272 L-0.8515585831301453,1.8096541049320392 L-0.7362491053693557,1.859552971776503 L-0.6180339887498946,1.9021130325903073 L-0.4973797743297091,1.9371663222572624 L-0.3747626291714486,1.9645745014573774 L-0.25066646712860763,1.9842294026289558 L-0.12558103905862572,1.9960534568565431 L1.2098029496354525e-15,2.0 L0.12558103905862814,1.9960534568565431 L0.25066646712861,1.9842294026289555 L0.374762629171451,1.964574501457377 L0.4973797743297114,1.9371663222572617 L0.6180339887498968,1.9021130325903064 L0.7362491053693581,1.859552971776502 L0.8515585831301471,1.8096541049320383 L0.9635073482034324,1.752613360087726 L1.071653589957995,1.6886558510040288 L1.1755705045849483,1.6180339887498933 L1.2748479794973815,1.5410264855515767 L1.3690942118573795,1.457937254842821 L1.457937254842825,1.3690942118573752 L1.5410264855515805,1.274847979497377 L1.618033988749897,1.1755705045849436 L1.6886558510040321,1.0716535899579902 L1.752613360087729,0.9635073482034273 L1.8096541049320407,0.8515585831301418 L1.8595529717765042,0.7362491053693522 L1.9021130325903084,0.6180339887498908 L1.9371663222572633,0.4973797743297053 L1.964574501457378,0.37476262917144476 L1.9842294026289562,0.2506664671286038 L1.9960534568565433,0.12558103905862186 L2.0,-5.084141158371281e-15 L1.996053456856543,-0.125581039058632 L1.984229402628955,-0.2506664671286139 L1.9645745014573763,-0.37476262917145475 L1.9371663222572608,-0.4973797743297152 L1.9021130325903053,-0.6180339887499005 L1.8595529717765005,-0.7362491053693616 L1.8096541049320363,-0.851558583130151 L1.752613360087724,-0.9635073482034362 L1.6886558510040266,-1.0716535899579989 L1.618033988749891,-1.1755705045849518 L1.541026485551574,-1.2748479794973848 L1.4579372548428182,-1.3690942118573826 L1.369094211857372,-1.457937254842828 L1.2748479794973737,-1.5410264855515832 L1.1755705045849407,-1.618033988749899 L1.0716535899579882,-1.6886558510040335 L0.9635073482034259,-1.7526133600877298 L0.8515585831301411,-1.809654104932041 L0.7362491053693523,-1.8595529717765042 L0.6180339887498918,-1.9021130325903082 L0.49737977432970715,-1.9371663222572628 L0.37476262917144754,-1.9645745014573777 L0.25066646712860746,-1.9842294026289558 L0.12558103905862641,-1.9960534568565431 L3.6739403974420594e-16,-2.0 L-0.12558103905862567,-1.9960534568565431 L-0.2506664671286067,-1.984229402628956 L-0.3747626291714468,-1.9645745014573779 L-0.4973797743297064,-1.937166322257263 L-0.6180339887498911,-1.9021130325903084 L-0.7362491053693516,-1.8595529717765045 L-0.8515585831301404,-1.8096541049320414 L-0.9635073482034252,-1.75261336008773 L-1.0716535899579875,-1.6886558510040337 L-1.1755705045849403,-1.6180339887498993 L-1.274847979497373,-1.5410264855515836 L-1.3690942118573708,-1.457937254842829 L-1.4579372548428164,-1.3690942118573843 L-1.5410264855515718,-1.2748479794973875 L-1.6180339887498882,-1.1755705045849552 L-1.688655851004024,-1.0716535899580033 L-1.7526133600877212,-0.9635073482034415 L-1.8096541049320334,-0.8515585831301573 L-1.8595529717764976,-0.7362491053693689 L-1.9021130325903026,-0.6180339887499088 L-1.9371663222572584,-0.49737977432972447 L-1.9645745014573743,-0.3747626291714651 L-1.9842294026289535,-0.25066646712862517 L-1.996053456856542,-0.12558103905864426 L-2.0,-1.8253427113661445e-14 " />
			<path d="M3.464101615137755,-1.9999999999999998 L6.92820323027551,-3.9999999999999996 " />
			<path d="M6.92820323027551,-3.9999999999999996 L7.096086665425774,-3.6939889058802713 " />
			<path d="M7.096086665425774,-3.6939889058802713 L7.2504622962931995,-3.3809460939255955 " />
			<path d="M7.2504622962931995,-3.3809460939255955 L7.391036260090294,-3.0614674589207183 " />
			<path d="M7.391036260090294,-3.0614674589207183 L7.517540966287267,-2.7361611466053497 " />
			<path d="M7.517540966287267,-2.7361611466053497 L7.6297356059858155,-2.405646396034185 " />
			<path d="M7.6297356059858155,-2.405646396034185 L7.7274066103125465,-2.070552360820166 " />
			<path d="M7.7274066103125465,-2.070552360820166 L7.810368056959467,-1.731516911504823 " />
			<path d="M7.810368056959467,-1.731516911504823 L7.878462024097664,-1.3891854213354426 " />
			<path d="M7.878462024097664,-1.3891854213354426 L7.931558890990483,-1.0442095377604126 " />
			<path d="M7.931558890990483,-1.0442095377604126 L7.969557584733964,-0.6972459419812653 " />
			<path d="M7.969557584733964,-0.6972459419812653 L7.992385772654862,-0.348955098922688 " />
			<path d="M7.992385772654862,-0.348955098922688 L8.0,0.0 " />
			<path d="M8.0,0.0 L7.992385772654862,0.348955098922688 " />
			<path d="M7.992385772654862,0.348955098922688 L7.969557584733964,0.6972459419812653 " />
			<path d="M7.969557584733964,0.6972459419812653 L7.931558890990483,1.0442095377604126 " />
			<path d="M7.931558890990483,1.0442095377604126 L7.878462024097664,1.3891854213354426 " />
			<path d="M7.878462024097664,1.3891854213354426 L7.810368056959467,1.731516911504823 " />
			<path d="M7.810368056959467,1.731516911504823 L7.7274066103125465,2.070552360820166 " />
			<path d="M7.7274066103125465,2.070552360820166 L7.6297356059858155,2.405646396034185 " />
			<path d="M7.6297356059858155,2.405646396034185 L7.517540966287267,2.7361611466053497 " />
			<path d="M7.517540966287267,2.7361611466053497 L7.391036260090294,3.0614674589207183 " />
			<path d="M7.391036260090294,3.0614674589207183 L7.2504622962931995,3.3809460939255955 " />
			<path d="M7.2504622962931995,3.3809460939255955 L7.096086665425774,3.6939889058802713 " />
			<path d="M7.096086665425774,3.6939889058802713 L6.92820323027551,3.9999999999999996 " />
			<path d="M6.92820323027551,3.9999999999999996 L3.464101615137755,1.9999999999999998 " />
			<path d="M3.548043332712887,1.8469944529401356 L3.464101615137755,1.9999999999999998 " />
			<path d="M3.6252311481465997,1.6904730469627978 L3.548043332712887,1.8469944529401356 " />
			<path d="M3.695518130045147,1.5307337294603591 L3.6252311481465997,1.6904730469627978 " />
			<path d="M3.7587704831436337,1.3680805733026749 L3.695518130045147,1.5307337294603591 " />
			<path d="M3.8148678029929077,1.2028231980170925 L3.7587704831436337,1.3680805733026749 " />
			<path d="M3.8637033051562732,1.035276180410083 L3.8148678029929077,1.2028231980170925 " />
			<path d="M3.9051840284797334,0.8657584557524115 L3.8637033051562732,1.035276180410083 " />
			<path d="M3.939231012048832,0.6945927106677213 L3.9051840284797334,0.8657584557524115 " />
			<path d="M3.9657794454952415,0.5221047688802063 L3.939231012048832,0.6945927106677213 " />
			<path d="M3.984778792366982,0.34862297099063266 L3.9657794454952415,0.5221047688802063 " />
			<path d="M3.996192886327431,0.174477549461344 L3.984778792366982,0.34862297099063266 " />
			<path d="M4.0,0.0 L3.996192886327431,0.174477549461344 " />
			<path d="M3.996192886327431,-0.174477549461344 L4.0,0.0 " />
			<path d="M3.984778792366982,-0.34862297099063266 L3.996192886327431,-0.174477549461344 " />
			<path d="M3.9657794454952415,-0.5221047688802063 L3.984778792366982,-0.34862297099063266 " />
			<path d="M3.939231012048832,-0.6945927106677213 L3.9657794454952415,-0.5221047688802063 " />
			<path d="M3.9051840284797334,-0.8657584557524115 L3.939231012048832,-0.6945927106677213 " />
			<path d="M3.8637033051562732,-1.035276180410083 L3.9051840284797334,-0.8657584557524115 " />
			<path d="M3.8148678029929077,-1.2028231980170925 L3.8637033051562732,-1.035276180410083 " />
			<path d="M3.7587704831436337,-1.3680805733026749 L3.8148678029929077,-1.2028231980170925 " />
			<path d="M3.695518130045147,-1.5307337294603591 L3.7587704831436337,-1.3680805733026749 " />
			<path d="M3.6252311481465997,-1.6904730469627978 L3.695518130045147,-1.5307337294603591 " />
			<path d="M3.548043332712887,-1.8469944529401356 L3.6252311481465997,-1.6904730469627978 " />
			<path d="M3.464101615137755,-1.9999999999999998 L3.548043332712887,-1.8469944529401356 " />
			<path d="M14.1,0.0 L14.09600680517312,0.33554753540011595 L14.084029482480412,0.6709050131147662 L14.064074816004574,1.005882483109176 L14.036154108280492,1.3402902105889754 L14.000283173893365,1.673938783468003 L13.956482330521151,2.0066392196533203 L13.90477638742643,2.338203074086675 L13.845194631404164,2.6684425454817835 L13.77777081019335,2.997170582696971 L13.702543113361937,3.3242009906829235 L13.619554150675864,3.6493485359455424 L13.528850927964413,3.9724290514641583 L13.430484820495632,4.293259541005689 L13.324511543876826,4.611658282775645 L13.21099112249664,4.927444932347287 L13.089987855526623,5.240440624810619 L12.961570280501483,5.550468076083375 L12.825811134498709,5.8573516833266 L12.682787312939503,6.160917624407971 L12.53257982603442,6.460993956356489 L12.375273752898304,6.757410712752804 L12.210958193360584,7.050000000000002 L12.039726217498187,7.33859609242032 L11.861674812919652,7.623035526123928 L11.676904829830326,7.903157191596609 L11.48552092390973,8.178802424953897 L11.287631497033479,8.449815097809996 L11.0833486358733,8.716041705710538 L10.872788048409962,8.977331455079147 L10.656068998395039,9.233536348628522 L10.433314237798658,9.484511269187664 L10.204649937281484,9.730114061897783 L9.970205614730316,9.970205614730324 L9.730114061897774,10.204649937281493 L9.484511269187657,10.433314237798665 L9.233536348628514,10.656068998395046 L8.97733145507914,10.87278804840997 L8.716041705710527,11.083348635873309 L8.449815097809985,11.287631497033486 L8.178802424953888,11.485520923909737 L7.9031571915965975,11.676904829830333 L7.623035526123919,11.86167481291966 L7.33859609242031,12.039726217498194 L7.049999999999993,12.210958193360588 L6.757410712752796,12.375273752898307 L6.460993956356482,12.532579826034421 L6.160917624407966,12.682787312939507 L5.857351683326597,12.825811134498709 L5.550468076083371,12.961570280501485 L5.240440624810618,13.089987855526623 L4.927444932347288,13.21099112249664 L4.611658282775647,13.324511543876826 L4.293259541005693,13.430484820495632 L3.972429051464163,13.528850927964411 L3.6493485359455486,13.619554150675862 L3.3242009906829306,13.702543113361935 L2.9971705826969792,13.777770810193347 L2.6684425454817933,13.845194631404162 L2.338203074086686,13.904776387426429 L2.0066392196533327,13.95648233052115 L1.6739387834680166,14.000283173893363 L1.3402902105889902,14.03615410828049 L1.0058824831091917,14.064074816004574 L0.6709050131147836,14.084029482480412 L0.3355475354001344,14.096006805173118 L1.9648349570056532e-14,14.1 L-0.3355475354000951,14.09600680517312 L-0.6709050131147443,14.084029482480414 L-1.0058824831091526,14.064074816004576 L-1.340290210588951,14.036154108280495 L-1.6739387834679773,14.000283173893369 L-2.0066392196532936,13.956482330521155 L-2.3382030740866475,13.904776387426436 L-2.6684425454817546,13.845194631404171 L-2.997170582696941,13.777770810193354 L-3.3242009906828924,13.702543113361944 L-3.6493485359455105,13.61955415067587 L-3.9724290514641254,13.528850927964422 L-4.293259541005654,13.430484820495643 L-4.61165828277561,13.324511543876838 L-4.9274449323472505,13.210991122496655 L-5.2404406248105815,13.089987855526639 L-5.550468076083336,12.961570280501501 L-5.85735168332656,12.825811134498727 L-6.160917624407934,12.68278731293952 L-6.460993956356452,12.532579826034437 L-6.757410712752769,12.375273752898321 L-7.0499999999999705,12.210958193360602 L-7.33859609242029,12.039726217498204 L-7.623035526123901,11.86167481291967 L-7.903157191596582,11.676904829830345 L-8.178802424953872,11.48552092390975 L-8.44981509780997,11.287631497033496 L-8.716041705710515,11.083348635873318 L-8.977331455079126,10.872788048409978 L-9.233536348628505,10.656068998395053 L-9.484511269187646,10.433314237798674 L-9.730114061897767,10.2046499372815 L-9.97020561473031,9.97020561473033 L-10.20464993728148,9.730114061897787 L-10.433314237798655,9.484511269187667 L-10.656068998395037,9.233536348628526 L-10.87278804840996,8.977331455079149 L-11.0833486358733,8.716041705710538 L-11.28763149703348,8.449815097809994 L-11.485520923909734,8.178802424953895 L-11.67690482983033,7.903157191596604 L-11.861674812919656,7.623035526123924 L-12.03972621749819,7.338596092420314 L-12.210958193360588,7.049999999999994 L-12.375273752898307,6.757410712752794 L-12.532579826034425,6.460993956356477 L-12.68278731293951,6.160917624407958 L-12.825811134498714,5.857351683326585 L-12.961570280501492,5.550468076083358 L-13.08998785552663,5.240440624810601 L-13.210991122496647,4.927444932347267 L-13.324511543876833,4.6116582827756245 L-13.430484820495641,4.293259541005667 L-13.52885092796442,3.972429051464134 L-13.619554150675869,3.649348535945516 L-13.702543113361944,3.324200990682895 L-13.777770810193354,2.99717058269694 L-13.845194631404171,2.668442545481751 L-13.904776387426436,2.338203074086641 L-13.956482330521156,2.006639219653284 L-14.000283173893369,1.6739387834679644 L-14.036154108280497,1.340290210588935 L-14.064074816004577,1.0058824831091333 L-14.084029482480414,0.6709050131147218 L-14.09600680517312,0.3355475354000695 L-14.1,-4.83665108842893e-14 L-14.096006805173118,-0.3355475354001662 L-14.08402948248041,-0.6709050131148184 L-14.06407481600457,-1.0058824831092297 L-14.036154108280488,-1.3402902105890313 L-14.000283173893356,-1.6739387834680606 L-13.956482330521142,-2.0066392196533798 L-13.90477638742642,-2.338203074086736 L-13.845194631404151,-2.668442545481846 L-13.777770810193335,-2.9971705826970347 L-13.702543113361921,-3.3242009906829892 L-13.619554150675844,-3.6493485359456095 L-13.528850927964392,-3.972429051464226 L-13.43048482049561,-4.293259541005758 L-13.3245115438768,-4.611658282775716 L-13.210991122496614,-4.927444932347358 L-13.089987855526594,-5.240440624810691 L-12.961570280501453,-5.550468076083447 L-12.825811134498675,-5.857351683326673 L-12.682787312939467,-6.160917624408046 L-12.532579826034382,-6.460993956356562 L-12.375273752898263,-6.757410712752879 L-12.21095819336054,-7.050000000000078 L-12.03972621749814,-7.338596092420397 L-11.861674812919603,-7.6230355261240055 L-11.676904829830274,-7.903157191596684 L-11.485520923909677,-8.178802424953973 L-11.287631497033422,-8.449815097810072 L-11.083348635873241,-8.716041705710612 L-10.8727880484099,-8.977331455079224 L-10.656068998394973,-9.233536348628599 L-10.43331423779859,-9.484511269187738 L-10.204649937281415,-9.730114061897858 L-9.970205614730242,-9.970205614730396 L-9.730114061897698,-10.204649937281566 L-9.484511269187577,-10.43331423779874 L-9.233536348628432,-10.656068998395119 L-8.977331455079053,-10.87278804841004 L-8.716041705710438,-11.083348635873378 L-8.449815097809894,-11.287631497033555 L-8.178802424953794,-11.485520923909805 L-7.903157191596501,-11.676904829830399 L-7.623035526123819,-11.861674812919723 L-7.338596092420207,-12.039726217498256 L-7.049999999999886,-12.21095819336065 L-6.757410712752685,-12.375273752898368 L-6.460993956356366,-12.532579826034482 L-6.160917624407846,-12.682787312939563 L-5.857351683326471,-12.825811134498766 L-5.550468076083244,-12.96157028050154 L-5.240440624810486,-13.089987855526676 L-4.927444932347151,-13.210991122496692 L-4.611658282775506,-13.324511543876874 L-4.293259541005548,-13.430484820495678 L-3.9724290514640144,-13.528850927964454 L-3.649348535945396,-13.619554150675903 L-3.3242009906827743,-13.702543113361973 L-2.997170582696819,-13.777770810193381 L-2.668442545481629,-13.845194631404194 L-2.338203074086518,-13.904776387426457 L-2.006639219653161,-13.956482330521174 L-1.673938783467841,-14.000283173893383 L-1.340290210588811,-14.036154108280508 L-1.0058824831090092,-14.064074816004586 L-0.6709050131145976,-14.08402948248042 L-0.33554753539994514,-14.096006805173124 L1.7273629206860807e-13,-14.1 L0.33554753540029053,-14.096006805173115 L0.6709050131149427,-14.084029482480403 L1.0058824831093538,-14.064074816004561 L1.340290210589155,-14.036154108280476 L1.673938783468184,-14.000283173893342 L2.0066392196535023,-13.956482330521126 L2.338203074086859,-13.9047763874264 L2.6684425454819682,-13.845194631404128 L2.9971705826971564,-13.777770810193308 L3.32420099068311,-13.702543113361891 L3.6493485359457294,-13.619554150675812 L3.972429051464346,-13.528850927964358 L4.293259541005877,-13.430484820495574 L4.611658282775833,-13.32451154387676 L4.927444932347474,-13.21099112249657 L5.240440624810806,-13.089987855526548 L5.55046807608356,-12.961570280501403 L5.857351683326787,-12.825811134498624 L6.160917624408157,-12.682787312939414 L6.460993956356674,-12.532579826034324 L6.757410712752987,-12.375273752898202 L7.050000000000185,-12.210958193360478 L7.338596092420503,-12.039726217498076 L7.6230355261241085,-11.861674812919535 L7.903157191596787,-11.676904829830205 L8.178802424954075,-11.485520923909606 L8.44981509781017,-11.287631497033347 L8.716041705710712,-11.083348635873165 L8.97733145507932,-10.87278804840982 L9.233536348628691,-10.656068998394892 L9.48451126918783,-10.433314237798506 L9.730114061897947,-10.204649937281328 L9.970205614730487,-9.970205614730153 L10.204649937281653,-9.730114061897607 L10.433314237798822,-9.484511269187484 L10.656068998395199,-9.233536348628338 L10.872788048410118,-8.977331455078957 L11.083348635873454,-8.716041705710342 L11.287631497033628,-8.449815097809795 L11.485520923909878,-8.178802424953691 L11.676904829830468,-7.9031571915963985 L11.86167481291979,-7.623035526123714 L12.03972621749832,-7.338596092420103 L12.210958193360712,-7.049999999999779 L12.375273752898428,-6.757410712752575 L12.53257982603454,-6.460993956356256 L12.682787312939618,-6.160917624407735 L12.825811134498817,-5.8573516833263595 L12.961570280501588,-5.550468076083129 L13.089987855526722,-5.24044062481037 L13.210991122496734,-4.927444932347035 L13.324511543876914,-4.611658282775389 L13.430484820495716,-4.293259541005429 L13.528850927964491,-3.9724290514638954 L13.619554150675933,-3.6493485359452755 L13.702543113362003,-3.3242009906826535 L13.777770810193408,-2.9971705826966972 L13.845194631404217,-2.668442545481507 L13.904776387426478,-2.3382030740863953 L13.956482330521192,-2.0066392196530374 L14.000283173893399,-1.6739387834677175 L14.03615410828052,-1.3402902105886871 L14.064074816004597,-1.0058824831088853 L14.084029482480426,-0.6709050131144734 L14.096006805173127,-0.33554753539982085 L14.1,2.9710607325292683e-13 " />
			<path d="M12.5,0.0 L12.496020596153343,0.3153874767828055 L12.484084918318173,0.6305741449034835 L12.46420056599565,0.9453593235557087 L12.436380199644677,1.2595425875633532 L12.400641532620915,1.5729238949921212 L12.357007319898607,1.8853037145171725 L12.305505343582384,2.1964831524656376 L12.246168395218273,2.506264079453137 L12.179034254915168,2.814449256533674 L12.10414566729005,3.120842460782585 L12.021550314252309,3.4252486102325763 L11.93130078464444,3.7274738880833174 L11.833454540758487,4.027325866105491 L11.72807388174954,4.324613627160733 L11.615225903969566,4.61914788675946 L11.494982458246868,4.9107411135791725 L11.367420104138315,5.199207648866515 L11.232620061183528,5.484363824647063 L11.090668157192022,5.76602808066757 L10.94165477359624,6.044021079996216 L10.785674787905286,6.31816582320726 L10.622827513295968,6.588287761077395 L10.453216635379645,6.854214905722042 L10.276950146185124,7.115777940100826 L10.094140275399623,7.372810325822525 L9.904903418911623,7.625148409180824 L9.709360064701066,7.872631525353392 L9.507634716124105,8.115102100697914 L9.299855812641233,8.352405753079951 L9.086155648039293,8.584391390168769 L8.866670286199414,8.810911305638504 L8.641539474464505,9.031821273213488 L8.410906554661482,9.246980638497766 L8.17491837183486,9.456252408530395 L7.933725180749844,9.65950333900951 L7.687480550224413,9.856604019129577 L7.4363412653513565,10.047428953977859 L7.180467227672479,10.231856644437583 L6.920021353368548,10.409769664547017 L6.655169469529812,10.581054736265108 L6.386080208573124,10.745602801596132 L6.112924900872909,10.903309092027426 L5.835877465674317,11.054073195235986 L5.555114300358042,11.19779911902145 L5.270814168127295,11.334395352424785 L4.983158084188442,11.463774923993727 L4.692329200497795,11.585855457157908 L4.398512689147911,11.700559222678411 L4.101895624467665,11.807813188138311 L3.8026668639111647,11.907549064442776 L3.501016927811336,11.999703349299034 L3.1971378780747495,12.084217367648584 L2.8912231958949146,12.161037309025872 L2.5834676585619145,12.23011426181966 L2.274067215446803,12.291404244415283 L1.9632188632397396,12.344868233197943 L1.6511205205212833,12.390472187399217 L1.3379709017467223,12.428187070770983 L1.023969390723661,12.457988870072931 L0.7093159136634317,12.479858610361891 L0.39421081188714985,12.493782367073281 L0.07885471426747323,12.499751274886945 L-0.2365515905127286,12.497761533371722 L-0.5518072818034554,12.487814409405223 L-0.8667116348510109,12.469916236367183 L-1.1810641486003792,12.444078410106988 L-1.4946646733551738,12.41031738168787 L-1.8073135382138708,12.368654646912447 L-2.1188116782011943,12.31911673263624 L-2.4289607610137067,12.261735179877917 L-2.737563313298898,12.196546523736954 L-3.044422846387384,12.123592270131594 L-3.3493439813981487,12.042918869371826 L-3.6521325736371777,11.95457768658426 L-3.952595836210281,11.85862496900771 L-4.250542462771403,11.755121810180327 L-4.545782749328247,11.64413411104105 L-4.838128715027694,11.525732537970178 L-5.12739422184407,11.399992477795767 L-5.413395093094091,11.266993989794475 L-5.695949230703003,11.126821754717465 L-5.9748767311472735,10.979565020873771 L-6.2499999999999885,10.82531754730549 L-6.521143865006046,10.664177544090965 L-6.788135687615145,10.49624760981398 L-7.050805472901535,10.321634666238761 L-7.3089859778005835,10.140449890232407 L-7.562512817593199,9.95280864297805 L-7.811224570570338,9.75883039652387 L-8.054962880810963,9.558638657714683 L-8.293572559007977,9.352360889554568 L-8.526901681277975,9.140128430050577 L-8.754801685891888,8.922076408589232 L-8.977127467864914,8.698343659899008 L-9.193737471345534,8.469072635653625 L-9.404493779744774,8.234409313772414 L-9.609262203548338,7.994503105475495 L-9.807912365755692,7.749506760152972 L-10.00031778489169,7.499576268108682 L-10.186355955537934,7.244870761240454 L-10.365908426332519,6.9855524117201 L-10.538860875388568,6.721786328737631 L-10.705103183083516,6.453740453375484 L-10.864529502172763,6.18158545167966 L-11.017038325183124,5.9054946059958615 L-11.162532549043085,5.625643704639822 L-11.300919536908795,5.342210929972076 L-11.432111177146355,5.05537674494843 L-11.556023939432917,4.765323778218361 L-11.67257892794082,4.472236707844515 L-11.781701931570923,4.176302143717333 L-11.883323471203163,3.8777085087396697 L-11.977378843934224,3.5766459188570647 L-12.063808164274178,3.2733060620100387 L-12.142556402275858,2.967882076085502 L-12.213573418572663,2.6605684259449656 L-12.276813996302543,2.35156077960787 L-12.332237869897773,2.041055883668851 L-12.379809750722227,1.729251438028279 L-12.419499349539818,1.4163459700158145 L-12.451281395799793,1.1025387079871458 L-12.475135653726609,0.7880294544743729 L-12.491046935204146,0.47301845897081374 L-12.499005109446049,0.15770629043122783 L-12.499005109446047,-0.15770629043136353 L-12.49104693520414,-0.4730184589709493 L-12.4751356537266,-0.7880294544745082 L-12.45128139579978,-1.1025387079872808 L-12.419499349539803,-1.4163459700159493 L-12.379809750722208,-1.7292514380284132 L-12.332237869897751,-2.041055883668985 L-12.276813996302518,-2.351560779608003 L-12.213573418572635,-2.6605684259450983 L-12.142556402275826,-2.9678820760856337 L-12.063808164274144,-3.27330606201017 L-11.977378843934185,-3.5766459188571944 L-11.88332347120312,-3.877708508739799 L-11.781701931570877,-4.176302143717462 L-11.672578927940771,-4.472236707844642 L-11.556023939432865,-4.765323778218486 L-11.4321111771463,-5.055376744948554 L-11.300919536908737,-5.3422109299721985 L-11.162532549043025,-5.625643704639942 L-11.01703832518306,-5.905494605995981 L-10.864529502172697,-6.181585451679778 L-10.705103183083445,-6.4537404533756 L-10.538860875388496,-6.721786328737744 L-10.365908426332442,-6.985552411720213 L-10.186355955537856,-7.244870761240565 L-10.00031778489161,-7.4995762681087905 L-9.807912365755607,-7.749506760153077 L-9.609262203548251,-7.994503105475599 L-9.404493779744683,-8.234409313772515 L-9.193737471345443,-8.469072635653724 L-8.97712746786482,-8.698343659899106 L-8.754801685891792,-8.922076408589326 L-8.526901681277877,-9.14012843005067 L-8.293572559007876,-9.352360889554658 L-8.054962880810864,-9.558638657714766 L-7.811224570570241,-9.758830396523948 L-7.562512817593103,-9.952808642978123 L-7.308985977800492,-10.140449890232475 L-7.050805472901446,-10.321634666238824 L-6.788135687615059,-10.496247609814036 L-6.521143865005964,-10.664177544091014 L-6.249999999999909,-10.825317547305534 L-5.974876731147198,-10.979565020873814 L-5.695949230702932,-11.126821754717502 L-5.413395093094024,-11.266993989794507 L-5.127394221844007,-11.399992477795793 L-4.838128715027634,-11.525732537970203 L-4.545782749328189,-11.644134111041073 L-4.250542462771346,-11.755121810180349 L-3.9525958362102265,-11.85862496900773 L-3.652132573637125,-11.954577686584276 L-3.3493439813980985,-12.04291886937184 L-3.044422846387336,-12.123592270131606 L-2.7375633132988524,-12.196546523736963 L-2.428960761013663,-12.261735179877926 L-2.118811678201154,-12.319116732636248 L-1.8073135382138326,-12.368654646912452 L-1.4946646733551383,-12.410317381687875 L-1.1810641486003466,-12.444078410106991 L-0.8667116348509807,-12.469916236367185 L-0.551807281803428,-12.487814409405223 L-0.2365515905127039,-12.497761533371722 L0.07885471426749516,-12.499751274886945 L0.3942108118871689,-12.493782367073281 L0.7093159136634479,-12.47985861036189 L1.0239693907236747,-12.45798887007293 L1.337970901746733,-12.428187070770983 L1.6511205205212913,-12.390472187399215 L1.963218863239745,-12.344868233197941 L2.274067215446806,-12.291404244415283 L2.583467658561914,-12.23011426181966 L2.891223195894912,-12.161037309025872 L3.1971378780747433,-12.084217367648586 L3.5010169278113277,-11.999703349299038 L3.8026668639111536,-11.90754906444278 L4.101895624467651,-11.807813188138317 L4.398512689147895,-11.700559222678416 L4.6923292004977775,-11.585855457157917 L4.983158084188421,-11.463774923993736 L5.270814168127272,-11.334395352424796 L5.555114300358017,-11.197799119021463 L5.83587746567429,-11.054073195236 L6.11292490087288,-10.903309092027442 L6.386080208573093,-10.745602801596151 L6.6551694695297785,-10.581054736265129 L6.920021353368513,-10.409769664547042 L7.180467227672442,-10.23185664443761 L7.436341265351317,-10.047428953977887 L7.687480550224371,-9.85660401912961 L7.933725180749798,-9.659503339009547 L8.174918371834814,-9.456252408530434 L8.410906554661432,-9.24698063849781 L8.641539474464453,-9.03182127321354 L8.86667028619936,-8.810911305638559 L9.086155648039238,-8.584391390168825 L9.299855812641177,-8.352405753080014 L9.507634716124048,-8.115102100697982 L9.70936006470101,-7.872631525353464 L9.904903418911564,-7.6251484091809 L10.094140275399562,-7.372810325822606 L10.276950146185063,-7.115777940100912 L10.453216635379588,-6.854214905722132 L10.622827513295908,-6.588287761077491 L10.785674787905226,-6.318165823207361 L10.94165477359618,-6.044021079996321 L11.090668157191963,-5.766028080667681 L11.232620061183471,-5.484363824647179 L11.36742010413826,-5.199207648866635 L11.494982458246813,-4.910741113579297 L11.615225903969515,-4.61914788675959 L11.728073881749488,-4.324613627160867 L11.83345454075844,-4.027325866105629 L11.931300784644396,-3.72747388808346 L12.021550314252268,-3.4252486102327238 L12.104145667290013,-3.1208424607827365 L12.179034254915132,-2.8144492565338304 L12.246168395218241,-2.506264079453297 L12.305505343582356,-2.1964831524658024 L12.357007319898582,-1.885303714517341 L12.400641532620895,-1.572923894992294 L12.43638019964466,-1.2595425875635298 L12.464200565995636,-0.9453593235558894 L12.484084918318162,-0.630574144903668 L12.49602059615334,-0.31538747678299367 L12.5,-1.91799531184145e-13 " />
			<path d="M10.500000000000059,4.2632564145606015e-16 L10.496013223762048,0.2893205948657014 L10.484055922549878,0.5784214837365875 L10.464137176570093,0.8670831274594899 L10.436272111838528,1.155086320437833 L10.400481888693843,1.442212357093286 L10.356793685728643,1.7282431979477064 L10.305240679150446,2.012961635199254 L10.245862017588133,2.296151457666946 L10.178702792363028,2.5775976149783917 L10.103814003247187,2.8570863808760176 L10.021252519734887,3.134405515517793 L9.931081037856723,3.409344426649177 L9.833368032569133,3.6816943295239213 L9.728187705755477,3.9512484054522723 L9.61561992987816,4.217801958856179 L9.495750187324623,4.481152572712238 L9.368669505493196,4.741100262264339 L9.234474387668193,4.997447626889272 L9.093266739736665,5.249999999999999 L8.945153792802493,5.498565596872718 L8.790248021756609,5.742955660285482 L8.628667059865133,5.982984603857795 L8.46053360944033,6.21847015298229 L8.285975348662191,6.449233483241512 L8.105124834621428,6.675099356204664 L7.91811940265747,6.895896252501211 L7.725101062067942,7.111456502070282 L7.526216388268798,7.321616411486952 L7.321616411487011,7.526216388268738 L7.111456502070341,7.725101062067882 L6.895896252501271,7.91811940265741 L6.675099356204724,8.10512483462137 L6.449233483241572,8.285975348662133 L6.218470152982349,8.46053360944027 L5.9829846038578545,8.628667059865075 L5.742955660285542,8.79024802175655 L5.498565596872778,8.945153792802435 L5.25000000000006,9.093266739736606 L4.997447626889333,9.234474387668135 L4.741100262264398,9.368669505493136 L4.481152572712299,9.495750187324562 L4.217801958856239,9.615619929878102 L3.9512484054523327,9.728187705755419 L3.6816943295239812,9.833368032569075 L3.4093444266492368,9.931081037856664 L3.1344055155178534,10.021252519734828 L2.857086380876078,10.103814003247129 L2.5775976149784516,10.17870279236297 L2.296151457667006,10.245862017588074 L2.012961635199314,10.305240679150387 L1.7282431979477662,10.356793685728585 L1.442212357093346,10.400481888693784 L1.155086320437893,10.43627211183847 L0.8670831274595495,10.464137176570034 L0.5784214837366473,10.48405592254982 L0.289320594865761,10.49601322376199 L6.004431227909675e-14,10.5 L-0.28932059486564093,10.49601322376199 L-0.5784214837365271,10.48405592254982 L-0.8670831274594294,10.464137176570034 L-1.1550863204377726,10.43627211183847 L-1.442212357093226,10.400481888693784 L-1.7282431979476458,10.356793685728585 L-2.0129616351991935,10.305240679150387 L-2.296151457666886,10.245862017588074 L-2.5775976149783313,10.17870279236297 L-2.8570863808759577,10.103814003247129 L-3.134405515517733,10.021252519734828 L-3.409344426649117,9.931081037856664 L-3.6816943295238613,9.833368032569075 L-3.9512484054522123,9.728187705755419 L-4.2178019588561195,9.615619929878102 L-4.481152572712179,9.495750187324564 L-4.741100262264276,9.368669505493138 L-4.997447626889208,9.234474387668138 L-5.249999999999934,9.09326673973661 L-5.49856559687265,8.945153792802438 L-5.742955660285412,8.790248021756558 L-5.982984603857724,8.628667059865082 L-6.218470152982218,8.46053360944028 L-6.4492334832414375,8.285975348662145 L-6.675099356204588,8.105124834621382 L-6.895896252501134,7.9181194026574255 L-7.111456502070204,7.725101062067899 L-7.321616411486873,7.526216388268757 L-7.526216388268657,7.321616411486974 L-7.725101062067801,7.111456502070305 L-7.918119402657329,6.895896252501237 L-8.105124834621288,6.675099356204692 L-8.28597534866205,6.449233483241543 L-8.460533609440187,6.218470152982324 L-8.62866705986499,5.982984603857831 L-8.790248021756467,5.742955660285521 L-8.94515379280235,5.498565596872759 L-9.093266739736523,5.250000000000044 L-9.234474387668051,4.997447626889319 L-9.368669505493052,4.741100262264388 L-9.49575018732448,4.481152572712291 L-9.61561992987802,4.217801958856234 L-9.728187705755337,3.9512484054523305 L-9.833368032568995,3.6816943295239817 L-9.931081037856584,3.4093444266492403 L-10.02125251973475,3.134405515517859 L-10.10381400324705,2.8570863808760865 L-10.178702792362893,2.5775976149784627 L-10.245862017588,2.296151457667021 L-10.305240679150314,2.0129616351993307 L-10.356793685728514,1.728243197947786 L-10.400481888693715,1.4422123570933687 L-10.436272111838402,1.1550863204379178 L-10.464137176569968,0.8670831274595772 L-10.484055922549757,0.5784214837366775 L-10.49601322376193,0.2893205948657936 L-10.499999999999941,9.497093884907393e-14 L-10.496013223761933,-0.28932059486560374 L-10.484055922549768,-0.5784214837364877 L-10.464137176569983,-0.8670831274593879 L-10.436272111838422,-1.155086320437729 L-10.40048188869374,-1.4422123570931804 L-10.356793685728544,-1.7282431979475985 L-10.30524067915035,-2.0129616351991446 L-10.24586201758804,-2.296151457666835 L-10.17870279236294,-2.577597614978279 L-10.103814003247102,-2.857086380875904 L-10.021252519734805,-3.134405515517678 L-9.931081037856645,-3.4093444266490605 L-9.83336803256906,-3.6816943295238036 L-9.728187705755408,-3.951248405452154 L-9.615619929878097,-4.217801958856061 L-9.495750187324562,-4.481152572712119 L-9.36866950549314,-4.741100262264219 L-9.234474387668142,-4.997447626889152 L-9.093266739736617,-5.24999999999988 L-8.945153792802449,-5.498565596872598 L-8.79024802175657,-5.742955660285363 L-8.628667059865098,-5.982984603857676 L-8.460533609440299,-6.218470152982171 L-8.285975348662166,-6.449233483241394 L-8.105124834621407,-6.675099356204546 L-7.918119402657452,-6.895896252501095 L-7.725101062067928,-7.111456502070166 L-7.52621638826879,-7.321616411486837 L-7.321616411487008,-7.526216388268626 L-7.111456502070342,-7.725101062067771 L-6.895896252501277,-7.918119402657302 L-6.6750993562047345,-8.105124834621263 L-6.449233483241587,-8.285975348662028 L-6.218470152982371,-8.460533609440168 L-5.982984603857879,-8.628667059864974 L-5.742955660285571,-8.790248021756453 L-5.498565596872811,-8.94515379280234 L-5.250000000000098,-9.093266739736514 L-4.997447626889375,-9.234474387668048 L-4.741100262264445,-9.368669505493054 L-4.481152572712349,-9.495750187324482 L-4.2178019588562945,-9.615619929878028 L-3.951248405452392,-9.728187705755346 L-3.6816943295240447,-9.833368032569005 L-3.4093444266493043,-9.9310810378566 L-3.134405515517925,-10.021252519734768 L-2.857086380876153,-10.103814003247075 L-2.5775976149785302,-10.17870279236292 L-2.2961514576670887,-10.245862017588028 L-2.0129616351993995,-10.305240679150348 L-1.7282431979478554,-10.356793685728551 L-1.4422123570934386,-10.400481888693754 L-1.1550863204379884,-10.436272111838447 L-0.8670831274596481,-10.464137176570016 L-0.5784214837367486,-10.484055922549809 L-0.2893205948658649,-10.496013223761985 L-1.6634840776354426e-13,-10.5 L0.2893205948655324,-10.496013223761995 L0.5784214837364166,-10.484055922549832 L0.8670831274593169,-10.464137176570054 L1.1550863204376585,-10.436272111838495 L1.4422123570931102,-10.400481888693816 L1.728243197947529,-10.356793685728624 L2.012961635199076,-10.305240679150435 L2.296151457666767,-10.245862017588127 L2.577597614978212,-10.17870279236303 L2.8570863808758378,-10.103814003247196 L3.1344055155176123,-10.021252519734903 L3.409344426648996,-9.931081037856746 L3.6816943295237414,-9.833368032569165 L3.951248405452093,-9.728187705755515 L4.2178019588560005,-9.615619929878207 L4.481152572712061,-9.495750187324676 L4.741100262264161,-9.368669505493257 L4.997447626889097,-9.234474387668262 L5.249999999999827,-9.093266739736741 L5.498565596872545,-8.945153792802577 L5.742955660285313,-8.7902480217567 L5.982984603857627,-8.628667059865231 L6.218470152982126,-8.460533609440436 L6.4492334832413505,-8.285975348662305 L6.6750993562045045,-8.10512483462155 L6.895896252501056,-7.918119402657599 L7.111456502070129,-7.725101062068077 L7.321616411486803,-7.52621638826894 L7.526216388268593,-7.321616411487161 L7.725101062067742,-7.1114565020704985 L7.918119402657275,-6.895896252501435 L8.105124834621238,-6.675099356204895 L8.285975348662006,-6.44923348324175 L8.46053360944015,-6.218470152982535 L8.628667059864958,-5.982984603858047 L8.790248021756438,-5.74295566028574 L8.94515379280233,-5.498565596872982 L9.093266739736508,-5.250000000000272 L9.234474387668044,-4.99744762688955 L9.368669505493052,-4.741100262264622 L9.495750187324486,-4.481152572712528 L9.615619929878031,-4.217801958856475 L9.728187705755355,-3.951248405452573 L9.83336803256902,-3.681694329524227 L9.931081037856616,-3.4093444266494877 L10.021252519734787,-3.1344055155181088 L10.103814003247097,-2.8570863808763387 L10.178702792362946,-2.5775976149787163 L10.24586201758806,-2.296151457667276 L10.305240679150382,-2.0129616351995874 L10.356793685728586,-1.7282431979480437 L10.400481888693797,-1.4422123570936276 L10.43627211183849,-1.1550863204381778 L10.464137176570063,-0.8670831274598378 L10.48405592254986,-0.5784214837369385 L10.49601322376204,-0.28932059486605505 L10.500000000000059,-3.5652862209710335e-13 " />

       </g>
    </g>
    
</svg>
