<?xml version="1.0" encoding="UTF-8" standalone="no"?>
<svg
   xmlns:svg="http://www.w3.org/2000/svg"
   xmlns="http://www.w3.org/2000/svg"
   width="800.0"
   height="800.0"

>
    <g transform="scale(12.244897934194078, -12.244897934194078)   translate(30.266666773333338,-21.26666677333336)" stroke-width="0.08166666683333339"  fill="none">
       <!-- hidden lines -->
       <g  stroke="rgb(180,180,180)" fill="none" stroke-dasharray="0.08166666683333339,0.08166666683333339" >

       </g>

       <!-- solid lines -->
       <g  stroke="rgb(40,40,40)" fill="none">
			<path d="M-3.0,-17.74823934929885 L0.0,-17.74823934929885 " />
			<path d="M0.0,-17.748239349298903 L0.0,-16.7167179368087 L0.0,-14.93359931149981 L0.0,-12.479053934701627 L0.0,-9.463440159705277 L0.0,-6.022342430586015 L0.0,-2.3104752954997196 L0.0,1.5052726850341318 L0.0,5.253342383330978 L0.0,8.765217542232037 L0.0,11.883001402865448 L0.0,14.46651587114114 L0.0,16.399604038689127 L0.0,17.595352691782058 L0.0,17.999999999999982 " />
			<path d="M0.0,18.0 L-4.0,18.0 " />
			<path d="M-4.0,-18.0 L-4.0,-17.548702419272825 L-4.0,-16.217439622243546 L-4.0,-14.07296668442454 L-4.0,-11.222816433457206 L-4.0,-7.809907304116049 L-4.0,-4.0053768112136625 L-4.0,-3.3065463576978533e-15 L-4.0,4.005376811213656 L-4.0,7.809907304116043 L-4.0,11.2228164334572 L-4.0,14.072966684424534 L-4.0,16.217439622243543 L-4.0,17.54870241927282 L-4.0,17.999999999999982 " />
			<path d="M0.0,-17.748239349298956 L0.0,-31.0 " />
			<path d="M-3.0,-17.74823934929885 L-3.0,-31.0 " />
			<path d="M0.0,-31.0 L-3.0,-31.0 " />
			<path d="M-4.0,18.0 L-8.0,18.0 " />
			<path d="M-4.0,-18.0 L-4.0,-17.548702419272825 L-4.0,-16.217439622243546 L-4.0,-14.07296668442454 L-4.0,-11.222816433457206 L-4.0,-7.809907304116049 L-4.0,-4.0053768112136625 L-4.0,-3.3065463576978533e-15 L-4.0,4.005376811213656 L-4.0,7.809907304116043 L-4.0,11.2228164334572 L-4.0,14.072966684424534 L-4.0,16.217439622243543 L-4.0,17.54870241927282 L-4.0,17.999999999999982 " />
			<path d="M-8.0,-18.0 L-8.0,-17.548702419272825 L-8.0,-16.217439622243546 L-8.0,-14.07296668442454 L-8.0,-11.222816433457206 L-8.0,-7.809907304116049 L-8.0,-4.0053768112136625 L-8.0,-3.3065463576978533e-15 L-8.0,4.005376811213656 L-8.0,7.809907304116043 L-8.0,11.2228164334572 L-8.0,14.072966684424534 L-8.0,16.217439622243543 L-8.0,17.54870241927282 L-8.0,17.999999999999982 " />
			<path d="M-8.0,14.1 L-11.0,14.1 " />
			<path d="M-11.0,-14.1 L-11.0,-13.746483561763712 L-11.0,-12.70366103742411 L-11.0,-11.023823902799222 L-11.0,-8.791206206208145 L-11.0,-6.117760721557572 L-11.0,-3.1375451687840354 L-11.0,-2.5901279801966517e-15 L-11.0,3.1375451687840306 L-11.0,6.117760721557567 L-11.0,8.791206206208141 L-11.0,11.023823902799219 L-11.0,12.703661037424109 L-11.0,13.74648356176371 L-11.0,14.099999999999985 " />
			<path d="M-11.0,12.5 L-27.0,12.5 " />
			<path d="M-27.0,-12.5 L-27.0,-12.186598902272795 L-27.0,-11.262110848780239 L-27.0,-9.772893530850373 L-27.0,-7.793622523234172 L-27.0,-5.4235467389694785 L-27.0,-2.7815116744539323 L-27.0,-2.296212748401287e-15 L-27.0,2.781511674453928 L-27.0,5.423546738969474 L-27.0,7.793622523234167 L-27.0,9.772893530850371 L-27.0,11.262110848780239 L-27.0,12.186598902272793 L-27.0,12.499999999999988 " />
			<path d="M-4.0,-18.0 L-3.0,-18.0 " />
			<path d="M-8.0,-18.0 L-4.0,-18.0 " />
			<path d="M-11.0,-14.1 L-8.0,-14.1 " />
			<path d="M-27.0,-12.5 L-11.0,-12.5 " />

       </g>
    </g>
    
</svg>
