<?xml version="1.0" encoding="UTF-8" standalone="no"?>
<svg
   xmlns:svg="http://www.w3.org/2000/svg"
   xmlns="http://www.w3.org/2000/svg"
   width="800.0"
   height="800.0"

>
    <g transform="scale(12.244897934194078, -12.244897934194078)   translate(34.266666773333334,-21.26666677333336)" stroke-width="0.08166666683333339"  fill="none">
       <!-- hidden lines -->
       <g  stroke="rgb(180,180,180)" fill="none" stroke-dasharray="0.08166666683333339,0.08166666683333339" >

       </g>

       <!-- solid lines -->
       <g  stroke="rgb(40,40,40)" fill="none">
			<path d="M0.0,-18.0 L0.0,-17.548702419272825 L0.0,-16.217439622243546 L0.0,-14.07296668442454 L0.0,-11.222816433457206 L0.0,-7.809907304116049 L0.0,-4.0053768112136625 L0.0,-3.3065463576978533e-15 L0.0,4.005376811213656 L0.0,7.809907304116043 L0.0,11.2228164334572 L0.0,14.072966684424534 L0.0,16.217439622243543 L0.0,17.54870241927282 L0.0,17.999999999999982 " />
			<path d="M0.0,18.0 L-4.0,18.0 " />
			<path d="M-4.0,-18.0 L-4.0,-17.548702419272825 L-4.0,-16.217439622243546 L-4.0,-14.07296668442454 L-4.0,-11.222816433457206 L-4.0,-7.809907304116049 L-4.0,-4.0053768112136625 L-4.0,-3.3065463576978533e-15 L-4.0,4.005376811213656 L-4.0,7.809907304116043 L-4.0,11.2228164334572 L-4.0,14.072966684424534 L-4.0,16.217439622243543 L-4.0,17.54870241927282 L-4.0,17.999999999999982 " />
			<path d="M-3.5,-17.74823934929885 L-0.5,-17.74823934929885 " />
			<path d="M-3.5,-17.74823934929885 L-3.5,-31.0 " />
			<path d="M-0.5,-17.74823934929885 L-0.5,-31.0 " />
			<path d="M-0.5,-31.0 L-3.5,-31.0 " />
			<path d="M-4.0,18.0 L-8.0,18.0 " />
			<path d="M-4.0,-18.0 L-4.0,-17.548702419272825 L-4.0,-16.217439622243546 L-4.0,-14.07296668442454 L-4.0,-11.222816433457206 L-4.0,-7.809907304116049 L-4.0,-4.0053768112136625 L-4.0,-3.3065463576978533e-15 L-4.0,4.005376811213656 L-4.0,7.809907304116043 L-4.0,11.2228164334572 L-4.0,14.072966684424534 L-4.0,16.217439622243543 L-4.0,17.54870241927282 L-4.0,17.999999999999982 " />
			<path d="M-8.0,-18.0 L-8.0,-17.548702419272825 L-8.0,-16.217439622243546 L-8.0,-14.07296668442454 L-8.0,-11.222816433457206 L-8.0,-7.809907304116049 L-8.0,-4.0053768112136625 L-8.0,-3.3065463576978533e-15 L-8.0,4.005376811213656 L-8.0,7.809907304116043 L-8.0,11.2228164334572 L-8.0,14.072966684424534 L-8.0,16.217439622243543 L-8.0,17.54870241927282 L-8.0,17.999999999999982 " />
			<path d="M-8.0,14.1 L-11.0,14.1 " />
			<path d="M-11.0,-14.1 L-11.0,-13.746483561763712 L-11.0,-12.70366103742411 L-11.0,-11.023823902799222 L-11.0,-8.791206206208145 L-11.0,-6.117760721557572 L-11.0,-3.1375451687840354 L-11.0,-2.5901279801966517e-15 L-11.0,3.1375451687840306 L-11.0,6.117760721557567 L-11.0,8.791206206208141 L-11.0,11.023823902799219 L-11.0,12.703661037424109 L-11.0,13.74648356176371 L-11.0,14.099999999999985 " />
			<path d="M1.5,1.5 L0.0,1.5 " />
			<path d="M1.5,-1.5 L1.5,-1.4623918682727355 L1.5,-1.3514533018536288 L1.5,-1.1727472237020449 L1.5,-0.9352347027881005 L1.5,-0.6508256086763374 L1.5,-0.3337814009344719 L1.5,-2.755455298081545e-16 L1.5,0.33378140093447134 L1.5,0.6508256086763369 L1.5,0.9352347027881001 L1.5,1.1727472237020446 L1.5,1.3514533018536286 L1.5,1.4623918682727353 L1.5,1.4999999999999984 " />
			<path d="M-11.0,12.5 L-31.0,12.5 " />
			<path d="M-31.0,-12.5 L-31.0,-12.186598902272795 L-31.0,-11.262110848780239 L-31.0,-9.772893530850373 L-31.0,-7.793622523234172 L-31.0,-5.4235467389694785 L-31.0,-2.7815116744539323 L-31.0,-2.296212748401287e-15 L-31.0,2.781511674453928 L-31.0,5.423546738969474 L-31.0,7.793622523234167 L-31.0,9.772893530850371 L-31.0,11.262110848780239 L-31.0,12.186598902272793 L-31.0,12.499999999999988 " />
			<path d="M-4.0,-18.0 L-3.5,-18.0 " />
			<path d="M-0.5,-18.0 L0.0,-18.0 " />
			<path d="M-8.0,-18.0 L-4.0,-18.0 " />
			<path d="M-11.0,-14.1 L-8.0,-14.1 " />
			<path d="M0.0,-1.5 L1.5,-1.5 " />
			<path d="M-31.0,-12.5 L-11.0,-12.5 " />

       </g>
    </g>
    
</svg>
