<?xml version="1.0" encoding="UTF-8" standalone="no"?>
<svg
   xmlns:svg="http://www.w3.org/2000/svg"
   xmlns="http://www.w3.org/2000/svg"
   width="800.0"
   height="800.0"

>
    <g transform="scale(16.666666574074075, -16.666666574074075)   translate(2.4000001133333333,-20.400000113333338)" stroke-width="0.06000000033333333"  fill="none">
       <!-- hidden lines -->
       <g  stroke="rgb(180,180,180)" fill="none" stroke-dasharray="0.06000000033333333,0.06000000033333333" >

       </g>

       <!-- solid lines -->
       <g  stroke="rgb(40,40,40)" fill="none">
			<path d="M0.0,0.0 L0.0,-2.0153605698595416 L0.0,-4.005376811213659 L0.0,-5.945023115193008 L0.0,-7.809907304116046 L0.0,-9.576577377276058 L0.0,-11.222816433457202 L0.0,-12.727922061357855 L0.0,-14.072966684424536 L0.0,-15.241035586109113 L0.0,-16.217439622243546 L0.0,-16.989899945550615 L0.0,-17.548702419272825 L0.0,-17.886819778078365 L0.0,-17.999999999999996 " />
			<path d="M0.0,18.0 L0.0,17.886819778078365 L0.0,17.548702419272825 L0.0,16.989899945550615 L0.0,16.217439622243546 L0.0,15.241035586109117 L0.0,14.07296668442454 L0.0,12.727922061357859 L0.0,11.222816433457206 L0.0,9.576577377276063 L0.0,7.8099073041160505 L0.0,5.9450231151930115 L0.0,4.005376811213663 L0.0,2.0153605698595456 L0.0,1.6342482922482304e-13 " />
			<path d="M4.0,0.0 L4.0,-2.0153605698595416 L4.0,-4.005376811213659 L4.0,-5.945023115193008 L4.0,-7.809907304116046 L4.0,-9.576577377276058 L4.0,-11.222816433457202 L4.0,-12.727922061357855 L4.0,-14.072966684424536 L4.0,-15.241035586109113 L4.0,-16.217439622243546 L4.0,-16.989899945550615 L4.0,-17.548702419272825 L4.0,-17.886819778078365 L4.0,-17.999999999999996 " />
			<path d="M4.0,18.0 L4.0,17.886819778078365 L4.0,17.548702419272825 L4.0,16.989899945550615 L4.0,16.217439622243546 L4.0,15.241035586109117 L4.0,14.07296668442454 L4.0,12.727922061357859 L4.0,11.222816433457206 L4.0,9.576577377276063 L4.0,7.8099073041160505 L4.0,5.9450231151930115 L4.0,4.005376811213663 L4.0,2.0153605698595456 L4.0,1.6342482922482304e-13 " />
			<path d="M4.0,0.0 L4.0,-2.0153605698595416 L4.0,-4.005376811213659 L4.0,-5.945023115193008 L4.0,-7.809907304116046 L4.0,-9.576577377276058 L4.0,-11.222816433457202 L4.0,-12.727922061357855 L4.0,-14.072966684424536 L4.0,-15.241035586109113 L4.0,-16.217439622243546 L4.0,-16.989899945550615 L4.0,-17.548702419272825 L4.0,-17.886819778078365 L4.0,-17.999999999999996 " />
			<path d="M4.0,18.0 L4.0,17.886819778078365 L4.0,17.548702419272825 L4.0,16.989899945550615 L4.0,16.217439622243546 L4.0,15.241035586109117 L4.0,14.07296668442454 L4.0,12.727922061357859 L4.0,11.222816433457206 L4.0,9.576577377276063 L4.0,7.8099073041160505 L4.0,5.9450231151930115 L4.0,4.005376811213663 L4.0,2.0153605698595456 L4.0,1.6342482922482304e-13 " />
			<path d="M8.0,0.0 L8.0,-2.0153605698595416 L8.0,-4.005376811213659 L8.0,-5.945023115193008 L8.0,-7.809907304116046 L8.0,-9.576577377276058 L8.0,-11.222816433457202 L8.0,-12.727922061357855 L8.0,-14.072966684424536 L8.0,-15.241035586109113 L8.0,-16.217439622243546 L8.0,-16.989899945550615 L8.0,-17.548702419272825 L8.0,-17.886819778078365 L8.0,-17.999999999999996 " />
			<path d="M8.0,18.0 L8.0,17.886819778078365 L8.0,17.548702419272825 L8.0,16.989899945550615 L8.0,16.217439622243546 L8.0,15.241035586109117 L8.0,14.07296668442454 L8.0,12.727922061357859 L8.0,11.222816433457206 L8.0,9.576577377276063 L8.0,7.8099073041160505 L8.0,5.9450231151930115 L8.0,4.005376811213663 L8.0,2.0153605698595456 L8.0,1.6342482922482304e-13 " />
			<path d="M11.0,0.0 L11.0,-1.5786991130566408 L11.0,-3.137545168784033 L11.0,-4.656934773567856 L11.0,-6.11776072155757 L11.0,-7.501652278866246 L11.0,-8.791206206208141 L11.0,-9.970205614730318 L11.0,-11.02382390279922 L11.0,-11.938811209118805 L11.0,-12.70366103742411 L11.0,-13.308754957347983 L11.0,-13.746483561763712 L11.0,-14.01134215949472 L11.0,-14.099999999999998 " />
			<path d="M11.0,14.1 L11.0,14.01134215949472 L11.0,13.746483561763712 L11.0,13.308754957347983 L11.0,12.70366103742411 L11.0,11.938811209118807 L11.0,11.023823902799222 L11.0,9.970205614730322 L11.0,8.791206206208145 L11.0,7.501652278866248 L11.0,6.1177607215575724 L11.0,4.656934773567859 L11.0,3.1375451687840363 L11.0,1.5786991130566441 L11.0,1.283417816466681e-13 " />
			<path d="M27.0,0.0 L27.0,-1.3995559512913482 L27.0,-2.78151167445393 L27.0,-4.128488274439588 L27.0,-5.423546738969477 L27.0,-6.6504009564417075 L27.0,-7.793622523234169 L27.0,-8.838834764831843 L27.0,-9.772893530850373 L27.0,-10.584052490353551 L27.0,-11.262110848780239 L27.0,-11.798541628854595 L27.0,-12.186598902272795 L27.0,-12.421402623665532 L27.0,-12.499999999999998 " />
			<path d="M27.0,12.5 L27.0,12.421402623665532 L27.0,12.186598902272795 L27.0,11.798541628854595 L27.0,11.26211084878024 L27.0,10.584052490353553 L27.0,9.772893530850373 L27.0,8.838834764831846 L27.0,7.793622523234172 L27.0,6.65040095644171 L27.0,5.423546738969479 L27.0,4.128488274439592 L27.0,2.781511674453933 L27.0,1.3995559512913511 L27.0,1.1368683772161603e-13 " />
			<path d="M4.0,18.0 L0.0,18.0 " />
			<path d="M4.0,-18.0 L0.0,-18.0 " />
			<path d="M8.0,18.0 L4.0,18.0 " />
			<path d="M8.0,-18.0 L4.0,-18.0 " />
			<path d="M11.0,14.1 L8.0,14.1 " />
			<path d="M11.0,-14.1 L8.0,-14.1 " />
			<path d="M27.0,12.5 L11.0,12.5 " />
			<path d="M27.0,-12.5 L11.0,-12.5 " />

       </g>
    </g>
    
</svg>
