<?xml version="1.0" encoding="UTF-8" standalone="no"?>
<svg
   xmlns:svg="http://www.w3.org/2000/svg"
   xmlns="http://www.w3.org/2000/svg"
   width="800.0"
   height="800.0"

>
    <g transform="scale(14.27156825277783, -14.27156825277783)   translate(20.802775370689513,-11.665362721201467)" stroke-width="0.07006938426723772"  fill="none">
       <!-- hidden lines -->
       <g  stroke="rgb(180,180,180)" fill="none" stroke-dasharray="0.07006938426723772,0.07006938426723772" >

       </g>

       <!-- solid lines -->
       <g  stroke="rgb(40,40,40)" fill="none">
			<path d="M-12.727922061357852,6.266795614405125 L-13.0364474931264,6.111113309451857 L-13.33712025638927,5.951749898350213 L-13.629759237116726,5.788801375660073 L-13.91418816052927,5.6223658954784606 L-14.190235697278917,5.452543712315213 L-14.45773556665161,5.2794371207034105 L-14.716526636728506,5.103150393580964 L-14.966453021445814,4.923789719480507 L-15.207364174494726,4.741463138565393 L-15.439114980004897,4.556280477550334 L-15.551511410188555,4.4626529101047865 L-15.661565839956804,4.368353283545898 L-15.76926169551732,4.273395799050573 L-15.874582758270387,4.177794756866704 L-15.977513167251365,4.081564554159588 L-16.078037421519273,3.984719682843782 L-16.17614038249117,3.887274727400691 L-16.271807276221978,3.7892443626821803 L-16.365023695629397,3.690643351700587 L-16.45577560266355,3.591486543405473 L-16.54404933042104,3.491788870447447 L-16.629831585203156,3.3915653469293487 L-16.713109448517873,3.2908310661451603 L-16.793870379025297,3.1896011983070314 L-16.87210221442635,3.0878909882607126 L-16.947793173294368,2.9857157531897247 L-17.020931856849376,2.8830908803086324 L-17.091507250674653,2.7800318245457993 L-17.159508726375485,2.676554106215951 L-17.224926043179757,2.572673308682853 L-17.287749349480176,2.4684050760125045 L-17.347969184317915,2.3637651106172073 L-17.405576478807337,2.2587691708908633 L-17.460562557501788,2.1534330688357968 L-17.51291913970008,2.047772667681505 L-17.56263834069351,1.9418038794957602 L-17.609712672953293,1.8355426627882871 L-17.654135047258144,1.729005020107447 L-17.695898773761893,1.6222069956303589 L-17.734997563000938,1.515164672746683 L-17.77142552684145,1.4078941716364972 L-17.80517717936606,1.300411646842705 L-17.83624743770004,1.1927332848381957 L-17.86463162277678,1.0848753015882 L-17.89032546004241,0.9768539401082699 L-17.913325080099543,0.8686854680181185 L-17.933627019290004,0.76038617509176 L-17.951228220216425,0.6519723708043449 L-17.966126032202684,0.5434603818760295 L-17.978318211693104,0.43486654981321593 L-17.98780292259029,0.32620722844756533 L-17.994578736531675,0.21749878147318713 L-17.9986446331046,0.10875757998234248 L-18.0,8.088629612051397e-14 " />
			<path d="M18.0,-1.0853539230968291e-15 L17.996950472324823,0.16313125162747633 L17.98780292259029,0.3262072284475581 L17.972560450319307,0.489172674381974 L17.951228220216425,0.6519723708043417 L17.923813460417875,0.8145511552502406 L17.89032546004241,0.9768539401082744 L17.85077556604379,1.1388257312857566 L17.80517717936606,1.3004116468427056 L17.75354575040278,1.4615569355878577 L17.695898773761897,1.6222069956303558 L17.63225578233793,1.7823073928808488 L17.562638340693514,1.941803879495757 L17.48707003775253,2.1006424122584106 L17.40557647880734,2.2587691708908566 L17.31818527684275,2.4161305762901386 L17.22492604317976,2.5726733086828424 L17.125830377442153,2.7283443256917663 L17.020931856849387,2.883090880308618 L16.910266024839423,3.03686053876663 L16.793870379025304,3.1896011983070207 L16.671784358489607,3.3412611048332983 L16.54404933042104,3.491788870447444 L16.410708576097736,3.641133490862 L16.27180727622198,3.789244362682174 L16.12739249561134,3.9360713005521246 L15.977513167251375,4.081564554159578 L15.822220075715405,4.225674825093037 L15.661565839956806,4.368353283545895 L15.495604895479811,4.509551584861738 L15.324393475894775,4.64922188591528 L15.147989593864176,4.78731686132336 L14.966453021445819,4.923789719480506 L14.779845269839885,5.0585942184136155 L14.588229568546712,5.191684681450439 L14.391670843942299,5.323016012696498 L14.19023569727892,5.452543712315212 L13.98399238211819,5.580223891606055 L13.773010781204263,5.7060132878756615 L13.557362382785028,5.829869279096788 L13.337120256389268,5.951749898350214 L13.112359028068061,6.0716138480446675 L12.883154855108742,6.189420513909944 L12.64958540023006,6.305129978758501 L12.411729805267207,6.418703036010855 L12.169668664355688,6.530101202980201 L11.923483996623096,6.639286733911744 L11.673259218398032,6.746222632772343 L11.419079114945626,6.850872665786104 L11.161029811739223,6.953201373711701 L10.899198745277873,7.053174083857278 L10.63367463345975,7.150756921828791 L10.364547445521225,7.245916823007905 L10.091908371552057,7.338621543755486 L9.815849791596843,7.428839672336917 L9.536465244353309,7.516540639565542 L9.253849395477992,7.601694729160616 L8.968098005510072,7.684273087816264 L8.679307897424206,7.7642477349780314 L8.387576923823385,7.841591572323715 L8.093003933782924,7.916278392945257 L7.795688739356753,7.988282890228609 L7.495732081757485,8.05758066642853 L7.193235597221655,8.124148240935424 L6.888301782571626,8.18796305823143 L6.581033960485938,8.249003495533056 L6.271536244489827,8.307248870117764 L5.959913503677778,8.362679446332024 L5.646271327180061,8.41527644227848 L5.330715988385256,8.465022036179933 L5.013354408930981,8.51189937241802 L4.6942941224749815,8.555892567244493 L4.3736432382587695,8.596986714163226 L4.0515104044762875,8.635167888981071 L3.7280047714599482,8.670423154525889 L3.403235954696523,8.702740565030124 L3.0773139976854305,8.732109170178475 L2.7503493346519874,8.758519018818255 L2.4224527531282747,8.781961162331205 L2.0937353564142858,8.802427657665616 L1.764308525932104,8.819911570027713 L1.4342838834857685,8.83440697523143 L1.103773253439778,8.84590896170573 L0.7728886248289554,8.854413632158826 L0.44174211341243896,8.859918104898728 L0.11044592368479549,8.862420514809662 L-0.2208876891429466,8.861920013984044 L-0.5521464571794501,8.858416772009774 L-0.8832181378935179,8.851911975912781 L-1.2139905521459498,8.842407829754812 L-1.5443516221999174,8.829907553886615 L-1.8741894096969847,8.814415383856769 L-2.203392153585881,8.795936568976524 L-2.5318483079912624,8.774477370541145 L-2.859446580009485,8.750045059708356 L-3.1860759674186596,8.722647915034605 L-3.5116257962902937,8.692295219669996 L-3.8359857584896324,8.658997258212809 L-4.159045949052071,8.622765313224708 L-4.480696903422956,8.583611661407803 L-4.800829634548167,8.541549569444847 L-5.119335669802892,8.49659328950401 L-5.436107087746106,8.448758054409721 L-5.7510365546882865,8.39806007248123 L-6.064017361059953,8.344516522040648 L-6.374943457568806,8.288145545592295 L-6.683709491133059,8.228966243675362 L-6.990210840578858,8.166998668391964 L-7.294343652089806,8.10226381661274 L-7.596004874396385,8.034783622862369 L-7.895092293693491,7.9645809518873305 L-8.191504568274185,7.891679590908516 L-8.485141262867957,7.816104241561245 L-8.775902882671847,7.737880511525449 L-9.06369090706292,7.657034905848862 L-9.348407822980617,7.573594817966142 L-9.629957157967745,7.487588520416985 L-9.90824351285887,7.399045155266344 L-10.183172594105024,7.307994724230045 L-10.45465124572375,7.214468078509124 L-10.722587480863792,7.1184969083363026 L-10.986890512973565,7.020113732238187 L-11.24747078656295,6.919351886016809 L-11.504240007547962,6.816245511454243 L-11.757111173167981,6.710829544744121 L-12.005998601465478,6.603139704653988 L-12.25081796031816,6.493212480422476 L-12.491486296013779,6.381085119395424 L-12.72792206135774,6.26679561440518 " />
			<path d="M-12.727922061357852,2.785242495291168 L-13.0364474931264,2.6295601903378993 L-13.33712025638927,2.470196779236256 L-13.629759237116726,2.307248256546116 L-13.91418816052927,2.1408127763645033 L-14.190235697278917,1.9709905932012561 L-14.45773556665161,1.7978840015894533 L-14.716526636728506,1.6215972744670064 L-14.966453021445814,1.44223660036655 L-15.207364174494726,1.259910019451436 L-15.439114980004897,1.0747273584363763 L-15.551511410188555,0.9810997909908292 L-15.661565839956804,0.8868001644319405 L-15.76926169551732,0.7918426799366158 L-15.874582758270387,0.6962416377527467 L-15.977513167251365,0.6000114350456305 L-16.078037421519273,0.5031665637298248 L-16.17614038249117,0.40572160828673365 L-16.271807276221978,0.3076912435682231 L-16.365023695629397,0.20909023258662973 L-16.45577560266355,0.10993342429151554 L-16.54404933042104,0.010235751333489862 L-16.629831585203156,-0.08998777218460852 L-16.713109448517873,-0.19072205296879696 L-16.793870379025297,-0.2919519208069259 L-16.87210221442635,-0.39366213085324464 L-16.947793173294368,-0.49583736592423255 L-17.020931856849376,-0.5984622388053249 L-17.091507250674653,-0.7015212945681579 L-17.159508726375485,-0.8049990128980062 L-17.224926043179757,-0.9088798104311042 L-17.287749349480176,-1.0131480431014528 L-17.347969184317915,-1.11778800849675 L-17.405576478807337,-1.222783948223094 L-17.460562557501788,-1.3281200502781605 L-17.51291913970008,-1.4337804514324524 L-17.56263834069351,-1.539749239618197 L-17.609712672953293,-1.6460104563256701 L-17.654135047258144,-1.7525480990065103 L-17.695898773761893,-1.8593461234835984 L-17.734997563000938,-1.9663884463672743 L-17.77142552684145,-2.07365894747746 L-17.80517717936606,-2.1811414722712525 L-17.83624743770004,-2.2888198342757615 L-17.86463162277678,-2.3966778175257573 L-17.89032546004241,-2.504699179005687 L-17.913325080099543,-2.6128676510958386 L-17.933627019290004,-2.7211669440221975 L-17.951228220216425,-2.8295807483096125 L-17.966126032202684,-2.9380927372379277 L-17.978318211693104,-3.0466865693007414 L-17.98780292259029,-3.155345890666392 L-17.994578736531675,-3.2640543376407702 L-17.9986446331046,-3.372795539131615 L-18.0,-3.4815531191138764 " />
			<path d="M18.0,-3.481553119113958 L17.996950472324823,-3.3184218674864807 L17.98780292259029,-3.155345890666399 L17.972560450319307,-2.9923804447319835 L17.951228220216425,-2.8295807483096156 L17.923813460417875,-2.667001963863717 L17.89032546004241,-2.5046991790056827 L17.85077556604379,-2.3427273878282007 L17.80517717936606,-2.1811414722712517 L17.75354575040278,-2.0199961835260996 L17.695898773761897,-1.8593461234836015 L17.63225578233793,-1.6992457262331084 L17.562638340693514,-1.5397492396182002 L17.48707003775253,-1.3809107068555466 L17.40557647880734,-1.2227839482231007 L17.31818527684275,-1.0654225428238187 L17.22492604317976,-0.9088798104311149 L17.125830377442153,-0.7532087934221909 L17.020931856849387,-0.5984622388053391 L16.910266024839423,-0.4446925803473274 L16.793870379025304,-0.29195192080693655 L16.671784358489607,-0.14029201428065896 L16.54404933042104,0.010235751333486753 L16.410708576097736,0.15958037174804263 L16.27180727622198,0.30769124356821687 L16.12739249561134,0.45451818143816736 L15.977513167251375,0.6000114350456207 L15.822220075715405,0.7441217059790799 L15.661565839956806,0.8868001644319379 L15.495604895479811,1.0279984657477805 L15.324393475894775,1.1676687668013224 L15.147989593864176,1.3057637422094026 L14.966453021445819,1.4422366003665483 L14.779845269839885,1.5770410992996582 L14.588229568546712,1.7101315623364814 L14.391670843942299,1.8414628935825408 L14.19023569727892,1.9709905932012544 L13.98399238211819,2.0986707724920977 L13.773010781204263,2.2244601687617043 L13.557362382785028,2.3483161599828306 L13.337120256389268,2.470196779236257 L13.112359028068061,2.5900607289307103 L12.883154855108742,2.707867394795987 L12.64958540023006,2.8235768596445436 L12.411729805267207,2.9371499168968973 L12.169668664355688,3.0485480838662435 L11.923483996623096,3.157733614797787 L11.673259218398032,3.264669513658386 L11.419079114945626,3.369319546672147 L11.161029811739223,3.4716482545977434 L10.899198745277873,3.5716209647433206 L10.63367463345975,3.669203802714834 L10.364547445521225,3.7643637038939475 L10.091908371552057,3.8570684246415285 L9.815849791596843,3.9472865532229595 L9.536465244353309,4.034987520451585 L9.253849395477992,4.120141610046659 L8.968098005510072,4.202719968702306 L8.679307897424206,4.282694615864074 L8.387576923823385,4.360038453209757 L8.093003933782924,4.434725273831299 L7.795688739356753,4.506729771114651 L7.495732081757485,4.576027547314572 L7.193235597221655,4.642595121821467 L6.888301782571626,4.7064099391174725 L6.581033960485938,4.767450376419099 L6.271536244489827,4.825695751003806 L5.959913503677778,4.881126327218066 L5.646271327180061,4.9337233231645214 L5.330715988385256,4.983468917065975 L5.013354408930981,5.030346253304062 L4.6942941224749815,5.0743394481305355 L4.3736432382587695,5.115433595049268 L4.0515104044762875,5.153614769867113 L3.7280047714599482,5.188870035411931 L3.403235954696523,5.221187445916167 L3.0773139976854305,5.2505560510645175 L2.7503493346519874,5.276965899704297 L2.4224527531282747,5.300408043217248 L2.0937353564142858,5.320874538551658 L1.764308525932104,5.338358450913756 L1.4342838834857685,5.352853856117472 L1.103773253439778,5.364355842591772 L0.7728886248289554,5.372860513044868 L0.44174211341243896,5.378364985784771 L0.11044592368479549,5.380867395695704 L-0.2208876891429466,5.380366894870086 L-0.5521464571794501,5.376863652895816 L-0.8832181378935179,5.370358856798823 L-1.2139905521459498,5.360854710640854 L-1.5443516221999174,5.3483544347726575 L-1.8741894096969847,5.332862264742811 L-2.203392153585881,5.314383449862566 L-2.5318483079912624,5.292924251427188 L-2.859446580009485,5.268491940594398 L-3.1860759674186596,5.241094795920647 L-3.5116257962902937,5.210742100556038 L-3.8359857584896324,5.177444139098851 L-4.159045949052071,5.14121219411075 L-4.480696903422956,5.102058542293845 L-4.800829634548167,5.059996450330889 L-5.119335669802892,5.015040170390053 L-5.436107087746106,4.967204935295763 L-5.7510365546882865,4.916506953367273 L-6.064017361059953,4.86296340292669 L-6.374943457568806,4.806592426478337 L-6.683709491133059,4.747413124561405 L-6.990210840578858,4.685445549278006 L-7.294343652089806,4.620710697498783 L-7.596004874396385,4.553230503748411 L-7.895092293693491,4.483027832773374 L-8.191504568274185,4.410126471794559 L-8.485141262867957,4.334551122447287 L-8.775902882671847,4.256327392411492 L-9.06369090706292,4.175481786734904 L-9.348407822980617,4.092041698852185 L-9.629957157967745,4.006035401303027 L-9.90824351285887,3.9174920361523866 L-10.183172594105024,3.8264416051160874 L-10.45465124572375,3.7329149593951665 L-10.722587480863792,3.6369437892223453 L-10.986890512973565,3.5385606131242295 L-11.24747078656295,3.437798766902852 L-11.504240007547962,3.3346923923402856 L-11.757111173167981,3.229276425630164 L-12.005998601465478,3.121586585540031 L-12.25081796031816,3.0116593613085185 L-12.491486296013779,2.8995320002814666 L-12.72792206135774,2.785242495291223 " />
			<path d="M18.000000000000004,-6.773655479043585 L24.041630560342618,-9.74834873351908 " />
			<path d="M14.816832997410563,-11.99540097177601 L19.79898987322333,-14.448445444322925 " />
			<path d="M17.459471626936793,-9.118682544951119 L24.041630560342618,-12.35951357285455 " />
			<path d="M19.79898987322333,-14.448445444322923 L24.041630560342618,-12.35951357285455 " />
			<path d="M24.041630560342615,-9.74834873351908 L24.041630560342615,-12.359513572854548 " />
			<path d="M-12.727922061357852,2.785242495291168 L-13.0364474931264,2.6295601903378993 L-13.33712025638927,2.470196779236256 L-13.629759237116726,2.307248256546116 L-13.91418816052927,2.1408127763645033 L-14.190235697278917,1.9709905932012561 L-14.45773556665161,1.7978840015894533 L-14.716526636728506,1.6215972744670064 L-14.966453021445814,1.44223660036655 L-15.207364174494726,1.259910019451436 L-15.439114980004897,1.0747273584363763 L-15.551511410188555,0.9810997909908292 L-15.661565839956804,0.8868001644319405 L-15.76926169551732,0.7918426799366158 L-15.874582758270387,0.6962416377527467 L-15.977513167251365,0.6000114350456305 L-16.078037421519273,0.5031665637298248 L-16.17614038249117,0.40572160828673365 L-16.271807276221978,0.3076912435682231 L-16.365023695629397,0.20909023258662973 L-16.45577560266355,0.10993342429151554 L-16.54404933042104,0.010235751333489862 L-16.629831585203156,-0.08998777218460852 L-16.713109448517873,-0.19072205296879696 L-16.793870379025297,-0.2919519208069259 L-16.87210221442635,-0.39366213085324464 L-16.947793173294368,-0.49583736592423255 L-17.020931856849376,-0.5984622388053249 L-17.091507250674653,-0.7015212945681579 L-17.159508726375485,-0.8049990128980062 L-17.224926043179757,-0.9088798104311042 L-17.287749349480176,-1.0131480431014528 L-17.347969184317915,-1.11778800849675 L-17.405576478807337,-1.222783948223094 L-17.460562557501788,-1.3281200502781605 L-17.51291913970008,-1.4337804514324524 L-17.56263834069351,-1.539749239618197 L-17.609712672953293,-1.6460104563256701 L-17.654135047258144,-1.7525480990065103 L-17.695898773761893,-1.8593461234835984 L-17.734997563000938,-1.9663884463672743 L-17.77142552684145,-2.07365894747746 L-17.80517717936606,-2.1811414722712525 L-17.83624743770004,-2.2888198342757615 L-17.86463162277678,-2.3966778175257573 L-17.89032546004241,-2.504699179005687 L-17.913325080099543,-2.6128676510958386 L-17.933627019290004,-2.7211669440221975 L-17.951228220216425,-2.8295807483096125 L-17.966126032202684,-2.9380927372379277 L-17.978318211693104,-3.0466865693007414 L-17.98780292259029,-3.155345890666392 L-17.994578736531675,-3.2640543376407702 L-17.9986446331046,-3.372795539131615 L-18.0,-3.4815531191138764 " />
			<path d="M18.0,-3.481553119113958 L17.996950472324823,-3.3184218674864807 L17.98780292259029,-3.155345890666399 L17.972560450319307,-2.9923804447319835 L17.951228220216425,-2.8295807483096156 L17.923813460417875,-2.667001963863717 L17.89032546004241,-2.5046991790056827 L17.85077556604379,-2.3427273878282007 L17.80517717936606,-2.1811414722712517 L17.75354575040278,-2.0199961835260996 L17.695898773761897,-1.8593461234836015 L17.63225578233793,-1.6992457262331084 L17.562638340693514,-1.5397492396182002 L17.48707003775253,-1.3809107068555466 L17.40557647880734,-1.2227839482231007 L17.31818527684275,-1.0654225428238187 L17.22492604317976,-0.9088798104311149 L17.125830377442153,-0.7532087934221909 L17.020931856849387,-0.5984622388053391 L16.910266024839423,-0.4446925803473274 L16.793870379025304,-0.29195192080693655 L16.671784358489607,-0.14029201428065896 L16.54404933042104,0.010235751333486753 L16.410708576097736,0.15958037174804263 L16.27180727622198,0.30769124356821687 L16.12739249561134,0.45451818143816736 L15.977513167251375,0.6000114350456207 L15.822220075715405,0.7441217059790799 L15.661565839956806,0.8868001644319379 L15.495604895479811,1.0279984657477805 L15.324393475894775,1.1676687668013224 L15.147989593864176,1.3057637422094026 L14.966453021445819,1.4422366003665483 L14.779845269839885,1.5770410992996582 L14.588229568546712,1.7101315623364814 L14.391670843942299,1.8414628935825408 L14.19023569727892,1.9709905932012544 L13.98399238211819,2.0986707724920977 L13.773010781204263,2.2244601687617043 L13.557362382785028,2.3483161599828306 L13.337120256389268,2.470196779236257 L13.112359028068061,2.5900607289307103 L12.883154855108742,2.707867394795987 L12.64958540023006,2.8235768596445436 L12.411729805267207,2.9371499168968973 L12.169668664355688,3.0485480838662435 L11.923483996623096,3.157733614797787 L11.673259218398032,3.264669513658386 L11.419079114945626,3.369319546672147 L11.161029811739223,3.4716482545977434 L10.899198745277873,3.5716209647433206 L10.63367463345975,3.669203802714834 L10.364547445521225,3.7643637038939475 L10.091908371552057,3.8570684246415285 L9.815849791596843,3.9472865532229595 L9.536465244353309,4.034987520451585 L9.253849395477992,4.120141610046659 L8.968098005510072,4.202719968702306 L8.679307897424206,4.282694615864074 L8.387576923823385,4.360038453209757 L8.093003933782924,4.434725273831299 L7.795688739356753,4.506729771114651 L7.495732081757485,4.576027547314572 L7.193235597221655,4.642595121821467 L6.888301782571626,4.7064099391174725 L6.581033960485938,4.767450376419099 L6.271536244489827,4.825695751003806 L5.959913503677778,4.881126327218066 L5.646271327180061,4.9337233231645214 L5.330715988385256,4.983468917065975 L5.013354408930981,5.030346253304062 L4.6942941224749815,5.0743394481305355 L4.3736432382587695,5.115433595049268 L4.0515104044762875,5.153614769867113 L3.7280047714599482,5.188870035411931 L3.403235954696523,5.221187445916167 L3.0773139976854305,5.2505560510645175 L2.7503493346519874,5.276965899704297 L2.4224527531282747,5.300408043217248 L2.0937353564142858,5.320874538551658 L1.764308525932104,5.338358450913756 L1.4342838834857685,5.352853856117472 L1.103773253439778,5.364355842591772 L0.7728886248289554,5.372860513044868 L0.44174211341243896,5.378364985784771 L0.11044592368479549,5.380867395695704 L-0.2208876891429466,5.380366894870086 L-0.5521464571794501,5.376863652895816 L-0.8832181378935179,5.370358856798823 L-1.2139905521459498,5.360854710640854 L-1.5443516221999174,5.3483544347726575 L-1.8741894096969847,5.332862264742811 L-2.203392153585881,5.314383449862566 L-2.5318483079912624,5.292924251427188 L-2.859446580009485,5.268491940594398 L-3.1860759674186596,5.241094795920647 L-3.5116257962902937,5.210742100556038 L-3.8359857584896324,5.177444139098851 L-4.159045949052071,5.14121219411075 L-4.480696903422956,5.102058542293845 L-4.800829634548167,5.059996450330889 L-5.119335669802892,5.015040170390053 L-5.436107087746106,4.967204935295763 L-5.7510365546882865,4.916506953367273 L-6.064017361059953,4.86296340292669 L-6.374943457568806,4.806592426478337 L-6.683709491133059,4.747413124561405 L-6.990210840578858,4.685445549278006 L-7.294343652089806,4.620710697498783 L-7.596004874396385,4.553230503748411 L-7.895092293693491,4.483027832773374 L-8.191504568274185,4.410126471794559 L-8.485141262867957,4.334551122447287 L-8.775902882671847,4.256327392411492 L-9.06369090706292,4.175481786734904 L-9.348407822980617,4.092041698852185 L-9.629957157967745,4.006035401303027 L-9.90824351285887,3.9174920361523866 L-10.183172594105024,3.8264416051160874 L-10.45465124572375,3.7329149593951665 L-10.722587480863792,3.6369437892223453 L-10.986890512973565,3.5385606131242295 L-11.24747078656295,3.437798766902852 L-11.504240007547962,3.3346923923402856 L-11.757111173167981,3.229276425630164 L-12.005998601465478,3.121586585540031 L-12.25081796031816,3.0116593613085185 L-12.491486296013779,2.8995320002814666 L-12.72792206135774,2.785242495291223 " />
			<path d="M-12.727922061357852,-0.6963106238227894 L-13.0364474931264,-0.8519929287760579 L-13.33712025638927,-1.0113563398777012 L-13.629759237116726,-1.1743048625678414 L-13.91418816052927,-1.340740342749454 L-14.190235697278917,-1.5105625259127011 L-14.45773556665161,-1.683669117524504 L-14.716526636728506,-1.8599558446469509 L-14.966453021445814,-2.039316518747407 L-15.207364174494726,-2.221643099662521 L-15.439114980004897,-2.406825760677581 L-15.551511410188555,-2.500453328123128 L-15.661565839956804,-2.5947529546820167 L-15.76926169551732,-2.6897104391773414 L-15.874582758270387,-2.7853114813612105 L-15.977513167251365,-2.881541684068327 L-16.078037421519273,-2.9783865553841324 L-16.17614038249117,-3.0758315108272236 L-16.271807276221978,-3.173861875545734 L-16.365023695629397,-3.2724628865273275 L-16.45577560266355,-3.3716196948224417 L-16.54404933042104,-3.4713173677804674 L-16.629831585203156,-3.571540891298566 L-16.713109448517873,-3.6722751720827542 L-16.793870379025297,-3.773505039920883 L-16.87210221442635,-3.875215249967202 L-16.947793173294368,-3.97739048503819 L-17.020931856849376,-4.080015357919282 L-17.091507250674653,-4.183074413682116 L-17.159508726375485,-4.2865521320119635 L-17.224926043179757,-4.390432929545062 L-17.287749349480176,-4.49470116221541 L-17.347969184317915,-4.599341127610707 L-17.405576478807337,-4.704337067337051 L-17.460562557501788,-4.809673169392118 L-17.51291913970008,-4.91533357054641 L-17.56263834069351,-5.021302358732155 L-17.609712672953293,-5.127563575439627 L-17.654135047258144,-5.234101218120467 L-17.695898773761893,-5.340899242597556 L-17.734997563000938,-5.447941565481232 L-17.77142552684145,-5.555212066591418 L-17.80517717936606,-5.662694591385209 L-17.83624743770004,-5.770372953389719 L-17.86463162277678,-5.8782309366397145 L-17.89032546004241,-5.986252298119645 L-17.913325080099543,-6.094420770209796 L-17.933627019290004,-6.202720063136154 L-17.951228220216425,-6.311133867423569 L-17.966126032202684,-6.419645856351885 L-17.978318211693104,-6.528239688414699 L-17.98780292259029,-6.6368990097803495 L-17.994578736531675,-6.745607456754727 L-17.9986446331046,-6.854348658245572 L-18.0,-6.963106238227834 " />
			<path d="M-18.0,-6.963106238227915 L-17.998582676795664,-7.074321701019201 L-17.99433093038322,-7.18551964955981 L-17.98724543032921,-7.296682572357214 L-17.9773272924607,-7.407792963434754 L-17.964578078689573,-7.518833325088484 L-17.94899979676656,-7.629786170642715 L-17.930594899965037,-7.740634027203827 L-17.90936628669471,-7.851359438411902 L-17.88531730004515,-7.96194496718976 L-17.85845172725934,-8.072373198488958 L-17.828773799137245,-8.182626742032314 L-17.796288189369555,-8.292688235052536 L-17.761000013801663,-8.402540345026516 L-17.722914829628024,-8.512165772404867 L-17.682038634516992,-8.621547253336253 L-17.63837786566633,-8.730667562386111 L-17.59193939878947,-8.839509515249325 L-17.542730547032697,-8.948055971456403 L-17.490759059823514,-9.056289837072777 L-17.43603312165023,-9.164194067390753 L-17.37856135077307,-9.271751669613723 L-17.31835279786697,-9.378945705532194 L-17.25541694459629,-9.485759294191226 L-17.189763702121603,-9.592175614548847 L-17.121403409538903,-9.698177908125036 L-17.050346832251417,-9.803749481640866 L-16.97660516027423,-9.908873709647345 L-16.900190006472098,-10.013534037143623 L-16.82111340473065,-10.117713982184062 L-16.73938780806128,-10.221397138473826 L-16.655026086640053,-10.324567177952545 L-16.568041525780888,-10.42720785336567 L-16.47844782384341,-10.529303000823095 L-16.386259090075686,-10.63083654234465 L-16.29148984239234,-10.73179248839206 L-16.194155005088238,-10.832154940387003 L-16.09426990648821,-10.931908093214805 L-15.991850276533151,-11.031036237713442 L-15.886912244302849,-11.129523763147425 L-15.77947233547598,-11.227355159666185 L-15.669547469727643,-11.324515020746563 L-15.557154958064826,-11.420988045619048 L-15.44231250010029,-11.516759041677334 L-15.325038181265198,-11.611812926870861 L-15.205350469961035,-11.70613473207995 L-15.083268214651193,-11.79970960347313 L-14.958810640892704,-11.89252280484634 L-14.83199734830859,-11.984559719943583 L-14.57138385690783,-12.166246839817898 L-14.301591900007331,-12.344656518992624 L-14.022791418649957,-12.519676377813145 L-13.735158028317706,-12.69119617186124 L-13.438872908312124,-12.859107861397678 L-13.13412268763007,-13.023305679416072 L-12.821099327406738,-13.18368619826517 L-12.50000000000001,-13.340148394797573 " />
			<path d="M12.500000000000007,-13.340148394797577 L12.821099327406749,-13.183686198265164 L13.134122687630082,-13.023305679416065 L13.438872908312133,-12.859107861397673 L13.735158028317715,-12.691196171861236 L14.022791418649966,-12.519676377813141 L14.301591900007335,-12.344656518992622 L14.571383856907833,-12.166246839817894 L14.831997348308597,-11.98455971994358 L14.958810640892708,-11.892522804846337 L15.0832682146512,-11.799709603473124 L15.205350469961045,-11.706134732079942 L15.325038181265205,-11.611812926870856 L15.442312500100295,-11.516759041677329 L15.55715495806483,-11.420988045619048 L15.669547469727643,-11.324515020746563 L15.779472335475983,-11.227355159666182 L15.886912244302856,-11.12952376314742 L15.991850276533157,-11.031036237713437 L16.094269906488215,-10.931908093214803 L16.19415500508824,-10.832154940387001 L16.29148984239234,-10.73179248839206 L16.386259090075686,-10.630836542344646 L16.478447823843414,-10.529303000823091 L16.56804152578089,-10.427207853365669 L16.655026086640053,-10.324567177952543 L16.73938780806128,-10.221397138473822 L16.821113404730653,-10.117713982184057 L16.9001900064721,-10.013534037143618 L16.976605160274232,-9.908873709647342 L17.05034683225142,-9.803749481640864 L17.121403409538903,-9.698177908125036 L17.189763702121603,-9.592175614548845 L17.25541694459629,-9.485759294191222 L17.31835279786697,-9.378945705532193 L17.37856135077307,-9.271751669613721 L17.43603312165023,-9.164194067390753 L17.490759059823514,-9.056289837072779 L17.5427305470327,-8.948055971456402 L17.59193939878947,-8.839509515249322 L17.63837786566633,-8.73066756238611 L17.682038634516992,-8.621547253336253 L17.722914829628024,-8.512165772404865 L17.761000013801667,-8.402540345026512 L17.79628818936956,-8.292688235052532 L17.828773799137245,-8.182626742032312 L17.85845172725934,-8.072373198488958 L17.88531730004515,-7.961944967189762 L17.90936628669471,-7.851359438411901 L17.930594899965037,-7.740634027203823 L17.94899979676656,-7.6297861706427135 L17.964578078689573,-7.518833325088484 L17.9773272924607,-7.407792963434756 L17.98724543032921,-7.296682572357217 L17.99433093038322,-7.185519649559811 L17.998582676795664,-7.074321701019199 L18.0,-6.963106238227955 " />
			<path d="M18.0,-6.963106238227915 L17.996950472324823,-6.799974986600438 L17.98780292259029,-6.636899009780357 L17.972560450319307,-6.47393356384594 L17.951228220216425,-6.311133867423573 L17.923813460417875,-6.148555082977674 L17.89032546004241,-5.98625229811964 L17.85077556604379,-5.8242805069421575 L17.80517717936606,-5.662694591385209 L17.75354575040278,-5.501549302640057 L17.695898773761897,-5.340899242597558 L17.63225578233793,-5.1807988453470655 L17.562638340693514,-5.021302358732157 L17.48707003775253,-4.862463825969504 L17.40557647880734,-4.7043370673370575 L17.31818527684275,-4.5469756619377755 L17.22492604317976,-4.390432929545073 L17.125830377442153,-4.234761912536149 L17.020931856849387,-4.080015357919296 L16.910266024839423,-3.9262456994612847 L16.793870379025304,-3.773505039920894 L16.671784358489607,-3.6218451333946162 L16.54404933042104,-3.4713173677804705 L16.410708576097736,-3.3219727473659146 L16.27180727622198,-3.1738618755457404 L16.12739249561134,-3.02703493767579 L15.977513167251375,-2.8815416840683366 L15.822220075715405,-2.7374314131348774 L15.661565839956806,-2.5947529546820194 L15.495604895479811,-2.4535546533661767 L15.324393475894775,-2.313884352312635 L15.147989593864176,-2.1757893769045547 L14.966453021445819,-2.039316518747409 L14.779845269839885,-1.904512019814299 L14.588229568546712,-1.7714215567774758 L14.391670843942299,-1.6400902255314165 L14.19023569727892,-1.510562525912703 L13.98399238211819,-1.3828823466218596 L13.773010781204263,-1.257092950352253 L13.557362382785028,-1.1332369591311267 L13.337120256389268,-1.0113563398777003 L13.112359028068061,-0.891492390183247 L12.883154855108742,-0.7736857243179704 L12.64958540023006,-0.6579762594694136 L12.411729805267207,-0.54440320221706 L12.169668664355688,-0.4330050352477137 L11.923483996623096,-0.32381950431617046 L11.673259218398032,-0.21688360545557117 L11.419079114945626,-0.1122335724418102 L11.161029811739223,-0.009904864516213863 L10.899198745277873,0.09006784562936332 L10.63367463345975,0.1876506836008769 L10.364547445521225,0.2828105847799902 L10.091908371552057,0.3755153055275713 L9.815849791596843,0.46573343410900225 L9.536465244353309,0.5534344013376273 L9.253849395477992,0.6385884909327011 L8.968098005510072,0.7211668495883492 L8.679307897424206,0.8011414967501169 L8.387576923823385,0.8784853340958003 L8.093003933782924,0.9531721547173424 L7.795688739356753,1.0251766520006944 L7.495732081757485,1.0944744282006154 L7.193235597221655,1.16104200270751 L6.888301782571626,1.2248568200035157 L6.581033960485938,1.285897257305142 L6.271536244489827,1.3441426318898495 L5.959913503677778,1.3995732081041092 L5.646271327180061,1.4521702040505646 L5.330715988385256,1.5019157979520186 L5.013354408930981,1.5487931341901051 L4.6942941224749815,1.5927863290165787 L4.3736432382587695,1.6338804759353112 L4.0515104044762875,1.6720616507531565 L3.7280047714599482,1.707316916297974 L3.403235954696523,1.7396343268022099 L3.0773139976854305,1.7690029319505607 L2.7503493346519874,1.7954127805903406 L2.4224527531282747,1.8188549241032907 L2.0937353564142858,1.8393214194377014 L1.764308525932104,1.8568053317997988 L1.4342838834857685,1.8713007370035148 L1.103773253439778,1.8828027234778153 L0.7728886248289554,1.8913073939309113 L0.44174211341243896,1.8968118666708138 L0.11044592368479549,1.8993142765817472 L-0.2208876891429466,1.8988137757561292 L-0.5521464571794501,1.895310533781859 L-0.8832181378935179,1.8888057376848666 L-1.2139905521459498,1.8793015915268976 L-1.5443516221999174,1.8668013156587007 L-1.8741894096969847,1.8513091456288544 L-2.203392153585881,1.8328303307486093 L-2.5318483079912624,1.8113711323132309 L-2.859446580009485,1.7869388214804411 L-3.1860759674186596,1.7595416768066903 L-3.5116257962902937,1.729188981442081 L-3.8359857584896324,1.6958910199848942 L-4.159045949052071,1.6596590749967932 L-4.480696903422956,1.620505423179888 L-4.800829634548167,1.5784433312169321 L-5.119335669802892,1.5334870512760963 L-5.436107087746106,1.4856518161818064 L-5.7510365546882865,1.4349538342533164 L-6.064017361059953,1.3814102838127331 L-6.374943457568806,1.3250393073643805 L-6.683709491133059,1.2658600054474478 L-6.990210840578858,1.203892430164049 L-7.294343652089806,1.1391575783848262 L-7.596004874396385,1.0716773846344543 L-7.895092293693491,1.001474713659416 L-8.191504568274185,0.9285733526806013 L-8.485141262867957,0.8529980033333304 L-8.775902882671847,0.7747742732975347 L-9.06369090706292,0.6939286676209475 L-9.348407822980617,0.6104885797382273 L-9.629957157967745,0.5244822821890702 L-9.90824351285887,0.43593891703842935 L-10.183172594105024,0.3448884860021302 L-10.45465124572375,0.2513618402812092 L-10.722587480863792,0.15539067010838803 L-10.986890512973565,0.057007494010272275 L-11.24747078656295,-0.04375435221110546 L-11.504240007547962,-0.14686072677367168 L-11.757111173167981,-0.2522766934837932 L-12.005998601465478,-0.3599665335739264 L-12.25081796031816,-0.46989375780543874 L-12.491486296013779,-0.5820211188324906 L-12.72792206135774,-0.6963106238227343 " />
			<path d="M-9.970205614730318,-2.0541163402772344 L-10.21188386961568,-2.176067479157294 L-10.447410867504928,-2.300902151186915 L-10.676644735741435,-2.4285451606275243 L-10.899447392414594,-2.5589196201031204 L-11.115684629535151,-2.6919469969143313 L-11.325226193877095,-2.8275471603435767 L-11.52794586543733,-2.965638429922827 L-11.723721533465888,-3.106137624634851 L-11.912435270020868,-3.248960113018357 L-12.093973401003835,-3.3940198641468204 L-12.26822657463283,-3.5412294994502953 L-12.435089827311803,-3.690500345348997 L-12.594462646856762,-3.8417424866669525 L-12.746249033040547,-3.99486482079354 L-12.89035755541978,-4.149775112560295 L-13.02670140840914,-4.306380049799925 L-13.155198463569814,-4.464585299554074 L-13.275771319080588,-4.624295564895964 L-13.388347346361812,-4.785414642333706 L-13.492858733824141,-4.94784547975968 L-13.589242527715697,-5.111490234911102 L-13.677440670043067,-5.276250334306541 L-13.75740003354325,-5.4420265326229025 L-13.829072453685548,-5.608718972477082 L-13.86178737278015,-5.692377424984134 L-13.892414757684069,-5.776227244576346 L-13.920949996025803,-5.860255803779325 L-13.947388790503412,-5.944450448201129 L-13.971727159531698,-6.028798498437995 L-13.99396143784181,-6.113287251983825 L-14.01408827703322,-6.197903985143103 L-14.032104646077975,-6.282635954947056 L-14.04800783177717,-6.367470401072703 L-14.061795439169531,-6.452394547764511 L-14.073465391892103,-6.537395605758358 L-14.08301593249293,-6.622460774207562 L-14.090445622695727,-6.707577242610655 L-14.09575334361648,-6.792732192740584 L-14.098938295931937,-6.877912800575079 L-14.1,-6.9631062382278515 " />
			<path d="M14.1,-6.963106238227915 L14.09761120332111,-6.8353200911197245 L14.090445622695729,-6.707577242610661 L14.078505686083457,-6.579920976628702 L14.061795439169531,-6.452394547764514 L14.040320543994003,-6.325041166615226 L14.01408827703322,-6.1979039851431 L13.983107526734303,-6.071026082054072 L13.947388790503412,-5.9444504482011284 L13.906944171148842,-5.818219972017426 L13.861787372780151,-5.692377424984136 L13.811933696164711,-5.566965447137917 L13.757400033543252,-5.442026532622905 L13.69820486290615,-5.31760301529216 L13.634368241732416,-5.19373705436341 L13.565911800193488,-5.070470620133973 L13.492858733824146,-4.947845479759689 L13.415233795663019,-4.825903183102698 L13.333063287865352,-4.704685048652831 L13.246375052790881,-4.584232149527388 L13.155198463569821,-4.4645852995540825 L13.059564414150191,-4.3457850394418305 L12.959505308829815,-4.227871623044083 L12.855055051276562,-4.110885003719348 L12.746249033040552,-3.9948648207935453 L12.633124121562215,-3.8798503861287506 L12.515718647680243,-3.7658806708029124 L12.394072392643734,-3.6529942919050358 L12.26822657463283,-3.5412294994502975 L12.13822383479252,-3.430624163419554 L12.004108222784241,-3.321215760927613 L11.865925181860272,-3.2130413635246167 L11.723721533465891,-3.106137624634852 L11.577545461374577,-3.0005407671372493 L11.427446495361592,-2.8962865710917383 L11.273475494421467,-2.793410361615659 L11.115684629535155,-2.691946996914333 L10.954127365992582,-2.5919308564698387 L10.788858445276672,-2.4933958293919805 L10.619933866514938,-2.3963753029354313 L10.447410867504926,-2.3009021511869143 L10.271347905319981,-2.2070087239262595 L10.091804636501848,-2.1147268356651256 L9.908841896846882,-2.0240877548670895 L9.722521680792646,-1.935122193352746 L9.532907120411956,-1.8478602958934243 L9.340062464021425,-1.7623316299970488 L9.144053054411792,-1.67856517588958 L8.944945306707407,-1.596589316695467 L8.74280668586239,-1.5164318288204166 L8.537705683801,-1.4381198725397146 L8.329711796210136,-1.361679982795362 L8.118895498991627,-1.2871380602050566 L7.905328224382444,-1.2145193622861177 L7.68908233675086,-1.1438484948973304 L7.470231108076758,-1.075149403901574 L7.248848693124427,-1.0084453670520999 L7.025010104316223,-0.9437589861051752 L6.798791186315627,-0.8811121791617911 L6.570268590328318,-0.8205261732410056 L6.339519748129957,-0.7620214970874644 L6.106622845829457,-0.7056179742155049 L5.871656797376696,-0.6513347161922338 L5.63470121782363,-0.5991901161618332 L5.395836396347773,-0.5492018426132956 L5.155143269047318,-0.5013868333936875 L4.912703391517031,-0.45576128996900067 L4.668598911214259,-0.41234067193449686 L4.422912539624381,-0.3711396917764409 L4.175727524235117,-0.33217230988696844 L3.9271276203292684,-0.2954517298337995 L3.677197062605402,-0.2609903938863951 L3.4260205366360363,-0.22879997880005476 L3.173683150173092,-0.19889139185940952 L2.9202704043102927,-0.171274767182636 L2.6658681645122764,-0.1459594622876521 L2.410562631520254,-0.1229540549214434 L2.1544403121440565,-0.10226634015361569 L1.8975879899504817,-0.08390332773513709 L1.6400926958578572,-0.06787123972318376 L1.3820416786468148,-0.054175508372874326 L1.1235223753971852,-0.042820774296630226 L0.8646223818611594,-0.03381088489176065 L0.6054294227826817,-0.027148893036835986 L0.3460313221730772,-0.022837056057245064 L0.08651597355308979,-0.020876834960346535 L-0.1730286898286415,-0.021268893940414202 L-0.43251472479056924,-0.02401310015359215 L-0.691854208016589,-0.029108523762903182 L-0.9509592658476606,-0.036553438253312365 L-1.2097421040566019,-0.04634532101673372 L-1.4681150375959713,-0.058480854206780286 L-1.7259905203089398,-0.0729559258629715 L-1.9832811745931553,-0.08976563130401782 L-2.23989982100743,-0.10890427478970377 L-2.4957595078112833,-0.13036537145080818 L-2.7507735404273963,-0.1541416494864185 L-3.0048555108168786,-0.18022505262788258 L-3.257919326757455,-0.20860674286856096 L-3.509879241014649,-0.23927710345847064 L-3.7606498803960644,-0.27222574216278517 L-4.010146274678932,-0.3074414947831068 L-4.2582838854011165,-0.34491242894030005 L-4.504978634505824,-0.3846258481176186 L-4.7501469328302965,-0.42656829596274104 L-4.993705708428898,-0.470725560847284 L-5.235572434720896,-0.5170826806822149 L-5.475665158453439,-0.5656239479875449 L-5.713902527470347,-0.6163329152146018 L-5.950203818277168,-0.6691924003190604 L-6.1844889633932345,-0.7241844925828405 L-6.416678578481445,-0.7812905586829109 L-6.6466939892465655,-0.8404912490049403 L-6.8744572580929475,-0.9017665041996468 L-7.099891210532621,-0.9650955619796404 L-7.322919461334817,-1.0304569641544372 L-7.543466440408067,-1.0978285639012775 L-7.761457418406115,-1.1671875332692796 L-7.976818532048935,-1.2385103709143808 L-8.189476809150271,-1.3117729100624356 L-8.399360193343304,-1.3869503266978116 L-8.606397568495959,-1.464017147974669 L-8.810518782807645,-1.5429472608480816 L-9.011654672579237,-1.6237139209220919 L-9.209737085648252,-1.7062897615116865 L-9.404698904481291,-1.7906468029156244 L-9.596474068915892,-1.876756461896976 L-9.784997598544125,-1.9645895613681663 L-9.97020561473023,-2.054116340277191 " />
			<path d="M-9.970205614730318,-4.665281179612703 L-10.21188386961568,-4.787232318492762 L-10.447410867504928,-4.9120669905223835 L-10.676644735741435,-5.039709999962993 L-10.899447392414594,-5.170084459438589 L-11.115684629535151,-5.3031118362497995 L-11.325226193877095,-5.438711999679045 L-11.52794586543733,-5.576803269258296 L-11.723721533465888,-5.717302463970319 L-11.912435270020868,-5.860124952353825 L-12.093973401003835,-6.005184703482289 L-12.26822657463283,-6.152394338785763 L-12.435089827311803,-6.301665184684465 L-12.594462646856762,-6.452907326002421 L-12.746249033040547,-6.606029660129009 L-12.89035755541978,-6.760939951895763 L-13.02670140840914,-6.917544889135393 L-13.155198463569814,-7.075750138889542 L-13.275771319080588,-7.235460404231432 L-13.388347346361812,-7.396579481669173 L-13.492858733824141,-7.559010319095148 L-13.589242527715697,-7.72265507424657 L-13.677440670043067,-7.887415173642009 L-13.75740003354325,-8.05319137195837 L-13.829072453685548,-8.219883811812549 L-13.86178737278015,-8.303542264319601 L-13.892414757684069,-8.387392083911815 L-13.920949996025803,-8.471420643114794 L-13.947388790503412,-8.555615287536597 L-13.971727159531698,-8.639963337773462 L-13.99396143784181,-8.724452091319293 L-14.01408827703322,-8.809068824478572 L-14.032104646077975,-8.893800794282523 L-14.04800783177717,-8.97863524040817 L-14.061795439169531,-9.06355938709998 L-14.073465391892103,-9.148560445093826 L-14.08301593249293,-9.23362561354303 L-14.090445622695727,-9.318742081946123 L-14.09575334361648,-9.403897032076053 L-14.098938295931937,-9.489077639910548 L-14.1,-9.574271077563319 " />
			<path d="M-14.1,-9.574271077563383 L-14.09840705096728,-9.678623191550587 L-14.0936285637963,-9.782951727154948 L-14.085665618187273,-9.887233111321168 L-14.074520013369492,-9.991443781647817 L-14.06019426769479,-10.095560191711282 L-14.042691618068517,-10.199558816386075 L-14.022016019218158,-10.303416157160338 L-13.99817214279977,-10.407108747445346 L-13.971165376342416,-10.510613157877778 L-13.941001822030843,-10.613906001613595 L-13.907688295326713,-10.716963939612299 L-13.87123232342862,-10.819763685910395 L-13.831642143571344,-10.922282012882855 L-13.78892670116463,-11.024495756491412 L-13.743095647771977,-11.126381821518475 L-13.694159338929863,-11.227917186785504 L-13.64212883180791,-11.329078910354637 L-13.587015882710512,-11.429844134712445 L-13.528832944420504,-11.530190091934575 L-13.467593163385438,-11.630094108830177 L-13.403310376747152,-11.729533612064913 L-13.335999109215267,-11.82848613326141 L-13.265674569785313,-11.92692931407599 L-13.192352648302263,-12.024840911250543 L-13.116049911870219,-12.122198801638405 L-13.036783601109063,-12.218980987203073 L-12.954571626258947,-12.315165599988681 L-12.869432563133461,-12.410730907061055 L-12.781385648922429,-12.505655315418288 L-12.690450777845259,-12.599917376869675 L-12.596648496655838,-12.693495792881937 L-12.500000000000002,-12.786369419391626 " />
			<path d="M12.499999999999998,-12.78636941939163 L12.596648496655837,-12.693495792881937 L12.690450777845259,-12.599917376869675 L12.78138564892243,-12.505655315418288 L12.869432563133461,-12.410730907061055 L12.954571626258947,-12.315165599988681 L13.036783601109061,-12.218980987203075 L13.116049911870215,-12.122198801638408 L13.192352648302263,-12.024840911250545 L13.265674569785313,-11.926929314075988 L13.335999109215267,-11.82848613326141 L13.403310376747152,-11.729533612064914 L13.467593163385436,-11.630094108830178 L13.528832944420502,-11.530190091934578 L13.587015882710512,-11.429844134712447 L13.64212883180791,-11.329078910354637 L13.694159338929863,-11.227917186785504 L13.743095647771975,-11.126381821518477 L13.78892670116463,-11.024495756491412 L13.831642143571345,-10.922282012882851 L13.87123232342862,-10.819763685910393 L13.907688295326713,-10.716963939612299 L13.941001822030843,-10.613906001613596 L13.971165376342416,-10.51061315787778 L13.99817214279977,-10.407108747445346 L14.022016019218158,-10.303416157160337 L14.042691618068517,-10.199558816386075 L14.06019426769479,-10.095560191711284 L14.074520013369492,-9.991443781647819 L14.085665618187273,-9.88723311132117 L14.093628563796297,-9.78295172715495 L14.09840705096728,-9.678623191550587 L14.1,-9.574271077563415 " />
			<path d="M14.1,-9.574271077563383 L14.09761120332111,-9.446484930455194 L14.090445622695729,-9.318742081946128 L14.078505686083457,-9.19108581596417 L14.061795439169531,-9.063559387099982 L14.040320543994003,-8.936206005950694 L14.01408827703322,-8.809068824478567 L13.983107526734303,-8.682190921389541 L13.947388790503412,-8.555615287536597 L13.906944171148842,-8.429384811352895 L13.861787372780151,-8.303542264319605 L13.811933696164711,-8.178130286473385 L13.757400033543252,-8.053191371958373 L13.69820486290615,-7.928767854627628 L13.634368241732416,-7.8049018936988785 L13.565911800193488,-7.681635459469441 L13.492858733824146,-7.559010319095156 L13.415233795663019,-7.437068022438167 L13.333063287865352,-7.315849887988299 L13.246375052790881,-7.195396988862856 L13.155198463569821,-7.07575013888955 L13.059564414150191,-6.9569498787773 L12.959505308829815,-6.839036462379552 L12.855055051276562,-6.722049843054816 L12.746249033040552,-6.606029660129014 L12.633124121562215,-6.491015225464219 L12.515718647680243,-6.37704551013838 L12.394072392643734,-6.264159131240504 L12.26822657463283,-6.152394338785766 L12.13822383479252,-6.0417890027550225 L12.004108222784241,-5.932380600263081 L11.865925181860272,-5.8242062028600845 L11.723721533465891,-5.71730246397032 L11.577545461374577,-5.611705606472718 L11.427446495361592,-5.5074514104272065 L11.273475494421467,-5.404575200951127 L11.115684629535155,-5.303111836249801 L10.954127365992582,-5.203095695805307 L10.788858445276672,-5.104560668727449 L10.619933866514938,-5.0075401422709 L10.447410867504926,-4.912066990522383 L10.271347905319981,-4.818173563261728 L10.091804636501848,-4.725891675000594 L9.908841896846882,-4.635252594202558 L9.722521680792646,-4.546287032688214 L9.532907120411956,-4.4590251352288925 L9.340062464021425,-4.373496469332517 L9.144053054411792,-4.289730015225048 L8.944945306707407,-4.207754156030935 L8.74280668586239,-4.127596668155885 L8.537705683801,-4.049284711875183 L8.329711796210136,-3.9728448221308303 L8.118895498991627,-3.898302899540525 L7.905328224382444,-3.825684201621586 L7.68908233675086,-3.7550133342327987 L7.470231108076758,-3.6863142432370424 L7.248848693124427,-3.619610206387568 L7.025010104316223,-3.5549238254406434 L6.798791186315627,-3.4922770184972594 L6.570268590328318,-3.431691012576474 L6.339519748129957,-3.3731863364229326 L6.106622845829457,-3.316782813550973 L5.871656797376696,-3.262499555527702 L5.63470121782363,-3.2103549554973014 L5.395836396347773,-3.160366681948764 L5.155143269047318,-3.112551672729156 L4.912703391517031,-3.066926129304469 L4.668598911214259,-3.023505511269965 L4.422912539624381,-2.982304531111909 L4.175727524235117,-2.9433371492224367 L3.9271276203292684,-2.906616569169268 L3.677197062605402,-2.8721552332218634 L3.4260205366360363,-2.839964818135523 L3.173683150173092,-2.810056231194878 L2.9202704043102927,-2.7824396065181043 L2.6658681645122764,-2.7571243016231204 L2.410562631520254,-2.7341188942569117 L2.1544403121440565,-2.713431179489084 L1.8975879899504817,-2.6950681670706054 L1.6400926958578572,-2.679036079058652 L1.3820416786468148,-2.6653403477083426 L1.1235223753971852,-2.6539856136320985 L0.8646223818611594,-2.644975724227229 L0.6054294227826817,-2.6383137323723043 L0.3460313221730772,-2.6340018953927133 L0.08651597355308979,-2.632041674295815 L-0.1730286898286415,-2.6324337332758825 L-0.43251472479056924,-2.6351779394890604 L-0.691854208016589,-2.6402733630983715 L-0.9509592658476606,-2.6477182775887806 L-1.2097421040566019,-2.657510160352202 L-1.4681150375959713,-2.6696456935422486 L-1.7259905203089398,-2.68412076519844 L-1.9832811745931553,-2.700930470639486 L-2.23989982100743,-2.720069114125172 L-2.4957595078112833,-2.7415302107862765 L-2.7507735404273963,-2.765306488821887 L-3.0048555108168786,-2.791389891963351 L-3.257919326757455,-2.8197715822040292 L-3.509879241014649,-2.850441942793939 L-3.7606498803960644,-2.8833905814982534 L-4.010146274678932,-2.918606334118575 L-4.2582838854011165,-2.9560772682757683 L-4.504978634505824,-2.995790687453087 L-4.7501469328302965,-3.0377331352982093 L-4.993705708428898,-3.0818904001827523 L-5.235572434720896,-3.128247520017683 L-5.475665158453439,-3.176788787323013 L-5.713902527470347,-3.22749775455007 L-5.950203818277168,-3.2803572396545286 L-6.1844889633932345,-3.3353493319183087 L-6.416678578481445,-3.392455398018379 L-6.6466939892465655,-3.4516560883404086 L-6.8744572580929475,-3.512931343535115 L-7.099891210532621,-3.5762604013151087 L-7.322919461334817,-3.6416218034899055 L-7.543466440408067,-3.7089934032367458 L-7.761457418406115,-3.778352372604748 L-7.976818532048935,-3.849675210249849 L-8.189476809150271,-3.922937749397904 L-8.399360193343304,-3.99811516603328 L-8.606397568495959,-4.075181987310137 L-8.810518782807645,-4.15411210018355 L-9.011654672579237,-4.23487876025756 L-9.209737085648252,-4.317454600847155 L-9.404698904481291,-4.401811642251093 L-9.596474068915892,-4.487921301232444 L-9.784997598544125,-4.575754400703635 L-9.97020561473023,-4.665281179612659 " />
			<path d="M-12.215512678557587,-8.268688657895625 L-12.152808095949428,-8.403582201910032 L-12.083959716930504,-8.53774751990576 L-12.009002347483152,-8.671116785221464 L-11.927973881961806,-8.803622573636577 L-11.840915283935686,-8.935197897457321 L-11.747870565479847,-9.065776239382028 L-11.648886764925086,-9.195291586128658 L-11.544013923077916,-9.323678461807503 L-11.433305057922682,-9.450871961022239 L-11.316816137818547,-9.57680778168253 L-11.194606053204954,-9.701422257511677 L-11.066736586829832,-9.824652390232798 L-10.933272382515607,-9.946435881417317 L-10.794280912478822,-10.066711163979662 L-10.649832443219859,-10.185417433302208 L-10.500000000000048,-10.30249467797478 " />
			<path d="M10.499999999999956,-10.302494677974776 L10.649832443219774,-10.1854174333022 L10.794280912478733,-10.066711163979654 L10.933272382515517,-9.946435881417312 L11.066736586829743,-9.82465239023279 L11.194606053204867,-9.70142225751167 L11.316816137818458,-9.576807781682524 L11.43330505792259,-9.450871961022234 L11.544013923077824,-9.3236784618075 L11.64888676492499,-9.195291586128654 L11.74787056547975,-9.065776239382027 L11.84091528393559,-8.935197897457321 L11.92797388196171,-8.803622573636575 L12.009002347483058,-8.67111678522146 L12.08395971693041,-8.537747519905759 L12.152808095949332,-8.403582201910032 L12.215512678557479,-8.268688657895654 " />
			<path d="M-8.83883476483189,-5.222329678670912 L-9.053088536893382,-5.330442390444015 L-9.26188906693704,-5.441111425931267 L-9.465110581331109,-5.554270122243865 L-9.662630667034263,-5.669850316814429 L-9.85433034533263,-5.787782388455573 L-10.040094143508112,-5.907995299297102 L-10.219810164394845,-6.03041663757658 L-10.393370153781863,-6.154972661257451 L-10.560669565621385,-6.2815883424485035 L-10.721607625003449,-6.410187412597851 L-10.87608738885894,-6.540692408434264 L-11.024015804354484,-6.673024718628149 L-11.165303764943987,-6.807104631144067 L-11.299866164043086,-6.94285138125629 L-11.42762194629418,-7.080183200198448 L-11.54849415639113,-7.219017364417979 L-11.66240998543428,-7.3592702454057 L-11.769300814787805,-7.500857360070496 L-11.869102257413003,-7.643693421628777 L-11.961754196652656,-7.787692390978045 L-12.047200822443044,-7.932767528523632 L-12.125390664931844,-8.07883144642739 L-12.196276625481653,-8.22579616124686 L-12.259816005040427,-8.373573146933188 L-12.315970529861811,-8.522073388155942 L-12.36470637455981,-8.671207433922593 L-12.405994182483923,-8.820885451460443 L-12.43980908340251,-8.971017280328555 L-12.466130708483675,-9.12151248672701 L-12.484943202564702,-9.27228041797085 L-12.4962352337026,-9.423230257095868 L-12.500000000000048,-9.574271077563303 " />
			<path d="M-12.500000000000048,-9.57427107756336 L-12.497992501972748,-9.684569208687618 L-12.491970652698575,-9.794831912086973 L-12.48193638639362,-9.905023771415895 L-12.467892926061051,-10.015109393083947 L-12.449844782455896,-10.125053417624196 L-12.427797752636181,-10.234820531050662 L-12.401758918100926,-10.34437547620116 L-12.37173664251557,-10.453683064061883 L-12.33774056902555,-10.562708185070113 L-12.29978161715894,-10.671415820391395 L-12.257871979319102,-10.779771053167574 L-12.212025116868482,-10.887739079732084 L-12.162255755804825,-10.995285220788869 L-12.108579882031199,-11.102374932551367 L-12.051014736221317,-11.20897381783796 L-11.989578808281845,-11.315047637120342 L-11.924291831413443,-11.420562319521238 L-11.855174775772479,-11.525483973757966 L-11.782249841735405,-11.629778899028302 L-11.70554045276802,-11.733413595835165 L-11.625071247901845,-11.836354776746655 L-11.540868073820086,-11.938569377087951 L-11.452957976555682,-12.040024565561689 L-11.361369192804124,-12.140687754793351 L-11.266131140853847,-12.24052661179833 L-11.167274411137079,-12.339509068367269 L-11.064830756404197,-12.437603331366358 L-10.958833081524773,-12.534777892949283 L-10.849315432918518,-12.631001540677538 L-10.7363129876196,-12.72624336754584 L-10.619862041977779,-12.820472781909462 L-10.500000000000048,-12.913659517310247 " />
			<path d="M10.499999999999956,-12.913659517310245 L10.619862041977694,-12.820472781909453 L10.736312987619515,-12.72624336754583 L10.84931543291843,-12.631001540677529 L10.958833081524686,-12.534777892949275 L11.064830756404112,-12.437603331366349 L11.167274411136988,-12.339509068367263 L11.266131140853759,-12.240526611798325 L11.361369192804036,-12.140687754793344 L11.452957976555592,-12.040024565561682 L11.540868073819997,-11.938569377087944 L11.625071247901753,-11.83635477674665 L11.705540452767929,-11.73341359583516 L11.782249841735315,-11.629778899028295 L11.855174775772387,-11.525483973757963 L11.92429183141335,-11.420562319521235 L11.98957880828175,-11.315047637120337 L12.051014736221225,-11.208973817837954 L12.108579882031105,-11.10237493255136 L12.16225575580473,-10.995285220788865 L12.212025116868386,-10.88773907973208 L12.257871979319008,-10.77977105316757 L12.299781617158846,-10.671415820391394 L12.337740569025454,-10.562708185070111 L12.371736642515474,-10.453683064061881 L12.401758918100832,-10.344375476201156 L12.427797752636085,-10.234820531050659 L12.4498447824558,-10.125053417624196 L12.467892926060957,-10.015109393083945 L12.481936386393524,-9.905023771415893 L12.491970652698479,-9.794831912086973 L12.497992501972652,-9.684569208687618 L12.499999999999952,-9.574271077563388 " />
			<path d="M12.499999999999952,-9.57427107756336 L12.497882272447745,-9.46098548615539 L12.491529807354322,-9.347738280030333 L12.480944757166137,-9.234567831464767 L12.466130708483579,-9.121512486727012 L12.4470926808457,-9.008610553084026 L12.423837125029403,-8.895900285821503 L12.396371920863697,-8.783419875281584 L12.364706374559715,-8.671207433922593 L12.328851215557437,-8.559300983405125 L12.288818592890157,-8.447738441708946 L12.244622071067958,-8.336557610284993 L12.196276625481559,-8.225796161246862 L12.1437986373281,-8.11549162460613 L12.087205888060604,-8.00568137555582 L12.026517553362973,-7.896402621806319 L11.961754196652564,-7.787692390978052 L11.892937762112558,-7.679587518055189 L11.82009156725647,-7.572124632904597 L11.743240295027329,-7.465340147864311 L11.66240998543419,-7.359270245405707 L11.577628026728846,-7.25395086587357 L11.488923146125675,-7.14941769530819 L11.396325400067825,-7.045706153353637 L11.299866164042996,-6.942851381256294 L11.19957812195227,-6.840888229957718 L11.09549525503563,-6.739851248285875 L10.987652830357872,-6.63977467124875 L10.876087388858846,-6.540692408434266 L10.760836732972043,-6.442638032520486 L10.641939913815769,-6.345644767899971 L10.519437217961185,-6.249745479422138 L10.39337015378177,-6.154972661257453 L10.263781437388761,-6.061358425887238 L10.13071497815739,-5.968934493222777 L9.99421586384877,-5.877732179857459 L9.854330345332535,-5.7877823884555735 L9.711105820915362,-5.699115597281377 L9.56459082028069,-5.611761849871928 L9.41483498804511,-5.525750744857257 L9.261889066936943,-5.4411114259312665 L9.105804880602772,-5.3578725719767855 L8.94663531604769,-5.276062387348121 L8.784434305715273,-5.195708592314401 L8.61925680921329,-5.116838413666933 L8.451158794691402,-5.039478575493776 L8.280197219877103,-4.963655290124649 L8.106430012776363,-4.889394249249233 L7.9299160520455265,-4.816720615211898 L7.7507151470410784,-4.74565901248579 L7.568888017554031,-4.6762335193291396 L7.3844962732358885,-4.608467659626699 L7.1976023927230255,-4.542384394918981 L7.008269702466658,-4.47800611662205 L6.816562355275537,-4.415354638440501 L6.622545308578639,-4.354451188976178 L6.426284302415224,-4.295316404535154 L6.227845837159725,-4.237970322135399 L6.027297150988984,-4.182432372717504 L5.824706197099525,-4.12872137456078 L5.6201416206825385,-4.0768555269069315 L5.413672735664364,-4.026852403793493 L5.205369501220428,-3.9787289480991026 L4.995302498070546,-3.932501465802649 L4.783542904563581,-3.8881856204582004 L4.57016247255963,-3.8457964278876258 L4.355233503117888,-3.80534825109269 L4.138828821998409,-3.766854795388343 L3.9210217549861057,-3.7303291037588613 L3.7018861030452688,-3.6957835524384066 L3.4814961173131334,-3.6632298467175124 L3.259926473940911,-3.6326790169769057 L3.0372522487907645,-3.604141414950008 L2.813548891997374,-3.5776267102153936 L2.5888922024026937,-3.553143886920382 L2.3633583018725375,-3.530701240736885 L2.137023609503723,-3.51030637605053 L1.909964815730499,-3.491966203384016 L1.6822588563390317,-3.4756869370555776 L1.4539828863987618,-3.461474093073349 L1.225214254119469,-3.4493324872663376 L0.9960304746428469,-3.4392662336526456 L0.7665092037775757,-3.4312787430454925 L0.5367282116867267,-3.425372721897509 L0.3067653565363681,-3.4215501713836876 L0.07669855811439347,-3.4198123867233168 L-0.15339422857153856,-3.4201599567411076 L-0.3834350397079993,-3.4225927636676836 L-0.6133459290927686,-3.4271099831794833 L-0.8430489945458463,-3.433710084678073 L-1.0724664043055459,-3.4423908318087664 L-1.3015204234007314,-3.453149283218382 L-1.5301334399902426,-3.465981793551885 L-1.7582279916606465,-3.4808840146875646 L-1.9857267916733012,-3.497850897210336 L-2.212552755151895,-3.516876692122662 L-2.4386290252016405,-3.5379549527925294 L-2.6638789989511817,-3.5610785371377984 L-2.88822635350843,-3.586239610046201 L-3.1115950718215455,-3.6134296460301636 L-3.3339094684362753,-3.6426394321155495 L-3.555094215140945,-3.6738590709633527 L-3.7750743664904,-3.7070779842232753 L-3.993775385200247,-3.742284916118061 L-4.211123167402793,-3.779467937257354 L-4.427044067756164,-3.8186144486798215 L-4.641464924398005,-3.8597111861221363 L-4.8543130837353665,-3.902744224513386 L-5.0655164250624125,-3.9476989826934012 L-5.275003384997538,-3.9945602283533823 L-5.482702981731639,-4.043312083197159 L-5.688544839079343,-4.093938028321335 L-5.8924592103250175,-4.146420909812496 L-6.094377001855498,-4.200742944559575 L-6.29422979657152,-4.256885726279428 L-6.4919498770699215,-4.314830231753539 L-6.68747024858876,-4.374556827273787 L-6.880724661707597,-4.436045275295066 L-7.0716476347952035,-4.499274741292496 L-7.260174476197098,-4.564223800820913 L-7.44624130615546,-4.630870446774261 L-7.629785078453912,-4.699192096842396 L-7.810743601779874,-4.769165601162798 L-7.989055560797243,-4.84076725016458 L-8.164660536922257,-4.913972782602165 L-8.33749902879552,-4.9887573937758685 L-8.507512472443215,-5.065095743936641 L-8.674643261120726,-5.142961966872093 L-8.838834764831812,-5.2223296786708735 " />
			<path d="M-8.838834764831843,-19.148542155126762 L-9.053088536893334,-19.256654866899865 L-9.261889066936993,-19.36732390238712 L-9.46511058133106,-19.480482598699716 L-9.662630667034215,-19.59606279327028 L-9.854330345332581,-19.713994864911424 L-10.040094143508064,-19.834207775752954 L-10.219810164394797,-19.95662911403243 L-10.393370153781815,-20.081185137713305 L-10.560669565621337,-20.207800818904357 L-10.7216076250034,-20.336399889053702 L-10.876087388858892,-20.466904884890116 L-11.024015804354436,-20.599237195084 L-11.165303764943939,-20.73331710759992 L-11.299866164043038,-20.869063857712142 L-11.427621946294131,-21.0063956766543 L-11.548494156391081,-21.14522984087383 L-11.662409985434232,-21.285482721861552 L-11.769300814787757,-21.427069836526346 L-11.869102257412955,-21.569905898084627 L-11.961754196652608,-21.713904867433897 L-12.047200822442996,-21.858980004979486 L-12.125390664931796,-22.005043922883242 L-12.196276625481605,-22.15200863770271 L-12.25981600504038,-22.29978562338904 L-12.315970529861763,-22.448285864611794 L-12.364706374559763,-22.597419910378445 L-12.405994182483875,-22.747097927916297 L-12.439809083402462,-22.89722975678441 L-12.466130708483627,-23.047724963182862 L-12.484943202564654,-23.1984928944267 L-12.496235233702553,-23.349442733551722 L-12.5,-23.500483554019155 " />
			<path d="M-12.5,-23.500483554019212 L-12.496235233702553,-23.6515243744867 L-12.484943202564654,-23.802474213611724 L-12.466130708483627,-23.95324214485556 L-12.439809083402462,-24.10373735125402 L-12.405994182483875,-24.25386918012213 L-12.364706374559761,-24.403547197659982 L-12.315970529861765,-24.552681243426626 L-12.259816005040381,-24.701181484649382 L-12.196276625481607,-24.84895847033571 L-12.1253906649318,-24.995923185155174 L-12.047200822442997,-25.141987103058934 L-11.96175419665261,-25.28706224060452 L-11.869102257412958,-25.43106120995379 L-11.769300814787758,-25.573897271512074 L-11.662409985434236,-25.71548438617687 L-11.548494156391085,-25.85573726716459 L-11.427621946294133,-25.99457143138412 L-11.299866164043042,-26.13190325032628 L-11.16530376494394,-26.267650000438504 L-11.024015804354438,-26.401729912954423 L-10.876087388858892,-26.534062223148307 L-10.7216076250034,-26.664567218984722 L-10.560669565621337,-26.793166289134067 L-10.393370153781815,-26.91978197032512 L-10.219810164394795,-27.044337994005993 L-10.040094143508062,-27.16675933228547 L-9.854330345332578,-27.286972243127 L-9.662630667034211,-27.404904314768146 L-9.465110581331055,-27.520484509338708 L-9.261889066936988,-27.633643205651307 L-9.053088536893336,-27.744312241138555 L-8.838834764831843,-27.852424952911658 L-8.619256809213335,-27.95791621791564 L-8.394486935587729,-28.060722492157034 L-8.16466053692221,-28.160781848980406 L-7.929916052045568,-28.258034016370676 L-7.690394882257835,-28.35242041325869 L-7.446241306155417,-28.443884184808308 L-7.1976023927230655,-28.532370236663592 L-6.9446279127450286,-28.617825268135615 L-6.687470248588714,-28.700197804308786 L-6.4262843024152705,-28.779438227047418 L-6.161227402872301,-28.855498804883847 L-5.892459210324972,-28.928333721770073 L-5.620141620682586,-28.99789910467564 L-5.344438667878528,-29.064153050015097 L-5.065516425062373,-29.12705564888917 L-4.783542904563623,-29.186569011124373 L-4.498687956687354,-29.242657288096645 L-4.211123167402751,-29.295286694325217 L-3.9210217549861417,-29.344425527823713 L-3.628558465680779,-29.390044189196253 L-3.3339094684362305,-29.43211519946702 L-3.0372522487907996,-29.470613216632565 L-2.738765501960875,-29.505515050926874 L-2.438629025201604,-29.53679967879004 L-2.137023609503764,-29.564448255532042 L-1.834130930692022,-29.588444126684095 L-1.5301334399902036,-29.608772838030685 L-1.2252142541195097,-29.625422144316232 L-0.9195570449958459,-29.638382016621193 L-0.6133459290927266,-29.647644648403087 L-0.3067653565364033,-29.653204460198886 L-7.654042494670958e-16,-29.655058102985848 L0.3067653565364018,-29.653204460198886 L0.6133459290927251,-29.647644648403087 L0.9195570449958443,-29.638382016621193 L1.2252142541195081,-29.625422144316236 L1.530133439990202,-29.608772838030685 L1.8341309306920204,-29.588444126684095 L2.1370236095037627,-29.564448255532042 L2.4386290252016023,-29.53679967879004 L2.738765501960873,-29.505515050926878 L3.0372522487907982,-29.470613216632565 L3.3339094684362287,-29.43211519946702 L3.628558465680777,-29.390044189196253 L3.9210217549861404,-29.344425527823713 L4.211123167402749,-29.295286694325217 L4.498687956687352,-29.242657288096645 L4.783542904563622,-29.186569011124373 L5.065516425062374,-29.12705564888917 L5.344438667878528,-29.064153050015097 L5.620141620682584,-28.99789910467564 L5.892459210324971,-28.928333721770077 L6.1612274028723,-28.855498804883847 L6.4262843024152705,-28.779438227047418 L6.687470248588713,-28.700197804308786 L6.944627912745024,-28.617825268135615 L7.197602392723063,-28.532370236663596 L7.446241306155412,-28.44388418480831 L7.69039488225783,-28.352420413258695 L7.929916052045567,-28.258034016370676 L8.164660536922211,-28.160781848980406 L8.39448693558773,-28.06072249215703 L8.619256809213336,-27.95791621791564 L8.838834764831843,-27.852424952911658 L9.053088536893334,-27.744312241138555 L9.261889066936986,-27.633643205651307 L9.465110581331054,-27.52048450933871 L9.662630667034213,-27.404904314768146 L9.854330345332581,-27.286972243127 L10.040094143508064,-27.16675933228547 L10.219810164394797,-27.044337994005993 L10.393370153781817,-26.91978197032512 L10.560669565621339,-26.793166289134067 L10.7216076250034,-26.664567218984722 L10.876087388858892,-26.534062223148307 L11.024015804354438,-26.401729912954423 L11.16530376494394,-26.267650000438504 L11.299866164043038,-26.131903250326282 L11.427621946294131,-25.994571431384124 L11.548494156391085,-25.85573726716459 L11.662409985434238,-25.71548438617687 L11.76930081478776,-25.57389727151207 L11.869102257412958,-25.43106120995379 L11.96175419665261,-25.28706224060452 L12.047200822442997,-25.141987103058934 L12.1253906649318,-24.995923185155174 L12.196276625481605,-24.84895847033571 L12.259816005040381,-24.701181484649382 L12.315970529861765,-24.55268124342663 L12.364706374559761,-24.403547197659982 L12.405994182483875,-24.253869180122134 L12.43980908340246,-24.10373735125402 L12.466130708483627,-23.95324214485556 L12.484943202564654,-23.80247421361172 L12.496235233702553,-23.6515243744867 L12.5,-23.50048355401924 " />
			<path d="M12.5,-23.500483554019212 L12.497882272447793,-23.387197962611243 L12.49152980735437,-23.273950756486187 L12.480944757166185,-23.160780307920618 L12.466130708483627,-23.047724963182862 L12.447092680845747,-22.934823029539878 L12.42383712502945,-22.822112762277353 L12.396371920863745,-22.709632351737437 L12.364706374559763,-22.597419910378445 L12.328851215557485,-22.48551345986098 L12.288818592890205,-22.373950918164798 L12.244622071068006,-22.262770086740844 L12.196276625481607,-22.152008637702714 L12.143798637328148,-22.04170410106198 L12.087205888060652,-21.931893852011672 L12.026517553363021,-21.822615098262172 L11.961754196652612,-21.713904867433904 L11.892937762112606,-21.60579999451104 L11.820091567256519,-21.49833710936045 L11.743240295027377,-21.391552624320163 L11.662409985434238,-21.28548272186156 L11.577628026728894,-21.180163342329422 L11.488923146125723,-21.075630171764043 L11.396325400067873,-20.97191862980949 L11.299866164043044,-20.869063857712145 L11.199578121952317,-20.76710070641357 L11.095495255035678,-20.666063724741726 L10.98765283035792,-20.565987147704604 L10.876087388858894,-20.46690488489012 L10.760836732972091,-20.368850508976337 L10.641939913815817,-20.271857244355825 L10.519437217961233,-20.17595795587799 L10.393370153781818,-20.081185137713305 L10.26378143738881,-19.98757090234309 L10.130714978157439,-19.89514696967863 L9.994215863848819,-19.803944656313313 L9.854330345332583,-19.713994864911427 L9.71110582091541,-19.62532807373723 L9.564590820280738,-19.53797432632778 L9.414834988045158,-19.451963221313108 L9.261889066936991,-19.36732390238712 L9.10580488060282,-19.284085048432637 L8.946635316047738,-19.20227486380397 L8.78443430571532,-19.121921068770252 L8.619256809213338,-19.043050890122785 L8.45115879469145,-18.965691051949626 L8.28019721987715,-18.8898677665805 L8.10643001277641,-18.815606725705084 L7.9299160520455745,-18.74293309166775 L7.750715147041126,-18.67187148894164 L7.568888017554079,-18.60244599578499 L7.3844962732359365,-18.53468013608255 L7.1976023927230735,-18.468596871374835 L7.0082697024667056,-18.404218593077903 L6.816562355275585,-18.341567114896353 L6.622545308578687,-18.28066366543203 L6.426284302415272,-18.221528880991006 L6.227845837159773,-18.164182798591252 L6.027297150989032,-18.108644849173356 L5.824706197099573,-18.05493385101663 L5.6201416206825865,-18.003068003362785 L5.413672735664412,-17.953064880249343 L5.205369501220476,-17.904941424554956 L4.995302498070594,-17.8587139422585 L4.783542904563629,-17.814398096914054 L4.570162472559678,-17.77200890434348 L4.355233503117936,-17.73156072754854 L4.138828821998457,-17.693067271844196 L3.9210217549861537,-17.656541580214714 L3.7018861030453167,-17.62199602889426 L3.4814961173131813,-17.589442323173365 L3.259926473940959,-17.558891493432757 L3.0372522487908125,-17.53035389140586 L2.813548891997422,-17.503839186671247 L2.5888922024027416,-17.479356363376233 L2.3633583018725854,-17.456913717192737 L2.137023609503771,-17.43651885250638 L1.9099648157305467,-17.41817867983987 L1.6822588563390795,-17.40189941351143 L1.4539828863988096,-17.3876865695292 L1.2252142541195168,-17.37554496372219 L0.9960304746428947,-17.365478710108498 L0.7665092037776235,-17.357491219501345 L0.5367282116867745,-17.351585198353362 L0.30676535653641596,-17.347762647839538 L0.0766985581144413,-17.346024863179167 L-0.1533942285714907,-17.34637243319696 L-0.38343503970795145,-17.348805240123536 L-0.6133459290927208,-17.353322459635336 L-0.8430489945457984,-17.359922561133924 L-1.0724664043054981,-17.368603308264618 L-1.3015204234006836,-17.379361759674232 L-1.530133439990195,-17.392194270007735 L-1.7582279916605987,-17.407096491143417 L-1.9857267916732535,-17.424063373666186 L-2.212552755151847,-17.443089168578513 L-2.4386290252015925,-17.46416742924838 L-2.663878998951134,-17.48729101359365 L-2.888226353508382,-17.51245208650205 L-3.1115950718214975,-17.539642122486015 L-3.3339094684362274,-17.568851908571403 L-3.555094215140897,-17.600071547419205 L-3.775074366490352,-17.633290460679127 L-3.993775385200199,-17.66849739257391 L-4.211123167402745,-17.705680413713207 L-4.427044067756116,-17.744826925135673 L-4.641464924397957,-17.78592366257799 L-4.854313083735319,-17.828956700969236 L-5.0655164250623645,-17.873911459149255 L-5.27500338499749,-17.920772704809234 L-5.482702981731591,-17.96952455965301 L-5.688544839079295,-18.020150504777188 L-5.8924592103249696,-18.072633386268347 L-6.09437700185545,-18.126955421015428 L-6.294229796571472,-18.18309820273528 L-6.491949877069874,-18.24104270820939 L-6.687470248588712,-18.300769303729638 L-6.880724661707549,-18.362257751750917 L-7.071647634795156,-18.425487217748348 L-7.26017447619705,-18.490436277276764 L-7.446241306155412,-18.557082923230112 L-7.629785078453864,-18.625404573298248 L-7.810743601779826,-18.69537807761865 L-7.989055560797195,-18.766979726620434 L-8.16466053692221,-18.840185259058018 L-8.337499028795472,-18.914969870231722 L-8.507512472443167,-18.991308220392494 L-8.674643261120679,-19.069174443327945 L-8.838834764831764,-19.148542155126727 " />
			<path d="M-7.424621202458789,-19.844852778949534 L-7.604594370990442,-19.935667456838942 L-7.779986816227117,-20.02862944664823 L-7.950692888318133,-20.123682751550817 L-8.116609760308783,-20.22077011499009 L-8.27763749007941,-20.31983305516865 L-8.433679080546815,-20.420811900275535 L-8.584640538091671,-20.523645824430297 L-8.730430929176768,-20.62827288432223 L-8.870962435121966,-20.73463005652271 L-9.006150405002899,-20.842653275448164 L-9.135913406641512,-20.95227747195075 L-9.260173275657769,-21.063436612513613 L-9.37885516255295,-21.176063739026986 L-9.491887577796195,-21.29009100912125 L-9.599202434887113,-21.405449737032665 L-9.700735091368552,-21.52207043497707 L-9.796424387764798,-21.639882855006757 L-9.886212684421757,-21.758816031325185 L-9.970045896226924,-21.87879832303414 L-10.047873525188233,-21.999757457287526 L-10.11964869085216,-22.12162057282582 L-10.185328158542752,-22.244314263864975 L-10.244872365404591,-22.36776462431333 L-10.298245444233961,-22.491897292289845 L-10.345415245083924,-22.616637494916958 L-10.386353354630243,-22.741910093360946 L-10.421035113286496,-22.86763962809274 L-10.44943963005811,-22.993750364341956 L-10.47154979512629,-23.120166337716658 L-10.487352290154353,-23.24681139996148 L-10.496837596310188,-23.3736092648265 L-10.500000000000043,-23.500483554019144 " />
			<path d="M-10.500000000000043,-23.50048355401919 L-10.496837596310188,-23.627357843211882 L-10.487352290154353,-23.7541557080769 L-10.47154979512629,-23.880800770321727 L-10.44943963005811,-24.00721674369643 L-10.421035113286496,-24.133327479945642 L-10.386353354630241,-24.25905701467744 L-10.345415245083926,-24.38432961312142 L-10.298245444233963,-24.509069815748532 L-10.244872365404593,-24.63320248372505 L-10.185328158542754,-24.7566528441734 L-10.119648690852161,-24.879346535212555 L-10.047873525188235,-25.00120965075085 L-9.970045896226928,-25.122168785004234 L-9.88621268442176,-25.242151076713192 L-9.7964243877648,-25.36108425303162 L-9.700735091368553,-25.478896673061307 L-9.599202434887113,-25.595517371005712 L-9.491887577796197,-25.710876098917126 L-9.378855162552954,-25.824903369011395 L-9.26017327565777,-25.93753049552477 L-9.135913406641512,-26.04868963608763 L-9.006150405002899,-26.158313832590217 L-8.870962435121966,-26.26633705151567 L-8.730430929176768,-26.372694223716152 L-8.584640538091671,-26.477321283608088 L-8.433679080546815,-26.580155207762846 L-8.277637490079409,-26.681134052869734 L-8.11660976030878,-26.780196993048293 L-7.950692888318129,-26.877284356487568 L-7.779986816227112,-26.97233766139015 L-7.604594370990445,-27.06529965119944 L-7.424621202458791,-27.156114329088844 L-7.240175719739244,-27.24472699169219 L-7.051369025893735,-27.331084262054958 L-6.858314851014699,-27.415134121786593 L-6.66112948371832,-27.49682594239442 L-6.459931701096624,-27.576110515780353 L-6.254842697170593,-27.65294008388203 L-6.045986009887417,-27.72726836744047 L-5.833487446705867,-27.79905059387697 L-5.617475008814563,-27.868243524262432 L-5.39807881402887,-27.934805479362883 L-5.175431018412776,-27.998696364745484 L-4.94966573667302,-28.059877694929916 L-4.720918961373414,-28.11831261657059 L-4.489328481018005,-28.173965930655733 L-4.255033797052437,-28.226804113709953 L-4.018176039833486,-28.276795337987526 L-3.778897883617419,-28.323909490644233 L-3.5373434606183527,-28.368118191876235 L-3.2936582741884015,-28.40939481201497 L-3.047989111171897,-28.447714487567907 L-2.800483953486476,-28.48305413619535 L-2.551291888984314,-28.515392470614408 L-2.3005630216471773,-28.54471001142163 L-2.04844838116939,-28.570989098826686 L-1.7950998319832043,-28.59421390328997 L-1.5406699817813407,-28.614370435057694 L-1.2853120895918133,-28.631446552588827 L-1.0291799734604306,-28.64543196986869 L-0.7724279177965528,-28.656318262604856 L-0.5152105804379327,-28.664098873301647 L-0.25768289949062106,-28.668769115210115 L-4.2947510776328003e-14,-28.670326175151168 L0.2576828994905352,-28.668769115210115 L0.5152105804378467,-28.664098873301647 L0.772427917796467,-28.656318262604856 L1.0291799734603444,-28.64543196986869 L1.2853120895917272,-28.631446552588827 L1.5406699817812548,-28.614370435057694 L1.7950998319831184,-28.59421390328997 L2.0484483811693037,-28.570989098826686 L2.300563021647091,-28.54471001142163 L2.5512918889842284,-28.515392470614408 L2.80048395348639,-28.48305413619535 L3.0479891111718107,-28.447714487567907 L3.293658274188316,-28.409394812014973 L3.537343460618267,-28.368118191876235 L3.7788978836173337,-28.323909490644233 L4.018176039833399,-28.276795337987526 L4.255033797052351,-28.226804113709953 L4.489328481017921,-28.173965930655733 L4.720918961373328,-28.11831261657059 L4.949665736672933,-28.059877694929916 L5.175431018412689,-27.998696364745484 L5.398078814028785,-27.934805479362883 L5.617475008814476,-27.868243524262432 L5.833487446705778,-27.79905059387697 L6.04598600988733,-27.727268367440473 L6.254842697170503,-27.652940083882033 L6.459931701096535,-27.576110515780357 L6.661129483718234,-27.49682594239442 L6.858314851014614,-27.415134121786593 L7.051369025893651,-27.331084262054958 L7.2401757197391605,-27.24472699169219 L7.424621202458706,-27.156114329088844 L7.604594370990359,-27.06529965119944 L7.779986816227026,-26.97233766139015 L7.950692888318043,-26.877284356487568 L8.116609760308696,-26.780196993048293 L8.277637490079325,-26.68113405286973 L8.43367908054673,-26.580155207762846 L8.584640538091588,-26.477321283608084 L8.730430929176684,-26.372694223716152 L8.870962435121882,-26.26633705151567 L9.006150405002813,-26.158313832590217 L9.135913406641427,-26.04868963608763 L9.260173275657685,-25.93753049552477 L9.378855162552867,-25.824903369011395 L9.49188757779611,-25.71087609891713 L9.599202434887028,-25.595517371005716 L9.700735091368468,-25.478896673061307 L9.796424387764716,-25.36108425303162 L9.886212684421675,-25.242151076713192 L9.970045896226843,-25.122168785004234 L10.04787352518815,-25.00120965075085 L10.119648690852076,-24.879346535212555 L10.185328158542669,-24.7566528441734 L10.244872365404506,-24.63320248372505 L10.298245444233878,-24.509069815748536 L10.34541524508384,-24.384329613121423 L10.386353354630156,-24.25905701467744 L10.421035113286411,-24.133327479945645 L10.449439630058023,-24.00721674369643 L10.471549795126204,-23.880800770321724 L10.487352290154268,-23.754155708076897 L10.496837596310103,-23.627357843211882 L10.499999999999957,-23.500483554019215 " />
			<path d="M10.499999999999957,-23.50048355401919 L10.498221108856104,-23.405323657236497 L10.492885038177628,-23.31019600409145 L10.483993596019552,-23.215132827296372 L10.471549795126204,-23.120166337716658 L10.455557851910385,-23.02532871345655 L10.436023185024697,-22.93065208895603 L10.412952413525502,-22.8361685441025 L10.386353354630158,-22.741910093360946 L10.356235021068244,-22.647908674926274 L10.32260761802773,-22.55419613990148 L10.285482539697083,-22.46080424150536 L10.244872365404508,-22.36776462431333 L10.200790855355601,-22.27510881353512 L10.153252945970905,-22.18286820433286 L10.102274744824895,-22.091074051183277 L10.047873525188152,-21.999757457287533 L9.990067720174546,-21.908949364032328 L9.928876916495433,-21.81868054050583 L9.864321847822954,-21.72898157307199 L9.796424387764718,-21.63988285500676 L9.725207542452228,-21.551414576199768 L9.650695442745564,-21.46360671292485 L9.57291333605697,-21.376489017683024 L9.491887577796113,-21.290091009121255 L9.407645622439905,-21.20444196203045 L9.320216014229926,-21.119570897426104 L9.22962837750061,-21.03550657271492 L9.135913406641428,-20.95227747195075 L9.039102855696514,-20.869911796183178 L8.939229527605242,-20.788437453901945 L8.836327263087393,-20.707882051580565 L8.730430929176684,-20.62827288432223 L8.621576407406558,-20.54963692661125 L8.509800581652206,-20.4720008231731 L8.395141325632965,-20.395390879946234 L8.277637490079327,-20.31983305516865 L8.157328889568902,-20.245352950582326 L8.034256289035778,-20.17197580275839 L7.90846138995789,-20.099726474546063 L7.77998681622703,-20.02862944664823 L7.648876099706326,-19.958708809326467 L7.515173665480058,-19.88998825423839 L7.378924816800827,-19.822491066410066 L7.240175719739161,-19.75624011634619 L7.0989733875407754,-19.691257852280742 L6.955365664696764,-19.627566292570673 L6.809401210732142,-19.565187018235324 L6.6611294837182395,-19.504141165643965 L6.510600723514504,-19.444449419354033 L6.357865934745384,-19.386132005102446 L6.202976869518144,-19.329208682952398 L6.045986009887339,-19.273698740597915 L5.886946550071991,-19.21962098682849 L5.725912378431449,-19.166993745155988 L5.398078814028786,-19.0661616286755 L5.062929606830744,-18.971339041948674 L4.7209189613733304,-18.88265449146779 L4.372510381025156,-18.800228165269214 L4.018176039833406,-18.72417177005086 L3.6583961426190235,-18.654588379783828 L3.293658274188327,-18.59157229602341 L2.92445673854303,-18.53520892010868 L2.55129188898424,-18.485574637423976 L2.174669450018261,-18.44273671387909 L1.7950998319831253,-18.406753204748412 L1.4130974393247844,-18.377672875992655 L1.0291799734603517,-18.355535138169692 L0.6438677311731614,-18.340369993024183 L0.2576828994905471,-18.332197992828267 L-0.12885115200009448,-18.3310302125285 L-0.5152105804379278,-18.336868234736734 L-0.9008717796166608,-18.34970414758533 L-1.2853120895918062,-18.369520555449554 L-1.6680105050055754,-18.39629060252265 L-2.04844838116938,-18.429978009211695 L-2.4261101369470834,-18.47053712130478 L-2.800483953486473,-18.51791297184303 L-3.1710624678519377,-18.57204135561352 L-3.5373434606183483,-18.632848916162146 L-3.8988305364943265,-18.700253245208565 L-4.2550337970524295,-18.774162994328425 L-4.605470504654579,-18.854477998751584 L-4.949665736673017,-18.941089413108465 L-5.28715302912008,-19.033879858940686 L-5.61747500881456,-19.13272358377595 L-5.940184013227974,-19.237486631551665 L-6.098546560005564,-19.292043841555536 L-6.254842697170588,-19.348027024156348 L-6.409019465901289,-19.40541721021358 L-6.561024625495097,-19.464194953842718 L-6.710806671069687,-19.524340339004215 L-6.858314851014699,-19.585832986251788 L-7.003499184188239,-19.648652059637698 L-7.146310476852303,-19.712776273772747 L-7.286700339341413,-19.778183901038528 L-7.424621202458725,-19.8448527789495 " />
			<path d="M18.000000000000004,-3.4815531191139573 L18.000000000000004,0.0 " />
			<path d="M-18.000000000000004,-3.4815531191139573 L-18.000000000000004,0.0 " />
			<path d="M18.000000000000004,-6.9631062382279145 L18.000000000000004,-3.4815531191139573 " />
			<path d="M-18.000000000000004,-6.9631062382279145 L-18.000000000000004,-3.4815531191139573 " />
			<path d="M14.100000000000001,-9.574271077563383 L14.100000000000001,-6.9631062382279145 " />
			<path d="M-14.100000000000001,-9.574271077563383 L-14.100000000000001,-6.9631062382279145 " />
			<path d="M12.500000000000002,-23.500483554019212 L12.500000000000002,-9.57427107756336 " />
			<path d="M-12.500000000000002,-23.500483554019212 L-12.500000000000002,-9.574270546751578 " />

       </g>
    </g>
    
</svg>
