<?xml version="1.0" encoding="UTF-8" standalone="no"?>
<svg
   xmlns:svg="http://www.w3.org/2000/svg"
   xmlns="http://www.w3.org/2000/svg"
   width="800.0"
   height="800.0"

>
    <g transform="scale(14.27156825277783, -14.27156825277783)   translate(20.802775370689513,-11.665362721201467)" stroke-width="0.07006938426723772"  fill="none">
       <!-- hidden lines -->
       <g  stroke="rgb(180,180,180)" fill="none" stroke-dasharray="0.07006938426723772,0.07006938426723772" >

       </g>

       <!-- solid lines -->
       <g  stroke="rgb(40,40,40)" fill="none">
			<path d="M-12.727922061357852,6.266795614405125 L-13.0364474931264,6.111113309451857 L-13.33712025638927,5.951749898350213 L-13.629759237116726,5.788801375660073 L-13.91418816052927,5.6223658954784606 L-14.190235697278917,5.452543712315213 L-14.45773556665161,5.2794371207034105 L-14.716526636728506,5.103150393580964 L-14.966453021445814,4.923789719480507 L-15.207364174494726,4.741463138565393 L-15.439114980004897,4.556280477550334 L-15.551511410188555,4.4626529101047865 L-15.661565839956804,4.368353283545898 L-15.76926169551732,4.273395799050573 L-15.874582758270387,4.177794756866704 L-15.977513167251365,4.081564554159588 L-16.078037421519273,3.984719682843782 L-16.17614038249117,3.887274727400691 L-16.271807276221978,3.7892443626821803 L-16.365023695629397,3.690643351700587 L-16.45577560266355,3.591486543405473 L-16.54404933042104,3.491788870447447 L-16.629831585203156,3.3915653469293487 L-16.713109448517873,3.2908310661451603 L-16.793870379025297,3.1896011983070314 L-16.87210221442635,3.0878909882607126 L-16.947793173294368,2.9857157531897247 L-17.020931856849376,2.8830908803086324 L-17.091507250674653,2.7800318245457993 L-17.159508726375485,2.676554106215951 L-17.224926043179757,2.572673308682853 L-17.287749349480176,2.4684050760125045 L-17.347969184317915,2.3637651106172073 L-17.405576478807337,2.2587691708908633 L-17.460562557501788,2.1534330688357968 L-17.51291913970008,2.047772667681505 L-17.56263834069351,1.9418038794957602 L-17.609712672953293,1.8355426627882871 L-17.654135047258144,1.729005020107447 L-17.695898773761893,1.6222069956303589 L-17.734997563000938,1.515164672746683 L-17.77142552684145,1.4078941716364972 L-17.80517717936606,1.300411646842705 L-17.83624743770004,1.1927332848381957 L-17.86463162277678,1.0848753015882 L-17.89032546004241,0.9768539401082699 L-17.913325080099543,0.8686854680181185 L-17.933627019290004,0.76038617509176 L-17.951228220216425,0.6519723708043449 L-17.966126032202684,0.5434603818760295 L-17.978318211693104,0.43486654981321593 L-17.98780292259029,0.32620722844756533 L-17.994578736531675,0.21749878147318713 L-17.9986446331046,0.10875757998234248 L-18.0,8.088629612051397e-14 " />
			<path d="M18.0,-1.0853539230968291e-15 L17.996950472324823,0.16313125162747633 L17.98780292259029,0.3262072284475581 L17.972560450319307,0.489172674381974 L17.951228220216425,0.6519723708043417 L17.923813460417875,0.8145511552502406 L17.89032546004241,0.9768539401082744 L17.85077556604379,1.1388257312857566 L17.80517717936606,1.3004116468427056 L17.75354575040278,1.4615569355878577 L17.695898773761897,1.6222069956303558 L17.63225578233793,1.7823073928808488 L17.562638340693514,1.941803879495757 L17.48707003775253,2.1006424122584106 L17.40557647880734,2.2587691708908566 L17.31818527684275,2.4161305762901386 L17.22492604317976,2.5726733086828424 L17.125830377442153,2.7283443256917663 L17.020931856849387,2.883090880308618 L16.910266024839423,3.03686053876663 L16.793870379025304,3.1896011983070207 L16.671784358489607,3.3412611048332983 L16.54404933042104,3.491788870447444 L16.410708576097736,3.641133490862 L16.27180727622198,3.789244362682174 L16.12739249561134,3.9360713005521246 L15.977513167251375,4.081564554159578 L15.822220075715405,4.225674825093037 L15.661565839956806,4.368353283545895 L15.495604895479811,4.509551584861738 L15.324393475894775,4.64922188591528 L15.147989593864176,4.78731686132336 L14.966453021445819,4.923789719480506 L14.779845269839885,5.0585942184136155 L14.588229568546712,5.191684681450439 L14.391670843942299,5.323016012696498 L14.19023569727892,5.452543712315212 L13.98399238211819,5.580223891606055 L13.773010781204263,5.7060132878756615 L13.557362382785028,5.829869279096788 L13.337120256389268,5.951749898350214 L13.112359028068061,6.0716138480446675 L12.883154855108742,6.189420513909944 L12.64958540023006,6.305129978758501 L12.411729805267207,6.418703036010855 L12.169668664355688,6.530101202980201 L11.923483996623096,6.639286733911744 L11.673259218398032,6.746222632772343 L11.419079114945626,6.850872665786104 L11.161029811739223,6.953201373711701 L10.899198745277873,7.053174083857278 L10.63367463345975,7.150756921828791 L10.364547445521225,7.245916823007905 L10.091908371552057,7.338621543755486 L9.815849791596843,7.428839672336917 L9.536465244353309,7.516540639565542 L9.253849395477992,7.601694729160616 L8.968098005510072,7.684273087816264 L8.679307897424206,7.7642477349780314 L8.387576923823385,7.841591572323715 L8.093003933782924,7.916278392945257 L7.795688739356753,7.988282890228609 L7.495732081757485,8.05758066642853 L7.193235597221655,8.124148240935424 L6.888301782571626,8.18796305823143 L6.581033960485938,8.249003495533056 L6.271536244489827,8.307248870117764 L5.959913503677778,8.362679446332024 L5.646271327180061,8.41527644227848 L5.330715988385256,8.465022036179933 L5.013354408930981,8.51189937241802 L4.6942941224749815,8.555892567244493 L4.3736432382587695,8.596986714163226 L4.0515104044762875,8.635167888981071 L3.7280047714599482,8.670423154525889 L3.403235954696523,8.702740565030124 L3.0773139976854305,8.732109170178475 L2.7503493346519874,8.758519018818255 L2.4224527531282747,8.781961162331205 L2.0937353564142858,8.802427657665616 L1.764308525932104,8.819911570027713 L1.4342838834857685,8.83440697523143 L1.103773253439778,8.84590896170573 L0.7728886248289554,8.854413632158826 L0.44174211341243896,8.859918104898728 L0.11044592368479549,8.862420514809662 L-0.2208876891429466,8.861920013984044 L-0.5521464571794501,8.858416772009774 L-0.8832181378935179,8.851911975912781 L-1.2139905521459498,8.842407829754812 L-1.5443516221999174,8.829907553886615 L-1.8741894096969847,8.814415383856769 L-2.203392153585881,8.795936568976524 L-2.5318483079912624,8.774477370541145 L-2.859446580009485,8.750045059708356 L-3.1860759674186596,8.722647915034605 L-3.5116257962902937,8.692295219669996 L-3.8359857584896324,8.658997258212809 L-4.159045949052071,8.622765313224708 L-4.480696903422956,8.583611661407803 L-4.800829634548167,8.541549569444847 L-5.119335669802892,8.49659328950401 L-5.436107087746106,8.448758054409721 L-5.7510365546882865,8.39806007248123 L-6.064017361059953,8.344516522040648 L-6.374943457568806,8.288145545592295 L-6.683709491133059,8.228966243675362 L-6.990210840578858,8.166998668391964 L-7.294343652089806,8.10226381661274 L-7.596004874396385,8.034783622862369 L-7.895092293693491,7.9645809518873305 L-8.191504568274185,7.891679590908516 L-8.485141262867957,7.816104241561245 L-8.775902882671847,7.737880511525449 L-9.06369090706292,7.657034905848862 L-9.348407822980617,7.573594817966142 L-9.629957157967745,7.487588520416985 L-9.90824351285887,7.399045155266344 L-10.183172594105024,7.307994724230045 L-10.45465124572375,7.214468078509124 L-10.722587480863792,7.1184969083363026 L-10.986890512973565,7.020113732238187 L-11.24747078656295,6.919351886016809 L-11.504240007547962,6.816245511454243 L-11.757111173167981,6.710829544744121 L-12.005998601465478,6.603139704653988 L-12.25081796031816,6.493212480422476 L-12.491486296013779,6.381085119395424 L-12.72792206135774,6.26679561440518 " />
			<path d="M-12.727922061357852,2.785242495291168 L-13.0364474931264,2.6295601903378993 L-13.33712025638927,2.470196779236256 L-13.629759237116726,2.307248256546116 L-13.91418816052927,2.1408127763645033 L-14.190235697278917,1.9709905932012561 L-14.45773556665161,1.7978840015894533 L-14.716526636728506,1.6215972744670064 L-14.966453021445814,1.44223660036655 L-15.207364174494726,1.259910019451436 L-15.439114980004897,1.0747273584363763 L-15.551511410188555,0.9810997909908292 L-15.661565839956804,0.8868001644319405 L-15.76926169551732,0.7918426799366158 L-15.874582758270387,0.6962416377527467 L-15.977513167251365,0.6000114350456305 L-16.078037421519273,0.5031665637298248 L-16.17614038249117,0.40572160828673365 L-16.271807276221978,0.3076912435682231 L-16.365023695629397,0.20909023258662973 L-16.45577560266355,0.10993342429151554 L-16.54404933042104,0.010235751333489862 L-16.629831585203156,-0.08998777218460852 L-16.713109448517873,-0.19072205296879696 L-16.793870379025297,-0.2919519208069259 L-16.87210221442635,-0.39366213085324464 L-16.947793173294368,-0.49583736592423255 L-17.020931856849376,-0.5984622388053249 L-17.091507250674653,-0.7015212945681579 L-17.159508726375485,-0.8049990128980062 L-17.224926043179757,-0.9088798104311042 L-17.287749349480176,-1.0131480431014528 L-17.347969184317915,-1.11778800849675 L-17.405576478807337,-1.222783948223094 L-17.460562557501788,-1.3281200502781605 L-17.51291913970008,-1.4337804514324524 L-17.56263834069351,-1.539749239618197 L-17.609712672953293,-1.6460104563256701 L-17.654135047258144,-1.7525480990065103 L-17.695898773761893,-1.8593461234835984 L-17.734997563000938,-1.9663884463672743 L-17.77142552684145,-2.07365894747746 L-17.80517717936606,-2.1811414722712525 L-17.83624743770004,-2.2888198342757615 L-17.86463162277678,-2.3966778175257573 L-17.89032546004241,-2.504699179005687 L-17.913325080099543,-2.6128676510958386 L-17.933627019290004,-2.7211669440221975 L-17.951228220216425,-2.8295807483096125 L-17.966126032202684,-2.9380927372379277 L-17.978318211693104,-3.0466865693007414 L-17.98780292259029,-3.155345890666392 L-17.994578736531675,-3.2640543376407702 L-17.9986446331046,-3.372795539131615 L-18.0,-3.4815531191138764 " />
			<path d="M18.0,-3.481553119113958 L17.996950472324823,-3.3184218674864807 L17.98780292259029,-3.155345890666399 L17.972560450319307,-2.9923804447319835 L17.951228220216425,-2.8295807483096156 L17.923813460417875,-2.667001963863717 L17.89032546004241,-2.5046991790056827 L17.85077556604379,-2.3427273878282007 L17.80517717936606,-2.1811414722712517 L17.75354575040278,-2.0199961835260996 L17.695898773761897,-1.8593461234836015 L17.63225578233793,-1.6992457262331084 L17.562638340693514,-1.5397492396182002 L17.48707003775253,-1.3809107068555466 L17.40557647880734,-1.2227839482231007 L17.31818527684275,-1.0654225428238187 L17.22492604317976,-0.9088798104311149 L17.125830377442153,-0.7532087934221909 L17.020931856849387,-0.5984622388053391 L16.910266024839423,-0.4446925803473274 L16.793870379025304,-0.29195192080693655 L16.671784358489607,-0.14029201428065896 L16.54404933042104,0.010235751333486753 L16.410708576097736,0.15958037174804263 L16.27180727622198,0.30769124356821687 L16.12739249561134,0.45451818143816736 L15.977513167251375,0.6000114350456207 L15.822220075715405,0.7441217059790799 L15.661565839956806,0.8868001644319379 L15.495604895479811,1.0279984657477805 L15.324393475894775,1.1676687668013224 L15.147989593864176,1.3057637422094026 L14.966453021445819,1.4422366003665483 L14.779845269839885,1.5770410992996582 L14.588229568546712,1.7101315623364814 L14.391670843942299,1.8414628935825408 L14.19023569727892,1.9709905932012544 L13.98399238211819,2.0986707724920977 L13.773010781204263,2.2244601687617043 L13.557362382785028,2.3483161599828306 L13.337120256389268,2.470196779236257 L13.112359028068061,2.5900607289307103 L12.883154855108742,2.707867394795987 L12.64958540023006,2.8235768596445436 L12.411729805267207,2.9371499168968973 L12.169668664355688,3.0485480838662435 L11.923483996623096,3.157733614797787 L11.673259218398032,3.264669513658386 L11.419079114945626,3.369319546672147 L11.161029811739223,3.4716482545977434 L10.899198745277873,3.5716209647433206 L10.63367463345975,3.669203802714834 L10.364547445521225,3.7643637038939475 L10.091908371552057,3.8570684246415285 L9.815849791596843,3.9472865532229595 L9.536465244353309,4.034987520451585 L9.253849395477992,4.120141610046659 L8.968098005510072,4.202719968702306 L8.679307897424206,4.282694615864074 L8.387576923823385,4.360038453209757 L8.093003933782924,4.434725273831299 L7.795688739356753,4.506729771114651 L7.495732081757485,4.576027547314572 L7.193235597221655,4.642595121821467 L6.888301782571626,4.7064099391174725 L6.581033960485938,4.767450376419099 L6.271536244489827,4.825695751003806 L5.959913503677778,4.881126327218066 L5.646271327180061,4.9337233231645214 L5.330715988385256,4.983468917065975 L5.013354408930981,5.030346253304062 L4.6942941224749815,5.0743394481305355 L4.3736432382587695,5.115433595049268 L4.0515104044762875,5.153614769867113 L3.7280047714599482,5.188870035411931 L3.403235954696523,5.221187445916167 L3.0773139976854305,5.2505560510645175 L2.7503493346519874,5.276965899704297 L2.4224527531282747,5.300408043217248 L2.0937353564142858,5.320874538551658 L1.764308525932104,5.338358450913756 L1.4342838834857685,5.352853856117472 L1.103773253439778,5.364355842591772 L0.7728886248289554,5.372860513044868 L0.44174211341243896,5.378364985784771 L0.11044592368479549,5.380867395695704 L-0.2208876891429466,5.380366894870086 L-0.5521464571794501,5.376863652895816 L-0.8832181378935179,5.370358856798823 L-1.2139905521459498,5.360854710640854 L-1.5443516221999174,5.3483544347726575 L-1.8741894096969847,5.332862264742811 L-2.203392153585881,5.314383449862566 L-2.5318483079912624,5.292924251427188 L-2.859446580009485,5.268491940594398 L-3.1860759674186596,5.241094795920647 L-3.5116257962902937,5.210742100556038 L-3.8359857584896324,5.177444139098851 L-4.159045949052071,5.14121219411075 L-4.480696903422956,5.102058542293845 L-4.800829634548167,5.059996450330889 L-5.119335669802892,5.015040170390053 L-5.436107087746106,4.967204935295763 L-5.7510365546882865,4.916506953367273 L-6.064017361059953,4.86296340292669 L-6.374943457568806,4.806592426478337 L-6.683709491133059,4.747413124561405 L-6.990210840578858,4.685445549278006 L-7.294343652089806,4.620710697498783 L-7.596004874396385,4.553230503748411 L-7.895092293693491,4.483027832773374 L-8.191504568274185,4.410126471794559 L-8.485141262867957,4.334551122447287 L-8.775902882671847,4.256327392411492 L-9.06369090706292,4.175481786734904 L-9.348407822980617,4.092041698852185 L-9.629957157967745,4.006035401303027 L-9.90824351285887,3.9174920361523866 L-10.183172594105024,3.8264416051160874 L-10.45465124572375,3.7329149593951665 L-10.722587480863792,3.6369437892223453 L-10.986890512973565,3.5385606131242295 L-11.24747078656295,3.437798766902852 L-11.504240007547962,3.3346923923402856 L-11.757111173167981,3.229276425630164 L-12.005998601465478,3.121586585540031 L-12.25081796031816,3.0116593613085185 L-12.491486296013779,2.8995320002814666 L-12.72792206135774,2.785242495291223 " />
			<path d="M17.270397820058648,-9.460783177665286 L24.041630560342618,-12.794707712743794 " />
			<path d="M19.79898987322333,-14.883639584212169 L24.041630560342618,-12.794707712743795 " />
			<path d="M14.448005343400304,-12.248996928279126 L19.79898987322333,-14.883639584212169 " />
			<path d="M17.993264575083202,-7.205533324951276 L24.041630560342618,-10.183542873408324 " />
			<path d="M24.041630560342615,-10.183542873408324 L24.041630560342615,-12.794707712743792 " />
			<path d="M-12.727922061357852,2.785242495291168 L-13.0364474931264,2.6295601903378993 L-13.33712025638927,2.470196779236256 L-13.629759237116726,2.307248256546116 L-13.91418816052927,2.1408127763645033 L-14.190235697278917,1.9709905932012561 L-14.45773556665161,1.7978840015894533 L-14.716526636728506,1.6215972744670064 L-14.966453021445814,1.44223660036655 L-15.207364174494726,1.259910019451436 L-15.439114980004897,1.0747273584363763 L-15.551511410188555,0.9810997909908292 L-15.661565839956804,0.8868001644319405 L-15.76926169551732,0.7918426799366158 L-15.874582758270387,0.6962416377527467 L-15.977513167251365,0.6000114350456305 L-16.078037421519273,0.5031665637298248 L-16.17614038249117,0.40572160828673365 L-16.271807276221978,0.3076912435682231 L-16.365023695629397,0.20909023258662973 L-16.45577560266355,0.10993342429151554 L-16.54404933042104,0.010235751333489862 L-16.629831585203156,-0.08998777218460852 L-16.713109448517873,-0.19072205296879696 L-16.793870379025297,-0.2919519208069259 L-16.87210221442635,-0.39366213085324464 L-16.947793173294368,-0.49583736592423255 L-17.020931856849376,-0.5984622388053249 L-17.091507250674653,-0.7015212945681579 L-17.159508726375485,-0.8049990128980062 L-17.224926043179757,-0.9088798104311042 L-17.287749349480176,-1.0131480431014528 L-17.347969184317915,-1.11778800849675 L-17.405576478807337,-1.222783948223094 L-17.460562557501788,-1.3281200502781605 L-17.51291913970008,-1.4337804514324524 L-17.56263834069351,-1.539749239618197 L-17.609712672953293,-1.6460104563256701 L-17.654135047258144,-1.7525480990065103 L-17.695898773761893,-1.8593461234835984 L-17.734997563000938,-1.9663884463672743 L-17.77142552684145,-2.07365894747746 L-17.80517717936606,-2.1811414722712525 L-17.83624743770004,-2.2888198342757615 L-17.86463162277678,-2.3966778175257573 L-17.89032546004241,-2.504699179005687 L-17.913325080099543,-2.6128676510958386 L-17.933627019290004,-2.7211669440221975 L-17.951228220216425,-2.8295807483096125 L-17.966126032202684,-2.9380927372379277 L-17.978318211693104,-3.0466865693007414 L-17.98780292259029,-3.155345890666392 L-17.994578736531675,-3.2640543376407702 L-17.9986446331046,-3.372795539131615 L-18.0,-3.4815531191138764 " />
			<path d="M18.0,-3.481553119113958 L17.996950472324823,-3.3184218674864807 L17.98780292259029,-3.155345890666399 L17.972560450319307,-2.9923804447319835 L17.951228220216425,-2.8295807483096156 L17.923813460417875,-2.667001963863717 L17.89032546004241,-2.5046991790056827 L17.85077556604379,-2.3427273878282007 L17.80517717936606,-2.1811414722712517 L17.75354575040278,-2.0199961835260996 L17.695898773761897,-1.8593461234836015 L17.63225578233793,-1.6992457262331084 L17.562638340693514,-1.5397492396182002 L17.48707003775253,-1.3809107068555466 L17.40557647880734,-1.2227839482231007 L17.31818527684275,-1.0654225428238187 L17.22492604317976,-0.9088798104311149 L17.125830377442153,-0.7532087934221909 L17.020931856849387,-0.5984622388053391 L16.910266024839423,-0.4446925803473274 L16.793870379025304,-0.29195192080693655 L16.671784358489607,-0.14029201428065896 L16.54404933042104,0.010235751333486753 L16.410708576097736,0.15958037174804263 L16.27180727622198,0.30769124356821687 L16.12739249561134,0.45451818143816736 L15.977513167251375,0.6000114350456207 L15.822220075715405,0.7441217059790799 L15.661565839956806,0.8868001644319379 L15.495604895479811,1.0279984657477805 L15.324393475894775,1.1676687668013224 L15.147989593864176,1.3057637422094026 L14.966453021445819,1.4422366003665483 L14.779845269839885,1.5770410992996582 L14.588229568546712,1.7101315623364814 L14.391670843942299,1.8414628935825408 L14.19023569727892,1.9709905932012544 L13.98399238211819,2.0986707724920977 L13.773010781204263,2.2244601687617043 L13.557362382785028,2.3483161599828306 L13.337120256389268,2.470196779236257 L13.112359028068061,2.5900607289307103 L12.883154855108742,2.707867394795987 L12.64958540023006,2.8235768596445436 L12.411729805267207,2.9371499168968973 L12.169668664355688,3.0485480838662435 L11.923483996623096,3.157733614797787 L11.673259218398032,3.264669513658386 L11.419079114945626,3.369319546672147 L11.161029811739223,3.4716482545977434 L10.899198745277873,3.5716209647433206 L10.63367463345975,3.669203802714834 L10.364547445521225,3.7643637038939475 L10.091908371552057,3.8570684246415285 L9.815849791596843,3.9472865532229595 L9.536465244353309,4.034987520451585 L9.253849395477992,4.120141610046659 L8.968098005510072,4.202719968702306 L8.679307897424206,4.282694615864074 L8.387576923823385,4.360038453209757 L8.093003933782924,4.434725273831299 L7.795688739356753,4.506729771114651 L7.495732081757485,4.576027547314572 L7.193235597221655,4.642595121821467 L6.888301782571626,4.7064099391174725 L6.581033960485938,4.767450376419099 L6.271536244489827,4.825695751003806 L5.959913503677778,4.881126327218066 L5.646271327180061,4.9337233231645214 L5.330715988385256,4.983468917065975 L5.013354408930981,5.030346253304062 L4.6942941224749815,5.0743394481305355 L4.3736432382587695,5.115433595049268 L4.0515104044762875,5.153614769867113 L3.7280047714599482,5.188870035411931 L3.403235954696523,5.221187445916167 L3.0773139976854305,5.2505560510645175 L2.7503493346519874,5.276965899704297 L2.4224527531282747,5.300408043217248 L2.0937353564142858,5.320874538551658 L1.764308525932104,5.338358450913756 L1.4342838834857685,5.352853856117472 L1.103773253439778,5.364355842591772 L0.7728886248289554,5.372860513044868 L0.44174211341243896,5.378364985784771 L0.11044592368479549,5.380867395695704 L-0.2208876891429466,5.380366894870086 L-0.5521464571794501,5.376863652895816 L-0.8832181378935179,5.370358856798823 L-1.2139905521459498,5.360854710640854 L-1.5443516221999174,5.3483544347726575 L-1.8741894096969847,5.332862264742811 L-2.203392153585881,5.314383449862566 L-2.5318483079912624,5.292924251427188 L-2.859446580009485,5.268491940594398 L-3.1860759674186596,5.241094795920647 L-3.5116257962902937,5.210742100556038 L-3.8359857584896324,5.177444139098851 L-4.159045949052071,5.14121219411075 L-4.480696903422956,5.102058542293845 L-4.800829634548167,5.059996450330889 L-5.119335669802892,5.015040170390053 L-5.436107087746106,4.967204935295763 L-5.7510365546882865,4.916506953367273 L-6.064017361059953,4.86296340292669 L-6.374943457568806,4.806592426478337 L-6.683709491133059,4.747413124561405 L-6.990210840578858,4.685445549278006 L-7.294343652089806,4.620710697498783 L-7.596004874396385,4.553230503748411 L-7.895092293693491,4.483027832773374 L-8.191504568274185,4.410126471794559 L-8.485141262867957,4.334551122447287 L-8.775902882671847,4.256327392411492 L-9.06369090706292,4.175481786734904 L-9.348407822980617,4.092041698852185 L-9.629957157967745,4.006035401303027 L-9.90824351285887,3.9174920361523866 L-10.183172594105024,3.8264416051160874 L-10.45465124572375,3.7329149593951665 L-10.722587480863792,3.6369437892223453 L-10.986890512973565,3.5385606131242295 L-11.24747078656295,3.437798766902852 L-11.504240007547962,3.3346923923402856 L-11.757111173167981,3.229276425630164 L-12.005998601465478,3.121586585540031 L-12.25081796031816,3.0116593613085185 L-12.491486296013779,2.8995320002814666 L-12.72792206135774,2.785242495291223 " />
			<path d="M-12.727922061357852,-0.6963106238227894 L-13.0364474931264,-0.8519929287760579 L-13.33712025638927,-1.0113563398777012 L-13.629759237116726,-1.1743048625678414 L-13.91418816052927,-1.340740342749454 L-14.190235697278917,-1.5105625259127011 L-14.45773556665161,-1.683669117524504 L-14.716526636728506,-1.8599558446469509 L-14.966453021445814,-2.039316518747407 L-15.207364174494726,-2.221643099662521 L-15.439114980004897,-2.406825760677581 L-15.551511410188555,-2.500453328123128 L-15.661565839956804,-2.5947529546820167 L-15.76926169551732,-2.6897104391773414 L-15.874582758270387,-2.7853114813612105 L-15.977513167251365,-2.881541684068327 L-16.078037421519273,-2.9783865553841324 L-16.17614038249117,-3.0758315108272236 L-16.271807276221978,-3.173861875545734 L-16.365023695629397,-3.2724628865273275 L-16.45577560266355,-3.3716196948224417 L-16.54404933042104,-3.4713173677804674 L-16.629831585203156,-3.571540891298566 L-16.713109448517873,-3.6722751720827542 L-16.793870379025297,-3.773505039920883 L-16.87210221442635,-3.875215249967202 L-16.947793173294368,-3.97739048503819 L-17.020931856849376,-4.080015357919282 L-17.091507250674653,-4.183074413682116 L-17.159508726375485,-4.2865521320119635 L-17.224926043179757,-4.390432929545062 L-17.287749349480176,-4.49470116221541 L-17.347969184317915,-4.599341127610707 L-17.405576478807337,-4.704337067337051 L-17.460562557501788,-4.809673169392118 L-17.51291913970008,-4.91533357054641 L-17.56263834069351,-5.021302358732155 L-17.609712672953293,-5.127563575439627 L-17.654135047258144,-5.234101218120467 L-17.695898773761893,-5.340899242597556 L-17.734997563000938,-5.447941565481232 L-17.77142552684145,-5.555212066591418 L-17.80517717936606,-5.662694591385209 L-17.83624743770004,-5.770372953389719 L-17.86463162277678,-5.8782309366397145 L-17.89032546004241,-5.986252298119645 L-17.913325080099543,-6.094420770209796 L-17.933627019290004,-6.202720063136154 L-17.951228220216425,-6.311133867423569 L-17.966126032202684,-6.419645856351885 L-17.978318211693104,-6.528239688414699 L-17.98780292259029,-6.6368990097803495 L-17.994578736531675,-6.745607456754727 L-17.9986446331046,-6.854348658245572 L-18.0,-6.963106238227834 " />
			<path d="M-18.0,-6.963106238227915 L-17.998582676795664,-7.074321701019201 L-17.99433093038322,-7.18551964955981 L-17.98724543032921,-7.296682572357214 L-17.9773272924607,-7.407792963434754 L-17.964578078689573,-7.518833325088484 L-17.94899979676656,-7.629786170642715 L-17.930594899965037,-7.740634027203827 L-17.90936628669471,-7.851359438411902 L-17.88531730004515,-7.96194496718976 L-17.85845172725934,-8.072373198488958 L-17.828773799137245,-8.182626742032314 L-17.796288189369555,-8.292688235052536 L-17.761000013801663,-8.402540345026516 L-17.722914829628024,-8.512165772404867 L-17.682038634516992,-8.621547253336253 L-17.63837786566633,-8.730667562386111 L-17.59193939878947,-8.839509515249325 L-17.542730547032697,-8.948055971456403 L-17.490759059823514,-9.056289837072777 L-17.43603312165023,-9.164194067390753 L-17.37856135077307,-9.271751669613723 L-17.31835279786697,-9.378945705532194 L-17.25541694459629,-9.485759294191226 L-17.189763702121603,-9.592175614548847 L-17.121403409538903,-9.698177908125036 L-17.050346832251417,-9.803749481640866 L-16.97660516027423,-9.908873709647345 L-16.900190006472098,-10.013534037143623 L-16.82111340473065,-10.117713982184062 L-16.73938780806128,-10.221397138473826 L-16.655026086640053,-10.324567177952545 L-16.568041525780888,-10.42720785336567 L-16.47844782384341,-10.529303000823095 L-16.386259090075686,-10.63083654234465 L-16.29148984239234,-10.73179248839206 L-16.194155005088238,-10.832154940387003 L-16.09426990648821,-10.931908093214805 L-15.991850276533151,-11.031036237713442 L-15.886912244302849,-11.129523763147425 L-15.77947233547598,-11.227355159666185 L-15.669547469727643,-11.324515020746563 L-15.557154958064826,-11.420988045619048 L-15.44231250010029,-11.516759041677334 L-15.325038181265198,-11.611812926870861 L-15.205350469961035,-11.70613473207995 L-15.083268214651193,-11.79970960347313 L-14.958810640892704,-11.89252280484634 L-14.83199734830859,-11.984559719943583 L-14.57138385690783,-12.166246839817898 L-14.301591900007331,-12.344656518992624 L-14.022791418649957,-12.519676377813145 L-13.735158028317706,-12.69119617186124 L-13.438872908312124,-12.859107861397678 L-13.13412268763007,-13.023305679416072 L-12.821099327406738,-13.18368619826517 L-12.50000000000001,-13.340148394797573 " />
			<path d="M12.500000000000007,-13.340148394797577 L12.821099327406749,-13.183686198265164 L13.134122687630082,-13.023305679416065 L13.438872908312133,-12.859107861397673 L13.735158028317715,-12.691196171861236 L14.022791418649966,-12.519676377813141 L14.301591900007335,-12.344656518992622 L14.571383856907833,-12.166246839817894 L14.831997348308597,-11.98455971994358 L14.958810640892708,-11.892522804846337 L15.0832682146512,-11.799709603473124 L15.205350469961045,-11.706134732079942 L15.325038181265205,-11.611812926870856 L15.442312500100295,-11.516759041677329 L15.55715495806483,-11.420988045619048 L15.669547469727643,-11.324515020746563 L15.779472335475983,-11.227355159666182 L15.886912244302856,-11.12952376314742 L15.991850276533157,-11.031036237713437 L16.094269906488215,-10.931908093214803 L16.19415500508824,-10.832154940387001 L16.29148984239234,-10.73179248839206 L16.386259090075686,-10.630836542344646 L16.478447823843414,-10.529303000823091 L16.56804152578089,-10.427207853365669 L16.655026086640053,-10.324567177952543 L16.73938780806128,-10.221397138473822 L16.821113404730653,-10.117713982184057 L16.9001900064721,-10.013534037143618 L16.976605160274232,-9.908873709647342 L17.05034683225142,-9.803749481640864 L17.121403409538903,-9.698177908125036 L17.189763702121603,-9.592175614548845 L17.25541694459629,-9.485759294191222 L17.31835279786697,-9.378945705532193 L17.37856135077307,-9.271751669613721 L17.43603312165023,-9.164194067390753 L17.490759059823514,-9.056289837072779 L17.5427305470327,-8.948055971456402 L17.59193939878947,-8.839509515249322 L17.63837786566633,-8.73066756238611 L17.682038634516992,-8.621547253336253 L17.722914829628024,-8.512165772404865 L17.761000013801667,-8.402540345026512 L17.79628818936956,-8.292688235052532 L17.828773799137245,-8.182626742032312 L17.85845172725934,-8.072373198488958 L17.88531730004515,-7.961944967189762 L17.90936628669471,-7.851359438411901 L17.930594899965037,-7.740634027203823 L17.94899979676656,-7.6297861706427135 L17.964578078689573,-7.518833325088484 L17.9773272924607,-7.407792963434756 L17.98724543032921,-7.296682572357217 L17.99433093038322,-7.185519649559811 L17.998582676795664,-7.074321701019199 L18.0,-6.963106238227955 " />
			<path d="M18.0,-6.963106238227915 L17.996950472324823,-6.799974986600438 L17.98780292259029,-6.636899009780357 L17.972560450319307,-6.47393356384594 L17.951228220216425,-6.311133867423573 L17.923813460417875,-6.148555082977674 L17.89032546004241,-5.98625229811964 L17.85077556604379,-5.8242805069421575 L17.80517717936606,-5.662694591385209 L17.75354575040278,-5.501549302640057 L17.695898773761897,-5.340899242597558 L17.63225578233793,-5.1807988453470655 L17.562638340693514,-5.021302358732157 L17.48707003775253,-4.862463825969504 L17.40557647880734,-4.7043370673370575 L17.31818527684275,-4.5469756619377755 L17.22492604317976,-4.390432929545073 L17.125830377442153,-4.234761912536149 L17.020931856849387,-4.080015357919296 L16.910266024839423,-3.9262456994612847 L16.793870379025304,-3.773505039920894 L16.671784358489607,-3.6218451333946162 L16.54404933042104,-3.4713173677804705 L16.410708576097736,-3.3219727473659146 L16.27180727622198,-3.1738618755457404 L16.12739249561134,-3.02703493767579 L15.977513167251375,-2.8815416840683366 L15.822220075715405,-2.7374314131348774 L15.661565839956806,-2.5947529546820194 L15.495604895479811,-2.4535546533661767 L15.324393475894775,-2.313884352312635 L15.147989593864176,-2.1757893769045547 L14.966453021445819,-2.039316518747409 L14.779845269839885,-1.904512019814299 L14.588229568546712,-1.7714215567774758 L14.391670843942299,-1.6400902255314165 L14.19023569727892,-1.510562525912703 L13.98399238211819,-1.3828823466218596 L13.773010781204263,-1.257092950352253 L13.557362382785028,-1.1332369591311267 L13.337120256389268,-1.0113563398777003 L13.112359028068061,-0.891492390183247 L12.883154855108742,-0.7736857243179704 L12.64958540023006,-0.6579762594694136 L12.411729805267207,-0.54440320221706 L12.169668664355688,-0.4330050352477137 L11.923483996623096,-0.32381950431617046 L11.673259218398032,-0.21688360545557117 L11.419079114945626,-0.1122335724418102 L11.161029811739223,-0.009904864516213863 L10.899198745277873,0.09006784562936332 L10.63367463345975,0.1876506836008769 L10.364547445521225,0.2828105847799902 L10.091908371552057,0.3755153055275713 L9.815849791596843,0.46573343410900225 L9.536465244353309,0.5534344013376273 L9.253849395477992,0.6385884909327011 L8.968098005510072,0.7211668495883492 L8.679307897424206,0.8011414967501169 L8.387576923823385,0.8784853340958003 L8.093003933782924,0.9531721547173424 L7.795688739356753,1.0251766520006944 L7.495732081757485,1.0944744282006154 L7.193235597221655,1.16104200270751 L6.888301782571626,1.2248568200035157 L6.581033960485938,1.285897257305142 L6.271536244489827,1.3441426318898495 L5.959913503677778,1.3995732081041092 L5.646271327180061,1.4521702040505646 L5.330715988385256,1.5019157979520186 L5.013354408930981,1.5487931341901051 L4.6942941224749815,1.5927863290165787 L4.3736432382587695,1.6338804759353112 L4.0515104044762875,1.6720616507531565 L3.7280047714599482,1.707316916297974 L3.403235954696523,1.7396343268022099 L3.0773139976854305,1.7690029319505607 L2.7503493346519874,1.7954127805903406 L2.4224527531282747,1.8188549241032907 L2.0937353564142858,1.8393214194377014 L1.764308525932104,1.8568053317997988 L1.4342838834857685,1.8713007370035148 L1.103773253439778,1.8828027234778153 L0.7728886248289554,1.8913073939309113 L0.44174211341243896,1.8968118666708138 L0.11044592368479549,1.8993142765817472 L-0.2208876891429466,1.8988137757561292 L-0.5521464571794501,1.895310533781859 L-0.8832181378935179,1.8888057376848666 L-1.2139905521459498,1.8793015915268976 L-1.5443516221999174,1.8668013156587007 L-1.8741894096969847,1.8513091456288544 L-2.203392153585881,1.8328303307486093 L-2.5318483079912624,1.8113711323132309 L-2.859446580009485,1.7869388214804411 L-3.1860759674186596,1.7595416768066903 L-3.5116257962902937,1.729188981442081 L-3.8359857584896324,1.6958910199848942 L-4.159045949052071,1.6596590749967932 L-4.480696903422956,1.620505423179888 L-4.800829634548167,1.5784433312169321 L-5.119335669802892,1.5334870512760963 L-5.436107087746106,1.4856518161818064 L-5.7510365546882865,1.4349538342533164 L-6.064017361059953,1.3814102838127331 L-6.374943457568806,1.3250393073643805 L-6.683709491133059,1.2658600054474478 L-6.990210840578858,1.203892430164049 L-7.294343652089806,1.1391575783848262 L-7.596004874396385,1.0716773846344543 L-7.895092293693491,1.001474713659416 L-8.191504568274185,0.9285733526806013 L-8.485141262867957,0.8529980033333304 L-8.775902882671847,0.7747742732975347 L-9.06369090706292,0.6939286676209475 L-9.348407822980617,0.6104885797382273 L-9.629957157967745,0.5244822821890702 L-9.90824351285887,0.43593891703842935 L-10.183172594105024,0.3448884860021302 L-10.45465124572375,0.2513618402812092 L-10.722587480863792,0.15539067010838803 L-10.986890512973565,0.057007494010272275 L-11.24747078656295,-0.04375435221110546 L-11.504240007547962,-0.14686072677367168 L-11.757111173167981,-0.2522766934837932 L-12.005998601465478,-0.3599665335739264 L-12.25081796031816,-0.46989375780543874 L-12.491486296013779,-0.5820211188324906 L-12.72792206135774,-0.6963106238227343 " />
			<path d="M-9.970205614730318,-2.0541163402772344 L-10.21188386961568,-2.176067479157294 L-10.447410867504928,-2.300902151186915 L-10.676644735741435,-2.4285451606275243 L-10.899447392414594,-2.5589196201031204 L-11.115684629535151,-2.6919469969143313 L-11.325226193877095,-2.8275471603435767 L-11.52794586543733,-2.965638429922827 L-11.723721533465888,-3.106137624634851 L-11.912435270020868,-3.248960113018357 L-12.093973401003835,-3.3940198641468204 L-12.26822657463283,-3.5412294994502953 L-12.435089827311803,-3.690500345348997 L-12.594462646856762,-3.8417424866669525 L-12.746249033040547,-3.99486482079354 L-12.89035755541978,-4.149775112560295 L-13.02670140840914,-4.306380049799925 L-13.155198463569814,-4.464585299554074 L-13.275771319080588,-4.624295564895964 L-13.388347346361812,-4.785414642333706 L-13.492858733824141,-4.94784547975968 L-13.589242527715697,-5.111490234911102 L-13.677440670043067,-5.276250334306541 L-13.75740003354325,-5.4420265326229025 L-13.829072453685548,-5.608718972477082 L-13.86178737278015,-5.692377424984134 L-13.892414757684069,-5.776227244576346 L-13.920949996025803,-5.860255803779325 L-13.947388790503412,-5.944450448201129 L-13.971727159531698,-6.028798498437995 L-13.99396143784181,-6.113287251983825 L-14.01408827703322,-6.197903985143103 L-14.032104646077975,-6.282635954947056 L-14.04800783177717,-6.367470401072703 L-14.061795439169531,-6.452394547764511 L-14.073465391892103,-6.537395605758358 L-14.08301593249293,-6.622460774207562 L-14.090445622695727,-6.707577242610655 L-14.09575334361648,-6.792732192740584 L-14.098938295931937,-6.877912800575079 L-14.1,-6.9631062382278515 " />
			<path d="M14.1,-6.963106238227915 L14.09761120332111,-6.8353200911197245 L14.090445622695729,-6.707577242610661 L14.078505686083457,-6.579920976628702 L14.061795439169531,-6.452394547764514 L14.040320543994003,-6.325041166615226 L14.01408827703322,-6.1979039851431 L13.983107526734303,-6.071026082054072 L13.947388790503412,-5.9444504482011284 L13.906944171148842,-5.818219972017426 L13.861787372780151,-5.692377424984136 L13.811933696164711,-5.566965447137917 L13.757400033543252,-5.442026532622905 L13.69820486290615,-5.31760301529216 L13.634368241732416,-5.19373705436341 L13.565911800193488,-5.070470620133973 L13.492858733824146,-4.947845479759689 L13.415233795663019,-4.825903183102698 L13.333063287865352,-4.704685048652831 L13.246375052790881,-4.584232149527388 L13.155198463569821,-4.4645852995540825 L13.059564414150191,-4.3457850394418305 L12.959505308829815,-4.227871623044083 L12.855055051276562,-4.110885003719348 L12.746249033040552,-3.9948648207935453 L12.633124121562215,-3.8798503861287506 L12.515718647680243,-3.7658806708029124 L12.394072392643734,-3.6529942919050358 L12.26822657463283,-3.5412294994502975 L12.13822383479252,-3.430624163419554 L12.004108222784241,-3.321215760927613 L11.865925181860272,-3.2130413635246167 L11.723721533465891,-3.106137624634852 L11.577545461374577,-3.0005407671372493 L11.427446495361592,-2.8962865710917383 L11.273475494421467,-2.793410361615659 L11.115684629535155,-2.691946996914333 L10.954127365992582,-2.5919308564698387 L10.788858445276672,-2.4933958293919805 L10.619933866514938,-2.3963753029354313 L10.447410867504926,-2.3009021511869143 L10.271347905319981,-2.2070087239262595 L10.091804636501848,-2.1147268356651256 L9.908841896846882,-2.0240877548670895 L9.722521680792646,-1.935122193352746 L9.532907120411956,-1.8478602958934243 L9.340062464021425,-1.7623316299970488 L9.144053054411792,-1.67856517588958 L8.944945306707407,-1.596589316695467 L8.74280668586239,-1.5164318288204166 L8.537705683801,-1.4381198725397146 L8.329711796210136,-1.361679982795362 L8.118895498991627,-1.2871380602050566 L7.905328224382444,-1.2145193622861177 L7.68908233675086,-1.1438484948973304 L7.470231108076758,-1.075149403901574 L7.248848693124427,-1.0084453670520999 L7.025010104316223,-0.9437589861051752 L6.798791186315627,-0.8811121791617911 L6.570268590328318,-0.8205261732410056 L6.339519748129957,-0.7620214970874644 L6.106622845829457,-0.7056179742155049 L5.871656797376696,-0.6513347161922338 L5.63470121782363,-0.5991901161618332 L5.395836396347773,-0.5492018426132956 L5.155143269047318,-0.5013868333936875 L4.912703391517031,-0.45576128996900067 L4.668598911214259,-0.41234067193449686 L4.422912539624381,-0.3711396917764409 L4.175727524235117,-0.33217230988696844 L3.9271276203292684,-0.2954517298337995 L3.677197062605402,-0.2609903938863951 L3.4260205366360363,-0.22879997880005476 L3.173683150173092,-0.19889139185940952 L2.9202704043102927,-0.171274767182636 L2.6658681645122764,-0.1459594622876521 L2.410562631520254,-0.1229540549214434 L2.1544403121440565,-0.10226634015361569 L1.8975879899504817,-0.08390332773513709 L1.6400926958578572,-0.06787123972318376 L1.3820416786468148,-0.054175508372874326 L1.1235223753971852,-0.042820774296630226 L0.8646223818611594,-0.03381088489176065 L0.6054294227826817,-0.027148893036835986 L0.3460313221730772,-0.022837056057245064 L0.08651597355308979,-0.020876834960346535 L-0.1730286898286415,-0.021268893940414202 L-0.43251472479056924,-0.02401310015359215 L-0.691854208016589,-0.029108523762903182 L-0.9509592658476606,-0.036553438253312365 L-1.2097421040566019,-0.04634532101673372 L-1.4681150375959713,-0.058480854206780286 L-1.7259905203089398,-0.0729559258629715 L-1.9832811745931553,-0.08976563130401782 L-2.23989982100743,-0.10890427478970377 L-2.4957595078112833,-0.13036537145080818 L-2.7507735404273963,-0.1541416494864185 L-3.0048555108168786,-0.18022505262788258 L-3.257919326757455,-0.20860674286856096 L-3.509879241014649,-0.23927710345847064 L-3.7606498803960644,-0.27222574216278517 L-4.010146274678932,-0.3074414947831068 L-4.2582838854011165,-0.34491242894030005 L-4.504978634505824,-0.3846258481176186 L-4.7501469328302965,-0.42656829596274104 L-4.993705708428898,-0.470725560847284 L-5.235572434720896,-0.5170826806822149 L-5.475665158453439,-0.5656239479875449 L-5.713902527470347,-0.6163329152146018 L-5.950203818277168,-0.6691924003190604 L-6.1844889633932345,-0.7241844925828405 L-6.416678578481445,-0.7812905586829109 L-6.6466939892465655,-0.8404912490049403 L-6.8744572580929475,-0.9017665041996468 L-7.099891210532621,-0.9650955619796404 L-7.322919461334817,-1.0304569641544372 L-7.543466440408067,-1.0978285639012775 L-7.761457418406115,-1.1671875332692796 L-7.976818532048935,-1.2385103709143808 L-8.189476809150271,-1.3117729100624356 L-8.399360193343304,-1.3869503266978116 L-8.606397568495959,-1.464017147974669 L-8.810518782807645,-1.5429472608480816 L-9.011654672579237,-1.6237139209220919 L-9.209737085648252,-1.7062897615116865 L-9.404698904481291,-1.7906468029156244 L-9.596474068915892,-1.876756461896976 L-9.784997598544125,-1.9645895613681663 L-9.97020561473023,-2.054116340277191 " />
			<path d="M-9.970205614730318,-4.665281179612703 L-10.21188386961568,-4.787232318492762 L-10.447410867504928,-4.9120669905223835 L-10.676644735741435,-5.039709999962993 L-10.899447392414594,-5.170084459438589 L-11.115684629535151,-5.3031118362497995 L-11.325226193877095,-5.438711999679045 L-11.52794586543733,-5.576803269258296 L-11.723721533465888,-5.717302463970319 L-11.912435270020868,-5.860124952353825 L-12.093973401003835,-6.005184703482289 L-12.26822657463283,-6.152394338785763 L-12.435089827311803,-6.301665184684465 L-12.594462646856762,-6.452907326002421 L-12.746249033040547,-6.606029660129009 L-12.89035755541978,-6.760939951895763 L-13.02670140840914,-6.917544889135393 L-13.155198463569814,-7.075750138889542 L-13.275771319080588,-7.235460404231432 L-13.388347346361812,-7.396579481669173 L-13.492858733824141,-7.559010319095148 L-13.589242527715697,-7.72265507424657 L-13.677440670043067,-7.887415173642009 L-13.75740003354325,-8.05319137195837 L-13.829072453685548,-8.219883811812549 L-13.86178737278015,-8.303542264319601 L-13.892414757684069,-8.387392083911815 L-13.920949996025803,-8.471420643114794 L-13.947388790503412,-8.555615287536597 L-13.971727159531698,-8.639963337773462 L-13.99396143784181,-8.724452091319293 L-14.01408827703322,-8.809068824478572 L-14.032104646077975,-8.893800794282523 L-14.04800783177717,-8.97863524040817 L-14.061795439169531,-9.06355938709998 L-14.073465391892103,-9.148560445093826 L-14.08301593249293,-9.23362561354303 L-14.090445622695727,-9.318742081946123 L-14.09575334361648,-9.403897032076053 L-14.098938295931937,-9.489077639910548 L-14.1,-9.574271077563319 " />
			<path d="M-14.1,-9.574271077563383 L-14.09840705096728,-9.678623191550587 L-14.0936285637963,-9.782951727154948 L-14.085665618187273,-9.887233111321168 L-14.074520013369492,-9.991443781647817 L-14.06019426769479,-10.095560191711282 L-14.042691618068517,-10.199558816386075 L-14.022016019218158,-10.303416157160338 L-13.99817214279977,-10.407108747445346 L-13.971165376342416,-10.510613157877778 L-13.941001822030843,-10.613906001613595 L-13.907688295326713,-10.716963939612299 L-13.87123232342862,-10.819763685910395 L-13.831642143571344,-10.922282012882855 L-13.78892670116463,-11.024495756491412 L-13.743095647771977,-11.126381821518475 L-13.694159338929863,-11.227917186785504 L-13.64212883180791,-11.329078910354637 L-13.587015882710512,-11.429844134712445 L-13.528832944420504,-11.530190091934575 L-13.467593163385438,-11.630094108830177 L-13.403310376747152,-11.729533612064913 L-13.335999109215267,-11.82848613326141 L-13.265674569785313,-11.92692931407599 L-13.192352648302263,-12.024840911250543 L-13.116049911870219,-12.122198801638405 L-13.036783601109063,-12.218980987203073 L-12.954571626258947,-12.315165599988681 L-12.869432563133461,-12.410730907061055 L-12.781385648922429,-12.505655315418288 L-12.690450777845259,-12.599917376869675 L-12.596648496655838,-12.693495792881937 L-12.500000000000002,-12.786369419391626 " />
			<path d="M12.499999999999998,-12.78636941939163 L12.596648496655837,-12.693495792881937 L12.690450777845259,-12.599917376869675 L12.78138564892243,-12.505655315418288 L12.869432563133461,-12.410730907061055 L12.954571626258947,-12.315165599988681 L13.036783601109061,-12.218980987203075 L13.116049911870215,-12.122198801638408 L13.192352648302263,-12.024840911250545 L13.265674569785313,-11.926929314075988 L13.335999109215267,-11.82848613326141 L13.403310376747152,-11.729533612064914 L13.467593163385436,-11.630094108830178 L13.528832944420502,-11.530190091934578 L13.587015882710512,-11.429844134712447 L13.64212883180791,-11.329078910354637 L13.694159338929863,-11.227917186785504 L13.743095647771975,-11.126381821518477 L13.78892670116463,-11.024495756491412 L13.831642143571345,-10.922282012882851 L13.87123232342862,-10.819763685910393 L13.907688295326713,-10.716963939612299 L13.941001822030843,-10.613906001613596 L13.971165376342416,-10.51061315787778 L13.99817214279977,-10.407108747445346 L14.022016019218158,-10.303416157160337 L14.042691618068517,-10.199558816386075 L14.06019426769479,-10.095560191711284 L14.074520013369492,-9.991443781647819 L14.085665618187273,-9.88723311132117 L14.093628563796297,-9.78295172715495 L14.09840705096728,-9.678623191550587 L14.1,-9.574271077563415 " />
			<path d="M14.1,-9.574271077563383 L14.09761120332111,-9.446484930455194 L14.090445622695729,-9.318742081946128 L14.078505686083457,-9.19108581596417 L14.061795439169531,-9.063559387099982 L14.040320543994003,-8.936206005950694 L14.01408827703322,-8.809068824478567 L13.983107526734303,-8.682190921389541 L13.947388790503412,-8.555615287536597 L13.906944171148842,-8.429384811352895 L13.861787372780151,-8.303542264319605 L13.811933696164711,-8.178130286473385 L13.757400033543252,-8.053191371958373 L13.69820486290615,-7.928767854627628 L13.634368241732416,-7.8049018936988785 L13.565911800193488,-7.681635459469441 L13.492858733824146,-7.559010319095156 L13.415233795663019,-7.437068022438167 L13.333063287865352,-7.315849887988299 L13.246375052790881,-7.195396988862856 L13.155198463569821,-7.07575013888955 L13.059564414150191,-6.9569498787773 L12.959505308829815,-6.839036462379552 L12.855055051276562,-6.722049843054816 L12.746249033040552,-6.606029660129014 L12.633124121562215,-6.491015225464219 L12.515718647680243,-6.37704551013838 L12.394072392643734,-6.264159131240504 L12.26822657463283,-6.152394338785766 L12.13822383479252,-6.0417890027550225 L12.004108222784241,-5.932380600263081 L11.865925181860272,-5.8242062028600845 L11.723721533465891,-5.71730246397032 L11.577545461374577,-5.611705606472718 L11.427446495361592,-5.5074514104272065 L11.273475494421467,-5.404575200951127 L11.115684629535155,-5.303111836249801 L10.954127365992582,-5.203095695805307 L10.788858445276672,-5.104560668727449 L10.619933866514938,-5.0075401422709 L10.447410867504926,-4.912066990522383 L10.271347905319981,-4.818173563261728 L10.091804636501848,-4.725891675000594 L9.908841896846882,-4.635252594202558 L9.722521680792646,-4.546287032688214 L9.532907120411956,-4.4590251352288925 L9.340062464021425,-4.373496469332517 L9.144053054411792,-4.289730015225048 L8.944945306707407,-4.207754156030935 L8.74280668586239,-4.127596668155885 L8.537705683801,-4.049284711875183 L8.329711796210136,-3.9728448221308303 L8.118895498991627,-3.898302899540525 L7.905328224382444,-3.825684201621586 L7.68908233675086,-3.7550133342327987 L7.470231108076758,-3.6863142432370424 L7.248848693124427,-3.619610206387568 L7.025010104316223,-3.5549238254406434 L6.798791186315627,-3.4922770184972594 L6.570268590328318,-3.431691012576474 L6.339519748129957,-3.3731863364229326 L6.106622845829457,-3.316782813550973 L5.871656797376696,-3.262499555527702 L5.63470121782363,-3.2103549554973014 L5.395836396347773,-3.160366681948764 L5.155143269047318,-3.112551672729156 L4.912703391517031,-3.066926129304469 L4.668598911214259,-3.023505511269965 L4.422912539624381,-2.982304531111909 L4.175727524235117,-2.9433371492224367 L3.9271276203292684,-2.906616569169268 L3.677197062605402,-2.8721552332218634 L3.4260205366360363,-2.839964818135523 L3.173683150173092,-2.810056231194878 L2.9202704043102927,-2.7824396065181043 L2.6658681645122764,-2.7571243016231204 L2.410562631520254,-2.7341188942569117 L2.1544403121440565,-2.713431179489084 L1.8975879899504817,-2.6950681670706054 L1.6400926958578572,-2.679036079058652 L1.3820416786468148,-2.6653403477083426 L1.1235223753971852,-2.6539856136320985 L0.8646223818611594,-2.644975724227229 L0.6054294227826817,-2.6383137323723043 L0.3460313221730772,-2.6340018953927133 L0.08651597355308979,-2.632041674295815 L-0.1730286898286415,-2.6324337332758825 L-0.43251472479056924,-2.6351779394890604 L-0.691854208016589,-2.6402733630983715 L-0.9509592658476606,-2.6477182775887806 L-1.2097421040566019,-2.657510160352202 L-1.4681150375959713,-2.6696456935422486 L-1.7259905203089398,-2.68412076519844 L-1.9832811745931553,-2.700930470639486 L-2.23989982100743,-2.720069114125172 L-2.4957595078112833,-2.7415302107862765 L-2.7507735404273963,-2.765306488821887 L-3.0048555108168786,-2.791389891963351 L-3.257919326757455,-2.8197715822040292 L-3.509879241014649,-2.850441942793939 L-3.7606498803960644,-2.8833905814982534 L-4.010146274678932,-2.918606334118575 L-4.2582838854011165,-2.9560772682757683 L-4.504978634505824,-2.995790687453087 L-4.7501469328302965,-3.0377331352982093 L-4.993705708428898,-3.0818904001827523 L-5.235572434720896,-3.128247520017683 L-5.475665158453439,-3.176788787323013 L-5.713902527470347,-3.22749775455007 L-5.950203818277168,-3.2803572396545286 L-6.1844889633932345,-3.3353493319183087 L-6.416678578481445,-3.392455398018379 L-6.6466939892465655,-3.4516560883404086 L-6.8744572580929475,-3.512931343535115 L-7.099891210532621,-3.5762604013151087 L-7.322919461334817,-3.6416218034899055 L-7.543466440408067,-3.7089934032367458 L-7.761457418406115,-3.778352372604748 L-7.976818532048935,-3.849675210249849 L-8.189476809150271,-3.922937749397904 L-8.399360193343304,-3.99811516603328 L-8.606397568495959,-4.075181987310137 L-8.810518782807645,-4.15411210018355 L-9.011654672579237,-4.23487876025756 L-9.209737085648252,-4.317454600847155 L-9.404698904481291,-4.401811642251093 L-9.596474068915892,-4.487921301232444 L-9.784997598544125,-4.575754400703635 L-9.97020561473023,-4.665281179612659 " />
			<path d="M-8.83883476483189,-5.222329678670912 L-9.053088536893382,-5.330442390444015 L-9.26188906693704,-5.441111425931267 L-9.465110581331109,-5.554270122243865 L-9.662630667034263,-5.669850316814429 L-9.85433034533263,-5.787782388455573 L-10.040094143508112,-5.907995299297102 L-10.219810164394845,-6.03041663757658 L-10.393370153781863,-6.154972661257451 L-10.560669565621385,-6.2815883424485035 L-10.721607625003449,-6.410187412597851 L-10.87608738885894,-6.540692408434264 L-11.024015804354484,-6.673024718628149 L-11.165303764943987,-6.807104631144067 L-11.299866164043086,-6.94285138125629 L-11.42762194629418,-7.080183200198448 L-11.54849415639113,-7.219017364417979 L-11.66240998543428,-7.3592702454057 L-11.769300814787805,-7.500857360070496 L-11.869102257413003,-7.643693421628777 L-11.961754196652656,-7.787692390978045 L-12.047200822443044,-7.932767528523632 L-12.125390664931844,-8.07883144642739 L-12.196276625481653,-8.22579616124686 L-12.259816005040427,-8.373573146933188 L-12.315970529861811,-8.522073388155942 L-12.36470637455981,-8.671207433922593 L-12.405994182483923,-8.820885451460443 L-12.43980908340251,-8.971017280328555 L-12.466130708483675,-9.12151248672701 L-12.484943202564702,-9.27228041797085 L-12.4962352337026,-9.423230257095868 L-12.500000000000048,-9.574271077563303 " />
			<path d="M-12.500000000000048,-9.57427107756336 L-12.497992501972748,-9.684569208687618 L-12.491970652698575,-9.794831912086973 L-12.48193638639362,-9.905023771415895 L-12.467892926061051,-10.015109393083947 L-12.449844782455896,-10.125053417624196 L-12.427797752636181,-10.234820531050662 L-12.401758918100926,-10.34437547620116 L-12.37173664251557,-10.453683064061883 L-12.33774056902555,-10.562708185070113 L-12.29978161715894,-10.671415820391395 L-12.257871979319102,-10.779771053167574 L-12.212025116868482,-10.887739079732084 L-12.162255755804825,-10.995285220788869 L-12.108579882031199,-11.102374932551367 L-12.051014736221317,-11.20897381783796 L-11.989578808281845,-11.315047637120342 L-11.924291831413443,-11.420562319521238 L-11.855174775772479,-11.525483973757966 L-11.782249841735405,-11.629778899028302 L-11.70554045276802,-11.733413595835165 L-11.625071247901845,-11.836354776746655 L-11.540868073820086,-11.938569377087951 L-11.452957976555682,-12.040024565561689 L-11.361369192804124,-12.140687754793351 L-11.266131140853847,-12.24052661179833 L-11.167274411137079,-12.339509068367269 L-11.064830756404197,-12.437603331366358 L-10.958833081524773,-12.534777892949283 L-10.849315432918518,-12.631001540677538 L-10.7363129876196,-12.72624336754584 L-10.619862041977779,-12.820472781909462 L-10.500000000000048,-12.913659517310247 " />
			<path d="M10.499999999999956,-12.913659517310245 L10.619862041977694,-12.820472781909453 L10.736312987619515,-12.72624336754583 L10.84931543291843,-12.631001540677529 L10.958833081524686,-12.534777892949275 L11.064830756404112,-12.437603331366349 L11.167274411136988,-12.339509068367263 L11.266131140853759,-12.240526611798325 L11.361369192804036,-12.140687754793344 L11.452957976555592,-12.040024565561682 L11.540868073819997,-11.938569377087944 L11.625071247901753,-11.83635477674665 L11.705540452767929,-11.73341359583516 L11.782249841735315,-11.629778899028295 L11.855174775772387,-11.525483973757963 L11.92429183141335,-11.420562319521235 L11.98957880828175,-11.315047637120337 L12.051014736221225,-11.208973817837954 L12.108579882031105,-11.10237493255136 L12.16225575580473,-10.995285220788865 L12.212025116868386,-10.88773907973208 L12.257871979319008,-10.77977105316757 L12.299781617158846,-10.671415820391394 L12.337740569025454,-10.562708185070111 L12.371736642515474,-10.453683064061881 L12.401758918100832,-10.344375476201156 L12.427797752636085,-10.234820531050659 L12.4498447824558,-10.125053417624196 L12.467892926060957,-10.015109393083945 L12.481936386393524,-9.905023771415893 L12.491970652698479,-9.794831912086973 L12.497992501972652,-9.684569208687618 L12.499999999999952,-9.574271077563388 " />
			<path d="M12.499999999999952,-9.57427107756336 L12.497882272447745,-9.46098548615539 L12.491529807354322,-9.347738280030333 L12.480944757166137,-9.234567831464767 L12.466130708483579,-9.121512486727012 L12.4470926808457,-9.008610553084026 L12.423837125029403,-8.895900285821503 L12.396371920863697,-8.783419875281584 L12.364706374559715,-8.671207433922593 L12.328851215557437,-8.559300983405125 L12.288818592890157,-8.447738441708946 L12.244622071067958,-8.336557610284993 L12.196276625481559,-8.225796161246862 L12.1437986373281,-8.11549162460613 L12.087205888060604,-8.00568137555582 L12.026517553362973,-7.896402621806319 L11.961754196652564,-7.787692390978052 L11.892937762112558,-7.679587518055189 L11.82009156725647,-7.572124632904597 L11.743240295027329,-7.465340147864311 L11.66240998543419,-7.359270245405707 L11.577628026728846,-7.25395086587357 L11.488923146125675,-7.14941769530819 L11.396325400067825,-7.045706153353637 L11.299866164042996,-6.942851381256294 L11.19957812195227,-6.840888229957718 L11.09549525503563,-6.739851248285875 L10.987652830357872,-6.63977467124875 L10.876087388858846,-6.540692408434266 L10.760836732972043,-6.442638032520486 L10.641939913815769,-6.345644767899971 L10.519437217961185,-6.249745479422138 L10.39337015378177,-6.154972661257453 L10.263781437388761,-6.061358425887238 L10.13071497815739,-5.968934493222777 L9.99421586384877,-5.877732179857459 L9.854330345332535,-5.7877823884555735 L9.711105820915362,-5.699115597281377 L9.56459082028069,-5.611761849871928 L9.41483498804511,-5.525750744857257 L9.261889066936943,-5.4411114259312665 L9.105804880602772,-5.3578725719767855 L8.94663531604769,-5.276062387348121 L8.784434305715273,-5.195708592314401 L8.61925680921329,-5.116838413666933 L8.451158794691402,-5.039478575493776 L8.280197219877103,-4.963655290124649 L8.106430012776363,-4.889394249249233 L7.9299160520455265,-4.816720615211898 L7.7507151470410784,-4.74565901248579 L7.568888017554031,-4.6762335193291396 L7.3844962732358885,-4.608467659626699 L7.1976023927230255,-4.542384394918981 L7.008269702466658,-4.47800611662205 L6.816562355275537,-4.415354638440501 L6.622545308578639,-4.354451188976178 L6.426284302415224,-4.295316404535154 L6.227845837159725,-4.237970322135399 L6.027297150988984,-4.182432372717504 L5.824706197099525,-4.12872137456078 L5.6201416206825385,-4.0768555269069315 L5.413672735664364,-4.026852403793493 L5.205369501220428,-3.9787289480991026 L4.995302498070546,-3.932501465802649 L4.783542904563581,-3.8881856204582004 L4.57016247255963,-3.8457964278876258 L4.355233503117888,-3.80534825109269 L4.138828821998409,-3.766854795388343 L3.9210217549861057,-3.7303291037588613 L3.7018861030452688,-3.6957835524384066 L3.4814961173131334,-3.6632298467175124 L3.259926473940911,-3.6326790169769057 L3.0372522487907645,-3.604141414950008 L2.813548891997374,-3.5776267102153936 L2.5888922024026937,-3.553143886920382 L2.3633583018725375,-3.530701240736885 L2.137023609503723,-3.51030637605053 L1.909964815730499,-3.491966203384016 L1.6822588563390317,-3.4756869370555776 L1.4539828863987618,-3.461474093073349 L1.225214254119469,-3.4493324872663376 L0.9960304746428469,-3.4392662336526456 L0.7665092037775757,-3.4312787430454925 L0.5367282116867267,-3.425372721897509 L0.3067653565363681,-3.4215501713836876 L0.07669855811439347,-3.4198123867233168 L-0.15339422857153856,-3.4201599567411076 L-0.3834350397079993,-3.4225927636676836 L-0.6133459290927686,-3.4271099831794833 L-0.8430489945458463,-3.433710084678073 L-1.0724664043055459,-3.4423908318087664 L-1.3015204234007314,-3.453149283218382 L-1.5301334399902426,-3.465981793551885 L-1.7582279916606465,-3.4808840146875646 L-1.9857267916733012,-3.497850897210336 L-2.212552755151895,-3.516876692122662 L-2.4386290252016405,-3.5379549527925294 L-2.6638789989511817,-3.5610785371377984 L-2.88822635350843,-3.586239610046201 L-3.1115950718215455,-3.6134296460301636 L-3.3339094684362753,-3.6426394321155495 L-3.555094215140945,-3.6738590709633527 L-3.7750743664904,-3.7070779842232753 L-3.993775385200247,-3.742284916118061 L-4.211123167402793,-3.779467937257354 L-4.427044067756164,-3.8186144486798215 L-4.641464924398005,-3.8597111861221363 L-4.8543130837353665,-3.902744224513386 L-5.0655164250624125,-3.9476989826934012 L-5.275003384997538,-3.9945602283533823 L-5.482702981731639,-4.043312083197159 L-5.688544839079343,-4.093938028321335 L-5.8924592103250175,-4.146420909812496 L-6.094377001855498,-4.200742944559575 L-6.29422979657152,-4.256885726279428 L-6.4919498770699215,-4.314830231753539 L-6.68747024858876,-4.374556827273787 L-6.880724661707597,-4.436045275295066 L-7.0716476347952035,-4.499274741292496 L-7.260174476197098,-4.564223800820913 L-7.44624130615546,-4.630870446774261 L-7.629785078453912,-4.699192096842396 L-7.810743601779874,-4.769165601162798 L-7.989055560797243,-4.84076725016458 L-8.164660536922257,-4.913972782602165 L-8.33749902879552,-4.9887573937758685 L-8.507512472443215,-5.065095743936641 L-8.674643261120726,-5.142961966872093 L-8.838834764831812,-5.2223296786708735 " />
			<path d="M-8.838834764831843,-5.222329678670935 L-9.053088536893334,-5.330442390444038 L-9.261889066936993,-5.4411114259312905 L-9.46511058133106,-5.554270122243888 L-9.662630667034215,-5.669850316814452 L-9.854330345332581,-5.787782388455596 L-10.040094143508064,-5.907995299297125 L-10.219810164394797,-6.030416637576603 L-10.393370153781815,-6.154972661257474 L-10.560669565621337,-6.281588342448527 L-10.7216076250034,-6.410187412597874 L-10.876087388858892,-6.540692408434287 L-11.024015804354436,-6.673024718628172 L-11.165303764943939,-6.80710463114409 L-11.299866164043038,-6.942851381256313 L-11.427621946294131,-7.080183200198471 L-11.548494156391081,-7.2190173644180025 L-11.662409985434232,-7.359270245405723 L-11.769300814787757,-7.500857360070519 L-11.869102257412955,-7.6436934216288 L-11.961754196652608,-7.787692390978068 L-12.047200822442996,-7.932767528523655 L-12.125390664931796,-8.078831446427413 L-12.196276625481605,-8.225796161246883 L-12.25981600504038,-8.37357314693321 L-12.315970529861763,-8.522073388155963 L-12.364706374559763,-8.671207433922616 L-12.405994182483875,-8.820885451460466 L-12.439809083402462,-8.971017280328578 L-12.466130708483627,-9.121512486727033 L-12.484943202564654,-9.272280417970872 L-12.496235233702553,-9.423230257095891 L-12.5,-9.574271077563326 " />
			<path d="M12.5,-9.574271077563383 L12.497882272447793,-9.460985486155414 L12.49152980735437,-9.347738280030356 L12.480944757166185,-9.23456783146479 L12.466130708483627,-9.121512486727035 L12.447092680845747,-9.008610553084049 L12.42383712502945,-8.895900285821526 L12.396371920863745,-8.783419875281608 L12.364706374559763,-8.671207433922614 L12.328851215557485,-8.559300983405148 L12.288818592890205,-8.44773844170897 L12.244622071068006,-8.336557610285016 L12.196276625481607,-8.225796161246885 L12.143798637328148,-8.115491624606154 L12.087205888060652,-8.005681375555843 L12.026517553363021,-7.896402621806342 L11.961754196652612,-7.7876923909780755 L11.892937762112606,-7.679587518055212 L11.820091567256519,-7.57212463290462 L11.743240295027377,-7.465340147864334 L11.662409985434238,-7.35927024540573 L11.577628026728894,-7.253950865873593 L11.488923146125723,-7.149417695308213 L11.396325400067873,-7.0457061533536605 L11.299866164043044,-6.942851381256317 L11.199578121952317,-6.840888229957741 L11.095495255035678,-6.739851248285898 L10.98765283035792,-6.639774671248773 L10.876087388858894,-6.540692408434289 L10.760836732972091,-6.4426380325205095 L10.641939913815817,-6.345644767899994 L10.519437217961233,-6.249745479422161 L10.393370153781818,-6.154972661257476 L10.26378143738881,-6.061358425887261 L10.130714978157439,-5.9689344932228 L9.994215863848819,-5.877732179857482 L9.854330345332583,-5.787782388455597 L9.71110582091541,-5.6991155972814 L9.564590820280738,-5.611761849871951 L9.414834988045158,-5.52575074485728 L9.261889066936991,-5.44111142593129 L9.10580488060282,-5.3578725719768086 L8.946635316047738,-5.276062387348144 L8.78443430571532,-5.195708592314424 L8.619256809213338,-5.116838413666956 L8.45115879469145,-5.039478575493799 L8.28019721987715,-4.963655290124672 L8.10643001277641,-4.889394249249256 L7.9299160520455745,-4.8167206152119215 L7.750715147041126,-4.745659012485813 L7.568888017554079,-4.676233519329163 L7.3844962732359365,-4.608467659626722 L7.1976023927230735,-4.542384394919004 L7.0082697024667056,-4.4780061166220735 L6.816562355275585,-4.415354638440524 L6.622545308578687,-4.354451188976201 L6.426284302415272,-4.2953164045351775 L6.227845837159773,-4.237970322135422 L6.027297150989032,-4.182432372717527 L5.824706197099573,-4.128721374560803 L5.6201416206825865,-4.076855526906955 L5.413672735664412,-4.026852403793516 L5.205369501220476,-3.9787289480991257 L4.995302498070594,-3.9325014658026722 L4.783542904563629,-3.8881856204582235 L4.570162472559678,-3.845796427887649 L4.355233503117936,-3.8053482510927132 L4.138828821998457,-3.766854795388366 L3.9210217549861537,-3.7303291037588844 L3.7018861030453167,-3.6957835524384297 L3.4814961173131813,-3.6632298467175355 L3.259926473940959,-3.6326790169769287 L3.0372522487908125,-3.604141414950031 L2.813548891997422,-3.5776267102154167 L2.5888922024027416,-3.553143886920405 L2.3633583018725854,-3.5307012407369083 L2.137023609503771,-3.5103063760505533 L1.9099648157305467,-3.491966203384039 L1.6822588563390795,-3.4756869370556007 L1.4539828863988096,-3.461474093073372 L1.2252142541195168,-3.4493324872663607 L0.9960304746428947,-3.4392662336526687 L0.7665092037776235,-3.4312787430455156 L0.5367282116867745,-3.4253727218975323 L0.30676535653641596,-3.4215501713837106 L0.0766985581144413,-3.41981238672334 L-0.1533942285714907,-3.4201599567411307 L-0.38343503970795145,-3.4225927636677067 L-0.6133459290927208,-3.4271099831795064 L-0.8430489945457984,-3.433710084678096 L-1.0724664043054981,-3.4423908318087895 L-1.3015204234006836,-3.453149283218405 L-1.530133439990195,-3.465981793551908 L-1.7582279916605987,-3.4808840146875877 L-1.9857267916732535,-3.497850897210359 L-2.212552755151847,-3.5168766921226853 L-2.4386290252015925,-3.5379549527925525 L-2.663878998951134,-3.5610785371378215 L-2.888226353508382,-3.586239610046224 L-3.1115950718214975,-3.6134296460301867 L-3.3339094684362274,-3.6426394321155726 L-3.555094215140897,-3.673859070963376 L-3.775074366490352,-3.7070779842232984 L-3.993775385200199,-3.7422849161180842 L-4.211123167402745,-3.779467937257377 L-4.427044067756116,-3.8186144486798446 L-4.641464924397957,-3.8597111861221594 L-4.854313083735319,-3.902744224513409 L-5.0655164250623645,-3.9476989826934243 L-5.27500338499749,-3.9945602283534054 L-5.482702981731591,-4.043312083197182 L-5.688544839079295,-4.093938028321358 L-5.8924592103249696,-4.146420909812519 L-6.09437700185545,-4.2007429445595985 L-6.294229796571472,-4.256885726279451 L-6.491949877069874,-4.314830231753562 L-6.687470248588712,-4.3745568272738105 L-6.880724661707549,-4.436045275295089 L-7.071647634795156,-4.499274741292519 L-7.26017447619705,-4.564223800820936 L-7.446241306155412,-4.630870446774284 L-7.629785078453864,-4.6991920968424195 L-7.810743601779826,-4.769165601162821 L-7.989055560797195,-4.840767250164603 L-8.16466053692221,-4.913972782602188 L-8.337499028795472,-4.988757393775892 L-8.507512472443167,-5.065095743936664 L-8.674643261120679,-5.142961966872116 L-8.838834764831764,-5.222329678670897 " />
			<path d="M-8.838834764831843,-22.630095274240723 L-9.053088536893334,-22.738207986013826 L-9.261889066936993,-22.848877021501078 L-9.46511058133106,-22.962035717813674 L-9.662630667034215,-23.07761591238424 L-9.854330345332581,-23.19554798402538 L-10.040094143508064,-23.315760894866912 L-10.219810164394797,-23.43818223314639 L-10.393370153781815,-23.562738256827263 L-10.560669565621337,-23.689353938018314 L-10.7216076250034,-23.81795300816766 L-10.876087388858892,-23.948458004004074 L-11.024015804354436,-24.08079031419796 L-11.165303764943939,-24.214870226713877 L-11.299866164043038,-24.3506169768261 L-11.427621946294131,-24.487948795768258 L-11.548494156391081,-24.62678295998779 L-11.662409985434232,-24.76703584097551 L-11.769300814787757,-24.908622955640304 L-11.869102257412955,-25.051459017198585 L-11.961754196652608,-25.195457986547854 L-12.047200822442996,-25.340533124093444 L-12.125390664931796,-25.4865970419972 L-12.196276625481605,-25.63356175681667 L-12.25981600504038,-25.781338742503 L-12.315970529861763,-25.92983898372575 L-12.364706374559763,-26.078973029492403 L-12.405994182483875,-26.228651047030255 L-12.439809083402462,-26.378782875898366 L-12.466130708483627,-26.52927808229682 L-12.484943202564654,-26.680046013540657 L-12.496235233702553,-26.83099585266568 L-12.5,-26.982036673133113 " />
			<path d="M-12.5,-26.98203667313317 L-12.496235233702553,-27.13307749360066 L-12.484943202564654,-27.28402733272568 L-12.466130708483627,-27.43479526396952 L-12.439809083402462,-27.585290470367976 L-12.405994182483875,-27.735422299236088 L-12.364706374559761,-27.88510031677394 L-12.315970529861765,-28.034234362540587 L-12.259816005040381,-28.18273460376334 L-12.196276625481607,-28.330511589449667 L-12.1253906649318,-28.477476304269132 L-12.047200822442997,-28.623540222172892 L-11.96175419665261,-28.768615359718478 L-11.869102257412958,-28.912614329067747 L-11.769300814787758,-29.055450390626028 L-11.662409985434236,-29.197037505290826 L-11.548494156391085,-29.337290386278546 L-11.427621946294133,-29.476124550498078 L-11.299866164043042,-29.613456369440236 L-11.16530376494394,-29.74920311955246 L-11.024015804354438,-29.88328303206838 L-10.876087388858892,-30.015615342262265 L-10.7216076250034,-30.14612033809868 L-10.560669565621337,-30.274719408248025 L-10.393370153781815,-30.40133508943908 L-10.219810164394795,-30.52589111311995 L-10.040094143508062,-30.648312451399427 L-9.854330345332578,-30.768525362240958 L-9.662630667034211,-30.886457433882104 L-9.465110581331055,-31.00203762845267 L-9.261889066936988,-31.115196324765265 L-9.053088536893336,-31.225865360252513 L-8.838834764831843,-31.333978072025616 L-8.619256809213335,-31.4394693370296 L-8.394486935587729,-31.542275611270988 L-8.16466053692221,-31.642334968094364 L-7.929916052045568,-31.739587135484634 L-7.690394882257835,-31.83397353237265 L-7.446241306155417,-31.925437303922266 L-7.1976023927230655,-32.01392335577755 L-6.9446279127450286,-32.09937838724957 L-6.687470248588714,-32.18175092342274 L-6.4262843024152705,-32.260991346161376 L-6.161227402872301,-32.337051923997805 L-5.892459210324972,-32.409886840884035 L-5.620141620682586,-32.4794522237896 L-5.344438667878528,-32.545706169129055 L-5.065516425062373,-32.60860876800313 L-4.783542904563623,-32.66812213023833 L-4.498687956687354,-32.724210407210606 L-4.211123167402751,-32.776839813439175 L-3.9210217549861417,-32.82597864693767 L-3.628558465680779,-32.871597308310214 L-3.3339094684362305,-32.91366831858098 L-3.0372522487907996,-32.952166335746526 L-2.738765501960875,-32.987068170040835 L-2.438629025201604,-33.018352797904 L-2.137023609503764,-33.046001374645996 L-1.834130930692022,-33.069997245798056 L-1.5301334399902036,-33.09032595714464 L-1.2252142541195097,-33.10697526343019 L-0.9195570449958459,-33.11993513573515 L-0.6133459290927266,-33.12919776751705 L-0.3067653565364033,-33.13475757931284 L-7.654042494670958e-16,-33.13661122209981 L0.3067653565364018,-33.13475757931284 L0.6133459290927251,-33.12919776751705 L0.9195570449958443,-33.11993513573515 L1.2252142541195081,-33.10697526343019 L1.530133439990202,-33.09032595714464 L1.8341309306920204,-33.069997245798056 L2.1370236095037627,-33.046001374645996 L2.4386290252016023,-33.018352797904 L2.738765501960873,-32.987068170040835 L3.0372522487907982,-32.952166335746526 L3.3339094684362287,-32.91366831858098 L3.628558465680777,-32.871597308310214 L3.9210217549861404,-32.82597864693767 L4.211123167402749,-32.776839813439175 L4.498687956687352,-32.724210407210606 L4.783542904563622,-32.66812213023833 L5.065516425062374,-32.60860876800312 L5.344438667878528,-32.545706169129055 L5.620141620682584,-32.4794522237896 L5.892459210324971,-32.409886840884035 L6.1612274028723,-32.337051923997805 L6.4262843024152705,-32.260991346161376 L6.687470248588713,-32.18175092342274 L6.944627912745024,-32.09937838724957 L7.197602392723063,-32.01392335577755 L7.446241306155412,-31.925437303922266 L7.69039488225783,-31.833973532372653 L7.929916052045567,-31.739587135484634 L8.164660536922211,-31.642334968094364 L8.39448693558773,-31.542275611270988 L8.619256809213336,-31.439469337029596 L8.838834764831843,-31.333978072025616 L9.053088536893334,-31.225865360252513 L9.261889066936986,-31.115196324765265 L9.465110581331054,-31.00203762845267 L9.662630667034213,-30.8864574338821 L9.854330345332581,-30.768525362240958 L10.040094143508064,-30.648312451399427 L10.219810164394797,-30.52589111311995 L10.393370153781817,-30.401335089439076 L10.560669565621339,-30.274719408248025 L10.7216076250034,-30.14612033809868 L10.876087388858892,-30.015615342262265 L11.024015804354438,-29.88328303206838 L11.16530376494394,-29.74920311955246 L11.299866164043038,-29.61345636944024 L11.427621946294131,-29.47612455049808 L11.548494156391085,-29.337290386278546 L11.662409985434238,-29.197037505290822 L11.76930081478776,-29.055450390626028 L11.869102257412958,-28.912614329067747 L11.96175419665261,-28.768615359718478 L12.047200822442997,-28.623540222172892 L12.1253906649318,-28.477476304269132 L12.196276625481605,-28.33051158944967 L12.259816005040381,-28.18273460376334 L12.315970529861765,-28.034234362540587 L12.364706374559761,-27.88510031677394 L12.405994182483875,-27.73542229923609 L12.43980908340246,-27.585290470367976 L12.466130708483627,-27.43479526396952 L12.484943202564654,-27.284027332725678 L12.496235233702553,-27.13307749360066 L12.5,-26.982036673133198 " />
			<path d="M12.5,-26.98203667313317 L12.497882272447793,-26.8687510817252 L12.49152980735437,-26.755503875600144 L12.480944757166185,-26.642333427034576 L12.466130708483627,-26.52927808229682 L12.447092680845747,-26.416376148653836 L12.42383712502945,-26.30366588139131 L12.396371920863745,-26.191185470851394 L12.364706374559763,-26.078973029492403 L12.328851215557485,-25.967066578974936 L12.288818592890205,-25.855504037278756 L12.244622071068006,-25.7443232058548 L12.196276625481607,-25.633561756816672 L12.143798637328148,-25.52325722017594 L12.087205888060652,-25.41344697112563 L12.026517553363021,-25.30416821737613 L11.961754196652612,-25.19545798654786 L11.892937762112606,-25.087353113625 L11.820091567256519,-24.979890228474407 L11.743240295027377,-24.87310574343412 L11.662409985434238,-24.767035840975517 L11.577628026728894,-24.66171646144338 L11.488923146125723,-24.557183290878 L11.396325400067873,-24.453471748923448 L11.299866164043044,-24.350616976826103 L11.199578121952317,-24.248653825527526 L11.095495255035678,-24.147616843855687 L10.98765283035792,-24.04754026681856 L10.876087388858894,-23.948458004004078 L10.760836732972091,-23.850403628090298 L10.641939913815817,-23.753410363469783 L10.519437217961233,-23.657511074991948 L10.393370153781818,-23.562738256827263 L10.26378143738881,-23.46912402145705 L10.130714978157439,-23.37670008879259 L9.994215863848819,-23.285497775427267 L9.854330345332583,-23.195547984025385 L9.71110582091541,-23.106881192851187 L9.564590820280738,-23.01952744544174 L9.414834988045158,-22.93351634042707 L9.261889066936991,-22.848877021501075 L9.10580488060282,-22.765638167546594 L8.946635316047738,-22.683827982917933 L8.78443430571532,-22.60347418788421 L8.619256809213338,-22.524604009236743 L8.45115879469145,-22.447244171063588 L8.28019721987715,-22.37142088569446 L8.10643001277641,-22.297159844819042 L7.9299160520455745,-22.22448621078171 L7.750715147041126,-22.1534246080556 L7.568888017554079,-22.08399911489895 L7.3844962732359365,-22.01623325519651 L7.1976023927230735,-21.95014999048879 L7.0082697024667056,-21.88577171219186 L6.816562355275585,-21.82312023401031 L6.622545308578687,-21.762216784545988 L6.426284302415272,-21.703082000104963 L6.227845837159773,-21.64573591770521 L6.027297150989032,-21.590197968287313 L5.824706197099573,-21.53648697013059 L5.6201416206825865,-21.484621122476742 L5.413672735664412,-21.434617999363304 L5.205369501220476,-21.386494543668913 L4.995302498070594,-21.340267061372458 L4.783542904563629,-21.29595121602801 L4.570162472559678,-21.253562023457434 L4.355233503117936,-21.2131138466625 L4.138828821998457,-21.174620390958154 L3.9210217549861537,-21.138094699328672 L3.7018861030453167,-21.103549148008216 L3.4814961173131813,-21.070995442287323 L3.259926473940959,-21.040444612546715 L3.0372522487908125,-21.011907010519817 L2.813548891997422,-20.985392305785204 L2.5888922024027416,-20.96090948249019 L2.3633583018725854,-20.938466836306695 L2.137023609503771,-20.91807197162034 L1.9099648157305467,-20.899731798953827 L1.6822588563390795,-20.883452532625387 L1.4539828863988096,-20.86923968864316 L1.2252142541195168,-20.857098082836146 L0.9960304746428947,-20.847031829222455 L0.7665092037776235,-20.839044338615302 L0.5367282116867745,-20.83313831746732 L0.30676535653641596,-20.8293157669535 L0.0766985581144413,-20.82757798229313 L-0.1533942285714907,-20.827925552310916 L-0.38343503970795145,-20.830358359237493 L-0.6133459290927208,-20.834875578749294 L-0.8430489945457984,-20.841475680247882 L-1.0724664043054981,-20.850156427378575 L-1.3015204234006836,-20.860914878788194 L-1.530133439990195,-20.873747389121696 L-1.7582279916605987,-20.888649610257374 L-1.9857267916732535,-20.905616492780148 L-2.212552755151847,-20.92464228769247 L-2.4386290252015925,-20.94572054836234 L-2.663878998951134,-20.96884413270761 L-2.888226353508382,-20.994005205616013 L-3.1115950718214975,-21.021195241599973 L-3.3339094684362274,-21.050405027685358 L-3.555094215140897,-21.081624666533163 L-3.775074366490352,-21.114843579793085 L-3.993775385200199,-21.150050511687873 L-4.211123167402745,-21.187233532827165 L-4.427044067756116,-21.22638004424963 L-4.641464924397957,-21.267476781691947 L-4.854313083735319,-21.310509820083197 L-5.0655164250623645,-21.35546457826321 L-5.27500338499749,-21.402325823923192 L-5.482702981731591,-21.451077678766968 L-5.688544839079295,-21.501703623891146 L-5.8924592103249696,-21.554186505382305 L-6.09437700185545,-21.608508540129385 L-6.294229796571472,-21.664651321849238 L-6.491949877069874,-21.72259582732335 L-6.687470248588712,-21.7823224228436 L-6.880724661707549,-21.843810870864875 L-7.071647634795156,-21.907040336862305 L-7.26017447619705,-21.971989396390722 L-7.446241306155412,-22.03863604234407 L-7.629785078453864,-22.106957692412205 L-7.810743601779826,-22.176931196732607 L-7.989055560797195,-22.24853284573439 L-8.16466053692221,-22.321738378171975 L-8.337499028795472,-22.396522989345677 L-8.507512472443167,-22.47286133950645 L-8.674643261120679,-22.550727562441903 L-8.838834764831764,-22.630095274240684 " />
			<path d="M-7.424621202458789,-23.32640589806349 L-7.604594370990442,-23.4172205759529 L-7.779986816227117,-23.51018256576219 L-7.950692888318133,-23.60523587066477 L-8.116609760308783,-23.702323234104046 L-8.27763749007941,-23.80138617428261 L-8.433679080546815,-23.902365019389492 L-8.584640538091671,-24.005198943544254 L-8.730430929176768,-24.109826003436186 L-8.870962435121966,-24.21618317563667 L-9.006150405002899,-24.324206394562122 L-9.135913406641512,-24.43383059106471 L-9.260173275657769,-24.54498973162757 L-9.37885516255295,-24.65761685814094 L-9.491887577796195,-24.77164412823521 L-9.599202434887113,-24.887002856146623 L-9.700735091368552,-25.00362355409103 L-9.796424387764798,-25.121435974120715 L-9.886212684421757,-25.240369150439143 L-9.970045896226924,-25.360351442148097 L-10.047873525188233,-25.481310576401484 L-10.11964869085216,-25.603173691939777 L-10.185328158542752,-25.725867382978933 L-10.244872365404591,-25.84931774342729 L-10.298245444233961,-25.973450411403803 L-10.345415245083924,-26.098190614030916 L-10.386353354630243,-26.223463212474904 L-10.421035113286496,-26.349192747206697 L-10.44943963005811,-26.475303483455914 L-10.47154979512629,-26.601719456830615 L-10.487352290154353,-26.728364519075438 L-10.496837596310188,-26.855162383940456 L-10.500000000000043,-26.982036673133102 " />
			<path d="M-10.500000000000043,-26.98203667313315 L-10.496837596310188,-27.10891096232584 L-10.487352290154353,-27.23570882719086 L-10.47154979512629,-27.362353889435685 L-10.44943963005811,-27.488769862810386 L-10.421035113286496,-27.6148805990596 L-10.386353354630241,-27.740610133791396 L-10.345415245083926,-27.865882732235377 L-10.298245444233963,-27.99062293486249 L-10.244872365404593,-28.114755602839008 L-10.185328158542754,-28.238205963287356 L-10.119648690852161,-28.360899654326513 L-10.047873525188235,-28.48276276986481 L-9.970045896226928,-28.603721904118192 L-9.88621268442176,-28.72370419582715 L-9.7964243877648,-28.842637372145578 L-9.700735091368553,-28.960449792175265 L-9.599202434887113,-29.07707049011967 L-9.491887577796197,-29.192429218031084 L-9.378855162552954,-29.306456488125352 L-9.26017327565777,-29.419083614638723 L-9.135913406641512,-29.530242755201588 L-9.006150405002899,-29.639866951704175 L-8.870962435121966,-29.747890170629628 L-8.730430929176768,-29.85424734283011 L-8.584640538091671,-29.958874402722046 L-8.433679080546815,-30.061708326876804 L-8.277637490079409,-30.16268717198369 L-8.11660976030878,-30.26175011216225 L-7.950692888318129,-30.358837475601526 L-7.779986816227112,-30.453890780504107 L-7.604594370990445,-30.546852770313397 L-7.424621202458791,-30.637667448202805 L-7.240175719739244,-30.726280110806147 L-7.051369025893735,-30.812637381168916 L-6.858314851014699,-30.89668724090055 L-6.66112948371832,-30.978379061508377 L-6.459931701096624,-31.05766363489431 L-6.254842697170593,-31.13449320299599 L-6.045986009887417,-31.208821486554427 L-5.833487446705867,-31.280603712990924 L-5.617475008814563,-31.349796643376386 L-5.39807881402887,-31.41635859847684 L-5.175431018412776,-31.480249483859442 L-4.94966573667302,-31.541430814043874 L-4.720918961373414,-31.599865735684546 L-4.489328481018005,-31.655519049769694 L-4.255033797052437,-31.708357232823914 L-4.018176039833486,-31.758348457101484 L-3.778897883617419,-31.80546260975819 L-3.5373434606183527,-31.849671310990193 L-3.2936582741884015,-31.890947931128927 L-3.047989111171897,-31.92926760668186 L-2.800483953486476,-31.964607255309307 L-2.551291888984314,-31.996945589728362 L-2.3005630216471773,-32.02626313053558 L-2.04844838116939,-32.05254221794064 L-1.7950998319832043,-32.07576702240392 L-1.5406699817813407,-32.09592355417165 L-1.2853120895918133,-32.11299967170279 L-1.0291799734604306,-32.12698508898265 L-0.7724279177965528,-32.13787138171881 L-0.5152105804379327,-32.1456519924156 L-0.25768289949062106,-32.15032223432407 L-4.2947510776328003e-14,-32.15187929426512 L0.2576828994905352,-32.15032223432407 L0.5152105804378467,-32.1456519924156 L0.772427917796467,-32.13787138171881 L1.0291799734603444,-32.12698508898265 L1.2853120895917272,-32.11299967170279 L1.5406699817812548,-32.09592355417165 L1.7950998319831184,-32.07576702240392 L2.0484483811693037,-32.05254221794064 L2.300563021647091,-32.02626313053558 L2.5512918889842284,-31.996945589728362 L2.80048395348639,-31.964607255309307 L3.0479891111718107,-31.92926760668186 L3.293658274188316,-31.890947931128927 L3.537343460618267,-31.849671310990193 L3.7788978836173337,-31.80546260975819 L4.018176039833399,-31.758348457101484 L4.255033797052351,-31.70835723282391 L4.489328481017921,-31.65551904976969 L4.720918961373328,-31.599865735684546 L4.949665736672933,-31.541430814043874 L5.175431018412689,-31.480249483859442 L5.398078814028785,-31.41635859847684 L5.617475008814476,-31.34979664337639 L5.833487446705778,-31.280603712990928 L6.04598600988733,-31.208821486554427 L6.254842697170503,-31.13449320299599 L6.459931701096535,-31.05766363489431 L6.661129483718234,-30.978379061508377 L6.858314851014614,-30.89668724090055 L7.051369025893651,-30.812637381168916 L7.2401757197391605,-30.726280110806147 L7.424621202458706,-30.637667448202805 L7.604594370990359,-30.546852770313397 L7.779986816227026,-30.453890780504107 L7.950692888318043,-30.358837475601526 L8.116609760308696,-30.26175011216225 L8.277637490079325,-30.162687171983688 L8.43367908054673,-30.061708326876804 L8.584640538091588,-29.958874402722042 L8.730430929176684,-29.85424734283011 L8.870962435121882,-29.747890170629628 L9.006150405002813,-29.639866951704175 L9.135913406641427,-29.530242755201588 L9.260173275657685,-29.419083614638726 L9.378855162552867,-29.306456488125352 L9.49188757779611,-29.192429218031087 L9.599202434887028,-29.077070490119674 L9.700735091368468,-28.960449792175265 L9.796424387764716,-28.842637372145578 L9.886212684421675,-28.72370419582715 L9.970045896226843,-28.603721904118192 L10.04787352518815,-28.482762769864806 L10.119648690852076,-28.360899654326513 L10.185328158542669,-28.238205963287356 L10.244872365404506,-28.114755602839008 L10.298245444233878,-27.990622934862493 L10.34541524508384,-27.86588273223538 L10.386353354630156,-27.740610133791396 L10.421035113286411,-27.614880599059603 L10.449439630058023,-27.488769862810386 L10.471549795126204,-27.36235388943568 L10.487352290154268,-27.235708827190855 L10.496837596310103,-27.10891096232584 L10.499999999999957,-26.982036673133173 " />
			<path d="M10.499999999999957,-26.98203667313315 L10.498221108856104,-26.886876776350455 L10.492885038177628,-26.791749123205406 L10.483993596019552,-26.69668594641033 L10.471549795126204,-26.601719456830615 L10.455557851910385,-26.506881832570507 L10.436023185024697,-26.412205208069988 L10.412952413525502,-26.317721663216457 L10.386353354630158,-26.223463212474904 L10.356235021068244,-26.129461794040232 L10.32260761802773,-26.03574925901544 L10.285482539697083,-25.94235736061932 L10.244872365404508,-25.84931774342729 L10.200790855355601,-25.756661932649074 L10.153252945970905,-25.664421323446817 L10.102274744824895,-25.572627170297235 L10.047873525188152,-25.48131057640149 L9.990067720174546,-25.390502483146285 L9.928876916495433,-25.30023365961979 L9.864321847822954,-25.21053469218595 L9.796424387764718,-25.12143597412072 L9.725207542452228,-25.032967695313726 L9.650695442745564,-24.945159832038804 L9.57291333605697,-24.858042136796982 L9.491887577796113,-24.771644128235213 L9.407645622439905,-24.68599508114441 L9.320216014229926,-24.601124016540062 L9.22962837750061,-24.517059691828877 L9.135913406641428,-24.43383059106471 L9.039102855696514,-24.351464915297136 L8.939229527605242,-24.269990573015903 L8.836327263087393,-24.189435170694523 L8.730430929176684,-24.109826003436186 L8.621576407406558,-24.031190045725207 L8.509800581652206,-23.95355394228706 L8.395141325632965,-23.87694399906019 L8.277637490079327,-23.80138617428261 L8.157328889568902,-23.726906069696284 L8.034256289035778,-23.653528921872347 L7.90846138995789,-23.58127959366002 L7.77998681622703,-23.51018256576219 L7.648876099706326,-23.440261928440425 L7.515173665480058,-23.371541373352347 L7.378924816800827,-23.304044185524024 L7.240175719739161,-23.23779323546015 L7.0989733875407754,-23.172810971394696 L6.955365664696764,-23.10911941168463 L6.809401210732142,-23.046740137349282 L6.6611294837182395,-22.985694284757923 L6.510600723514504,-22.92600253846799 L6.357865934745384,-22.867685124216404 L6.202976869518144,-22.810761802066352 L6.045986009887339,-22.75525185971187 L5.886946550071991,-22.70117410594245 L5.725912378431449,-22.648546864269946 L5.398078814028786,-22.547714747789456 L5.062929606830744,-22.45289216106263 L4.7209189613733304,-22.36420761058175 L4.372510381025156,-22.28178128438317 L4.018176039833406,-22.205724889164813 L3.6583961426190235,-22.136141498897786 L3.293658274188327,-22.07312541513737 L2.92445673854303,-22.016762039222638 L2.55129188898424,-21.967127756537934 L2.174669450018261,-21.924289832993047 L1.7950998319831253,-21.888306323862373 L1.4130974393247844,-21.859225995106613 L1.0291799734603517,-21.83708825728365 L0.6438677311731614,-21.82192311213814 L0.2576828994905471,-21.813751111942224 L-0.12885115200009448,-21.812583331642458 L-0.5152105804379278,-21.81842135385069 L-0.9008717796166608,-21.83125726669929 L-1.2853120895918062,-21.85107367456351 L-1.6680105050055754,-21.87784372163661 L-2.04844838116938,-21.91153112832565 L-2.4261101369470834,-21.952090240418734 L-2.800483953486473,-21.999466090956986 L-3.1710624678519377,-22.05359447472748 L-3.5373434606183483,-22.114402035276104 L-3.8988305364943265,-22.18180636432252 L-4.2550337970524295,-22.255716113442382 L-4.605470504654579,-22.336031117865538 L-4.949665736673017,-22.422642532222422 L-5.28715302912008,-22.515432978054648 L-5.61747500881456,-22.614276702889907 L-5.940184013227974,-22.719039750665623 L-6.098546560005564,-22.773596960669494 L-6.254842697170588,-22.829580143270306 L-6.409019465901289,-22.88697032932754 L-6.561024625495097,-22.945748072956675 L-6.710806671069687,-23.005893458118173 L-6.858314851014699,-23.067386105365745 L-7.003499184188239,-23.130205178751655 L-7.146310476852303,-23.194329392886704 L-7.286700339341413,-23.259737020152485 L-7.424621202458725,-23.32640589806346 " />
			<path d="M18.000000000000004,-3.4815531191139573 L18.000000000000004,0.0 " />
			<path d="M-18.000000000000004,-3.4815531191139573 L-18.000000000000004,0.0 " />
			<path d="M18.000000000000004,-6.9631062382279145 L18.000000000000004,-3.4815531191139573 " />
			<path d="M-18.000000000000004,-6.9631062382279145 L-18.000000000000004,-3.4815531191139573 " />
			<path d="M14.100000000000001,-9.574271077563383 L14.100000000000001,-6.9631062382279145 " />
			<path d="M-14.100000000000001,-9.574271077563383 L-14.100000000000001,-6.9631062382279145 " />
			<path d="M12.500000000000002,-26.982036673133166 L12.500000000000002,-9.574271077563383 " />
			<path d="M-12.500000000000002,-26.982036673133166 L-12.500000000000002,-9.574271077563383 " />

       </g>
    </g>
    
</svg>
