<?xml version="1.0" encoding="utf-8" standalone="no"?>
<!DOCTYPE svg PUBLIC "-//W3C//DTD SVG 1.1//EN"
  "http://www.w3.org/Graphics/SVG/1.1/DTD/svg11.dtd">
<svg xmlns:xlink="http://www.w3.org/1999/xlink" width="640.43512pt" height="337.074375pt" viewBox="0 0 640.43512 337.074375" xmlns="http://www.w3.org/2000/svg" version="1.1">
 <metadata>
  <rdf:RDF xmlns:dc="http://purl.org/dc/elements/1.1/" xmlns:cc="http://creativecommons.org/ns#" xmlns:rdf="http://www.w3.org/1999/02/22-rdf-syntax-ns#">
   <cc:Work>
    <dc:type rdf:resource="http://purl.org/dc/dcmitype/StillImage"/>
    <dc:date>2026-05-15T20:18:25.426923</dc:date>
    <dc:format>image/svg+xml</dc:format>
    <dc:creator>
     <cc:Agent>
      <dc:title>Matplotlib v3.10.9, https://matplotlib.org/</dc:title>
     </cc:Agent>
    </dc:creator>
   </cc:Work>
  </rdf:RDF>
 </metadata>
 <defs>
  <style type="text/css">*{stroke-linejoin: round; stroke-linecap: butt}</style>
 </defs>
 <g id="figure_1">
  <g id="patch_1">
   <path d="M 0 337.074375 
L 640.43512 337.074375 
L 640.43512 0 
L 0 0 
z
" style="fill: #ffffff"/>
  </g>
  <g id="axes_1">
   <g id="patch_2">
    <path d="M 48.982813 299.518125 
L 633.23512 299.518125 
L 633.23512 22.318125 
L 48.982813 22.318125 
z
" style="fill: #ffffff"/>
   </g>
   <g id="patch_3">
    <path d="M 87.364351 239.81351 
L 594.853582 239.81351 
Q 607.647428 239.81351 607.647428 227.019663 
L 607.647428 82.02274 
Q 607.647428 69.228894 594.853582 69.228894 
L 87.364351 69.228894 
Q 74.570505 69.228894 74.570505 82.02274 
L 74.570505 227.019663 
Q 74.570505 239.81351 87.364351 239.81351 
z
" clip-path="url(#pb7cb089d86)" style="fill: #eef2fa; stroke: #000000; stroke-linejoin: miter"/>
   </g>
   <g id="patch_4">
    <path d="M 74.570505 187.571971 
L 125.745889 187.571971 
L 125.745889 121.470433 
L 74.570505 121.470433 
z
" clip-path="url(#pb7cb089d86)" style="fill: #ffffff; stroke: #000000; stroke-width: 0.8; stroke-linejoin: miter"/>
   </g>
   <g id="patch_5">
    <path d="M 98.025889 204.630433 
L 127.878197 204.630433 
L 127.878197 191.836587 
L 98.025889 191.836587 
z
" clip-path="url(#pb7cb089d86)" style="fill: #fadbd8; stroke: #c0392b; stroke-width: 0.6; stroke-linejoin: miter"/>
   </g>
   <g id="patch_6">
    <path d="M 98.025889 117.205817 
L 127.878197 117.205817 
L 127.878197 104.411971 
L 98.025889 104.411971 
z
" clip-path="url(#pb7cb089d86)" style="fill: #fadbd8; stroke: #c0392b; stroke-width: 0.6; stroke-linejoin: miter"/>
   </g>
   <g id="patch_7">
    <path d="M 108.687428 177.336894 
C 109.648769 177.336894 110.570865 176.954949 111.250636 176.275179 
C 111.930406 175.595408 112.312351 174.673312 112.312351 173.711971 
C 112.312351 172.75063 111.930406 171.828534 111.250636 171.148763 
C 110.570865 170.468993 109.648769 170.087048 108.687428 170.087048 
C 107.726087 170.087048 106.803991 170.468993 106.12422 171.148763 
C 105.44445 171.828534 105.062505 172.75063 105.062505 173.711971 
C 105.062505 174.673312 105.44445 175.595408 106.12422 176.275179 
C 106.803991 176.954949 107.726087 177.336894 108.687428 177.336894 
z
" clip-path="url(#pb7cb089d86)" style="fill: #ffffff; stroke: #000000; stroke-width: 0.6; stroke-linejoin: miter"/>
   </g>
   <g id="patch_8">
    <path d="M 108.687428 138.955356 
C 109.648769 138.955356 110.570865 138.573411 111.250636 137.89364 
C 111.930406 137.21387 112.312351 136.291774 112.312351 135.330433 
C 112.312351 134.369092 111.930406 133.446996 111.250636 132.767225 
C 110.570865 132.087454 109.648769 131.70551 108.687428 131.70551 
C 107.726087 131.70551 106.803991 132.087454 106.12422 132.767225 
C 105.44445 133.446996 105.062505 134.369092 105.062505 135.330433 
C 105.062505 136.291774 105.44445 137.21387 106.12422 137.89364 
C 106.803991 138.573411 107.726087 138.955356 108.687428 138.955356 
z
" clip-path="url(#pb7cb089d86)" style="fill: #ffffff; stroke: #000000; stroke-width: 0.6; stroke-linejoin: miter"/>
   </g>
   <g id="patch_9">
    <path d="M 189.71512 177.336894 
C 190.676461 177.336894 191.598557 176.954949 192.278328 176.275179 
C 192.958099 175.595408 193.340043 174.673312 193.340043 173.711971 
C 193.340043 172.75063 192.958099 171.828534 192.278328 171.148763 
C 191.598557 170.468993 190.676461 170.087048 189.71512 170.087048 
C 188.753779 170.087048 187.831683 170.468993 187.151913 171.148763 
C 186.472142 171.828534 186.090197 172.75063 186.090197 173.711971 
C 186.090197 174.673312 186.472142 175.595408 187.151913 176.275179 
C 187.831683 176.954949 188.753779 177.336894 189.71512 177.336894 
z
" clip-path="url(#pb7cb089d86)" style="fill: #ffffff; stroke: #000000; stroke-width: 0.6; stroke-linejoin: miter"/>
   </g>
   <g id="patch_10">
    <path d="M 189.71512 138.955356 
C 190.676461 138.955356 191.598557 138.573411 192.278328 137.89364 
C 192.958099 137.21387 193.340043 136.291774 193.340043 135.330433 
C 193.340043 134.369092 192.958099 133.446996 192.278328 132.767225 
C 191.598557 132.087454 190.676461 131.70551 189.71512 131.70551 
C 188.753779 131.70551 187.831683 132.087454 187.151913 132.767225 
C 186.472142 133.446996 186.090197 134.369092 186.090197 135.330433 
C 186.090197 136.291774 186.472142 137.21387 187.151913 137.89364 
C 187.831683 138.573411 188.753779 138.955356 189.71512 138.955356 
z
" clip-path="url(#pb7cb089d86)" style="fill: #ffffff; stroke: #000000; stroke-width: 0.6; stroke-linejoin: miter"/>
   </g>
   <g id="patch_11">
    <path d="M 117.216659 207.828894 
L 181.185889 207.828894 
L 181.185889 101.21351 
L 117.216659 101.21351 
L 117.216659 207.828894 
z
" clip-path="url(#pb7cb089d86)" style="fill: none; stroke-dasharray: 0.4,0.66; stroke-dashoffset: 0; stroke: #1f6f3f; stroke-width: 0.4; stroke-linejoin: miter"/>
   </g>
   <g id="patch_12">
    <path d="M 236.625889 177.336894 
C 237.58723 177.336894 238.509326 176.954949 239.189097 176.275179 
C 239.868868 175.595408 240.250812 174.673312 240.250812 173.711971 
C 240.250812 172.75063 239.868868 171.828534 239.189097 171.148763 
C 238.509326 170.468993 237.58723 170.087048 236.625889 170.087048 
C 235.664549 170.087048 234.742452 170.468993 234.062682 171.148763 
C 233.382911 171.828534 233.000966 172.75063 233.000966 173.711971 
C 233.000966 174.673312 233.382911 175.595408 234.062682 176.275179 
C 234.742452 176.954949 235.664549 177.336894 236.625889 177.336894 
z
" clip-path="url(#pb7cb089d86)" style="fill: #ffffff; stroke: #000000; stroke-width: 0.6; stroke-linejoin: miter"/>
   </g>
   <g id="patch_13">
    <path d="M 236.625889 138.955356 
C 237.58723 138.955356 238.509326 138.573411 239.189097 137.89364 
C 239.868868 137.21387 240.250812 136.291774 240.250812 135.330433 
C 240.250812 134.369092 239.868868 133.446996 239.189097 132.767225 
C 238.509326 132.087454 237.58723 131.70551 236.625889 131.70551 
C 235.664549 131.70551 234.742452 132.087454 234.062682 132.767225 
C 233.382911 133.446996 233.000966 134.369092 233.000966 135.330433 
C 233.000966 136.291774 233.382911 137.21387 234.062682 137.89364 
C 234.742452 138.573411 235.664549 138.955356 236.625889 138.955356 
z
" clip-path="url(#pb7cb089d86)" style="fill: #ffffff; stroke: #000000; stroke-width: 0.6; stroke-linejoin: miter"/>
   </g>
   <g id="patch_14">
    <path d="M 317.653582 177.336894 
C 318.614923 177.336894 319.537019 176.954949 320.216789 176.275179 
C 320.89656 175.595408 321.278505 174.673312 321.278505 173.711971 
C 321.278505 172.75063 320.89656 171.828534 320.216789 171.148763 
C 319.537019 170.468993 318.614923 170.087048 317.653582 170.087048 
C 316.692241 170.087048 315.770145 170.468993 315.090374 171.148763 
C 314.410603 171.828534 314.028659 172.75063 314.028659 173.711971 
C 314.028659 174.673312 314.410603 175.595408 315.090374 176.275179 
C 315.770145 176.954949 316.692241 177.336894 317.653582 177.336894 
z
" clip-path="url(#pb7cb089d86)" style="fill: #ffffff; stroke: #000000; stroke-width: 0.6; stroke-linejoin: miter"/>
   </g>
   <g id="patch_15">
    <path d="M 317.653582 138.955356 
C 318.614923 138.955356 319.537019 138.573411 320.216789 137.89364 
C 320.89656 137.21387 321.278505 136.291774 321.278505 135.330433 
C 321.278505 134.369092 320.89656 133.446996 320.216789 132.767225 
C 319.537019 132.087454 318.614923 131.70551 317.653582 131.70551 
C 316.692241 131.70551 315.770145 132.087454 315.090374 132.767225 
C 314.410603 133.446996 314.028659 134.369092 314.028659 135.330433 
C 314.028659 136.291774 314.410603 137.21387 315.090374 137.89364 
C 315.770145 138.573411 316.692241 138.955356 317.653582 138.955356 
z
" clip-path="url(#pb7cb089d86)" style="fill: #ffffff; stroke: #000000; stroke-width: 0.6; stroke-linejoin: miter"/>
   </g>
   <g id="patch_16">
    <path d="M 245.15512 207.828894 
L 309.124351 207.828894 
L 309.124351 101.21351 
L 245.15512 101.21351 
L 245.15512 207.828894 
z
" clip-path="url(#pb7cb089d86)" style="fill: none; stroke-dasharray: 0.4,0.66; stroke-dashoffset: 0; stroke: #7e3f8b; stroke-width: 0.4; stroke-linejoin: miter"/>
   </g>
   <g id="patch_17">
    <path d="M 364.564351 177.336894 
C 365.525692 177.336894 366.447788 176.954949 367.127559 176.275179 
C 367.807329 175.595408 368.189274 174.673312 368.189274 173.711971 
C 368.189274 172.75063 367.807329 171.828534 367.127559 171.148763 
C 366.447788 170.468993 365.525692 170.087048 364.564351 170.087048 
C 363.60301 170.087048 362.680914 170.468993 362.001143 171.148763 
C 361.321373 171.828534 360.939428 172.75063 360.939428 173.711971 
C 360.939428 174.673312 361.321373 175.595408 362.001143 176.275179 
C 362.680914 176.954949 363.60301 177.336894 364.564351 177.336894 
z
" clip-path="url(#pb7cb089d86)" style="fill: #ffffff; stroke: #000000; stroke-width: 0.6; stroke-linejoin: miter"/>
   </g>
   <g id="patch_18">
    <path d="M 364.564351 138.955356 
C 365.525692 138.955356 366.447788 138.573411 367.127559 137.89364 
C 367.807329 137.21387 368.189274 136.291774 368.189274 135.330433 
C 368.189274 134.369092 367.807329 133.446996 367.127559 132.767225 
C 366.447788 132.087454 365.525692 131.70551 364.564351 131.70551 
C 363.60301 131.70551 362.680914 132.087454 362.001143 132.767225 
C 361.321373 133.446996 360.939428 134.369092 360.939428 135.330433 
C 360.939428 136.291774 361.321373 137.21387 362.001143 137.89364 
C 362.680914 138.573411 363.60301 138.955356 364.564351 138.955356 
z
" clip-path="url(#pb7cb089d86)" style="fill: #ffffff; stroke: #000000; stroke-width: 0.6; stroke-linejoin: miter"/>
   </g>
   <g id="patch_19">
    <path d="M 445.592043 177.336894 
C 446.553384 177.336894 447.47548 176.954949 448.155251 176.275179 
C 448.835022 175.595408 449.216966 174.673312 449.216966 173.711971 
C 449.216966 172.75063 448.835022 171.828534 448.155251 171.148763 
C 447.47548 170.468993 446.553384 170.087048 445.592043 170.087048 
C 444.630702 170.087048 443.708606 170.468993 443.028836 171.148763 
C 442.349065 171.828534 441.96712 172.75063 441.96712 173.711971 
C 441.96712 174.673312 442.349065 175.595408 443.028836 176.275179 
C 443.708606 176.954949 444.630702 177.336894 445.592043 177.336894 
z
" clip-path="url(#pb7cb089d86)" style="fill: #ffffff; stroke: #000000; stroke-width: 0.6; stroke-linejoin: miter"/>
   </g>
   <g id="patch_20">
    <path d="M 445.592043 138.955356 
C 446.553384 138.955356 447.47548 138.573411 448.155251 137.89364 
C 448.835022 137.21387 449.216966 136.291774 449.216966 135.330433 
C 449.216966 134.369092 448.835022 133.446996 448.155251 132.767225 
C 447.47548 132.087454 446.553384 131.70551 445.592043 131.70551 
C 444.630702 131.70551 443.708606 132.087454 443.028836 132.767225 
C 442.349065 133.446996 441.96712 134.369092 441.96712 135.330433 
C 441.96712 136.291774 442.349065 137.21387 443.028836 137.89364 
C 443.708606 138.573411 444.630702 138.955356 445.592043 138.955356 
z
" clip-path="url(#pb7cb089d86)" style="fill: #ffffff; stroke: #000000; stroke-width: 0.6; stroke-linejoin: miter"/>
   </g>
   <g id="patch_21">
    <path d="M 373.093582 207.828894 
L 437.062812 207.828894 
L 437.062812 101.21351 
L 373.093582 101.21351 
L 373.093582 207.828894 
z
" clip-path="url(#pb7cb089d86)" style="fill: none; stroke-dasharray: 0.4,0.66; stroke-dashoffset: 0; stroke: #1f6f3f; stroke-width: 0.4; stroke-linejoin: miter"/>
   </g>
   <g id="patch_22">
    <path d="M 499.965889 191.196894 
C 500.92723 191.196894 501.849326 190.814949 502.529097 190.135179 
C 503.208868 189.455408 503.590812 188.533312 503.590812 187.571971 
C 503.590812 186.61063 503.208868 185.688534 502.529097 185.008763 
C 501.849326 184.328993 500.92723 183.947048 499.965889 183.947048 
C 499.004549 183.947048 498.082452 184.328993 497.402682 185.008763 
C 496.722911 185.688534 496.340966 186.61063 496.340966 187.571971 
C 496.340966 188.533312 496.722911 189.455408 497.402682 190.135179 
C 498.082452 190.814949 499.004549 191.196894 499.965889 191.196894 
z
" clip-path="url(#pb7cb089d86)" style="fill: #ffffff; stroke: #000000; stroke-width: 0.6; stroke-linejoin: miter"/>
   </g>
   <g id="patch_23">
    <path d="M 499.965889 125.095356 
C 500.92723 125.095356 501.849326 124.713411 502.529097 124.03364 
C 503.208868 123.35387 503.590812 122.431774 503.590812 121.470433 
C 503.590812 120.509092 503.208868 119.586996 502.529097 118.907225 
C 501.849326 118.227454 500.92723 117.84551 499.965889 117.84551 
C 499.004549 117.84551 498.082452 118.227454 497.402682 118.907225 
C 496.722911 119.586996 496.340966 120.509092 496.340966 121.470433 
C 496.340966 122.431774 496.722911 123.35387 497.402682 124.03364 
C 498.082452 124.713411 499.004549 125.095356 499.965889 125.095356 
z
" clip-path="url(#pb7cb089d86)" style="fill: #ffffff; stroke: #000000; stroke-width: 0.6; stroke-linejoin: miter"/>
   </g>
   <g id="patch_24">
    <path d="M 566.067428 191.196894 
C 567.028769 191.196894 567.950865 190.814949 568.630636 190.135179 
C 569.310406 189.455408 569.692351 188.533312 569.692351 187.571971 
C 569.692351 186.61063 569.310406 185.688534 568.630636 185.008763 
C 567.950865 184.328993 567.028769 183.947048 566.067428 183.947048 
C 565.106087 183.947048 564.183991 184.328993 563.50422 185.008763 
C 562.82445 185.688534 562.442505 186.61063 562.442505 187.571971 
C 562.442505 188.533312 562.82445 189.455408 563.50422 190.135179 
C 564.183991 190.814949 565.106087 191.196894 566.067428 191.196894 
z
" clip-path="url(#pb7cb089d86)" style="fill: #ffffff; stroke: #000000; stroke-width: 0.6; stroke-linejoin: miter"/>
   </g>
   <g id="patch_25">
    <path d="M 566.067428 125.095356 
C 567.028769 125.095356 567.950865 124.713411 568.630636 124.03364 
C 569.310406 123.35387 569.692351 122.431774 569.692351 121.470433 
C 569.692351 120.509092 569.310406 119.586996 568.630636 118.907225 
C 567.950865 118.227454 567.028769 117.84551 566.067428 117.84551 
C 565.106087 117.84551 564.183991 118.227454 563.50422 118.907225 
C 562.82445 119.586996 562.442505 120.509092 562.442505 121.470433 
C 562.442505 122.431774 562.82445 123.35387 563.50422 124.03364 
C 564.183991 124.713411 565.106087 125.095356 566.067428 125.095356 
z
" clip-path="url(#pb7cb089d86)" style="fill: #ffffff; stroke: #000000; stroke-width: 0.6; stroke-linejoin: miter"/>
   </g>
   <g id="patch_26">
    <path d="M 533.016659 178.403048 
C 539.350198 178.403048 545.425185 175.886706 549.903674 171.408217 
C 554.382163 166.929728 556.898505 160.854742 556.898505 154.521202 
C 556.898505 148.187662 554.382163 142.112675 549.903674 137.634187 
C 545.425185 133.155698 539.350198 130.639356 533.016659 130.639356 
C 526.683119 130.639356 520.608132 133.155698 516.129643 137.634187 
C 511.651154 142.112675 509.134812 148.187662 509.134812 154.521202 
C 509.134812 160.854742 511.651154 166.929728 516.129643 171.408217 
C 520.608132 175.886706 526.683119 178.403048 533.016659 178.403048 
z
" clip-path="url(#pb7cb089d86)" style="fill: #ffffff; stroke-dasharray: 2.22,0.96; stroke-dashoffset: 0; stroke: #0b3d8a; stroke-width: 0.6; stroke-linejoin: miter"/>
   </g>
   <g id="patch_27">
    <path d="M 487.918351 199.61951 
L 578.114966 199.61951 
L 578.114966 109.422894 
L 487.918351 109.422894 
L 487.918351 199.61951 
z
" clip-path="url(#pb7cb089d86)" style="fill: none; stroke-dasharray: 0.4,0.66; stroke-dashoffset: 0; stroke: #0b3d8a; stroke-width: 0.4; stroke-linejoin: miter"/>
   </g>
   <g id="patch_28">
    <path d="M 230.228966 157.719663 
C 231.077208 157.719663 231.890823 157.382653 232.49062 156.782856 
C 233.090418 156.183058 233.427428 155.369444 233.427428 154.521202 
C 233.427428 153.67296 233.090418 152.859346 232.49062 152.259548 
C 231.890823 151.65975 231.077208 151.32274 230.228966 151.32274 
C 229.380724 151.32274 228.56711 151.65975 227.967313 152.259548 
C 227.367515 152.859346 227.030505 153.67296 227.030505 154.521202 
C 227.030505 155.369444 227.367515 156.183058 227.967313 156.782856 
C 228.56711 157.382653 229.380724 157.719663 230.228966 157.719663 
z
" clip-path="url(#pb7cb089d86)" style="fill: #a04000; stroke: #a04000; stroke-linejoin: miter"/>
   </g>
   <g id="matplotlib.axis_1">
    <g id="xtick_1">
     <g id="line2d_1">
      <path d="M 74.570505 299.518125 
L 74.570505 22.318125 
" clip-path="url(#pb7cb089d86)" style="fill: none; stroke-dasharray: 0.3,0.495; stroke-dashoffset: 0; stroke: #b0b0b0; stroke-opacity: 0.5; stroke-width: 0.3"/>
     </g>
     <g id="line2d_2">
      <defs>
       <path id="m53aa320d6b" d="M 0 0 
L 0 3.5 
" style="stroke: #000000; stroke-width: 0.8"/>
      </defs>
      <g>
       <use xlink:href="#m53aa320d6b" x="74.570505" y="299.518125" style="stroke: #000000; stroke-width: 0.8"/>
      </g>
     </g>
     <g id="text_1">
      <!-- 0 -->
      <g transform="translate(71.389255 314.116563) scale(0.1 -0.1)">
       <defs>
        <path id="DejaVuSans-30" d="M 2034 4250 
Q 1547 4250 1301 3770 
Q 1056 3291 1056 2328 
Q 1056 1369 1301 889 
Q 1547 409 2034 409 
Q 2525 409 2770 889 
Q 3016 1369 3016 2328 
Q 3016 3291 2770 3770 
Q 2525 4250 2034 4250 
z
M 2034 4750 
Q 2819 4750 3233 4129 
Q 3647 3509 3647 2328 
Q 3647 1150 3233 529 
Q 2819 -91 2034 -91 
Q 1250 -91 836 529 
Q 422 1150 422 2328 
Q 422 3509 836 4129 
Q 1250 4750 2034 4750 
z
" transform="scale(0.015625)"/>
       </defs>
       <use xlink:href="#DejaVuSans-30"/>
      </g>
     </g>
    </g>
    <g id="xtick_2">
     <g id="line2d_3">
      <path d="M 181.185889 299.518125 
L 181.185889 22.318125 
" clip-path="url(#pb7cb089d86)" style="fill: none; stroke-dasharray: 0.3,0.495; stroke-dashoffset: 0; stroke: #b0b0b0; stroke-opacity: 0.5; stroke-width: 0.3"/>
     </g>
     <g id="line2d_4">
      <g>
       <use xlink:href="#m53aa320d6b" x="181.185889" y="299.518125" style="stroke: #000000; stroke-width: 0.8"/>
      </g>
     </g>
     <g id="text_2">
      <!-- 50 -->
      <g transform="translate(174.823389 314.116563) scale(0.1 -0.1)">
       <defs>
        <path id="DejaVuSans-35" d="M 691 4666 
L 3169 4666 
L 3169 4134 
L 1269 4134 
L 1269 2991 
Q 1406 3038 1543 3061 
Q 1681 3084 1819 3084 
Q 2600 3084 3056 2656 
Q 3513 2228 3513 1497 
Q 3513 744 3044 326 
Q 2575 -91 1722 -91 
Q 1428 -91 1123 -41 
Q 819 9 494 109 
L 494 744 
Q 775 591 1075 516 
Q 1375 441 1709 441 
Q 2250 441 2565 725 
Q 2881 1009 2881 1497 
Q 2881 1984 2565 2268 
Q 2250 2553 1709 2553 
Q 1456 2553 1204 2497 
Q 953 2441 691 2322 
L 691 4666 
z
" transform="scale(0.015625)"/>
       </defs>
       <use xlink:href="#DejaVuSans-35"/>
       <use xlink:href="#DejaVuSans-30" transform="translate(63.623047 0)"/>
      </g>
     </g>
    </g>
    <g id="xtick_3">
     <g id="line2d_5">
      <path d="M 287.801274 299.518125 
L 287.801274 22.318125 
" clip-path="url(#pb7cb089d86)" style="fill: none; stroke-dasharray: 0.3,0.495; stroke-dashoffset: 0; stroke: #b0b0b0; stroke-opacity: 0.5; stroke-width: 0.3"/>
     </g>
     <g id="line2d_6">
      <g>
       <use xlink:href="#m53aa320d6b" x="287.801274" y="299.518125" style="stroke: #000000; stroke-width: 0.8"/>
      </g>
     </g>
     <g id="text_3">
      <!-- 100 -->
      <g transform="translate(278.257524 314.116563) scale(0.1 -0.1)">
       <defs>
        <path id="DejaVuSans-31" d="M 794 531 
L 1825 531 
L 1825 4091 
L 703 3866 
L 703 4441 
L 1819 4666 
L 2450 4666 
L 2450 531 
L 3481 531 
L 3481 0 
L 794 0 
L 794 531 
z
" transform="scale(0.015625)"/>
       </defs>
       <use xlink:href="#DejaVuSans-31"/>
       <use xlink:href="#DejaVuSans-30" transform="translate(63.623047 0)"/>
       <use xlink:href="#DejaVuSans-30" transform="translate(127.246094 0)"/>
      </g>
     </g>
    </g>
    <g id="xtick_4">
     <g id="line2d_7">
      <path d="M 394.416659 299.518125 
L 394.416659 22.318125 
" clip-path="url(#pb7cb089d86)" style="fill: none; stroke-dasharray: 0.3,0.495; stroke-dashoffset: 0; stroke: #b0b0b0; stroke-opacity: 0.5; stroke-width: 0.3"/>
     </g>
     <g id="line2d_8">
      <g>
       <use xlink:href="#m53aa320d6b" x="394.416659" y="299.518125" style="stroke: #000000; stroke-width: 0.8"/>
      </g>
     </g>
     <g id="text_4">
      <!-- 150 -->
      <g transform="translate(384.872909 314.116563) scale(0.1 -0.1)">
       <use xlink:href="#DejaVuSans-31"/>
       <use xlink:href="#DejaVuSans-35" transform="translate(63.623047 0)"/>
       <use xlink:href="#DejaVuSans-30" transform="translate(127.246094 0)"/>
      </g>
     </g>
    </g>
    <g id="xtick_5">
     <g id="line2d_9">
      <path d="M 501.032043 299.518125 
L 501.032043 22.318125 
" clip-path="url(#pb7cb089d86)" style="fill: none; stroke-dasharray: 0.3,0.495; stroke-dashoffset: 0; stroke: #b0b0b0; stroke-opacity: 0.5; stroke-width: 0.3"/>
     </g>
     <g id="line2d_10">
      <g>
       <use xlink:href="#m53aa320d6b" x="501.032043" y="299.518125" style="stroke: #000000; stroke-width: 0.8"/>
      </g>
     </g>
     <g id="text_5">
      <!-- 200 -->
      <g transform="translate(491.488293 314.116563) scale(0.1 -0.1)">
       <defs>
        <path id="DejaVuSans-32" d="M 1228 531 
L 3431 531 
L 3431 0 
L 469 0 
L 469 531 
Q 828 903 1448 1529 
Q 2069 2156 2228 2338 
Q 2531 2678 2651 2914 
Q 2772 3150 2772 3378 
Q 2772 3750 2511 3984 
Q 2250 4219 1831 4219 
Q 1534 4219 1204 4116 
Q 875 4013 500 3803 
L 500 4441 
Q 881 4594 1212 4672 
Q 1544 4750 1819 4750 
Q 2544 4750 2975 4387 
Q 3406 4025 3406 3419 
Q 3406 3131 3298 2873 
Q 3191 2616 2906 2266 
Q 2828 2175 2409 1742 
Q 1991 1309 1228 531 
z
" transform="scale(0.015625)"/>
       </defs>
       <use xlink:href="#DejaVuSans-32"/>
       <use xlink:href="#DejaVuSans-30" transform="translate(63.623047 0)"/>
       <use xlink:href="#DejaVuSans-30" transform="translate(127.246094 0)"/>
      </g>
     </g>
    </g>
    <g id="xtick_6">
     <g id="line2d_11">
      <path d="M 607.647428 299.518125 
L 607.647428 22.318125 
" clip-path="url(#pb7cb089d86)" style="fill: none; stroke-dasharray: 0.3,0.495; stroke-dashoffset: 0; stroke: #b0b0b0; stroke-opacity: 0.5; stroke-width: 0.3"/>
     </g>
     <g id="line2d_12">
      <g>
       <use xlink:href="#m53aa320d6b" x="607.647428" y="299.518125" style="stroke: #000000; stroke-width: 0.8"/>
      </g>
     </g>
     <g id="text_6">
      <!-- 250 -->
      <g transform="translate(598.103678 314.116563) scale(0.1 -0.1)">
       <use xlink:href="#DejaVuSans-32"/>
       <use xlink:href="#DejaVuSans-35" transform="translate(63.623047 0)"/>
       <use xlink:href="#DejaVuSans-30" transform="translate(127.246094 0)"/>
      </g>
     </g>
    </g>
    <g id="text_7">
     <!-- X — auger long axis (mm) -->
     <g transform="translate(275.74881 327.794688) scale(0.1 -0.1)">
      <defs>
       <path id="DejaVuSans-58" d="M 403 4666 
L 1081 4666 
L 2241 2931 
L 3406 4666 
L 4084 4666 
L 2584 2425 
L 4184 0 
L 3506 0 
L 2194 1984 
L 872 0 
L 191 0 
L 1856 2491 
L 403 4666 
z
" transform="scale(0.015625)"/>
       <path id="DejaVuSans-20" transform="scale(0.015625)"/>
       <path id="DejaVuSans-2014" d="M 313 1978 
L 6088 1978 
L 6088 1528 
L 313 1528 
L 313 1978 
z
" transform="scale(0.015625)"/>
       <path id="DejaVuSans-61" d="M 2194 1759 
Q 1497 1759 1228 1600 
Q 959 1441 959 1056 
Q 959 750 1161 570 
Q 1363 391 1709 391 
Q 2188 391 2477 730 
Q 2766 1069 2766 1631 
L 2766 1759 
L 2194 1759 
z
M 3341 1997 
L 3341 0 
L 2766 0 
L 2766 531 
Q 2569 213 2275 61 
Q 1981 -91 1556 -91 
Q 1019 -91 701 211 
Q 384 513 384 1019 
Q 384 1609 779 1909 
Q 1175 2209 1959 2209 
L 2766 2209 
L 2766 2266 
Q 2766 2663 2505 2880 
Q 2244 3097 1772 3097 
Q 1472 3097 1187 3025 
Q 903 2953 641 2809 
L 641 3341 
Q 956 3463 1253 3523 
Q 1550 3584 1831 3584 
Q 2591 3584 2966 3190 
Q 3341 2797 3341 1997 
z
" transform="scale(0.015625)"/>
       <path id="DejaVuSans-75" d="M 544 1381 
L 544 3500 
L 1119 3500 
L 1119 1403 
Q 1119 906 1312 657 
Q 1506 409 1894 409 
Q 2359 409 2629 706 
Q 2900 1003 2900 1516 
L 2900 3500 
L 3475 3500 
L 3475 0 
L 2900 0 
L 2900 538 
Q 2691 219 2414 64 
Q 2138 -91 1772 -91 
Q 1169 -91 856 284 
Q 544 659 544 1381 
z
M 1991 3584 
L 1991 3584 
z
" transform="scale(0.015625)"/>
       <path id="DejaVuSans-67" d="M 2906 1791 
Q 2906 2416 2648 2759 
Q 2391 3103 1925 3103 
Q 1463 3103 1205 2759 
Q 947 2416 947 1791 
Q 947 1169 1205 825 
Q 1463 481 1925 481 
Q 2391 481 2648 825 
Q 2906 1169 2906 1791 
z
M 3481 434 
Q 3481 -459 3084 -895 
Q 2688 -1331 1869 -1331 
Q 1566 -1331 1297 -1286 
Q 1028 -1241 775 -1147 
L 775 -588 
Q 1028 -725 1275 -790 
Q 1522 -856 1778 -856 
Q 2344 -856 2625 -561 
Q 2906 -266 2906 331 
L 2906 616 
Q 2728 306 2450 153 
Q 2172 0 1784 0 
Q 1141 0 747 490 
Q 353 981 353 1791 
Q 353 2603 747 3093 
Q 1141 3584 1784 3584 
Q 2172 3584 2450 3431 
Q 2728 3278 2906 2969 
L 2906 3500 
L 3481 3500 
L 3481 434 
z
" transform="scale(0.015625)"/>
       <path id="DejaVuSans-65" d="M 3597 1894 
L 3597 1613 
L 953 1613 
Q 991 1019 1311 708 
Q 1631 397 2203 397 
Q 2534 397 2845 478 
Q 3156 559 3463 722 
L 3463 178 
Q 3153 47 2828 -22 
Q 2503 -91 2169 -91 
Q 1331 -91 842 396 
Q 353 884 353 1716 
Q 353 2575 817 3079 
Q 1281 3584 2069 3584 
Q 2775 3584 3186 3129 
Q 3597 2675 3597 1894 
z
M 3022 2063 
Q 3016 2534 2758 2815 
Q 2500 3097 2075 3097 
Q 1594 3097 1305 2825 
Q 1016 2553 972 2059 
L 3022 2063 
z
" transform="scale(0.015625)"/>
       <path id="DejaVuSans-72" d="M 2631 2963 
Q 2534 3019 2420 3045 
Q 2306 3072 2169 3072 
Q 1681 3072 1420 2755 
Q 1159 2438 1159 1844 
L 1159 0 
L 581 0 
L 581 3500 
L 1159 3500 
L 1159 2956 
Q 1341 3275 1631 3429 
Q 1922 3584 2338 3584 
Q 2397 3584 2469 3576 
Q 2541 3569 2628 3553 
L 2631 2963 
z
" transform="scale(0.015625)"/>
       <path id="DejaVuSans-6c" d="M 603 4863 
L 1178 4863 
L 1178 0 
L 603 0 
L 603 4863 
z
" transform="scale(0.015625)"/>
       <path id="DejaVuSans-6f" d="M 1959 3097 
Q 1497 3097 1228 2736 
Q 959 2375 959 1747 
Q 959 1119 1226 758 
Q 1494 397 1959 397 
Q 2419 397 2687 759 
Q 2956 1122 2956 1747 
Q 2956 2369 2687 2733 
Q 2419 3097 1959 3097 
z
M 1959 3584 
Q 2709 3584 3137 3096 
Q 3566 2609 3566 1747 
Q 3566 888 3137 398 
Q 2709 -91 1959 -91 
Q 1206 -91 779 398 
Q 353 888 353 1747 
Q 353 2609 779 3096 
Q 1206 3584 1959 3584 
z
" transform="scale(0.015625)"/>
       <path id="DejaVuSans-6e" d="M 3513 2113 
L 3513 0 
L 2938 0 
L 2938 2094 
Q 2938 2591 2744 2837 
Q 2550 3084 2163 3084 
Q 1697 3084 1428 2787 
Q 1159 2491 1159 1978 
L 1159 0 
L 581 0 
L 581 3500 
L 1159 3500 
L 1159 2956 
Q 1366 3272 1645 3428 
Q 1925 3584 2291 3584 
Q 2894 3584 3203 3211 
Q 3513 2838 3513 2113 
z
" transform="scale(0.015625)"/>
       <path id="DejaVuSans-78" d="M 3513 3500 
L 2247 1797 
L 3578 0 
L 2900 0 
L 1881 1375 
L 863 0 
L 184 0 
L 1544 1831 
L 300 3500 
L 978 3500 
L 1906 2253 
L 2834 3500 
L 3513 3500 
z
" transform="scale(0.015625)"/>
       <path id="DejaVuSans-69" d="M 603 3500 
L 1178 3500 
L 1178 0 
L 603 0 
L 603 3500 
z
M 603 4863 
L 1178 4863 
L 1178 4134 
L 603 4134 
L 603 4863 
z
" transform="scale(0.015625)"/>
       <path id="DejaVuSans-73" d="M 2834 3397 
L 2834 2853 
Q 2591 2978 2328 3040 
Q 2066 3103 1784 3103 
Q 1356 3103 1142 2972 
Q 928 2841 928 2578 
Q 928 2378 1081 2264 
Q 1234 2150 1697 2047 
L 1894 2003 
Q 2506 1872 2764 1633 
Q 3022 1394 3022 966 
Q 3022 478 2636 193 
Q 2250 -91 1575 -91 
Q 1294 -91 989 -36 
Q 684 19 347 128 
L 347 722 
Q 666 556 975 473 
Q 1284 391 1588 391 
Q 1994 391 2212 530 
Q 2431 669 2431 922 
Q 2431 1156 2273 1281 
Q 2116 1406 1581 1522 
L 1381 1569 
Q 847 1681 609 1914 
Q 372 2147 372 2553 
Q 372 3047 722 3315 
Q 1072 3584 1716 3584 
Q 2034 3584 2315 3537 
Q 2597 3491 2834 3397 
z
" transform="scale(0.015625)"/>
       <path id="DejaVuSans-28" d="M 1984 4856 
Q 1566 4138 1362 3434 
Q 1159 2731 1159 2009 
Q 1159 1288 1364 580 
Q 1569 -128 1984 -844 
L 1484 -844 
Q 1016 -109 783 600 
Q 550 1309 550 2009 
Q 550 2706 781 3412 
Q 1013 4119 1484 4856 
L 1984 4856 
z
" transform="scale(0.015625)"/>
       <path id="DejaVuSans-6d" d="M 3328 2828 
Q 3544 3216 3844 3400 
Q 4144 3584 4550 3584 
Q 5097 3584 5394 3201 
Q 5691 2819 5691 2113 
L 5691 0 
L 5113 0 
L 5113 2094 
Q 5113 2597 4934 2840 
Q 4756 3084 4391 3084 
Q 3944 3084 3684 2787 
Q 3425 2491 3425 1978 
L 3425 0 
L 2847 0 
L 2847 2094 
Q 2847 2600 2669 2842 
Q 2491 3084 2119 3084 
Q 1678 3084 1418 2786 
Q 1159 2488 1159 1978 
L 1159 0 
L 581 0 
L 581 3500 
L 1159 3500 
L 1159 2956 
Q 1356 3278 1631 3431 
Q 1906 3584 2284 3584 
Q 2666 3584 2933 3390 
Q 3200 3197 3328 2828 
z
" transform="scale(0.015625)"/>
       <path id="DejaVuSans-29" d="M 513 4856 
L 1013 4856 
Q 1481 4119 1714 3412 
Q 1947 2706 1947 2009 
Q 1947 1309 1714 600 
Q 1481 -109 1013 -844 
L 513 -844 
Q 928 -128 1133 580 
Q 1338 1288 1338 2009 
Q 1338 2731 1133 3434 
Q 928 4138 513 4856 
z
" transform="scale(0.015625)"/>
      </defs>
      <use xlink:href="#DejaVuSans-58"/>
      <use xlink:href="#DejaVuSans-20" transform="translate(68.505859 0)"/>
      <use xlink:href="#DejaVuSans-2014" transform="translate(100.292969 0)"/>
      <use xlink:href="#DejaVuSans-20" transform="translate(200.292969 0)"/>
      <use xlink:href="#DejaVuSans-61" transform="translate(232.080078 0)"/>
      <use xlink:href="#DejaVuSans-75" transform="translate(293.359375 0)"/>
      <use xlink:href="#DejaVuSans-67" transform="translate(356.738281 0)"/>
      <use xlink:href="#DejaVuSans-65" transform="translate(420.214844 0)"/>
      <use xlink:href="#DejaVuSans-72" transform="translate(481.738281 0)"/>
      <use xlink:href="#DejaVuSans-20" transform="translate(522.851562 0)"/>
      <use xlink:href="#DejaVuSans-6c" transform="translate(554.638672 0)"/>
      <use xlink:href="#DejaVuSans-6f" transform="translate(582.421875 0)"/>
      <use xlink:href="#DejaVuSans-6e" transform="translate(643.603516 0)"/>
      <use xlink:href="#DejaVuSans-67" transform="translate(706.982422 0)"/>
      <use xlink:href="#DejaVuSans-20" transform="translate(770.458984 0)"/>
      <use xlink:href="#DejaVuSans-61" transform="translate(802.246094 0)"/>
      <use xlink:href="#DejaVuSans-78" transform="translate(863.525391 0)"/>
      <use xlink:href="#DejaVuSans-69" transform="translate(922.705078 0)"/>
      <use xlink:href="#DejaVuSans-73" transform="translate(950.488281 0)"/>
      <use xlink:href="#DejaVuSans-20" transform="translate(1002.587891 0)"/>
      <use xlink:href="#DejaVuSans-28" transform="translate(1034.375 0)"/>
      <use xlink:href="#DejaVuSans-6d" transform="translate(1073.388672 0)"/>
      <use xlink:href="#DejaVuSans-6d" transform="translate(1170.800781 0)"/>
      <use xlink:href="#DejaVuSans-29" transform="translate(1268.212891 0)"/>
     </g>
    </g>
   </g>
   <g id="matplotlib.axis_2">
    <g id="ytick_1">
     <g id="line2d_13">
      <path d="M 48.982813 282.459663 
L 633.23512 282.459663 
" clip-path="url(#pb7cb089d86)" style="fill: none; stroke-dasharray: 0.3,0.495; stroke-dashoffset: 0; stroke: #b0b0b0; stroke-opacity: 0.5; stroke-width: 0.3"/>
     </g>
     <g id="line2d_14">
      <defs>
       <path id="m91456e2d5c" d="M 0 0 
L -3.5 0 
" style="stroke: #000000; stroke-width: 0.8"/>
      </defs>
      <g>
       <use xlink:href="#m91456e2d5c" x="48.982813" y="282.459663" style="stroke: #000000; stroke-width: 0.8"/>
      </g>
     </g>
     <g id="text_8">
      <!-- −60 -->
      <g transform="translate(20.878125 286.258882) scale(0.1 -0.1)">
       <defs>
        <path id="DejaVuSans-2212" d="M 678 2272 
L 4684 2272 
L 4684 1741 
L 678 1741 
L 678 2272 
z
" transform="scale(0.015625)"/>
        <path id="DejaVuSans-36" d="M 2113 2584 
Q 1688 2584 1439 2293 
Q 1191 2003 1191 1497 
Q 1191 994 1439 701 
Q 1688 409 2113 409 
Q 2538 409 2786 701 
Q 3034 994 3034 1497 
Q 3034 2003 2786 2293 
Q 2538 2584 2113 2584 
z
M 3366 4563 
L 3366 3988 
Q 3128 4100 2886 4159 
Q 2644 4219 2406 4219 
Q 1781 4219 1451 3797 
Q 1122 3375 1075 2522 
Q 1259 2794 1537 2939 
Q 1816 3084 2150 3084 
Q 2853 3084 3261 2657 
Q 3669 2231 3669 1497 
Q 3669 778 3244 343 
Q 2819 -91 2113 -91 
Q 1303 -91 875 529 
Q 447 1150 447 2328 
Q 447 3434 972 4092 
Q 1497 4750 2381 4750 
Q 2619 4750 2861 4703 
Q 3103 4656 3366 4563 
z
" transform="scale(0.015625)"/>
       </defs>
       <use xlink:href="#DejaVuSans-2212"/>
       <use xlink:href="#DejaVuSans-36" transform="translate(83.789062 0)"/>
       <use xlink:href="#DejaVuSans-30" transform="translate(147.412109 0)"/>
      </g>
     </g>
    </g>
    <g id="ytick_2">
     <g id="line2d_15">
      <path d="M 48.982813 239.81351 
L 633.23512 239.81351 
" clip-path="url(#pb7cb089d86)" style="fill: none; stroke-dasharray: 0.3,0.495; stroke-dashoffset: 0; stroke: #b0b0b0; stroke-opacity: 0.5; stroke-width: 0.3"/>
     </g>
     <g id="line2d_16">
      <g>
       <use xlink:href="#m91456e2d5c" x="48.982813" y="239.81351" style="stroke: #000000; stroke-width: 0.8"/>
      </g>
     </g>
     <g id="text_9">
      <!-- −40 -->
      <g transform="translate(20.878125 243.612728) scale(0.1 -0.1)">
       <defs>
        <path id="DejaVuSans-34" d="M 2419 4116 
L 825 1625 
L 2419 1625 
L 2419 4116 
z
M 2253 4666 
L 3047 4666 
L 3047 1625 
L 3713 1625 
L 3713 1100 
L 3047 1100 
L 3047 0 
L 2419 0 
L 2419 1100 
L 313 1100 
L 313 1709 
L 2253 4666 
z
" transform="scale(0.015625)"/>
       </defs>
       <use xlink:href="#DejaVuSans-2212"/>
       <use xlink:href="#DejaVuSans-34" transform="translate(83.789062 0)"/>
       <use xlink:href="#DejaVuSans-30" transform="translate(147.412109 0)"/>
      </g>
     </g>
    </g>
    <g id="ytick_3">
     <g id="line2d_17">
      <path d="M 48.982813 197.167356 
L 633.23512 197.167356 
" clip-path="url(#pb7cb089d86)" style="fill: none; stroke-dasharray: 0.3,0.495; stroke-dashoffset: 0; stroke: #b0b0b0; stroke-opacity: 0.5; stroke-width: 0.3"/>
     </g>
     <g id="line2d_18">
      <g>
       <use xlink:href="#m91456e2d5c" x="48.982813" y="197.167356" style="stroke: #000000; stroke-width: 0.8"/>
      </g>
     </g>
     <g id="text_10">
      <!-- −20 -->
      <g transform="translate(20.878125 200.966575) scale(0.1 -0.1)">
       <use xlink:href="#DejaVuSans-2212"/>
       <use xlink:href="#DejaVuSans-32" transform="translate(83.789062 0)"/>
       <use xlink:href="#DejaVuSans-30" transform="translate(147.412109 0)"/>
      </g>
     </g>
    </g>
    <g id="ytick_4">
     <g id="line2d_19">
      <path d="M 48.982813 154.521202 
L 633.23512 154.521202 
" clip-path="url(#pb7cb089d86)" style="fill: none; stroke-dasharray: 0.3,0.495; stroke-dashoffset: 0; stroke: #b0b0b0; stroke-opacity: 0.5; stroke-width: 0.3"/>
     </g>
     <g id="line2d_20">
      <g>
       <use xlink:href="#m91456e2d5c" x="48.982813" y="154.521202" style="stroke: #000000; stroke-width: 0.8"/>
      </g>
     </g>
     <g id="text_11">
      <!-- 0 -->
      <g transform="translate(35.620313 158.320421) scale(0.1 -0.1)">
       <use xlink:href="#DejaVuSans-30"/>
      </g>
     </g>
    </g>
    <g id="ytick_5">
     <g id="line2d_21">
      <path d="M 48.982813 111.875048 
L 633.23512 111.875048 
" clip-path="url(#pb7cb089d86)" style="fill: none; stroke-dasharray: 0.3,0.495; stroke-dashoffset: 0; stroke: #b0b0b0; stroke-opacity: 0.5; stroke-width: 0.3"/>
     </g>
     <g id="line2d_22">
      <g>
       <use xlink:href="#m91456e2d5c" x="48.982813" y="111.875048" style="stroke: #000000; stroke-width: 0.8"/>
      </g>
     </g>
     <g id="text_12">
      <!-- 20 -->
      <g transform="translate(29.257813 115.674267) scale(0.1 -0.1)">
       <use xlink:href="#DejaVuSans-32"/>
       <use xlink:href="#DejaVuSans-30" transform="translate(63.623047 0)"/>
      </g>
     </g>
    </g>
    <g id="ytick_6">
     <g id="line2d_23">
      <path d="M 48.982813 69.228894 
L 633.23512 69.228894 
" clip-path="url(#pb7cb089d86)" style="fill: none; stroke-dasharray: 0.3,0.495; stroke-dashoffset: 0; stroke: #b0b0b0; stroke-opacity: 0.5; stroke-width: 0.3"/>
     </g>
     <g id="line2d_24">
      <g>
       <use xlink:href="#m91456e2d5c" x="48.982813" y="69.228894" style="stroke: #000000; stroke-width: 0.8"/>
      </g>
     </g>
     <g id="text_13">
      <!-- 40 -->
      <g transform="translate(29.257813 73.028113) scale(0.1 -0.1)">
       <use xlink:href="#DejaVuSans-34"/>
       <use xlink:href="#DejaVuSans-30" transform="translate(63.623047 0)"/>
      </g>
     </g>
    </g>
    <g id="ytick_7">
     <g id="line2d_25">
      <path d="M 48.982813 26.58274 
L 633.23512 26.58274 
" clip-path="url(#pb7cb089d86)" style="fill: none; stroke-dasharray: 0.3,0.495; stroke-dashoffset: 0; stroke: #b0b0b0; stroke-opacity: 0.5; stroke-width: 0.3"/>
     </g>
     <g id="line2d_26">
      <g>
       <use xlink:href="#m91456e2d5c" x="48.982813" y="26.58274" style="stroke: #000000; stroke-width: 0.8"/>
      </g>
     </g>
     <g id="text_14">
      <!-- 60 -->
      <g transform="translate(29.257813 30.381959) scale(0.1 -0.1)">
       <use xlink:href="#DejaVuSans-36"/>
       <use xlink:href="#DejaVuSans-30" transform="translate(63.623047 0)"/>
      </g>
     </g>
    </g>
    <g id="text_15">
     <!-- Y (mm) -->
     <g transform="translate(14.798438 179.203281) rotate(-90) scale(0.1 -0.1)">
      <defs>
       <path id="DejaVuSans-59" d="M -13 4666 
L 666 4666 
L 1959 2747 
L 3244 4666 
L 3922 4666 
L 2272 2222 
L 2272 0 
L 1638 0 
L 1638 2222 
L -13 4666 
z
" transform="scale(0.015625)"/>
      </defs>
      <use xlink:href="#DejaVuSans-59"/>
      <use xlink:href="#DejaVuSans-20" transform="translate(61.083984 0)"/>
      <use xlink:href="#DejaVuSans-28" transform="translate(92.871094 0)"/>
      <use xlink:href="#DejaVuSans-6d" transform="translate(131.884766 0)"/>
      <use xlink:href="#DejaVuSans-6d" transform="translate(229.296875 0)"/>
      <use xlink:href="#DejaVuSans-29" transform="translate(326.708984 0)"/>
     </g>
    </g>
   </g>
   <g id="line2d_27">
    <path d="M 112.952043 256.871971 
L 112.952043 52.170433 
" clip-path="url(#pb7cb089d86)" style="fill: none; stroke-dasharray: 2.96,1.28; stroke-dashoffset: 0; stroke: #c0392b; stroke-width: 0.8"/>
   </g>
   <g id="line2d_28">
    <defs>
     <path id="m6332025fab" d="M 0 1.25 
C 0.331504 1.25 0.649475 1.118292 0.883883 0.883883 
C 1.118292 0.649475 1.25 0.331504 1.25 0 
C 1.25 -0.331504 1.118292 -0.649475 0.883883 -0.883883 
C 0.649475 -1.118292 0.331504 -1.25 0 -1.25 
C -0.331504 -1.25 -0.649475 -1.118292 -0.883883 -0.883883 
C -1.118292 -0.649475 -1.25 -0.331504 -1.25 0 
C -1.25 0.331504 -1.118292 0.649475 -0.883883 0.883883 
C -0.649475 1.118292 -0.331504 1.25 0 1.25 
z
" style="stroke: #000000"/>
    </defs>
    <g clip-path="url(#pb7cb089d86)">
     <use xlink:href="#m6332025fab" x="112.952043" y="198.23351" style="stroke: #000000"/>
    </g>
   </g>
   <g id="line2d_29">
    <g clip-path="url(#pb7cb089d86)">
     <use xlink:href="#m6332025fab" x="112.952043" y="110.808894" style="stroke: #000000"/>
    </g>
   </g>
   <g id="patch_29">
    <path d="M 48.982813 299.518125 
L 48.982813 22.318125 
" style="fill: none; stroke: #000000; stroke-width: 0.8; stroke-linejoin: miter; stroke-linecap: square"/>
   </g>
   <g id="patch_30">
    <path d="M 633.23512 299.518125 
L 633.23512 22.318125 
" style="fill: none; stroke: #000000; stroke-width: 0.8; stroke-linejoin: miter; stroke-linecap: square"/>
   </g>
   <g id="patch_31">
    <path d="M 48.982813 299.518125 
L 633.23512 299.518125 
" style="fill: none; stroke: #000000; stroke-width: 0.8; stroke-linejoin: miter; stroke-linecap: square"/>
   </g>
   <g id="patch_32">
    <path d="M 48.982813 22.318125 
L 633.23512 22.318125 
" style="fill: none; stroke: #000000; stroke-width: 0.8; stroke-linejoin: miter; stroke-linecap: square"/>
   </g>
   <g id="patch_33">
    <path d="M 115.980968 256.798941 
Q 108.222412 206.647953 100.532228 156.938921 
" style="fill: none; stroke: #000000; stroke-width: 0.4; stroke-linecap: round"/>
    <path d="M 99.576765 159.920044 
L 100.532228 156.938921 
L 102.343848 159.491965 
" style="fill: none; stroke: #000000; stroke-width: 0.4; stroke-linecap: round"/>
   </g>
   <g id="text_16">
    <!-- Discharge notch -->
    <g transform="translate(78.83512 266.091964) scale(0.07 -0.07)">
     <defs>
      <path id="DejaVuSans-44" d="M 1259 4147 
L 1259 519 
L 2022 519 
Q 2988 519 3436 956 
Q 3884 1394 3884 2338 
Q 3884 3275 3436 3711 
Q 2988 4147 2022 4147 
L 1259 4147 
z
M 628 4666 
L 1925 4666 
Q 3281 4666 3915 4102 
Q 4550 3538 4550 2338 
Q 4550 1131 3912 565 
Q 3275 0 1925 0 
L 628 0 
L 628 4666 
z
" transform="scale(0.015625)"/>
      <path id="DejaVuSans-63" d="M 3122 3366 
L 3122 2828 
Q 2878 2963 2633 3030 
Q 2388 3097 2138 3097 
Q 1578 3097 1268 2742 
Q 959 2388 959 1747 
Q 959 1106 1268 751 
Q 1578 397 2138 397 
Q 2388 397 2633 464 
Q 2878 531 3122 666 
L 3122 134 
Q 2881 22 2623 -34 
Q 2366 -91 2075 -91 
Q 1284 -91 818 406 
Q 353 903 353 1747 
Q 353 2603 823 3093 
Q 1294 3584 2113 3584 
Q 2378 3584 2631 3529 
Q 2884 3475 3122 3366 
z
" transform="scale(0.015625)"/>
      <path id="DejaVuSans-68" d="M 3513 2113 
L 3513 0 
L 2938 0 
L 2938 2094 
Q 2938 2591 2744 2837 
Q 2550 3084 2163 3084 
Q 1697 3084 1428 2787 
Q 1159 2491 1159 1978 
L 1159 0 
L 581 0 
L 581 4863 
L 1159 4863 
L 1159 2956 
Q 1366 3272 1645 3428 
Q 1925 3584 2291 3584 
Q 2894 3584 3203 3211 
Q 3513 2838 3513 2113 
z
" transform="scale(0.015625)"/>
      <path id="DejaVuSans-74" d="M 1172 4494 
L 1172 3500 
L 2356 3500 
L 2356 3053 
L 1172 3053 
L 1172 1153 
Q 1172 725 1289 603 
Q 1406 481 1766 481 
L 2356 481 
L 2356 0 
L 1766 0 
Q 1100 0 847 248 
Q 594 497 594 1153 
L 594 3053 
L 172 3053 
L 172 3500 
L 594 3500 
L 594 4494 
L 1172 4494 
z
" transform="scale(0.015625)"/>
     </defs>
     <use xlink:href="#DejaVuSans-44"/>
     <use xlink:href="#DejaVuSans-69" transform="translate(77.001953 0)"/>
     <use xlink:href="#DejaVuSans-73" transform="translate(104.785156 0)"/>
     <use xlink:href="#DejaVuSans-63" transform="translate(156.884766 0)"/>
     <use xlink:href="#DejaVuSans-68" transform="translate(211.865234 0)"/>
     <use xlink:href="#DejaVuSans-61" transform="translate(275.244141 0)"/>
     <use xlink:href="#DejaVuSans-72" transform="translate(336.523438 0)"/>
     <use xlink:href="#DejaVuSans-67" transform="translate(375.886719 0)"/>
     <use xlink:href="#DejaVuSans-65" transform="translate(439.363281 0)"/>
     <use xlink:href="#DejaVuSans-20" transform="translate(500.886719 0)"/>
     <use xlink:href="#DejaVuSans-6e" transform="translate(532.673828 0)"/>
     <use xlink:href="#DejaVuSans-6f" transform="translate(596.052734 0)"/>
     <use xlink:href="#DejaVuSans-74" transform="translate(657.234375 0)"/>
     <use xlink:href="#DejaVuSans-63" transform="translate(696.443359 0)"/>
     <use xlink:href="#DejaVuSans-68" transform="translate(751.423828 0)"/>
    </g>
    <!-- (powder falls through) -->
    <g transform="translate(78.83512 273.930433) scale(0.07 -0.07)">
     <defs>
      <path id="DejaVuSans-70" d="M 1159 525 
L 1159 -1331 
L 581 -1331 
L 581 3500 
L 1159 3500 
L 1159 2969 
Q 1341 3281 1617 3432 
Q 1894 3584 2278 3584 
Q 2916 3584 3314 3078 
Q 3713 2572 3713 1747 
Q 3713 922 3314 415 
Q 2916 -91 2278 -91 
Q 1894 -91 1617 61 
Q 1341 213 1159 525 
z
M 3116 1747 
Q 3116 2381 2855 2742 
Q 2594 3103 2138 3103 
Q 1681 3103 1420 2742 
Q 1159 2381 1159 1747 
Q 1159 1113 1420 752 
Q 1681 391 2138 391 
Q 2594 391 2855 752 
Q 3116 1113 3116 1747 
z
" transform="scale(0.015625)"/>
      <path id="DejaVuSans-77" d="M 269 3500 
L 844 3500 
L 1563 769 
L 2278 3500 
L 2956 3500 
L 3675 769 
L 4391 3500 
L 4966 3500 
L 4050 0 
L 3372 0 
L 2619 2869 
L 1863 0 
L 1184 0 
L 269 3500 
z
" transform="scale(0.015625)"/>
      <path id="DejaVuSans-64" d="M 2906 2969 
L 2906 4863 
L 3481 4863 
L 3481 0 
L 2906 0 
L 2906 525 
Q 2725 213 2448 61 
Q 2172 -91 1784 -91 
Q 1150 -91 751 415 
Q 353 922 353 1747 
Q 353 2572 751 3078 
Q 1150 3584 1784 3584 
Q 2172 3584 2448 3432 
Q 2725 3281 2906 2969 
z
M 947 1747 
Q 947 1113 1208 752 
Q 1469 391 1925 391 
Q 2381 391 2643 752 
Q 2906 1113 2906 1747 
Q 2906 2381 2643 2742 
Q 2381 3103 1925 3103 
Q 1469 3103 1208 2742 
Q 947 2381 947 1747 
z
" transform="scale(0.015625)"/>
      <path id="DejaVuSans-66" d="M 2375 4863 
L 2375 4384 
L 1825 4384 
Q 1516 4384 1395 4259 
Q 1275 4134 1275 3809 
L 1275 3500 
L 2222 3500 
L 2222 3053 
L 1275 3053 
L 1275 0 
L 697 0 
L 697 3053 
L 147 3053 
L 147 3500 
L 697 3500 
L 697 3744 
Q 697 4328 969 4595 
Q 1241 4863 1831 4863 
L 2375 4863 
z
" transform="scale(0.015625)"/>
     </defs>
     <use xlink:href="#DejaVuSans-28"/>
     <use xlink:href="#DejaVuSans-70" transform="translate(39.013672 0)"/>
     <use xlink:href="#DejaVuSans-6f" transform="translate(102.490234 0)"/>
     <use xlink:href="#DejaVuSans-77" transform="translate(163.671875 0)"/>
     <use xlink:href="#DejaVuSans-64" transform="translate(245.458984 0)"/>
     <use xlink:href="#DejaVuSans-65" transform="translate(308.935547 0)"/>
     <use xlink:href="#DejaVuSans-72" transform="translate(370.458984 0)"/>
     <use xlink:href="#DejaVuSans-20" transform="translate(411.572266 0)"/>
     <use xlink:href="#DejaVuSans-66" transform="translate(443.359375 0)"/>
     <use xlink:href="#DejaVuSans-61" transform="translate(478.564453 0)"/>
     <use xlink:href="#DejaVuSans-6c" transform="translate(539.84375 0)"/>
     <use xlink:href="#DejaVuSans-6c" transform="translate(567.626953 0)"/>
     <use xlink:href="#DejaVuSans-73" transform="translate(595.410156 0)"/>
     <use xlink:href="#DejaVuSans-20" transform="translate(647.509766 0)"/>
     <use xlink:href="#DejaVuSans-74" transform="translate(679.296875 0)"/>
     <use xlink:href="#DejaVuSans-68" transform="translate(718.505859 0)"/>
     <use xlink:href="#DejaVuSans-72" transform="translate(781.884766 0)"/>
     <use xlink:href="#DejaVuSans-6f" transform="translate(820.748047 0)"/>
     <use xlink:href="#DejaVuSans-75" transform="translate(881.929688 0)"/>
     <use xlink:href="#DejaVuSans-67" transform="translate(945.308594 0)"/>
     <use xlink:href="#DejaVuSans-68" transform="translate(1008.785156 0)"/>
     <use xlink:href="#DejaVuSans-29" transform="translate(1072.164062 0)"/>
    </g>
   </g>
   <g id="text_17">
    <!-- HINGE AXIS  (also auger discharge axis) -->
    <g style="fill: #c0392b" transform="translate(42.964621 47.905817) scale(0.07 -0.07)">
     <defs>
      <path id="DejaVuSans-48" d="M 628 4666 
L 1259 4666 
L 1259 2753 
L 3553 2753 
L 3553 4666 
L 4184 4666 
L 4184 0 
L 3553 0 
L 3553 2222 
L 1259 2222 
L 1259 0 
L 628 0 
L 628 4666 
z
" transform="scale(0.015625)"/>
      <path id="DejaVuSans-49" d="M 628 4666 
L 1259 4666 
L 1259 0 
L 628 0 
L 628 4666 
z
" transform="scale(0.015625)"/>
      <path id="DejaVuSans-4e" d="M 628 4666 
L 1478 4666 
L 3547 763 
L 3547 4666 
L 4159 4666 
L 4159 0 
L 3309 0 
L 1241 3903 
L 1241 0 
L 628 0 
L 628 4666 
z
" transform="scale(0.015625)"/>
      <path id="DejaVuSans-47" d="M 3809 666 
L 3809 1919 
L 2778 1919 
L 2778 2438 
L 4434 2438 
L 4434 434 
Q 4069 175 3628 42 
Q 3188 -91 2688 -91 
Q 1594 -91 976 548 
Q 359 1188 359 2328 
Q 359 3472 976 4111 
Q 1594 4750 2688 4750 
Q 3144 4750 3555 4637 
Q 3966 4525 4313 4306 
L 4313 3634 
Q 3963 3931 3569 4081 
Q 3175 4231 2741 4231 
Q 1884 4231 1454 3753 
Q 1025 3275 1025 2328 
Q 1025 1384 1454 906 
Q 1884 428 2741 428 
Q 3075 428 3337 486 
Q 3600 544 3809 666 
z
" transform="scale(0.015625)"/>
      <path id="DejaVuSans-45" d="M 628 4666 
L 3578 4666 
L 3578 4134 
L 1259 4134 
L 1259 2753 
L 3481 2753 
L 3481 2222 
L 1259 2222 
L 1259 531 
L 3634 531 
L 3634 0 
L 628 0 
L 628 4666 
z
" transform="scale(0.015625)"/>
      <path id="DejaVuSans-41" d="M 2188 4044 
L 1331 1722 
L 3047 1722 
L 2188 4044 
z
M 1831 4666 
L 2547 4666 
L 4325 0 
L 3669 0 
L 3244 1197 
L 1141 1197 
L 716 0 
L 50 0 
L 1831 4666 
z
" transform="scale(0.015625)"/>
      <path id="DejaVuSans-53" d="M 3425 4513 
L 3425 3897 
Q 3066 4069 2747 4153 
Q 2428 4238 2131 4238 
Q 1616 4238 1336 4038 
Q 1056 3838 1056 3469 
Q 1056 3159 1242 3001 
Q 1428 2844 1947 2747 
L 2328 2669 
Q 3034 2534 3370 2195 
Q 3706 1856 3706 1288 
Q 3706 609 3251 259 
Q 2797 -91 1919 -91 
Q 1588 -91 1214 -16 
Q 841 59 441 206 
L 441 856 
Q 825 641 1194 531 
Q 1563 422 1919 422 
Q 2459 422 2753 634 
Q 3047 847 3047 1241 
Q 3047 1584 2836 1778 
Q 2625 1972 2144 2069 
L 1759 2144 
Q 1053 2284 737 2584 
Q 422 2884 422 3419 
Q 422 4038 858 4394 
Q 1294 4750 2059 4750 
Q 2388 4750 2728 4690 
Q 3069 4631 3425 4513 
z
" transform="scale(0.015625)"/>
     </defs>
     <use xlink:href="#DejaVuSans-48"/>
     <use xlink:href="#DejaVuSans-49" transform="translate(75.195312 0)"/>
     <use xlink:href="#DejaVuSans-4e" transform="translate(104.6875 0)"/>
     <use xlink:href="#DejaVuSans-47" transform="translate(179.492188 0)"/>
     <use xlink:href="#DejaVuSans-45" transform="translate(256.982422 0)"/>
     <use xlink:href="#DejaVuSans-20" transform="translate(320.166016 0)"/>
     <use xlink:href="#DejaVuSans-41" transform="translate(351.953125 0)"/>
     <use xlink:href="#DejaVuSans-58" transform="translate(420.361328 0)"/>
     <use xlink:href="#DejaVuSans-49" transform="translate(488.867188 0)"/>
     <use xlink:href="#DejaVuSans-53" transform="translate(518.359375 0)"/>
     <use xlink:href="#DejaVuSans-20" transform="translate(581.835938 0)"/>
     <use xlink:href="#DejaVuSans-20" transform="translate(613.623047 0)"/>
     <use xlink:href="#DejaVuSans-28" transform="translate(645.410156 0)"/>
     <use xlink:href="#DejaVuSans-61" transform="translate(684.423828 0)"/>
     <use xlink:href="#DejaVuSans-6c" transform="translate(745.703125 0)"/>
     <use xlink:href="#DejaVuSans-73" transform="translate(773.486328 0)"/>
     <use xlink:href="#DejaVuSans-6f" transform="translate(825.585938 0)"/>
     <use xlink:href="#DejaVuSans-20" transform="translate(886.767578 0)"/>
     <use xlink:href="#DejaVuSans-61" transform="translate(918.554688 0)"/>
     <use xlink:href="#DejaVuSans-75" transform="translate(979.833984 0)"/>
     <use xlink:href="#DejaVuSans-67" transform="translate(1043.212891 0)"/>
     <use xlink:href="#DejaVuSans-65" transform="translate(1106.689453 0)"/>
     <use xlink:href="#DejaVuSans-72" transform="translate(1168.212891 0)"/>
     <use xlink:href="#DejaVuSans-20" transform="translate(1209.326172 0)"/>
     <use xlink:href="#DejaVuSans-64" transform="translate(1241.113281 0)"/>
     <use xlink:href="#DejaVuSans-69" transform="translate(1304.589844 0)"/>
     <use xlink:href="#DejaVuSans-73" transform="translate(1332.373047 0)"/>
     <use xlink:href="#DejaVuSans-63" transform="translate(1384.472656 0)"/>
     <use xlink:href="#DejaVuSans-68" transform="translate(1439.453125 0)"/>
     <use xlink:href="#DejaVuSans-61" transform="translate(1502.832031 0)"/>
     <use xlink:href="#DejaVuSans-72" transform="translate(1564.111328 0)"/>
     <use xlink:href="#DejaVuSans-67" transform="translate(1603.474609 0)"/>
     <use xlink:href="#DejaVuSans-65" transform="translate(1666.951172 0)"/>
     <use xlink:href="#DejaVuSans-20" transform="translate(1728.474609 0)"/>
     <use xlink:href="#DejaVuSans-61" transform="translate(1760.261719 0)"/>
     <use xlink:href="#DejaVuSans-78" transform="translate(1821.541016 0)"/>
     <use xlink:href="#DejaVuSans-69" transform="translate(1880.720703 0)"/>
     <use xlink:href="#DejaVuSans-73" transform="translate(1908.503906 0)"/>
     <use xlink:href="#DejaVuSans-29" transform="translate(1960.603516 0)"/>
    </g>
   </g>
   <g id="patch_34">
    <path d="M 126.035402 200.406362 
Q 120.479127 199.483589 114.922852 198.560817 
" style="fill: none; stroke: #666666; stroke-width: 0.4; stroke-linecap: round"/>
   </g>
   <g id="text_18">
    <!-- M5 hinge pin -->
    <g transform="translate(130.010505 206.76274) scale(0.07 -0.07)">
     <defs>
      <path id="DejaVuSans-4d" d="M 628 4666 
L 1569 4666 
L 2759 1491 
L 3956 4666 
L 4897 4666 
L 4897 0 
L 4281 0 
L 4281 4097 
L 3078 897 
L 2444 897 
L 1241 4097 
L 1241 0 
L 628 0 
L 628 4666 
z
" transform="scale(0.015625)"/>
     </defs>
     <use xlink:href="#DejaVuSans-4d"/>
     <use xlink:href="#DejaVuSans-35" transform="translate(86.279297 0)"/>
     <use xlink:href="#DejaVuSans-20" transform="translate(149.902344 0)"/>
     <use xlink:href="#DejaVuSans-68" transform="translate(181.689453 0)"/>
     <use xlink:href="#DejaVuSans-69" transform="translate(245.068359 0)"/>
     <use xlink:href="#DejaVuSans-6e" transform="translate(272.851562 0)"/>
     <use xlink:href="#DejaVuSans-67" transform="translate(336.230469 0)"/>
     <use xlink:href="#DejaVuSans-65" transform="translate(399.707031 0)"/>
     <use xlink:href="#DejaVuSans-20" transform="translate(461.230469 0)"/>
     <use xlink:href="#DejaVuSans-70" transform="translate(493.017578 0)"/>
     <use xlink:href="#DejaVuSans-69" transform="translate(556.494141 0)"/>
     <use xlink:href="#DejaVuSans-6e" transform="translate(584.277344 0)"/>
    </g>
   </g>
   <g id="patch_35">
    <path d="M 130.287702 106.244056 
Q 122.586962 108.27182 114.886222 110.299585 
" style="fill: none; stroke: #666666; stroke-width: 0.4; stroke-linecap: round"/>
   </g>
   <g id="text_19">
    <!-- M5 hinge pin -->
    <g transform="translate(130.010505 102.279663) scale(0.07 -0.07)">
     <use xlink:href="#DejaVuSans-4d"/>
     <use xlink:href="#DejaVuSans-35" transform="translate(86.279297 0)"/>
     <use xlink:href="#DejaVuSans-20" transform="translate(149.902344 0)"/>
     <use xlink:href="#DejaVuSans-68" transform="translate(181.689453 0)"/>
     <use xlink:href="#DejaVuSans-69" transform="translate(245.068359 0)"/>
     <use xlink:href="#DejaVuSans-6e" transform="translate(272.851562 0)"/>
     <use xlink:href="#DejaVuSans-67" transform="translate(336.230469 0)"/>
     <use xlink:href="#DejaVuSans-65" transform="translate(399.707031 0)"/>
     <use xlink:href="#DejaVuSans-20" transform="translate(461.230469 0)"/>
     <use xlink:href="#DejaVuSans-70" transform="translate(493.017578 0)"/>
     <use xlink:href="#DejaVuSans-69" transform="translate(556.494141 0)"/>
     <use xlink:href="#DejaVuSans-6e" transform="translate(584.277344 0)"/>
    </g>
   </g>
   <g id="text_20">
    <!-- D1 -->
    <g style="fill: #1f6f3f" transform="translate(104.468678 182.241202) scale(0.06 -0.06)">
     <use xlink:href="#DejaVuSans-44"/>
     <use xlink:href="#DejaVuSans-31" transform="translate(77.001953 0)"/>
    </g>
   </g>
   <g id="text_21">
    <!-- D2 -->
    <g style="fill: #1f6f3f" transform="translate(104.468678 143.859663) scale(0.06 -0.06)">
     <use xlink:href="#DejaVuSans-44"/>
     <use xlink:href="#DejaVuSans-32" transform="translate(77.001953 0)"/>
    </g>
   </g>
   <g id="text_22">
    <!-- D3 -->
    <g style="fill: #1f6f3f" transform="translate(185.49637 182.241202) scale(0.06 -0.06)">
     <defs>
      <path id="DejaVuSans-33" d="M 2597 2516 
Q 3050 2419 3304 2112 
Q 3559 1806 3559 1356 
Q 3559 666 3084 287 
Q 2609 -91 1734 -91 
Q 1441 -91 1130 -33 
Q 819 25 488 141 
L 488 750 
Q 750 597 1062 519 
Q 1375 441 1716 441 
Q 2309 441 2620 675 
Q 2931 909 2931 1356 
Q 2931 1769 2642 2001 
Q 2353 2234 1838 2234 
L 1294 2234 
L 1294 2753 
L 1863 2753 
Q 2328 2753 2575 2939 
Q 2822 3125 2822 3475 
Q 2822 3834 2567 4026 
Q 2313 4219 1838 4219 
Q 1578 4219 1281 4162 
Q 984 4106 628 3988 
L 628 4550 
Q 988 4650 1302 4700 
Q 1616 4750 1894 4750 
Q 2613 4750 3031 4423 
Q 3450 4097 3450 3541 
Q 3450 3153 3228 2886 
Q 3006 2619 2597 2516 
z
" transform="scale(0.015625)"/>
     </defs>
     <use xlink:href="#DejaVuSans-44"/>
     <use xlink:href="#DejaVuSans-33" transform="translate(77.001953 0)"/>
    </g>
   </g>
   <g id="text_23">
    <!-- D4 -->
    <g style="fill: #1f6f3f" transform="translate(185.49637 143.859663) scale(0.06 -0.06)">
     <use xlink:href="#DejaVuSans-44"/>
     <use xlink:href="#DejaVuSans-34" transform="translate(77.001953 0)"/>
    </g>
   </g>
   <g id="text_24">
    <!-- BRK-D (M3, bracket #1) -->
    <g style="fill: #1f6f3f" transform="translate(96.004399 99.081202) scale(0.08 -0.08)">
     <defs>
      <path id="DejaVuSans-Bold-42" d="M 2456 2859 
Q 2741 2859 2887 2984 
Q 3034 3109 3034 3353 
Q 3034 3594 2887 3720 
Q 2741 3847 2456 3847 
L 1791 3847 
L 1791 2859 
L 2456 2859 
z
M 2497 819 
Q 2859 819 3042 972 
Q 3225 1125 3225 1434 
Q 3225 1738 3044 1889 
Q 2863 2041 2497 2041 
L 1791 2041 
L 1791 819 
L 2497 819 
z
M 3616 2497 
Q 4003 2384 4215 2081 
Q 4428 1778 4428 1338 
Q 4428 663 3972 331 
Q 3516 0 2584 0 
L 588 0 
L 588 4666 
L 2394 4666 
Q 3366 4666 3802 4372 
Q 4238 4078 4238 3431 
Q 4238 3091 4078 2852 
Q 3919 2613 3616 2497 
z
" transform="scale(0.015625)"/>
      <path id="DejaVuSans-Bold-52" d="M 2297 2597 
Q 2675 2597 2839 2737 
Q 3003 2878 3003 3200 
Q 3003 3519 2839 3656 
Q 2675 3794 2297 3794 
L 1791 3794 
L 1791 2597 
L 2297 2597 
z
M 1791 1766 
L 1791 0 
L 588 0 
L 588 4666 
L 2425 4666 
Q 3347 4666 3776 4356 
Q 4206 4047 4206 3378 
Q 4206 2916 3982 2619 
Q 3759 2322 3309 2181 
Q 3556 2125 3751 1926 
Q 3947 1728 4147 1325 
L 4800 0 
L 3519 0 
L 2950 1159 
Q 2778 1509 2601 1637 
Q 2425 1766 2131 1766 
L 1791 1766 
z
" transform="scale(0.015625)"/>
      <path id="DejaVuSans-Bold-4b" d="M 588 4666 
L 1791 4666 
L 1791 2963 
L 3525 4666 
L 4922 4666 
L 2675 2456 
L 5153 0 
L 3647 0 
L 1791 1838 
L 1791 0 
L 588 0 
L 588 4666 
z
" transform="scale(0.015625)"/>
      <path id="DejaVuSans-Bold-2d" d="M 347 2297 
L 2309 2297 
L 2309 1388 
L 347 1388 
L 347 2297 
z
" transform="scale(0.015625)"/>
      <path id="DejaVuSans-Bold-44" d="M 1791 3756 
L 1791 909 
L 2222 909 
Q 2959 909 3348 1275 
Q 3738 1641 3738 2338 
Q 3738 3031 3350 3393 
Q 2963 3756 2222 3756 
L 1791 3756 
z
M 588 4666 
L 1856 4666 
Q 2919 4666 3439 4514 
Q 3959 4363 4331 4000 
Q 4659 3684 4818 3271 
Q 4978 2859 4978 2338 
Q 4978 1809 4818 1395 
Q 4659 981 4331 666 
Q 3956 303 3431 151 
Q 2906 0 1856 0 
L 588 0 
L 588 4666 
z
" transform="scale(0.015625)"/>
      <path id="DejaVuSans-Bold-20" transform="scale(0.015625)"/>
      <path id="DejaVuSans-Bold-28" d="M 2413 -844 
L 1484 -844 
Q 1006 -72 778 623 
Q 550 1319 550 2003 
Q 550 2688 779 3389 
Q 1009 4091 1484 4856 
L 2413 4856 
Q 2013 4116 1813 3408 
Q 1613 2700 1613 2009 
Q 1613 1319 1811 609 
Q 2009 -100 2413 -844 
z
" transform="scale(0.015625)"/>
      <path id="DejaVuSans-Bold-4d" d="M 588 4666 
L 2119 4666 
L 3181 2169 
L 4250 4666 
L 5778 4666 
L 5778 0 
L 4641 0 
L 4641 3413 
L 3566 897 
L 2803 897 
L 1728 3413 
L 1728 0 
L 588 0 
L 588 4666 
z
" transform="scale(0.015625)"/>
      <path id="DejaVuSans-Bold-33" d="M 2981 2516 
Q 3453 2394 3698 2092 
Q 3944 1791 3944 1325 
Q 3944 631 3412 270 
Q 2881 -91 1863 -91 
Q 1503 -91 1142 -33 
Q 781 25 428 141 
L 428 1069 
Q 766 900 1098 814 
Q 1431 728 1753 728 
Q 2231 728 2486 893 
Q 2741 1059 2741 1369 
Q 2741 1688 2480 1852 
Q 2219 2016 1709 2016 
L 1228 2016 
L 1228 2791 
L 1734 2791 
Q 2188 2791 2409 2933 
Q 2631 3075 2631 3366 
Q 2631 3634 2415 3781 
Q 2200 3928 1806 3928 
Q 1516 3928 1219 3862 
Q 922 3797 628 3669 
L 628 4550 
Q 984 4650 1334 4700 
Q 1684 4750 2022 4750 
Q 2931 4750 3382 4451 
Q 3834 4153 3834 3553 
Q 3834 3144 3618 2883 
Q 3403 2622 2981 2516 
z
" transform="scale(0.015625)"/>
      <path id="DejaVuSans-Bold-2c" d="M 653 1209 
L 1778 1209 
L 1778 256 
L 1006 -909 
L 341 -909 
L 653 256 
L 653 1209 
z
" transform="scale(0.015625)"/>
      <path id="DejaVuSans-Bold-62" d="M 2400 722 
Q 2759 722 2948 984 
Q 3138 1247 3138 1747 
Q 3138 2247 2948 2509 
Q 2759 2772 2400 2772 
Q 2041 2772 1848 2508 
Q 1656 2244 1656 1747 
Q 1656 1250 1848 986 
Q 2041 722 2400 722 
z
M 1656 2988 
Q 1888 3294 2169 3439 
Q 2450 3584 2816 3584 
Q 3463 3584 3878 3070 
Q 4294 2556 4294 1747 
Q 4294 938 3878 423 
Q 3463 -91 2816 -91 
Q 2450 -91 2169 54 
Q 1888 200 1656 506 
L 1656 0 
L 538 0 
L 538 4863 
L 1656 4863 
L 1656 2988 
z
" transform="scale(0.015625)"/>
      <path id="DejaVuSans-Bold-72" d="M 3138 2547 
Q 2991 2616 2845 2648 
Q 2700 2681 2553 2681 
Q 2122 2681 1889 2404 
Q 1656 2128 1656 1613 
L 1656 0 
L 538 0 
L 538 3500 
L 1656 3500 
L 1656 2925 
Q 1872 3269 2151 3426 
Q 2431 3584 2822 3584 
Q 2878 3584 2943 3579 
Q 3009 3575 3134 3559 
L 3138 2547 
z
" transform="scale(0.015625)"/>
      <path id="DejaVuSans-Bold-61" d="M 2106 1575 
Q 1756 1575 1579 1456 
Q 1403 1338 1403 1106 
Q 1403 894 1545 773 
Q 1688 653 1941 653 
Q 2256 653 2472 879 
Q 2688 1106 2688 1447 
L 2688 1575 
L 2106 1575 
z
M 3816 1997 
L 3816 0 
L 2688 0 
L 2688 519 
Q 2463 200 2181 54 
Q 1900 -91 1497 -91 
Q 953 -91 614 226 
Q 275 544 275 1050 
Q 275 1666 698 1953 
Q 1122 2241 2028 2241 
L 2688 2241 
L 2688 2328 
Q 2688 2594 2478 2717 
Q 2269 2841 1825 2841 
Q 1466 2841 1156 2769 
Q 847 2697 581 2553 
L 581 3406 
Q 941 3494 1303 3539 
Q 1666 3584 2028 3584 
Q 2975 3584 3395 3211 
Q 3816 2838 3816 1997 
z
" transform="scale(0.015625)"/>
      <path id="DejaVuSans-Bold-63" d="M 3366 3391 
L 3366 2478 
Q 3138 2634 2908 2709 
Q 2678 2784 2431 2784 
Q 1963 2784 1702 2511 
Q 1441 2238 1441 1747 
Q 1441 1256 1702 982 
Q 1963 709 2431 709 
Q 2694 709 2930 787 
Q 3166 866 3366 1019 
L 3366 103 
Q 3103 6 2833 -42 
Q 2563 -91 2291 -91 
Q 1344 -91 809 395 
Q 275 881 275 1747 
Q 275 2613 809 3098 
Q 1344 3584 2291 3584 
Q 2566 3584 2833 3536 
Q 3100 3488 3366 3391 
z
" transform="scale(0.015625)"/>
      <path id="DejaVuSans-Bold-6b" d="M 538 4863 
L 1656 4863 
L 1656 2216 
L 2944 3500 
L 4244 3500 
L 2534 1894 
L 4378 0 
L 3022 0 
L 1656 1459 
L 1656 0 
L 538 0 
L 538 4863 
z
" transform="scale(0.015625)"/>
      <path id="DejaVuSans-Bold-65" d="M 4031 1759 
L 4031 1441 
L 1416 1441 
Q 1456 1047 1700 850 
Q 1944 653 2381 653 
Q 2734 653 3104 758 
Q 3475 863 3866 1075 
L 3866 213 
Q 3469 63 3072 -14 
Q 2675 -91 2278 -91 
Q 1328 -91 801 392 
Q 275 875 275 1747 
Q 275 2603 792 3093 
Q 1309 3584 2216 3584 
Q 3041 3584 3536 3087 
Q 4031 2591 4031 1759 
z
M 2881 2131 
Q 2881 2450 2695 2645 
Q 2509 2841 2209 2841 
Q 1884 2841 1681 2658 
Q 1478 2475 1428 2131 
L 2881 2131 
z
" transform="scale(0.015625)"/>
      <path id="DejaVuSans-Bold-74" d="M 1759 4494 
L 1759 3500 
L 2913 3500 
L 2913 2700 
L 1759 2700 
L 1759 1216 
Q 1759 972 1856 886 
Q 1953 800 2241 800 
L 2816 800 
L 2816 0 
L 1856 0 
Q 1194 0 917 276 
Q 641 553 641 1216 
L 641 2700 
L 84 2700 
L 84 3500 
L 641 3500 
L 641 4494 
L 1759 4494 
z
" transform="scale(0.015625)"/>
      <path id="DejaVuSans-Bold-23" d="M 2847 4594 
L 2547 3391 
L 3372 3391 
L 3675 4594 
L 4366 4594 
L 4063 3391 
L 4928 3391 
L 4928 2725 
L 3897 2725 
L 3681 1869 
L 4569 1869 
L 4569 1197 
L 3519 1197 
L 3219 0 
L 2528 0 
L 2828 1197 
L 2003 1197 
L 1703 0 
L 1006 0 
L 1306 1197 
L 434 1197 
L 434 1869 
L 1459 1869 
L 1678 2725 
L 794 2725 
L 794 3391 
L 1850 3391 
L 2150 4594 
L 2847 4594 
z
M 3200 2725 
L 2375 2725 
L 2156 1869 
L 2981 1869 
L 3200 2725 
z
" transform="scale(0.015625)"/>
      <path id="DejaVuSans-Bold-31" d="M 750 831 
L 1813 831 
L 1813 3847 
L 722 3622 
L 722 4441 
L 1806 4666 
L 2950 4666 
L 2950 831 
L 4013 831 
L 4013 0 
L 750 0 
L 750 831 
z
" transform="scale(0.015625)"/>
      <path id="DejaVuSans-Bold-29" d="M 513 -844 
Q 913 -100 1113 609 
Q 1313 1319 1313 2009 
Q 1313 2700 1113 3408 
Q 913 4116 513 4856 
L 1441 4856 
Q 1916 4091 2145 3389 
Q 2375 2688 2375 2003 
Q 2375 1319 2147 623 
Q 1919 -72 1441 -844 
L 513 -844 
z
" transform="scale(0.015625)"/>
     </defs>
     <use xlink:href="#DejaVuSans-Bold-42"/>
     <use xlink:href="#DejaVuSans-Bold-52" transform="translate(76.220703 0)"/>
     <use xlink:href="#DejaVuSans-Bold-4b" transform="translate(153.222656 0)"/>
     <use xlink:href="#DejaVuSans-Bold-2d" transform="translate(221.962891 0)"/>
     <use xlink:href="#DejaVuSans-Bold-44" transform="translate(263.466797 0)"/>
     <use xlink:href="#DejaVuSans-Bold-20" transform="translate(346.474609 0)"/>
     <use xlink:href="#DejaVuSans-Bold-28" transform="translate(381.289062 0)"/>
     <use xlink:href="#DejaVuSans-Bold-4d" transform="translate(426.992188 0)"/>
     <use xlink:href="#DejaVuSans-Bold-33" transform="translate(526.503906 0)"/>
     <use xlink:href="#DejaVuSans-Bold-2c" transform="translate(596.083984 0)"/>
     <use xlink:href="#DejaVuSans-Bold-20" transform="translate(634.072266 0)"/>
     <use xlink:href="#DejaVuSans-Bold-62" transform="translate(668.886719 0)"/>
     <use xlink:href="#DejaVuSans-Bold-72" transform="translate(740.46875 0)"/>
     <use xlink:href="#DejaVuSans-Bold-61" transform="translate(789.785156 0)"/>
     <use xlink:href="#DejaVuSans-Bold-63" transform="translate(857.265625 0)"/>
     <use xlink:href="#DejaVuSans-Bold-6b" transform="translate(916.542969 0)"/>
     <use xlink:href="#DejaVuSans-Bold-65" transform="translate(980.421875 0)"/>
     <use xlink:href="#DejaVuSans-Bold-74" transform="translate(1048.244141 0)"/>
     <use xlink:href="#DejaVuSans-Bold-20" transform="translate(1096.046875 0)"/>
     <use xlink:href="#DejaVuSans-Bold-23" transform="translate(1130.861328 0)"/>
     <use xlink:href="#DejaVuSans-Bold-31" transform="translate(1214.650391 0)"/>
     <use xlink:href="#DejaVuSans-Bold-29" transform="translate(1284.230469 0)"/>
    </g>
   </g>
   <g id="text_25">
    <!-- T1 -->
    <g style="fill: #7e3f8b" transform="translate(232.884796 182.241202) scale(0.06 -0.06)">
     <defs>
      <path id="DejaVuSans-54" d="M -19 4666 
L 3928 4666 
L 3928 4134 
L 2272 4134 
L 2272 0 
L 1638 0 
L 1638 4134 
L -19 4134 
L -19 4666 
z
" transform="scale(0.015625)"/>
     </defs>
     <use xlink:href="#DejaVuSans-54"/>
     <use xlink:href="#DejaVuSans-31" transform="translate(61.083984 0)"/>
    </g>
   </g>
   <g id="text_26">
    <!-- T2 -->
    <g style="fill: #7e3f8b" transform="translate(232.884796 143.859663) scale(0.06 -0.06)">
     <use xlink:href="#DejaVuSans-54"/>
     <use xlink:href="#DejaVuSans-32" transform="translate(61.083984 0)"/>
    </g>
   </g>
   <g id="text_27">
    <!-- T3 -->
    <g style="fill: #7e3f8b" transform="translate(313.912488 182.241202) scale(0.06 -0.06)">
     <use xlink:href="#DejaVuSans-54"/>
     <use xlink:href="#DejaVuSans-33" transform="translate(61.083984 0)"/>
    </g>
   </g>
   <g id="text_28">
    <!-- T4 -->
    <g style="fill: #7e3f8b" transform="translate(313.912488 143.859663) scale(0.06 -0.06)">
     <use xlink:href="#DejaVuSans-54"/>
     <use xlink:href="#DejaVuSans-34" transform="translate(61.083984 0)"/>
    </g>
   </g>
   <g id="text_29">
    <!-- TAP (M3, tap-collar mount) -->
    <g style="fill: #7e3f8b" transform="translate(216.385361 99.081202) scale(0.08 -0.08)">
     <defs>
      <path id="DejaVuSans-Bold-54" d="M 31 4666 
L 4331 4666 
L 4331 3756 
L 2784 3756 
L 2784 0 
L 1581 0 
L 1581 3756 
L 31 3756 
L 31 4666 
z
" transform="scale(0.015625)"/>
      <path id="DejaVuSans-Bold-41" d="M 3419 850 
L 1538 850 
L 1241 0 
L 31 0 
L 1759 4666 
L 3194 4666 
L 4922 0 
L 3713 0 
L 3419 850 
z
M 1838 1716 
L 3116 1716 
L 2478 3572 
L 1838 1716 
z
" transform="scale(0.015625)"/>
      <path id="DejaVuSans-Bold-50" d="M 588 4666 
L 2584 4666 
Q 3475 4666 3951 4270 
Q 4428 3875 4428 3144 
Q 4428 2409 3951 2014 
Q 3475 1619 2584 1619 
L 1791 1619 
L 1791 0 
L 588 0 
L 588 4666 
z
M 1791 3794 
L 1791 2491 
L 2456 2491 
Q 2806 2491 2997 2661 
Q 3188 2831 3188 3144 
Q 3188 3456 2997 3625 
Q 2806 3794 2456 3794 
L 1791 3794 
z
" transform="scale(0.015625)"/>
      <path id="DejaVuSans-Bold-70" d="M 1656 506 
L 1656 -1331 
L 538 -1331 
L 538 3500 
L 1656 3500 
L 1656 2988 
Q 1888 3294 2169 3439 
Q 2450 3584 2816 3584 
Q 3463 3584 3878 3070 
Q 4294 2556 4294 1747 
Q 4294 938 3878 423 
Q 3463 -91 2816 -91 
Q 2450 -91 2169 54 
Q 1888 200 1656 506 
z
M 2400 2772 
Q 2041 2772 1848 2508 
Q 1656 2244 1656 1747 
Q 1656 1250 1848 986 
Q 2041 722 2400 722 
Q 2759 722 2948 984 
Q 3138 1247 3138 1747 
Q 3138 2247 2948 2509 
Q 2759 2772 2400 2772 
z
" transform="scale(0.015625)"/>
      <path id="DejaVuSans-Bold-6f" d="M 2203 2784 
Q 1831 2784 1636 2517 
Q 1441 2250 1441 1747 
Q 1441 1244 1636 976 
Q 1831 709 2203 709 
Q 2569 709 2762 976 
Q 2956 1244 2956 1747 
Q 2956 2250 2762 2517 
Q 2569 2784 2203 2784 
z
M 2203 3584 
Q 3106 3584 3614 3096 
Q 4122 2609 4122 1747 
Q 4122 884 3614 396 
Q 3106 -91 2203 -91 
Q 1297 -91 786 396 
Q 275 884 275 1747 
Q 275 2609 786 3096 
Q 1297 3584 2203 3584 
z
" transform="scale(0.015625)"/>
      <path id="DejaVuSans-Bold-6c" d="M 538 4863 
L 1656 4863 
L 1656 0 
L 538 0 
L 538 4863 
z
" transform="scale(0.015625)"/>
      <path id="DejaVuSans-Bold-6d" d="M 3781 2919 
Q 3994 3244 4286 3414 
Q 4578 3584 4928 3584 
Q 5531 3584 5847 3212 
Q 6163 2841 6163 2131 
L 6163 0 
L 5038 0 
L 5038 1825 
Q 5041 1866 5042 1909 
Q 5044 1953 5044 2034 
Q 5044 2406 4934 2573 
Q 4825 2741 4581 2741 
Q 4263 2741 4089 2478 
Q 3916 2216 3909 1719 
L 3909 0 
L 2784 0 
L 2784 1825 
Q 2784 2406 2684 2573 
Q 2584 2741 2328 2741 
Q 2006 2741 1831 2477 
Q 1656 2213 1656 1722 
L 1656 0 
L 531 0 
L 531 3500 
L 1656 3500 
L 1656 2988 
Q 1863 3284 2130 3434 
Q 2397 3584 2719 3584 
Q 3081 3584 3359 3409 
Q 3638 3234 3781 2919 
z
" transform="scale(0.015625)"/>
      <path id="DejaVuSans-Bold-75" d="M 500 1363 
L 500 3500 
L 1625 3500 
L 1625 3150 
Q 1625 2866 1622 2436 
Q 1619 2006 1619 1863 
Q 1619 1441 1641 1255 
Q 1663 1069 1716 984 
Q 1784 875 1895 815 
Q 2006 756 2150 756 
Q 2500 756 2700 1025 
Q 2900 1294 2900 1772 
L 2900 3500 
L 4019 3500 
L 4019 0 
L 2900 0 
L 2900 506 
Q 2647 200 2364 54 
Q 2081 -91 1741 -91 
Q 1134 -91 817 281 
Q 500 653 500 1363 
z
" transform="scale(0.015625)"/>
      <path id="DejaVuSans-Bold-6e" d="M 4056 2131 
L 4056 0 
L 2931 0 
L 2931 347 
L 2931 1631 
Q 2931 2084 2911 2256 
Q 2891 2428 2841 2509 
Q 2775 2619 2662 2680 
Q 2550 2741 2406 2741 
Q 2056 2741 1856 2470 
Q 1656 2200 1656 1722 
L 1656 0 
L 538 0 
L 538 3500 
L 1656 3500 
L 1656 2988 
Q 1909 3294 2193 3439 
Q 2478 3584 2822 3584 
Q 3428 3584 3742 3212 
Q 4056 2841 4056 2131 
z
" transform="scale(0.015625)"/>
     </defs>
     <use xlink:href="#DejaVuSans-Bold-54"/>
     <use xlink:href="#DejaVuSans-Bold-41" transform="translate(60.462891 0)"/>
     <use xlink:href="#DejaVuSans-Bold-50" transform="translate(137.855469 0)"/>
     <use xlink:href="#DejaVuSans-Bold-20" transform="translate(211.146484 0)"/>
     <use xlink:href="#DejaVuSans-Bold-28" transform="translate(245.960938 0)"/>
     <use xlink:href="#DejaVuSans-Bold-4d" transform="translate(291.664062 0)"/>
     <use xlink:href="#DejaVuSans-Bold-33" transform="translate(391.175781 0)"/>
     <use xlink:href="#DejaVuSans-Bold-2c" transform="translate(460.755859 0)"/>
     <use xlink:href="#DejaVuSans-Bold-20" transform="translate(498.744141 0)"/>
     <use xlink:href="#DejaVuSans-Bold-74" transform="translate(533.558594 0)"/>
     <use xlink:href="#DejaVuSans-Bold-61" transform="translate(581.361328 0)"/>
     <use xlink:href="#DejaVuSans-Bold-70" transform="translate(648.841797 0)"/>
     <use xlink:href="#DejaVuSans-Bold-2d" transform="translate(720.423828 0)"/>
     <use xlink:href="#DejaVuSans-Bold-63" transform="translate(761.927734 0)"/>
     <use xlink:href="#DejaVuSans-Bold-6f" transform="translate(821.205078 0)"/>
     <use xlink:href="#DejaVuSans-Bold-6c" transform="translate(889.90625 0)"/>
     <use xlink:href="#DejaVuSans-Bold-6c" transform="translate(924.183594 0)"/>
     <use xlink:href="#DejaVuSans-Bold-61" transform="translate(958.460938 0)"/>
     <use xlink:href="#DejaVuSans-Bold-72" transform="translate(1025.941406 0)"/>
     <use xlink:href="#DejaVuSans-Bold-20" transform="translate(1075.257812 0)"/>
     <use xlink:href="#DejaVuSans-Bold-6d" transform="translate(1110.072266 0)"/>
     <use xlink:href="#DejaVuSans-Bold-6f" transform="translate(1214.271484 0)"/>
     <use xlink:href="#DejaVuSans-Bold-75" transform="translate(1282.972656 0)"/>
     <use xlink:href="#DejaVuSans-Bold-6e" transform="translate(1354.164062 0)"/>
     <use xlink:href="#DejaVuSans-Bold-74" transform="translate(1425.355469 0)"/>
     <use xlink:href="#DejaVuSans-Bold-29" transform="translate(1473.158203 0)"/>
    </g>
   </g>
   <g id="text_30">
    <!-- M1 -->
    <g style="fill: #1f6f3f" transform="translate(360.067163 182.241202) scale(0.06 -0.06)">
     <use xlink:href="#DejaVuSans-4d"/>
     <use xlink:href="#DejaVuSans-31" transform="translate(86.279297 0)"/>
    </g>
   </g>
   <g id="text_31">
    <!-- M2 -->
    <g style="fill: #1f6f3f" transform="translate(360.067163 143.859663) scale(0.06 -0.06)">
     <use xlink:href="#DejaVuSans-4d"/>
     <use xlink:href="#DejaVuSans-32" transform="translate(86.279297 0)"/>
    </g>
   </g>
   <g id="text_32">
    <!-- M3 -->
    <g style="fill: #1f6f3f" transform="translate(441.094856 182.241202) scale(0.06 -0.06)">
     <use xlink:href="#DejaVuSans-4d"/>
     <use xlink:href="#DejaVuSans-33" transform="translate(86.279297 0)"/>
    </g>
   </g>
   <g id="text_33">
    <!-- M4 -->
    <g style="fill: #1f6f3f" transform="translate(441.094856 143.859663) scale(0.06 -0.06)">
     <use xlink:href="#DejaVuSans-4d"/>
     <use xlink:href="#DejaVuSans-34" transform="translate(86.279297 0)"/>
    </g>
   </g>
   <g id="text_34">
    <!-- BRK-M (M3, bracket #2) -->
    <g style="fill: #1f6f3f" transform="translate(351.221322 99.081202) scale(0.08 -0.08)">
     <defs>
      <path id="DejaVuSans-Bold-32" d="M 1844 884 
L 3897 884 
L 3897 0 
L 506 0 
L 506 884 
L 2209 2388 
Q 2438 2594 2547 2791 
Q 2656 2988 2656 3200 
Q 2656 3528 2436 3728 
Q 2216 3928 1850 3928 
Q 1569 3928 1234 3808 
Q 900 3688 519 3450 
L 519 4475 
Q 925 4609 1322 4679 
Q 1719 4750 2100 4750 
Q 2938 4750 3402 4381 
Q 3866 4013 3866 3353 
Q 3866 2972 3669 2642 
Q 3472 2313 2841 1759 
L 1844 884 
z
" transform="scale(0.015625)"/>
     </defs>
     <use xlink:href="#DejaVuSans-Bold-42"/>
     <use xlink:href="#DejaVuSans-Bold-52" transform="translate(76.220703 0)"/>
     <use xlink:href="#DejaVuSans-Bold-4b" transform="translate(153.222656 0)"/>
     <use xlink:href="#DejaVuSans-Bold-2d" transform="translate(221.962891 0)"/>
     <use xlink:href="#DejaVuSans-Bold-4d" transform="translate(263.466797 0)"/>
     <use xlink:href="#DejaVuSans-Bold-20" transform="translate(362.978516 0)"/>
     <use xlink:href="#DejaVuSans-Bold-28" transform="translate(397.792969 0)"/>
     <use xlink:href="#DejaVuSans-Bold-4d" transform="translate(443.496094 0)"/>
     <use xlink:href="#DejaVuSans-Bold-33" transform="translate(543.007812 0)"/>
     <use xlink:href="#DejaVuSans-Bold-2c" transform="translate(612.587891 0)"/>
     <use xlink:href="#DejaVuSans-Bold-20" transform="translate(650.576172 0)"/>
     <use xlink:href="#DejaVuSans-Bold-62" transform="translate(685.390625 0)"/>
     <use xlink:href="#DejaVuSans-Bold-72" transform="translate(756.972656 0)"/>
     <use xlink:href="#DejaVuSans-Bold-61" transform="translate(806.289062 0)"/>
     <use xlink:href="#DejaVuSans-Bold-63" transform="translate(873.769531 0)"/>
     <use xlink:href="#DejaVuSans-Bold-6b" transform="translate(933.046875 0)"/>
     <use xlink:href="#DejaVuSans-Bold-65" transform="translate(996.925781 0)"/>
     <use xlink:href="#DejaVuSans-Bold-74" transform="translate(1064.748047 0)"/>
     <use xlink:href="#DejaVuSans-Bold-20" transform="translate(1112.550781 0)"/>
     <use xlink:href="#DejaVuSans-Bold-23" transform="translate(1147.365234 0)"/>
     <use xlink:href="#DejaVuSans-Bold-32" transform="translate(1231.154297 0)"/>
     <use xlink:href="#DejaVuSans-Bold-29" transform="translate(1300.734375 0)"/>
    </g>
   </g>
   <g id="text_35">
    <!-- NEMA-1 -->
    <g style="fill: #0b3d8a" transform="translate(488.261671 196.101202) scale(0.06 -0.06)">
     <defs>
      <path id="DejaVuSans-2d" d="M 313 2009 
L 1997 2009 
L 1997 1497 
L 313 1497 
L 313 2009 
z
" transform="scale(0.015625)"/>
     </defs>
     <use xlink:href="#DejaVuSans-4e"/>
     <use xlink:href="#DejaVuSans-45" transform="translate(74.804688 0)"/>
     <use xlink:href="#DejaVuSans-4d" transform="translate(137.988281 0)"/>
     <use xlink:href="#DejaVuSans-41" transform="translate(224.267578 0)"/>
     <use xlink:href="#DejaVuSans-2d" transform="translate(290.425781 0)"/>
     <use xlink:href="#DejaVuSans-31" transform="translate(326.509766 0)"/>
    </g>
   </g>
   <g id="text_36">
    <!-- NEMA-2 -->
    <g style="fill: #0b3d8a" transform="translate(488.261671 129.999663) scale(0.06 -0.06)">
     <use xlink:href="#DejaVuSans-4e"/>
     <use xlink:href="#DejaVuSans-45" transform="translate(74.804688 0)"/>
     <use xlink:href="#DejaVuSans-4d" transform="translate(137.988281 0)"/>
     <use xlink:href="#DejaVuSans-41" transform="translate(224.267578 0)"/>
     <use xlink:href="#DejaVuSans-2d" transform="translate(290.425781 0)"/>
     <use xlink:href="#DejaVuSans-32" transform="translate(326.509766 0)"/>
    </g>
   </g>
   <g id="text_37">
    <!-- NEMA-3 -->
    <g style="fill: #0b3d8a" transform="translate(554.363209 196.101202) scale(0.06 -0.06)">
     <use xlink:href="#DejaVuSans-4e"/>
     <use xlink:href="#DejaVuSans-45" transform="translate(74.804688 0)"/>
     <use xlink:href="#DejaVuSans-4d" transform="translate(137.988281 0)"/>
     <use xlink:href="#DejaVuSans-41" transform="translate(224.267578 0)"/>
     <use xlink:href="#DejaVuSans-2d" transform="translate(290.425781 0)"/>
     <use xlink:href="#DejaVuSans-33" transform="translate(326.509766 0)"/>
    </g>
   </g>
   <g id="text_38">
    <!-- NEMA-4 -->
    <g style="fill: #0b3d8a" transform="translate(554.363209 129.999663) scale(0.06 -0.06)">
     <use xlink:href="#DejaVuSans-4e"/>
     <use xlink:href="#DejaVuSans-45" transform="translate(74.804688 0)"/>
     <use xlink:href="#DejaVuSans-4d" transform="translate(137.988281 0)"/>
     <use xlink:href="#DejaVuSans-41" transform="translate(224.267578 0)"/>
     <use xlink:href="#DejaVuSans-2d" transform="translate(290.425781 0)"/>
     <use xlink:href="#DejaVuSans-34" transform="translate(326.509766 0)"/>
    </g>
   </g>
   <g id="text_39">
    <!-- Ø22 pilot -->
    <g style="fill: #0b3d8a" transform="translate(519.301034 154.521202) scale(0.06 -0.06)">
     <defs>
      <path id="DejaVuSans-d8" d="M 3769 3475 
L 1528 831 
Q 1722 631 1973 526 
Q 2225 422 2522 422 
Q 3209 422 3611 934 
Q 4013 1447 4013 2328 
Q 4013 2678 3952 2965 
Q 3891 3253 3769 3475 
z
M 3513 3828 
Q 3322 4028 3070 4133 
Q 2819 4238 2522 4238 
Q 1834 4238 1429 3725 
Q 1025 3213 1025 2328 
Q 1025 1978 1086 1684 
Q 1147 1391 1269 1178 
L 3513 3828 
z
M 850 684 
Q 606 1003 482 1415 
Q 359 1828 359 2328 
Q 359 3434 948 4092 
Q 1538 4750 2522 4750 
Q 2928 4750 3273 4629 
Q 3619 4509 3891 4275 
L 4397 4872 
L 4716 4594 
L 4184 3975 
Q 4428 3653 4553 3237 
Q 4678 2822 4678 2328 
Q 4678 1225 4090 567 
Q 3503 -91 2522 -91 
Q 2122 -91 1776 26 
Q 1431 144 1147 378 
L 641 -219 
L 319 56 
L 850 684 
z
" transform="scale(0.015625)"/>
     </defs>
     <use xlink:href="#DejaVuSans-d8"/>
     <use xlink:href="#DejaVuSans-32" transform="translate(78.710938 0)"/>
     <use xlink:href="#DejaVuSans-32" transform="translate(142.333984 0)"/>
     <use xlink:href="#DejaVuSans-20" transform="translate(205.957031 0)"/>
     <use xlink:href="#DejaVuSans-70" transform="translate(237.744141 0)"/>
     <use xlink:href="#DejaVuSans-69" transform="translate(301.220703 0)"/>
     <use xlink:href="#DejaVuSans-6c" transform="translate(329.003906 0)"/>
     <use xlink:href="#DejaVuSans-6f" transform="translate(356.787109 0)"/>
     <use xlink:href="#DejaVuSans-74" transform="translate(417.96875 0)"/>
    </g>
   </g>
   <g id="text_40">
    <!-- NEMA-17 (M3, motor) -->
    <g style="fill: #0b3d8a" transform="translate(484.361034 107.290587) scale(0.08 -0.08)">
     <defs>
      <path id="DejaVuSans-Bold-4e" d="M 588 4666 
L 1931 4666 
L 3628 1466 
L 3628 4666 
L 4769 4666 
L 4769 0 
L 3425 0 
L 1728 3200 
L 1728 0 
L 588 0 
L 588 4666 
z
" transform="scale(0.015625)"/>
      <path id="DejaVuSans-Bold-45" d="M 588 4666 
L 3834 4666 
L 3834 3756 
L 1791 3756 
L 1791 2888 
L 3713 2888 
L 3713 1978 
L 1791 1978 
L 1791 909 
L 3903 909 
L 3903 0 
L 588 0 
L 588 4666 
z
" transform="scale(0.015625)"/>
      <path id="DejaVuSans-Bold-37" d="M 428 4666 
L 3944 4666 
L 3944 3988 
L 2125 0 
L 953 0 
L 2675 3781 
L 428 3781 
L 428 4666 
z
" transform="scale(0.015625)"/>
     </defs>
     <use xlink:href="#DejaVuSans-Bold-4e"/>
     <use xlink:href="#DejaVuSans-Bold-45" transform="translate(83.691406 0)"/>
     <use xlink:href="#DejaVuSans-Bold-4d" transform="translate(152.001953 0)"/>
     <use xlink:href="#DejaVuSans-Bold-41" transform="translate(251.513672 0)"/>
     <use xlink:href="#DejaVuSans-Bold-2d" transform="translate(328.90625 0)"/>
     <use xlink:href="#DejaVuSans-Bold-31" transform="translate(370.410156 0)"/>
     <use xlink:href="#DejaVuSans-Bold-37" transform="translate(439.990234 0)"/>
     <use xlink:href="#DejaVuSans-Bold-20" transform="translate(509.570312 0)"/>
     <use xlink:href="#DejaVuSans-Bold-28" transform="translate(544.384766 0)"/>
     <use xlink:href="#DejaVuSans-Bold-4d" transform="translate(590.087891 0)"/>
     <use xlink:href="#DejaVuSans-Bold-33" transform="translate(689.599609 0)"/>
     <use xlink:href="#DejaVuSans-Bold-2c" transform="translate(759.179688 0)"/>
     <use xlink:href="#DejaVuSans-Bold-20" transform="translate(797.167969 0)"/>
     <use xlink:href="#DejaVuSans-Bold-6d" transform="translate(831.982422 0)"/>
     <use xlink:href="#DejaVuSans-Bold-6f" transform="translate(936.181641 0)"/>
     <use xlink:href="#DejaVuSans-Bold-74" transform="translate(1004.882812 0)"/>
     <use xlink:href="#DejaVuSans-Bold-6f" transform="translate(1052.685547 0)"/>
     <use xlink:href="#DejaVuSans-Bold-72" transform="translate(1121.386719 0)"/>
     <use xlink:href="#DejaVuSans-Bold-29" transform="translate(1170.703125 0)"/>
    </g>
   </g>
   <g id="text_41">
    <!-- LA tab (underside, M5 clevis) -->
    <g style="fill: #a04000" transform="translate(179.188029 252.607356) scale(0.07 -0.07)">
     <defs>
      <path id="DejaVuSans-4c" d="M 628 4666 
L 1259 4666 
L 1259 531 
L 3531 531 
L 3531 0 
L 628 0 
L 628 4666 
z
" transform="scale(0.015625)"/>
      <path id="DejaVuSans-62" d="M 3116 1747 
Q 3116 2381 2855 2742 
Q 2594 3103 2138 3103 
Q 1681 3103 1420 2742 
Q 1159 2381 1159 1747 
Q 1159 1113 1420 752 
Q 1681 391 2138 391 
Q 2594 391 2855 752 
Q 3116 1113 3116 1747 
z
M 1159 2969 
Q 1341 3281 1617 3432 
Q 1894 3584 2278 3584 
Q 2916 3584 3314 3078 
Q 3713 2572 3713 1747 
Q 3713 922 3314 415 
Q 2916 -91 2278 -91 
Q 1894 -91 1617 61 
Q 1341 213 1159 525 
L 1159 0 
L 581 0 
L 581 4863 
L 1159 4863 
L 1159 2969 
z
" transform="scale(0.015625)"/>
      <path id="DejaVuSans-2c" d="M 750 794 
L 1409 794 
L 1409 256 
L 897 -744 
L 494 -744 
L 750 256 
L 750 794 
z
" transform="scale(0.015625)"/>
      <path id="DejaVuSans-76" d="M 191 3500 
L 800 3500 
L 1894 563 
L 2988 3500 
L 3597 3500 
L 2284 0 
L 1503 0 
L 191 3500 
z
" transform="scale(0.015625)"/>
     </defs>
     <use xlink:href="#DejaVuSans-4c"/>
     <use xlink:href="#DejaVuSans-41" transform="translate(57.962891 0)"/>
     <use xlink:href="#DejaVuSans-20" transform="translate(126.371094 0)"/>
     <use xlink:href="#DejaVuSans-74" transform="translate(158.158203 0)"/>
     <use xlink:href="#DejaVuSans-61" transform="translate(197.367188 0)"/>
     <use xlink:href="#DejaVuSans-62" transform="translate(258.646484 0)"/>
     <use xlink:href="#DejaVuSans-20" transform="translate(322.123047 0)"/>
     <use xlink:href="#DejaVuSans-28" transform="translate(353.910156 0)"/>
     <use xlink:href="#DejaVuSans-75" transform="translate(392.923828 0)"/>
     <use xlink:href="#DejaVuSans-6e" transform="translate(456.302734 0)"/>
     <use xlink:href="#DejaVuSans-64" transform="translate(519.681641 0)"/>
     <use xlink:href="#DejaVuSans-65" transform="translate(583.158203 0)"/>
     <use xlink:href="#DejaVuSans-72" transform="translate(644.681641 0)"/>
     <use xlink:href="#DejaVuSans-73" transform="translate(685.794922 0)"/>
     <use xlink:href="#DejaVuSans-69" transform="translate(737.894531 0)"/>
     <use xlink:href="#DejaVuSans-64" transform="translate(765.677734 0)"/>
     <use xlink:href="#DejaVuSans-65" transform="translate(829.154297 0)"/>
     <use xlink:href="#DejaVuSans-2c" transform="translate(890.677734 0)"/>
     <use xlink:href="#DejaVuSans-20" transform="translate(922.464844 0)"/>
     <use xlink:href="#DejaVuSans-4d" transform="translate(954.251953 0)"/>
     <use xlink:href="#DejaVuSans-35" transform="translate(1040.53125 0)"/>
     <use xlink:href="#DejaVuSans-20" transform="translate(1104.154297 0)"/>
     <use xlink:href="#DejaVuSans-63" transform="translate(1135.941406 0)"/>
     <use xlink:href="#DejaVuSans-6c" transform="translate(1190.921875 0)"/>
     <use xlink:href="#DejaVuSans-65" transform="translate(1218.705078 0)"/>
     <use xlink:href="#DejaVuSans-76" transform="translate(1280.228516 0)"/>
     <use xlink:href="#DejaVuSans-69" transform="translate(1339.408203 0)"/>
     <use xlink:href="#DejaVuSans-73" transform="translate(1367.191406 0)"/>
     <use xlink:href="#DejaVuSans-29" transform="translate(1419.291016 0)"/>
    </g>
   </g>
   <g id="text_42">
    <!-- Mounting-plate install diagram  (top view, plate 250.0×80.0×5.0 mm) -->
    <g transform="translate(130.243654 16.318125) scale(0.12 -0.12)">
     <defs>
      <path id="DejaVuSans-2e" d="M 684 794 
L 1344 794 
L 1344 0 
L 684 0 
L 684 794 
z
" transform="scale(0.015625)"/>
      <path id="DejaVuSans-d7" d="M 4488 3438 
L 3059 2003 
L 4488 575 
L 4116 197 
L 2681 1631 
L 1247 197 
L 878 575 
L 2303 2003 
L 878 3438 
L 1247 3816 
L 2681 2381 
L 4116 3816 
L 4488 3438 
z
" transform="scale(0.015625)"/>
      <path id="DejaVuSans-38" d="M 2034 2216 
Q 1584 2216 1326 1975 
Q 1069 1734 1069 1313 
Q 1069 891 1326 650 
Q 1584 409 2034 409 
Q 2484 409 2743 651 
Q 3003 894 3003 1313 
Q 3003 1734 2745 1975 
Q 2488 2216 2034 2216 
z
M 1403 2484 
Q 997 2584 770 2862 
Q 544 3141 544 3541 
Q 544 4100 942 4425 
Q 1341 4750 2034 4750 
Q 2731 4750 3128 4425 
Q 3525 4100 3525 3541 
Q 3525 3141 3298 2862 
Q 3072 2584 2669 2484 
Q 3125 2378 3379 2068 
Q 3634 1759 3634 1313 
Q 3634 634 3220 271 
Q 2806 -91 2034 -91 
Q 1263 -91 848 271 
Q 434 634 434 1313 
Q 434 1759 690 2068 
Q 947 2378 1403 2484 
z
M 1172 3481 
Q 1172 3119 1398 2916 
Q 1625 2713 2034 2713 
Q 2441 2713 2670 2916 
Q 2900 3119 2900 3481 
Q 2900 3844 2670 4047 
Q 2441 4250 2034 4250 
Q 1625 4250 1398 4047 
Q 1172 3844 1172 3481 
z
" transform="scale(0.015625)"/>
     </defs>
     <use xlink:href="#DejaVuSans-4d"/>
     <use xlink:href="#DejaVuSans-6f" transform="translate(86.279297 0)"/>
     <use xlink:href="#DejaVuSans-75" transform="translate(147.460938 0)"/>
     <use xlink:href="#DejaVuSans-6e" transform="translate(210.839844 0)"/>
     <use xlink:href="#DejaVuSans-74" transform="translate(274.21875 0)"/>
     <use xlink:href="#DejaVuSans-69" transform="translate(313.427734 0)"/>
     <use xlink:href="#DejaVuSans-6e" transform="translate(341.210938 0)"/>
     <use xlink:href="#DejaVuSans-67" transform="translate(404.589844 0)"/>
     <use xlink:href="#DejaVuSans-2d" transform="translate(468.066406 0)"/>
     <use xlink:href="#DejaVuSans-70" transform="translate(504.150391 0)"/>
     <use xlink:href="#DejaVuSans-6c" transform="translate(567.626953 0)"/>
     <use xlink:href="#DejaVuSans-61" transform="translate(595.410156 0)"/>
     <use xlink:href="#DejaVuSans-74" transform="translate(656.689453 0)"/>
     <use xlink:href="#DejaVuSans-65" transform="translate(695.898438 0)"/>
     <use xlink:href="#DejaVuSans-20" transform="translate(757.421875 0)"/>
     <use xlink:href="#DejaVuSans-69" transform="translate(789.208984 0)"/>
     <use xlink:href="#DejaVuSans-6e" transform="translate(816.992188 0)"/>
     <use xlink:href="#DejaVuSans-73" transform="translate(880.371094 0)"/>
     <use xlink:href="#DejaVuSans-74" transform="translate(932.470703 0)"/>
     <use xlink:href="#DejaVuSans-61" transform="translate(971.679688 0)"/>
     <use xlink:href="#DejaVuSans-6c" transform="translate(1032.958984 0)"/>
     <use xlink:href="#DejaVuSans-6c" transform="translate(1060.742188 0)"/>
     <use xlink:href="#DejaVuSans-20" transform="translate(1088.525391 0)"/>
     <use xlink:href="#DejaVuSans-64" transform="translate(1120.3125 0)"/>
     <use xlink:href="#DejaVuSans-69" transform="translate(1183.789062 0)"/>
     <use xlink:href="#DejaVuSans-61" transform="translate(1211.572266 0)"/>
     <use xlink:href="#DejaVuSans-67" transform="translate(1272.851562 0)"/>
     <use xlink:href="#DejaVuSans-72" transform="translate(1336.328125 0)"/>
     <use xlink:href="#DejaVuSans-61" transform="translate(1377.441406 0)"/>
     <use xlink:href="#DejaVuSans-6d" transform="translate(1438.720703 0)"/>
     <use xlink:href="#DejaVuSans-20" transform="translate(1536.132812 0)"/>
     <use xlink:href="#DejaVuSans-20" transform="translate(1567.919922 0)"/>
     <use xlink:href="#DejaVuSans-28" transform="translate(1599.707031 0)"/>
     <use xlink:href="#DejaVuSans-74" transform="translate(1638.720703 0)"/>
     <use xlink:href="#DejaVuSans-6f" transform="translate(1677.929688 0)"/>
     <use xlink:href="#DejaVuSans-70" transform="translate(1739.111328 0)"/>
     <use xlink:href="#DejaVuSans-20" transform="translate(1802.587891 0)"/>
     <use xlink:href="#DejaVuSans-76" transform="translate(1834.375 0)"/>
     <use xlink:href="#DejaVuSans-69" transform="translate(1893.554688 0)"/>
     <use xlink:href="#DejaVuSans-65" transform="translate(1921.337891 0)"/>
     <use xlink:href="#DejaVuSans-77" transform="translate(1982.861328 0)"/>
     <use xlink:href="#DejaVuSans-2c" transform="translate(2064.648438 0)"/>
     <use xlink:href="#DejaVuSans-20" transform="translate(2096.435547 0)"/>
     <use xlink:href="#DejaVuSans-70" transform="translate(2128.222656 0)"/>
     <use xlink:href="#DejaVuSans-6c" transform="translate(2191.699219 0)"/>
     <use xlink:href="#DejaVuSans-61" transform="translate(2219.482422 0)"/>
     <use xlink:href="#DejaVuSans-74" transform="translate(2280.761719 0)"/>
     <use xlink:href="#DejaVuSans-65" transform="translate(2319.970703 0)"/>
     <use xlink:href="#DejaVuSans-20" transform="translate(2381.494141 0)"/>
     <use xlink:href="#DejaVuSans-32" transform="translate(2413.28125 0)"/>
     <use xlink:href="#DejaVuSans-35" transform="translate(2476.904297 0)"/>
     <use xlink:href="#DejaVuSans-30" transform="translate(2540.527344 0)"/>
     <use xlink:href="#DejaVuSans-2e" transform="translate(2604.150391 0)"/>
     <use xlink:href="#DejaVuSans-30" transform="translate(2635.9375 0)"/>
     <use xlink:href="#DejaVuSans-d7" transform="translate(2699.560547 0)"/>
     <use xlink:href="#DejaVuSans-38" transform="translate(2783.349609 0)"/>
     <use xlink:href="#DejaVuSans-30" transform="translate(2846.972656 0)"/>
     <use xlink:href="#DejaVuSans-2e" transform="translate(2910.595703 0)"/>
     <use xlink:href="#DejaVuSans-30" transform="translate(2942.382812 0)"/>
     <use xlink:href="#DejaVuSans-d7" transform="translate(3006.005859 0)"/>
     <use xlink:href="#DejaVuSans-35" transform="translate(3089.794922 0)"/>
     <use xlink:href="#DejaVuSans-2e" transform="translate(3153.417969 0)"/>
     <use xlink:href="#DejaVuSans-30" transform="translate(3185.205078 0)"/>
     <use xlink:href="#DejaVuSans-20" transform="translate(3248.828125 0)"/>
     <use xlink:href="#DejaVuSans-6d" transform="translate(3280.615234 0)"/>
     <use xlink:href="#DejaVuSans-6d" transform="translate(3378.027344 0)"/>
     <use xlink:href="#DejaVuSans-29" transform="translate(3475.439453 0)"/>
    </g>
   </g>
  </g>
 </g>
 <defs>
  <clipPath id="pb7cb089d86">
   <rect x="48.982813" y="22.318125" width="584.252308" height="277.2"/>
  </clipPath>
 </defs>
</svg>
