ISO-10303-21;
HEADER;
/* Generated by software containing ST-Developer
 * from STEP Tools, Inc. (www.steptools.com) 
 */

FILE_DESCRIPTION(
/* description */ (''),
/* implementation_level */ '2;1');

FILE_NAME(
/* name */ '836b895e-74db-4a81-a0e7-88884e3ab116.stp',
/* time_stamp */ '2026-10-01T20:26:32Z',
/* author */ (''),
/* organization */ (''),
/* preprocessor_version */ 'ST-DEVELOPER v20.2',
/* originating_system */ 'Autodesk Translation Framework v15.17.0.0',
/* authorisation */ '');

FILE_SCHEMA (('AUTOMOTIVE_DESIGN { 1 0 10303 214 3 1 1 }'));
ENDSEC;

DATA;
#10=MECHANICAL_DESIGN_GEOMETRIC_PRESENTATION_REPRESENTATION('',(#13),#2361);
#11=SHAPE_REPRESENTATION_RELATIONSHIP('SRR','None',#2368,#12);
#12=ADVANCED_BREP_SHAPE_REPRESENTATION('',(#14),#2360);
#13=STYLED_ITEM('',(#2377),#14);
#14=MANIFOLD_SOLID_BREP('Body1',#1445);
#15=FACE_BOUND('',#189,.T.);
#16=FACE_BOUND('',#190,.T.);
#17=FACE_BOUND('',#193,.T.);
#18=FACE_BOUND('',#194,.T.);
#19=FACE_BOUND('',#197,.T.);
#20=FACE_BOUND('',#198,.T.);
#21=FACE_BOUND('',#201,.T.);
#22=FACE_BOUND('',#202,.T.);
#23=FACE_BOUND('',#211,.T.);
#24=FACE_BOUND('',#212,.T.);
#25=FACE_BOUND('',#215,.T.);
#26=FACE_BOUND('',#216,.T.);
#27=FACE_BOUND('',#219,.T.);
#28=FACE_BOUND('',#220,.T.);
#29=FACE_BOUND('',#223,.T.);
#30=FACE_BOUND('',#224,.T.);
#31=FACE_BOUND('',#230,.T.);
#32=FACE_BOUND('',#235,.T.);
#33=FACE_BOUND('',#237,.T.);
#34=FACE_BOUND('',#238,.T.);
#35=FACE_BOUND('',#239,.T.);
#36=FACE_BOUND('',#240,.T.);
#37=FACE_BOUND('',#244,.T.);
#38=FACE_BOUND('',#249,.T.);
#39=FACE_BOUND('',#259,.T.);
#40=FACE_BOUND('',#261,.T.);
#41=FACE_BOUND('',#269,.T.);
#42=FACE_BOUND('',#271,.T.);
#43=FACE_BOUND('',#287,.T.);
#44=FACE_BOUND('',#288,.T.);
#45=FACE_BOUND('',#289,.T.);
#46=FACE_BOUND('',#290,.T.);
#47=FACE_BOUND('',#291,.T.);
#48=FACE_BOUND('',#292,.T.);
#49=FACE_BOUND('',#293,.T.);
#50=FACE_BOUND('',#294,.T.);
#51=PLANE('',#1471);
#52=PLANE('',#1472);
#53=PLANE('',#1473);
#54=PLANE('',#1474);
#55=PLANE('',#1475);
#56=PLANE('',#1476);
#57=PLANE('',#1477);
#58=PLANE('',#1478);
#59=PLANE('',#1479);
#60=PLANE('',#1480);
#61=PLANE('',#1493);
#62=PLANE('',#1494);
#63=PLANE('',#1495);
#64=PLANE('',#1496);
#65=PLANE('',#1497);
#66=PLANE('',#1498);
#67=PLANE('',#1499);
#68=PLANE('',#1500);
#69=PLANE('',#1501);
#70=PLANE('',#1502);
#71=PLANE('',#1506);
#72=PLANE('',#1507);
#73=PLANE('',#1508);
#74=PLANE('',#1509);
#75=PLANE('',#1510);
#76=PLANE('',#1511);
#77=PLANE('',#1512);
#78=PLANE('',#1520);
#79=PLANE('',#1521);
#80=PLANE('',#1522);
#81=PLANE('',#1523);
#82=PLANE('',#1524);
#83=PLANE('',#1525);
#84=PLANE('',#1526);
#85=PLANE('',#1527);
#86=PLANE('',#1531);
#87=PLANE('',#1535);
#88=PLANE('',#1539);
#89=PLANE('',#1540);
#90=PLANE('',#1541);
#91=PLANE('',#1545);
#92=PLANE('',#1549);
#93=PLANE('',#1553);
#94=PLANE('',#1554);
#95=PLANE('',#1555);
#96=PLANE('',#1564);
#97=PLANE('',#1565);
#98=PLANE('',#1566);
#99=PLANE('',#1567);
#100=PLANE('',#1568);
#101=PLANE('',#1569);
#102=PLANE('',#1570);
#103=PLANE('',#1571);
#104=PLANE('',#1572);
#105=PLANE('',#1573);
#106=PLANE('',#1574);
#107=FACE_OUTER_BOUND('',#183,.T.);
#108=FACE_OUTER_BOUND('',#184,.T.);
#109=FACE_OUTER_BOUND('',#185,.T.);
#110=FACE_OUTER_BOUND('',#186,.T.);
#111=FACE_OUTER_BOUND('',#187,.T.);
#112=FACE_OUTER_BOUND('',#188,.T.);
#113=FACE_OUTER_BOUND('',#191,.T.);
#114=FACE_OUTER_BOUND('',#192,.T.);
#115=FACE_OUTER_BOUND('',#195,.T.);
#116=FACE_OUTER_BOUND('',#196,.T.);
#117=FACE_OUTER_BOUND('',#199,.T.);
#118=FACE_OUTER_BOUND('',#200,.T.);
#119=FACE_OUTER_BOUND('',#203,.T.);
#120=FACE_OUTER_BOUND('',#204,.T.);
#121=FACE_OUTER_BOUND('',#205,.T.);
#122=FACE_OUTER_BOUND('',#206,.T.);
#123=FACE_OUTER_BOUND('',#207,.T.);
#124=FACE_OUTER_BOUND('',#208,.T.);
#125=FACE_OUTER_BOUND('',#209,.T.);
#126=FACE_OUTER_BOUND('',#210,.T.);
#127=FACE_OUTER_BOUND('',#213,.T.);
#128=FACE_OUTER_BOUND('',#214,.T.);
#129=FACE_OUTER_BOUND('',#217,.T.);
#130=FACE_OUTER_BOUND('',#218,.T.);
#131=FACE_OUTER_BOUND('',#221,.T.);
#132=FACE_OUTER_BOUND('',#222,.T.);
#133=FACE_OUTER_BOUND('',#225,.T.);
#134=FACE_OUTER_BOUND('',#226,.T.);
#135=FACE_OUTER_BOUND('',#227,.T.);
#136=FACE_OUTER_BOUND('',#228,.T.);
#137=FACE_OUTER_BOUND('',#229,.T.);
#138=FACE_OUTER_BOUND('',#231,.T.);
#139=FACE_OUTER_BOUND('',#232,.T.);
#140=FACE_OUTER_BOUND('',#233,.T.);
#141=FACE_OUTER_BOUND('',#234,.T.);
#142=FACE_OUTER_BOUND('',#236,.T.);
#143=FACE_OUTER_BOUND('',#241,.T.);
#144=FACE_OUTER_BOUND('',#242,.T.);
#145=FACE_OUTER_BOUND('',#243,.T.);
#146=FACE_OUTER_BOUND('',#245,.T.);
#147=FACE_OUTER_BOUND('',#246,.T.);
#148=FACE_OUTER_BOUND('',#247,.T.);
#149=FACE_OUTER_BOUND('',#248,.T.);
#150=FACE_OUTER_BOUND('',#250,.T.);
#151=FACE_OUTER_BOUND('',#251,.T.);
#152=FACE_OUTER_BOUND('',#252,.T.);
#153=FACE_OUTER_BOUND('',#253,.T.);
#154=FACE_OUTER_BOUND('',#254,.T.);
#155=FACE_OUTER_BOUND('',#255,.T.);
#156=FACE_OUTER_BOUND('',#256,.T.);
#157=FACE_OUTER_BOUND('',#257,.T.);
#158=FACE_OUTER_BOUND('',#258,.T.);
#159=FACE_OUTER_BOUND('',#260,.T.);
#160=FACE_OUTER_BOUND('',#262,.T.);
#161=FACE_OUTER_BOUND('',#263,.T.);
#162=FACE_OUTER_BOUND('',#264,.T.);
#163=FACE_OUTER_BOUND('',#265,.T.);
#164=FACE_OUTER_BOUND('',#266,.T.);
#165=FACE_OUTER_BOUND('',#267,.T.);
#166=FACE_OUTER_BOUND('',#268,.T.);
#167=FACE_OUTER_BOUND('',#270,.T.);
#168=FACE_OUTER_BOUND('',#272,.T.);
#169=FACE_OUTER_BOUND('',#273,.T.);
#170=FACE_OUTER_BOUND('',#274,.T.);
#171=FACE_OUTER_BOUND('',#275,.T.);
#172=FACE_OUTER_BOUND('',#276,.T.);
#173=FACE_OUTER_BOUND('',#277,.T.);
#174=FACE_OUTER_BOUND('',#278,.T.);
#175=FACE_OUTER_BOUND('',#279,.T.);
#176=FACE_OUTER_BOUND('',#280,.T.);
#177=FACE_OUTER_BOUND('',#281,.T.);
#178=FACE_OUTER_BOUND('',#282,.T.);
#179=FACE_OUTER_BOUND('',#283,.T.);
#180=FACE_OUTER_BOUND('',#284,.T.);
#181=FACE_OUTER_BOUND('',#285,.T.);
#182=FACE_OUTER_BOUND('',#286,.T.);
#183=EDGE_LOOP('',(#961,#962,#963,#964));
#184=EDGE_LOOP('',(#965,#966,#967,#968));
#185=EDGE_LOOP('',(#969,#970,#971,#972));
#186=EDGE_LOOP('',(#973,#974,#975,#976));
#187=EDGE_LOOP('',(#977,#978,#979,#980));
#188=EDGE_LOOP('',(#981,#982,#983,#984));
#189=EDGE_LOOP('',(#985));
#190=EDGE_LOOP('',(#986));
#191=EDGE_LOOP('',(#987,#988,#989,#990));
#192=EDGE_LOOP('',(#991,#992,#993,#994));
#193=EDGE_LOOP('',(#995));
#194=EDGE_LOOP('',(#996));
#195=EDGE_LOOP('',(#997,#998,#999,#1000));
#196=EDGE_LOOP('',(#1001,#1002,#1003,#1004));
#197=EDGE_LOOP('',(#1005));
#198=EDGE_LOOP('',(#1006));
#199=EDGE_LOOP('',(#1007,#1008,#1009,#1010));
#200=EDGE_LOOP('',(#1011,#1012,#1013,#1014));
#201=EDGE_LOOP('',(#1015));
#202=EDGE_LOOP('',(#1016));
#203=EDGE_LOOP('',(#1017,#1018,#1019,#1020));
#204=EDGE_LOOP('',(#1021,#1022,#1023,#1024));
#205=EDGE_LOOP('',(#1025,#1026,#1027,#1028));
#206=EDGE_LOOP('',(#1029,#1030,#1031,#1032));
#207=EDGE_LOOP('',(#1033,#1034,#1035,#1036));
#208=EDGE_LOOP('',(#1037,#1038,#1039,#1040));
#209=EDGE_LOOP('',(#1041,#1042,#1043,#1044));
#210=EDGE_LOOP('',(#1045,#1046,#1047,#1048));
#211=EDGE_LOOP('',(#1049));
#212=EDGE_LOOP('',(#1050));
#213=EDGE_LOOP('',(#1051,#1052,#1053,#1054));
#214=EDGE_LOOP('',(#1055,#1056,#1057,#1058));
#215=EDGE_LOOP('',(#1059));
#216=EDGE_LOOP('',(#1060));
#217=EDGE_LOOP('',(#1061,#1062,#1063,#1064));
#218=EDGE_LOOP('',(#1065,#1066,#1067,#1068));
#219=EDGE_LOOP('',(#1069));
#220=EDGE_LOOP('',(#1070));
#221=EDGE_LOOP('',(#1071,#1072,#1073,#1074));
#222=EDGE_LOOP('',(#1075,#1076,#1077,#1078));
#223=EDGE_LOOP('',(#1079));
#224=EDGE_LOOP('',(#1080));
#225=EDGE_LOOP('',(#1081,#1082,#1083,#1084));
#226=EDGE_LOOP('',(#1085,#1086,#1087,#1088));
#227=EDGE_LOOP('',(#1089,#1090,#1091,#1092));
#228=EDGE_LOOP('',(#1093,#1094,#1095,#1096));
#229=EDGE_LOOP('',(#1097,#1098,#1099));
#230=EDGE_LOOP('',(#1100));
#231=EDGE_LOOP('',(#1101,#1102,#1103));
#232=EDGE_LOOP('',(#1104,#1105,#1106,#1107));
#233=EDGE_LOOP('',(#1108,#1109,#1110,#1111));
#234=EDGE_LOOP('',(#1112,#1113,#1114,#1115));
#235=EDGE_LOOP('',(#1116));
#236=EDGE_LOOP('',(#1117,#1118,#1119,#1120,#1121,#1122,#1123,#1124));
#237=EDGE_LOOP('',(#1125));
#238=EDGE_LOOP('',(#1126));
#239=EDGE_LOOP('',(#1127));
#240=EDGE_LOOP('',(#1128));
#241=EDGE_LOOP('',(#1129,#1130,#1131,#1132));
#242=EDGE_LOOP('',(#1133,#1134,#1135,#1136));
#243=EDGE_LOOP('',(#1137,#1138,#1139));
#244=EDGE_LOOP('',(#1140));
#245=EDGE_LOOP('',(#1141,#1142,#1143));
#246=EDGE_LOOP('',(#1144,#1145,#1146,#1147));
#247=EDGE_LOOP('',(#1148,#1149,#1150,#1151));
#248=EDGE_LOOP('',(#1152,#1153,#1154,#1155));
#249=EDGE_LOOP('',(#1156));
#250=EDGE_LOOP('',(#1157,#1158,#1159,#1160));
#251=EDGE_LOOP('',(#1161,#1162,#1163,#1164));
#252=EDGE_LOOP('',(#1165,#1166,#1167,#1168));
#253=EDGE_LOOP('',(#1169,#1170,#1171,#1172));
#254=EDGE_LOOP('',(#1173,#1174,#1175,#1176));
#255=EDGE_LOOP('',(#1177,#1178,#1179,#1180));
#256=EDGE_LOOP('',(#1181,#1182,#1183,#1184));
#257=EDGE_LOOP('',(#1185,#1186,#1187,#1188));
#258=EDGE_LOOP('',(#1189,#1190,#1191,#1192,#1193,#1194));
#259=EDGE_LOOP('',(#1195));
#260=EDGE_LOOP('',(#1196,#1197,#1198,#1199,#1200,#1201));
#261=EDGE_LOOP('',(#1202));
#262=EDGE_LOOP('',(#1203,#1204,#1205,#1206));
#263=EDGE_LOOP('',(#1207,#1208,#1209,#1210));
#264=EDGE_LOOP('',(#1211,#1212,#1213,#1214));
#265=EDGE_LOOP('',(#1215,#1216,#1217,#1218));
#266=EDGE_LOOP('',(#1219,#1220,#1221,#1222));
#267=EDGE_LOOP('',(#1223,#1224,#1225,#1226));
#268=EDGE_LOOP('',(#1227,#1228,#1229,#1230,#1231,#1232));
#269=EDGE_LOOP('',(#1233));
#270=EDGE_LOOP('',(#1234,#1235,#1236,#1237,#1238,#1239));
#271=EDGE_LOOP('',(#1240));
#272=EDGE_LOOP('',(#1241,#1242,#1243,#1244));
#273=EDGE_LOOP('',(#1245,#1246,#1247,#1248));
#274=EDGE_LOOP('',(#1249,#1250,#1251,#1252));
#275=EDGE_LOOP('',(#1253,#1254,#1255,#1256));
#276=EDGE_LOOP('',(#1257,#1258,#1259,#1260,#1261,#1262));
#277=EDGE_LOOP('',(#1263,#1264,#1265,#1266,#1267,#1268,#1269,#1270));
#278=EDGE_LOOP('',(#1271,#1272,#1273,#1274,#1275,#1276));
#279=EDGE_LOOP('',(#1277,#1278,#1279,#1280,#1281));
#280=EDGE_LOOP('',(#1282,#1283,#1284,#1285,#1286,#1287));
#281=EDGE_LOOP('',(#1288,#1289,#1290,#1291));
#282=EDGE_LOOP('',(#1292,#1293,#1294,#1295));
#283=EDGE_LOOP('',(#1296,#1297,#1298,#1299));
#284=EDGE_LOOP('',(#1300,#1301,#1302,#1303,#1304,#1305));
#285=EDGE_LOOP('',(#1306,#1307,#1308,#1309,#1310));
#286=EDGE_LOOP('',(#1311,#1312,#1313,#1314,#1315,#1316,#1317,#1318,#1319,
#1320,#1321,#1322,#1323,#1324,#1325,#1326,#1327,#1328));
#287=EDGE_LOOP('',(#1329));
#288=EDGE_LOOP('',(#1330));
#289=EDGE_LOOP('',(#1331));
#290=EDGE_LOOP('',(#1332));
#291=EDGE_LOOP('',(#1333,#1334,#1335,#1336));
#292=EDGE_LOOP('',(#1337,#1338,#1339,#1340));
#293=EDGE_LOOP('',(#1341,#1342,#1343,#1344));
#294=EDGE_LOOP('',(#1345,#1346,#1347,#1348));
#295=LINE('',#1968,#449);
#296=LINE('',#1974,#450);
#297=LINE('',#1980,#451);
#298=LINE('',#1986,#452);
#299=LINE('',#1991,#453);
#300=LINE('',#1993,#454);
#301=LINE('',#1995,#455);
#302=LINE('',#1996,#456);
#303=LINE('',#1999,#457);
#304=LINE('',#2001,#458);
#305=LINE('',#2002,#459);
#306=LINE('',#2005,#460);
#307=LINE('',#2007,#461);
#308=LINE('',#2008,#462);
#309=LINE('',#2010,#463);
#310=LINE('',#2011,#464);
#311=LINE('',#2016,#465);
#312=LINE('',#2018,#466);
#313=LINE('',#2020,#467);
#314=LINE('',#2021,#468);
#315=LINE('',#2024,#469);
#316=LINE('',#2026,#470);
#317=LINE('',#2027,#471);
#318=LINE('',#2030,#472);
#319=LINE('',#2032,#473);
#320=LINE('',#2033,#474);
#321=LINE('',#2035,#475);
#322=LINE('',#2036,#476);
#323=LINE('',#2042,#477);
#324=LINE('',#2048,#478);
#325=LINE('',#2054,#479);
#326=LINE('',#2060,#480);
#327=LINE('',#2065,#481);
#328=LINE('',#2067,#482);
#329=LINE('',#2069,#483);
#330=LINE('',#2070,#484);
#331=LINE('',#2073,#485);
#332=LINE('',#2075,#486);
#333=LINE('',#2076,#487);
#334=LINE('',#2079,#488);
#335=LINE('',#2081,#489);
#336=LINE('',#2082,#490);
#337=LINE('',#2084,#491);
#338=LINE('',#2085,#492);
#339=LINE('',#2090,#493);
#340=LINE('',#2092,#494);
#341=LINE('',#2094,#495);
#342=LINE('',#2095,#496);
#343=LINE('',#2098,#497);
#344=LINE('',#2100,#498);
#345=LINE('',#2101,#499);
#346=LINE('',#2104,#500);
#347=LINE('',#2106,#501);
#348=LINE('',#2107,#502);
#349=LINE('',#2109,#503);
#350=LINE('',#2110,#504);
#351=LINE('',#2116,#505);
#352=LINE('',#2121,#506);
#353=LINE('',#2123,#507);
#354=LINE('',#2125,#508);
#355=LINE('',#2126,#509);
#356=LINE('',#2129,#510);
#357=LINE('',#2130,#511);
#358=LINE('',#2133,#512);
#359=LINE('',#2134,#513);
#360=LINE('',#2138,#514);
#361=LINE('',#2139,#515);
#362=LINE('',#2140,#516);
#363=LINE('',#2143,#517);
#364=LINE('',#2144,#518);
#365=LINE('',#2147,#519);
#366=LINE('',#2148,#520);
#367=LINE('',#2151,#521);
#368=LINE('',#2153,#522);
#369=LINE('',#2155,#523);
#370=LINE('',#2157,#524);
#371=LINE('',#2159,#525);
#372=LINE('',#2161,#526);
#373=LINE('',#2162,#527);
#374=LINE('',#2175,#528);
#375=LINE('',#2179,#529);
#376=LINE('',#2181,#530);
#377=LINE('',#2183,#531);
#378=LINE('',#2184,#532);
#379=LINE('',#2187,#533);
#380=LINE('',#2188,#534);
#381=LINE('',#2191,#535);
#382=LINE('',#2192,#536);
#383=LINE('',#2196,#537);
#384=LINE('',#2197,#538);
#385=LINE('',#2198,#539);
#386=LINE('',#2201,#540);
#387=LINE('',#2202,#541);
#388=LINE('',#2204,#542);
#389=LINE('',#2207,#543);
#390=LINE('',#2208,#544);
#391=LINE('',#2211,#545);
#392=LINE('',#2212,#546);
#393=LINE('',#2217,#547);
#394=LINE('',#2222,#548);
#395=LINE('',#2224,#549);
#396=LINE('',#2226,#550);
#397=LINE('',#2227,#551);
#398=LINE('',#2232,#552);
#399=LINE('',#2236,#553);
#400=LINE('',#2238,#554);
#401=LINE('',#2239,#555);
#402=LINE('',#2244,#556);
#403=LINE('',#2248,#557);
#404=LINE('',#2250,#558);
#405=LINE('',#2251,#559);
#406=LINE('',#2253,#560);
#407=LINE('',#2255,#561);
#408=LINE('',#2260,#562);
#409=LINE('',#2265,#563);
#410=LINE('',#2267,#564);
#411=LINE('',#2269,#565);
#412=LINE('',#2270,#566);
#413=LINE('',#2276,#567);
#414=LINE('',#2279,#568);
#415=LINE('',#2281,#569);
#416=LINE('',#2282,#570);
#417=LINE('',#2288,#571);
#418=LINE('',#2291,#572);
#419=LINE('',#2293,#573);
#420=LINE('',#2294,#574);
#421=LINE('',#2296,#575);
#422=LINE('',#2298,#576);
#423=LINE('',#2301,#577);
#424=LINE('',#2305,#578);
#425=LINE('',#2309,#579);
#426=LINE('',#2313,#580);
#427=LINE('',#2317,#581);
#428=LINE('',#2319,#582);
#429=LINE('',#2320,#583);
#430=LINE('',#2322,#584);
#431=LINE('',#2323,#585);
#432=LINE('',#2325,#586);
#433=LINE('',#2326,#587);
#434=LINE('',#2329,#588);
#435=LINE('',#2330,#589);
#436=LINE('',#2333,#590);
#437=LINE('',#2334,#591);
#438=LINE('',#2337,#592);
#439=LINE('',#2338,#593);
#440=LINE('',#2341,#594);
#441=LINE('',#2342,#595);
#442=LINE('',#2345,#596);
#443=LINE('',#2346,#597);
#444=LINE('',#2349,#598);
#445=LINE('',#2350,#599);
#446=LINE('',#2353,#600);
#447=LINE('',#2354,#601);
#448=LINE('',#2356,#602);
#449=VECTOR('',#1581,2.);
#450=VECTOR('',#1588,2.);
#451=VECTOR('',#1595,2.);
#452=VECTOR('',#1602,2.);
#453=VECTOR('',#1607,10.);
#454=VECTOR('',#1608,10.);
#455=VECTOR('',#1609,10.);
#456=VECTOR('',#1610,10.);
#457=VECTOR('',#1613,10.);
#458=VECTOR('',#1614,10.);
#459=VECTOR('',#1615,10.);
#460=VECTOR('',#1618,10.);
#461=VECTOR('',#1619,10.);
#462=VECTOR('',#1620,10.);
#463=VECTOR('',#1623,10.);
#464=VECTOR('',#1624,10.);
#465=VECTOR('',#1629,10.);
#466=VECTOR('',#1630,10.);
#467=VECTOR('',#1631,10.);
#468=VECTOR('',#1632,10.);
#469=VECTOR('',#1635,10.);
#470=VECTOR('',#1636,10.);
#471=VECTOR('',#1637,10.);
#472=VECTOR('',#1640,10.);
#473=VECTOR('',#1641,10.);
#474=VECTOR('',#1642,10.);
#475=VECTOR('',#1645,10.);
#476=VECTOR('',#1646,10.);
#477=VECTOR('',#1653,2.);
#478=VECTOR('',#1660,2.);
#479=VECTOR('',#1667,2.);
#480=VECTOR('',#1674,2.);
#481=VECTOR('',#1679,10.);
#482=VECTOR('',#1680,10.);
#483=VECTOR('',#1681,10.);
#484=VECTOR('',#1682,10.);
#485=VECTOR('',#1685,10.);
#486=VECTOR('',#1686,10.);
#487=VECTOR('',#1687,10.);
#488=VECTOR('',#1690,10.);
#489=VECTOR('',#1691,10.);
#490=VECTOR('',#1692,10.);
#491=VECTOR('',#1695,10.);
#492=VECTOR('',#1696,10.);
#493=VECTOR('',#1701,10.);
#494=VECTOR('',#1702,10.);
#495=VECTOR('',#1703,10.);
#496=VECTOR('',#1704,10.);
#497=VECTOR('',#1707,10.);
#498=VECTOR('',#1708,10.);
#499=VECTOR('',#1709,10.);
#500=VECTOR('',#1712,10.);
#501=VECTOR('',#1713,10.);
#502=VECTOR('',#1714,10.);
#503=VECTOR('',#1717,10.);
#504=VECTOR('',#1718,10.);
#505=VECTOR('',#1725,2.75);
#506=VECTOR('',#1730,10.);
#507=VECTOR('',#1731,10.);
#508=VECTOR('',#1732,10.);
#509=VECTOR('',#1733,10.);
#510=VECTOR('',#1736,10.);
#511=VECTOR('',#1737,10.);
#512=VECTOR('',#1740,10.);
#513=VECTOR('',#1741,10.);
#514=VECTOR('',#1744,10.);
#515=VECTOR('',#1745,10.);
#516=VECTOR('',#1746,10.);
#517=VECTOR('',#1749,10.);
#518=VECTOR('',#1750,10.);
#519=VECTOR('',#1753,10.);
#520=VECTOR('',#1754,10.);
#521=VECTOR('',#1757,10.);
#522=VECTOR('',#1758,10.);
#523=VECTOR('',#1759,10.);
#524=VECTOR('',#1760,10.);
#525=VECTOR('',#1761,10.);
#526=VECTOR('',#1762,10.);
#527=VECTOR('',#1763,10.);
#528=VECTOR('',#1776,2.75);
#529=VECTOR('',#1781,10.);
#530=VECTOR('',#1782,10.);
#531=VECTOR('',#1783,10.);
#532=VECTOR('',#1784,10.);
#533=VECTOR('',#1787,10.);
#534=VECTOR('',#1788,10.);
#535=VECTOR('',#1791,10.);
#536=VECTOR('',#1792,10.);
#537=VECTOR('',#1795,10.);
#538=VECTOR('',#1796,10.);
#539=VECTOR('',#1797,10.);
#540=VECTOR('',#1800,10.);
#541=VECTOR('',#1801,10.);
#542=VECTOR('',#1804,10.);
#543=VECTOR('',#1807,10.);
#544=VECTOR('',#1808,10.);
#545=VECTOR('',#1811,10.);
#546=VECTOR('',#1812,10.);
#547=VECTOR('',#1817,2.65);
#548=VECTOR('',#1822,10.);
#549=VECTOR('',#1823,10.);
#550=VECTOR('',#1824,10.);
#551=VECTOR('',#1825,10.);
#552=VECTOR('',#1830,10.);
#553=VECTOR('',#1835,10.);
#554=VECTOR('',#1836,10.);
#555=VECTOR('',#1837,10.);
#556=VECTOR('',#1842,10.);
#557=VECTOR('',#1847,10.);
#558=VECTOR('',#1848,10.);
#559=VECTOR('',#1849,10.);
#560=VECTOR('',#1852,10.);
#561=VECTOR('',#1855,10.);
#562=VECTOR('',#1860,2.65);
#563=VECTOR('',#1865,10.);
#564=VECTOR('',#1866,10.);
#565=VECTOR('',#1867,10.);
#566=VECTOR('',#1868,10.);
#567=VECTOR('',#1875,10.);
#568=VECTOR('',#1878,10.);
#569=VECTOR('',#1879,10.);
#570=VECTOR('',#1880,10.);
#571=VECTOR('',#1887,10.);
#572=VECTOR('',#1890,10.);
#573=VECTOR('',#1891,10.);
#574=VECTOR('',#1892,10.);
#575=VECTOR('',#1895,10.);
#576=VECTOR('',#1898,10.);
#577=VECTOR('',#1901,2.75);
#578=VECTOR('',#1906,2.75);
#579=VECTOR('',#1911,2.75);
#580=VECTOR('',#1916,2.75);
#581=VECTOR('',#1921,10.);
#582=VECTOR('',#1922,10.);
#583=VECTOR('',#1923,10.);
#584=VECTOR('',#1926,10.);
#585=VECTOR('',#1927,10.);
#586=VECTOR('',#1928,10.);
#587=VECTOR('',#1929,10.);
#588=VECTOR('',#1932,10.);
#589=VECTOR('',#1933,10.);
#590=VECTOR('',#1936,10.);
#591=VECTOR('',#1937,10.);
#592=VECTOR('',#1940,10.);
#593=VECTOR('',#1941,10.);
#594=VECTOR('',#1944,10.);
#595=VECTOR('',#1945,10.);
#596=VECTOR('',#1948,10.);
#597=VECTOR('',#1949,10.);
#598=VECTOR('',#1952,10.);
#599=VECTOR('',#1953,10.);
#600=VECTOR('',#1956,10.);
#601=VECTOR('',#1957,10.);
#602=VECTOR('',#1960,10.);
#603=CIRCLE('',#1460,2.);
#604=CIRCLE('',#1461,2.);
#605=CIRCLE('',#1463,2.);
#606=CIRCLE('',#1464,2.);
#607=CIRCLE('',#1466,2.);
#608=CIRCLE('',#1467,2.);
#609=CIRCLE('',#1469,2.);
#610=CIRCLE('',#1470,2.);
#611=CIRCLE('',#1482,2.);
#612=CIRCLE('',#1483,2.);
#613=CIRCLE('',#1485,2.);
#614=CIRCLE('',#1486,2.);
#615=CIRCLE('',#1488,2.);
#616=CIRCLE('',#1489,2.);
#617=CIRCLE('',#1491,2.);
#618=CIRCLE('',#1492,2.);
#619=CIRCLE('',#1504,2.75);
#620=CIRCLE('',#1505,2.75);
#621=CIRCLE('',#1513,2.75);
#622=CIRCLE('',#1514,2.75);
#623=CIRCLE('',#1515,2.75);
#624=CIRCLE('',#1516,2.75);
#625=CIRCLE('',#1518,2.75);
#626=CIRCLE('',#1519,2.75);
#627=CIRCLE('',#1529,2.65);
#628=CIRCLE('',#1530,2.65);
#629=CIRCLE('',#1533,9.);
#630=CIRCLE('',#1534,9.);
#631=CIRCLE('',#1537,10.);
#632=CIRCLE('',#1538,10.);
#633=CIRCLE('',#1543,2.65);
#634=CIRCLE('',#1544,2.65);
#635=CIRCLE('',#1547,9.);
#636=CIRCLE('',#1548,9.);
#637=CIRCLE('',#1551,10.);
#638=CIRCLE('',#1552,10.);
#639=CIRCLE('',#1557,2.75);
#640=CIRCLE('',#1559,2.75);
#641=CIRCLE('',#1561,2.75);
#642=CIRCLE('',#1563,2.75);
#643=VERTEX_POINT('',#1965);
#644=VERTEX_POINT('',#1967);
#645=VERTEX_POINT('',#1971);
#646=VERTEX_POINT('',#1973);
#647=VERTEX_POINT('',#1977);
#648=VERTEX_POINT('',#1979);
#649=VERTEX_POINT('',#1983);
#650=VERTEX_POINT('',#1985);
#651=VERTEX_POINT('',#1989);
#652=VERTEX_POINT('',#1990);
#653=VERTEX_POINT('',#1992);
#654=VERTEX_POINT('',#1994);
#655=VERTEX_POINT('',#1998);
#656=VERTEX_POINT('',#2000);
#657=VERTEX_POINT('',#2004);
#658=VERTEX_POINT('',#2006);
#659=VERTEX_POINT('',#2014);
#660=VERTEX_POINT('',#2015);
#661=VERTEX_POINT('',#2017);
#662=VERTEX_POINT('',#2019);
#663=VERTEX_POINT('',#2023);
#664=VERTEX_POINT('',#2025);
#665=VERTEX_POINT('',#2029);
#666=VERTEX_POINT('',#2031);
#667=VERTEX_POINT('',#2039);
#668=VERTEX_POINT('',#2041);
#669=VERTEX_POINT('',#2045);
#670=VERTEX_POINT('',#2047);
#671=VERTEX_POINT('',#2051);
#672=VERTEX_POINT('',#2053);
#673=VERTEX_POINT('',#2057);
#674=VERTEX_POINT('',#2059);
#675=VERTEX_POINT('',#2063);
#676=VERTEX_POINT('',#2064);
#677=VERTEX_POINT('',#2066);
#678=VERTEX_POINT('',#2068);
#679=VERTEX_POINT('',#2072);
#680=VERTEX_POINT('',#2074);
#681=VERTEX_POINT('',#2078);
#682=VERTEX_POINT('',#2080);
#683=VERTEX_POINT('',#2088);
#684=VERTEX_POINT('',#2089);
#685=VERTEX_POINT('',#2091);
#686=VERTEX_POINT('',#2093);
#687=VERTEX_POINT('',#2097);
#688=VERTEX_POINT('',#2099);
#689=VERTEX_POINT('',#2103);
#690=VERTEX_POINT('',#2105);
#691=VERTEX_POINT('',#2113);
#692=VERTEX_POINT('',#2115);
#693=VERTEX_POINT('',#2119);
#694=VERTEX_POINT('',#2120);
#695=VERTEX_POINT('',#2122);
#696=VERTEX_POINT('',#2124);
#697=VERTEX_POINT('',#2128);
#698=VERTEX_POINT('',#2132);
#699=VERTEX_POINT('',#2136);
#700=VERTEX_POINT('',#2137);
#701=VERTEX_POINT('',#2142);
#702=VERTEX_POINT('',#2146);
#703=VERTEX_POINT('',#2150);
#704=VERTEX_POINT('',#2152);
#705=VERTEX_POINT('',#2154);
#706=VERTEX_POINT('',#2156);
#707=VERTEX_POINT('',#2158);
#708=VERTEX_POINT('',#2160);
#709=VERTEX_POINT('',#2163);
#710=VERTEX_POINT('',#2165);
#711=VERTEX_POINT('',#2167);
#712=VERTEX_POINT('',#2169);
#713=VERTEX_POINT('',#2172);
#714=VERTEX_POINT('',#2174);
#715=VERTEX_POINT('',#2178);
#716=VERTEX_POINT('',#2180);
#717=VERTEX_POINT('',#2182);
#718=VERTEX_POINT('',#2186);
#719=VERTEX_POINT('',#2190);
#720=VERTEX_POINT('',#2194);
#721=VERTEX_POINT('',#2195);
#722=VERTEX_POINT('',#2200);
#723=VERTEX_POINT('',#2206);
#724=VERTEX_POINT('',#2210);
#725=VERTEX_POINT('',#2214);
#726=VERTEX_POINT('',#2216);
#727=VERTEX_POINT('',#2220);
#728=VERTEX_POINT('',#2221);
#729=VERTEX_POINT('',#2223);
#730=VERTEX_POINT('',#2225);
#731=VERTEX_POINT('',#2229);
#732=VERTEX_POINT('',#2231);
#733=VERTEX_POINT('',#2235);
#734=VERTEX_POINT('',#2237);
#735=VERTEX_POINT('',#2241);
#736=VERTEX_POINT('',#2243);
#737=VERTEX_POINT('',#2247);
#738=VERTEX_POINT('',#2249);
#739=VERTEX_POINT('',#2257);
#740=VERTEX_POINT('',#2259);
#741=VERTEX_POINT('',#2263);
#742=VERTEX_POINT('',#2264);
#743=VERTEX_POINT('',#2266);
#744=VERTEX_POINT('',#2268);
#745=VERTEX_POINT('',#2272);
#746=VERTEX_POINT('',#2274);
#747=VERTEX_POINT('',#2278);
#748=VERTEX_POINT('',#2280);
#749=VERTEX_POINT('',#2284);
#750=VERTEX_POINT('',#2286);
#751=VERTEX_POINT('',#2290);
#752=VERTEX_POINT('',#2292);
#753=VERTEX_POINT('',#2300);
#754=VERTEX_POINT('',#2304);
#755=VERTEX_POINT('',#2308);
#756=VERTEX_POINT('',#2312);
#757=VERTEX_POINT('',#2316);
#758=VERTEX_POINT('',#2318);
#759=VERTEX_POINT('',#2324);
#760=VERTEX_POINT('',#2328);
#761=VERTEX_POINT('',#2332);
#762=VERTEX_POINT('',#2336);
#763=VERTEX_POINT('',#2340);
#764=VERTEX_POINT('',#2344);
#765=VERTEX_POINT('',#2348);
#766=VERTEX_POINT('',#2352);
#767=EDGE_CURVE('',#643,#643,#603,.T.);
#768=EDGE_CURVE('',#643,#644,#295,.T.);
#769=EDGE_CURVE('',#644,#644,#604,.T.);
#770=EDGE_CURVE('',#645,#645,#605,.T.);
#771=EDGE_CURVE('',#645,#646,#296,.T.);
#772=EDGE_CURVE('',#646,#646,#606,.T.);
#773=EDGE_CURVE('',#647,#647,#607,.T.);
#774=EDGE_CURVE('',#647,#648,#297,.T.);
#775=EDGE_CURVE('',#648,#648,#608,.T.);
#776=EDGE_CURVE('',#649,#649,#609,.T.);
#777=EDGE_CURVE('',#649,#650,#298,.T.);
#778=EDGE_CURVE('',#650,#650,#610,.T.);
#779=EDGE_CURVE('',#651,#652,#299,.T.);
#780=EDGE_CURVE('',#651,#653,#300,.T.);
#781=EDGE_CURVE('',#653,#654,#301,.T.);
#782=EDGE_CURVE('',#652,#654,#302,.T.);
#783=EDGE_CURVE('',#655,#651,#303,.T.);
#784=EDGE_CURVE('',#655,#656,#304,.T.);
#785=EDGE_CURVE('',#656,#653,#305,.T.);
#786=EDGE_CURVE('',#657,#655,#306,.T.);
#787=EDGE_CURVE('',#657,#658,#307,.T.);
#788=EDGE_CURVE('',#658,#656,#308,.T.);
#789=EDGE_CURVE('',#652,#657,#309,.T.);
#790=EDGE_CURVE('',#654,#658,#310,.T.);
#791=EDGE_CURVE('',#659,#660,#311,.T.);
#792=EDGE_CURVE('',#659,#661,#312,.T.);
#793=EDGE_CURVE('',#661,#662,#313,.T.);
#794=EDGE_CURVE('',#660,#662,#314,.T.);
#795=EDGE_CURVE('',#663,#659,#315,.T.);
#796=EDGE_CURVE('',#663,#664,#316,.T.);
#797=EDGE_CURVE('',#664,#661,#317,.T.);
#798=EDGE_CURVE('',#665,#663,#318,.T.);
#799=EDGE_CURVE('',#665,#666,#319,.T.);
#800=EDGE_CURVE('',#666,#664,#320,.T.);
#801=EDGE_CURVE('',#660,#665,#321,.T.);
#802=EDGE_CURVE('',#662,#666,#322,.T.);
#803=EDGE_CURVE('',#667,#667,#611,.T.);
#804=EDGE_CURVE('',#667,#668,#323,.T.);
#805=EDGE_CURVE('',#668,#668,#612,.T.);
#806=EDGE_CURVE('',#669,#669,#613,.T.);
#807=EDGE_CURVE('',#669,#670,#324,.T.);
#808=EDGE_CURVE('',#670,#670,#614,.T.);
#809=EDGE_CURVE('',#671,#671,#615,.T.);
#810=EDGE_CURVE('',#671,#672,#325,.T.);
#811=EDGE_CURVE('',#672,#672,#616,.T.);
#812=EDGE_CURVE('',#673,#673,#617,.T.);
#813=EDGE_CURVE('',#673,#674,#326,.T.);
#814=EDGE_CURVE('',#674,#674,#618,.T.);
#815=EDGE_CURVE('',#675,#676,#327,.T.);
#816=EDGE_CURVE('',#675,#677,#328,.T.);
#817=EDGE_CURVE('',#678,#677,#329,.T.);
#818=EDGE_CURVE('',#676,#678,#330,.T.);
#819=EDGE_CURVE('',#676,#679,#331,.T.);
#820=EDGE_CURVE('',#680,#678,#332,.T.);
#821=EDGE_CURVE('',#679,#680,#333,.T.);
#822=EDGE_CURVE('',#679,#681,#334,.T.);
#823=EDGE_CURVE('',#682,#680,#335,.T.);
#824=EDGE_CURVE('',#681,#682,#336,.T.);
#825=EDGE_CURVE('',#681,#675,#337,.T.);
#826=EDGE_CURVE('',#677,#682,#338,.T.);
#827=EDGE_CURVE('',#683,#684,#339,.T.);
#828=EDGE_CURVE('',#683,#685,#340,.T.);
#829=EDGE_CURVE('',#686,#685,#341,.T.);
#830=EDGE_CURVE('',#684,#686,#342,.T.);
#831=EDGE_CURVE('',#684,#687,#343,.T.);
#832=EDGE_CURVE('',#688,#686,#344,.T.);
#833=EDGE_CURVE('',#687,#688,#345,.T.);
#834=EDGE_CURVE('',#687,#689,#346,.T.);
#835=EDGE_CURVE('',#690,#688,#347,.T.);
#836=EDGE_CURVE('',#689,#690,#348,.T.);
#837=EDGE_CURVE('',#689,#683,#349,.T.);
#838=EDGE_CURVE('',#685,#690,#350,.T.);
#839=EDGE_CURVE('',#691,#691,#619,.T.);
#840=EDGE_CURVE('',#691,#692,#351,.T.);
#841=EDGE_CURVE('',#692,#692,#620,.T.);
#842=EDGE_CURVE('',#693,#694,#352,.T.);
#843=EDGE_CURVE('',#695,#694,#353,.T.);
#844=EDGE_CURVE('',#695,#696,#354,.T.);
#845=EDGE_CURVE('',#693,#696,#355,.T.);
#846=EDGE_CURVE('',#697,#695,#356,.T.);
#847=EDGE_CURVE('',#697,#696,#357,.T.);
#848=EDGE_CURVE('',#698,#697,#358,.T.);
#849=EDGE_CURVE('',#696,#698,#359,.T.);
#850=EDGE_CURVE('',#699,#700,#360,.T.);
#851=EDGE_CURVE('',#699,#696,#361,.T.);
#852=EDGE_CURVE('',#700,#698,#362,.T.);
#853=EDGE_CURVE('',#701,#699,#363,.T.);
#854=EDGE_CURVE('',#701,#693,#364,.T.);
#855=EDGE_CURVE('',#701,#702,#365,.T.);
#856=EDGE_CURVE('',#694,#702,#366,.T.);
#857=EDGE_CURVE('',#702,#703,#367,.T.);
#858=EDGE_CURVE('',#703,#704,#368,.T.);
#859=EDGE_CURVE('',#705,#704,#369,.T.);
#860=EDGE_CURVE('',#706,#705,#370,.T.);
#861=EDGE_CURVE('',#707,#706,#371,.T.);
#862=EDGE_CURVE('',#708,#707,#372,.T.);
#863=EDGE_CURVE('',#694,#708,#373,.T.);
#864=EDGE_CURVE('',#709,#709,#621,.T.);
#865=EDGE_CURVE('',#710,#710,#622,.T.);
#866=EDGE_CURVE('',#711,#711,#623,.T.);
#867=EDGE_CURVE('',#712,#712,#624,.T.);
#868=EDGE_CURVE('',#713,#713,#625,.T.);
#869=EDGE_CURVE('',#713,#714,#374,.T.);
#870=EDGE_CURVE('',#714,#714,#626,.T.);
#871=EDGE_CURVE('',#715,#704,#375,.T.);
#872=EDGE_CURVE('',#715,#716,#376,.T.);
#873=EDGE_CURVE('',#717,#716,#377,.T.);
#874=EDGE_CURVE('',#704,#717,#378,.T.);
#875=EDGE_CURVE('',#718,#716,#379,.T.);
#876=EDGE_CURVE('',#717,#718,#380,.T.);
#877=EDGE_CURVE('',#716,#719,#381,.T.);
#878=EDGE_CURVE('',#718,#719,#382,.T.);
#879=EDGE_CURVE('',#720,#721,#383,.T.);
#880=EDGE_CURVE('',#719,#721,#384,.T.);
#881=EDGE_CURVE('',#720,#716,#385,.T.);
#882=EDGE_CURVE('',#722,#720,#386,.T.);
#883=EDGE_CURVE('',#722,#715,#387,.T.);
#884=EDGE_CURVE('',#722,#703,#388,.T.);
#885=EDGE_CURVE('',#723,#695,#389,.T.);
#886=EDGE_CURVE('',#698,#723,#390,.T.);
#887=EDGE_CURVE('',#724,#719,#391,.T.);
#888=EDGE_CURVE('',#717,#724,#392,.T.);
#889=EDGE_CURVE('',#725,#725,#627,.T.);
#890=EDGE_CURVE('',#725,#726,#393,.T.);
#891=EDGE_CURVE('',#726,#726,#628,.T.);
#892=EDGE_CURVE('',#727,#728,#394,.T.);
#893=EDGE_CURVE('',#728,#729,#395,.T.);
#894=EDGE_CURVE('',#729,#730,#396,.T.);
#895=EDGE_CURVE('',#730,#727,#397,.T.);
#896=EDGE_CURVE('',#731,#728,#629,.T.);
#897=EDGE_CURVE('',#731,#732,#398,.T.);
#898=EDGE_CURVE('',#732,#729,#630,.T.);
#899=EDGE_CURVE('',#731,#733,#399,.T.);
#900=EDGE_CURVE('',#733,#734,#400,.T.);
#901=EDGE_CURVE('',#734,#732,#401,.T.);
#902=EDGE_CURVE('',#735,#733,#631,.T.);
#903=EDGE_CURVE('',#735,#736,#402,.T.);
#904=EDGE_CURVE('',#736,#734,#632,.T.);
#905=EDGE_CURVE('',#735,#737,#403,.T.);
#906=EDGE_CURVE('',#738,#737,#404,.T.);
#907=EDGE_CURVE('',#738,#736,#405,.T.);
#908=EDGE_CURVE('',#730,#738,#406,.T.);
#909=EDGE_CURVE('',#737,#727,#407,.T.);
#910=EDGE_CURVE('',#739,#739,#633,.T.);
#911=EDGE_CURVE('',#739,#740,#408,.T.);
#912=EDGE_CURVE('',#740,#740,#634,.T.);
#913=EDGE_CURVE('',#741,#742,#409,.T.);
#914=EDGE_CURVE('',#741,#743,#410,.T.);
#915=EDGE_CURVE('',#744,#743,#411,.T.);
#916=EDGE_CURVE('',#742,#744,#412,.T.);
#917=EDGE_CURVE('',#745,#742,#635,.T.);
#918=EDGE_CURVE('',#746,#744,#636,.T.);
#919=EDGE_CURVE('',#745,#746,#413,.T.);
#920=EDGE_CURVE('',#745,#747,#414,.T.);
#921=EDGE_CURVE('',#748,#746,#415,.T.);
#922=EDGE_CURVE('',#747,#748,#416,.T.);
#923=EDGE_CURVE('',#749,#747,#637,.T.);
#924=EDGE_CURVE('',#750,#748,#638,.T.);
#925=EDGE_CURVE('',#749,#750,#417,.T.);
#926=EDGE_CURVE('',#749,#751,#418,.T.);
#927=EDGE_CURVE('',#752,#750,#419,.T.);
#928=EDGE_CURVE('',#751,#752,#420,.T.);
#929=EDGE_CURVE('',#752,#743,#421,.T.);
#930=EDGE_CURVE('',#741,#751,#422,.T.);
#931=EDGE_CURVE('',#709,#753,#423,.T.);
#932=EDGE_CURVE('',#753,#753,#639,.T.);
#933=EDGE_CURVE('',#710,#754,#424,.T.);
#934=EDGE_CURVE('',#754,#754,#640,.T.);
#935=EDGE_CURVE('',#711,#755,#425,.T.);
#936=EDGE_CURVE('',#755,#755,#641,.T.);
#937=EDGE_CURVE('',#712,#756,#426,.T.);
#938=EDGE_CURVE('',#756,#756,#642,.T.);
#939=EDGE_CURVE('',#700,#757,#427,.T.);
#940=EDGE_CURVE('',#758,#757,#428,.T.);
#941=EDGE_CURVE('',#702,#758,#429,.T.);
#942=EDGE_CURVE('',#743,#758,#430,.T.);
#943=EDGE_CURVE('',#727,#741,#431,.T.);
#944=EDGE_CURVE('',#759,#730,#432,.T.);
#945=EDGE_CURVE('',#703,#759,#433,.T.);
#946=EDGE_CURVE('',#760,#759,#434,.T.);
#947=EDGE_CURVE('',#721,#760,#435,.T.);
#948=EDGE_CURVE('',#761,#760,#436,.T.);
#949=EDGE_CURVE('',#724,#761,#437,.T.);
#950=EDGE_CURVE('',#762,#761,#438,.T.);
#951=EDGE_CURVE('',#705,#762,#439,.T.);
#952=EDGE_CURVE('',#763,#762,#440,.T.);
#953=EDGE_CURVE('',#706,#763,#441,.T.);
#954=EDGE_CURVE('',#764,#763,#442,.T.);
#955=EDGE_CURVE('',#707,#764,#443,.T.);
#956=EDGE_CURVE('',#765,#764,#444,.T.);
#957=EDGE_CURVE('',#708,#765,#445,.T.);
#958=EDGE_CURVE('',#766,#765,#446,.T.);
#959=EDGE_CURVE('',#723,#766,#447,.T.);
#960=EDGE_CURVE('',#757,#766,#448,.T.);
#961=ORIENTED_EDGE('',*,*,#767,.F.);
#962=ORIENTED_EDGE('',*,*,#768,.T.);
#963=ORIENTED_EDGE('',*,*,#769,.F.);
#964=ORIENTED_EDGE('',*,*,#768,.F.);
#965=ORIENTED_EDGE('',*,*,#770,.F.);
#966=ORIENTED_EDGE('',*,*,#771,.T.);
#967=ORIENTED_EDGE('',*,*,#772,.F.);
#968=ORIENTED_EDGE('',*,*,#771,.F.);
#969=ORIENTED_EDGE('',*,*,#773,.F.);
#970=ORIENTED_EDGE('',*,*,#774,.T.);
#971=ORIENTED_EDGE('',*,*,#775,.F.);
#972=ORIENTED_EDGE('',*,*,#774,.F.);
#973=ORIENTED_EDGE('',*,*,#776,.F.);
#974=ORIENTED_EDGE('',*,*,#777,.T.);
#975=ORIENTED_EDGE('',*,*,#778,.F.);
#976=ORIENTED_EDGE('',*,*,#777,.F.);
#977=ORIENTED_EDGE('',*,*,#779,.F.);
#978=ORIENTED_EDGE('',*,*,#780,.T.);
#979=ORIENTED_EDGE('',*,*,#781,.T.);
#980=ORIENTED_EDGE('',*,*,#782,.F.);
#981=ORIENTED_EDGE('',*,*,#783,.F.);
#982=ORIENTED_EDGE('',*,*,#784,.T.);
#983=ORIENTED_EDGE('',*,*,#785,.T.);
#984=ORIENTED_EDGE('',*,*,#780,.F.);
#985=ORIENTED_EDGE('',*,*,#770,.T.);
#986=ORIENTED_EDGE('',*,*,#773,.T.);
#987=ORIENTED_EDGE('',*,*,#786,.F.);
#988=ORIENTED_EDGE('',*,*,#787,.T.);
#989=ORIENTED_EDGE('',*,*,#788,.T.);
#990=ORIENTED_EDGE('',*,*,#784,.F.);
#991=ORIENTED_EDGE('',*,*,#789,.F.);
#992=ORIENTED_EDGE('',*,*,#782,.T.);
#993=ORIENTED_EDGE('',*,*,#790,.T.);
#994=ORIENTED_EDGE('',*,*,#787,.F.);
#995=ORIENTED_EDGE('',*,*,#772,.T.);
#996=ORIENTED_EDGE('',*,*,#775,.T.);
#997=ORIENTED_EDGE('',*,*,#790,.F.);
#998=ORIENTED_EDGE('',*,*,#781,.F.);
#999=ORIENTED_EDGE('',*,*,#785,.F.);
#1000=ORIENTED_EDGE('',*,*,#788,.F.);
#1001=ORIENTED_EDGE('',*,*,#791,.F.);
#1002=ORIENTED_EDGE('',*,*,#792,.T.);
#1003=ORIENTED_EDGE('',*,*,#793,.T.);
#1004=ORIENTED_EDGE('',*,*,#794,.F.);
#1005=ORIENTED_EDGE('',*,*,#769,.T.);
#1006=ORIENTED_EDGE('',*,*,#778,.T.);
#1007=ORIENTED_EDGE('',*,*,#795,.F.);
#1008=ORIENTED_EDGE('',*,*,#796,.T.);
#1009=ORIENTED_EDGE('',*,*,#797,.T.);
#1010=ORIENTED_EDGE('',*,*,#792,.F.);
#1011=ORIENTED_EDGE('',*,*,#798,.F.);
#1012=ORIENTED_EDGE('',*,*,#799,.T.);
#1013=ORIENTED_EDGE('',*,*,#800,.T.);
#1014=ORIENTED_EDGE('',*,*,#796,.F.);
#1015=ORIENTED_EDGE('',*,*,#767,.T.);
#1016=ORIENTED_EDGE('',*,*,#776,.T.);
#1017=ORIENTED_EDGE('',*,*,#801,.F.);
#1018=ORIENTED_EDGE('',*,*,#794,.T.);
#1019=ORIENTED_EDGE('',*,*,#802,.T.);
#1020=ORIENTED_EDGE('',*,*,#799,.F.);
#1021=ORIENTED_EDGE('',*,*,#802,.F.);
#1022=ORIENTED_EDGE('',*,*,#793,.F.);
#1023=ORIENTED_EDGE('',*,*,#797,.F.);
#1024=ORIENTED_EDGE('',*,*,#800,.F.);
#1025=ORIENTED_EDGE('',*,*,#803,.F.);
#1026=ORIENTED_EDGE('',*,*,#804,.T.);
#1027=ORIENTED_EDGE('',*,*,#805,.F.);
#1028=ORIENTED_EDGE('',*,*,#804,.F.);
#1029=ORIENTED_EDGE('',*,*,#806,.F.);
#1030=ORIENTED_EDGE('',*,*,#807,.T.);
#1031=ORIENTED_EDGE('',*,*,#808,.F.);
#1032=ORIENTED_EDGE('',*,*,#807,.F.);
#1033=ORIENTED_EDGE('',*,*,#809,.F.);
#1034=ORIENTED_EDGE('',*,*,#810,.T.);
#1035=ORIENTED_EDGE('',*,*,#811,.F.);
#1036=ORIENTED_EDGE('',*,*,#810,.F.);
#1037=ORIENTED_EDGE('',*,*,#812,.F.);
#1038=ORIENTED_EDGE('',*,*,#813,.T.);
#1039=ORIENTED_EDGE('',*,*,#814,.F.);
#1040=ORIENTED_EDGE('',*,*,#813,.F.);
#1041=ORIENTED_EDGE('',*,*,#815,.F.);
#1042=ORIENTED_EDGE('',*,*,#816,.T.);
#1043=ORIENTED_EDGE('',*,*,#817,.F.);
#1044=ORIENTED_EDGE('',*,*,#818,.F.);
#1045=ORIENTED_EDGE('',*,*,#819,.F.);
#1046=ORIENTED_EDGE('',*,*,#818,.T.);
#1047=ORIENTED_EDGE('',*,*,#820,.F.);
#1048=ORIENTED_EDGE('',*,*,#821,.F.);
#1049=ORIENTED_EDGE('',*,*,#803,.T.);
#1050=ORIENTED_EDGE('',*,*,#809,.T.);
#1051=ORIENTED_EDGE('',*,*,#822,.F.);
#1052=ORIENTED_EDGE('',*,*,#821,.T.);
#1053=ORIENTED_EDGE('',*,*,#823,.F.);
#1054=ORIENTED_EDGE('',*,*,#824,.F.);
#1055=ORIENTED_EDGE('',*,*,#825,.F.);
#1056=ORIENTED_EDGE('',*,*,#824,.T.);
#1057=ORIENTED_EDGE('',*,*,#826,.F.);
#1058=ORIENTED_EDGE('',*,*,#816,.F.);
#1059=ORIENTED_EDGE('',*,*,#805,.T.);
#1060=ORIENTED_EDGE('',*,*,#811,.T.);
#1061=ORIENTED_EDGE('',*,*,#826,.T.);
#1062=ORIENTED_EDGE('',*,*,#823,.T.);
#1063=ORIENTED_EDGE('',*,*,#820,.T.);
#1064=ORIENTED_EDGE('',*,*,#817,.T.);
#1065=ORIENTED_EDGE('',*,*,#827,.F.);
#1066=ORIENTED_EDGE('',*,*,#828,.T.);
#1067=ORIENTED_EDGE('',*,*,#829,.F.);
#1068=ORIENTED_EDGE('',*,*,#830,.F.);
#1069=ORIENTED_EDGE('',*,*,#808,.T.);
#1070=ORIENTED_EDGE('',*,*,#814,.T.);
#1071=ORIENTED_EDGE('',*,*,#831,.F.);
#1072=ORIENTED_EDGE('',*,*,#830,.T.);
#1073=ORIENTED_EDGE('',*,*,#832,.F.);
#1074=ORIENTED_EDGE('',*,*,#833,.F.);
#1075=ORIENTED_EDGE('',*,*,#834,.F.);
#1076=ORIENTED_EDGE('',*,*,#833,.T.);
#1077=ORIENTED_EDGE('',*,*,#835,.F.);
#1078=ORIENTED_EDGE('',*,*,#836,.F.);
#1079=ORIENTED_EDGE('',*,*,#806,.T.);
#1080=ORIENTED_EDGE('',*,*,#812,.T.);
#1081=ORIENTED_EDGE('',*,*,#837,.F.);
#1082=ORIENTED_EDGE('',*,*,#836,.T.);
#1083=ORIENTED_EDGE('',*,*,#838,.F.);
#1084=ORIENTED_EDGE('',*,*,#828,.F.);
#1085=ORIENTED_EDGE('',*,*,#838,.T.);
#1086=ORIENTED_EDGE('',*,*,#835,.T.);
#1087=ORIENTED_EDGE('',*,*,#832,.T.);
#1088=ORIENTED_EDGE('',*,*,#829,.T.);
#1089=ORIENTED_EDGE('',*,*,#839,.T.);
#1090=ORIENTED_EDGE('',*,*,#840,.T.);
#1091=ORIENTED_EDGE('',*,*,#841,.T.);
#1092=ORIENTED_EDGE('',*,*,#840,.F.);
#1093=ORIENTED_EDGE('',*,*,#842,.T.);
#1094=ORIENTED_EDGE('',*,*,#843,.F.);
#1095=ORIENTED_EDGE('',*,*,#844,.T.);
#1096=ORIENTED_EDGE('',*,*,#845,.F.);
#1097=ORIENTED_EDGE('',*,*,#844,.F.);
#1098=ORIENTED_EDGE('',*,*,#846,.F.);
#1099=ORIENTED_EDGE('',*,*,#847,.T.);
#1100=ORIENTED_EDGE('',*,*,#841,.F.);
#1101=ORIENTED_EDGE('',*,*,#847,.F.);
#1102=ORIENTED_EDGE('',*,*,#848,.F.);
#1103=ORIENTED_EDGE('',*,*,#849,.F.);
#1104=ORIENTED_EDGE('',*,*,#850,.F.);
#1105=ORIENTED_EDGE('',*,*,#851,.T.);
#1106=ORIENTED_EDGE('',*,*,#849,.T.);
#1107=ORIENTED_EDGE('',*,*,#852,.F.);
#1108=ORIENTED_EDGE('',*,*,#853,.F.);
#1109=ORIENTED_EDGE('',*,*,#854,.T.);
#1110=ORIENTED_EDGE('',*,*,#845,.T.);
#1111=ORIENTED_EDGE('',*,*,#851,.F.);
#1112=ORIENTED_EDGE('',*,*,#855,.T.);
#1113=ORIENTED_EDGE('',*,*,#856,.F.);
#1114=ORIENTED_EDGE('',*,*,#842,.F.);
#1115=ORIENTED_EDGE('',*,*,#854,.F.);
#1116=ORIENTED_EDGE('',*,*,#839,.F.);
#1117=ORIENTED_EDGE('',*,*,#856,.T.);
#1118=ORIENTED_EDGE('',*,*,#857,.T.);
#1119=ORIENTED_EDGE('',*,*,#858,.T.);
#1120=ORIENTED_EDGE('',*,*,#859,.F.);
#1121=ORIENTED_EDGE('',*,*,#860,.F.);
#1122=ORIENTED_EDGE('',*,*,#861,.F.);
#1123=ORIENTED_EDGE('',*,*,#862,.F.);
#1124=ORIENTED_EDGE('',*,*,#863,.F.);
#1125=ORIENTED_EDGE('',*,*,#864,.T.);
#1126=ORIENTED_EDGE('',*,*,#865,.T.);
#1127=ORIENTED_EDGE('',*,*,#866,.T.);
#1128=ORIENTED_EDGE('',*,*,#867,.T.);
#1129=ORIENTED_EDGE('',*,*,#868,.F.);
#1130=ORIENTED_EDGE('',*,*,#869,.T.);
#1131=ORIENTED_EDGE('',*,*,#870,.F.);
#1132=ORIENTED_EDGE('',*,*,#869,.F.);
#1133=ORIENTED_EDGE('',*,*,#871,.F.);
#1134=ORIENTED_EDGE('',*,*,#872,.T.);
#1135=ORIENTED_EDGE('',*,*,#873,.F.);
#1136=ORIENTED_EDGE('',*,*,#874,.F.);
#1137=ORIENTED_EDGE('',*,*,#873,.T.);
#1138=ORIENTED_EDGE('',*,*,#875,.F.);
#1139=ORIENTED_EDGE('',*,*,#876,.F.);
#1140=ORIENTED_EDGE('',*,*,#870,.T.);
#1141=ORIENTED_EDGE('',*,*,#875,.T.);
#1142=ORIENTED_EDGE('',*,*,#877,.T.);
#1143=ORIENTED_EDGE('',*,*,#878,.F.);
#1144=ORIENTED_EDGE('',*,*,#879,.T.);
#1145=ORIENTED_EDGE('',*,*,#880,.F.);
#1146=ORIENTED_EDGE('',*,*,#877,.F.);
#1147=ORIENTED_EDGE('',*,*,#881,.F.);
#1148=ORIENTED_EDGE('',*,*,#882,.T.);
#1149=ORIENTED_EDGE('',*,*,#881,.T.);
#1150=ORIENTED_EDGE('',*,*,#872,.F.);
#1151=ORIENTED_EDGE('',*,*,#883,.F.);
#1152=ORIENTED_EDGE('',*,*,#884,.F.);
#1153=ORIENTED_EDGE('',*,*,#883,.T.);
#1154=ORIENTED_EDGE('',*,*,#871,.T.);
#1155=ORIENTED_EDGE('',*,*,#858,.F.);
#1156=ORIENTED_EDGE('',*,*,#868,.T.);
#1157=ORIENTED_EDGE('',*,*,#846,.T.);
#1158=ORIENTED_EDGE('',*,*,#885,.F.);
#1159=ORIENTED_EDGE('',*,*,#886,.F.);
#1160=ORIENTED_EDGE('',*,*,#848,.T.);
#1161=ORIENTED_EDGE('',*,*,#876,.T.);
#1162=ORIENTED_EDGE('',*,*,#878,.T.);
#1163=ORIENTED_EDGE('',*,*,#887,.F.);
#1164=ORIENTED_EDGE('',*,*,#888,.F.);
#1165=ORIENTED_EDGE('',*,*,#889,.T.);
#1166=ORIENTED_EDGE('',*,*,#890,.T.);
#1167=ORIENTED_EDGE('',*,*,#891,.T.);
#1168=ORIENTED_EDGE('',*,*,#890,.F.);
#1169=ORIENTED_EDGE('',*,*,#892,.T.);
#1170=ORIENTED_EDGE('',*,*,#893,.T.);
#1171=ORIENTED_EDGE('',*,*,#894,.T.);
#1172=ORIENTED_EDGE('',*,*,#895,.T.);
#1173=ORIENTED_EDGE('',*,*,#896,.F.);
#1174=ORIENTED_EDGE('',*,*,#897,.T.);
#1175=ORIENTED_EDGE('',*,*,#898,.T.);
#1176=ORIENTED_EDGE('',*,*,#893,.F.);
#1177=ORIENTED_EDGE('',*,*,#899,.T.);
#1178=ORIENTED_EDGE('',*,*,#900,.T.);
#1179=ORIENTED_EDGE('',*,*,#901,.T.);
#1180=ORIENTED_EDGE('',*,*,#897,.F.);
#1181=ORIENTED_EDGE('',*,*,#902,.F.);
#1182=ORIENTED_EDGE('',*,*,#903,.T.);
#1183=ORIENTED_EDGE('',*,*,#904,.T.);
#1184=ORIENTED_EDGE('',*,*,#900,.F.);
#1185=ORIENTED_EDGE('',*,*,#905,.T.);
#1186=ORIENTED_EDGE('',*,*,#906,.F.);
#1187=ORIENTED_EDGE('',*,*,#907,.T.);
#1188=ORIENTED_EDGE('',*,*,#903,.F.);
#1189=ORIENTED_EDGE('',*,*,#908,.F.);
#1190=ORIENTED_EDGE('',*,*,#894,.F.);
#1191=ORIENTED_EDGE('',*,*,#898,.F.);
#1192=ORIENTED_EDGE('',*,*,#901,.F.);
#1193=ORIENTED_EDGE('',*,*,#904,.F.);
#1194=ORIENTED_EDGE('',*,*,#907,.F.);
#1195=ORIENTED_EDGE('',*,*,#891,.F.);
#1196=ORIENTED_EDGE('',*,*,#909,.F.);
#1197=ORIENTED_EDGE('',*,*,#905,.F.);
#1198=ORIENTED_EDGE('',*,*,#902,.T.);
#1199=ORIENTED_EDGE('',*,*,#899,.F.);
#1200=ORIENTED_EDGE('',*,*,#896,.T.);
#1201=ORIENTED_EDGE('',*,*,#892,.F.);
#1202=ORIENTED_EDGE('',*,*,#889,.F.);
#1203=ORIENTED_EDGE('',*,*,#910,.F.);
#1204=ORIENTED_EDGE('',*,*,#911,.T.);
#1205=ORIENTED_EDGE('',*,*,#912,.F.);
#1206=ORIENTED_EDGE('',*,*,#911,.F.);
#1207=ORIENTED_EDGE('',*,*,#913,.F.);
#1208=ORIENTED_EDGE('',*,*,#914,.T.);
#1209=ORIENTED_EDGE('',*,*,#915,.F.);
#1210=ORIENTED_EDGE('',*,*,#916,.F.);
#1211=ORIENTED_EDGE('',*,*,#917,.T.);
#1212=ORIENTED_EDGE('',*,*,#916,.T.);
#1213=ORIENTED_EDGE('',*,*,#918,.F.);
#1214=ORIENTED_EDGE('',*,*,#919,.F.);
#1215=ORIENTED_EDGE('',*,*,#920,.F.);
#1216=ORIENTED_EDGE('',*,*,#919,.T.);
#1217=ORIENTED_EDGE('',*,*,#921,.F.);
#1218=ORIENTED_EDGE('',*,*,#922,.F.);
#1219=ORIENTED_EDGE('',*,*,#923,.T.);
#1220=ORIENTED_EDGE('',*,*,#922,.T.);
#1221=ORIENTED_EDGE('',*,*,#924,.F.);
#1222=ORIENTED_EDGE('',*,*,#925,.F.);
#1223=ORIENTED_EDGE('',*,*,#926,.F.);
#1224=ORIENTED_EDGE('',*,*,#925,.T.);
#1225=ORIENTED_EDGE('',*,*,#927,.F.);
#1226=ORIENTED_EDGE('',*,*,#928,.F.);
#1227=ORIENTED_EDGE('',*,*,#929,.F.);
#1228=ORIENTED_EDGE('',*,*,#927,.T.);
#1229=ORIENTED_EDGE('',*,*,#924,.T.);
#1230=ORIENTED_EDGE('',*,*,#921,.T.);
#1231=ORIENTED_EDGE('',*,*,#918,.T.);
#1232=ORIENTED_EDGE('',*,*,#915,.T.);
#1233=ORIENTED_EDGE('',*,*,#912,.T.);
#1234=ORIENTED_EDGE('',*,*,#930,.F.);
#1235=ORIENTED_EDGE('',*,*,#913,.T.);
#1236=ORIENTED_EDGE('',*,*,#917,.F.);
#1237=ORIENTED_EDGE('',*,*,#920,.T.);
#1238=ORIENTED_EDGE('',*,*,#923,.F.);
#1239=ORIENTED_EDGE('',*,*,#926,.T.);
#1240=ORIENTED_EDGE('',*,*,#910,.T.);
#1241=ORIENTED_EDGE('',*,*,#864,.F.);
#1242=ORIENTED_EDGE('',*,*,#931,.T.);
#1243=ORIENTED_EDGE('',*,*,#932,.F.);
#1244=ORIENTED_EDGE('',*,*,#931,.F.);
#1245=ORIENTED_EDGE('',*,*,#865,.F.);
#1246=ORIENTED_EDGE('',*,*,#933,.T.);
#1247=ORIENTED_EDGE('',*,*,#934,.F.);
#1248=ORIENTED_EDGE('',*,*,#933,.F.);
#1249=ORIENTED_EDGE('',*,*,#866,.F.);
#1250=ORIENTED_EDGE('',*,*,#935,.T.);
#1251=ORIENTED_EDGE('',*,*,#936,.F.);
#1252=ORIENTED_EDGE('',*,*,#935,.F.);
#1253=ORIENTED_EDGE('',*,*,#867,.F.);
#1254=ORIENTED_EDGE('',*,*,#937,.T.);
#1255=ORIENTED_EDGE('',*,*,#938,.F.);
#1256=ORIENTED_EDGE('',*,*,#937,.F.);
#1257=ORIENTED_EDGE('',*,*,#939,.T.);
#1258=ORIENTED_EDGE('',*,*,#940,.F.);
#1259=ORIENTED_EDGE('',*,*,#941,.F.);
#1260=ORIENTED_EDGE('',*,*,#855,.F.);
#1261=ORIENTED_EDGE('',*,*,#853,.T.);
#1262=ORIENTED_EDGE('',*,*,#850,.T.);
#1263=ORIENTED_EDGE('',*,*,#857,.F.);
#1264=ORIENTED_EDGE('',*,*,#941,.T.);
#1265=ORIENTED_EDGE('',*,*,#942,.F.);
#1266=ORIENTED_EDGE('',*,*,#914,.F.);
#1267=ORIENTED_EDGE('',*,*,#943,.F.);
#1268=ORIENTED_EDGE('',*,*,#895,.F.);
#1269=ORIENTED_EDGE('',*,*,#944,.F.);
#1270=ORIENTED_EDGE('',*,*,#945,.F.);
#1271=ORIENTED_EDGE('',*,*,#945,.T.);
#1272=ORIENTED_EDGE('',*,*,#946,.F.);
#1273=ORIENTED_EDGE('',*,*,#947,.F.);
#1274=ORIENTED_EDGE('',*,*,#879,.F.);
#1275=ORIENTED_EDGE('',*,*,#882,.F.);
#1276=ORIENTED_EDGE('',*,*,#884,.T.);
#1277=ORIENTED_EDGE('',*,*,#887,.T.);
#1278=ORIENTED_EDGE('',*,*,#880,.T.);
#1279=ORIENTED_EDGE('',*,*,#947,.T.);
#1280=ORIENTED_EDGE('',*,*,#948,.F.);
#1281=ORIENTED_EDGE('',*,*,#949,.F.);
#1282=ORIENTED_EDGE('',*,*,#859,.T.);
#1283=ORIENTED_EDGE('',*,*,#874,.T.);
#1284=ORIENTED_EDGE('',*,*,#888,.T.);
#1285=ORIENTED_EDGE('',*,*,#949,.T.);
#1286=ORIENTED_EDGE('',*,*,#950,.F.);
#1287=ORIENTED_EDGE('',*,*,#951,.F.);
#1288=ORIENTED_EDGE('',*,*,#860,.T.);
#1289=ORIENTED_EDGE('',*,*,#951,.T.);
#1290=ORIENTED_EDGE('',*,*,#952,.F.);
#1291=ORIENTED_EDGE('',*,*,#953,.F.);
#1292=ORIENTED_EDGE('',*,*,#861,.T.);
#1293=ORIENTED_EDGE('',*,*,#953,.T.);
#1294=ORIENTED_EDGE('',*,*,#954,.F.);
#1295=ORIENTED_EDGE('',*,*,#955,.F.);
#1296=ORIENTED_EDGE('',*,*,#862,.T.);
#1297=ORIENTED_EDGE('',*,*,#955,.T.);
#1298=ORIENTED_EDGE('',*,*,#956,.F.);
#1299=ORIENTED_EDGE('',*,*,#957,.F.);
#1300=ORIENTED_EDGE('',*,*,#885,.T.);
#1301=ORIENTED_EDGE('',*,*,#843,.T.);
#1302=ORIENTED_EDGE('',*,*,#863,.T.);
#1303=ORIENTED_EDGE('',*,*,#957,.T.);
#1304=ORIENTED_EDGE('',*,*,#958,.F.);
#1305=ORIENTED_EDGE('',*,*,#959,.F.);
#1306=ORIENTED_EDGE('',*,*,#852,.T.);
#1307=ORIENTED_EDGE('',*,*,#886,.T.);
#1308=ORIENTED_EDGE('',*,*,#959,.T.);
#1309=ORIENTED_EDGE('',*,*,#960,.F.);
#1310=ORIENTED_EDGE('',*,*,#939,.F.);
#1311=ORIENTED_EDGE('',*,*,#909,.T.);
#1312=ORIENTED_EDGE('',*,*,#943,.T.);
#1313=ORIENTED_EDGE('',*,*,#930,.T.);
#1314=ORIENTED_EDGE('',*,*,#928,.T.);
#1315=ORIENTED_EDGE('',*,*,#929,.T.);
#1316=ORIENTED_EDGE('',*,*,#942,.T.);
#1317=ORIENTED_EDGE('',*,*,#940,.T.);
#1318=ORIENTED_EDGE('',*,*,#960,.T.);
#1319=ORIENTED_EDGE('',*,*,#958,.T.);
#1320=ORIENTED_EDGE('',*,*,#956,.T.);
#1321=ORIENTED_EDGE('',*,*,#954,.T.);
#1322=ORIENTED_EDGE('',*,*,#952,.T.);
#1323=ORIENTED_EDGE('',*,*,#950,.T.);
#1324=ORIENTED_EDGE('',*,*,#948,.T.);
#1325=ORIENTED_EDGE('',*,*,#946,.T.);
#1326=ORIENTED_EDGE('',*,*,#944,.T.);
#1327=ORIENTED_EDGE('',*,*,#908,.T.);
#1328=ORIENTED_EDGE('',*,*,#906,.T.);
#1329=ORIENTED_EDGE('',*,*,#938,.T.);
#1330=ORIENTED_EDGE('',*,*,#936,.T.);
#1331=ORIENTED_EDGE('',*,*,#934,.T.);
#1332=ORIENTED_EDGE('',*,*,#932,.T.);
#1333=ORIENTED_EDGE('',*,*,#827,.T.);
#1334=ORIENTED_EDGE('',*,*,#831,.T.);
#1335=ORIENTED_EDGE('',*,*,#834,.T.);
#1336=ORIENTED_EDGE('',*,*,#837,.T.);
#1337=ORIENTED_EDGE('',*,*,#815,.T.);
#1338=ORIENTED_EDGE('',*,*,#819,.T.);
#1339=ORIENTED_EDGE('',*,*,#822,.T.);
#1340=ORIENTED_EDGE('',*,*,#825,.T.);
#1341=ORIENTED_EDGE('',*,*,#791,.T.);
#1342=ORIENTED_EDGE('',*,*,#801,.T.);
#1343=ORIENTED_EDGE('',*,*,#798,.T.);
#1344=ORIENTED_EDGE('',*,*,#795,.T.);
#1345=ORIENTED_EDGE('',*,*,#779,.T.);
#1346=ORIENTED_EDGE('',*,*,#789,.T.);
#1347=ORIENTED_EDGE('',*,*,#786,.T.);
#1348=ORIENTED_EDGE('',*,*,#783,.T.);
#1349=CYLINDRICAL_SURFACE('',#1459,2.);
#1350=CYLINDRICAL_SURFACE('',#1462,2.);
#1351=CYLINDRICAL_SURFACE('',#1465,2.);
#1352=CYLINDRICAL_SURFACE('',#1468,2.);
#1353=CYLINDRICAL_SURFACE('',#1481,2.);
#1354=CYLINDRICAL_SURFACE('',#1484,2.);
#1355=CYLINDRICAL_SURFACE('',#1487,2.);
#1356=CYLINDRICAL_SURFACE('',#1490,2.);
#1357=CYLINDRICAL_SURFACE('',#1503,2.75);
#1358=CYLINDRICAL_SURFACE('',#1517,2.75);
#1359=CYLINDRICAL_SURFACE('',#1528,2.65);
#1360=CYLINDRICAL_SURFACE('',#1532,9.);
#1361=CYLINDRICAL_SURFACE('',#1536,10.);
#1362=CYLINDRICAL_SURFACE('',#1542,2.65);
#1363=CYLINDRICAL_SURFACE('',#1546,9.);
#1364=CYLINDRICAL_SURFACE('',#1550,10.);
#1365=CYLINDRICAL_SURFACE('',#1556,2.75);
#1366=CYLINDRICAL_SURFACE('',#1558,2.75);
#1367=CYLINDRICAL_SURFACE('',#1560,2.75);
#1368=CYLINDRICAL_SURFACE('',#1562,2.75);
#1369=ADVANCED_FACE('',(#107),#1349,.F.);
#1370=ADVANCED_FACE('',(#108),#1350,.F.);
#1371=ADVANCED_FACE('',(#109),#1351,.F.);
#1372=ADVANCED_FACE('',(#110),#1352,.F.);
#1373=ADVANCED_FACE('',(#111),#51,.F.);
#1374=ADVANCED_FACE('',(#112,#15,#16),#52,.F.);
#1375=ADVANCED_FACE('',(#113),#53,.F.);
#1376=ADVANCED_FACE('',(#114,#17,#18),#54,.F.);
#1377=ADVANCED_FACE('',(#115),#55,.F.);
#1378=ADVANCED_FACE('',(#116,#19,#20),#56,.F.);
#1379=ADVANCED_FACE('',(#117),#57,.F.);
#1380=ADVANCED_FACE('',(#118,#21,#22),#58,.F.);
#1381=ADVANCED_FACE('',(#119),#59,.F.);
#1382=ADVANCED_FACE('',(#120),#60,.F.);
#1383=ADVANCED_FACE('',(#121),#1353,.F.);
#1384=ADVANCED_FACE('',(#122),#1354,.F.);
#1385=ADVANCED_FACE('',(#123),#1355,.F.);
#1386=ADVANCED_FACE('',(#124),#1356,.F.);
#1387=ADVANCED_FACE('',(#125),#61,.T.);
#1388=ADVANCED_FACE('',(#126,#23,#24),#62,.T.);
#1389=ADVANCED_FACE('',(#127),#63,.T.);
#1390=ADVANCED_FACE('',(#128,#25,#26),#64,.T.);
#1391=ADVANCED_FACE('',(#129),#65,.T.);
#1392=ADVANCED_FACE('',(#130,#27,#28),#66,.T.);
#1393=ADVANCED_FACE('',(#131),#67,.T.);
#1394=ADVANCED_FACE('',(#132,#29,#30),#68,.T.);
#1395=ADVANCED_FACE('',(#133),#69,.T.);
#1396=ADVANCED_FACE('',(#134),#70,.T.);
#1397=ADVANCED_FACE('',(#135),#1357,.F.);
#1398=ADVANCED_FACE('',(#136),#71,.F.);
#1399=ADVANCED_FACE('',(#137,#31),#72,.F.);
#1400=ADVANCED_FACE('',(#138),#73,.F.);
#1401=ADVANCED_FACE('',(#139),#74,.F.);
#1402=ADVANCED_FACE('',(#140),#75,.F.);
#1403=ADVANCED_FACE('',(#141,#32),#76,.F.);
#1404=ADVANCED_FACE('',(#142,#33,#34,#35,#36),#77,.F.);
#1405=ADVANCED_FACE('',(#143),#1358,.F.);
#1406=ADVANCED_FACE('',(#144),#78,.T.);
#1407=ADVANCED_FACE('',(#145,#37),#79,.T.);
#1408=ADVANCED_FACE('',(#146),#80,.T.);
#1409=ADVANCED_FACE('',(#147),#81,.T.);
#1410=ADVANCED_FACE('',(#148),#82,.T.);
#1411=ADVANCED_FACE('',(#149,#38),#83,.T.);
#1412=ADVANCED_FACE('',(#150),#84,.F.);
#1413=ADVANCED_FACE('',(#151),#85,.F.);
#1414=ADVANCED_FACE('',(#152),#1359,.F.);
#1415=ADVANCED_FACE('',(#153),#86,.F.);
#1416=ADVANCED_FACE('',(#154),#1360,.T.);
#1417=ADVANCED_FACE('',(#155),#87,.F.);
#1418=ADVANCED_FACE('',(#156),#1361,.T.);
#1419=ADVANCED_FACE('',(#157),#88,.F.);
#1420=ADVANCED_FACE('',(#158,#39),#89,.F.);
#1421=ADVANCED_FACE('',(#159,#40),#90,.T.);
#1422=ADVANCED_FACE('',(#160),#1362,.F.);
#1423=ADVANCED_FACE('',(#161),#91,.T.);
#1424=ADVANCED_FACE('',(#162),#1363,.T.);
#1425=ADVANCED_FACE('',(#163),#92,.T.);
#1426=ADVANCED_FACE('',(#164),#1364,.T.);
#1427=ADVANCED_FACE('',(#165),#93,.T.);
#1428=ADVANCED_FACE('',(#166,#41),#94,.T.);
#1429=ADVANCED_FACE('',(#167,#42),#95,.F.);
#1430=ADVANCED_FACE('',(#168),#1365,.F.);
#1431=ADVANCED_FACE('',(#169),#1366,.F.);
#1432=ADVANCED_FACE('',(#170),#1367,.F.);
#1433=ADVANCED_FACE('',(#171),#1368,.F.);
#1434=ADVANCED_FACE('',(#172),#96,.T.);
#1435=ADVANCED_FACE('',(#173),#97,.T.);
#1436=ADVANCED_FACE('',(#174),#98,.T.);
#1437=ADVANCED_FACE('',(#175),#99,.T.);
#1438=ADVANCED_FACE('',(#176),#100,.T.);
#1439=ADVANCED_FACE('',(#177),#101,.T.);
#1440=ADVANCED_FACE('',(#178),#102,.T.);
#1441=ADVANCED_FACE('',(#179),#103,.T.);
#1442=ADVANCED_FACE('',(#180),#104,.T.);
#1443=ADVANCED_FACE('',(#181),#105,.T.);
#1444=ADVANCED_FACE('',(#182,#43,#44,#45,#46,#47,#48,#49,#50),#106,.T.);
#1445=CLOSED_SHELL('',(#1369,#1370,#1371,#1372,#1373,#1374,#1375,#1376,
#1377,#1378,#1379,#1380,#1381,#1382,#1383,#1384,#1385,#1386,#1387,#1388,
#1389,#1390,#1391,#1392,#1393,#1394,#1395,#1396,#1397,#1398,#1399,#1400,
#1401,#1402,#1403,#1404,#1405,#1406,#1407,#1408,#1409,#1410,#1411,#1412,
#1413,#1414,#1415,#1416,#1417,#1418,#1419,#1420,#1421,#1422,#1423,#1424,
#1425,#1426,#1427,#1428,#1429,#1430,#1431,#1432,#1433,#1434,#1435,#1436,
#1437,#1438,#1439,#1440,#1441,#1442,#1443,#1444));
#1446=DERIVED_UNIT_ELEMENT(#1448,1.);
#1447=DERIVED_UNIT_ELEMENT(#2363,-3.);
#1448=(
MASS_UNIT()
NAMED_UNIT(*)
SI_UNIT(.KILO.,.GRAM.)
);
#1449=DERIVED_UNIT((#1446,#1447));
#1450=MEASURE_REPRESENTATION_ITEM('density measure',
POSITIVE_RATIO_MEASURE(7850.),#1449);
#1451=PROPERTY_DEFINITION_REPRESENTATION(#1456,#1453);
#1452=PROPERTY_DEFINITION_REPRESENTATION(#1457,#1454);
#1453=REPRESENTATION('material name',(#1455),#2360);
#1454=REPRESENTATION('density',(#1450),#2360);
#1455=DESCRIPTIVE_REPRESENTATION_ITEM('Steel','Steel');
#1456=PROPERTY_DEFINITION('material property','material name',#2370);
#1457=PROPERTY_DEFINITION('material property','density of part',#2370);
#1458=AXIS2_PLACEMENT_3D('',#1963,#1575,#1576);
#1459=AXIS2_PLACEMENT_3D('',#1964,#1577,#1578);
#1460=AXIS2_PLACEMENT_3D('',#1966,#1579,#1580);
#1461=AXIS2_PLACEMENT_3D('',#1969,#1582,#1583);
#1462=AXIS2_PLACEMENT_3D('',#1970,#1584,#1585);
#1463=AXIS2_PLACEMENT_3D('',#1972,#1586,#1587);
#1464=AXIS2_PLACEMENT_3D('',#1975,#1589,#1590);
#1465=AXIS2_PLACEMENT_3D('',#1976,#1591,#1592);
#1466=AXIS2_PLACEMENT_3D('',#1978,#1593,#1594);
#1467=AXIS2_PLACEMENT_3D('',#1981,#1596,#1597);
#1468=AXIS2_PLACEMENT_3D('',#1982,#1598,#1599);
#1469=AXIS2_PLACEMENT_3D('',#1984,#1600,#1601);
#1470=AXIS2_PLACEMENT_3D('',#1987,#1603,#1604);
#1471=AXIS2_PLACEMENT_3D('',#1988,#1605,#1606);
#1472=AXIS2_PLACEMENT_3D('',#1997,#1611,#1612);
#1473=AXIS2_PLACEMENT_3D('',#2003,#1616,#1617);
#1474=AXIS2_PLACEMENT_3D('',#2009,#1621,#1622);
#1475=AXIS2_PLACEMENT_3D('',#2012,#1625,#1626);
#1476=AXIS2_PLACEMENT_3D('',#2013,#1627,#1628);
#1477=AXIS2_PLACEMENT_3D('',#2022,#1633,#1634);
#1478=AXIS2_PLACEMENT_3D('',#2028,#1638,#1639);
#1479=AXIS2_PLACEMENT_3D('',#2034,#1643,#1644);
#1480=AXIS2_PLACEMENT_3D('',#2037,#1647,#1648);
#1481=AXIS2_PLACEMENT_3D('',#2038,#1649,#1650);
#1482=AXIS2_PLACEMENT_3D('',#2040,#1651,#1652);
#1483=AXIS2_PLACEMENT_3D('',#2043,#1654,#1655);
#1484=AXIS2_PLACEMENT_3D('',#2044,#1656,#1657);
#1485=AXIS2_PLACEMENT_3D('',#2046,#1658,#1659);
#1486=AXIS2_PLACEMENT_3D('',#2049,#1661,#1662);
#1487=AXIS2_PLACEMENT_3D('',#2050,#1663,#1664);
#1488=AXIS2_PLACEMENT_3D('',#2052,#1665,#1666);
#1489=AXIS2_PLACEMENT_3D('',#2055,#1668,#1669);
#1490=AXIS2_PLACEMENT_3D('',#2056,#1670,#1671);
#1491=AXIS2_PLACEMENT_3D('',#2058,#1672,#1673);
#1492=AXIS2_PLACEMENT_3D('',#2061,#1675,#1676);
#1493=AXIS2_PLACEMENT_3D('',#2062,#1677,#1678);
#1494=AXIS2_PLACEMENT_3D('',#2071,#1683,#1684);
#1495=AXIS2_PLACEMENT_3D('',#2077,#1688,#1689);
#1496=AXIS2_PLACEMENT_3D('',#2083,#1693,#1694);
#1497=AXIS2_PLACEMENT_3D('',#2086,#1697,#1698);
#1498=AXIS2_PLACEMENT_3D('',#2087,#1699,#1700);
#1499=AXIS2_PLACEMENT_3D('',#2096,#1705,#1706);
#1500=AXIS2_PLACEMENT_3D('',#2102,#1710,#1711);
#1501=AXIS2_PLACEMENT_3D('',#2108,#1715,#1716);
#1502=AXIS2_PLACEMENT_3D('',#2111,#1719,#1720);
#1503=AXIS2_PLACEMENT_3D('',#2112,#1721,#1722);
#1504=AXIS2_PLACEMENT_3D('',#2114,#1723,#1724);
#1505=AXIS2_PLACEMENT_3D('',#2117,#1726,#1727);
#1506=AXIS2_PLACEMENT_3D('',#2118,#1728,#1729);
#1507=AXIS2_PLACEMENT_3D('',#2127,#1734,#1735);
#1508=AXIS2_PLACEMENT_3D('',#2131,#1738,#1739);
#1509=AXIS2_PLACEMENT_3D('',#2135,#1742,#1743);
#1510=AXIS2_PLACEMENT_3D('',#2141,#1747,#1748);
#1511=AXIS2_PLACEMENT_3D('',#2145,#1751,#1752);
#1512=AXIS2_PLACEMENT_3D('',#2149,#1755,#1756);
#1513=AXIS2_PLACEMENT_3D('',#2164,#1764,#1765);
#1514=AXIS2_PLACEMENT_3D('',#2166,#1766,#1767);
#1515=AXIS2_PLACEMENT_3D('',#2168,#1768,#1769);
#1516=AXIS2_PLACEMENT_3D('',#2170,#1770,#1771);
#1517=AXIS2_PLACEMENT_3D('',#2171,#1772,#1773);
#1518=AXIS2_PLACEMENT_3D('',#2173,#1774,#1775);
#1519=AXIS2_PLACEMENT_3D('',#2176,#1777,#1778);
#1520=AXIS2_PLACEMENT_3D('',#2177,#1779,#1780);
#1521=AXIS2_PLACEMENT_3D('',#2185,#1785,#1786);
#1522=AXIS2_PLACEMENT_3D('',#2189,#1789,#1790);
#1523=AXIS2_PLACEMENT_3D('',#2193,#1793,#1794);
#1524=AXIS2_PLACEMENT_3D('',#2199,#1798,#1799);
#1525=AXIS2_PLACEMENT_3D('',#2203,#1802,#1803);
#1526=AXIS2_PLACEMENT_3D('',#2205,#1805,#1806);
#1527=AXIS2_PLACEMENT_3D('',#2209,#1809,#1810);
#1528=AXIS2_PLACEMENT_3D('',#2213,#1813,#1814);
#1529=AXIS2_PLACEMENT_3D('',#2215,#1815,#1816);
#1530=AXIS2_PLACEMENT_3D('',#2218,#1818,#1819);
#1531=AXIS2_PLACEMENT_3D('',#2219,#1820,#1821);
#1532=AXIS2_PLACEMENT_3D('',#2228,#1826,#1827);
#1533=AXIS2_PLACEMENT_3D('',#2230,#1828,#1829);
#1534=AXIS2_PLACEMENT_3D('',#2233,#1831,#1832);
#1535=AXIS2_PLACEMENT_3D('',#2234,#1833,#1834);
#1536=AXIS2_PLACEMENT_3D('',#2240,#1838,#1839);
#1537=AXIS2_PLACEMENT_3D('',#2242,#1840,#1841);
#1538=AXIS2_PLACEMENT_3D('',#2245,#1843,#1844);
#1539=AXIS2_PLACEMENT_3D('',#2246,#1845,#1846);
#1540=AXIS2_PLACEMENT_3D('',#2252,#1850,#1851);
#1541=AXIS2_PLACEMENT_3D('',#2254,#1853,#1854);
#1542=AXIS2_PLACEMENT_3D('',#2256,#1856,#1857);
#1543=AXIS2_PLACEMENT_3D('',#2258,#1858,#1859);
#1544=AXIS2_PLACEMENT_3D('',#2261,#1861,#1862);
#1545=AXIS2_PLACEMENT_3D('',#2262,#1863,#1864);
#1546=AXIS2_PLACEMENT_3D('',#2271,#1869,#1870);
#1547=AXIS2_PLACEMENT_3D('',#2273,#1871,#1872);
#1548=AXIS2_PLACEMENT_3D('',#2275,#1873,#1874);
#1549=AXIS2_PLACEMENT_3D('',#2277,#1876,#1877);
#1550=AXIS2_PLACEMENT_3D('',#2283,#1881,#1882);
#1551=AXIS2_PLACEMENT_3D('',#2285,#1883,#1884);
#1552=AXIS2_PLACEMENT_3D('',#2287,#1885,#1886);
#1553=AXIS2_PLACEMENT_3D('',#2289,#1888,#1889);
#1554=AXIS2_PLACEMENT_3D('',#2295,#1893,#1894);
#1555=AXIS2_PLACEMENT_3D('',#2297,#1896,#1897);
#1556=AXIS2_PLACEMENT_3D('',#2299,#1899,#1900);
#1557=AXIS2_PLACEMENT_3D('',#2302,#1902,#1903);
#1558=AXIS2_PLACEMENT_3D('',#2303,#1904,#1905);
#1559=AXIS2_PLACEMENT_3D('',#2306,#1907,#1908);
#1560=AXIS2_PLACEMENT_3D('',#2307,#1909,#1910);
#1561=AXIS2_PLACEMENT_3D('',#2310,#1912,#1913);
#1562=AXIS2_PLACEMENT_3D('',#2311,#1914,#1915);
#1563=AXIS2_PLACEMENT_3D('',#2314,#1917,#1918);
#1564=AXIS2_PLACEMENT_3D('',#2315,#1919,#1920);
#1565=AXIS2_PLACEMENT_3D('',#2321,#1924,#1925);
#1566=AXIS2_PLACEMENT_3D('',#2327,#1930,#1931);
#1567=AXIS2_PLACEMENT_3D('',#2331,#1934,#1935);
#1568=AXIS2_PLACEMENT_3D('',#2335,#1938,#1939);
#1569=AXIS2_PLACEMENT_3D('',#2339,#1942,#1943);
#1570=AXIS2_PLACEMENT_3D('',#2343,#1946,#1947);
#1571=AXIS2_PLACEMENT_3D('',#2347,#1950,#1951);
#1572=AXIS2_PLACEMENT_3D('',#2351,#1954,#1955);
#1573=AXIS2_PLACEMENT_3D('',#2355,#1958,#1959);
#1574=AXIS2_PLACEMENT_3D('',#2357,#1961,#1962);
#1575=DIRECTION('axis',(0.,0.,1.));
#1576=DIRECTION('refdir',(1.,0.,0.));
#1577=DIRECTION('center_axis',(-1.,0.,0.));
#1578=DIRECTION('ref_axis',(0.,1.,0.));
#1579=DIRECTION('center_axis',(1.,0.,0.));
#1580=DIRECTION('ref_axis',(0.,1.,0.));
#1581=DIRECTION('',(1.,0.,0.));
#1582=DIRECTION('center_axis',(-1.,0.,0.));
#1583=DIRECTION('ref_axis',(0.,1.,0.));
#1584=DIRECTION('center_axis',(-1.,0.,0.));
#1585=DIRECTION('ref_axis',(0.,1.,0.));
#1586=DIRECTION('center_axis',(1.,0.,0.));
#1587=DIRECTION('ref_axis',(0.,1.,0.));
#1588=DIRECTION('',(1.,0.,0.));
#1589=DIRECTION('center_axis',(-1.,0.,0.));
#1590=DIRECTION('ref_axis',(0.,1.,0.));
#1591=DIRECTION('center_axis',(-1.,0.,0.));
#1592=DIRECTION('ref_axis',(0.,1.,0.));
#1593=DIRECTION('center_axis',(1.,0.,0.));
#1594=DIRECTION('ref_axis',(0.,1.,0.));
#1595=DIRECTION('',(1.,0.,0.));
#1596=DIRECTION('center_axis',(-1.,0.,0.));
#1597=DIRECTION('ref_axis',(0.,1.,0.));
#1598=DIRECTION('center_axis',(-1.,0.,0.));
#1599=DIRECTION('ref_axis',(0.,1.,0.));
#1600=DIRECTION('center_axis',(1.,0.,0.));
#1601=DIRECTION('ref_axis',(0.,1.,0.));
#1602=DIRECTION('',(1.,0.,0.));
#1603=DIRECTION('center_axis',(-1.,0.,0.));
#1604=DIRECTION('ref_axis',(0.,1.,0.));
#1605=DIRECTION('center_axis',(-1.77635683940025E-15,-1.,0.));
#1606=DIRECTION('ref_axis',(1.,-1.77635683940025E-15,0.));
#1607=DIRECTION('',(1.,-1.77635683940025E-15,0.));
#1608=DIRECTION('',(0.,0.,1.));
#1609=DIRECTION('',(1.,-1.77635683940025E-15,0.));
#1610=DIRECTION('',(0.,0.,1.));
#1611=DIRECTION('center_axis',(1.,0.,0.));
#1612=DIRECTION('ref_axis',(0.,1.,0.));
#1613=DIRECTION('',(0.,1.,0.));
#1614=DIRECTION('',(0.,0.,1.));
#1615=DIRECTION('',(0.,1.,0.));
#1616=DIRECTION('center_axis',(0.,1.,0.));
#1617=DIRECTION('ref_axis',(-1.,0.,0.));
#1618=DIRECTION('',(-1.,0.,0.));
#1619=DIRECTION('',(0.,0.,1.));
#1620=DIRECTION('',(-1.,0.,0.));
#1621=DIRECTION('center_axis',(-1.,0.,0.));
#1622=DIRECTION('ref_axis',(0.,-1.,0.));
#1623=DIRECTION('',(0.,-1.,0.));
#1624=DIRECTION('',(0.,-1.,0.));
#1625=DIRECTION('center_axis',(0.,0.,-1.));
#1626=DIRECTION('ref_axis',(-1.,0.,0.));
#1627=DIRECTION('center_axis',(-1.,0.,0.));
#1628=DIRECTION('ref_axis',(0.,-1.,0.));
#1629=DIRECTION('',(0.,-1.,0.));
#1630=DIRECTION('',(0.,0.,1.));
#1631=DIRECTION('',(0.,-1.,0.));
#1632=DIRECTION('',(0.,0.,1.));
#1633=DIRECTION('center_axis',(0.,-1.,0.));
#1634=DIRECTION('ref_axis',(1.,0.,0.));
#1635=DIRECTION('',(1.,0.,0.));
#1636=DIRECTION('',(0.,0.,1.));
#1637=DIRECTION('',(1.,0.,0.));
#1638=DIRECTION('center_axis',(1.,0.,0.));
#1639=DIRECTION('ref_axis',(0.,1.,0.));
#1640=DIRECTION('',(0.,1.,0.));
#1641=DIRECTION('',(0.,0.,1.));
#1642=DIRECTION('',(0.,1.,0.));
#1643=DIRECTION('center_axis',(0.,1.,0.));
#1644=DIRECTION('ref_axis',(-1.,0.,0.));
#1645=DIRECTION('',(-1.,0.,0.));
#1646=DIRECTION('',(-1.,0.,0.));
#1647=DIRECTION('center_axis',(0.,0.,-1.));
#1648=DIRECTION('ref_axis',(-1.,0.,0.));
#1649=DIRECTION('center_axis',(-1.,0.,0.));
#1650=DIRECTION('ref_axis',(0.,1.,0.));
#1651=DIRECTION('center_axis',(-1.,0.,0.));
#1652=DIRECTION('ref_axis',(0.,1.,0.));
#1653=DIRECTION('',(-1.,0.,0.));
#1654=DIRECTION('center_axis',(1.,0.,0.));
#1655=DIRECTION('ref_axis',(0.,1.,0.));
#1656=DIRECTION('center_axis',(-1.,0.,0.));
#1657=DIRECTION('ref_axis',(0.,1.,0.));
#1658=DIRECTION('center_axis',(-1.,0.,0.));
#1659=DIRECTION('ref_axis',(0.,1.,0.));
#1660=DIRECTION('',(-1.,0.,0.));
#1661=DIRECTION('center_axis',(1.,0.,0.));
#1662=DIRECTION('ref_axis',(0.,1.,0.));
#1663=DIRECTION('center_axis',(-1.,0.,0.));
#1664=DIRECTION('ref_axis',(0.,1.,0.));
#1665=DIRECTION('center_axis',(-1.,0.,0.));
#1666=DIRECTION('ref_axis',(0.,1.,0.));
#1667=DIRECTION('',(-1.,0.,0.));
#1668=DIRECTION('center_axis',(1.,0.,0.));
#1669=DIRECTION('ref_axis',(0.,1.,0.));
#1670=DIRECTION('center_axis',(-1.,0.,0.));
#1671=DIRECTION('ref_axis',(0.,1.,0.));
#1672=DIRECTION('center_axis',(-1.,0.,0.));
#1673=DIRECTION('ref_axis',(0.,1.,0.));
#1674=DIRECTION('',(-1.,0.,0.));
#1675=DIRECTION('center_axis',(1.,0.,0.));
#1676=DIRECTION('ref_axis',(0.,1.,0.));
#1677=DIRECTION('center_axis',(-1.77635683940025E-15,1.,0.));
#1678=DIRECTION('ref_axis',(-1.,-1.77635683940025E-15,0.));
#1679=DIRECTION('',(1.,1.77635683940025E-15,0.));
#1680=DIRECTION('',(0.,0.,1.));
#1681=DIRECTION('',(-1.,-1.77635683940025E-15,0.));
#1682=DIRECTION('',(0.,0.,1.));
#1683=DIRECTION('center_axis',(1.,0.,0.));
#1684=DIRECTION('ref_axis',(0.,1.,0.));
#1685=DIRECTION('',(0.,-1.,0.));
#1686=DIRECTION('',(0.,1.,0.));
#1687=DIRECTION('',(0.,0.,1.));
#1688=DIRECTION('center_axis',(0.,-1.,0.));
#1689=DIRECTION('ref_axis',(1.,0.,0.));
#1690=DIRECTION('',(-1.,0.,0.));
#1691=DIRECTION('',(1.,0.,0.));
#1692=DIRECTION('',(0.,0.,1.));
#1693=DIRECTION('center_axis',(-1.,0.,0.));
#1694=DIRECTION('ref_axis',(0.,-1.,0.));
#1695=DIRECTION('',(0.,1.,0.));
#1696=DIRECTION('',(0.,-1.,0.));
#1697=DIRECTION('center_axis',(0.,0.,1.));
#1698=DIRECTION('ref_axis',(1.,0.,0.));
#1699=DIRECTION('center_axis',(-1.,0.,0.));
#1700=DIRECTION('ref_axis',(0.,-1.,0.));
#1701=DIRECTION('',(0.,1.,0.));
#1702=DIRECTION('',(0.,0.,1.));
#1703=DIRECTION('',(0.,-1.,0.));
#1704=DIRECTION('',(0.,0.,1.));
#1705=DIRECTION('center_axis',(0.,1.,0.));
#1706=DIRECTION('ref_axis',(-1.,0.,0.));
#1707=DIRECTION('',(1.,0.,0.));
#1708=DIRECTION('',(-1.,0.,0.));
#1709=DIRECTION('',(0.,0.,1.));
#1710=DIRECTION('center_axis',(1.,0.,0.));
#1711=DIRECTION('ref_axis',(0.,1.,0.));
#1712=DIRECTION('',(0.,-1.,0.));
#1713=DIRECTION('',(0.,1.,0.));
#1714=DIRECTION('',(0.,0.,1.));
#1715=DIRECTION('center_axis',(0.,-1.,0.));
#1716=DIRECTION('ref_axis',(1.,0.,0.));
#1717=DIRECTION('',(-1.,0.,0.));
#1718=DIRECTION('',(1.,0.,0.));
#1719=DIRECTION('center_axis',(0.,0.,1.));
#1720=DIRECTION('ref_axis',(1.,0.,0.));
#1721=DIRECTION('center_axis',(0.,1.,0.));
#1722=DIRECTION('ref_axis',(0.,0.,1.));
#1723=DIRECTION('center_axis',(0.,1.,0.));
#1724=DIRECTION('ref_axis',(0.,0.,1.));
#1725=DIRECTION('',(0.,-1.,0.));
#1726=DIRECTION('center_axis',(0.,-1.,0.));
#1727=DIRECTION('ref_axis',(0.,0.,1.));
#1728=DIRECTION('center_axis',(-0.790415052175244,0.,0.612571665435814));
#1729=DIRECTION('ref_axis',(-0.612571665435814,0.,-0.790415052175244));
#1730=DIRECTION('',(0.612571665435814,0.,0.790415052175244));
#1731=DIRECTION('',(0.,1.,0.));
#1732=DIRECTION('',(-0.612571665435814,0.,-0.790415052175244));
#1733=DIRECTION('',(0.,-1.,0.));
#1734=DIRECTION('center_axis',(0.,1.,0.));
#1735=DIRECTION('ref_axis',(0.,0.,-1.));
#1736=DIRECTION('',(1.,0.,0.));
#1737=DIRECTION('',(0.,0.,-1.));
#1738=DIRECTION('center_axis',(-1.,0.,0.));
#1739=DIRECTION('ref_axis',(0.,0.,1.));
#1740=DIRECTION('',(0.,1.,0.));
#1741=DIRECTION('',(0.,-0.783288903050652,0.62165785956401));
#1742=DIRECTION('center_axis',(0.,0.62165785956401,0.783288903050652));
#1743=DIRECTION('ref_axis',(0.,-0.783288903050652,0.62165785956401));
#1744=DIRECTION('',(0.,-0.783288903050652,0.62165785956401));
#1745=DIRECTION('',(1.,0.,0.));
#1746=DIRECTION('',(1.,0.,0.));
#1747=DIRECTION('center_axis',(0.,0.,1.));
#1748=DIRECTION('ref_axis',(0.,-1.,0.));
#1749=DIRECTION('',(0.,-1.,0.));
#1750=DIRECTION('',(1.,0.,0.));
#1751=DIRECTION('center_axis',(0.,-1.,0.));
#1752=DIRECTION('ref_axis',(0.,0.,-1.));
#1753=DIRECTION('',(0.,0.,1.));
#1754=DIRECTION('',(-1.,0.,0.));
#1755=DIRECTION('center_axis',(0.,0.,1.));
#1756=DIRECTION('ref_axis',(1.,0.,0.));
#1757=DIRECTION('',(-1.,0.,0.));
#1758=DIRECTION('',(-1.,0.,0.));
#1759=DIRECTION('',(0.,-1.,0.));
#1760=DIRECTION('',(-0.707106781186548,-0.707106781186548,0.));
#1761=DIRECTION('',(-1.,0.,0.));
#1762=DIRECTION('',(-0.707106781186548,0.707106781186548,0.));
#1763=DIRECTION('',(0.,1.,0.));
#1764=DIRECTION('center_axis',(0.,0.,1.));
#1765=DIRECTION('ref_axis',(-1.,0.,0.));
#1766=DIRECTION('center_axis',(0.,0.,1.));
#1767=DIRECTION('ref_axis',(-1.,0.,0.));
#1768=DIRECTION('center_axis',(0.,0.,1.));
#1769=DIRECTION('ref_axis',(-1.,0.,0.));
#1770=DIRECTION('center_axis',(0.,0.,1.));
#1771=DIRECTION('ref_axis',(-1.,0.,0.));
#1772=DIRECTION('center_axis',(0.,-1.,0.));
#1773=DIRECTION('ref_axis',(0.,0.,1.));
#1774=DIRECTION('center_axis',(0.,-1.,0.));
#1775=DIRECTION('ref_axis',(0.,0.,1.));
#1776=DIRECTION('',(0.,-1.,0.));
#1777=DIRECTION('center_axis',(0.,1.,0.));
#1778=DIRECTION('ref_axis',(0.,0.,1.));
#1779=DIRECTION('center_axis',(-0.790415052175244,0.,-0.612571665435814));
#1780=DIRECTION('ref_axis',(0.612571665435814,0.,-0.790415052175244));
#1781=DIRECTION('',(-0.612571665435814,0.,0.790415052175244));
#1782=DIRECTION('',(0.,-1.,0.));
#1783=DIRECTION('',(0.612571665435814,0.,-0.790415052175244));
#1784=DIRECTION('',(0.,-1.,0.));
#1785=DIRECTION('center_axis',(0.,-1.,0.));
#1786=DIRECTION('ref_axis',(0.,0.,-1.));
#1787=DIRECTION('',(0.,0.,-1.));
#1788=DIRECTION('',(1.,0.,0.));
#1789=DIRECTION('center_axis',(-1.,0.,0.));
#1790=DIRECTION('ref_axis',(0.,0.,1.));
#1791=DIRECTION('',(0.,-0.783288903050652,0.62165785956401));
#1792=DIRECTION('',(0.,-1.,0.));
#1793=DIRECTION('center_axis',(0.,-0.62165785956401,-0.783288903050652));
#1794=DIRECTION('ref_axis',(0.,-0.783288903050652,0.62165785956401));
#1795=DIRECTION('',(0.,-0.783288903050652,0.62165785956401));
#1796=DIRECTION('',(1.,0.,0.));
#1797=DIRECTION('',(-1.,0.,0.));
#1798=DIRECTION('center_axis',(0.,0.,-1.));
#1799=DIRECTION('ref_axis',(0.,-1.,0.));
#1800=DIRECTION('',(0.,-1.,0.));
#1801=DIRECTION('',(-1.,0.,0.));
#1802=DIRECTION('center_axis',(0.,1.,0.));
#1803=DIRECTION('ref_axis',(0.,0.,-1.));
#1804=DIRECTION('',(0.,0.,1.));
#1805=DIRECTION('center_axis',(0.,0.,1.));
#1806=DIRECTION('ref_axis',(1.,0.,0.));
#1807=DIRECTION('',(0.,1.,0.));
#1808=DIRECTION('',(1.,0.,0.));
#1809=DIRECTION('center_axis',(0.,0.,1.));
#1810=DIRECTION('ref_axis',(1.,0.,0.));
#1811=DIRECTION('',(1.,0.,0.));
#1812=DIRECTION('',(0.,-1.,0.));
#1813=DIRECTION('center_axis',(1.,0.,0.));
#1814=DIRECTION('ref_axis',(0.,-1.,0.));
#1815=DIRECTION('center_axis',(1.,0.,0.));
#1816=DIRECTION('ref_axis',(0.,-1.,0.));
#1817=DIRECTION('',(-1.,0.,0.));
#1818=DIRECTION('center_axis',(-1.,0.,0.));
#1819=DIRECTION('ref_axis',(0.,-1.,0.));
#1820=DIRECTION('center_axis',(0.,0.942681905686088,0.333692709977376));
#1821=DIRECTION('ref_axis',(-1.48189331906579E-16,0.333692709977376,-0.942681905686088));
#1822=DIRECTION('',(1.48189331906579E-16,-0.333692709977376,0.942681905686088));
#1823=DIRECTION('',(-1.,0.,0.));
#1824=DIRECTION('',(-1.48189331906579E-16,0.333692709977376,-0.942681905686088));
#1825=DIRECTION('',(1.,0.,0.));
#1826=DIRECTION('center_axis',(1.,0.,0.));
#1827=DIRECTION('ref_axis',(0.,-1.,1.22464679914735E-16));
#1828=DIRECTION('center_axis',(1.,0.,0.));
#1829=DIRECTION('ref_axis',(0.,1.,0.));
#1830=DIRECTION('',(-1.,0.,0.));
#1831=DIRECTION('center_axis',(1.,0.,0.));
#1832=DIRECTION('ref_axis',(0.,1.,0.));
#1833=DIRECTION('center_axis',(0.,0.,-1.));
#1834=DIRECTION('ref_axis',(0.,-1.,0.));
#1835=DIRECTION('',(0.,1.,0.));
#1836=DIRECTION('',(-1.,0.,0.));
#1837=DIRECTION('',(0.,-1.,0.));
#1838=DIRECTION('center_axis',(1.,0.,0.));
#1839=DIRECTION('ref_axis',(0.,0.942681905686088,0.333692709977377));
#1840=DIRECTION('center_axis',(1.,-3.69778549322349E-32,-9.17424427131211E-17));
#1841=DIRECTION('ref_axis',(3.06137843288857E-17,0.942681905686088,0.333692709977377));
#1842=DIRECTION('',(-1.,0.,0.));
#1843=DIRECTION('center_axis',(1.,-3.69778549322349E-32,-9.17424427131211E-17));
#1844=DIRECTION('ref_axis',(3.06137843288857E-17,0.942681905686088,0.333692709977377));
#1845=DIRECTION('center_axis',(0.,-0.942681905686088,-0.333692709977376));
#1846=DIRECTION('ref_axis',(8.64839407291017E-17,-0.333692709977376,0.942681905686088));
#1847=DIRECTION('',(-8.64839407291017E-17,0.333692709977376,-0.942681905686088));
#1848=DIRECTION('',(1.,0.,0.));
#1849=DIRECTION('',(8.64839407291017E-17,-0.333692709977376,0.942681905686088));
#1850=DIRECTION('center_axis',(1.,0.,0.));
#1851=DIRECTION('ref_axis',(0.,1.,0.));
#1852=DIRECTION('',(0.,1.,0.));
#1853=DIRECTION('center_axis',(1.,0.,0.));
#1854=DIRECTION('ref_axis',(0.,1.,0.));
#1855=DIRECTION('',(0.,-1.,0.));
#1856=DIRECTION('center_axis',(1.,0.,0.));
#1857=DIRECTION('ref_axis',(0.,-1.,0.));
#1858=DIRECTION('center_axis',(1.,0.,0.));
#1859=DIRECTION('ref_axis',(0.,-1.,0.));
#1860=DIRECTION('',(1.,0.,0.));
#1861=DIRECTION('center_axis',(-1.,0.,0.));
#1862=DIRECTION('ref_axis',(0.,-1.,0.));
#1863=DIRECTION('center_axis',(0.,-0.942681905686088,-0.333692709977376));
#1864=DIRECTION('ref_axis',(1.48189331906579E-16,0.333692709977376,-0.942681905686088));
#1865=DIRECTION('',(-1.48189331906579E-16,-0.333692709977376,0.942681905686088));
#1866=DIRECTION('',(1.,0.,0.));
#1867=DIRECTION('',(1.48189331906579E-16,0.333692709977376,-0.942681905686088));
#1868=DIRECTION('',(1.,0.,0.));
#1869=DIRECTION('center_axis',(1.,0.,0.));
#1870=DIRECTION('ref_axis',(0.,-1.,1.22464679914735E-16));
#1871=DIRECTION('center_axis',(1.,0.,0.));
#1872=DIRECTION('ref_axis',(0.,1.,0.));
#1873=DIRECTION('center_axis',(1.,0.,0.));
#1874=DIRECTION('ref_axis',(0.,1.,0.));
#1875=DIRECTION('',(1.,0.,0.));
#1876=DIRECTION('center_axis',(0.,0.,1.));
#1877=DIRECTION('ref_axis',(0.,-1.,0.));
#1878=DIRECTION('',(0.,1.,0.));
#1879=DIRECTION('',(0.,-1.,0.));
#1880=DIRECTION('',(1.,0.,0.));
#1881=DIRECTION('center_axis',(1.,0.,0.));
#1882=DIRECTION('ref_axis',(0.,0.942681905686088,0.333692709977377));
#1883=DIRECTION('center_axis',(1.,3.69778549322349E-32,9.17424427131211E-17));
#1884=DIRECTION('ref_axis',(-3.06137843288857E-17,0.942681905686088,0.333692709977377));
#1885=DIRECTION('center_axis',(1.,3.69778549322349E-32,9.17424427131211E-17));
#1886=DIRECTION('ref_axis',(-3.06137843288857E-17,0.942681905686088,0.333692709977377));
#1887=DIRECTION('',(1.,0.,0.));
#1888=DIRECTION('center_axis',(0.,0.942681905686088,0.333692709977376));
#1889=DIRECTION('ref_axis',(-8.64839407291017E-17,-0.333692709977376,0.942681905686088));
#1890=DIRECTION('',(8.64839407291017E-17,0.333692709977376,-0.942681905686088));
#1891=DIRECTION('',(-8.64839407291017E-17,-0.333692709977376,0.942681905686088));
#1892=DIRECTION('',(1.,0.,0.));
#1893=DIRECTION('center_axis',(1.,0.,0.));
#1894=DIRECTION('ref_axis',(0.,1.,0.));
#1895=DIRECTION('',(0.,-1.,0.));
#1896=DIRECTION('center_axis',(1.,0.,0.));
#1897=DIRECTION('ref_axis',(0.,1.,0.));
#1898=DIRECTION('',(0.,1.,0.));
#1899=DIRECTION('center_axis',(0.,0.,1.));
#1900=DIRECTION('ref_axis',(-1.,0.,0.));
#1901=DIRECTION('',(0.,0.,1.));
#1902=DIRECTION('center_axis',(0.,0.,-1.));
#1903=DIRECTION('ref_axis',(-1.,0.,0.));
#1904=DIRECTION('center_axis',(0.,0.,1.));
#1905=DIRECTION('ref_axis',(-1.,0.,0.));
#1906=DIRECTION('',(0.,0.,1.));
#1907=DIRECTION('center_axis',(0.,0.,-1.));
#1908=DIRECTION('ref_axis',(-1.,0.,0.));
#1909=DIRECTION('center_axis',(0.,0.,1.));
#1910=DIRECTION('ref_axis',(-1.,0.,0.));
#1911=DIRECTION('',(0.,0.,1.));
#1912=DIRECTION('center_axis',(0.,0.,-1.));
#1913=DIRECTION('ref_axis',(-1.,0.,0.));
#1914=DIRECTION('center_axis',(0.,0.,1.));
#1915=DIRECTION('ref_axis',(-1.,0.,0.));
#1916=DIRECTION('',(0.,0.,1.));
#1917=DIRECTION('center_axis',(0.,0.,-1.));
#1918=DIRECTION('ref_axis',(-1.,0.,0.));
#1919=DIRECTION('center_axis',(-1.,0.,0.));
#1920=DIRECTION('ref_axis',(0.,-1.,0.));
#1921=DIRECTION('',(0.,0.,1.));
#1922=DIRECTION('',(0.,-1.,0.));
#1923=DIRECTION('',(0.,0.,1.));
#1924=DIRECTION('center_axis',(0.,-1.,0.));
#1925=DIRECTION('ref_axis',(1.,0.,0.));
#1926=DIRECTION('',(1.,0.,0.));
#1927=DIRECTION('',(1.,0.,0.));
#1928=DIRECTION('',(1.,0.,0.));
#1929=DIRECTION('',(0.,0.,1.));
#1930=DIRECTION('center_axis',(1.,0.,0.));
#1931=DIRECTION('ref_axis',(0.,1.,0.));
#1932=DIRECTION('',(0.,1.,0.));
#1933=DIRECTION('',(0.,0.,1.));
#1934=DIRECTION('center_axis',(0.,-1.,0.));
#1935=DIRECTION('ref_axis',(1.,0.,0.));
#1936=DIRECTION('',(1.,0.,0.));
#1937=DIRECTION('',(0.,0.,1.));
#1938=DIRECTION('center_axis',(-1.,0.,0.));
#1939=DIRECTION('ref_axis',(0.,-1.,0.));
#1940=DIRECTION('',(0.,-1.,0.));
#1941=DIRECTION('',(0.,0.,1.));
#1942=DIRECTION('center_axis',(-0.707106781186548,0.707106781186548,0.));
#1943=DIRECTION('ref_axis',(-0.707106781186548,-0.707106781186548,0.));
#1944=DIRECTION('',(-0.707106781186548,-0.707106781186548,0.));
#1945=DIRECTION('',(0.,0.,1.));
#1946=DIRECTION('center_axis',(0.,1.,0.));
#1947=DIRECTION('ref_axis',(-1.,0.,0.));
#1948=DIRECTION('',(-1.,0.,0.));
#1949=DIRECTION('',(0.,0.,1.));
#1950=DIRECTION('center_axis',(0.707106781186548,0.707106781186548,0.));
#1951=DIRECTION('ref_axis',(-0.707106781186548,0.707106781186548,0.));
#1952=DIRECTION('',(-0.707106781186548,0.707106781186548,0.));
#1953=DIRECTION('',(0.,0.,1.));
#1954=DIRECTION('center_axis',(1.,0.,0.));
#1955=DIRECTION('ref_axis',(0.,1.,0.));
#1956=DIRECTION('',(0.,1.,0.));
#1957=DIRECTION('',(0.,0.,1.));
#1958=DIRECTION('center_axis',(0.,-1.,0.));
#1959=DIRECTION('ref_axis',(1.,0.,0.));
#1960=DIRECTION('',(1.,0.,0.));
#1961=DIRECTION('center_axis',(0.,0.,1.));
#1962=DIRECTION('ref_axis',(1.,0.,0.));
#1963=CARTESIAN_POINT('',(0.,0.,0.));
#1964=CARTESIAN_POINT('Origin',(-72.1,11.5,20.5161278222588));
#1965=CARTESIAN_POINT('',(-72.1,9.5,20.5161278222588));
#1966=CARTESIAN_POINT('Origin',(-72.1,11.5,20.5161278222588));
#1967=CARTESIAN_POINT('',(-67.1,9.5,20.5161278222588));
#1968=CARTESIAN_POINT('',(-72.1,9.5,20.5161278222588));
#1969=CARTESIAN_POINT('Origin',(-67.1,11.5,20.5161278222588));
#1970=CARTESIAN_POINT('Origin',(-72.1,59.5380703940161,11.4838721777412));
#1971=CARTESIAN_POINT('',(-72.1,57.5380703940161,11.4838721777412));
#1972=CARTESIAN_POINT('Origin',(-72.1,59.5380703940161,11.4838721777412));
#1973=CARTESIAN_POINT('',(-67.1,57.5380703940161,11.4838721777412));
#1974=CARTESIAN_POINT('',(-72.1,57.5380703940161,11.4838721777412));
#1975=CARTESIAN_POINT('Origin',(-67.1,59.5380703940161,11.4838721777412));
#1976=CARTESIAN_POINT('Origin',(-72.1,59.5380703940161,20.5161278222588));
#1977=CARTESIAN_POINT('',(-72.1,57.5380703940161,20.5161278222588));
#1978=CARTESIAN_POINT('Origin',(-72.1,59.5380703940161,20.5161278222588));
#1979=CARTESIAN_POINT('',(-67.1,57.5380703940161,20.5161278222588));
#1980=CARTESIAN_POINT('',(-72.1,57.5380703940161,20.5161278222588));
#1981=CARTESIAN_POINT('Origin',(-67.1,59.5380703940161,20.5161278222588));
#1982=CARTESIAN_POINT('Origin',(-72.1,11.5,11.4838721777412));
#1983=CARTESIAN_POINT('',(-72.1,9.5,11.4838721777412));
#1984=CARTESIAN_POINT('Origin',(-72.1,11.5,11.4838721777412));
#1985=CARTESIAN_POINT('',(-67.1,9.5,11.4838721777412));
#1986=CARTESIAN_POINT('',(-72.1,9.5,11.4838721777412));
#1987=CARTESIAN_POINT('Origin',(-67.1,11.5,11.4838721777412));
#1988=CARTESIAN_POINT('Origin',(-72.1,63.5,6.));
#1989=CARTESIAN_POINT('',(-72.1,63.5,6.));
#1990=CARTESIAN_POINT('',(-67.1,63.5,6.));
#1991=CARTESIAN_POINT('',(-36.05,63.4999999999999,6.));
#1992=CARTESIAN_POINT('',(-72.1,63.5,26.));
#1993=CARTESIAN_POINT('',(-72.1,63.5,6.));
#1994=CARTESIAN_POINT('',(-67.1,63.5,26.));
#1995=CARTESIAN_POINT('',(-72.1,63.5,26.));
#1996=CARTESIAN_POINT('',(-67.1,63.5,6.));
#1997=CARTESIAN_POINT('Origin',(-72.1,55.5,6.));
#1998=CARTESIAN_POINT('',(-72.1,55.5,6.));
#1999=CARTESIAN_POINT('',(-72.1,56.5,6.));
#2000=CARTESIAN_POINT('',(-72.1,55.5,26.));
#2001=CARTESIAN_POINT('',(-72.1,55.5,6.));
#2002=CARTESIAN_POINT('',(-72.1,55.5,26.));
#2003=CARTESIAN_POINT('Origin',(-67.1,55.5,6.));
#2004=CARTESIAN_POINT('',(-67.1,55.5,6.));
#2005=CARTESIAN_POINT('',(-33.55,55.5,6.));
#2006=CARTESIAN_POINT('',(-67.1,55.5,26.));
#2007=CARTESIAN_POINT('',(-67.1,55.5,6.));
#2008=CARTESIAN_POINT('',(-67.1,55.5,26.));
#2009=CARTESIAN_POINT('Origin',(-67.1,63.5,6.));
#2010=CARTESIAN_POINT('',(-67.1,60.5,6.));
#2011=CARTESIAN_POINT('',(-67.1,63.5,26.));
#2012=CARTESIAN_POINT('Origin',(-69.6,59.5,26.));
#2013=CARTESIAN_POINT('Origin',(-67.1,15.5,6.));
#2014=CARTESIAN_POINT('',(-67.1,15.5,6.));
#2015=CARTESIAN_POINT('',(-67.1,7.5,6.));
#2016=CARTESIAN_POINT('',(-67.1,36.5,6.));
#2017=CARTESIAN_POINT('',(-67.1,15.5,26.));
#2018=CARTESIAN_POINT('',(-67.1,15.5,6.));
#2019=CARTESIAN_POINT('',(-67.1,7.5,26.));
#2020=CARTESIAN_POINT('',(-67.1,7.5,26.));
#2021=CARTESIAN_POINT('',(-67.1,7.5,6.));
#2022=CARTESIAN_POINT('Origin',(-72.1,15.5,6.));
#2023=CARTESIAN_POINT('',(-72.1,15.5,6.));
#2024=CARTESIAN_POINT('',(-36.05,15.5,6.));
#2025=CARTESIAN_POINT('',(-72.1,15.5,26.));
#2026=CARTESIAN_POINT('',(-72.1,15.5,6.));
#2027=CARTESIAN_POINT('',(-67.1,15.5,26.));
#2028=CARTESIAN_POINT('Origin',(-72.1,7.5,6.));
#2029=CARTESIAN_POINT('',(-72.1,7.5,6.));
#2030=CARTESIAN_POINT('',(-72.1,32.5,6.));
#2031=CARTESIAN_POINT('',(-72.1,7.5,26.));
#2032=CARTESIAN_POINT('',(-72.1,7.5,6.));
#2033=CARTESIAN_POINT('',(-72.1,15.5,26.));
#2034=CARTESIAN_POINT('Origin',(-67.1,7.5,6.));
#2035=CARTESIAN_POINT('',(-33.55,7.5,6.));
#2036=CARTESIAN_POINT('',(-72.1,7.5,26.));
#2037=CARTESIAN_POINT('Origin',(-69.6,11.5,26.));
#2038=CARTESIAN_POINT('Origin',(72.1,59.5380703940161,11.4838721777412));
#2039=CARTESIAN_POINT('',(72.1,57.5380703940161,11.4838721777412));
#2040=CARTESIAN_POINT('Origin',(72.1,59.5380703940161,11.4838721777412));
#2041=CARTESIAN_POINT('',(67.1,57.5380703940161,11.4838721777412));
#2042=CARTESIAN_POINT('',(72.1,57.5380703940161,11.4838721777412));
#2043=CARTESIAN_POINT('Origin',(67.1,59.5380703940161,11.4838721777412));
#2044=CARTESIAN_POINT('Origin',(72.1,11.5,11.4838721777412));
#2045=CARTESIAN_POINT('',(72.1,9.5,11.4838721777412));
#2046=CARTESIAN_POINT('Origin',(72.1,11.5,11.4838721777412));
#2047=CARTESIAN_POINT('',(67.1,9.5,11.4838721777412));
#2048=CARTESIAN_POINT('',(72.1,9.5,11.4838721777412));
#2049=CARTESIAN_POINT('Origin',(67.1,11.5,11.4838721777412));
#2050=CARTESIAN_POINT('Origin',(72.1,59.5380703940161,20.5161278222588));
#2051=CARTESIAN_POINT('',(72.1,57.5380703940161,20.5161278222588));
#2052=CARTESIAN_POINT('Origin',(72.1,59.5380703940161,20.5161278222588));
#2053=CARTESIAN_POINT('',(67.1,57.5380703940161,20.5161278222588));
#2054=CARTESIAN_POINT('',(72.1,57.5380703940161,20.5161278222588));
#2055=CARTESIAN_POINT('Origin',(67.1,59.5380703940161,20.5161278222588));
#2056=CARTESIAN_POINT('Origin',(72.1,11.5,20.5161278222588));
#2057=CARTESIAN_POINT('',(72.1,9.5,20.5161278222588));
#2058=CARTESIAN_POINT('Origin',(72.1,11.5,20.5161278222588));
#2059=CARTESIAN_POINT('',(67.1,9.5,20.5161278222588));
#2060=CARTESIAN_POINT('',(72.1,9.5,20.5161278222588));
#2061=CARTESIAN_POINT('Origin',(67.1,11.5,20.5161278222588));
#2062=CARTESIAN_POINT('Origin',(72.1,63.5,6.));
#2063=CARTESIAN_POINT('',(67.1,63.5,6.));
#2064=CARTESIAN_POINT('',(72.1,63.5,6.));
#2065=CARTESIAN_POINT('',(36.05,63.4999999999999,6.));
#2066=CARTESIAN_POINT('',(67.1,63.5,26.));
#2067=CARTESIAN_POINT('',(67.1,63.5,6.));
#2068=CARTESIAN_POINT('',(72.1,63.5,26.));
#2069=CARTESIAN_POINT('',(72.1,63.5,26.));
#2070=CARTESIAN_POINT('',(72.1,63.5,6.));
#2071=CARTESIAN_POINT('Origin',(72.1,55.5,6.));
#2072=CARTESIAN_POINT('',(72.1,55.5,6.));
#2073=CARTESIAN_POINT('',(72.1,56.5,6.));
#2074=CARTESIAN_POINT('',(72.1,55.5,26.));
#2075=CARTESIAN_POINT('',(72.1,55.5,26.));
#2076=CARTESIAN_POINT('',(72.1,55.5,6.));
#2077=CARTESIAN_POINT('Origin',(67.1,55.5,6.));
#2078=CARTESIAN_POINT('',(67.1,55.5,6.));
#2079=CARTESIAN_POINT('',(33.55,55.5,6.));
#2080=CARTESIAN_POINT('',(67.1,55.5,26.));
#2081=CARTESIAN_POINT('',(67.1,55.5,26.));
#2082=CARTESIAN_POINT('',(67.1,55.5,6.));
#2083=CARTESIAN_POINT('Origin',(67.1,63.5,6.));
#2084=CARTESIAN_POINT('',(67.1,60.5,6.));
#2085=CARTESIAN_POINT('',(67.1,63.5,26.));
#2086=CARTESIAN_POINT('Origin',(69.6,59.5,26.));
#2087=CARTESIAN_POINT('Origin',(67.1,15.5,6.));
#2088=CARTESIAN_POINT('',(67.1,7.5,6.));
#2089=CARTESIAN_POINT('',(67.1,15.5,6.));
#2090=CARTESIAN_POINT('',(67.1,36.5,6.));
#2091=CARTESIAN_POINT('',(67.1,7.5,26.));
#2092=CARTESIAN_POINT('',(67.1,7.5,6.));
#2093=CARTESIAN_POINT('',(67.1,15.5,26.));
#2094=CARTESIAN_POINT('',(67.1,7.5,26.));
#2095=CARTESIAN_POINT('',(67.1,15.5,6.));
#2096=CARTESIAN_POINT('Origin',(72.1,15.5,6.));
#2097=CARTESIAN_POINT('',(72.1,15.5,6.));
#2098=CARTESIAN_POINT('',(36.05,15.5,6.));
#2099=CARTESIAN_POINT('',(72.1,15.5,26.));
#2100=CARTESIAN_POINT('',(67.1,15.5,26.));
#2101=CARTESIAN_POINT('',(72.1,15.5,6.));
#2102=CARTESIAN_POINT('Origin',(72.1,7.5,6.));
#2103=CARTESIAN_POINT('',(72.1,7.5,6.));
#2104=CARTESIAN_POINT('',(72.1,32.5,6.));
#2105=CARTESIAN_POINT('',(72.1,7.5,26.));
#2106=CARTESIAN_POINT('',(72.1,15.5,26.));
#2107=CARTESIAN_POINT('',(72.1,7.5,6.));
#2108=CARTESIAN_POINT('Origin',(67.1,7.5,6.));
#2109=CARTESIAN_POINT('',(33.55,7.5,6.));
#2110=CARTESIAN_POINT('',(72.1,7.5,26.));
#2111=CARTESIAN_POINT('Origin',(69.6,11.5,26.));
#2112=CARTESIAN_POINT('Origin',(70.0000010430813,24.93,-19.0000002831221));
#2113=CARTESIAN_POINT('',(70.0000010430813,55.4,-21.7500002831221));
#2114=CARTESIAN_POINT('Origin',(70.0000010430813,55.4,-19.0000002831221));
#2115=CARTESIAN_POINT('',(70.0000010430813,50.4,-21.7500002831221));
#2116=CARTESIAN_POINT('',(70.0000010430813,24.93,-21.7500002831221));
#2117=CARTESIAN_POINT('Origin',(70.0000010430813,50.4,-19.0000002831221));
#2118=CARTESIAN_POINT('Origin',(95.,55.4,-8.88178419700125E-15));
#2119=CARTESIAN_POINT('',(64.,55.4,-40.));
#2120=CARTESIAN_POINT('',(95.,55.4,-7.43475581310999E-15));
#2121=CARTESIAN_POINT('',(64.,55.4,-40.));
#2122=CARTESIAN_POINT('',(95.,50.4,-8.88178419700125E-15));
#2123=CARTESIAN_POINT('',(95.,0.,0.));
#2124=CARTESIAN_POINT('',(64.,50.4,-40.));
#2125=CARTESIAN_POINT('',(64.,50.4,-40.));
#2126=CARTESIAN_POINT('',(64.,55.4,-40.));
#2127=CARTESIAN_POINT('Origin',(79.5,50.4,-20.));
#2128=CARTESIAN_POINT('',(64.,50.4,0.));
#2129=CARTESIAN_POINT('',(39.75,50.4,0.));
#2130=CARTESIAN_POINT('',(64.,50.4,-20.));
#2131=CARTESIAN_POINT('Origin',(64.,27.7,-20.));
#2132=CARTESIAN_POINT('',(64.,0.,0.));
#2133=CARTESIAN_POINT('',(64.,42.6,0.));
#2134=CARTESIAN_POINT('',(64.,50.4,-40.));
#2135=CARTESIAN_POINT('Origin',(59.,50.4,-40.));
#2136=CARTESIAN_POINT('',(59.,50.4,-40.));
#2137=CARTESIAN_POINT('',(59.,0.,0.));
#2138=CARTESIAN_POINT('',(59.,50.4,-40.));
#2139=CARTESIAN_POINT('',(59.,50.4,-40.));
#2140=CARTESIAN_POINT('',(-95.,0.,0.));
#2141=CARTESIAN_POINT('Origin',(59.,55.4,-40.));
#2142=CARTESIAN_POINT('',(59.,55.4,-40.));
#2143=CARTESIAN_POINT('',(59.,55.4,-40.));
#2144=CARTESIAN_POINT('',(59.,55.4,-40.));
#2145=CARTESIAN_POINT('Origin',(59.,55.4,0.));
#2146=CARTESIAN_POINT('',(59.,55.4,0.));
#2147=CARTESIAN_POINT('',(59.,55.4,-40.));
#2148=CARTESIAN_POINT('',(29.5,55.4,0.));
#2149=CARTESIAN_POINT('Origin',(0.,57.5,0.));
#2150=CARTESIAN_POINT('',(-59.,55.4,0.));
#2151=CARTESIAN_POINT('',(59.,55.4,0.));
#2152=CARTESIAN_POINT('',(-95.,55.4,-7.43475581310999E-15));
#2153=CARTESIAN_POINT('',(-29.5,55.4,0.));
#2154=CARTESIAN_POINT('',(-95.,91.,0.));
#2155=CARTESIAN_POINT('',(-95.,91.,0.));
#2156=CARTESIAN_POINT('',(-71.,115.,0.));
#2157=CARTESIAN_POINT('',(-71.,115.,0.));
#2158=CARTESIAN_POINT('',(71.,115.,0.));
#2159=CARTESIAN_POINT('',(71.,115.,0.));
#2160=CARTESIAN_POINT('',(95.,91.,0.));
#2161=CARTESIAN_POINT('',(95.,91.,0.));
#2162=CARTESIAN_POINT('',(95.,0.,0.));
#2163=CARTESIAN_POINT('',(82.7499999999999,95.4,0.));
#2164=CARTESIAN_POINT('Origin',(79.9999999999999,95.4,0.));
#2165=CARTESIAN_POINT('',(-77.2500000000001,95.4,0.));
#2166=CARTESIAN_POINT('Origin',(-80.0000000000001,95.4,0.));
#2167=CARTESIAN_POINT('',(-77.2500000000001,65.4,0.));
#2168=CARTESIAN_POINT('Origin',(-80.0000000000001,65.4,0.));
#2169=CARTESIAN_POINT('',(82.75,65.4,0.));
#2170=CARTESIAN_POINT('Origin',(80.,65.4,0.));
#2171=CARTESIAN_POINT('Origin',(-70.0000010430813,24.93,-19.0000002831221));
#2172=CARTESIAN_POINT('',(-70.0000010430813,55.4,-21.7500002831221));
#2173=CARTESIAN_POINT('Origin',(-70.0000010430813,55.4,-19.0000002831221));
#2174=CARTESIAN_POINT('',(-70.0000010430813,50.4,-21.7500002831221));
#2175=CARTESIAN_POINT('',(-70.0000010430813,24.93,-21.7500002831221));
#2176=CARTESIAN_POINT('Origin',(-70.0000010430813,50.4,-19.0000002831221));
#2177=CARTESIAN_POINT('Origin',(-95.,55.4,-8.88178419700125E-15));
#2178=CARTESIAN_POINT('',(-64.,55.4,-40.));
#2179=CARTESIAN_POINT('',(-64.,55.4,-40.));
#2180=CARTESIAN_POINT('',(-64.,50.4,-40.));
#2181=CARTESIAN_POINT('',(-64.,55.4,-40.));
#2182=CARTESIAN_POINT('',(-95.,50.4,-8.88178419700125E-15));
#2183=CARTESIAN_POINT('',(-64.,50.4,-40.));
#2184=CARTESIAN_POINT('',(-95.,91.,0.));
#2185=CARTESIAN_POINT('Origin',(-79.5,50.4,-20.));
#2186=CARTESIAN_POINT('',(-64.,50.4,0.));
#2187=CARTESIAN_POINT('',(-64.,50.4,-20.));
#2188=CARTESIAN_POINT('',(-39.75,50.4,0.));
#2189=CARTESIAN_POINT('Origin',(-64.,27.7,-20.));
#2190=CARTESIAN_POINT('',(-64.,0.,0.));
#2191=CARTESIAN_POINT('',(-64.,50.4,-40.));
#2192=CARTESIAN_POINT('',(-64.,42.6,0.));
#2193=CARTESIAN_POINT('Origin',(-59.,50.4,-40.));
#2194=CARTESIAN_POINT('',(-59.,50.4,-40.));
#2195=CARTESIAN_POINT('',(-59.,0.,0.));
#2196=CARTESIAN_POINT('',(-59.,50.4,-40.));
#2197=CARTESIAN_POINT('',(-95.,0.,0.));
#2198=CARTESIAN_POINT('',(-59.,50.4,-40.));
#2199=CARTESIAN_POINT('Origin',(-59.,55.4,-40.));
#2200=CARTESIAN_POINT('',(-59.,55.4,-40.));
#2201=CARTESIAN_POINT('',(-59.,55.4,-40.));
#2202=CARTESIAN_POINT('',(-59.,55.4,-40.));
#2203=CARTESIAN_POINT('Origin',(-59.,55.4,0.));
#2204=CARTESIAN_POINT('',(-59.,55.4,-40.));
#2205=CARTESIAN_POINT('Origin',(0.,57.5,0.));
#2206=CARTESIAN_POINT('',(95.,0.,0.));
#2207=CARTESIAN_POINT('',(95.,0.,0.));
#2208=CARTESIAN_POINT('',(-95.,0.,0.));
#2209=CARTESIAN_POINT('Origin',(0.,57.5,0.));
#2210=CARTESIAN_POINT('',(-95.,0.,0.));
#2211=CARTESIAN_POINT('',(-95.,0.,0.));
#2212=CARTESIAN_POINT('',(-95.,91.,0.));
#2213=CARTESIAN_POINT('Origin',(-65.255,45.4,43.25));
#2214=CARTESIAN_POINT('',(-28.9,48.05,43.25));
#2215=CARTESIAN_POINT('Origin',(-28.9,45.4,43.25));
#2216=CARTESIAN_POINT('',(-41.2,48.05,43.25));
#2217=CARTESIAN_POINT('',(-65.255,48.05,43.25));
#2218=CARTESIAN_POINT('Origin',(-41.2,45.4,43.25));
#2219=CARTESIAN_POINT('Origin',(-28.9,45.4,34.25));
#2220=CARTESIAN_POINT('',(-28.9,55.4,5.9999999253857));
#2221=CARTESIAN_POINT('',(-28.9,45.4,34.25));
#2222=CARTESIAN_POINT('',(-28.9,55.4,6.));
#2223=CARTESIAN_POINT('',(-41.2,45.4,34.25));
#2224=CARTESIAN_POINT('',(-28.9,45.4,34.25));
#2225=CARTESIAN_POINT('',(-41.2,55.4,5.9999999253857));
#2226=CARTESIAN_POINT('',(-41.2,55.4,6.));
#2227=CARTESIAN_POINT('',(59.,55.4,6.));
#2228=CARTESIAN_POINT('Origin',(-28.9,45.4,43.25));
#2229=CARTESIAN_POINT('',(-28.9,45.4,52.25));
#2230=CARTESIAN_POINT('Origin',(-28.9,45.4,43.25));
#2231=CARTESIAN_POINT('',(-41.2,45.4,52.25));
#2232=CARTESIAN_POINT('',(-28.9,45.4,52.25));
#2233=CARTESIAN_POINT('Origin',(-41.2,45.4,43.25));
#2234=CARTESIAN_POINT('Origin',(-28.9,58.3317908193254,52.25));
#2235=CARTESIAN_POINT('',(-28.9,58.3317908193254,52.25));
#2236=CARTESIAN_POINT('',(-28.9,45.4,52.25));
#2237=CARTESIAN_POINT('',(-41.2,58.3317908193254,52.25));
#2238=CARTESIAN_POINT('',(-28.9,58.3317908193254,52.25));
#2239=CARTESIAN_POINT('',(-41.2,45.4,52.25));
#2240=CARTESIAN_POINT('Origin',(-28.9,58.3317908193254,42.25));
#2241=CARTESIAN_POINT('',(-28.9,67.7586098761863,45.5869270997738));
#2242=CARTESIAN_POINT('Origin',(-28.9,58.3317908193254,42.25));
#2243=CARTESIAN_POINT('',(-41.2,67.7586098761863,45.5869270997738));
#2244=CARTESIAN_POINT('',(-28.9,67.7586098761863,45.5869270997738));
#2245=CARTESIAN_POINT('Origin',(-41.2,58.3317908193254,42.25));
#2246=CARTESIAN_POINT('Origin',(-28.9,81.7716814159292,6.));
#2247=CARTESIAN_POINT('',(-28.9,81.7716814159292,6.));
#2248=CARTESIAN_POINT('',(-28.9,67.7586098761863,45.5869270997738));
#2249=CARTESIAN_POINT('',(-41.2,81.7716814159292,6.));
#2250=CARTESIAN_POINT('',(-14.45,81.7716814159292,6.));
#2251=CARTESIAN_POINT('',(-41.2,67.7586098761863,45.5869270997738));
#2252=CARTESIAN_POINT('Origin',(-41.2,59.0858407079646,29.1249999626929));
#2253=CARTESIAN_POINT('',(-41.2,58.2929203539823,6.));
#2254=CARTESIAN_POINT('Origin',(-28.9,59.0858407079646,29.1249999626929));
#2255=CARTESIAN_POINT('',(-28.9,58.2929203539823,6.));
#2256=CARTESIAN_POINT('Origin',(65.255,45.4,43.25));
#2257=CARTESIAN_POINT('',(28.9,48.05,43.25));
#2258=CARTESIAN_POINT('Origin',(28.9,45.4,43.25));
#2259=CARTESIAN_POINT('',(41.2,48.05,43.25));
#2260=CARTESIAN_POINT('',(65.255,48.05,43.25));
#2261=CARTESIAN_POINT('Origin',(41.2,45.4,43.25));
#2262=CARTESIAN_POINT('Origin',(28.9,45.4,34.25));
#2263=CARTESIAN_POINT('',(28.9,55.4,5.9999999253857));
#2264=CARTESIAN_POINT('',(28.9,45.4,34.25));
#2265=CARTESIAN_POINT('',(28.9,55.4,6.));
#2266=CARTESIAN_POINT('',(41.2,55.4,5.9999999253857));
#2267=CARTESIAN_POINT('',(59.,55.4,6.));
#2268=CARTESIAN_POINT('',(41.2,45.4,34.25));
#2269=CARTESIAN_POINT('',(41.2,55.4,6.));
#2270=CARTESIAN_POINT('',(28.9,45.4,34.25));
#2271=CARTESIAN_POINT('Origin',(28.9,45.4,43.25));
#2272=CARTESIAN_POINT('',(28.9,45.4,52.25));
#2273=CARTESIAN_POINT('Origin',(28.9,45.4,43.25));
#2274=CARTESIAN_POINT('',(41.2,45.4,52.25));
#2275=CARTESIAN_POINT('Origin',(41.2,45.4,43.25));
#2276=CARTESIAN_POINT('',(28.9,45.4,52.25));
#2277=CARTESIAN_POINT('Origin',(28.9,58.3317908193254,52.25));
#2278=CARTESIAN_POINT('',(28.9,58.3317908193254,52.25));
#2279=CARTESIAN_POINT('',(28.9,45.4,52.25));
#2280=CARTESIAN_POINT('',(41.2,58.3317908193254,52.25));
#2281=CARTESIAN_POINT('',(41.2,45.4,52.25));
#2282=CARTESIAN_POINT('',(28.9,58.3317908193254,52.25));
#2283=CARTESIAN_POINT('Origin',(28.9,58.3317908193254,42.25));
#2284=CARTESIAN_POINT('',(28.9,67.7586098761863,45.5869270997738));
#2285=CARTESIAN_POINT('Origin',(28.9,58.3317908193254,42.25));
#2286=CARTESIAN_POINT('',(41.2,67.7586098761863,45.5869270997738));
#2287=CARTESIAN_POINT('Origin',(41.2,58.3317908193254,42.25));
#2288=CARTESIAN_POINT('',(28.9,67.7586098761863,45.5869270997738));
#2289=CARTESIAN_POINT('Origin',(28.9,81.7716814159292,6.));
#2290=CARTESIAN_POINT('',(28.9,81.7716814159292,6.));
#2291=CARTESIAN_POINT('',(28.9,67.7586098761863,45.5869270997738));
#2292=CARTESIAN_POINT('',(41.2,81.7716814159292,6.));
#2293=CARTESIAN_POINT('',(41.2,67.7586098761863,45.5869270997738));
#2294=CARTESIAN_POINT('',(14.45,81.7716814159292,6.));
#2295=CARTESIAN_POINT('Origin',(41.2,59.0858407079646,29.1249999626929));
#2296=CARTESIAN_POINT('',(41.2,58.2929203539823,6.));
#2297=CARTESIAN_POINT('Origin',(28.9,59.0858407079646,29.1249999626929));
#2298=CARTESIAN_POINT('',(28.9,58.2929203539823,6.));
#2299=CARTESIAN_POINT('Origin',(79.9999999999999,95.4,3.3));
#2300=CARTESIAN_POINT('',(82.7499999999999,95.4,6.));
#2301=CARTESIAN_POINT('',(82.7499999999999,95.4,3.3));
#2302=CARTESIAN_POINT('Origin',(79.9999999999999,95.4,6.));
#2303=CARTESIAN_POINT('Origin',(-80.0000000000001,95.4,3.3));
#2304=CARTESIAN_POINT('',(-77.2500000000001,95.4,6.));
#2305=CARTESIAN_POINT('',(-77.2500000000001,95.4,3.3));
#2306=CARTESIAN_POINT('Origin',(-80.0000000000001,95.4,6.));
#2307=CARTESIAN_POINT('Origin',(-80.0000000000001,65.4,3.3));
#2308=CARTESIAN_POINT('',(-77.2500000000001,65.4,6.));
#2309=CARTESIAN_POINT('',(-77.2500000000001,65.4,3.3));
#2310=CARTESIAN_POINT('Origin',(-80.0000000000001,65.4,6.));
#2311=CARTESIAN_POINT('Origin',(80.,65.4,3.3));
#2312=CARTESIAN_POINT('',(82.75,65.4,6.));
#2313=CARTESIAN_POINT('',(82.75,65.4,3.3));
#2314=CARTESIAN_POINT('Origin',(80.,65.4,6.));
#2315=CARTESIAN_POINT('Origin',(59.,55.4,0.));
#2316=CARTESIAN_POINT('',(59.,0.,6.));
#2317=CARTESIAN_POINT('',(59.,0.,0.));
#2318=CARTESIAN_POINT('',(59.,55.4,6.));
#2319=CARTESIAN_POINT('',(59.,0.,6.));
#2320=CARTESIAN_POINT('',(59.,55.4,0.));
#2321=CARTESIAN_POINT('Origin',(-59.,55.4,0.));
#2322=CARTESIAN_POINT('',(59.,55.4,6.));
#2323=CARTESIAN_POINT('',(59.,55.4,6.));
#2324=CARTESIAN_POINT('',(-59.,55.4,6.));
#2325=CARTESIAN_POINT('',(59.,55.4,6.));
#2326=CARTESIAN_POINT('',(-59.,55.4,0.));
#2327=CARTESIAN_POINT('Origin',(-59.,0.,0.));
#2328=CARTESIAN_POINT('',(-59.,0.,6.));
#2329=CARTESIAN_POINT('',(-59.,55.4,6.));
#2330=CARTESIAN_POINT('',(-59.,0.,0.));
#2331=CARTESIAN_POINT('Origin',(-95.,0.,0.));
#2332=CARTESIAN_POINT('',(-95.,0.,6.));
#2333=CARTESIAN_POINT('',(-95.,0.,6.));
#2334=CARTESIAN_POINT('',(-95.,0.,0.));
#2335=CARTESIAN_POINT('Origin',(-95.,91.,0.));
#2336=CARTESIAN_POINT('',(-95.,91.,6.));
#2337=CARTESIAN_POINT('',(-95.,91.,6.));
#2338=CARTESIAN_POINT('',(-95.,91.,0.));
#2339=CARTESIAN_POINT('Origin',(-71.,115.,0.));
#2340=CARTESIAN_POINT('',(-71.,115.,6.));
#2341=CARTESIAN_POINT('',(-71.,115.,6.));
#2342=CARTESIAN_POINT('',(-71.,115.,0.));
#2343=CARTESIAN_POINT('Origin',(71.,115.,0.));
#2344=CARTESIAN_POINT('',(71.,115.,6.));
#2345=CARTESIAN_POINT('',(71.,115.,6.));
#2346=CARTESIAN_POINT('',(71.,115.,0.));
#2347=CARTESIAN_POINT('Origin',(95.,91.,0.));
#2348=CARTESIAN_POINT('',(95.,91.,6.));
#2349=CARTESIAN_POINT('',(95.,91.,6.));
#2350=CARTESIAN_POINT('',(95.,91.,0.));
#2351=CARTESIAN_POINT('Origin',(95.,0.,0.));
#2352=CARTESIAN_POINT('',(95.,0.,6.));
#2353=CARTESIAN_POINT('',(95.,0.,6.));
#2354=CARTESIAN_POINT('',(95.,0.,0.));
#2355=CARTESIAN_POINT('Origin',(59.,0.,0.));
#2356=CARTESIAN_POINT('',(-95.,0.,6.));
#2357=CARTESIAN_POINT('Origin',(0.,57.5,6.));
#2358=UNCERTAINTY_MEASURE_WITH_UNIT(LENGTH_MEASURE(0.01),#2362,
'DISTANCE_ACCURACY_VALUE',
'Maximum model space distance between geometric entities at asserted c
onnectivities');
#2359=UNCERTAINTY_MEASURE_WITH_UNIT(LENGTH_MEASURE(0.01),#2362,
'DISTANCE_ACCURACY_VALUE',
'Maximum model space distance between geometric entities at asserted c
onnectivities');
#2360=(
GEOMETRIC_REPRESENTATION_CONTEXT(3)
GLOBAL_UNCERTAINTY_ASSIGNED_CONTEXT((#2358))
GLOBAL_UNIT_ASSIGNED_CONTEXT((#2362,#2364,#2365))
REPRESENTATION_CONTEXT('','3D')
);
#2361=(
GEOMETRIC_REPRESENTATION_CONTEXT(3)
GLOBAL_UNCERTAINTY_ASSIGNED_CONTEXT((#2359))
GLOBAL_UNIT_ASSIGNED_CONTEXT((#2362,#2364,#2365))
REPRESENTATION_CONTEXT('','3D')
);
#2362=(
LENGTH_UNIT()
NAMED_UNIT(*)
SI_UNIT(.MILLI.,.METRE.)
);
#2363=(
LENGTH_UNIT()
NAMED_UNIT(*)
SI_UNIT($,.METRE.)
);
#2364=(
NAMED_UNIT(*)
PLANE_ANGLE_UNIT()
SI_UNIT($,.RADIAN.)
);
#2365=(
NAMED_UNIT(*)
SI_UNIT($,.STERADIAN.)
SOLID_ANGLE_UNIT()
);
#2366=SHAPE_DEFINITION_REPRESENTATION(#2367,#2368);
#2367=PRODUCT_DEFINITION_SHAPE('',$,#2370);
#2368=SHAPE_REPRESENTATION('',(#1458),#2360);
#2369=PRODUCT_DEFINITION_CONTEXT('part definition',#2374,'design');
#2370=PRODUCT_DEFINITION('2026-07-10-10-59-10-769','Baseplate v2',#2371,
#2369);
#2371=PRODUCT_DEFINITION_FORMATION('',$,#2376);
#2372=PRODUCT_RELATED_PRODUCT_CATEGORY('Baseplate v2','Baseplate v2',(#2376));
#2373=APPLICATION_PROTOCOL_DEFINITION('international standard',
'automotive_design',2009,#2374);
#2374=APPLICATION_CONTEXT(
'Core Data for Automotive Mechanical Design Process');
#2375=PRODUCT_CONTEXT('part definition',#2374,'mechanical');
#2376=PRODUCT('2026-07-10-10-59-10-769','Baseplate v2',$,(#2375));
#2377=PRESENTATION_STYLE_ASSIGNMENT((#2378));
#2378=SURFACE_STYLE_USAGE(.BOTH.,#2379);
#2379=SURFACE_SIDE_STYLE('',(#2380));
#2380=SURFACE_STYLE_FILL_AREA(#2381);
#2381=FILL_AREA_STYLE('Steel - Satin',(#2382));
#2382=FILL_AREA_STYLE_COLOUR('Steel - Satin',#2383);
#2383=COLOUR_RGB('Steel - Satin',0.627450980392157,0.627450980392157,0.627450980392157);
ENDSEC;
END-ISO-10303-21;
