ISO-10303-21;
HEADER;
/* Generated by software containing ST-Developer
 * from STEP Tools, Inc. (www.steptools.com) 
 */

FILE_DESCRIPTION(
/* description */ (''),
/* implementation_level */ '2;1');

FILE_NAME(
/* name */ '441fbccc-11a0-4d76-917b-8406128a4c5f.stp',
/* time_stamp */ '2026-10-01T20:27:50Z',
/* author */ (''),
/* organization */ (''),
/* preprocessor_version */ 'ST-DEVELOPER v20.2',
/* originating_system */ 'Autodesk Translation Framework v15.17.0.0',
/* authorisation */ '');

FILE_SCHEMA (('AUTOMOTIVE_DESIGN { 1 0 10303 214 3 1 1 }'));
ENDSEC;

DATA;
#10=MECHANICAL_DESIGN_GEOMETRIC_PRESENTATION_REPRESENTATION('',(#13),#1077);
#11=SHAPE_REPRESENTATION_RELATIONSHIP('SRR','None',#1084,#12);
#12=ADVANCED_BREP_SHAPE_REPRESENTATION('',(#14),#1076);
#13=STYLED_ITEM('',(#1093),#14);
#14=MANIFOLD_SOLID_BREP('Body1',#637);
#15=ELLIPSE('',#676,1.41421356237309,1.);
#16=ELLIPSE('',#677,1.4142135623731,1.);
#17=ELLIPSE('',#679,1.4142135623731,1.);
#18=ELLIPSE('',#681,1.4142135623731,1.);
#19=ELLIPSE('',#686,1.4142135623731,1.);
#20=ELLIPSE('',#687,1.4142135623731,1.);
#21=ELLIPSE('',#689,1.4142135623731,1.);
#22=ELLIPSE('',#691,1.4142135623731,1.);
#23=CYLINDRICAL_SURFACE('',#665,1.7);
#24=CYLINDRICAL_SURFACE('',#668,1.7);
#25=CYLINDRICAL_SURFACE('',#671,1.7);
#26=CYLINDRICAL_SURFACE('',#673,1.7);
#27=CYLINDRICAL_SURFACE('',#675,1.);
#28=CYLINDRICAL_SURFACE('',#678,1.);
#29=CYLINDRICAL_SURFACE('',#680,1.);
#30=CYLINDRICAL_SURFACE('',#682,1.);
#31=CYLINDRICAL_SURFACE('',#685,1.);
#32=CYLINDRICAL_SURFACE('',#688,1.);
#33=CYLINDRICAL_SURFACE('',#690,1.);
#34=CYLINDRICAL_SURFACE('',#692,1.);
#35=CYLINDRICAL_SURFACE('',#701,3.);
#36=CYLINDRICAL_SURFACE('',#702,16.75);
#37=CYLINDRICAL_SURFACE('',#703,3.);
#38=CYLINDRICAL_SURFACE('',#706,12.75);
#39=CYLINDRICAL_SURFACE('',#710,16.75);
#40=FACE_BOUND('',#102,.T.);
#41=FACE_BOUND('',#104,.T.);
#42=FACE_BOUND('',#118,.T.);
#43=FACE_BOUND('',#125,.T.);
#44=FACE_BOUND('',#133,.T.);
#45=FACE_BOUND('',#136,.T.);
#46=FACE_BOUND('',#139,.T.);
#47=FACE_BOUND('',#140,.T.);
#48=CIRCLE('',#653,1.7);
#49=CIRCLE('',#655,1.7);
#50=CIRCLE('',#659,3.);
#51=CIRCLE('',#660,16.75);
#52=CIRCLE('',#661,12.75);
#53=CIRCLE('',#662,16.75);
#54=CIRCLE('',#663,3.);
#55=CIRCLE('',#666,1.7);
#56=CIRCLE('',#667,1.7);
#57=CIRCLE('',#669,1.7);
#58=CIRCLE('',#670,1.7);
#59=CIRCLE('',#672,1.7);
#60=CIRCLE('',#674,1.7);
#61=CIRCLE('',#695,3.);
#62=CIRCLE('',#696,16.75);
#63=CIRCLE('',#697,12.75);
#64=CIRCLE('',#698,16.75);
#65=CIRCLE('',#699,3.);
#66=FACE_OUTER_BOUND('',#100,.T.);
#67=FACE_OUTER_BOUND('',#101,.T.);
#68=FACE_OUTER_BOUND('',#103,.T.);
#69=FACE_OUTER_BOUND('',#105,.T.);
#70=FACE_OUTER_BOUND('',#106,.T.);
#71=FACE_OUTER_BOUND('',#107,.T.);
#72=FACE_OUTER_BOUND('',#108,.T.);
#73=FACE_OUTER_BOUND('',#109,.T.);
#74=FACE_OUTER_BOUND('',#110,.T.);
#75=FACE_OUTER_BOUND('',#111,.T.);
#76=FACE_OUTER_BOUND('',#112,.T.);
#77=FACE_OUTER_BOUND('',#113,.T.);
#78=FACE_OUTER_BOUND('',#114,.T.);
#79=FACE_OUTER_BOUND('',#115,.T.);
#80=FACE_OUTER_BOUND('',#116,.T.);
#81=FACE_OUTER_BOUND('',#117,.T.);
#82=FACE_OUTER_BOUND('',#119,.T.);
#83=FACE_OUTER_BOUND('',#120,.T.);
#84=FACE_OUTER_BOUND('',#121,.T.);
#85=FACE_OUTER_BOUND('',#122,.T.);
#86=FACE_OUTER_BOUND('',#123,.T.);
#87=FACE_OUTER_BOUND('',#124,.T.);
#88=FACE_OUTER_BOUND('',#126,.T.);
#89=FACE_OUTER_BOUND('',#127,.T.);
#90=FACE_OUTER_BOUND('',#128,.T.);
#91=FACE_OUTER_BOUND('',#129,.T.);
#92=FACE_OUTER_BOUND('',#130,.T.);
#93=FACE_OUTER_BOUND('',#131,.T.);
#94=FACE_OUTER_BOUND('',#132,.T.);
#95=FACE_OUTER_BOUND('',#134,.T.);
#96=FACE_OUTER_BOUND('',#135,.T.);
#97=FACE_OUTER_BOUND('',#137,.T.);
#98=FACE_OUTER_BOUND('',#138,.T.);
#99=FACE_OUTER_BOUND('',#141,.T.);
#100=EDGE_LOOP('',(#410,#411,#412,#413));
#101=EDGE_LOOP('',(#414,#415,#416,#417));
#102=EDGE_LOOP('',(#418));
#103=EDGE_LOOP('',(#419,#420,#421,#422));
#104=EDGE_LOOP('',(#423));
#105=EDGE_LOOP('',(#424,#425,#426,#427));
#106=EDGE_LOOP('',(#428,#429,#430,#431));
#107=EDGE_LOOP('',(#432,#433,#434,#435,#436,#437,#438,#439,#440,#441,#442,
#443,#444,#445,#446,#447,#448,#449,#450,#451));
#108=EDGE_LOOP('',(#452,#453,#454,#455));
#109=EDGE_LOOP('',(#456,#457,#458,#459));
#110=EDGE_LOOP('',(#460,#461,#462,#463));
#111=EDGE_LOOP('',(#464,#465,#466,#467));
#112=EDGE_LOOP('',(#468,#469,#470,#471));
#113=EDGE_LOOP('',(#472,#473,#474,#475));
#114=EDGE_LOOP('',(#476,#477,#478,#479));
#115=EDGE_LOOP('',(#480,#481,#482,#483));
#116=EDGE_LOOP('',(#484,#485,#486,#487));
#117=EDGE_LOOP('',(#488,#489,#490,#491));
#118=EDGE_LOOP('',(#492));
#119=EDGE_LOOP('',(#493,#494,#495,#496));
#120=EDGE_LOOP('',(#497,#498,#499,#500));
#121=EDGE_LOOP('',(#501,#502,#503,#504));
#122=EDGE_LOOP('',(#505,#506,#507,#508));
#123=EDGE_LOOP('',(#509,#510,#511,#512));
#124=EDGE_LOOP('',(#513,#514,#515,#516));
#125=EDGE_LOOP('',(#517));
#126=EDGE_LOOP('',(#518,#519,#520,#521,#522,#523,#524,#525,#526,#527,#528,
#529,#530,#531,#532,#533,#534,#535,#536,#537));
#127=EDGE_LOOP('',(#538,#539,#540,#541));
#128=EDGE_LOOP('',(#542,#543,#544,#545));
#129=EDGE_LOOP('',(#546,#547,#548,#549));
#130=EDGE_LOOP('',(#550,#551,#552,#553));
#131=EDGE_LOOP('',(#554,#555,#556,#557));
#132=EDGE_LOOP('',(#558,#559,#560,#561));
#133=EDGE_LOOP('',(#562));
#134=EDGE_LOOP('',(#563,#564,#565,#566));
#135=EDGE_LOOP('',(#567,#568,#569,#570));
#136=EDGE_LOOP('',(#571));
#137=EDGE_LOOP('',(#572,#573,#574,#575));
#138=EDGE_LOOP('',(#576,#577,#578,#579));
#139=EDGE_LOOP('',(#580));
#140=EDGE_LOOP('',(#581));
#141=EDGE_LOOP('',(#582,#583,#584,#585));
#142=LINE('',#899,#204);
#143=LINE('',#901,#205);
#144=LINE('',#903,#206);
#145=LINE('',#904,#207);
#146=LINE('',#907,#208);
#147=LINE('',#909,#209);
#148=LINE('',#910,#210);
#149=LINE('',#916,#211);
#150=LINE('',#918,#212);
#151=LINE('',#920,#213);
#152=LINE('',#921,#214);
#153=LINE('',#926,#215);
#154=LINE('',#928,#216);
#155=LINE('',#929,#217);
#156=LINE('',#932,#218);
#157=LINE('',#934,#219);
#158=LINE('',#935,#220);
#159=LINE('',#942,#221);
#160=LINE('',#944,#222);
#161=LINE('',#946,#223);
#162=LINE('',#950,#224);
#163=LINE('',#952,#225);
#164=LINE('',#954,#226);
#165=LINE('',#959,#227);
#166=LINE('',#961,#228);
#167=LINE('',#963,#229);
#168=LINE('',#964,#230);
#169=LINE('',#967,#231);
#170=LINE('',#968,#232);
#171=LINE('',#973,#233);
#172=LINE('',#979,#234);
#173=LINE('',#984,#235);
#174=LINE('',#988,#236);
#175=LINE('',#992,#237);
#176=LINE('',#995,#238);
#177=LINE('',#999,#239);
#178=LINE('',#1002,#240);
#179=LINE('',#1004,#241);
#180=LINE('',#1006,#242);
#181=LINE('',#1009,#243);
#182=LINE('',#1012,#244);
#183=LINE('',#1013,#245);
#184=LINE('',#1018,#246);
#185=LINE('',#1022,#247);
#186=LINE('',#1025,#248);
#187=LINE('',#1027,#249);
#188=LINE('',#1031,#250);
#189=LINE('',#1032,#251);
#190=LINE('',#1035,#252);
#191=LINE('',#1038,#253);
#192=LINE('',#1039,#254);
#193=LINE('',#1042,#255);
#194=LINE('',#1043,#256);
#195=LINE('',#1045,#257);
#196=LINE('',#1050,#258);
#197=LINE('',#1053,#259);
#198=LINE('',#1059,#260);
#199=LINE('',#1061,#261);
#200=LINE('',#1063,#262);
#201=LINE('',#1064,#263);
#202=LINE('',#1067,#264);
#203=LINE('',#1071,#265);
#204=VECTOR('',#715,10.);
#205=VECTOR('',#716,10.);
#206=VECTOR('',#717,10.);
#207=VECTOR('',#718,10.);
#208=VECTOR('',#721,10.);
#209=VECTOR('',#722,10.);
#210=VECTOR('',#723,10.);
#211=VECTOR('',#728,10.);
#212=VECTOR('',#729,10.);
#213=VECTOR('',#730,10.);
#214=VECTOR('',#731,10.);
#215=VECTOR('',#736,10.);
#216=VECTOR('',#737,10.);
#217=VECTOR('',#738,10.);
#218=VECTOR('',#741,10.);
#219=VECTOR('',#742,10.);
#220=VECTOR('',#743,10.);
#221=VECTOR('',#750,10.);
#222=VECTOR('',#751,10.);
#223=VECTOR('',#752,10.);
#224=VECTOR('',#755,10.);
#225=VECTOR('',#756,10.);
#226=VECTOR('',#757,10.);
#227=VECTOR('',#762,10.);
#228=VECTOR('',#763,10.);
#229=VECTOR('',#764,10.);
#230=VECTOR('',#765,10.);
#231=VECTOR('',#768,10.);
#232=VECTOR('',#769,10.);
#233=VECTOR('',#774,1.7);
#234=VECTOR('',#781,1.7);
#235=VECTOR('',#788,1.7);
#236=VECTOR('',#793,1.7);
#237=VECTOR('',#796,10.);
#238=VECTOR('',#799,10.);
#239=VECTOR('',#804,10.);
#240=VECTOR('',#807,10.);
#241=VECTOR('',#810,10.);
#242=VECTOR('',#811,10.);
#243=VECTOR('',#816,10.);
#244=VECTOR('',#819,10.);
#245=VECTOR('',#820,10.);
#246=VECTOR('',#825,10.);
#247=VECTOR('',#828,10.);
#248=VECTOR('',#833,10.);
#249=VECTOR('',#834,10.);
#250=VECTOR('',#839,10.);
#251=VECTOR('',#840,10.);
#252=VECTOR('',#845,10.);
#253=VECTOR('',#848,10.);
#254=VECTOR('',#849,10.);
#255=VECTOR('',#852,10.);
#256=VECTOR('',#853,10.);
#257=VECTOR('',#854,10.);
#258=VECTOR('',#859,10.);
#259=VECTOR('',#862,10.);
#260=VECTOR('',#871,10.);
#261=VECTOR('',#874,10.);
#262=VECTOR('',#877,10.);
#263=VECTOR('',#878,10.);
#264=VECTOR('',#883,10.);
#265=VECTOR('',#890,10.);
#266=VERTEX_POINT('',#897);
#267=VERTEX_POINT('',#898);
#268=VERTEX_POINT('',#900);
#269=VERTEX_POINT('',#902);
#270=VERTEX_POINT('',#906);
#271=VERTEX_POINT('',#908);
#272=VERTEX_POINT('',#911);
#273=VERTEX_POINT('',#914);
#274=VERTEX_POINT('',#915);
#275=VERTEX_POINT('',#917);
#276=VERTEX_POINT('',#919);
#277=VERTEX_POINT('',#922);
#278=VERTEX_POINT('',#925);
#279=VERTEX_POINT('',#927);
#280=VERTEX_POINT('',#931);
#281=VERTEX_POINT('',#933);
#282=VERTEX_POINT('',#937);
#283=VERTEX_POINT('',#939);
#284=VERTEX_POINT('',#941);
#285=VERTEX_POINT('',#943);
#286=VERTEX_POINT('',#945);
#287=VERTEX_POINT('',#947);
#288=VERTEX_POINT('',#949);
#289=VERTEX_POINT('',#951);
#290=VERTEX_POINT('',#953);
#291=VERTEX_POINT('',#955);
#292=VERTEX_POINT('',#957);
#293=VERTEX_POINT('',#960);
#294=VERTEX_POINT('',#962);
#295=VERTEX_POINT('',#966);
#296=VERTEX_POINT('',#970);
#297=VERTEX_POINT('',#972);
#298=VERTEX_POINT('',#976);
#299=VERTEX_POINT('',#978);
#300=VERTEX_POINT('',#982);
#301=VERTEX_POINT('',#986);
#302=VERTEX_POINT('',#990);
#303=VERTEX_POINT('',#991);
#304=VERTEX_POINT('',#993);
#305=VERTEX_POINT('',#998);
#306=VERTEX_POINT('',#1000);
#307=VERTEX_POINT('',#1005);
#308=VERTEX_POINT('',#1011);
#309=VERTEX_POINT('',#1016);
#310=VERTEX_POINT('',#1017);
#311=VERTEX_POINT('',#1019);
#312=VERTEX_POINT('',#1021);
#313=VERTEX_POINT('',#1026);
#314=VERTEX_POINT('',#1030);
#315=VERTEX_POINT('',#1037);
#316=VERTEX_POINT('',#1041);
#317=VERTEX_POINT('',#1044);
#318=VERTEX_POINT('',#1046);
#319=VERTEX_POINT('',#1049);
#320=VERTEX_POINT('',#1052);
#321=VERTEX_POINT('',#1054);
#322=EDGE_CURVE('',#266,#267,#142,.T.);
#323=EDGE_CURVE('',#268,#266,#143,.T.);
#324=EDGE_CURVE('',#269,#268,#144,.T.);
#325=EDGE_CURVE('',#267,#269,#145,.T.);
#326=EDGE_CURVE('',#270,#266,#146,.T.);
#327=EDGE_CURVE('',#271,#270,#147,.T.);
#328=EDGE_CURVE('',#268,#271,#148,.T.);
#329=EDGE_CURVE('',#272,#272,#48,.T.);
#330=EDGE_CURVE('',#273,#274,#149,.T.);
#331=EDGE_CURVE('',#275,#273,#150,.T.);
#332=EDGE_CURVE('',#276,#275,#151,.T.);
#333=EDGE_CURVE('',#274,#276,#152,.T.);
#334=EDGE_CURVE('',#277,#277,#49,.T.);
#335=EDGE_CURVE('',#278,#273,#153,.T.);
#336=EDGE_CURVE('',#279,#278,#154,.T.);
#337=EDGE_CURVE('',#275,#279,#155,.T.);
#338=EDGE_CURVE('',#280,#269,#156,.T.);
#339=EDGE_CURVE('',#281,#280,#157,.T.);
#340=EDGE_CURVE('',#267,#281,#158,.T.);
#341=EDGE_CURVE('',#282,#281,#50,.T.);
#342=EDGE_CURVE('',#282,#283,#51,.T.);
#343=EDGE_CURVE('',#283,#284,#159,.T.);
#344=EDGE_CURVE('',#285,#284,#160,.T.);
#345=EDGE_CURVE('',#285,#286,#161,.T.);
#346=EDGE_CURVE('',#286,#287,#52,.T.);
#347=EDGE_CURVE('',#287,#288,#162,.T.);
#348=EDGE_CURVE('',#289,#288,#163,.T.);
#349=EDGE_CURVE('',#289,#290,#164,.T.);
#350=EDGE_CURVE('',#290,#291,#53,.T.);
#351=EDGE_CURVE('',#292,#291,#54,.T.);
#352=EDGE_CURVE('',#292,#278,#165,.T.);
#353=EDGE_CURVE('',#274,#293,#166,.T.);
#354=EDGE_CURVE('',#293,#294,#167,.T.);
#355=EDGE_CURVE('',#294,#270,#168,.T.);
#356=EDGE_CURVE('',#295,#276,#169,.T.);
#357=EDGE_CURVE('',#295,#293,#170,.T.);
#358=EDGE_CURVE('',#296,#296,#55,.T.);
#359=EDGE_CURVE('',#296,#297,#171,.T.);
#360=EDGE_CURVE('',#297,#297,#56,.T.);
#361=EDGE_CURVE('',#298,#298,#57,.T.);
#362=EDGE_CURVE('',#298,#299,#172,.T.);
#363=EDGE_CURVE('',#299,#299,#58,.T.);
#364=EDGE_CURVE('',#300,#300,#59,.T.);
#365=EDGE_CURVE('',#300,#272,#173,.T.);
#366=EDGE_CURVE('',#301,#301,#60,.T.);
#367=EDGE_CURVE('',#301,#277,#174,.T.);
#368=EDGE_CURVE('',#302,#303,#175,.T.);
#369=EDGE_CURVE('',#303,#304,#15,.T.);
#370=EDGE_CURVE('',#304,#289,#176,.T.);
#371=EDGE_CURVE('',#289,#302,#16,.T.);
#372=EDGE_CURVE('',#303,#305,#177,.T.);
#373=EDGE_CURVE('',#305,#306,#17,.T.);
#374=EDGE_CURVE('',#306,#304,#178,.T.);
#375=EDGE_CURVE('',#288,#306,#179,.T.);
#376=EDGE_CURVE('',#305,#307,#180,.T.);
#377=EDGE_CURVE('',#307,#288,#18,.T.);
#378=EDGE_CURVE('',#307,#302,#181,.T.);
#379=EDGE_CURVE('',#304,#308,#182,.T.);
#380=EDGE_CURVE('',#308,#290,#183,.T.);
#381=EDGE_CURVE('',#309,#310,#184,.T.);
#382=EDGE_CURVE('',#310,#311,#19,.T.);
#383=EDGE_CURVE('',#311,#312,#185,.T.);
#384=EDGE_CURVE('',#312,#309,#20,.T.);
#385=EDGE_CURVE('',#284,#311,#186,.T.);
#386=EDGE_CURVE('',#310,#313,#187,.T.);
#387=EDGE_CURVE('',#313,#284,#21,.T.);
#388=EDGE_CURVE('',#314,#309,#188,.T.);
#389=EDGE_CURVE('',#312,#285,#189,.T.);
#390=EDGE_CURVE('',#285,#314,#22,.T.);
#391=EDGE_CURVE('',#313,#314,#190,.T.);
#392=EDGE_CURVE('',#315,#312,#191,.T.);
#393=EDGE_CURVE('',#315,#286,#192,.T.);
#394=EDGE_CURVE('',#271,#316,#193,.T.);
#395=EDGE_CURVE('',#316,#295,#194,.T.);
#396=EDGE_CURVE('',#279,#317,#195,.T.);
#397=EDGE_CURVE('',#318,#317,#61,.T.);
#398=EDGE_CURVE('',#308,#318,#62,.T.);
#399=EDGE_CURVE('',#306,#319,#196,.T.);
#400=EDGE_CURVE('',#319,#315,#63,.T.);
#401=EDGE_CURVE('',#320,#311,#197,.T.);
#402=EDGE_CURVE('',#321,#320,#64,.T.);
#403=EDGE_CURVE('',#280,#321,#65,.T.);
#404=EDGE_CURVE('',#321,#282,#198,.T.);
#405=EDGE_CURVE('',#320,#283,#199,.T.);
#406=EDGE_CURVE('',#317,#292,#200,.T.);
#407=EDGE_CURVE('',#291,#318,#201,.T.);
#408=EDGE_CURVE('',#319,#287,#202,.T.);
#409=EDGE_CURVE('',#316,#294,#203,.T.);
#410=ORIENTED_EDGE('',*,*,#322,.F.);
#411=ORIENTED_EDGE('',*,*,#323,.F.);
#412=ORIENTED_EDGE('',*,*,#324,.F.);
#413=ORIENTED_EDGE('',*,*,#325,.F.);
#414=ORIENTED_EDGE('',*,*,#326,.F.);
#415=ORIENTED_EDGE('',*,*,#327,.F.);
#416=ORIENTED_EDGE('',*,*,#328,.F.);
#417=ORIENTED_EDGE('',*,*,#323,.T.);
#418=ORIENTED_EDGE('',*,*,#329,.F.);
#419=ORIENTED_EDGE('',*,*,#330,.F.);
#420=ORIENTED_EDGE('',*,*,#331,.F.);
#421=ORIENTED_EDGE('',*,*,#332,.F.);
#422=ORIENTED_EDGE('',*,*,#333,.F.);
#423=ORIENTED_EDGE('',*,*,#334,.F.);
#424=ORIENTED_EDGE('',*,*,#335,.F.);
#425=ORIENTED_EDGE('',*,*,#336,.F.);
#426=ORIENTED_EDGE('',*,*,#337,.F.);
#427=ORIENTED_EDGE('',*,*,#331,.T.);
#428=ORIENTED_EDGE('',*,*,#325,.T.);
#429=ORIENTED_EDGE('',*,*,#338,.F.);
#430=ORIENTED_EDGE('',*,*,#339,.F.);
#431=ORIENTED_EDGE('',*,*,#340,.F.);
#432=ORIENTED_EDGE('',*,*,#326,.T.);
#433=ORIENTED_EDGE('',*,*,#322,.T.);
#434=ORIENTED_EDGE('',*,*,#340,.T.);
#435=ORIENTED_EDGE('',*,*,#341,.F.);
#436=ORIENTED_EDGE('',*,*,#342,.T.);
#437=ORIENTED_EDGE('',*,*,#343,.T.);
#438=ORIENTED_EDGE('',*,*,#344,.F.);
#439=ORIENTED_EDGE('',*,*,#345,.T.);
#440=ORIENTED_EDGE('',*,*,#346,.T.);
#441=ORIENTED_EDGE('',*,*,#347,.T.);
#442=ORIENTED_EDGE('',*,*,#348,.F.);
#443=ORIENTED_EDGE('',*,*,#349,.T.);
#444=ORIENTED_EDGE('',*,*,#350,.T.);
#445=ORIENTED_EDGE('',*,*,#351,.F.);
#446=ORIENTED_EDGE('',*,*,#352,.T.);
#447=ORIENTED_EDGE('',*,*,#335,.T.);
#448=ORIENTED_EDGE('',*,*,#330,.T.);
#449=ORIENTED_EDGE('',*,*,#353,.T.);
#450=ORIENTED_EDGE('',*,*,#354,.T.);
#451=ORIENTED_EDGE('',*,*,#355,.T.);
#452=ORIENTED_EDGE('',*,*,#333,.T.);
#453=ORIENTED_EDGE('',*,*,#356,.F.);
#454=ORIENTED_EDGE('',*,*,#357,.T.);
#455=ORIENTED_EDGE('',*,*,#353,.F.);
#456=ORIENTED_EDGE('',*,*,#358,.F.);
#457=ORIENTED_EDGE('',*,*,#359,.T.);
#458=ORIENTED_EDGE('',*,*,#360,.F.);
#459=ORIENTED_EDGE('',*,*,#359,.F.);
#460=ORIENTED_EDGE('',*,*,#361,.F.);
#461=ORIENTED_EDGE('',*,*,#362,.T.);
#462=ORIENTED_EDGE('',*,*,#363,.F.);
#463=ORIENTED_EDGE('',*,*,#362,.F.);
#464=ORIENTED_EDGE('',*,*,#364,.F.);
#465=ORIENTED_EDGE('',*,*,#365,.T.);
#466=ORIENTED_EDGE('',*,*,#329,.T.);
#467=ORIENTED_EDGE('',*,*,#365,.F.);
#468=ORIENTED_EDGE('',*,*,#366,.F.);
#469=ORIENTED_EDGE('',*,*,#367,.T.);
#470=ORIENTED_EDGE('',*,*,#334,.T.);
#471=ORIENTED_EDGE('',*,*,#367,.F.);
#472=ORIENTED_EDGE('',*,*,#368,.T.);
#473=ORIENTED_EDGE('',*,*,#369,.T.);
#474=ORIENTED_EDGE('',*,*,#370,.T.);
#475=ORIENTED_EDGE('',*,*,#371,.T.);
#476=ORIENTED_EDGE('',*,*,#372,.T.);
#477=ORIENTED_EDGE('',*,*,#373,.T.);
#478=ORIENTED_EDGE('',*,*,#374,.T.);
#479=ORIENTED_EDGE('',*,*,#369,.F.);
#480=ORIENTED_EDGE('',*,*,#375,.T.);
#481=ORIENTED_EDGE('',*,*,#373,.F.);
#482=ORIENTED_EDGE('',*,*,#376,.T.);
#483=ORIENTED_EDGE('',*,*,#377,.T.);
#484=ORIENTED_EDGE('',*,*,#348,.T.);
#485=ORIENTED_EDGE('',*,*,#377,.F.);
#486=ORIENTED_EDGE('',*,*,#378,.T.);
#487=ORIENTED_EDGE('',*,*,#371,.F.);
#488=ORIENTED_EDGE('',*,*,#370,.F.);
#489=ORIENTED_EDGE('',*,*,#379,.T.);
#490=ORIENTED_EDGE('',*,*,#380,.T.);
#491=ORIENTED_EDGE('',*,*,#349,.F.);
#492=ORIENTED_EDGE('',*,*,#358,.T.);
#493=ORIENTED_EDGE('',*,*,#368,.F.);
#494=ORIENTED_EDGE('',*,*,#378,.F.);
#495=ORIENTED_EDGE('',*,*,#376,.F.);
#496=ORIENTED_EDGE('',*,*,#372,.F.);
#497=ORIENTED_EDGE('',*,*,#381,.T.);
#498=ORIENTED_EDGE('',*,*,#382,.T.);
#499=ORIENTED_EDGE('',*,*,#383,.T.);
#500=ORIENTED_EDGE('',*,*,#384,.T.);
#501=ORIENTED_EDGE('',*,*,#385,.T.);
#502=ORIENTED_EDGE('',*,*,#382,.F.);
#503=ORIENTED_EDGE('',*,*,#386,.T.);
#504=ORIENTED_EDGE('',*,*,#387,.T.);
#505=ORIENTED_EDGE('',*,*,#388,.T.);
#506=ORIENTED_EDGE('',*,*,#384,.F.);
#507=ORIENTED_EDGE('',*,*,#389,.T.);
#508=ORIENTED_EDGE('',*,*,#390,.T.);
#509=ORIENTED_EDGE('',*,*,#344,.T.);
#510=ORIENTED_EDGE('',*,*,#387,.F.);
#511=ORIENTED_EDGE('',*,*,#391,.T.);
#512=ORIENTED_EDGE('',*,*,#390,.F.);
#513=ORIENTED_EDGE('',*,*,#389,.F.);
#514=ORIENTED_EDGE('',*,*,#392,.F.);
#515=ORIENTED_EDGE('',*,*,#393,.T.);
#516=ORIENTED_EDGE('',*,*,#345,.F.);
#517=ORIENTED_EDGE('',*,*,#361,.T.);
#518=ORIENTED_EDGE('',*,*,#328,.T.);
#519=ORIENTED_EDGE('',*,*,#394,.T.);
#520=ORIENTED_EDGE('',*,*,#395,.T.);
#521=ORIENTED_EDGE('',*,*,#356,.T.);
#522=ORIENTED_EDGE('',*,*,#332,.T.);
#523=ORIENTED_EDGE('',*,*,#337,.T.);
#524=ORIENTED_EDGE('',*,*,#396,.T.);
#525=ORIENTED_EDGE('',*,*,#397,.F.);
#526=ORIENTED_EDGE('',*,*,#398,.F.);
#527=ORIENTED_EDGE('',*,*,#379,.F.);
#528=ORIENTED_EDGE('',*,*,#374,.F.);
#529=ORIENTED_EDGE('',*,*,#399,.T.);
#530=ORIENTED_EDGE('',*,*,#400,.T.);
#531=ORIENTED_EDGE('',*,*,#392,.T.);
#532=ORIENTED_EDGE('',*,*,#383,.F.);
#533=ORIENTED_EDGE('',*,*,#401,.F.);
#534=ORIENTED_EDGE('',*,*,#402,.F.);
#535=ORIENTED_EDGE('',*,*,#403,.F.);
#536=ORIENTED_EDGE('',*,*,#338,.T.);
#537=ORIENTED_EDGE('',*,*,#324,.T.);
#538=ORIENTED_EDGE('',*,*,#381,.F.);
#539=ORIENTED_EDGE('',*,*,#388,.F.);
#540=ORIENTED_EDGE('',*,*,#391,.F.);
#541=ORIENTED_EDGE('',*,*,#386,.F.);
#542=ORIENTED_EDGE('',*,*,#403,.T.);
#543=ORIENTED_EDGE('',*,*,#404,.T.);
#544=ORIENTED_EDGE('',*,*,#341,.T.);
#545=ORIENTED_EDGE('',*,*,#339,.T.);
#546=ORIENTED_EDGE('',*,*,#404,.F.);
#547=ORIENTED_EDGE('',*,*,#402,.T.);
#548=ORIENTED_EDGE('',*,*,#405,.T.);
#549=ORIENTED_EDGE('',*,*,#342,.F.);
#550=ORIENTED_EDGE('',*,*,#397,.T.);
#551=ORIENTED_EDGE('',*,*,#406,.T.);
#552=ORIENTED_EDGE('',*,*,#351,.T.);
#553=ORIENTED_EDGE('',*,*,#407,.T.);
#554=ORIENTED_EDGE('',*,*,#336,.T.);
#555=ORIENTED_EDGE('',*,*,#352,.F.);
#556=ORIENTED_EDGE('',*,*,#406,.F.);
#557=ORIENTED_EDGE('',*,*,#396,.F.);
#558=ORIENTED_EDGE('',*,*,#375,.F.);
#559=ORIENTED_EDGE('',*,*,#347,.F.);
#560=ORIENTED_EDGE('',*,*,#408,.F.);
#561=ORIENTED_EDGE('',*,*,#399,.F.);
#562=ORIENTED_EDGE('',*,*,#360,.T.);
#563=ORIENTED_EDGE('',*,*,#400,.F.);
#564=ORIENTED_EDGE('',*,*,#408,.T.);
#565=ORIENTED_EDGE('',*,*,#346,.F.);
#566=ORIENTED_EDGE('',*,*,#393,.F.);
#567=ORIENTED_EDGE('',*,*,#385,.F.);
#568=ORIENTED_EDGE('',*,*,#343,.F.);
#569=ORIENTED_EDGE('',*,*,#405,.F.);
#570=ORIENTED_EDGE('',*,*,#401,.T.);
#571=ORIENTED_EDGE('',*,*,#363,.T.);
#572=ORIENTED_EDGE('',*,*,#327,.T.);
#573=ORIENTED_EDGE('',*,*,#355,.F.);
#574=ORIENTED_EDGE('',*,*,#409,.F.);
#575=ORIENTED_EDGE('',*,*,#394,.F.);
#576=ORIENTED_EDGE('',*,*,#395,.F.);
#577=ORIENTED_EDGE('',*,*,#409,.T.);
#578=ORIENTED_EDGE('',*,*,#354,.F.);
#579=ORIENTED_EDGE('',*,*,#357,.F.);
#580=ORIENTED_EDGE('',*,*,#364,.T.);
#581=ORIENTED_EDGE('',*,*,#366,.T.);
#582=ORIENTED_EDGE('',*,*,#407,.F.);
#583=ORIENTED_EDGE('',*,*,#350,.F.);
#584=ORIENTED_EDGE('',*,*,#380,.F.);
#585=ORIENTED_EDGE('',*,*,#398,.T.);
#586=PLANE('',#651);
#587=PLANE('',#652);
#588=PLANE('',#654);
#589=PLANE('',#656);
#590=PLANE('',#657);
#591=PLANE('',#658);
#592=PLANE('',#664);
#593=PLANE('',#683);
#594=PLANE('',#684);
#595=PLANE('',#693);
#596=PLANE('',#694);
#597=PLANE('',#700);
#598=PLANE('',#704);
#599=PLANE('',#705);
#600=PLANE('',#707);
#601=PLANE('',#708);
#602=PLANE('',#709);
#603=ADVANCED_FACE('',(#66),#586,.F.);
#604=ADVANCED_FACE('',(#67,#40),#587,.F.);
#605=ADVANCED_FACE('',(#68,#41),#588,.F.);
#606=ADVANCED_FACE('',(#69),#589,.F.);
#607=ADVANCED_FACE('',(#70),#590,.T.);
#608=ADVANCED_FACE('',(#71),#591,.T.);
#609=ADVANCED_FACE('',(#72),#592,.T.);
#610=ADVANCED_FACE('',(#73),#23,.F.);
#611=ADVANCED_FACE('',(#74),#24,.F.);
#612=ADVANCED_FACE('',(#75),#25,.F.);
#613=ADVANCED_FACE('',(#76),#26,.F.);
#614=ADVANCED_FACE('',(#77),#27,.T.);
#615=ADVANCED_FACE('',(#78),#28,.T.);
#616=ADVANCED_FACE('',(#79),#29,.T.);
#617=ADVANCED_FACE('',(#80),#30,.T.);
#618=ADVANCED_FACE('',(#81,#42),#593,.T.);
#619=ADVANCED_FACE('',(#82),#594,.T.);
#620=ADVANCED_FACE('',(#83),#31,.T.);
#621=ADVANCED_FACE('',(#84),#32,.T.);
#622=ADVANCED_FACE('',(#85),#33,.T.);
#623=ADVANCED_FACE('',(#86),#34,.T.);
#624=ADVANCED_FACE('',(#87,#43),#595,.T.);
#625=ADVANCED_FACE('',(#88),#596,.F.);
#626=ADVANCED_FACE('',(#89),#597,.T.);
#627=ADVANCED_FACE('',(#90),#35,.F.);
#628=ADVANCED_FACE('',(#91),#36,.T.);
#629=ADVANCED_FACE('',(#92),#37,.F.);
#630=ADVANCED_FACE('',(#93),#598,.T.);
#631=ADVANCED_FACE('',(#94,#44),#599,.T.);
#632=ADVANCED_FACE('',(#95),#38,.F.);
#633=ADVANCED_FACE('',(#96,#45),#600,.T.);
#634=ADVANCED_FACE('',(#97),#601,.T.);
#635=ADVANCED_FACE('',(#98,#46,#47),#602,.T.);
#636=ADVANCED_FACE('',(#99),#39,.T.);
#637=CLOSED_SHELL('',(#603,#604,#605,#606,#607,#608,#609,#610,#611,#612,
#613,#614,#615,#616,#617,#618,#619,#620,#621,#622,#623,#624,#625,#626,#627,
#628,#629,#630,#631,#632,#633,#634,#635,#636));
#638=DERIVED_UNIT_ELEMENT(#640,1.);
#639=DERIVED_UNIT_ELEMENT(#1079,-3.);
#640=(
MASS_UNIT()
NAMED_UNIT(*)
SI_UNIT(.KILO.,.GRAM.)
);
#641=DERIVED_UNIT((#638,#639));
#642=MEASURE_REPRESENTATION_ITEM('density measure',
POSITIVE_RATIO_MEASURE(7850.),#641);
#643=PROPERTY_DEFINITION_REPRESENTATION(#648,#645);
#644=PROPERTY_DEFINITION_REPRESENTATION(#649,#646);
#645=REPRESENTATION('material name',(#647),#1076);
#646=REPRESENTATION('density',(#642),#1076);
#647=DESCRIPTIVE_REPRESENTATION_ITEM('Steel','Steel');
#648=PROPERTY_DEFINITION('material property','material name',#1086);
#649=PROPERTY_DEFINITION('material property','density of part',#1086);
#650=AXIS2_PLACEMENT_3D('',#895,#711,#712);
#651=AXIS2_PLACEMENT_3D('',#896,#713,#714);
#652=AXIS2_PLACEMENT_3D('',#905,#719,#720);
#653=AXIS2_PLACEMENT_3D('',#912,#724,#725);
#654=AXIS2_PLACEMENT_3D('',#913,#726,#727);
#655=AXIS2_PLACEMENT_3D('',#923,#732,#733);
#656=AXIS2_PLACEMENT_3D('',#924,#734,#735);
#657=AXIS2_PLACEMENT_3D('',#930,#739,#740);
#658=AXIS2_PLACEMENT_3D('',#936,#744,#745);
#659=AXIS2_PLACEMENT_3D('',#938,#746,#747);
#660=AXIS2_PLACEMENT_3D('',#940,#748,#749);
#661=AXIS2_PLACEMENT_3D('',#948,#753,#754);
#662=AXIS2_PLACEMENT_3D('',#956,#758,#759);
#663=AXIS2_PLACEMENT_3D('',#958,#760,#761);
#664=AXIS2_PLACEMENT_3D('',#965,#766,#767);
#665=AXIS2_PLACEMENT_3D('',#969,#770,#771);
#666=AXIS2_PLACEMENT_3D('',#971,#772,#773);
#667=AXIS2_PLACEMENT_3D('',#974,#775,#776);
#668=AXIS2_PLACEMENT_3D('',#975,#777,#778);
#669=AXIS2_PLACEMENT_3D('',#977,#779,#780);
#670=AXIS2_PLACEMENT_3D('',#980,#782,#783);
#671=AXIS2_PLACEMENT_3D('',#981,#784,#785);
#672=AXIS2_PLACEMENT_3D('',#983,#786,#787);
#673=AXIS2_PLACEMENT_3D('',#985,#789,#790);
#674=AXIS2_PLACEMENT_3D('',#987,#791,#792);
#675=AXIS2_PLACEMENT_3D('',#989,#794,#795);
#676=AXIS2_PLACEMENT_3D('',#994,#797,#798);
#677=AXIS2_PLACEMENT_3D('',#996,#800,#801);
#678=AXIS2_PLACEMENT_3D('',#997,#802,#803);
#679=AXIS2_PLACEMENT_3D('',#1001,#805,#806);
#680=AXIS2_PLACEMENT_3D('',#1003,#808,#809);
#681=AXIS2_PLACEMENT_3D('',#1007,#812,#813);
#682=AXIS2_PLACEMENT_3D('',#1008,#814,#815);
#683=AXIS2_PLACEMENT_3D('',#1010,#817,#818);
#684=AXIS2_PLACEMENT_3D('',#1014,#821,#822);
#685=AXIS2_PLACEMENT_3D('',#1015,#823,#824);
#686=AXIS2_PLACEMENT_3D('',#1020,#826,#827);
#687=AXIS2_PLACEMENT_3D('',#1023,#829,#830);
#688=AXIS2_PLACEMENT_3D('',#1024,#831,#832);
#689=AXIS2_PLACEMENT_3D('',#1028,#835,#836);
#690=AXIS2_PLACEMENT_3D('',#1029,#837,#838);
#691=AXIS2_PLACEMENT_3D('',#1033,#841,#842);
#692=AXIS2_PLACEMENT_3D('',#1034,#843,#844);
#693=AXIS2_PLACEMENT_3D('',#1036,#846,#847);
#694=AXIS2_PLACEMENT_3D('',#1040,#850,#851);
#695=AXIS2_PLACEMENT_3D('',#1047,#855,#856);
#696=AXIS2_PLACEMENT_3D('',#1048,#857,#858);
#697=AXIS2_PLACEMENT_3D('',#1051,#860,#861);
#698=AXIS2_PLACEMENT_3D('',#1055,#863,#864);
#699=AXIS2_PLACEMENT_3D('',#1056,#865,#866);
#700=AXIS2_PLACEMENT_3D('',#1057,#867,#868);
#701=AXIS2_PLACEMENT_3D('',#1058,#869,#870);
#702=AXIS2_PLACEMENT_3D('',#1060,#872,#873);
#703=AXIS2_PLACEMENT_3D('',#1062,#875,#876);
#704=AXIS2_PLACEMENT_3D('',#1065,#879,#880);
#705=AXIS2_PLACEMENT_3D('',#1066,#881,#882);
#706=AXIS2_PLACEMENT_3D('',#1068,#884,#885);
#707=AXIS2_PLACEMENT_3D('',#1069,#886,#887);
#708=AXIS2_PLACEMENT_3D('',#1070,#888,#889);
#709=AXIS2_PLACEMENT_3D('',#1072,#891,#892);
#710=AXIS2_PLACEMENT_3D('',#1073,#893,#894);
#711=DIRECTION('axis',(0.,0.,1.));
#712=DIRECTION('refdir',(1.,0.,0.));
#713=DIRECTION('center_axis',(1.,0.,0.));
#714=DIRECTION('ref_axis',(0.,0.,-1.));
#715=DIRECTION('',(0.,0.,1.));
#716=DIRECTION('',(0.,1.,0.));
#717=DIRECTION('',(0.,0.,-1.));
#718=DIRECTION('',(0.,-1.,0.));
#719=DIRECTION('center_axis',(0.,0.,-1.));
#720=DIRECTION('ref_axis',(-1.,0.,0.));
#721=DIRECTION('',(1.,0.,0.));
#722=DIRECTION('',(0.,1.,0.));
#723=DIRECTION('',(-1.,0.,0.));
#724=DIRECTION('center_axis',(0.,0.,1.));
#725=DIRECTION('ref_axis',(-1.,0.,0.));
#726=DIRECTION('center_axis',(0.,0.,-1.));
#727=DIRECTION('ref_axis',(-1.,0.,0.));
#728=DIRECTION('',(1.,0.,0.));
#729=DIRECTION('',(0.,1.,0.));
#730=DIRECTION('',(-1.,0.,0.));
#731=DIRECTION('',(0.,-1.,0.));
#732=DIRECTION('center_axis',(0.,0.,1.));
#733=DIRECTION('ref_axis',(-1.,0.,0.));
#734=DIRECTION('center_axis',(-1.,0.,0.));
#735=DIRECTION('ref_axis',(0.,0.,1.));
#736=DIRECTION('',(0.,0.,-1.));
#737=DIRECTION('',(0.,1.,0.));
#738=DIRECTION('',(0.,0.,1.));
#739=DIRECTION('center_axis',(0.,0.,1.));
#740=DIRECTION('ref_axis',(1.,0.,0.));
#741=DIRECTION('',(-1.,0.,0.));
#742=DIRECTION('',(0.,-1.,0.));
#743=DIRECTION('',(1.,0.,0.));
#744=DIRECTION('center_axis',(0.,1.,0.));
#745=DIRECTION('ref_axis',(1.,0.,0.));
#746=DIRECTION('center_axis',(0.,1.,0.));
#747=DIRECTION('ref_axis',(0.900070320740819,0.,-0.435744670330595));
#748=DIRECTION('center_axis',(0.,1.,0.));
#749=DIRECTION('ref_axis',(1.,0.,0.));
#750=DIRECTION('',(-5.04646829375071E-17,0.,1.));
#751=DIRECTION('',(-1.,0.,0.));
#752=DIRECTION('',(6.30808536718839E-17,0.,-1.));
#753=DIRECTION('center_axis',(0.,-1.,0.));
#754=DIRECTION('ref_axis',(1.,0.,0.));
#755=DIRECTION('',(0.,0.,1.));
#756=DIRECTION('',(-1.,0.,0.));
#757=DIRECTION('',(0.,0.,-1.));
#758=DIRECTION('center_axis',(0.,1.,0.));
#759=DIRECTION('ref_axis',(1.,0.,0.));
#760=DIRECTION('center_axis',(0.,1.,0.));
#761=DIRECTION('ref_axis',(-0.90007032074082,0.,-0.435744670330594));
#762=DIRECTION('',(1.,0.,0.));
#763=DIRECTION('',(0.,0.,-1.));
#764=DIRECTION('',(-1.,0.,0.));
#765=DIRECTION('',(0.,0.,1.));
#766=DIRECTION('center_axis',(1.,0.,0.));
#767=DIRECTION('ref_axis',(0.,0.,-1.));
#768=DIRECTION('',(0.,0.,1.));
#769=DIRECTION('',(0.,1.,0.));
#770=DIRECTION('center_axis',(-1.,0.,0.));
#771=DIRECTION('ref_axis',(0.,1.,0.));
#772=DIRECTION('center_axis',(-1.,0.,0.));
#773=DIRECTION('ref_axis',(0.,1.,0.));
#774=DIRECTION('',(-1.,0.,0.));
#775=DIRECTION('center_axis',(1.,0.,0.));
#776=DIRECTION('ref_axis',(0.,1.,0.));
#777=DIRECTION('center_axis',(-1.,0.,0.));
#778=DIRECTION('ref_axis',(0.,1.,0.));
#779=DIRECTION('center_axis',(-1.,0.,-6.30808536718839E-17));
#780=DIRECTION('ref_axis',(0.,1.,0.));
#781=DIRECTION('',(-1.,0.,0.));
#782=DIRECTION('center_axis',(1.,0.,5.04646829375071E-17));
#783=DIRECTION('ref_axis',(0.,1.,0.));
#784=DIRECTION('center_axis',(0.,0.,1.));
#785=DIRECTION('ref_axis',(-1.,0.,0.));
#786=DIRECTION('center_axis',(0.,0.,1.));
#787=DIRECTION('ref_axis',(-1.,0.,0.));
#788=DIRECTION('',(0.,0.,1.));
#789=DIRECTION('center_axis',(0.,0.,1.));
#790=DIRECTION('ref_axis',(-1.,0.,0.));
#791=DIRECTION('center_axis',(0.,0.,1.));
#792=DIRECTION('ref_axis',(-1.,0.,0.));
#793=DIRECTION('',(0.,0.,1.));
#794=DIRECTION('center_axis',(0.,1.,0.));
#795=DIRECTION('ref_axis',(0.707106781186549,0.,0.707106781186546));
#796=DIRECTION('',(0.,-1.,0.));
#797=DIRECTION('center_axis',(0.707106781186547,0.707106781186548,0.));
#798=DIRECTION('ref_axis',(0.707106781186548,-0.707106781186547,0.));
#799=DIRECTION('',(0.,1.,0.));
#800=DIRECTION('center_axis',(0.707106781186548,-0.707106781186547,0.));
#801=DIRECTION('ref_axis',(-0.707106781186547,-0.707106781186548,0.));
#802=DIRECTION('center_axis',(1.,0.,0.));
#803=DIRECTION('ref_axis',(0.,-0.707106781186549,0.707106781186546));
#804=DIRECTION('',(-1.,0.,0.));
#805=DIRECTION('center_axis',(0.707106781186548,-0.707106781186548,0.));
#806=DIRECTION('ref_axis',(-0.707106781186547,-0.707106781186547,0.));
#807=DIRECTION('',(1.,0.,0.));
#808=DIRECTION('center_axis',(0.,1.,0.));
#809=DIRECTION('ref_axis',(-0.707106781186549,0.,0.707106781186546));
#810=DIRECTION('',(0.,-1.,0.));
#811=DIRECTION('',(0.,1.,0.));
#812=DIRECTION('center_axis',(-0.707106781186548,-0.707106781186547,0.));
#813=DIRECTION('ref_axis',(0.707106781186547,-0.707106781186548,0.));
#814=DIRECTION('center_axis',(1.,0.,0.));
#815=DIRECTION('ref_axis',(0.,0.707106781186549,0.707106781186546));
#816=DIRECTION('',(1.,0.,0.));
#817=DIRECTION('center_axis',(1.,0.,0.));
#818=DIRECTION('ref_axis',(0.,0.,-1.));
#819=DIRECTION('',(0.,0.,-1.));
#820=DIRECTION('',(0.,1.,0.));
#821=DIRECTION('center_axis',(0.,0.,1.));
#822=DIRECTION('ref_axis',(1.,0.,0.));
#823=DIRECTION('center_axis',(1.,0.,0.));
#824=DIRECTION('ref_axis',(0.,-0.707106781186549,0.707106781186546));
#825=DIRECTION('',(-1.,0.,0.));
#826=DIRECTION('center_axis',(0.707106781186547,-0.707106781186548,0.));
#827=DIRECTION('ref_axis',(-0.707106781186548,-0.707106781186547,0.));
#828=DIRECTION('',(1.,0.,0.));
#829=DIRECTION('center_axis',(-0.707106781186548,-0.707106781186548,0.));
#830=DIRECTION('ref_axis',(-0.707106781186547,0.707106781186547,0.));
#831=DIRECTION('center_axis',(0.,1.,0.));
#832=DIRECTION('ref_axis',(-0.707106781186549,0.,0.707106781186546));
#833=DIRECTION('',(0.,-1.,0.));
#834=DIRECTION('',(0.,1.,0.));
#835=DIRECTION('center_axis',(-0.707106781186548,-0.707106781186548,0.));
#836=DIRECTION('ref_axis',(0.707106781186548,-0.707106781186548,0.));
#837=DIRECTION('center_axis',(0.,1.,0.));
#838=DIRECTION('ref_axis',(0.707106781186549,0.,0.707106781186546));
#839=DIRECTION('',(0.,-1.,0.));
#840=DIRECTION('',(0.,1.,0.));
#841=DIRECTION('center_axis',(0.707106781186548,-0.707106781186547,0.));
#842=DIRECTION('ref_axis',(-0.707106781186547,-0.707106781186548,0.));
#843=DIRECTION('center_axis',(1.,0.,0.));
#844=DIRECTION('ref_axis',(0.,0.707106781186549,0.707106781186546));
#845=DIRECTION('',(1.,0.,0.));
#846=DIRECTION('center_axis',(1.,0.,6.30808536718839E-17));
#847=DIRECTION('ref_axis',(6.30808536718839E-17,0.,-1.));
#848=DIRECTION('',(-6.30808536718839E-17,0.,1.));
#849=DIRECTION('',(0.,1.,0.));
#850=DIRECTION('center_axis',(0.,1.,0.));
#851=DIRECTION('ref_axis',(1.,0.,0.));
#852=DIRECTION('',(0.,0.,-1.));
#853=DIRECTION('',(1.,0.,0.));
#854=DIRECTION('',(-1.,0.,0.));
#855=DIRECTION('center_axis',(0.,-1.,0.));
#856=DIRECTION('ref_axis',(-0.90007032074082,0.,-0.435744670330594));
#857=DIRECTION('center_axis',(0.,1.,0.));
#858=DIRECTION('ref_axis',(1.,0.,0.));
#859=DIRECTION('',(0.,0.,-1.));
#860=DIRECTION('center_axis',(0.,1.,0.));
#861=DIRECTION('ref_axis',(1.,0.,0.));
#862=DIRECTION('',(-5.04646829375071E-17,0.,1.));
#863=DIRECTION('center_axis',(0.,1.,0.));
#864=DIRECTION('ref_axis',(1.,0.,0.));
#865=DIRECTION('center_axis',(0.,-1.,0.));
#866=DIRECTION('ref_axis',(0.900070320740819,0.,-0.435744670330595));
#867=DIRECTION('center_axis',(0.,0.,1.));
#868=DIRECTION('ref_axis',(1.,0.,0.));
#869=DIRECTION('center_axis',(0.,1.,0.));
#870=DIRECTION('ref_axis',(0.900070320740819,0.,-0.435744670330595));
#871=DIRECTION('',(0.,1.,0.));
#872=DIRECTION('center_axis',(0.,1.,0.));
#873=DIRECTION('ref_axis',(-0.945945922046076,0.,0.32432439403227));
#874=DIRECTION('',(0.,1.,0.));
#875=DIRECTION('center_axis',(0.,1.,0.));
#876=DIRECTION('ref_axis',(-0.90007032074082,0.,-0.435744670330594));
#877=DIRECTION('',(0.,1.,0.));
#878=DIRECTION('',(0.,-1.,0.));
#879=DIRECTION('center_axis',(0.,0.,1.));
#880=DIRECTION('ref_axis',(1.,0.,0.));
#881=DIRECTION('center_axis',(-1.,0.,0.));
#882=DIRECTION('ref_axis',(0.,0.,1.));
#883=DIRECTION('',(0.,1.,0.));
#884=DIRECTION('center_axis',(0.,1.,0.));
#885=DIRECTION('ref_axis',(6.12323399573677E-17,0.,-1.));
#886=DIRECTION('center_axis',(-1.,0.,-5.04646829375071E-17));
#887=DIRECTION('ref_axis',(-5.04646829375071E-17,0.,1.));
#888=DIRECTION('center_axis',(-1.,0.,0.));
#889=DIRECTION('ref_axis',(0.,0.,1.));
#890=DIRECTION('',(0.,1.,0.));
#891=DIRECTION('center_axis',(0.,0.,-1.));
#892=DIRECTION('ref_axis',(-1.,0.,0.));
#893=DIRECTION('center_axis',(0.,1.,0.));
#894=DIRECTION('ref_axis',(1.,0.,0.));
#895=CARTESIAN_POINT('',(0.,0.,0.));
#896=CARTESIAN_POINT('Origin',(-18.,0.,14.));
#897=CARTESIAN_POINT('',(-18.,12.,8.));
#898=CARTESIAN_POINT('',(-18.,12.,14.));
#899=CARTESIAN_POINT('',(-18.,12.,20.2401809547215));
#900=CARTESIAN_POINT('',(-18.,0.,8.));
#901=CARTESIAN_POINT('',(-18.,0.,8.));
#902=CARTESIAN_POINT('',(-18.,0.,14.));
#903=CARTESIAN_POINT('',(-18.,0.,20.2401809547215));
#904=CARTESIAN_POINT('',(-18.,0.,14.));
#905=CARTESIAN_POINT('Origin',(-18.,0.,8.));
#906=CARTESIAN_POINT('',(-30.,12.,8.));
#907=CARTESIAN_POINT('',(-9.,12.,8.));
#908=CARTESIAN_POINT('',(-30.,0.,8.));
#909=CARTESIAN_POINT('',(-30.,0.,8.));
#910=CARTESIAN_POINT('',(-9.,0.,8.));
#911=CARTESIAN_POINT('',(-22.3,6.,8.));
#912=CARTESIAN_POINT('Origin',(-24.,6.,8.));
#913=CARTESIAN_POINT('Origin',(30.,0.,8.));
#914=CARTESIAN_POINT('',(18.,12.,8.));
#915=CARTESIAN_POINT('',(30.,12.,8.));
#916=CARTESIAN_POINT('',(15.,12.,8.));
#917=CARTESIAN_POINT('',(18.,0.,8.));
#918=CARTESIAN_POINT('',(18.,0.,8.));
#919=CARTESIAN_POINT('',(30.,0.,8.));
#920=CARTESIAN_POINT('',(15.,0.,8.));
#921=CARTESIAN_POINT('',(30.,0.,8.));
#922=CARTESIAN_POINT('',(25.7,6.,8.));
#923=CARTESIAN_POINT('Origin',(24.,6.,8.));
#924=CARTESIAN_POINT('Origin',(18.,0.,8.));
#925=CARTESIAN_POINT('',(18.,12.,14.));
#926=CARTESIAN_POINT('',(18.,12.,17.2401809547215));
#927=CARTESIAN_POINT('',(18.,0.,14.));
#928=CARTESIAN_POINT('',(18.,0.,14.));
#929=CARTESIAN_POINT('',(18.,0.,17.2401809547215));
#930=CARTESIAN_POINT('Origin',(-30.,0.,14.));
#931=CARTESIAN_POINT('',(-15.4919333848297,0.,14.));
#932=CARTESIAN_POINT('',(30.,0.,14.));
#933=CARTESIAN_POINT('',(-15.4919333848297,12.,14.));
#934=CARTESIAN_POINT('',(-15.4919333848297,0.,14.));
#935=CARTESIAN_POINT('',(30.,12.,14.));
#936=CARTESIAN_POINT('Origin',(0.,12.,26.4803619094431));
#937=CARTESIAN_POINT('',(-13.1387283137163,12.,18.8607594936709));
#938=CARTESIAN_POINT('Origin',(-15.4919333848297,12.,17.));
#939=CARTESIAN_POINT('',(-4.,12.,45.5153773396131));
#940=CARTESIAN_POINT('Origin',(0.,12.,29.25));
#941=CARTESIAN_POINT('',(-4.,12.,51.9607238188862));
#942=CARTESIAN_POINT('',(-4.,12.,41.9607238188862));
#943=CARTESIAN_POINT('',(-1.,12.,51.9607238188862));
#944=CARTESIAN_POINT('',(-2.,12.,51.9607238188862));
#945=CARTESIAN_POINT('',(-1.,12.,41.9607238188862));
#946=CARTESIAN_POINT('',(-1.,12.,41.9607238188862));
#947=CARTESIAN_POINT('',(1.,12.,41.9607238188862));
#948=CARTESIAN_POINT('Origin',(0.,12.,29.25));
#949=CARTESIAN_POINT('',(1.,12.,51.9607238188862));
#950=CARTESIAN_POINT('',(1.,12.,52.9607238188862));
#951=CARTESIAN_POINT('',(4.,12.,51.9607238188862));
#952=CARTESIAN_POINT('',(0.5,12.,51.9607238188862));
#953=CARTESIAN_POINT('',(4.,12.,45.5153773396131));
#954=CARTESIAN_POINT('',(4.,12.,52.9607238188862));
#955=CARTESIAN_POINT('',(13.1387283137163,12.,18.8607594936709));
#956=CARTESIAN_POINT('Origin',(0.,12.,29.25));
#957=CARTESIAN_POINT('',(15.4919333848297,12.,14.));
#958=CARTESIAN_POINT('Origin',(15.4919333848297,12.,17.));
#959=CARTESIAN_POINT('',(30.,12.,14.));
#960=CARTESIAN_POINT('',(30.,12.,0.));
#961=CARTESIAN_POINT('',(30.,12.,0.));
#962=CARTESIAN_POINT('',(-30.,12.,0.));
#963=CARTESIAN_POINT('',(-30.,12.,0.));
#964=CARTESIAN_POINT('',(-30.,12.,14.));
#965=CARTESIAN_POINT('Origin',(30.,0.,14.));
#966=CARTESIAN_POINT('',(30.,0.,0.));
#967=CARTESIAN_POINT('',(30.,0.,0.));
#968=CARTESIAN_POINT('',(30.,0.,0.));
#969=CARTESIAN_POINT('Origin',(-14.7,6.,49.2000007897615));
#970=CARTESIAN_POINT('',(4.,4.3,49.2000007897615));
#971=CARTESIAN_POINT('Origin',(4.,6.,49.2000007897615));
#972=CARTESIAN_POINT('',(1.,4.3,49.2000007897615));
#973=CARTESIAN_POINT('',(-14.7,4.3,49.2000007897615));
#974=CARTESIAN_POINT('Origin',(1.,6.,49.2000007897615));
#975=CARTESIAN_POINT('Origin',(-14.7,6.,49.2000007897615));
#976=CARTESIAN_POINT('',(-1.,4.3,49.2000007897615));
#977=CARTESIAN_POINT('Origin',(-1.,6.,49.2000007897615));
#978=CARTESIAN_POINT('',(-4.,4.3,49.2000007897615));
#979=CARTESIAN_POINT('',(-14.7,4.3,49.2000007897615));
#980=CARTESIAN_POINT('Origin',(-4.,6.,49.2000007897615));
#981=CARTESIAN_POINT('Origin',(-24.,6.,29.1283981003874));
#982=CARTESIAN_POINT('',(-22.3,6.,0.));
#983=CARTESIAN_POINT('Origin',(-24.,6.,0.));
#984=CARTESIAN_POINT('',(-22.3,6.,29.1283981003874));
#985=CARTESIAN_POINT('Origin',(24.,6.,29.1283981003874));
#986=CARTESIAN_POINT('',(25.7,6.,0.));
#987=CARTESIAN_POINT('Origin',(24.,6.,0.));
#988=CARTESIAN_POINT('',(25.7,6.,29.1283981003874));
#989=CARTESIAN_POINT('Origin',(3.,0.,51.9607238188862));
#990=CARTESIAN_POINT('',(3.,11.,52.9607238188862));
#991=CARTESIAN_POINT('',(3.,1.,52.9607238188862));
#992=CARTESIAN_POINT('',(3.,0.,52.9607238188862));
#993=CARTESIAN_POINT('',(4.,0.,51.9607238188862));
#994=CARTESIAN_POINT('Origin',(3.,1.,51.9607238188862));
#995=CARTESIAN_POINT('',(4.,0.,51.9607238188862));
#996=CARTESIAN_POINT('Origin',(3.,11.,51.9607238188862));
#997=CARTESIAN_POINT('Origin',(0.5,1.,51.9607238188862));
#998=CARTESIAN_POINT('',(2.,1.,52.9607238188862));
#999=CARTESIAN_POINT('',(0.5,1.,52.9607238188862));
#1000=CARTESIAN_POINT('',(1.,0.,51.9607238188862));
#1001=CARTESIAN_POINT('Origin',(2.,1.,51.9607238188862));
#1002=CARTESIAN_POINT('',(0.5,0.,51.9607238188862));
#1003=CARTESIAN_POINT('Origin',(2.,0.,51.9607238188862));
#1004=CARTESIAN_POINT('',(1.,0.,51.9607238188862));
#1005=CARTESIAN_POINT('',(2.,11.,52.9607238188862));
#1006=CARTESIAN_POINT('',(2.,0.,52.9607238188862));
#1007=CARTESIAN_POINT('Origin',(2.,11.,51.9607238188862));
#1008=CARTESIAN_POINT('Origin',(0.5,11.,51.9607238188862));
#1009=CARTESIAN_POINT('',(0.5,11.,52.9607238188862));
#1010=CARTESIAN_POINT('Origin',(4.,0.,52.9607238188862));
#1011=CARTESIAN_POINT('',(4.,0.,45.5153773396131));
#1012=CARTESIAN_POINT('',(4.,0.,52.9607238188862));
#1013=CARTESIAN_POINT('',(4.,0.,45.5153773396131));
#1014=CARTESIAN_POINT('Origin',(1.,0.,52.9607238188862));
#1015=CARTESIAN_POINT('Origin',(-2.,1.,51.9607238188862));
#1016=CARTESIAN_POINT('',(-2.,1.,52.9607238188862));
#1017=CARTESIAN_POINT('',(-3.,1.,52.9607238188862));
#1018=CARTESIAN_POINT('',(-2.,1.,52.9607238188862));
#1019=CARTESIAN_POINT('',(-4.,0.,51.9607238188862));
#1020=CARTESIAN_POINT('Origin',(-3.,1.,51.9607238188862));
#1021=CARTESIAN_POINT('',(-1.,0.,51.9607238188862));
#1022=CARTESIAN_POINT('',(-2.,0.,51.9607238188862));
#1023=CARTESIAN_POINT('Origin',(-2.,1.,51.9607238188862));
#1024=CARTESIAN_POINT('Origin',(-3.,0.,51.9607238188862));
#1025=CARTESIAN_POINT('',(-4.,0.,51.9607238188862));
#1026=CARTESIAN_POINT('',(-3.,11.,52.9607238188862));
#1027=CARTESIAN_POINT('',(-3.,0.,52.9607238188862));
#1028=CARTESIAN_POINT('Origin',(-3.,11.,51.9607238188862));
#1029=CARTESIAN_POINT('Origin',(-2.,0.,51.9607238188862));
#1030=CARTESIAN_POINT('',(-2.,11.,52.9607238188862));
#1031=CARTESIAN_POINT('',(-2.,0.,52.9607238188862));
#1032=CARTESIAN_POINT('',(-1.,0.,51.9607238188862));
#1033=CARTESIAN_POINT('Origin',(-2.,11.,51.9607238188862));
#1034=CARTESIAN_POINT('Origin',(-2.,11.,51.9607238188862));
#1035=CARTESIAN_POINT('',(-2.,11.,52.9607238188862));
#1036=CARTESIAN_POINT('Origin',(-1.,0.,52.9607238188862));
#1037=CARTESIAN_POINT('',(-1.,0.,41.9607238188862));
#1038=CARTESIAN_POINT('',(-1.,0.,41.9607238188862));
#1039=CARTESIAN_POINT('',(-1.,0.,41.9607238188862));
#1040=CARTESIAN_POINT('Origin',(0.,0.,26.4803619094431));
#1041=CARTESIAN_POINT('',(-30.,0.,0.));
#1042=CARTESIAN_POINT('',(-30.,0.,14.));
#1043=CARTESIAN_POINT('',(-30.,0.,0.));
#1044=CARTESIAN_POINT('',(15.4919333848297,0.,14.));
#1045=CARTESIAN_POINT('',(30.,0.,14.));
#1046=CARTESIAN_POINT('',(13.1387283137163,0.,18.8607594936709));
#1047=CARTESIAN_POINT('Origin',(15.4919333848297,0.,17.));
#1048=CARTESIAN_POINT('Origin',(0.,0.,29.25));
#1049=CARTESIAN_POINT('',(1.,0.,41.9607238188862));
#1050=CARTESIAN_POINT('',(1.,0.,52.9607238188862));
#1051=CARTESIAN_POINT('Origin',(0.,0.,29.25));
#1052=CARTESIAN_POINT('',(-4.,0.,45.5153773396131));
#1053=CARTESIAN_POINT('',(-4.,0.,41.9607238188862));
#1054=CARTESIAN_POINT('',(-13.1387283137163,0.,18.8607594936709));
#1055=CARTESIAN_POINT('Origin',(0.,0.,29.25));
#1056=CARTESIAN_POINT('Origin',(-15.4919333848297,0.,17.));
#1057=CARTESIAN_POINT('Origin',(-4.,0.,52.9607238188862));
#1058=CARTESIAN_POINT('Origin',(-15.4919333848297,0.,17.));
#1059=CARTESIAN_POINT('',(-13.1387283137163,0.,18.8607594936709));
#1060=CARTESIAN_POINT('Origin',(0.,0.,29.25));
#1061=CARTESIAN_POINT('',(-4.,0.,45.5153773396131));
#1062=CARTESIAN_POINT('Origin',(15.4919333848297,0.,17.));
#1063=CARTESIAN_POINT('',(15.4919333848297,0.,14.));
#1064=CARTESIAN_POINT('',(13.1387283137163,0.,18.8607594936709));
#1065=CARTESIAN_POINT('Origin',(6.9282032302755,0.,14.));
#1066=CARTESIAN_POINT('Origin',(1.,0.,41.9607238188862));
#1067=CARTESIAN_POINT('',(1.,0.,41.9607238188862));
#1068=CARTESIAN_POINT('Origin',(0.,0.,29.25));
#1069=CARTESIAN_POINT('Origin',(-4.,0.,45.5153773396131));
#1070=CARTESIAN_POINT('Origin',(-30.,0.,0.));
#1071=CARTESIAN_POINT('',(-30.,0.,0.));
#1072=CARTESIAN_POINT('Origin',(30.,0.,0.));
#1073=CARTESIAN_POINT('Origin',(0.,0.,29.25));
#1074=UNCERTAINTY_MEASURE_WITH_UNIT(LENGTH_MEASURE(0.01),#1078,
'DISTANCE_ACCURACY_VALUE',
'Maximum model space distance between geometric entities at asserted c
onnectivities');
#1075=UNCERTAINTY_MEASURE_WITH_UNIT(LENGTH_MEASURE(0.01),#1078,
'DISTANCE_ACCURACY_VALUE',
'Maximum model space distance between geometric entities at asserted c
onnectivities');
#1076=(
GEOMETRIC_REPRESENTATION_CONTEXT(3)
GLOBAL_UNCERTAINTY_ASSIGNED_CONTEXT((#1074))
GLOBAL_UNIT_ASSIGNED_CONTEXT((#1078,#1080,#1081))
REPRESENTATION_CONTEXT('','3D')
);
#1077=(
GEOMETRIC_REPRESENTATION_CONTEXT(3)
GLOBAL_UNCERTAINTY_ASSIGNED_CONTEXT((#1075))
GLOBAL_UNIT_ASSIGNED_CONTEXT((#1078,#1080,#1081))
REPRESENTATION_CONTEXT('','3D')
);
#1078=(
LENGTH_UNIT()
NAMED_UNIT(*)
SI_UNIT(.MILLI.,.METRE.)
);
#1079=(
LENGTH_UNIT()
NAMED_UNIT(*)
SI_UNIT($,.METRE.)
);
#1080=(
NAMED_UNIT(*)
PLANE_ANGLE_UNIT()
SI_UNIT($,.RADIAN.)
);
#1081=(
NAMED_UNIT(*)
SI_UNIT($,.STERADIAN.)
SOLID_ANGLE_UNIT()
);
#1082=SHAPE_DEFINITION_REPRESENTATION(#1083,#1084);
#1083=PRODUCT_DEFINITION_SHAPE('',$,#1086);
#1084=SHAPE_REPRESENTATION('',(#650),#1076);
#1085=PRODUCT_DEFINITION_CONTEXT('part definition',#1090,'design');
#1086=PRODUCT_DEFINITION('2026-07-06-14-36-28-518',
'Auger Bracket Recorded v1',#1087,#1085);
#1087=PRODUCT_DEFINITION_FORMATION('',$,#1092);
#1088=PRODUCT_RELATED_PRODUCT_CATEGORY('Auger Bracket Recorded v1',
'Auger Bracket Recorded v1',(#1092));
#1089=APPLICATION_PROTOCOL_DEFINITION('international standard',
'automotive_design',2009,#1090);
#1090=APPLICATION_CONTEXT(
'Core Data for Automotive Mechanical Design Process');
#1091=PRODUCT_CONTEXT('part definition',#1090,'mechanical');
#1092=PRODUCT('2026-07-06-14-36-28-518','Auger Bracket Recorded v1',$,(#1091));
#1093=PRESENTATION_STYLE_ASSIGNMENT((#1094));
#1094=SURFACE_STYLE_USAGE(.BOTH.,#1095);
#1095=SURFACE_SIDE_STYLE('',(#1096));
#1096=SURFACE_STYLE_FILL_AREA(#1097);
#1097=FILL_AREA_STYLE('Steel - Satin',(#1098));
#1098=FILL_AREA_STYLE_COLOUR('Steel - Satin',#1099);
#1099=COLOUR_RGB('Steel - Satin',0.627450980392157,0.627450980392157,0.627450980392157);
ENDSEC;
END-ISO-10303-21;
