ISO-10303-21;
HEADER;
/* Generated by software containing ST-Developer
 * from STEP Tools, Inc. (www.steptools.com) 
 */

FILE_DESCRIPTION(
/* description */ (''),
/* implementation_level */ '2;1');

FILE_NAME(
/* name */ 'e96087e6-4413-4435-b6f5-af58166c3fed.stp',
/* time_stamp */ '2026-10-01T20:30:38Z',
/* author */ (''),
/* organization */ (''),
/* preprocessor_version */ 'ST-DEVELOPER v20.2',
/* originating_system */ 'Autodesk Translation Framework v15.17.0.0',
/* authorisation */ '');

FILE_SCHEMA (('AUTOMOTIVE_DESIGN { 1 0 10303 214 3 1 1 }'));
ENDSEC;

DATA;
#10=MECHANICAL_DESIGN_GEOMETRIC_PRESENTATION_REPRESENTATION('',(#13),#1154);
#11=SHAPE_REPRESENTATION_RELATIONSHIP('SRR','None',#1161,#12);
#12=ADVANCED_BREP_SHAPE_REPRESENTATION('',(#14),#1153);
#13=STYLED_ITEM('',(#1170),#14);
#14=MANIFOLD_SOLID_BREP('Body1',#677);
#15=FACE_BOUND('',#98,.T.);
#16=FACE_BOUND('',#99,.T.);
#17=FACE_BOUND('',#102,.T.);
#18=FACE_BOUND('',#104,.T.);
#19=FACE_BOUND('',#106,.T.);
#20=FACE_BOUND('',#109,.T.);
#21=FACE_BOUND('',#117,.T.);
#22=FACE_BOUND('',#120,.T.);
#23=FACE_BOUND('',#122,.T.);
#24=FACE_BOUND('',#123,.T.);
#25=PLANE('',#705);
#26=PLANE('',#709);
#27=PLANE('',#710);
#28=PLANE('',#714);
#29=PLANE('',#715);
#30=PLANE('',#716);
#31=PLANE('',#717);
#32=PLANE('',#718);
#33=PLANE('',#719);
#34=PLANE('',#720);
#35=PLANE('',#721);
#36=PLANE('',#725);
#37=PLANE('',#726);
#38=PLANE('',#727);
#39=PLANE('',#731);
#40=PLANE('',#735);
#41=PLANE('',#736);
#42=PLANE('',#740);
#43=PLANE('',#741);
#44=PLANE('',#742);
#45=PLANE('',#743);
#46=PLANE('',#744);
#47=B_SPLINE_CURVE_WITH_KNOTS('',3,(#945,#946,#947,#948,#949,#950,#951,
#952,#953,#954,#955,#956,#957,#958,#959,#960,#961,#962),.UNSPECIFIED.,.F.,
 .F.,(4,2,2,2,2,2,2,2,4),(0.,0.130674677095407,0.261349354190814,0.39199869193819,
0.522648029685566,0.653297367432942,0.783946705180318,0.914621382275725,
1.04529605937113),.UNSPECIFIED.);
#48=B_SPLINE_CURVE_WITH_KNOTS('',3,(#963,#964,#965,#966,#967,#968,#969,
#970,#971,#972,#973,#974,#975,#976,#977,#978,#979,#980),.UNSPECIFIED.,.F.,
 .F.,(4,2,2,2,2,2,2,2,4),(1.04529605937113,1.17597073646654,1.30664541356195,
1.43729475130932,1.5679440890567,1.69859342680407,1.82924276455145,1.95991744164686,
2.09059211874226),.UNSPECIFIED.);
#49=FACE_OUTER_BOUND('',#82,.T.);
#50=FACE_OUTER_BOUND('',#83,.T.);
#51=FACE_OUTER_BOUND('',#84,.T.);
#52=FACE_OUTER_BOUND('',#85,.T.);
#53=FACE_OUTER_BOUND('',#86,.T.);
#54=FACE_OUTER_BOUND('',#87,.T.);
#55=FACE_OUTER_BOUND('',#88,.T.);
#56=FACE_OUTER_BOUND('',#89,.T.);
#57=FACE_OUTER_BOUND('',#90,.T.);
#58=FACE_OUTER_BOUND('',#91,.T.);
#59=FACE_OUTER_BOUND('',#92,.T.);
#60=FACE_OUTER_BOUND('',#93,.T.);
#61=FACE_OUTER_BOUND('',#94,.T.);
#62=FACE_OUTER_BOUND('',#95,.T.);
#63=FACE_OUTER_BOUND('',#96,.T.);
#64=FACE_OUTER_BOUND('',#97,.T.);
#65=FACE_OUTER_BOUND('',#100,.T.);
#66=FACE_OUTER_BOUND('',#101,.T.);
#67=FACE_OUTER_BOUND('',#103,.T.);
#68=FACE_OUTER_BOUND('',#105,.T.);
#69=FACE_OUTER_BOUND('',#107,.T.);
#70=FACE_OUTER_BOUND('',#108,.T.);
#71=FACE_OUTER_BOUND('',#110,.T.);
#72=FACE_OUTER_BOUND('',#111,.T.);
#73=FACE_OUTER_BOUND('',#112,.T.);
#74=FACE_OUTER_BOUND('',#113,.T.);
#75=FACE_OUTER_BOUND('',#114,.T.);
#76=FACE_OUTER_BOUND('',#115,.T.);
#77=FACE_OUTER_BOUND('',#116,.T.);
#78=FACE_OUTER_BOUND('',#118,.T.);
#79=FACE_OUTER_BOUND('',#119,.T.);
#80=FACE_OUTER_BOUND('',#121,.T.);
#81=FACE_OUTER_BOUND('',#124,.T.);
#82=EDGE_LOOP('',(#445,#446,#447,#448));
#83=EDGE_LOOP('',(#449,#450,#451,#452));
#84=EDGE_LOOP('',(#453,#454,#455,#456,#457));
#85=EDGE_LOOP('',(#458,#459,#460,#461));
#86=EDGE_LOOP('',(#462,#463,#464,#465));
#87=EDGE_LOOP('',(#466,#467,#468,#469));
#88=EDGE_LOOP('',(#470,#471,#472,#473));
#89=EDGE_LOOP('',(#474,#475,#476,#477));
#90=EDGE_LOOP('',(#478,#479,#480,#481));
#91=EDGE_LOOP('',(#482,#483,#484,#485));
#92=EDGE_LOOP('',(#486,#487,#488,#489));
#93=EDGE_LOOP('',(#490,#491,#492,#493,#494,#495,#496,#497));
#94=EDGE_LOOP('',(#498,#499,#500,#501,#502,#503));
#95=EDGE_LOOP('',(#504,#505,#506,#507,#508,#509));
#96=EDGE_LOOP('',(#510,#511,#512,#513,#514,#515,#516,#517));
#97=EDGE_LOOP('',(#518,#519,#520,#521));
#98=EDGE_LOOP('',(#522));
#99=EDGE_LOOP('',(#523));
#100=EDGE_LOOP('',(#524,#525,#526,#527));
#101=EDGE_LOOP('',(#528,#529,#530,#531));
#102=EDGE_LOOP('',(#532));
#103=EDGE_LOOP('',(#533,#534,#535,#536));
#104=EDGE_LOOP('',(#537,#538));
#105=EDGE_LOOP('',(#539,#540,#541,#542));
#106=EDGE_LOOP('',(#543));
#107=EDGE_LOOP('',(#544,#545,#546,#547));
#108=EDGE_LOOP('',(#548,#549,#550,#551));
#109=EDGE_LOOP('',(#552));
#110=EDGE_LOOP('',(#553,#554,#555,#556));
#111=EDGE_LOOP('',(#557,#558,#559,#560,#561,#562,#563,#564));
#112=EDGE_LOOP('',(#565,#566,#567,#568));
#113=EDGE_LOOP('',(#569,#570,#571,#572,#573,#574));
#114=EDGE_LOOP('',(#575,#576,#577,#578,#579,#580));
#115=EDGE_LOOP('',(#581,#582,#583,#584));
#116=EDGE_LOOP('',(#585,#586,#587,#588));
#117=EDGE_LOOP('',(#589));
#118=EDGE_LOOP('',(#590,#591,#592,#593));
#119=EDGE_LOOP('',(#594,#595,#596,#597));
#120=EDGE_LOOP('',(#598));
#121=EDGE_LOOP('',(#599,#600,#601,#602,#603,#604,#605,#606,#607,#608,#609,
#610,#611,#612,#613,#614));
#122=EDGE_LOOP('',(#615));
#123=EDGE_LOOP('',(#616));
#124=EDGE_LOOP('',(#617,#618,#619,#620,#621,#622,#623,#624,#625,#626,#627,
#628,#629,#630,#631,#632));
#125=LINE('',#931,#196);
#126=LINE('',#937,#197);
#127=LINE('',#943,#198);
#128=LINE('',#985,#199);
#129=LINE('',#991,#200);
#130=LINE('',#996,#201);
#131=LINE('',#998,#202);
#132=LINE('',#1000,#203);
#133=LINE('',#1001,#204);
#134=LINE('',#1006,#205);
#135=LINE('',#1010,#206);
#136=LINE('',#1012,#207);
#137=LINE('',#1013,#208);
#138=LINE('',#1017,#209);
#139=LINE('',#1019,#210);
#140=LINE('',#1021,#211);
#141=LINE('',#1022,#212);
#142=LINE('',#1027,#213);
#143=LINE('',#1031,#214);
#144=LINE('',#1033,#215);
#145=LINE('',#1034,#216);
#146=LINE('',#1036,#217);
#147=LINE('',#1037,#218);
#148=LINE('',#1040,#219);
#149=LINE('',#1042,#220);
#150=LINE('',#1043,#221);
#151=LINE('',#1046,#222);
#152=LINE('',#1048,#223);
#153=LINE('',#1049,#224);
#154=LINE('',#1052,#225);
#155=LINE('',#1054,#226);
#156=LINE('',#1055,#227);
#157=LINE('',#1059,#228);
#158=LINE('',#1061,#229);
#159=LINE('',#1063,#230);
#160=LINE('',#1064,#231);
#161=LINE('',#1067,#232);
#162=LINE('',#1069,#233);
#163=LINE('',#1070,#234);
#164=LINE('',#1073,#235);
#165=LINE('',#1075,#236);
#166=LINE('',#1076,#237);
#167=LINE('',#1082,#238);
#168=LINE('',#1085,#239);
#169=LINE('',#1088,#240);
#170=LINE('',#1090,#241);
#171=LINE('',#1091,#242);
#172=LINE('',#1094,#243);
#173=LINE('',#1096,#244);
#174=LINE('',#1097,#245);
#175=LINE('',#1100,#246);
#176=LINE('',#1102,#247);
#177=LINE('',#1103,#248);
#178=LINE('',#1109,#249);
#179=LINE('',#1111,#250);
#180=LINE('',#1112,#251);
#181=LINE('',#1118,#252);
#182=LINE('',#1120,#253);
#183=LINE('',#1121,#254);
#184=LINE('',#1124,#255);
#185=LINE('',#1126,#256);
#186=LINE('',#1127,#257);
#187=LINE('',#1133,#258);
#188=LINE('',#1136,#259);
#189=LINE('',#1138,#260);
#190=LINE('',#1139,#261);
#191=LINE('',#1142,#262);
#192=LINE('',#1144,#263);
#193=LINE('',#1145,#264);
#194=LINE('',#1147,#265);
#195=LINE('',#1148,#266);
#196=VECTOR('',#751,1.7);
#197=VECTOR('',#758,1.7);
#198=VECTOR('',#765,3.45);
#199=VECTOR('',#770,1.6);
#200=VECTOR('',#777,1.6);
#201=VECTOR('',#782,10.);
#202=VECTOR('',#783,10.);
#203=VECTOR('',#784,10.);
#204=VECTOR('',#785,10.);
#205=VECTOR('',#790,10.);
#206=VECTOR('',#795,10.);
#207=VECTOR('',#796,10.);
#208=VECTOR('',#797,10.);
#209=VECTOR('',#800,10.);
#210=VECTOR('',#801,10.);
#211=VECTOR('',#802,10.);
#212=VECTOR('',#803,10.);
#213=VECTOR('',#808,10.);
#214=VECTOR('',#813,10.);
#215=VECTOR('',#814,10.);
#216=VECTOR('',#815,10.);
#217=VECTOR('',#818,10.);
#218=VECTOR('',#819,10.);
#219=VECTOR('',#822,10.);
#220=VECTOR('',#823,10.);
#221=VECTOR('',#824,10.);
#222=VECTOR('',#827,10.);
#223=VECTOR('',#828,10.);
#224=VECTOR('',#829,10.);
#225=VECTOR('',#832,10.);
#226=VECTOR('',#833,10.);
#227=VECTOR('',#834,10.);
#228=VECTOR('',#837,10.);
#229=VECTOR('',#838,10.);
#230=VECTOR('',#839,10.);
#231=VECTOR('',#840,10.);
#232=VECTOR('',#843,10.);
#233=VECTOR('',#844,10.);
#234=VECTOR('',#845,10.);
#235=VECTOR('',#848,10.);
#236=VECTOR('',#849,10.);
#237=VECTOR('',#850,10.);
#238=VECTOR('',#855,10.);
#239=VECTOR('',#858,10.);
#240=VECTOR('',#861,10.);
#241=VECTOR('',#862,10.);
#242=VECTOR('',#863,10.);
#243=VECTOR('',#866,10.);
#244=VECTOR('',#867,10.);
#245=VECTOR('',#868,10.);
#246=VECTOR('',#871,10.);
#247=VECTOR('',#872,10.);
#248=VECTOR('',#873,10.);
#249=VECTOR('',#882,10.);
#250=VECTOR('',#883,10.);
#251=VECTOR('',#884,10.);
#252=VECTOR('',#891,10.);
#253=VECTOR('',#894,10.);
#254=VECTOR('',#895,10.);
#255=VECTOR('',#898,10.);
#256=VECTOR('',#899,10.);
#257=VECTOR('',#900,10.);
#258=VECTOR('',#907,10.);
#259=VECTOR('',#910,10.);
#260=VECTOR('',#911,10.);
#261=VECTOR('',#912,10.);
#262=VECTOR('',#915,10.);
#263=VECTOR('',#916,10.);
#264=VECTOR('',#917,10.);
#265=VECTOR('',#920,10.);
#266=VECTOR('',#921,10.);
#267=CIRCLE('',#692,1.7);
#268=CIRCLE('',#693,1.7);
#269=CIRCLE('',#695,1.7);
#270=CIRCLE('',#696,1.7);
#271=CIRCLE('',#698,3.45);
#272=CIRCLE('',#700,1.6);
#273=CIRCLE('',#701,1.6);
#274=CIRCLE('',#703,1.6);
#275=CIRCLE('',#704,1.6);
#276=CIRCLE('',#707,5.25);
#277=CIRCLE('',#708,5.25);
#278=CIRCLE('',#712,5.25);
#279=CIRCLE('',#713,5.25);
#280=CIRCLE('',#723,12.75);
#281=CIRCLE('',#724,12.75);
#282=CIRCLE('',#729,16.75);
#283=CIRCLE('',#730,16.75);
#284=CIRCLE('',#733,16.75);
#285=CIRCLE('',#734,16.75);
#286=CIRCLE('',#738,16.75);
#287=CIRCLE('',#739,16.75);
#288=VERTEX_POINT('',#928);
#289=VERTEX_POINT('',#930);
#290=VERTEX_POINT('',#934);
#291=VERTEX_POINT('',#936);
#292=VERTEX_POINT('',#940);
#293=VERTEX_POINT('',#942);
#294=VERTEX_POINT('',#944);
#295=VERTEX_POINT('',#982);
#296=VERTEX_POINT('',#984);
#297=VERTEX_POINT('',#988);
#298=VERTEX_POINT('',#990);
#299=VERTEX_POINT('',#994);
#300=VERTEX_POINT('',#995);
#301=VERTEX_POINT('',#997);
#302=VERTEX_POINT('',#999);
#303=VERTEX_POINT('',#1003);
#304=VERTEX_POINT('',#1005);
#305=VERTEX_POINT('',#1009);
#306=VERTEX_POINT('',#1011);
#307=VERTEX_POINT('',#1015);
#308=VERTEX_POINT('',#1016);
#309=VERTEX_POINT('',#1018);
#310=VERTEX_POINT('',#1020);
#311=VERTEX_POINT('',#1024);
#312=VERTEX_POINT('',#1026);
#313=VERTEX_POINT('',#1030);
#314=VERTEX_POINT('',#1032);
#315=VERTEX_POINT('',#1039);
#316=VERTEX_POINT('',#1041);
#317=VERTEX_POINT('',#1045);
#318=VERTEX_POINT('',#1047);
#319=VERTEX_POINT('',#1051);
#320=VERTEX_POINT('',#1053);
#321=VERTEX_POINT('',#1057);
#322=VERTEX_POINT('',#1058);
#323=VERTEX_POINT('',#1060);
#324=VERTEX_POINT('',#1062);
#325=VERTEX_POINT('',#1066);
#326=VERTEX_POINT('',#1068);
#327=VERTEX_POINT('',#1072);
#328=VERTEX_POINT('',#1074);
#329=VERTEX_POINT('',#1078);
#330=VERTEX_POINT('',#1079);
#331=VERTEX_POINT('',#1081);
#332=VERTEX_POINT('',#1083);
#333=VERTEX_POINT('',#1087);
#334=VERTEX_POINT('',#1089);
#335=VERTEX_POINT('',#1093);
#336=VERTEX_POINT('',#1095);
#337=VERTEX_POINT('',#1099);
#338=VERTEX_POINT('',#1101);
#339=VERTEX_POINT('',#1108);
#340=VERTEX_POINT('',#1110);
#341=VERTEX_POINT('',#1114);
#342=VERTEX_POINT('',#1116);
#343=VERTEX_POINT('',#1123);
#344=VERTEX_POINT('',#1125);
#345=VERTEX_POINT('',#1129);
#346=VERTEX_POINT('',#1131);
#347=VERTEX_POINT('',#1135);
#348=VERTEX_POINT('',#1137);
#349=VERTEX_POINT('',#1141);
#350=VERTEX_POINT('',#1143);
#351=EDGE_CURVE('',#288,#288,#267,.T.);
#352=EDGE_CURVE('',#288,#289,#125,.T.);
#353=EDGE_CURVE('',#289,#289,#268,.T.);
#354=EDGE_CURVE('',#290,#290,#269,.T.);
#355=EDGE_CURVE('',#290,#291,#126,.T.);
#356=EDGE_CURVE('',#291,#291,#270,.T.);
#357=EDGE_CURVE('',#292,#292,#271,.T.);
#358=EDGE_CURVE('',#292,#293,#127,.T.);
#359=EDGE_CURVE('',#294,#293,#47,.T.);
#360=EDGE_CURVE('',#293,#294,#48,.T.);
#361=EDGE_CURVE('',#295,#295,#272,.T.);
#362=EDGE_CURVE('',#295,#296,#128,.T.);
#363=EDGE_CURVE('',#296,#296,#273,.T.);
#364=EDGE_CURVE('',#297,#297,#274,.T.);
#365=EDGE_CURVE('',#297,#298,#129,.T.);
#366=EDGE_CURVE('',#298,#298,#275,.T.);
#367=EDGE_CURVE('',#299,#300,#130,.T.);
#368=EDGE_CURVE('',#299,#301,#131,.T.);
#369=EDGE_CURVE('',#301,#302,#132,.T.);
#370=EDGE_CURVE('',#300,#302,#133,.T.);
#371=EDGE_CURVE('',#303,#299,#276,.T.);
#372=EDGE_CURVE('',#303,#304,#134,.T.);
#373=EDGE_CURVE('',#304,#301,#277,.T.);
#374=EDGE_CURVE('',#305,#303,#135,.T.);
#375=EDGE_CURVE('',#306,#305,#136,.T.);
#376=EDGE_CURVE('',#306,#304,#137,.T.);
#377=EDGE_CURVE('',#307,#308,#138,.T.);
#378=EDGE_CURVE('',#307,#309,#139,.T.);
#379=EDGE_CURVE('',#309,#310,#140,.T.);
#380=EDGE_CURVE('',#308,#310,#141,.T.);
#381=EDGE_CURVE('',#311,#307,#278,.T.);
#382=EDGE_CURVE('',#311,#312,#142,.T.);
#383=EDGE_CURVE('',#312,#309,#279,.T.);
#384=EDGE_CURVE('',#313,#311,#143,.T.);
#385=EDGE_CURVE('',#314,#313,#144,.T.);
#386=EDGE_CURVE('',#314,#312,#145,.T.);
#387=EDGE_CURVE('',#302,#314,#146,.T.);
#388=EDGE_CURVE('',#310,#306,#147,.T.);
#389=EDGE_CURVE('',#315,#300,#148,.T.);
#390=EDGE_CURVE('',#315,#316,#149,.T.);
#391=EDGE_CURVE('',#316,#305,#150,.T.);
#392=EDGE_CURVE('',#308,#317,#151,.T.);
#393=EDGE_CURVE('',#318,#317,#152,.T.);
#394=EDGE_CURVE('',#313,#318,#153,.T.);
#395=EDGE_CURVE('',#319,#316,#154,.T.);
#396=EDGE_CURVE('',#319,#320,#155,.T.);
#397=EDGE_CURVE('',#317,#320,#156,.T.);
#398=EDGE_CURVE('',#321,#322,#157,.T.);
#399=EDGE_CURVE('',#321,#323,#158,.T.);
#400=EDGE_CURVE('',#324,#323,#159,.T.);
#401=EDGE_CURVE('',#322,#324,#160,.T.);
#402=EDGE_CURVE('',#323,#325,#161,.T.);
#403=EDGE_CURVE('',#325,#326,#162,.T.);
#404=EDGE_CURVE('',#326,#324,#163,.T.);
#405=EDGE_CURVE('',#327,#322,#164,.T.);
#406=EDGE_CURVE('',#327,#328,#165,.T.);
#407=EDGE_CURVE('',#328,#321,#166,.T.);
#408=EDGE_CURVE('',#329,#330,#280,.T.);
#409=EDGE_CURVE('',#329,#331,#167,.T.);
#410=EDGE_CURVE('',#332,#331,#281,.T.);
#411=EDGE_CURVE('',#330,#332,#168,.T.);
#412=EDGE_CURVE('',#330,#333,#169,.T.);
#413=EDGE_CURVE('',#334,#332,#170,.T.);
#414=EDGE_CURVE('',#333,#334,#171,.T.);
#415=EDGE_CURVE('',#333,#335,#172,.T.);
#416=EDGE_CURVE('',#336,#334,#173,.T.);
#417=EDGE_CURVE('',#335,#336,#174,.T.);
#418=EDGE_CURVE('',#335,#337,#175,.T.);
#419=EDGE_CURVE('',#338,#336,#176,.T.);
#420=EDGE_CURVE('',#337,#338,#177,.T.);
#421=EDGE_CURVE('',#319,#337,#282,.T.);
#422=EDGE_CURVE('',#320,#338,#283,.T.);
#423=EDGE_CURVE('',#339,#318,#178,.T.);
#424=EDGE_CURVE('',#340,#339,#179,.T.);
#425=EDGE_CURVE('',#340,#315,#180,.T.);
#426=EDGE_CURVE('',#341,#340,#284,.T.);
#427=EDGE_CURVE('',#342,#339,#285,.T.);
#428=EDGE_CURVE('',#341,#342,#181,.T.);
#429=EDGE_CURVE('',#341,#328,#182,.T.);
#430=EDGE_CURVE('',#342,#325,#183,.T.);
#431=EDGE_CURVE('',#343,#327,#184,.T.);
#432=EDGE_CURVE('',#344,#326,#185,.T.);
#433=EDGE_CURVE('',#343,#344,#186,.T.);
#434=EDGE_CURVE('',#345,#343,#286,.T.);
#435=EDGE_CURVE('',#346,#344,#287,.T.);
#436=EDGE_CURVE('',#345,#346,#187,.T.);
#437=EDGE_CURVE('',#347,#345,#188,.T.);
#438=EDGE_CURVE('',#348,#346,#189,.T.);
#439=EDGE_CURVE('',#347,#348,#190,.T.);
#440=EDGE_CURVE('',#349,#347,#191,.T.);
#441=EDGE_CURVE('',#350,#348,#192,.T.);
#442=EDGE_CURVE('',#349,#350,#193,.T.);
#443=EDGE_CURVE('',#329,#349,#194,.T.);
#444=EDGE_CURVE('',#331,#350,#195,.T.);
#445=ORIENTED_EDGE('',*,*,#351,.F.);
#446=ORIENTED_EDGE('',*,*,#352,.T.);
#447=ORIENTED_EDGE('',*,*,#353,.F.);
#448=ORIENTED_EDGE('',*,*,#352,.F.);
#449=ORIENTED_EDGE('',*,*,#354,.F.);
#450=ORIENTED_EDGE('',*,*,#355,.T.);
#451=ORIENTED_EDGE('',*,*,#356,.F.);
#452=ORIENTED_EDGE('',*,*,#355,.F.);
#453=ORIENTED_EDGE('',*,*,#357,.F.);
#454=ORIENTED_EDGE('',*,*,#358,.T.);
#455=ORIENTED_EDGE('',*,*,#359,.F.);
#456=ORIENTED_EDGE('',*,*,#360,.F.);
#457=ORIENTED_EDGE('',*,*,#358,.F.);
#458=ORIENTED_EDGE('',*,*,#361,.F.);
#459=ORIENTED_EDGE('',*,*,#362,.T.);
#460=ORIENTED_EDGE('',*,*,#363,.F.);
#461=ORIENTED_EDGE('',*,*,#362,.F.);
#462=ORIENTED_EDGE('',*,*,#364,.F.);
#463=ORIENTED_EDGE('',*,*,#365,.T.);
#464=ORIENTED_EDGE('',*,*,#366,.F.);
#465=ORIENTED_EDGE('',*,*,#365,.F.);
#466=ORIENTED_EDGE('',*,*,#367,.F.);
#467=ORIENTED_EDGE('',*,*,#368,.T.);
#468=ORIENTED_EDGE('',*,*,#369,.T.);
#469=ORIENTED_EDGE('',*,*,#370,.F.);
#470=ORIENTED_EDGE('',*,*,#371,.F.);
#471=ORIENTED_EDGE('',*,*,#372,.T.);
#472=ORIENTED_EDGE('',*,*,#373,.T.);
#473=ORIENTED_EDGE('',*,*,#368,.F.);
#474=ORIENTED_EDGE('',*,*,#374,.F.);
#475=ORIENTED_EDGE('',*,*,#375,.F.);
#476=ORIENTED_EDGE('',*,*,#376,.T.);
#477=ORIENTED_EDGE('',*,*,#372,.F.);
#478=ORIENTED_EDGE('',*,*,#377,.F.);
#479=ORIENTED_EDGE('',*,*,#378,.T.);
#480=ORIENTED_EDGE('',*,*,#379,.T.);
#481=ORIENTED_EDGE('',*,*,#380,.F.);
#482=ORIENTED_EDGE('',*,*,#381,.F.);
#483=ORIENTED_EDGE('',*,*,#382,.T.);
#484=ORIENTED_EDGE('',*,*,#383,.T.);
#485=ORIENTED_EDGE('',*,*,#378,.F.);
#486=ORIENTED_EDGE('',*,*,#384,.F.);
#487=ORIENTED_EDGE('',*,*,#385,.F.);
#488=ORIENTED_EDGE('',*,*,#386,.T.);
#489=ORIENTED_EDGE('',*,*,#382,.F.);
#490=ORIENTED_EDGE('',*,*,#386,.F.);
#491=ORIENTED_EDGE('',*,*,#387,.F.);
#492=ORIENTED_EDGE('',*,*,#369,.F.);
#493=ORIENTED_EDGE('',*,*,#373,.F.);
#494=ORIENTED_EDGE('',*,*,#376,.F.);
#495=ORIENTED_EDGE('',*,*,#388,.F.);
#496=ORIENTED_EDGE('',*,*,#379,.F.);
#497=ORIENTED_EDGE('',*,*,#383,.F.);
#498=ORIENTED_EDGE('',*,*,#367,.T.);
#499=ORIENTED_EDGE('',*,*,#389,.F.);
#500=ORIENTED_EDGE('',*,*,#390,.T.);
#501=ORIENTED_EDGE('',*,*,#391,.T.);
#502=ORIENTED_EDGE('',*,*,#374,.T.);
#503=ORIENTED_EDGE('',*,*,#371,.T.);
#504=ORIENTED_EDGE('',*,*,#384,.T.);
#505=ORIENTED_EDGE('',*,*,#381,.T.);
#506=ORIENTED_EDGE('',*,*,#377,.T.);
#507=ORIENTED_EDGE('',*,*,#392,.T.);
#508=ORIENTED_EDGE('',*,*,#393,.F.);
#509=ORIENTED_EDGE('',*,*,#394,.F.);
#510=ORIENTED_EDGE('',*,*,#380,.T.);
#511=ORIENTED_EDGE('',*,*,#388,.T.);
#512=ORIENTED_EDGE('',*,*,#375,.T.);
#513=ORIENTED_EDGE('',*,*,#391,.F.);
#514=ORIENTED_EDGE('',*,*,#395,.F.);
#515=ORIENTED_EDGE('',*,*,#396,.T.);
#516=ORIENTED_EDGE('',*,*,#397,.F.);
#517=ORIENTED_EDGE('',*,*,#392,.F.);
#518=ORIENTED_EDGE('',*,*,#398,.F.);
#519=ORIENTED_EDGE('',*,*,#399,.T.);
#520=ORIENTED_EDGE('',*,*,#400,.F.);
#521=ORIENTED_EDGE('',*,*,#401,.F.);
#522=ORIENTED_EDGE('',*,*,#361,.T.);
#523=ORIENTED_EDGE('',*,*,#364,.T.);
#524=ORIENTED_EDGE('',*,*,#400,.T.);
#525=ORIENTED_EDGE('',*,*,#402,.T.);
#526=ORIENTED_EDGE('',*,*,#403,.T.);
#527=ORIENTED_EDGE('',*,*,#404,.T.);
#528=ORIENTED_EDGE('',*,*,#398,.T.);
#529=ORIENTED_EDGE('',*,*,#405,.F.);
#530=ORIENTED_EDGE('',*,*,#406,.T.);
#531=ORIENTED_EDGE('',*,*,#407,.T.);
#532=ORIENTED_EDGE('',*,*,#357,.T.);
#533=ORIENTED_EDGE('',*,*,#408,.F.);
#534=ORIENTED_EDGE('',*,*,#409,.T.);
#535=ORIENTED_EDGE('',*,*,#410,.F.);
#536=ORIENTED_EDGE('',*,*,#411,.F.);
#537=ORIENTED_EDGE('',*,*,#359,.T.);
#538=ORIENTED_EDGE('',*,*,#360,.T.);
#539=ORIENTED_EDGE('',*,*,#412,.F.);
#540=ORIENTED_EDGE('',*,*,#411,.T.);
#541=ORIENTED_EDGE('',*,*,#413,.F.);
#542=ORIENTED_EDGE('',*,*,#414,.F.);
#543=ORIENTED_EDGE('',*,*,#354,.T.);
#544=ORIENTED_EDGE('',*,*,#415,.F.);
#545=ORIENTED_EDGE('',*,*,#414,.T.);
#546=ORIENTED_EDGE('',*,*,#416,.F.);
#547=ORIENTED_EDGE('',*,*,#417,.F.);
#548=ORIENTED_EDGE('',*,*,#418,.F.);
#549=ORIENTED_EDGE('',*,*,#417,.T.);
#550=ORIENTED_EDGE('',*,*,#419,.F.);
#551=ORIENTED_EDGE('',*,*,#420,.F.);
#552=ORIENTED_EDGE('',*,*,#356,.T.);
#553=ORIENTED_EDGE('',*,*,#421,.T.);
#554=ORIENTED_EDGE('',*,*,#420,.T.);
#555=ORIENTED_EDGE('',*,*,#422,.F.);
#556=ORIENTED_EDGE('',*,*,#396,.F.);
#557=ORIENTED_EDGE('',*,*,#385,.T.);
#558=ORIENTED_EDGE('',*,*,#394,.T.);
#559=ORIENTED_EDGE('',*,*,#423,.F.);
#560=ORIENTED_EDGE('',*,*,#424,.F.);
#561=ORIENTED_EDGE('',*,*,#425,.T.);
#562=ORIENTED_EDGE('',*,*,#389,.T.);
#563=ORIENTED_EDGE('',*,*,#370,.T.);
#564=ORIENTED_EDGE('',*,*,#387,.T.);
#565=ORIENTED_EDGE('',*,*,#426,.T.);
#566=ORIENTED_EDGE('',*,*,#424,.T.);
#567=ORIENTED_EDGE('',*,*,#427,.F.);
#568=ORIENTED_EDGE('',*,*,#428,.F.);
#569=ORIENTED_EDGE('',*,*,#429,.F.);
#570=ORIENTED_EDGE('',*,*,#428,.T.);
#571=ORIENTED_EDGE('',*,*,#430,.T.);
#572=ORIENTED_EDGE('',*,*,#402,.F.);
#573=ORIENTED_EDGE('',*,*,#399,.F.);
#574=ORIENTED_EDGE('',*,*,#407,.F.);
#575=ORIENTED_EDGE('',*,*,#431,.T.);
#576=ORIENTED_EDGE('',*,*,#405,.T.);
#577=ORIENTED_EDGE('',*,*,#401,.T.);
#578=ORIENTED_EDGE('',*,*,#404,.F.);
#579=ORIENTED_EDGE('',*,*,#432,.F.);
#580=ORIENTED_EDGE('',*,*,#433,.F.);
#581=ORIENTED_EDGE('',*,*,#434,.T.);
#582=ORIENTED_EDGE('',*,*,#433,.T.);
#583=ORIENTED_EDGE('',*,*,#435,.F.);
#584=ORIENTED_EDGE('',*,*,#436,.F.);
#585=ORIENTED_EDGE('',*,*,#437,.T.);
#586=ORIENTED_EDGE('',*,*,#436,.T.);
#587=ORIENTED_EDGE('',*,*,#438,.F.);
#588=ORIENTED_EDGE('',*,*,#439,.F.);
#589=ORIENTED_EDGE('',*,*,#351,.T.);
#590=ORIENTED_EDGE('',*,*,#440,.T.);
#591=ORIENTED_EDGE('',*,*,#439,.T.);
#592=ORIENTED_EDGE('',*,*,#441,.F.);
#593=ORIENTED_EDGE('',*,*,#442,.F.);
#594=ORIENTED_EDGE('',*,*,#443,.T.);
#595=ORIENTED_EDGE('',*,*,#442,.T.);
#596=ORIENTED_EDGE('',*,*,#444,.F.);
#597=ORIENTED_EDGE('',*,*,#409,.F.);
#598=ORIENTED_EDGE('',*,*,#353,.T.);
#599=ORIENTED_EDGE('',*,*,#444,.T.);
#600=ORIENTED_EDGE('',*,*,#441,.T.);
#601=ORIENTED_EDGE('',*,*,#438,.T.);
#602=ORIENTED_EDGE('',*,*,#435,.T.);
#603=ORIENTED_EDGE('',*,*,#432,.T.);
#604=ORIENTED_EDGE('',*,*,#403,.F.);
#605=ORIENTED_EDGE('',*,*,#430,.F.);
#606=ORIENTED_EDGE('',*,*,#427,.T.);
#607=ORIENTED_EDGE('',*,*,#423,.T.);
#608=ORIENTED_EDGE('',*,*,#393,.T.);
#609=ORIENTED_EDGE('',*,*,#397,.T.);
#610=ORIENTED_EDGE('',*,*,#422,.T.);
#611=ORIENTED_EDGE('',*,*,#419,.T.);
#612=ORIENTED_EDGE('',*,*,#416,.T.);
#613=ORIENTED_EDGE('',*,*,#413,.T.);
#614=ORIENTED_EDGE('',*,*,#410,.T.);
#615=ORIENTED_EDGE('',*,*,#363,.T.);
#616=ORIENTED_EDGE('',*,*,#366,.T.);
#617=ORIENTED_EDGE('',*,*,#443,.F.);
#618=ORIENTED_EDGE('',*,*,#408,.T.);
#619=ORIENTED_EDGE('',*,*,#412,.T.);
#620=ORIENTED_EDGE('',*,*,#415,.T.);
#621=ORIENTED_EDGE('',*,*,#418,.T.);
#622=ORIENTED_EDGE('',*,*,#421,.F.);
#623=ORIENTED_EDGE('',*,*,#395,.T.);
#624=ORIENTED_EDGE('',*,*,#390,.F.);
#625=ORIENTED_EDGE('',*,*,#425,.F.);
#626=ORIENTED_EDGE('',*,*,#426,.F.);
#627=ORIENTED_EDGE('',*,*,#429,.T.);
#628=ORIENTED_EDGE('',*,*,#406,.F.);
#629=ORIENTED_EDGE('',*,*,#431,.F.);
#630=ORIENTED_EDGE('',*,*,#434,.F.);
#631=ORIENTED_EDGE('',*,*,#437,.F.);
#632=ORIENTED_EDGE('',*,*,#440,.F.);
#633=CYLINDRICAL_SURFACE('',#691,1.7);
#634=CYLINDRICAL_SURFACE('',#694,1.7);
#635=CYLINDRICAL_SURFACE('',#697,3.45);
#636=CYLINDRICAL_SURFACE('',#699,1.6);
#637=CYLINDRICAL_SURFACE('',#702,1.6);
#638=CYLINDRICAL_SURFACE('',#706,5.25);
#639=CYLINDRICAL_SURFACE('',#711,5.25);
#640=CYLINDRICAL_SURFACE('',#722,12.75);
#641=CYLINDRICAL_SURFACE('',#728,16.75);
#642=CYLINDRICAL_SURFACE('',#732,16.75);
#643=CYLINDRICAL_SURFACE('',#737,16.75);
#644=ADVANCED_FACE('',(#49),#633,.F.);
#645=ADVANCED_FACE('',(#50),#634,.F.);
#646=ADVANCED_FACE('',(#51),#635,.F.);
#647=ADVANCED_FACE('',(#52),#636,.F.);
#648=ADVANCED_FACE('',(#53),#637,.F.);
#649=ADVANCED_FACE('',(#54),#25,.F.);
#650=ADVANCED_FACE('',(#55),#638,.F.);
#651=ADVANCED_FACE('',(#56),#26,.F.);
#652=ADVANCED_FACE('',(#57),#27,.F.);
#653=ADVANCED_FACE('',(#58),#639,.F.);
#654=ADVANCED_FACE('',(#59),#28,.F.);
#655=ADVANCED_FACE('',(#60),#29,.T.);
#656=ADVANCED_FACE('',(#61),#30,.T.);
#657=ADVANCED_FACE('',(#62),#31,.T.);
#658=ADVANCED_FACE('',(#63),#32,.T.);
#659=ADVANCED_FACE('',(#64,#15,#16),#33,.T.);
#660=ADVANCED_FACE('',(#65),#34,.T.);
#661=ADVANCED_FACE('',(#66,#17),#35,.T.);
#662=ADVANCED_FACE('',(#67,#18),#640,.F.);
#663=ADVANCED_FACE('',(#68,#19),#36,.T.);
#664=ADVANCED_FACE('',(#69),#37,.T.);
#665=ADVANCED_FACE('',(#70,#20),#38,.T.);
#666=ADVANCED_FACE('',(#71),#641,.T.);
#667=ADVANCED_FACE('',(#72),#39,.T.);
#668=ADVANCED_FACE('',(#73),#642,.T.);
#669=ADVANCED_FACE('',(#74),#40,.T.);
#670=ADVANCED_FACE('',(#75),#41,.T.);
#671=ADVANCED_FACE('',(#76),#643,.T.);
#672=ADVANCED_FACE('',(#77,#21),#42,.T.);
#673=ADVANCED_FACE('',(#78),#43,.T.);
#674=ADVANCED_FACE('',(#79,#22),#44,.T.);
#675=ADVANCED_FACE('',(#80,#23,#24),#45,.T.);
#676=ADVANCED_FACE('',(#81),#46,.F.);
#677=CLOSED_SHELL('',(#644,#645,#646,#647,#648,#649,#650,#651,#652,#653,
#654,#655,#656,#657,#658,#659,#660,#661,#662,#663,#664,#665,#666,#667,#668,
#669,#670,#671,#672,#673,#674,#675,#676));
#678=DERIVED_UNIT_ELEMENT(#680,1.);
#679=DERIVED_UNIT_ELEMENT(#1156,-3.);
#680=(
MASS_UNIT()
NAMED_UNIT(*)
SI_UNIT(.KILO.,.GRAM.)
);
#681=DERIVED_UNIT((#678,#679));
#682=MEASURE_REPRESENTATION_ITEM('density measure',
POSITIVE_RATIO_MEASURE(7850.),#681);
#683=PROPERTY_DEFINITION_REPRESENTATION(#688,#685);
#684=PROPERTY_DEFINITION_REPRESENTATION(#689,#686);
#685=REPRESENTATION('material name',(#687),#1153);
#686=REPRESENTATION('density',(#682),#1153);
#687=DESCRIPTIVE_REPRESENTATION_ITEM('Steel','Steel');
#688=PROPERTY_DEFINITION('material property','material name',#1163);
#689=PROPERTY_DEFINITION('material property','density of part',#1163);
#690=AXIS2_PLACEMENT_3D('',#926,#745,#746);
#691=AXIS2_PLACEMENT_3D('',#927,#747,#748);
#692=AXIS2_PLACEMENT_3D('',#929,#749,#750);
#693=AXIS2_PLACEMENT_3D('',#932,#752,#753);
#694=AXIS2_PLACEMENT_3D('',#933,#754,#755);
#695=AXIS2_PLACEMENT_3D('',#935,#756,#757);
#696=AXIS2_PLACEMENT_3D('',#938,#759,#760);
#697=AXIS2_PLACEMENT_3D('',#939,#761,#762);
#698=AXIS2_PLACEMENT_3D('',#941,#763,#764);
#699=AXIS2_PLACEMENT_3D('',#981,#766,#767);
#700=AXIS2_PLACEMENT_3D('',#983,#768,#769);
#701=AXIS2_PLACEMENT_3D('',#986,#771,#772);
#702=AXIS2_PLACEMENT_3D('',#987,#773,#774);
#703=AXIS2_PLACEMENT_3D('',#989,#775,#776);
#704=AXIS2_PLACEMENT_3D('',#992,#778,#779);
#705=AXIS2_PLACEMENT_3D('',#993,#780,#781);
#706=AXIS2_PLACEMENT_3D('',#1002,#786,#787);
#707=AXIS2_PLACEMENT_3D('',#1004,#788,#789);
#708=AXIS2_PLACEMENT_3D('',#1007,#791,#792);
#709=AXIS2_PLACEMENT_3D('',#1008,#793,#794);
#710=AXIS2_PLACEMENT_3D('',#1014,#798,#799);
#711=AXIS2_PLACEMENT_3D('',#1023,#804,#805);
#712=AXIS2_PLACEMENT_3D('',#1025,#806,#807);
#713=AXIS2_PLACEMENT_3D('',#1028,#809,#810);
#714=AXIS2_PLACEMENT_3D('',#1029,#811,#812);
#715=AXIS2_PLACEMENT_3D('',#1035,#816,#817);
#716=AXIS2_PLACEMENT_3D('',#1038,#820,#821);
#717=AXIS2_PLACEMENT_3D('',#1044,#825,#826);
#718=AXIS2_PLACEMENT_3D('',#1050,#830,#831);
#719=AXIS2_PLACEMENT_3D('',#1056,#835,#836);
#720=AXIS2_PLACEMENT_3D('',#1065,#841,#842);
#721=AXIS2_PLACEMENT_3D('',#1071,#846,#847);
#722=AXIS2_PLACEMENT_3D('',#1077,#851,#852);
#723=AXIS2_PLACEMENT_3D('',#1080,#853,#854);
#724=AXIS2_PLACEMENT_3D('',#1084,#856,#857);
#725=AXIS2_PLACEMENT_3D('',#1086,#859,#860);
#726=AXIS2_PLACEMENT_3D('',#1092,#864,#865);
#727=AXIS2_PLACEMENT_3D('',#1098,#869,#870);
#728=AXIS2_PLACEMENT_3D('',#1104,#874,#875);
#729=AXIS2_PLACEMENT_3D('',#1105,#876,#877);
#730=AXIS2_PLACEMENT_3D('',#1106,#878,#879);
#731=AXIS2_PLACEMENT_3D('',#1107,#880,#881);
#732=AXIS2_PLACEMENT_3D('',#1113,#885,#886);
#733=AXIS2_PLACEMENT_3D('',#1115,#887,#888);
#734=AXIS2_PLACEMENT_3D('',#1117,#889,#890);
#735=AXIS2_PLACEMENT_3D('',#1119,#892,#893);
#736=AXIS2_PLACEMENT_3D('',#1122,#896,#897);
#737=AXIS2_PLACEMENT_3D('',#1128,#901,#902);
#738=AXIS2_PLACEMENT_3D('',#1130,#903,#904);
#739=AXIS2_PLACEMENT_3D('',#1132,#905,#906);
#740=AXIS2_PLACEMENT_3D('',#1134,#908,#909);
#741=AXIS2_PLACEMENT_3D('',#1140,#913,#914);
#742=AXIS2_PLACEMENT_3D('',#1146,#918,#919);
#743=AXIS2_PLACEMENT_3D('',#1149,#922,#923);
#744=AXIS2_PLACEMENT_3D('',#1150,#924,#925);
#745=DIRECTION('axis',(0.,0.,1.));
#746=DIRECTION('refdir',(1.,0.,0.));
#747=DIRECTION('center_axis',(0.,0.,-1.));
#748=DIRECTION('ref_axis',(-1.,0.,0.));
#749=DIRECTION('center_axis',(1.03399496578833E-16,0.,-1.));
#750=DIRECTION('ref_axis',(-1.,0.,0.));
#751=DIRECTION('',(0.,0.,-1.));
#752=DIRECTION('center_axis',(0.,0.,1.));
#753=DIRECTION('ref_axis',(-1.,0.,0.));
#754=DIRECTION('center_axis',(0.,0.,-1.));
#755=DIRECTION('ref_axis',(-1.,0.,0.));
#756=DIRECTION('center_axis',(0.,0.,-1.));
#757=DIRECTION('ref_axis',(-1.,0.,0.));
#758=DIRECTION('',(0.,0.,-1.));
#759=DIRECTION('center_axis',(1.03399496578833E-16,0.,1.));
#760=DIRECTION('ref_axis',(-1.,0.,0.));
#761=DIRECTION('center_axis',(0.,0.,-1.));
#762=DIRECTION('ref_axis',(-1.,0.,0.));
#763=DIRECTION('center_axis',(0.,0.,-1.));
#764=DIRECTION('ref_axis',(-1.,0.,0.));
#765=DIRECTION('',(0.,0.,-1.));
#766=DIRECTION('center_axis',(0.,1.,0.));
#767=DIRECTION('ref_axis',(1.,0.,0.));
#768=DIRECTION('center_axis',(0.,1.,0.));
#769=DIRECTION('ref_axis',(1.,0.,0.));
#770=DIRECTION('',(0.,1.,0.));
#771=DIRECTION('center_axis',(0.,-1.,0.));
#772=DIRECTION('ref_axis',(1.,0.,0.));
#773=DIRECTION('center_axis',(0.,1.,0.));
#774=DIRECTION('ref_axis',(1.,0.,0.));
#775=DIRECTION('center_axis',(0.,1.,0.));
#776=DIRECTION('ref_axis',(1.,0.,0.));
#777=DIRECTION('',(0.,1.,0.));
#778=DIRECTION('center_axis',(0.,-1.,0.));
#779=DIRECTION('ref_axis',(1.,0.,0.));
#780=DIRECTION('center_axis',(0.,-1.,0.));
#781=DIRECTION('ref_axis',(0.,0.,1.));
#782=DIRECTION('',(0.,0.,1.));
#783=DIRECTION('',(-1.,0.,0.));
#784=DIRECTION('',(0.,0.,1.));
#785=DIRECTION('',(-1.,0.,0.));
#786=DIRECTION('center_axis',(-1.,0.,0.));
#787=DIRECTION('ref_axis',(0.,-1.,-1.22464679914735E-16));
#788=DIRECTION('center_axis',(-1.,0.,0.));
#789=DIRECTION('ref_axis',(0.,1.,0.));
#790=DIRECTION('',(-1.,0.,0.));
#791=DIRECTION('center_axis',(-1.,0.,0.));
#792=DIRECTION('ref_axis',(0.,1.,0.));
#793=DIRECTION('center_axis',(0.,-1.,0.));
#794=DIRECTION('ref_axis',(0.,0.,1.));
#795=DIRECTION('',(0.,0.,1.));
#796=DIRECTION('',(1.,0.,0.));
#797=DIRECTION('',(0.,0.,1.));
#798=DIRECTION('center_axis',(0.,1.,0.));
#799=DIRECTION('ref_axis',(0.,0.,-1.));
#800=DIRECTION('',(0.,0.,-1.));
#801=DIRECTION('',(-1.,0.,0.));
#802=DIRECTION('',(0.,0.,-1.));
#803=DIRECTION('',(-1.,0.,0.));
#804=DIRECTION('center_axis',(-1.,0.,0.));
#805=DIRECTION('ref_axis',(0.,1.,0.));
#806=DIRECTION('center_axis',(-1.,0.,0.));
#807=DIRECTION('ref_axis',(0.,1.,0.));
#808=DIRECTION('',(-1.,0.,0.));
#809=DIRECTION('center_axis',(-1.,0.,0.));
#810=DIRECTION('ref_axis',(0.,1.,0.));
#811=DIRECTION('center_axis',(0.,1.,0.));
#812=DIRECTION('ref_axis',(0.,0.,-1.));
#813=DIRECTION('',(0.,0.,-1.));
#814=DIRECTION('',(1.,0.,0.));
#815=DIRECTION('',(0.,0.,-1.));
#816=DIRECTION('center_axis',(1.,0.,0.));
#817=DIRECTION('ref_axis',(0.,1.,0.));
#818=DIRECTION('',(0.,1.,0.));
#819=DIRECTION('',(0.,-1.,0.));
#820=DIRECTION('center_axis',(1.,0.,0.));
#821=DIRECTION('ref_axis',(0.,0.,-1.));
#822=DIRECTION('',(0.,1.,0.));
#823=DIRECTION('',(0.,0.,-1.));
#824=DIRECTION('',(0.,1.,0.));
#825=DIRECTION('center_axis',(1.,0.,0.));
#826=DIRECTION('ref_axis',(0.,0.,-1.));
#827=DIRECTION('',(0.,1.,0.));
#828=DIRECTION('',(0.,0.,-1.));
#829=DIRECTION('',(0.,1.,0.));
#830=DIRECTION('center_axis',(0.,0.,-1.));
#831=DIRECTION('ref_axis',(-1.,0.,0.));
#832=DIRECTION('',(1.,0.,0.));
#833=DIRECTION('',(0.,1.,0.));
#834=DIRECTION('',(-1.,0.,0.));
#835=DIRECTION('center_axis',(0.,-1.,0.));
#836=DIRECTION('ref_axis',(1.,0.,0.));
#837=DIRECTION('',(-1.,0.,0.));
#838=DIRECTION('',(0.,0.,1.));
#839=DIRECTION('',(1.,0.,0.));
#840=DIRECTION('',(0.,0.,1.));
#841=DIRECTION('center_axis',(0.,0.,1.));
#842=DIRECTION('ref_axis',(1.,0.,0.));
#843=DIRECTION('',(0.,1.,0.));
#844=DIRECTION('',(-1.,0.,0.));
#845=DIRECTION('',(0.,-1.,0.));
#846=DIRECTION('center_axis',(0.,0.,1.));
#847=DIRECTION('ref_axis',(1.,0.,0.));
#848=DIRECTION('',(0.,1.,0.));
#849=DIRECTION('',(1.,0.,0.));
#850=DIRECTION('',(0.,1.,0.));
#851=DIRECTION('center_axis',(0.,1.,0.));
#852=DIRECTION('ref_axis',(1.,0.,-4.24497038827266E-16));
#853=DIRECTION('center_axis',(0.,1.,0.));
#854=DIRECTION('ref_axis',(-0.99627140326223,0.,0.0862745098039216));
#855=DIRECTION('',(0.,1.,0.));
#856=DIRECTION('center_axis',(0.,-1.,0.));
#857=DIRECTION('ref_axis',(-0.99627140326223,0.,0.0862745098039216));
#858=DIRECTION('',(0.,1.,0.));
#859=DIRECTION('center_axis',(0.,0.,1.));
#860=DIRECTION('ref_axis',(1.,0.,0.));
#861=DIRECTION('',(-1.,0.,0.));
#862=DIRECTION('',(1.,0.,0.));
#863=DIRECTION('',(0.,1.,0.));
#864=DIRECTION('center_axis',(-1.,0.,0.));
#865=DIRECTION('ref_axis',(0.,0.,1.));
#866=DIRECTION('',(0.,0.,-1.));
#867=DIRECTION('',(0.,0.,1.));
#868=DIRECTION('',(0.,1.,0.));
#869=DIRECTION('center_axis',(-1.03399496578833E-16,0.,-1.));
#870=DIRECTION('ref_axis',(-1.,0.,1.03399496578833E-16));
#871=DIRECTION('',(1.,0.,-1.03399496578833E-16));
#872=DIRECTION('',(-1.,0.,1.03399496578833E-16));
#873=DIRECTION('',(0.,1.,0.));
#874=DIRECTION('center_axis',(0.,1.,0.));
#875=DIRECTION('ref_axis',(-0.997841287712865,0.,0.0656716417910448));
#876=DIRECTION('center_axis',(0.,1.,0.));
#877=DIRECTION('ref_axis',(-0.997841287712865,0.,0.0656716417910448));
#878=DIRECTION('center_axis',(0.,1.,0.));
#879=DIRECTION('ref_axis',(-0.997841287712865,0.,0.0656716417910448));
#880=DIRECTION('center_axis',(0.,0.,1.));
#881=DIRECTION('ref_axis',(1.,0.,0.));
#882=DIRECTION('',(1.,0.,0.));
#883=DIRECTION('',(0.,1.,0.));
#884=DIRECTION('',(1.,0.,0.));
#885=DIRECTION('center_axis',(0.,1.,0.));
#886=DIRECTION('ref_axis',(-0.997841287712865,0.,0.0656716417910448));
#887=DIRECTION('center_axis',(0.,1.,0.));
#888=DIRECTION('ref_axis',(-0.997841287712865,0.,0.0656716417910448));
#889=DIRECTION('center_axis',(0.,1.,0.));
#890=DIRECTION('ref_axis',(-0.997841287712865,0.,0.0656716417910448));
#891=DIRECTION('',(0.,1.,0.));
#892=DIRECTION('center_axis',(1.,0.,0.));
#893=DIRECTION('ref_axis',(0.,0.,-1.));
#894=DIRECTION('',(0.,0.,1.));
#895=DIRECTION('',(0.,0.,1.));
#896=DIRECTION('center_axis',(-1.,0.,0.));
#897=DIRECTION('ref_axis',(0.,0.,1.));
#898=DIRECTION('',(0.,0.,1.));
#899=DIRECTION('',(0.,0.,1.));
#900=DIRECTION('',(0.,1.,0.));
#901=DIRECTION('center_axis',(0.,1.,0.));
#902=DIRECTION('ref_axis',(-0.997841287712865,0.,0.0656716417910448));
#903=DIRECTION('center_axis',(0.,1.,0.));
#904=DIRECTION('ref_axis',(-0.997841287712865,0.,0.0656716417910448));
#905=DIRECTION('center_axis',(0.,1.,0.));
#906=DIRECTION('ref_axis',(-0.997841287712865,0.,0.0656716417910448));
#907=DIRECTION('',(0.,1.,0.));
#908=DIRECTION('center_axis',(-1.03399496578833E-16,0.,1.));
#909=DIRECTION('ref_axis',(1.,0.,1.03399496578833E-16));
#910=DIRECTION('',(1.,0.,1.03399496578833E-16));
#911=DIRECTION('',(1.,0.,1.03399496578833E-16));
#912=DIRECTION('',(0.,1.,0.));
#913=DIRECTION('center_axis',(-1.,0.,0.));
#914=DIRECTION('ref_axis',(0.,0.,1.));
#915=DIRECTION('',(0.,0.,1.));
#916=DIRECTION('',(0.,0.,1.));
#917=DIRECTION('',(0.,1.,0.));
#918=DIRECTION('center_axis',(0.,0.,-1.));
#919=DIRECTION('ref_axis',(-1.,0.,0.));
#920=DIRECTION('',(-1.,0.,0.));
#921=DIRECTION('',(-1.,0.,0.));
#922=DIRECTION('center_axis',(0.,1.,0.));
#923=DIRECTION('ref_axis',(1.,0.,0.));
#924=DIRECTION('center_axis',(0.,1.,0.));
#925=DIRECTION('ref_axis',(1.,0.,0.));
#926=CARTESIAN_POINT('',(0.,0.,0.));
#927=CARTESIAN_POINT('Origin',(-20.2000003874302,8.5,6.9));
#928=CARTESIAN_POINT('',(-18.5000003874302,8.5,6.9));
#929=CARTESIAN_POINT('Origin',(-20.2000003874302,8.5,6.9));
#930=CARTESIAN_POINT('',(-18.5000003874302,8.5,1.1));
#931=CARTESIAN_POINT('',(-18.5000003874302,8.5,6.9));
#932=CARTESIAN_POINT('Origin',(-20.2000003874302,8.5,1.1));
#933=CARTESIAN_POINT('Origin',(-20.2000003874302,8.5,6.9));
#934=CARTESIAN_POINT('',(-18.5000003874302,8.5,-1.1));
#935=CARTESIAN_POINT('Origin',(-20.2000003874302,8.5,-1.1));
#936=CARTESIAN_POINT('',(-18.5000003874302,8.5,-6.9));
#937=CARTESIAN_POINT('',(-18.5000003874302,8.5,6.9));
#938=CARTESIAN_POINT('Origin',(-20.2000003874302,8.5,-6.9));
#939=CARTESIAN_POINT('Origin',(0.,8.5,24.5));
#940=CARTESIAN_POINT('',(3.45,8.5,24.5));
#941=CARTESIAN_POINT('Origin',(0.,8.5,24.5));
#942=CARTESIAN_POINT('',(3.45,8.5,12.2743635272873));
#943=CARTESIAN_POINT('',(3.45,8.5,24.5));
#944=CARTESIAN_POINT('',(-3.45,8.49999999999994,12.2743635272873));
#945=CARTESIAN_POINT('Ctrl Pts',(-3.45,8.5,12.2743635272873));
#946=CARTESIAN_POINT('Ctrl Pts',(-3.45,8.06441774301531,12.2743635272873));
#947=CARTESIAN_POINT('Ctrl Pts',(-3.36250240008908,7.6013823549035,12.2999697416134));
#948=CARTESIAN_POINT('Ctrl Pts',(-3.00976632293702,6.7520743672442,12.3910041420056));
#949=CARTESIAN_POINT('Ctrl Pts',(-2.74463656845888,6.3655997782717,12.454963063372));
#950=CARTESIAN_POINT('Ctrl Pts',(-2.13445938771024,5.75542259752307,12.5739087181153));
#951=CARTESIAN_POINT('Ctrl Pts',(-1.7479603887484,5.49024682973647,12.6368297678265));
#952=CARTESIAN_POINT('Ctrl Pts',(-0.898565013530254,5.13747702314829,12.7254631745535));
#953=CARTESIAN_POINT('Ctrl Pts',(-0.435497792491254,5.05,12.75));
#954=CARTESIAN_POINT('Ctrl Pts',(0.435497792491253,5.05,12.75));
#955=CARTESIAN_POINT('Ctrl Pts',(0.898565013530253,5.13747702314829,12.7254631745535));
#956=CARTESIAN_POINT('Ctrl Pts',(1.74796038874839,5.49024682973647,12.6368297678265));
#957=CARTESIAN_POINT('Ctrl Pts',(2.13445938771024,5.75542259752307,12.5739087181153));
#958=CARTESIAN_POINT('Ctrl Pts',(2.74463656845888,6.3655997782717,12.454963063372));
#959=CARTESIAN_POINT('Ctrl Pts',(3.00976632293702,6.7520743672442,12.3910041420056));
#960=CARTESIAN_POINT('Ctrl Pts',(3.36250240008908,7.6013823549035,12.2999697416134));
#961=CARTESIAN_POINT('Ctrl Pts',(3.45,8.06441774301531,12.2743635272873));
#962=CARTESIAN_POINT('Ctrl Pts',(3.45,8.5,12.2743635272873));
#963=CARTESIAN_POINT('Ctrl Pts',(3.45,8.5,12.2743635272873));
#964=CARTESIAN_POINT('Ctrl Pts',(3.45,8.93558225698469,12.2743635272873));
#965=CARTESIAN_POINT('Ctrl Pts',(3.36250240008908,9.3986176450965,12.2999697416134));
#966=CARTESIAN_POINT('Ctrl Pts',(3.00976632293702,10.2479256327558,12.3910041420056));
#967=CARTESIAN_POINT('Ctrl Pts',(2.74463656845888,10.6344002217283,12.454963063372));
#968=CARTESIAN_POINT('Ctrl Pts',(2.13445938771024,11.2445774024769,12.5739087181153));
#969=CARTESIAN_POINT('Ctrl Pts',(1.7479603887484,11.5097531702635,12.6368297678265));
#970=CARTESIAN_POINT('Ctrl Pts',(0.898565013530255,11.8625229768517,12.7254631745535));
#971=CARTESIAN_POINT('Ctrl Pts',(0.435497792491254,11.95,12.75));
#972=CARTESIAN_POINT('Ctrl Pts',(-0.435497792491253,11.95,12.75));
#973=CARTESIAN_POINT('Ctrl Pts',(-0.898565013530254,11.8625229768517,12.7254631745535));
#974=CARTESIAN_POINT('Ctrl Pts',(-1.74796038874839,11.5097531702635,12.6368297678265));
#975=CARTESIAN_POINT('Ctrl Pts',(-2.13445938771024,11.2445774024769,12.5739087181153));
#976=CARTESIAN_POINT('Ctrl Pts',(-2.74463656845888,10.6344002217283,12.454963063372));
#977=CARTESIAN_POINT('Ctrl Pts',(-3.00976632293702,10.2479256327558,12.3910041420056));
#978=CARTESIAN_POINT('Ctrl Pts',(-3.36250240008908,9.3986176450965,12.2999697416134));
#979=CARTESIAN_POINT('Ctrl Pts',(-3.45,8.93558225698469,12.2743635272873));
#980=CARTESIAN_POINT('Ctrl Pts',(-3.45,8.5,12.2743635272873));
#981=CARTESIAN_POINT('Origin',(9.1,15.8,49.));
#982=CARTESIAN_POINT('',(7.5,15.8,49.));
#983=CARTESIAN_POINT('Origin',(9.1,15.8,49.));
#984=CARTESIAN_POINT('',(7.5,17.,49.));
#985=CARTESIAN_POINT('',(7.5,15.8,49.));
#986=CARTESIAN_POINT('Origin',(9.1,17.,49.));
#987=CARTESIAN_POINT('Origin',(-9.1,15.8,33.));
#988=CARTESIAN_POINT('',(-10.7,15.8,33.));
#989=CARTESIAN_POINT('Origin',(-9.1,15.8,33.));
#990=CARTESIAN_POINT('',(-10.7,17.,33.));
#991=CARTESIAN_POINT('',(-10.7,15.8,33.));
#992=CARTESIAN_POINT('Origin',(-9.1,17.,33.));
#993=CARTESIAN_POINT('Origin',(19.95,6.5,4.8541219597369));
#994=CARTESIAN_POINT('',(19.95,6.5,4.8541219597369));
#995=CARTESIAN_POINT('',(19.95,6.5,5.4));
#996=CARTESIAN_POINT('',(19.95,6.5,5.12706097986845));
#997=CARTESIAN_POINT('',(17.45,6.5,4.8541219597369));
#998=CARTESIAN_POINT('',(19.95,6.5,4.8541219597369));
#999=CARTESIAN_POINT('',(17.45,6.5,5.4));
#1000=CARTESIAN_POINT('',(17.45,6.5,4.8541219597369));
#1001=CARTESIAN_POINT('',(17.9028386083472,6.5,5.4));
#1002=CARTESIAN_POINT('Origin',(19.95,8.5,0.));
#1003=CARTESIAN_POINT('',(19.95,6.5,-4.8541219597369));
#1004=CARTESIAN_POINT('Origin',(19.95,8.5,0.));
#1005=CARTESIAN_POINT('',(17.45,6.5,-4.8541219597369));
#1006=CARTESIAN_POINT('',(19.95,6.5,-4.8541219597369));
#1007=CARTESIAN_POINT('Origin',(17.45,8.5,0.));
#1008=CARTESIAN_POINT('Origin',(19.95,6.5,-5.4));
#1009=CARTESIAN_POINT('',(19.95,6.5,-5.4));
#1010=CARTESIAN_POINT('',(19.95,6.5,0.));
#1011=CARTESIAN_POINT('',(17.45,6.5,-5.4));
#1012=CARTESIAN_POINT('',(19.95,6.5,-5.4));
#1013=CARTESIAN_POINT('',(17.45,6.5,-4.8541219597369));
#1014=CARTESIAN_POINT('Origin',(19.95,10.5,-4.8541219597369));
#1015=CARTESIAN_POINT('',(19.95,10.5,-4.8541219597369));
#1016=CARTESIAN_POINT('',(19.95,10.5,-5.4));
#1017=CARTESIAN_POINT('',(19.95,10.5,0.272939020131551));
#1018=CARTESIAN_POINT('',(17.45,10.5,-4.8541219597369));
#1019=CARTESIAN_POINT('',(19.95,10.5,-4.8541219597369));
#1020=CARTESIAN_POINT('',(17.45,10.5,-5.4));
#1021=CARTESIAN_POINT('',(17.45,10.5,-4.8541219597369));
#1022=CARTESIAN_POINT('',(19.95,10.5,-5.4));
#1023=CARTESIAN_POINT('Origin',(19.95,8.5,0.));
#1024=CARTESIAN_POINT('',(19.95,10.5,4.8541219597369));
#1025=CARTESIAN_POINT('Origin',(19.95,8.5,0.));
#1026=CARTESIAN_POINT('',(17.45,10.5,4.8541219597369));
#1027=CARTESIAN_POINT('',(19.95,10.5,4.8541219597369));
#1028=CARTESIAN_POINT('Origin',(17.45,8.5,0.));
#1029=CARTESIAN_POINT('Origin',(19.95,10.5,5.4));
#1030=CARTESIAN_POINT('',(19.95,10.5,5.4));
#1031=CARTESIAN_POINT('',(19.95,10.5,5.4));
#1032=CARTESIAN_POINT('',(17.45,10.5,5.4));
#1033=CARTESIAN_POINT('',(17.9028386083472,10.5,5.4));
#1034=CARTESIAN_POINT('',(17.45,10.5,4.8541219597369));
#1035=CARTESIAN_POINT('Origin',(17.45,8.5,0.));
#1036=CARTESIAN_POINT('',(17.45,4.25,5.4));
#1037=CARTESIAN_POINT('',(17.45,4.25,-5.4));
#1038=CARTESIAN_POINT('Origin',(19.95,0.,5.4));
#1039=CARTESIAN_POINT('',(19.95,0.,5.4));
#1040=CARTESIAN_POINT('',(19.95,0.,5.4));
#1041=CARTESIAN_POINT('',(19.95,0.,-5.4));
#1042=CARTESIAN_POINT('',(19.95,0.,5.4));
#1043=CARTESIAN_POINT('',(19.95,0.,-5.4));
#1044=CARTESIAN_POINT('Origin',(19.95,0.,5.4));
#1045=CARTESIAN_POINT('',(19.95,17.,-5.4));
#1046=CARTESIAN_POINT('',(19.95,0.,-5.4));
#1047=CARTESIAN_POINT('',(19.95,17.,5.4));
#1048=CARTESIAN_POINT('',(19.95,17.,5.4));
#1049=CARTESIAN_POINT('',(19.95,0.,5.4));
#1050=CARTESIAN_POINT('Origin',(19.95,0.,-5.4));
#1051=CARTESIAN_POINT('',(15.8556772166943,0.,-5.4));
#1052=CARTESIAN_POINT('',(15.8556772166943,0.,-5.4));
#1053=CARTESIAN_POINT('',(15.8556772166943,17.,-5.4));
#1054=CARTESIAN_POINT('',(15.8556772166943,0.,-5.4));
#1055=CARTESIAN_POINT('',(15.8556772166943,17.,-5.4));
#1056=CARTESIAN_POINT('Origin',(-12.7,15.8,24.5));
#1057=CARTESIAN_POINT('',(12.7,15.8,24.5));
#1058=CARTESIAN_POINT('',(-12.7,15.8,24.5));
#1059=CARTESIAN_POINT('',(-12.7,15.8,24.5));
#1060=CARTESIAN_POINT('',(12.7,15.8,53.35));
#1061=CARTESIAN_POINT('',(12.7,15.8,24.5));
#1062=CARTESIAN_POINT('',(-12.7,15.8,53.35));
#1063=CARTESIAN_POINT('',(12.7,15.8,53.35));
#1064=CARTESIAN_POINT('',(-12.7,15.8,24.5));
#1065=CARTESIAN_POINT('Origin',(0.,16.4,53.35));
#1066=CARTESIAN_POINT('',(12.7,17.,53.35));
#1067=CARTESIAN_POINT('',(12.7,17.,53.35));
#1068=CARTESIAN_POINT('',(-12.7,17.,53.35));
#1069=CARTESIAN_POINT('',(-12.7,17.,53.35));
#1070=CARTESIAN_POINT('',(-12.7,15.8,53.35));
#1071=CARTESIAN_POINT('Origin',(-12.7,0.,24.5));
#1072=CARTESIAN_POINT('',(-12.7,0.,24.5));
#1073=CARTESIAN_POINT('',(-12.7,0.,24.5));
#1074=CARTESIAN_POINT('',(12.7,0.,24.5));
#1075=CARTESIAN_POINT('',(-12.7,0.,24.5));
#1076=CARTESIAN_POINT('',(12.7,0.,24.5));
#1077=CARTESIAN_POINT('Origin',(0.,0.,0.));
#1078=CARTESIAN_POINT('',(-12.7024603915934,0.,1.1));
#1079=CARTESIAN_POINT('',(-12.7024603915934,0.,-1.09999999999999));
#1080=CARTESIAN_POINT('Origin',(0.,0.,0.));
#1081=CARTESIAN_POINT('',(-12.7024603915934,17.,1.1));
#1082=CARTESIAN_POINT('',(-12.7024603915934,0.,1.1));
#1083=CARTESIAN_POINT('',(-12.7024603915934,17.,-1.09999999999999));
#1084=CARTESIAN_POINT('Origin',(0.,17.,0.));
#1085=CARTESIAN_POINT('',(-12.7024603915934,0.,-1.09999999999999));
#1086=CARTESIAN_POINT('Origin',(-26.0000003874302,0.,-1.1));
#1087=CARTESIAN_POINT('',(-26.0000003874302,0.,-1.1));
#1088=CARTESIAN_POINT('',(-16.7138415691905,0.,-1.1));
#1089=CARTESIAN_POINT('',(-26.0000003874302,17.,-1.1));
#1090=CARTESIAN_POINT('',(-16.7138415691905,17.,-1.1));
#1091=CARTESIAN_POINT('',(-26.0000003874302,0.,-1.1));
#1092=CARTESIAN_POINT('Origin',(-26.0000003874302,0.,-6.9));
#1093=CARTESIAN_POINT('',(-26.0000003874302,0.,-6.9));
#1094=CARTESIAN_POINT('',(-26.0000003874302,0.,-1.1));
#1095=CARTESIAN_POINT('',(-26.0000003874302,17.,-6.9));
#1096=CARTESIAN_POINT('',(-26.0000003874302,17.,-1.1));
#1097=CARTESIAN_POINT('',(-26.0000003874302,0.,-6.9));
#1098=CARTESIAN_POINT('Origin',(-15.262781528935,0.,-6.9));
#1099=CARTESIAN_POINT('',(-15.262781528935,0.,-6.90000000000001));
#1100=CARTESIAN_POINT('',(-26.0000003874302,0.,-6.9));
#1101=CARTESIAN_POINT('',(-15.262781528935,17.,-6.90000000000001));
#1102=CARTESIAN_POINT('',(-26.0000003874302,17.,-6.9));
#1103=CARTESIAN_POINT('',(-15.262781528935,0.,-6.90000000000001));
#1104=CARTESIAN_POINT('Origin',(0.,0.,0.));
#1105=CARTESIAN_POINT('Origin',(0.,0.,0.));
#1106=CARTESIAN_POINT('Origin',(0.,17.,0.));
#1107=CARTESIAN_POINT('Origin',(15.8556772166943,0.,5.4));
#1108=CARTESIAN_POINT('',(15.8556772166943,17.,5.4));
#1109=CARTESIAN_POINT('',(15.8556772166943,17.,5.4));
#1110=CARTESIAN_POINT('',(15.8556772166943,0.,5.4));
#1111=CARTESIAN_POINT('',(15.8556772166943,0.,5.4));
#1112=CARTESIAN_POINT('',(15.8556772166943,0.,5.4));
#1113=CARTESIAN_POINT('Origin',(0.,0.,0.));
#1114=CARTESIAN_POINT('',(12.7,0.,10.9211949895604));
#1115=CARTESIAN_POINT('Origin',(0.,0.,0.));
#1116=CARTESIAN_POINT('',(12.7,17.,10.9211949895604));
#1117=CARTESIAN_POINT('Origin',(0.,17.,0.));
#1118=CARTESIAN_POINT('',(12.7,0.,10.9211949895604));
#1119=CARTESIAN_POINT('Origin',(12.7,0.,24.5));
#1120=CARTESIAN_POINT('',(12.7,0.,10.9211949895604));
#1121=CARTESIAN_POINT('',(12.7,17.,24.5));
#1122=CARTESIAN_POINT('Origin',(-12.7,0.,10.9211949895604));
#1123=CARTESIAN_POINT('',(-12.7,0.,10.9211949895604));
#1124=CARTESIAN_POINT('',(-12.7,0.,10.9211949895604));
#1125=CARTESIAN_POINT('',(-12.7,17.,10.9211949895604));
#1126=CARTESIAN_POINT('',(-12.7,17.,10.9211949895604));
#1127=CARTESIAN_POINT('',(-12.7,0.,10.9211949895604));
#1128=CARTESIAN_POINT('Origin',(0.,0.,0.));
#1129=CARTESIAN_POINT('',(-15.262781528935,0.,6.9));
#1130=CARTESIAN_POINT('Origin',(0.,0.,0.));
#1131=CARTESIAN_POINT('',(-15.262781528935,17.,6.9));
#1132=CARTESIAN_POINT('Origin',(0.,17.,0.));
#1133=CARTESIAN_POINT('',(-15.262781528935,0.,6.9));
#1134=CARTESIAN_POINT('Origin',(-26.0000003874302,0.,6.9));
#1135=CARTESIAN_POINT('',(-26.0000003874302,0.,6.9));
#1136=CARTESIAN_POINT('',(-26.0000003874302,0.,6.9));
#1137=CARTESIAN_POINT('',(-26.0000003874302,17.,6.9));
#1138=CARTESIAN_POINT('',(-26.0000003874302,17.,6.9));
#1139=CARTESIAN_POINT('',(-26.0000003874302,0.,6.9));
#1140=CARTESIAN_POINT('Origin',(-26.0000003874302,0.,1.1));
#1141=CARTESIAN_POINT('',(-26.0000003874302,0.,1.1));
#1142=CARTESIAN_POINT('',(-26.0000003874302,0.,1.1));
#1143=CARTESIAN_POINT('',(-26.0000003874302,17.,1.1));
#1144=CARTESIAN_POINT('',(-26.0000003874302,17.,1.1));
#1145=CARTESIAN_POINT('',(-26.0000003874302,0.,1.1));
#1146=CARTESIAN_POINT('Origin',(-12.7024603915934,0.,1.1));
#1147=CARTESIAN_POINT('',(-16.7138415691905,0.,1.1));
#1148=CARTESIAN_POINT('',(-16.7138415691905,17.,1.1));
#1149=CARTESIAN_POINT('Origin',(-3.02500019371509,17.,3.875));
#1150=CARTESIAN_POINT('Origin',(-3.02500019371509,0.,3.875));
#1151=UNCERTAINTY_MEASURE_WITH_UNIT(LENGTH_MEASURE(0.01),#1155,
'DISTANCE_ACCURACY_VALUE',
'Maximum model space distance between geometric entities at asserted c
onnectivities');
#1152=UNCERTAINTY_MEASURE_WITH_UNIT(LENGTH_MEASURE(0.01),#1155,
'DISTANCE_ACCURACY_VALUE',
'Maximum model space distance between geometric entities at asserted c
onnectivities');
#1153=(
GEOMETRIC_REPRESENTATION_CONTEXT(3)
GLOBAL_UNCERTAINTY_ASSIGNED_CONTEXT((#1151))
GLOBAL_UNIT_ASSIGNED_CONTEXT((#1155,#1157,#1158))
REPRESENTATION_CONTEXT('','3D')
);
#1154=(
GEOMETRIC_REPRESENTATION_CONTEXT(3)
GLOBAL_UNCERTAINTY_ASSIGNED_CONTEXT((#1152))
GLOBAL_UNIT_ASSIGNED_CONTEXT((#1155,#1157,#1158))
REPRESENTATION_CONTEXT('','3D')
);
#1155=(
LENGTH_UNIT()
NAMED_UNIT(*)
SI_UNIT(.MILLI.,.METRE.)
);
#1156=(
LENGTH_UNIT()
NAMED_UNIT(*)
SI_UNIT($,.METRE.)
);
#1157=(
NAMED_UNIT(*)
PLANE_ANGLE_UNIT()
SI_UNIT($,.RADIAN.)
);
#1158=(
NAMED_UNIT(*)
SI_UNIT($,.STERADIAN.)
SOLID_ANGLE_UNIT()
);
#1159=SHAPE_DEFINITION_REPRESENTATION(#1160,#1161);
#1160=PRODUCT_DEFINITION_SHAPE('',$,#1163);
#1161=SHAPE_REPRESENTATION('',(#690),#1153);
#1162=PRODUCT_DEFINITION_CONTEXT('part definition',#1167,'design');
#1163=PRODUCT_DEFINITION('2026-07-02-12-37-32-641','tapcollar v1',#1164,
#1162);
#1164=PRODUCT_DEFINITION_FORMATION('',$,#1169);
#1165=PRODUCT_RELATED_PRODUCT_CATEGORY('tapcollar v1','tapcollar v1',(#1169));
#1166=APPLICATION_PROTOCOL_DEFINITION('international standard',
'automotive_design',2009,#1167);
#1167=APPLICATION_CONTEXT(
'Core Data for Automotive Mechanical Design Process');
#1168=PRODUCT_CONTEXT('part definition',#1167,'mechanical');
#1169=PRODUCT('2026-07-02-12-37-32-641','tapcollar v1',$,(#1168));
#1170=PRESENTATION_STYLE_ASSIGNMENT((#1171));
#1171=SURFACE_STYLE_USAGE(.BOTH.,#1172);
#1172=SURFACE_SIDE_STYLE('',(#1173));
#1173=SURFACE_STYLE_FILL_AREA(#1174);
#1174=FILL_AREA_STYLE('Steel - Satin',(#1175));
#1175=FILL_AREA_STYLE_COLOUR('Steel - Satin',#1176);
#1176=COLOUR_RGB('Steel - Satin',0.627450980392157,0.627450980392157,0.627450980392157);
ENDSEC;
END-ISO-10303-21;
