{"accessors":[{"bufferView":0,"byteOffset":0,"componentType":5126,"count":254,"max":[12.0,11.996270184009795,100.0],"min":[-12.0,-11.996270184009798,0.0],"type":"VEC3"},{"bufferView":0,"byteOffset":3048,"componentType":5126,"count":256,"max":[12.0,11.996270184009795,0.0],"min":[-12.0,-11.996270184009798,-3.053113317719e-16],"type":"VEC3"},{"bufferView":0,"byteOffset":6120,"componentType":5126,"count":256,"max":[12.0,11.996270184009795,100.0],"min":[-12.0,-11.996270184009798,100.0],"type":"VEC3"},{"bufferView":0,"byteOffset":9192,"componentType":5126,"count":8,"max":[10.125,3.552713678801e-15,0.8],"min":[2.625,-8.437694987151e-16,-0.8],"type":"VEC3"},{"bufferView":0,"byteOffset":9288,"componentType":5126,"count":25,"max":[10.125,4.877803914216,0.0],"min":[8.87257613078,1.7763568394e-15,-0.8],"type":"VEC3"},{"bufferView":0,"byteOffset":9588,"componentType":5126,"count":9741,"max":[10.125,9.99999838420192,99.200016394844],"min":[-9.999127667010892,-9.999997690276222,-0.8],"type":"VEC3"},{"bufferView":0,"byteOffset":126480,"componentType":5126,"count":265,"max":[10.0,9.99999838420192,9.199991378982],"min":[-9.99997646587697,-9.999039273337186,0.0],"type":"VEC3"},{"bufferView":0,"byteOffset":129660,"componentType":5126,"count":265,"max":[10.0,9.999182071439389,100.0],"min":[-9.999976605565687,-9.999971921152314,90.799990312887],"type":"VEC3"},{"bufferView":0,"byteOffset":132840,"componentType":5126,"count":9737,"max":[10.125003886141,9.999321093797304,100.80001821649],"min":[-9.999063981828114,-9.999996483323374,0.8],"type":"VEC3"},{"bufferView":0,"byteOffset":249684,"componentType":5126,"count":25,"max":[10.125003886141,0.000004547836983617,100.79998178348],"min":[8.872637553225,-4.877700253691,100.0],"type":"VEC3"},{"bufferView":0,"byteOffset":249984,"componentType":5126,"count":8,"max":[10.125003886141,0.000004547836983617,100.80001821649],"min":[2.624999999959,-0.000004547850272818,99.199982390703],"type":"VEC3"},{"bufferView":0,"byteOffset":250080,"componentType":5126,"count":256,"max":[3.0,2.999295620181303,1.110223024625e-16],"min":[-2.999992976817977,-2.999147937336886,-6.938893903907e-17],"type":"VEC3"},{"bufferView":0,"byteOffset":253152,"componentType":5126,"count":237,"max":[3.0,2.999883410378763,9.200009067003],"min":[-2.999992976817977,-2.999999911144797,0.0],"type":"VEC3"},{"bufferView":0,"byteOffset":255996,"componentType":5126,"count":23,"max":[2.625,1.264589232178,1.110223024625e-16],"min":[2.300310886169,1.7763568394e-15,-0.8],"type":"VEC3"},{"bufferView":0,"byteOffset":256272,"componentType":5126,"count":250,"max":[3.0,2.999807198471982,19.200010358441],"min":[-2.999230599814043,-2.999581800764904,0.8],"type":"VEC3"},{"bufferView":0,"byteOffset":259272,"componentType":5126,"count":250,"max":[3.0,2.999808132264105,29.200008228064],"min":[-2.9992173223645304,-2.9996289585290343,10.800009129731],"type":"VEC3"},{"bufferView":0,"byteOffset":262272,"componentType":5126,"count":250,"max":[3.0,2.9998074914939368,39.20000944674],"min":[-2.9992134444744027,-2.999611360007312,20.800010352318],"type":"VEC3"},{"bufferView":0,"byteOffset":265272,"componentType":5126,"count":250,"max":[3.0,2.999809376359857,49.200000000443],"min":[-2.9992420770377404,-2.9995826574068802,30.800008222236],"type":"VEC3"},{"bufferView":0,"byteOffset":268272,"componentType":5126,"count":250,"max":[3.0,2.9998061767429736,59.200009067003],"min":[-2.999229616529098,-2.9995901615261693,40.800009512587],"type":"VEC3"},{"bufferView":0,"byteOffset":271272,"componentType":5126,"count":250,"max":[3.0,2.999807703005501,69.200010358441],"min":[-2.999224493462148,-2.9995913206650284,50.800000000435],"type":"VEC3"},{"bufferView":0,"byteOffset":274272,"componentType":5126,"count":250,"max":[3.0,2.9998051909535954,79.200008227041],"min":[-2.9992154959263306,-2.9995982993092536,60.800009129732],"type":"VEC3"},{"bufferView":0,"byteOffset":277272,"componentType":5126,"count":250,"max":[3.0,2.9998126946165753,89.200009435715],"min":[-2.9992391678762464,-2.999587515089333,70.800010352318],"type":"VEC3"},{"bufferView":0,"byteOffset":280272,"componentType":5126,"count":252,"max":[3.0,2.999813105823238,100.0],"min":[-2.9992366261110486,-2.9995707174597244,80.80000822092],"type":"VEC3"},{"bufferView":0,"byteOffset":283296,"componentType":5126,"count":320,"max":[10.0,9.999308460786217,99.199982390703],"min":[-9.998819657627841,-9.999952086834872,80.799990000001],"type":"VEC3"},{"bufferView":0,"byteOffset":287136,"componentType":5126,"count":320,"max":[10.0,9.99925439251882,89.199990294065],"min":[-9.999063981828114,-9.99999531184494,70.799991673455],"type":"VEC3"},{"bufferView":0,"byteOffset":290976,"componentType":5126,"count":320,"max":[10.0,9.999268500341016,79.199990001835],"min":[-9.999060620116602,-9.999997690276222,60.799991397802],"type":"VEC3"},{"bufferView":0,"byteOffset":294816,"componentType":5126,"count":320,"max":[10.0,9.999283016523115,69.199991675289],"min":[-9.999061150821653,-9.999995352042365,50.799999999561],"type":"VEC3"},{"bufferView":0,"byteOffset":298656,"componentType":5126,"count":320,"max":[10.0,9.999336518651864,59.199991378981],"min":[-9.998970254882428,-9.999986227420887,40.799990299854],"type":"VEC3"},{"bufferView":0,"byteOffset":302496,"componentType":5126,"count":320,"max":[10.0,9.999321093797304,49.199999999564],"min":[-9.998987682093848,-9.999988451530315,30.799989998789],"type":"VEC3"},{"bufferView":0,"byteOffset":306336,"componentType":5126,"count":320,"max":[10.0,9.999239471714825,39.199990280096],"min":[-9.998982225364635,-9.999984561065768,20.799991673455],"type":"VEC3"},{"bufferView":0,"byteOffset":310176,"componentType":5126,"count":320,"max":[10.0,9.999278771288745,29.199990000535],"min":[-9.998919690908057,-9.999959532259487,10.799991397803],"type":"VEC3"},{"bufferView":0,"byteOffset":314016,"componentType":5126,"count":320,"max":[10.0,9.999281018798904,19.199991675289],"min":[-9.999030089586574,-9.999996483323374,0.8],"type":"VEC3"},{"bufferView":0,"byteOffset":317856,"componentType":5126,"count":23,"max":[2.625003886235,-0.000004547836712356,100.80001821649],"min":[2.300297626972,-1.264621416946,100.0],"type":"VEC3"},{"bufferView":0,"byteOffset":318132,"componentType":5126,"count":259,"max":[3.0,2.9991481673898823,100.0],"min":[-2.9999929356324277,-2.9992962410619737,100.0],"type":"VEC3"},{"bufferView":0,"byteOffset":321240,"componentType":5126,"count":236,"max":[3.0,2.9999774348852375,100.0],"min":[-2.9999929356324277,-2.9997975092814433,90.800009498443],"type":"VEC3"},{"bufferView":0,"byteOffset":324072,"componentType":5126,"count":254,"max":[1.25,1.2496114775010205,100.0],"min":[-1.25,-1.2496114775010203,0.0],"type":"VEC3"},{"bufferView":1,"byteOffset":0,"componentType":5126,"count":254,"type":"VEC3"},{"bufferView":1,"byteOffset":3048,"componentType":5126,"count":256,"type":"VEC3"},{"bufferView":1,"byteOffset":6120,"componentType":5126,"count":256,"type":"VEC3"},{"bufferView":1,"byteOffset":9192,"componentType":5126,"count":8,"type":"VEC3"},{"bufferView":1,"byteOffset":9288,"componentType":5126,"count":25,"type":"VEC3"},{"bufferView":1,"byteOffset":9588,"componentType":5126,"count":9741,"type":"VEC3"},{"bufferView":1,"byteOffset":126480,"componentType":5126,"count":265,"type":"VEC3"},{"bufferView":1,"byteOffset":129660,"componentType":5126,"count":265,"type":"VEC3"},{"bufferView":1,"byteOffset":132840,"componentType":5126,"count":9737,"type":"VEC3"},{"bufferView":1,"byteOffset":249684,"componentType":5126,"count":25,"type":"VEC3"},{"bufferView":1,"byteOffset":249984,"componentType":5126,"count":8,"type":"VEC3"},{"bufferView":1,"byteOffset":250080,"componentType":5126,"count":256,"type":"VEC3"},{"bufferView":1,"byteOffset":253152,"componentType":5126,"count":237,"type":"VEC3"},{"bufferView":1,"byteOffset":255996,"componentType":5126,"count":23,"type":"VEC3"},{"bufferView":1,"byteOffset":256272,"componentType":5126,"count":250,"type":"VEC3"},{"bufferView":1,"byteOffset":259272,"componentType":5126,"count":250,"type":"VEC3"},{"bufferView":1,"byteOffset":262272,"componentType":5126,"count":250,"type":"VEC3"},{"bufferView":1,"byteOffset":265272,"componentType":5126,"count":250,"type":"VEC3"},{"bufferView":1,"byteOffset":268272,"componentType":5126,"count":250,"type":"VEC3"},{"bufferView":1,"byteOffset":271272,"componentType":5126,"count":250,"type":"VEC3"},{"bufferView":1,"byteOffset":274272,"componentType":5126,"count":250,"type":"VEC3"},{"bufferView":1,"byteOffset":277272,"componentType":5126,"count":250,"type":"VEC3"},{"bufferView":1,"byteOffset":280272,"componentType":5126,"count":252,"type":"VEC3"},{"bufferView":1,"byteOffset":283296,"componentType":5126,"count":320,"type":"VEC3"},{"bufferView":1,"byteOffset":287136,"componentType":5126,"count":320,"type":"VEC3"},{"bufferView":1,"byteOffset":290976,"componentType":5126,"count":320,"type":"VEC3"},{"bufferView":1,"byteOffset":294816,"componentType":5126,"count":320,"type":"VEC3"},{"bufferView":1,"byteOffset":298656,"componentType":5126,"count":320,"type":"VEC3"},{"bufferView":1,"byteOffset":302496,"componentType":5126,"count":320,"type":"VEC3"},{"bufferView":1,"byteOffset":306336,"componentType":5126,"count":320,"type":"VEC3"},{"bufferView":1,"byteOffset":310176,"componentType":5126,"count":320,"type":"VEC3"},{"bufferView":1,"byteOffset":314016,"componentType":5126,"count":320,"type":"VEC3"},{"bufferView":1,"byteOffset":317856,"componentType":5126,"count":23,"type":"VEC3"},{"bufferView":1,"byteOffset":318132,"componentType":5126,"count":259,"type":"VEC3"},{"bufferView":1,"byteOffset":321240,"componentType":5126,"count":236,"type":"VEC3"},{"bufferView":1,"byteOffset":324072,"componentType":5126,"count":254,"type":"VEC3"},{"bufferView":2,"byteOffset":0,"componentType":5123,"count":756,"type":"SCALAR"},{"bufferView":2,"byteOffset":1512,"componentType":5123,"count":768,"type":"SCALAR"},{"bufferView":2,"byteOffset":3048,"componentType":5123,"count":768,"type":"SCALAR"},{"bufferView":2,"byteOffset":4584,"componentType":5123,"count":18,"type":"SCALAR"},{"bufferView":2,"byteOffset":4620,"componentType":5123,"count":69,"type":"SCALAR"},{"bufferView":2,"byteOffset":4760,"componentType":5123,"count":49923,"type":"SCALAR"},{"bufferView":2,"byteOffset":104608,"componentType":5123,"count":789,"type":"SCALAR"},{"bufferView":2,"byteOffset":106188,"componentType":5123,"count":789,"type":"SCALAR"},{"bufferView":2,"byteOffset":107768,"componentType":5123,"count":49899,"type":"SCALAR"},{"bufferView":2,"byteOffset":207568,"componentType":5123,"count":69,"type":"SCALAR"},{"bufferView":2,"byteOffset":207708,"componentType":5123,"count":18,"type":"SCALAR"},{"bufferView":2,"byteOffset":207744,"componentType":5123,"count":768,"type":"SCALAR"},{"bufferView":2,"byteOffset":209280,"componentType":5123,"count":705,"type":"SCALAR"},{"bufferView":2,"byteOffset":210692,"componentType":5123,"count":63,"type":"SCALAR"},{"bufferView":2,"byteOffset":210820,"componentType":5123,"count":744,"type":"SCALAR"},{"bufferView":2,"byteOffset":212308,"componentType":5123,"count":744,"type":"SCALAR"},{"bufferView":2,"byteOffset":213796,"componentType":5123,"count":744,"type":"SCALAR"},{"bufferView":2,"byteOffset":215284,"componentType":5123,"count":744,"type":"SCALAR"},{"bufferView":2,"byteOffset":216772,"componentType":5123,"count":744,"type":"SCALAR"},{"bufferView":2,"byteOffset":218260,"componentType":5123,"count":744,"type":"SCALAR"},{"bufferView":2,"byteOffset":219748,"componentType":5123,"count":744,"type":"SCALAR"},{"bufferView":2,"byteOffset":221236,"componentType":5123,"count":744,"type":"SCALAR"},{"bufferView":2,"byteOffset":222724,"componentType":5123,"count":750,"type":"SCALAR"},{"bufferView":2,"byteOffset":224224,"componentType":5123,"count":954,"type":"SCALAR"},{"bufferView":2,"byteOffset":226132,"componentType":5123,"count":954,"type":"SCALAR"},{"bufferView":2,"byteOffset":228040,"componentType":5123,"count":954,"type":"SCALAR"},{"bufferView":2,"byteOffset":229948,"componentType":5123,"count":954,"type":"SCALAR"},{"bufferView":2,"byteOffset":231856,"componentType":5123,"count":954,"type":"SCALAR"},{"bufferView":2,"byteOffset":233764,"componentType":5123,"count":954,"type":"SCALAR"},{"bufferView":2,"byteOffset":235672,"componentType":5123,"count":954,"type":"SCALAR"},{"bufferView":2,"byteOffset":237580,"componentType":5123,"count":954,"type":"SCALAR"},{"bufferView":2,"byteOffset":239488,"componentType":5123,"count":954,"type":"SCALAR"},{"bufferView":2,"byteOffset":241396,"componentType":5123,"count":63,"type":"SCALAR"},{"bufferView":2,"byteOffset":241524,"componentType":5123,"count":777,"type":"SCALAR"},{"bufferView":2,"byteOffset":243080,"componentType":5123,"count":702,"type":"SCALAR"},{"bufferView":2,"byteOffset":244484,"componentType":5123,"count":756,"type":"SCALAR"}],"asset":{"generator":"Open CASCADE Technology 7.8 [dev.opencascade.org]","version":"2.0"},"bufferViews":[{"buffer":0,"byteLength":327120,"byteOffset":0,"byteStride":12,"target":34962},{"buffer":0,"byteLength":327120,"byteOffset":327120,"byteStride":12,"target":34962},{"buffer":0,"byteLength":245996,"byteOffset":654240,"target":34963}],"buffers":[{"byteLength":900236,"uri":"full_system_assembly.bin"}],"materials":[{"name":"mat_0","pbrMetallicRoughness":{"baseColorFactor":[0.5704815983772278,0.5070785284042358,0.295699805021286,1.0]},"doubleSided":true}],"meshes":[{"name":"auger_solid","primitives":[{"attributes":{"NORMAL":36,"POSITION":0},"indices":72,"material":0,"mode":4},{"attributes":{"NORMAL":37,"POSITION":1},"indices":73,"material":0,"mode":4},{"attributes":{"NORMAL":38,"POSITION":2},"indices":74,"material":0,"mode":4},{"attributes":{"NORMAL":39,"POSITION":3},"indices":75,"material":0,"mode":4},{"attributes":{"NORMAL":40,"POSITION":4},"indices":76,"material":0,"mode":4},{"attributes":{"NORMAL":41,"POSITION":5},"indices":77,"material":0,"mode":4},{"attributes":{"NORMAL":42,"POSITION":6},"indices":78,"material":0,"mode":4},{"attributes":{"NORMAL":43,"POSITION":7},"indices":79,"material":0,"mode":4},{"attributes":{"NORMAL":44,"POSITION":8},"indices":80,"material":0,"mode":4},{"attributes":{"NORMAL":45,"POSITION":9},"indices":81,"material":0,"mode":4},{"attributes":{"NORMAL":46,"POSITION":10},"indices":82,"material":0,"mode":4},{"attributes":{"NORMAL":47,"POSITION":11},"indices":83,"material":0,"mode":4},{"attributes":{"NORMAL":48,"POSITION":12},"indices":84,"material":0,"mode":4},{"attributes":{"NORMAL":49,"POSITION":13},"indices":85,"material":0,"mode":4},{"attributes":{"NORMAL":50,"POSITION":14},"indices":86,"material":0,"mode":4},{"attributes":{"NORMAL":51,"POSITION":15},"indices":87,"material":0,"mode":4},{"attributes":{"NORMAL":52,"POSITION":16},"indices":88,"material":0,"mode":4},{"attributes":{"NORMAL":53,"POSITION":17},"indices":89,"material":0,"mode":4},{"attributes":{"NORMAL":54,"POSITION":18},"indices":90,"material":0,"mode":4},{"attributes":{"NORMAL":55,"POSITION":19},"indices":91,"material":0,"mode":4},{"attributes":{"NORMAL":56,"POSITION":20},"indices":92,"material":0,"mode":4},{"attributes":{"NORMAL":57,"POSITION":21},"indices":93,"material":0,"mode":4},{"attributes":{"NORMAL":58,"POSITION":22},"indices":94,"material":0,"mode":4},{"attributes":{"NORMAL":59,"POSITION":23},"indices":95,"material":0,"mode":4},{"attributes":{"NORMAL":60,"POSITION":24},"indices":96,"material":0,"mode":4},{"attributes":{"NORMAL":61,"POSITION":25},"indices":97,"material":0,"mode":4},{"attributes":{"NORMAL":62,"POSITION":26},"indices":98,"material":0,"mode":4},{"attributes":{"NORMAL":63,"POSITION":27},"indices":99,"material":0,"mode":4},{"attributes":{"NORMAL":64,"POSITION":28},"indices":100,"material":0,"mode":4},{"attributes":{"NORMAL":65,"POSITION":29},"indices":101,"material":0,"mode":4},{"attributes":{"NORMAL":66,"POSITION":30},"indices":102,"material":0,"mode":4},{"attributes":{"NORMAL":67,"POSITION":31},"indices":103,"material":0,"mode":4},{"attributes":{"NORMAL":68,"POSITION":32},"indices":104,"material":0,"mode":4},{"attributes":{"NORMAL":69,"POSITION":33},"indices":105,"material":0,"mode":4},{"attributes":{"NORMAL":70,"POSITION":34},"indices":106,"material":0,"mode":4},{"attributes":{"NORMAL":71,"POSITION":35},"indices":107,"material":0,"mode":4}]}],"nodes":[{"children":[1],"rotation":[-0.7071067811865475,0.0,0.0,0.7071067811865475],"name":"powder-doser-full-system-modular"},{"mesh":0,"name":"auger_solid"}],"scene":0,"scenes":[{"nodes":[0]}]}