<svg id="图层_1" data-name="图层 1" xmlns="http://www.w3.org/2000/svg" xmlns:xlink="http://www.w3.org/1999/xlink" viewBox="0 0 276 88.65"><defs><style>.cls-1,.cls-3,.cls-4,.cls-5{fill:none;}.cls-2{clip-path:url(#clip-path);}.cls-3{stroke:#1a1a1a;stroke-width:0.37px;}.cls-3,.cls-4,.cls-5{stroke-linecap:round;stroke-linejoin:round;}.cls-4,.cls-5{stroke:#000;}.cls-4{stroke-width:0.14px;}.cls-5{stroke-width:0;}.cls-6{font-size:3.82px;}.cls-10,.cls-6,.cls-8,.cls-9{font-family:ArialMT, Arial;}.cls-7{letter-spacing:-0.04em;}.cls-8{font-size:3.82px;}.cls-9{font-size:3.82px;}.cls-10{font-size:2.67px;}</style><clipPath id="clip-path" transform="translate(-59.1 -22.16)"><polyline class="cls-1" points="0 131.81 406.77 131.81 406.77 0 0 0 0 131.81"/></clipPath></defs><title>11HS18-0674S-模型</title><g class="cls-2"><line class="cls-3" x1="269.8" y1="65.8" x2="219.08" y2="65.8"/><line class="cls-3" x1="219.08" y1="14.42" x2="274.24" y2="14.42"/><line class="cls-3" x1="275.81" y1="15.76" x2="275.81" y2="64.46"/><line class="cls-3" x1="274.24" y1="65.8" x2="269.8" y2="65.8"/><line class="cls-3" x1="275.81" y1="22.67" x2="275.81" y2="15.76"/><line class="cls-3" x1="272.17" y1="14.42" x2="274.24" y2="14.42"/><line class="cls-3" x1="271.44" y1="55.9" x2="271.44" y2="65.8"/><line class="cls-3" x1="271.44" y1="57.34" x2="274.1" y2="57.34"/><line class="cls-3" x1="274.1" y1="58.25" x2="274.1" y2="63.46"/><line class="cls-3" x1="274.1" y1="65.06" x2="271.44" y2="65.06"/><line class="cls-3" x1="274.1" y1="57.34" x2="274.69" y2="58.25"/><line class="cls-3" x1="274.69" y1="58.25" x2="274.1" y2="58.25"/><line class="cls-3" x1="274.1" y1="65.06" x2="274.69" y2="64.15"/><line class="cls-3" x1="274.69" y1="64.15" x2="274.1" y2="64.15"/><line class="cls-3" x1="274.1" y1="63.46" x2="274.1" y2="64.15"/><line class="cls-3" x1="271.44" y1="55.9" x2="274.24" y2="55.9"/><line class="cls-3" x1="275.81" y1="25.44" x2="275.81" y2="16.88"/><line class="cls-3" x1="275.81" y1="15.76" x2="275.81" y2="16.88"/><line class="cls-3" x1="271.44" y1="14.42" x2="271.44" y2="24.32"/><path class="cls-3" d="M334.92,37.92a6.72,6.72,0,0,0-1.57-1.34" transform="translate(-59.1 -22.16)"/><line class="cls-3" x1="271.44" y1="15.86" x2="274.1" y2="15.86"/><line class="cls-3" x1="274.1" y1="16.77" x2="274.1" y2="21.98"/><line class="cls-3" x1="274.1" y1="23.57" x2="271.44" y2="23.57"/><line class="cls-3" x1="274.1" y1="15.86" x2="274.69" y2="16.77"/><line class="cls-3" x1="274.69" y1="16.77" x2="274.1" y2="16.77"/><line class="cls-3" x1="274.1" y1="23.57" x2="274.69" y2="22.67"/><line class="cls-3" x1="274.69" y1="22.67" x2="274.1" y2="22.67"/><line class="cls-3" x1="274.1" y1="21.98" x2="274.1" y2="22.67"/><line class="cls-3" x1="271.44" y1="14.42" x2="274.24" y2="14.42"/><line class="cls-3" x1="271.44" y1="24.32" x2="275.81" y2="24.32"/><path class="cls-3" d="M333.35,88a6.49,6.49,0,0,0,1.57-1.34" transform="translate(-59.1 -22.16)"/><line class="cls-3" x1="274.24" y1="55.9" x2="275.81" y2="55.9"/><line class="cls-3" x1="269.76" y1="69.45" x2="269.76" y2="65.8"/><line class="cls-3" x1="264.44" y1="65.8" x2="264.44" y2="69.45"/><line class="cls-3" x1="264.44" y1="69.45" x2="269.76" y2="69.45"/><line class="cls-3" x1="266.64" y1="69.45" x2="266.64" y2="82.2"/><line class="cls-3" x1="266.64" y1="82.2" x2="267.55" y2="82.2"/><line class="cls-3" x1="267.55" y1="82.2" x2="267.55" y2="69.45"/><line class="cls-3" x1="267.1" y1="82.2" x2="267.1" y2="85.85"/><line class="cls-3" x1="266.64" y1="69.45" x2="267.55" y2="69.45"/><line class="cls-3" x1="211.2" y1="14.42" x2="211.2" y2="65.8"/><line class="cls-3" x1="259.2" y1="14.33" x2="259.2" y2="65.71"/><line class="cls-4" x1="263.51" y1="83.77" x2="248.65" y2="83.77"/><polyline class="cls-5" points="265.69 77.41 266.64 75.83 266.26 77.63 265.69 77.41"/><polyline points="265.69 77.41 266.64 75.83 266.26 77.63 265.69 77.41"/><line class="cls-4" x1="265.97" y1="77.52" x2="263.51" y2="83.77"/><text class="cls-6" transform="translate(249.22 82.85)"><tspan class="cls-7">A</tspan><tspan x="2.41" y="0">WG26</tspan></text><text class="cls-8" transform="translate(248.92 87.41)">UL1569</text><line class="cls-3" x1="275.81" y1="40.11" x2="275.81" y2="44.67"/><line class="cls-3" x1="190.18" y1="40.11" x2="190.18" y2="20.07"/><line class="cls-3" x1="190.18" y1="20.07" x2="193.82" y2="20.07"/><line class="cls-3" x1="193.82" y1="20.07" x2="193.82" y2="60.15"/><line class="cls-3" x1="193.82" y1="60.15" x2="190.18" y2="60.15"/><line class="cls-3" x1="190.18" y1="60.15" x2="190.18" y2="40.11"/><line class="cls-3" x1="193.82" y1="40.11" x2="193.82" y2="15.76"/><line class="cls-3" x1="193.82" y1="64.46" x2="193.82" y2="40.11"/><line class="cls-3" x1="185.44" y1="35.56" x2="190.18" y2="35.56"/><line class="cls-3" x1="157.38" y1="40.11" x2="157.38" y2="43.95"/><line class="cls-3" x1="158.11" y1="44.67" x2="190.18" y2="44.67"/><line class="cls-3" x1="158.11" y1="36.47" x2="158.11" y2="44.67"/><line class="cls-3" x1="158.11" y1="44.67" x2="157.38" y2="43.95"/><line class="cls-4" x1="189.04" y1="20.07" x2="144.86" y2="20.07"/><line class="cls-4" x1="189.04" y1="60.15" x2="144.86" y2="60.15"/><line class="cls-4" x1="147.14" y1="21.89" x2="147.14" y2="58.33"/><polyline class="cls-5" points="146.83 21.89 147.44 21.89 147.14 20.07 146.83 21.89"/><polyline points="146.83 21.89 147.44 21.89 147.14 20.07 146.83 21.89"/><polyline class="cls-5" points="146.83 58.33 147.44 58.33 147.14 60.16 146.83 58.33"/><polyline points="146.83 58.33 147.44 58.33 147.14 60.16 146.83 58.33"/><text class="cls-9" transform="translate(145.89 46.79) rotate(-90)">Ø22</text><text class="cls-10" transform="translate(143.3 39.68) rotate(-90)">0</text><text class="cls-10" transform="translate(145.89 39.66) rotate(-90)">-0.05</text><line class="cls-4" x1="167.11" y1="36.47" x2="169.23" y2="36.47"/><line class="cls-4" x1="167.11" y1="44.67" x2="169.23" y2="44.67"/><line class="cls-4" x1="166.95" y1="38.29" x2="166.95" y2="42.84"/><line class="cls-4" x1="166.95" y1="44.67" x2="166.95" y2="52.79"/><line class="cls-4" x1="166.95" y1="52.79" x2="153.85" y2="52.79"/><polyline class="cls-5" points="166.65 38.29 167.25 38.29 166.95 36.47 166.65 38.29"/><polyline points="166.65 38.29 167.25 38.29 166.95 36.47 166.65 38.29"/><polyline class="cls-5" points="166.65 42.84 167.25 42.84 166.95 44.67 166.65 42.84"/><polyline points="166.65 42.84 167.25 42.84 166.95 44.67 166.65 42.84"/><text class="cls-8" transform="translate(153.8 51.61)">4.5±0.1</text><path class="cls-3" d="M254.5,36.58a7,7,0,0,0-1.58,1.34" transform="translate(-59.1 -22.16)"/><path class="cls-3" d="M252.92,86.62A6.73,6.73,0,0,0,254.5,88" transform="translate(-59.1 -22.16)"/><line class="cls-3" x1="195.39" y1="65.8" x2="219.08" y2="65.8"/><line class="cls-3" x1="195.39" y1="14.42" x2="219.08" y2="14.42"/><line class="cls-4" x1="193.82" y1="14.62" x2="193.82" y2="2.18"/><line class="cls-4" x1="275.81" y1="14.62" x2="275.81" y2="2.18"/><line class="cls-4" x1="195.64" y1="4.46" x2="273.99" y2="4.46"/><polyline class="cls-5" points="195.64 4.16 195.64 4.77 193.82 4.46 195.64 4.16"/><polyline points="195.64 4.16 195.64 4.77 193.82 4.46 195.64 4.16"/><polyline class="cls-5" points="273.99 4.16 273.99 4.77 275.81 4.46 273.99 4.16"/><polyline points="273.99 4.16 273.99 4.77 275.81 4.46 273.99 4.16"/><text class="cls-8" transform="translate(228.54 3.28)">45MAX</text><line class="cls-3" x1="158.11" y1="44.67" x2="158.11" y2="36.47"/><line class="cls-3" x1="157.38" y1="36.47" x2="157.38" y2="40.11"/><line class="cls-4" x1="186.85" y1="35.56" x2="185.72" y2="35.56"/><line class="cls-4" x1="186.85" y1="44.67" x2="185.72" y2="44.67"/><line class="cls-4" x1="187.99" y1="37.38" x2="187.99" y2="42.84"/><line class="cls-4" x1="187.99" y1="44.67" x2="187.99" y2="57.11"/><line class="cls-4" x1="187.99" y1="57.11" x2="174.56" y2="57.11"/><polyline class="cls-5" points="187.69 37.38 188.3 37.38 187.99 35.56 187.69 37.38"/><polyline points="187.69 37.38 188.3 37.38 187.99 35.56 187.69 37.38"/><polyline class="cls-5" points="187.69 42.84 188.3 42.84 187.99 44.67 187.69 42.84"/><polyline points="187.69 42.84 188.3 42.84 187.99 44.67 187.69 42.84"/><text class="cls-9" transform="translate(174.37 55.87)">Ø5</text><text class="cls-10" transform="translate(179.35 53.27)">0</text><text class="cls-10" transform="translate(179.37 55.87)">-0.012</text><line class="cls-4" x1="157.38" y1="35.33" x2="157.38" y2="2.18"/><line class="cls-4" x1="193.82" y1="14.62" x2="193.82" y2="2.18"/><line class="cls-4" x1="159.2" y1="4.46" x2="192" y2="4.46"/><polyline class="cls-5" points="159.2 4.16 159.2 4.77 157.38 4.46 159.2 4.16"/><polyline points="159.2 4.16 159.2 4.77 157.38 4.46 159.2 4.16"/><polyline class="cls-5" points="192 4.16 192 4.77 193.82 4.46 192 4.16"/><polyline points="192 4.16 192 4.77 193.82 4.46 192 4.16"/><text class="cls-8" transform="translate(171.66 3.28)">20±1</text><line class="cls-3" x1="157.38" y1="36.47" x2="184.71" y2="36.47"/><line class="cls-3" x1="184.71" y1="36.47" x2="184.71" y2="35.56"/><line class="cls-3" x1="184.71" y1="35.56" x2="185.44" y2="35.56"/><line class="cls-4" x1="157.38" y1="35.33" x2="157.38" y2="27.68"/><line class="cls-4" x1="184.71" y1="34.42" x2="184.71" y2="27.68"/><line class="cls-4" x1="159.2" y1="29.96" x2="182.89" y2="29.96"/><polyline class="cls-5" points="159.2 29.65 159.2 30.26 157.38 29.96 159.2 29.65"/><polyline points="159.2 29.65 159.2 30.26 157.38 29.96 159.2 29.65"/><polyline class="cls-5" points="182.89 29.65 182.89 30.26 184.71 29.96 182.89 29.65"/><polyline points="182.89 29.65 182.89 30.26 184.71 29.96 182.89 29.65"/><text class="cls-8" transform="translate(164.02 28.77)">15±0.25</text><line class="cls-4" x1="190.18" y1="61.29" x2="190.18" y2="73.97"/><line class="cls-4" x1="193.82" y1="65.6" x2="193.82" y2="73.97"/><line class="cls-4" x1="188.35" y1="71.69" x2="186.53" y2="71.69"/><line class="cls-4" x1="195.64" y1="71.69" x2="201.55" y2="71.69"/><line class="cls-4" x1="190.18" y1="71.69" x2="193.82" y2="71.69"/><polyline class="cls-5" points="188.35 71.39 188.35 71.99 190.18 71.69 188.35 71.39"/><polyline points="188.35 71.39 188.35 71.99 190.18 71.69 188.35 71.39"/><polyline class="cls-5" points="195.64 71.39 195.64 71.99 193.82 71.69 195.64 71.39"/><polyline points="195.64 71.39 195.64 71.99 193.82 71.69 195.64 71.39"/><text class="cls-8" transform="translate(198.49 70.55)">2</text><circle class="cls-3" cx="45.8" cy="40.11" r="20.04"/><line class="cls-3" x1="20.11" y1="40.11" x2="20.11" y2="19"/><line class="cls-3" x1="24.69" y1="14.42" x2="66.92" y2="14.42"/><line class="cls-3" x1="71.49" y1="19" x2="71.49" y2="61.23"/><line class="cls-3" x1="66.92" y1="65.8" x2="24.69" y2="65.8"/><line class="cls-3" x1="20.11" y1="61.23" x2="20.11" y2="40.11"/><circle class="cls-3" cx="45.8" cy="40.11" r="20.04"/><path class="cls-4" d="M86.21,41.32A2.26,2.26,0,1,0,84,43.58" transform="translate(-59.1 -22.16)"/><circle class="cls-3" cx="24.85" cy="19.16" r="2"/><path class="cls-4" d="M125.86,43.58a2.26,2.26,0,1,0-2.26-2.26" transform="translate(-59.1 -22.16)"/><circle class="cls-3" cx="66.76" cy="19.16" r="2"/><path class="cls-4" d="M84,81a2.26,2.26,0,1,0,2.26,2.26" transform="translate(-59.1 -22.16)"/><circle class="cls-3" cx="24.85" cy="61.07" r="2"/><path class="cls-4" d="M123.6,83.23A2.26,2.26,0,1,0,125.86,81" transform="translate(-59.1 -22.16)"/><circle class="cls-3" cx="66.76" cy="61.07" r="2"/><path class="cls-3" d="M84.11,36.58a4.73,4.73,0,0,0-4.89,4.58,1.71,1.71,0,0,0,0,.32" transform="translate(-59.1 -22.16)"/><path class="cls-3" d="M79.22,83.07A4.74,4.74,0,0,0,83.79,88a1.71,1.71,0,0,0,.32,0" transform="translate(-59.1 -22.16)"/><path class="cls-3" d="M130.6,41.48a4.74,4.74,0,0,0-4.58-4.9h-.32" transform="translate(-59.1 -22.16)"/><path class="cls-3" d="M125.7,88a4.74,4.74,0,0,0,4.9-4.57v-.32" transform="translate(-59.1 -22.16)"/><circle class="cls-3" cx="45.8" cy="40.11" r="4.56"/><line class="cls-3" x1="34.49" y1="65.8" x2="34.49" y2="69.45"/><line class="cls-3" x1="57.11" y1="65.8" x2="57.11" y2="69.45"/><line class="cls-3" x1="34.49" y1="69.45" x2="57.11" y2="69.45"/><line class="cls-3" x1="34.49" y1="67.63" x2="36.32" y2="67.63"/><line class="cls-3" x1="36.32" y1="67.63" x2="36.32" y2="65.8"/><line class="cls-3" x1="57.11" y1="67.63" x2="55.29" y2="67.63"/><line class="cls-3" x1="55.29" y1="67.63" x2="55.29" y2="65.8"/><line class="cls-3" x1="36.57" y1="69.45" x2="36.57" y2="82.2"/><line class="cls-3" x1="36.57" y1="82.2" x2="37.49" y2="82.2"/><line class="cls-3" x1="37.49" y1="82.2" x2="37.49" y2="69.45"/><line class="cls-3" x1="37.03" y1="82.2" x2="37.03" y2="85.85"/><line class="cls-3" x1="43.51" y1="69.45" x2="43.51" y2="82.2"/><line class="cls-3" x1="43.51" y1="82.2" x2="44.42" y2="82.2"/><line class="cls-3" x1="44.42" y1="82.2" x2="44.42" y2="69.45"/><line class="cls-3" x1="43.97" y1="82.2" x2="43.97" y2="85.85"/><line class="cls-3" x1="55.03" y1="69.45" x2="55.03" y2="82.2"/><line class="cls-3" x1="55.03" y1="82.2" x2="54.12" y2="82.2"/><line class="cls-3" x1="54.12" y1="82.2" x2="54.12" y2="69.45"/><line class="cls-3" x1="54.57" y1="82.2" x2="54.57" y2="85.85"/><line class="cls-3" x1="48.09" y1="69.45" x2="48.09" y2="82.2"/><line class="cls-3" x1="48.09" y1="82.2" x2="47.18" y2="82.2"/><line class="cls-3" x1="47.18" y1="82.2" x2="47.18" y2="69.45"/><line class="cls-3" x1="47.63" y1="82.2" x2="47.63" y2="85.85"/><line class="cls-3" x1="36.57" y1="75.82" x2="38.54" y2="75.82"/><line class="cls-3" x1="38.54" y1="75.82" x2="42.51" y2="70.95"/><line class="cls-3" x1="42.51" y1="70.95" x2="49.38" y2="81.21"/><line class="cls-3" x1="49.38" y1="81.21" x2="53.04" y2="75.82"/><line class="cls-3" x1="53.04" y1="75.82" x2="55.03" y2="75.82"/><line class="cls-4" x1="58.25" y1="65.8" x2="69.9" y2="65.8"/><line class="cls-4" x1="55.71" y1="85.85" x2="69.9" y2="85.85"/><line class="cls-4" x1="67.63" y1="67.63" x2="67.63" y2="84.02"/><polyline class="cls-5" points="67.32 67.63 67.93 67.63 67.63 65.8 67.32 67.63"/><polyline points="67.32 67.63 67.93 67.63 67.63 65.8 67.32 67.63"/><polyline class="cls-5" points="67.32 84.02 67.93 84.02 67.63 85.85 67.32 84.02"/><polyline points="67.32 84.02 67.93 84.02 67.63 85.85 67.32 84.02"/><text class="cls-8" transform="translate(66.44 82.17) rotate(-90)">500±10</text><line class="cls-3" x1="34.49" y1="65.8" x2="57.11" y2="65.8"/><line class="cls-4" x1="20.11" y1="18.18" x2="20.11" y2="2.18"/><line class="cls-4" x1="71.49" y1="17.86" x2="71.49" y2="2.18"/><line class="cls-4" x1="21.93" y1="4.46" x2="69.67" y2="4.46"/><polyline class="cls-5" points="21.93 4.16 21.93 4.77 20.11 4.46 21.93 4.16"/><polyline points="21.93 4.16 21.93 4.77 20.11 4.46 21.93 4.16"/><polyline class="cls-5" points="69.67 4.16 69.67 4.77 71.49 4.46 69.67 4.16"/><polyline points="69.67 4.16 69.67 4.77 71.49 4.46 69.67 4.16"/><text class="cls-8" transform="translate(37.91 3.28)">28.2MAX</text><line class="cls-4" x1="24.85" y1="18.02" x2="24.85" y2="8.96"/><line class="cls-4" x1="66.76" y1="18.02" x2="66.76" y2="8.96"/><line class="cls-4" x1="26.67" y1="11.24" x2="64.93" y2="11.24"/><polyline class="cls-5" points="26.67 10.93 26.67 11.54 24.85 11.24 26.67 10.93"/><polyline points="26.67 10.93 26.67 11.54 24.85 11.24 26.67 10.93"/><polyline class="cls-5" points="64.93 10.93 64.93 11.54 66.76 11.24 64.93 10.93"/><polyline points="64.93 10.93 64.93 11.54 66.76 11.24 64.93 10.93"/><text class="cls-8" transform="translate(38.84 10.05)">23±0.15</text><line class="cls-4" x1="0.19" y1="71.08" x2="13.85" y2="71.08"/><line class="cls-4" x1="13.85" y1="71.08" x2="21.83" y2="63.81"/><line class="cls-4" x1="27.86" y1="58.32" x2="29.21" y2="57.09"/><text class="cls-8" transform="translate(0.14 69.9)">4-M2.5</text><line class="cls-4" x1="26.52" y1="59.54" x2="23.18" y2="62.59"/><polyline class="cls-5" points="27.66 58.09 28.07 58.54 26.52 59.54 27.66 58.09"/><polyline points="27.66 58.09 28.07 58.54 26.52 59.54 27.66 58.09"/><polyline class="cls-5" points="21.63 63.59 22.04 64.04 23.18 62.59 21.63 63.59"/><polyline points="21.63 63.59 22.04 64.04 23.18 62.59 21.63 63.59"/><text class="cls-8" transform="translate(0 75.5)">DEPTH</text><text class="cls-8" transform="translate(0.25 80.07)">4.0MIN</text><line class="cls-4" x1="67.73" y1="14.42" x2="92.67" y2="14.42"/><line class="cls-4" x1="66.4" y1="65.8" x2="92.67" y2="65.8"/><line class="cls-4" x1="90.4" y1="16.24" x2="90.4" y2="63.98"/><polyline class="cls-5" points="90.09 16.24 90.7 16.24 90.39 14.42 90.09 16.24"/><polyline points="90.09 16.24 90.7 16.24 90.39 14.42 90.09 16.24"/><polyline class="cls-5" points="90.09 63.98 90.7 63.98 90.39 65.8 90.09 63.98"/><polyline points="90.09 63.98 90.7 63.98 90.39 65.8 90.09 63.98"/><text class="cls-8" transform="translate(89.21 48.01) rotate(-90)">28.2MAX</text><line class="cls-4" x1="67.9" y1="19.16" x2="83.16" y2="19.16"/><line class="cls-4" x1="67.9" y1="61.07" x2="83.16" y2="61.07"/><line class="cls-4" x1="80.88" y1="20.98" x2="80.88" y2="59.24"/><polyline class="cls-5" points="80.58 20.98 81.18 20.98 80.88 19.16 80.58 20.98"/><polyline points="80.58 20.98 81.18 20.98 80.88 19.16 80.58 20.98"/><polyline class="cls-5" points="80.58 59.24 81.18 59.24 80.88 61.07 80.58 59.24"/><polyline points="80.58 59.24 81.18 59.24 80.88 61.07 80.58 59.24"/><text class="cls-8" transform="translate(79.69 46.98) rotate(-90)">23±0.15</text><line class="cls-3" x1="45.8" y1="36.47" x2="48.54" y2="36.47"/><line class="cls-3" x1="45.8" y1="36.47" x2="43.07" y2="36.47"/></g></svg>