ISO-10303-21;
HEADER;
FILE_DESCRIPTION(('Open CASCADE Model'),'2;1');
FILE_NAME('Open CASCADE Shape Model','2026-10-10T06:22:51',('Author'),(
    'Open CASCADE'),'Open CASCADE STEP processor 7.9','Open CASCADE 7.9'
  ,'Unknown');
FILE_SCHEMA(('AUTOMOTIVE_DESIGN { 1 0 10303 214 1 1 1 1 }'));
ENDSEC;
DATA;
#1 = APPLICATION_PROTOCOL_DEFINITION('international standard',
  'automotive_design',2000,#2);
#2 = APPLICATION_CONTEXT(
  'core data for automotive mechanical design processes');
#3 = SHAPE_DEFINITION_REPRESENTATION(#4,#10);
#4 = PRODUCT_DEFINITION_SHAPE('','',#5);
#5 = PRODUCT_DEFINITION('design','',#6,#9);
#6 = PRODUCT_DEFINITION_FORMATION('','',#7);
#7 = PRODUCT('Open CASCADE STEP translator 7.9 39',
  'Open CASCADE STEP translator 7.9 39','',(#8));
#8 = PRODUCT_CONTEXT('',#2,'mechanical');
#9 = PRODUCT_DEFINITION_CONTEXT('part definition',#2,'design');
#10 = ADVANCED_BREP_SHAPE_REPRESENTATION('',(#11,#15),#995);
#11 = AXIS2_PLACEMENT_3D('',#12,#13,#14);
#12 = CARTESIAN_POINT('',(0.,0.,0.));
#13 = DIRECTION('',(0.,0.,1.));
#14 = DIRECTION('',(1.,0.,-0.));
#15 = MANIFOLD_SOLID_BREP('',#16);
#16 = CLOSED_SHELL('',(#17,#137,#275,#502,#581,#655,#682,#872,#932,#964)
  );
#17 = ADVANCED_FACE('',(#18),#32,.F.);
#18 = FACE_BOUND('',#19,.F.);
#19 = EDGE_LOOP('',(#20,#55,#83,#111));
#20 = ORIENTED_EDGE('',*,*,#21,.T.);
#21 = EDGE_CURVE('',#22,#24,#26,.T.);
#22 = VERTEX_POINT('',#23);
#23 = CARTESIAN_POINT('',(-5.,-3.,1.8));
#24 = VERTEX_POINT('',#25);
#25 = CARTESIAN_POINT('',(-5.,-3.,4.));
#26 = SURFACE_CURVE('',#27,(#31,#43),.PCURVE_S1.);
#27 = LINE('',#28,#29);
#28 = CARTESIAN_POINT('',(-5.,-3.,0.));
#29 = VECTOR('',#30,1.);
#30 = DIRECTION('',(0.,0.,1.));
#31 = PCURVE('',#32,#37);
#32 = PLANE('',#33);
#33 = AXIS2_PLACEMENT_3D('',#34,#35,#36);
#34 = CARTESIAN_POINT('',(-5.,-3.,0.));
#35 = DIRECTION('',(0.,1.,0.));
#36 = DIRECTION('',(1.,0.,0.));
#37 = DEFINITIONAL_REPRESENTATION('',(#38),#42);
#38 = LINE('',#39,#40);
#39 = CARTESIAN_POINT('',(0.,0.));
#40 = VECTOR('',#41,1.);
#41 = DIRECTION('',(0.,-1.));
#42 = ( GEOMETRIC_REPRESENTATION_CONTEXT(2) 
PARAMETRIC_REPRESENTATION_CONTEXT() REPRESENTATION_CONTEXT('2D SPACE',''
  ) );
#43 = PCURVE('',#44,#49);
#44 = PLANE('',#45);
#45 = AXIS2_PLACEMENT_3D('',#46,#47,#48);
#46 = CARTESIAN_POINT('',(-5.,3.,0.));
#47 = DIRECTION('',(1.,0.,-0.));
#48 = DIRECTION('',(0.,-1.,0.));
#49 = DEFINITIONAL_REPRESENTATION('',(#50),#54);
#50 = LINE('',#51,#52);
#51 = CARTESIAN_POINT('',(6.,0.));
#52 = VECTOR('',#53,1.);
#53 = DIRECTION('',(0.,-1.));
#54 = ( GEOMETRIC_REPRESENTATION_CONTEXT(2) 
PARAMETRIC_REPRESENTATION_CONTEXT() REPRESENTATION_CONTEXT('2D SPACE',''
  ) );
#55 = ORIENTED_EDGE('',*,*,#56,.T.);
#56 = EDGE_CURVE('',#24,#57,#59,.T.);
#57 = VERTEX_POINT('',#58);
#58 = CARTESIAN_POINT('',(5.,-3.,4.));
#59 = SURFACE_CURVE('',#60,(#64,#71),.PCURVE_S1.);
#60 = LINE('',#61,#62);
#61 = CARTESIAN_POINT('',(-5.,-3.,4.));
#62 = VECTOR('',#63,1.);
#63 = DIRECTION('',(1.,0.,0.));
#64 = PCURVE('',#32,#65);
#65 = DEFINITIONAL_REPRESENTATION('',(#66),#70);
#66 = LINE('',#67,#68);
#67 = CARTESIAN_POINT('',(0.,-4.));
#68 = VECTOR('',#69,1.);
#69 = DIRECTION('',(1.,0.));
#70 = ( GEOMETRIC_REPRESENTATION_CONTEXT(2) 
PARAMETRIC_REPRESENTATION_CONTEXT() REPRESENTATION_CONTEXT('2D SPACE',''
  ) );
#71 = PCURVE('',#72,#77);
#72 = PLANE('',#73);
#73 = AXIS2_PLACEMENT_3D('',#74,#75,#76);
#74 = CARTESIAN_POINT('',(0.,0.,4.));
#75 = DIRECTION('',(0.,0.,1.));
#76 = DIRECTION('',(1.,0.,-0.));
#77 = DEFINITIONAL_REPRESENTATION('',(#78),#82);
#78 = LINE('',#79,#80);
#79 = CARTESIAN_POINT('',(-5.,-3.));
#80 = VECTOR('',#81,1.);
#81 = DIRECTION('',(1.,0.));
#82 = ( GEOMETRIC_REPRESENTATION_CONTEXT(2) 
PARAMETRIC_REPRESENTATION_CONTEXT() REPRESENTATION_CONTEXT('2D SPACE',''
  ) );
#83 = ORIENTED_EDGE('',*,*,#84,.F.);
#84 = EDGE_CURVE('',#85,#57,#87,.T.);
#85 = VERTEX_POINT('',#86);
#86 = CARTESIAN_POINT('',(5.,-3.,1.8));
#87 = SURFACE_CURVE('',#88,(#92,#99),.PCURVE_S1.);
#88 = LINE('',#89,#90);
#89 = CARTESIAN_POINT('',(5.,-3.,0.));
#90 = VECTOR('',#91,1.);
#91 = DIRECTION('',(0.,0.,1.));
#92 = PCURVE('',#32,#93);
#93 = DEFINITIONAL_REPRESENTATION('',(#94),#98);
#94 = LINE('',#95,#96);
#95 = CARTESIAN_POINT('',(10.,0.));
#96 = VECTOR('',#97,1.);
#97 = DIRECTION('',(0.,-1.));
#98 = ( GEOMETRIC_REPRESENTATION_CONTEXT(2) 
PARAMETRIC_REPRESENTATION_CONTEXT() REPRESENTATION_CONTEXT('2D SPACE',''
  ) );
#99 = PCURVE('',#100,#105);
#100 = PLANE('',#101);
#101 = AXIS2_PLACEMENT_3D('',#102,#103,#104);
#102 = CARTESIAN_POINT('',(5.,-3.,0.));
#103 = DIRECTION('',(-1.,0.,0.));
#104 = DIRECTION('',(0.,1.,0.));
#105 = DEFINITIONAL_REPRESENTATION('',(#106),#110);
#106 = LINE('',#107,#108);
#107 = CARTESIAN_POINT('',(0.,0.));
#108 = VECTOR('',#109,1.);
#109 = DIRECTION('',(0.,-1.));
#110 = ( GEOMETRIC_REPRESENTATION_CONTEXT(2) 
PARAMETRIC_REPRESENTATION_CONTEXT() REPRESENTATION_CONTEXT('2D SPACE',''
  ) );
#111 = ORIENTED_EDGE('',*,*,#112,.F.);
#112 = EDGE_CURVE('',#22,#85,#113,.T.);
#113 = SURFACE_CURVE('',#114,(#118,#125),.PCURVE_S1.);
#114 = LINE('',#115,#116);
#115 = CARTESIAN_POINT('',(-5.,-3.,1.8));
#116 = VECTOR('',#117,1.);
#117 = DIRECTION('',(1.,0.,0.));
#118 = PCURVE('',#32,#119);
#119 = DEFINITIONAL_REPRESENTATION('',(#120),#124);
#120 = LINE('',#121,#122);
#121 = CARTESIAN_POINT('',(0.,-1.8));
#122 = VECTOR('',#123,1.);
#123 = DIRECTION('',(1.,0.));
#124 = ( GEOMETRIC_REPRESENTATION_CONTEXT(2) 
PARAMETRIC_REPRESENTATION_CONTEXT() REPRESENTATION_CONTEXT('2D SPACE',''
  ) );
#125 = PCURVE('',#126,#131);
#126 = CYLINDRICAL_SURFACE('',#127,1.8);
#127 = AXIS2_PLACEMENT_3D('',#128,#129,#130);
#128 = CARTESIAN_POINT('',(-5.,-1.2,1.8));
#129 = DIRECTION('',(1.,0.,0.));
#130 = DIRECTION('',(0.,-1.,-0.));
#131 = DEFINITIONAL_REPRESENTATION('',(#132),#136);
#132 = LINE('',#133,#134);
#133 = CARTESIAN_POINT('',(0.,0.));
#134 = VECTOR('',#135,1.);
#135 = DIRECTION('',(0.,1.));
#136 = ( GEOMETRIC_REPRESENTATION_CONTEXT(2) 
PARAMETRIC_REPRESENTATION_CONTEXT() REPRESENTATION_CONTEXT('2D SPACE',''
  ) );
#137 = ADVANCED_FACE('',(#138),#44,.F.);
#138 = FACE_BOUND('',#139,.F.);
#139 = EDGE_LOOP('',(#140,#170,#191,#192,#216,#244));
#140 = ORIENTED_EDGE('',*,*,#141,.T.);
#141 = EDGE_CURVE('',#142,#144,#146,.T.);
#142 = VERTEX_POINT('',#143);
#143 = CARTESIAN_POINT('',(-5.,3.,1.8));
#144 = VERTEX_POINT('',#145);
#145 = CARTESIAN_POINT('',(-5.,3.,4.));
#146 = SURFACE_CURVE('',#147,(#151,#158),.PCURVE_S1.);
#147 = LINE('',#148,#149);
#148 = CARTESIAN_POINT('',(-5.,3.,0.));
#149 = VECTOR('',#150,1.);
#150 = DIRECTION('',(0.,0.,1.));
#151 = PCURVE('',#44,#152);
#152 = DEFINITIONAL_REPRESENTATION('',(#153),#157);
#153 = LINE('',#154,#155);
#154 = CARTESIAN_POINT('',(0.,0.));
#155 = VECTOR('',#156,1.);
#156 = DIRECTION('',(0.,-1.));
#157 = ( GEOMETRIC_REPRESENTATION_CONTEXT(2) 
PARAMETRIC_REPRESENTATION_CONTEXT() REPRESENTATION_CONTEXT('2D SPACE',''
  ) );
#158 = PCURVE('',#159,#164);
#159 = PLANE('',#160);
#160 = AXIS2_PLACEMENT_3D('',#161,#162,#163);
#161 = CARTESIAN_POINT('',(5.,3.,0.));
#162 = DIRECTION('',(0.,-1.,0.));
#163 = DIRECTION('',(-1.,0.,0.));
#164 = DEFINITIONAL_REPRESENTATION('',(#165),#169);
#165 = LINE('',#166,#167);
#166 = CARTESIAN_POINT('',(10.,0.));
#167 = VECTOR('',#168,1.);
#168 = DIRECTION('',(0.,-1.));
#169 = ( GEOMETRIC_REPRESENTATION_CONTEXT(2) 
PARAMETRIC_REPRESENTATION_CONTEXT() REPRESENTATION_CONTEXT('2D SPACE',''
  ) );
#170 = ORIENTED_EDGE('',*,*,#171,.T.);
#171 = EDGE_CURVE('',#144,#24,#172,.T.);
#172 = SURFACE_CURVE('',#173,(#177,#184),.PCURVE_S1.);
#173 = LINE('',#174,#175);
#174 = CARTESIAN_POINT('',(-5.,3.,4.));
#175 = VECTOR('',#176,1.);
#176 = DIRECTION('',(0.,-1.,0.));
#177 = PCURVE('',#44,#178);
#178 = DEFINITIONAL_REPRESENTATION('',(#179),#183);
#179 = LINE('',#180,#181);
#180 = CARTESIAN_POINT('',(0.,-4.));
#181 = VECTOR('',#182,1.);
#182 = DIRECTION('',(1.,0.));
#183 = ( GEOMETRIC_REPRESENTATION_CONTEXT(2) 
PARAMETRIC_REPRESENTATION_CONTEXT() REPRESENTATION_CONTEXT('2D SPACE',''
  ) );
#184 = PCURVE('',#72,#185);
#185 = DEFINITIONAL_REPRESENTATION('',(#186),#190);
#186 = LINE('',#187,#188);
#187 = CARTESIAN_POINT('',(-5.,3.));
#188 = VECTOR('',#189,1.);
#189 = DIRECTION('',(0.,-1.));
#190 = ( GEOMETRIC_REPRESENTATION_CONTEXT(2) 
PARAMETRIC_REPRESENTATION_CONTEXT() REPRESENTATION_CONTEXT('2D SPACE',''
  ) );
#191 = ORIENTED_EDGE('',*,*,#21,.F.);
#192 = ORIENTED_EDGE('',*,*,#193,.T.);
#193 = EDGE_CURVE('',#22,#194,#196,.T.);
#194 = VERTEX_POINT('',#195);
#195 = CARTESIAN_POINT('',(-5.,-1.2,-2.22044604925E-16));
#196 = SURFACE_CURVE('',#197,(#202,#209),.PCURVE_S1.);
#197 = CIRCLE('',#198,1.8);
#198 = AXIS2_PLACEMENT_3D('',#199,#200,#201);
#199 = CARTESIAN_POINT('',(-5.,-1.2,1.8));
#200 = DIRECTION('',(1.,0.,0.));
#201 = DIRECTION('',(-0.,0.,1.));
#202 = PCURVE('',#44,#203);
#203 = DEFINITIONAL_REPRESENTATION('',(#204),#208);
#204 = CIRCLE('',#205,1.8);
#205 = AXIS2_PLACEMENT_2D('',#206,#207);
#206 = CARTESIAN_POINT('',(4.2,-1.8));
#207 = DIRECTION('',(0.,-1.));
#208 = ( GEOMETRIC_REPRESENTATION_CONTEXT(2) 
PARAMETRIC_REPRESENTATION_CONTEXT() REPRESENTATION_CONTEXT('2D SPACE',''
  ) );
#209 = PCURVE('',#126,#210);
#210 = DEFINITIONAL_REPRESENTATION('',(#211),#215);
#211 = LINE('',#212,#213);
#212 = CARTESIAN_POINT('',(-1.570796326795,0.));
#213 = VECTOR('',#214,1.);
#214 = DIRECTION('',(1.,0.));
#215 = ( GEOMETRIC_REPRESENTATION_CONTEXT(2) 
PARAMETRIC_REPRESENTATION_CONTEXT() REPRESENTATION_CONTEXT('2D SPACE',''
  ) );
#216 = ORIENTED_EDGE('',*,*,#217,.F.);
#217 = EDGE_CURVE('',#218,#194,#220,.T.);
#218 = VERTEX_POINT('',#219);
#219 = CARTESIAN_POINT('',(-5.,1.2,-2.22044604925E-16));
#220 = SURFACE_CURVE('',#221,(#225,#232),.PCURVE_S1.);
#221 = LINE('',#222,#223);
#222 = CARTESIAN_POINT('',(-5.,3.,0.));
#223 = VECTOR('',#224,1.);
#224 = DIRECTION('',(0.,-1.,0.));
#225 = PCURVE('',#44,#226);
#226 = DEFINITIONAL_REPRESENTATION('',(#227),#231);
#227 = LINE('',#228,#229);
#228 = CARTESIAN_POINT('',(0.,0.));
#229 = VECTOR('',#230,1.);
#230 = DIRECTION('',(1.,0.));
#231 = ( GEOMETRIC_REPRESENTATION_CONTEXT(2) 
PARAMETRIC_REPRESENTATION_CONTEXT() REPRESENTATION_CONTEXT('2D SPACE',''
  ) );
#232 = PCURVE('',#233,#238);
#233 = PLANE('',#234);
#234 = AXIS2_PLACEMENT_3D('',#235,#236,#237);
#235 = CARTESIAN_POINT('',(0.,0.,0.));
#236 = DIRECTION('',(0.,0.,1.));
#237 = DIRECTION('',(1.,0.,-0.));
#238 = DEFINITIONAL_REPRESENTATION('',(#239),#243);
#239 = LINE('',#240,#241);
#240 = CARTESIAN_POINT('',(-5.,3.));
#241 = VECTOR('',#242,1.);
#242 = DIRECTION('',(0.,-1.));
#243 = ( GEOMETRIC_REPRESENTATION_CONTEXT(2) 
PARAMETRIC_REPRESENTATION_CONTEXT() REPRESENTATION_CONTEXT('2D SPACE',''
  ) );
#244 = ORIENTED_EDGE('',*,*,#245,.F.);
#245 = EDGE_CURVE('',#142,#218,#246,.T.);
#246 = SURFACE_CURVE('',#247,(#252,#263),.PCURVE_S1.);
#247 = CIRCLE('',#248,1.8);
#248 = AXIS2_PLACEMENT_3D('',#249,#250,#251);
#249 = CARTESIAN_POINT('',(-5.,1.2,1.8));
#250 = DIRECTION('',(-1.,0.,0.));
#251 = DIRECTION('',(0.,0.,-1.));
#252 = PCURVE('',#44,#253);
#253 = DEFINITIONAL_REPRESENTATION('',(#254),#262);
#254 = ( BOUNDED_CURVE() B_SPLINE_CURVE(2,(#255,#256,#257,#258,#259,#260
,#261),.UNSPECIFIED.,.T.,.F.) B_SPLINE_CURVE_WITH_KNOTS((1,2,2,2,2,1),(
    -2.094395102393,0.,2.094395102393,4.188790204786,6.28318530718,
8.377580409573),.UNSPECIFIED.) CURVE() GEOMETRIC_REPRESENTATION_ITEM() 
RATIONAL_B_SPLINE_CURVE((1.,0.5,1.,0.5,1.,0.5,1.)) REPRESENTATION_ITEM(
  '') );
#255 = CARTESIAN_POINT('',(1.8,2.22044604925E-16));
#256 = CARTESIAN_POINT('',(4.917691453624,2.22044604925E-16));
#257 = CARTESIAN_POINT('',(3.358845726812,-2.7));
#258 = CARTESIAN_POINT('',(1.8,-5.4));
#259 = CARTESIAN_POINT('',(0.241154273188,-2.7));
#260 = CARTESIAN_POINT('',(-1.317691453624,-2.6645352591E-15));
#261 = CARTESIAN_POINT('',(1.8,2.22044604925E-16));
#262 = ( GEOMETRIC_REPRESENTATION_CONTEXT(2) 
PARAMETRIC_REPRESENTATION_CONTEXT() REPRESENTATION_CONTEXT('2D SPACE',''
  ) );
#263 = PCURVE('',#264,#269);
#264 = CYLINDRICAL_SURFACE('',#265,1.8);
#265 = AXIS2_PLACEMENT_3D('',#266,#267,#268);
#266 = CARTESIAN_POINT('',(5.,1.2,1.8));
#267 = DIRECTION('',(-1.,0.,0.));
#268 = DIRECTION('',(0.,1.,-0.));
#269 = DEFINITIONAL_REPRESENTATION('',(#270),#274);
#270 = LINE('',#271,#272);
#271 = CARTESIAN_POINT('',(-4.712388980385,10.));
#272 = VECTOR('',#273,1.);
#273 = DIRECTION('',(1.,0.));
#274 = ( GEOMETRIC_REPRESENTATION_CONTEXT(2) 
PARAMETRIC_REPRESENTATION_CONTEXT() REPRESENTATION_CONTEXT('2D SPACE',''
  ) );
#275 = ADVANCED_FACE('',(#276),#126,.T.);
#276 = FACE_BOUND('',#277,.T.);
#277 = EDGE_LOOP('',(#278,#279,#280,#303,#448,#476));
#278 = ORIENTED_EDGE('',*,*,#112,.F.);
#279 = ORIENTED_EDGE('',*,*,#193,.T.);
#280 = ORIENTED_EDGE('',*,*,#281,.T.);
#281 = EDGE_CURVE('',#194,#282,#284,.T.);
#282 = VERTEX_POINT('',#283);
#283 = CARTESIAN_POINT('',(-2.193171219946,-1.2,-2.22044604925E-16));
#284 = SURFACE_CURVE('',#285,(#289,#296),.PCURVE_S1.);
#285 = LINE('',#286,#287);
#286 = CARTESIAN_POINT('',(-5.,-1.2,-2.22044604925E-16));
#287 = VECTOR('',#288,1.);
#288 = DIRECTION('',(1.,0.,0.));
#289 = PCURVE('',#126,#290);
#290 = DEFINITIONAL_REPRESENTATION('',(#291),#295);
#291 = LINE('',#292,#293);
#292 = CARTESIAN_POINT('',(1.570796326795,0.));
#293 = VECTOR('',#294,1.);
#294 = DIRECTION('',(0.,1.));
#295 = ( GEOMETRIC_REPRESENTATION_CONTEXT(2) 
PARAMETRIC_REPRESENTATION_CONTEXT() REPRESENTATION_CONTEXT('2D SPACE',''
  ) );
#296 = PCURVE('',#233,#297);
#297 = DEFINITIONAL_REPRESENTATION('',(#298),#302);
#298 = LINE('',#299,#300);
#299 = CARTESIAN_POINT('',(-5.,-1.2));
#300 = VECTOR('',#301,1.);
#301 = DIRECTION('',(1.,0.));
#302 = ( GEOMETRIC_REPRESENTATION_CONTEXT(2) 
PARAMETRIC_REPRESENTATION_CONTEXT() REPRESENTATION_CONTEXT('2D SPACE',''
  ) );
#303 = ORIENTED_EDGE('',*,*,#304,.F.);
#304 = EDGE_CURVE('',#305,#282,#307,.T.);
#305 = VERTEX_POINT('',#306);
#306 = CARTESIAN_POINT('',(2.193171219946,-1.2,-2.22044604925E-16));
#307 = SURFACE_CURVE('',#308,(#351,#397),.PCURVE_S1.);
#308 = B_SPLINE_CURVE_WITH_KNOTS('',6,(#309,#310,#311,#312,#313,#314,
    #315,#316,#317,#318,#319,#320,#321,#322,#323,#324,#325,#326,#327,
    #328,#329,#330,#331,#332,#333,#334,#335,#336,#337,#338,#339,#340,
    #341,#342,#343,#344,#345,#346,#347,#348,#349,#350),.UNSPECIFIED.,.F.
  ,.F.,(7,5,5,5,5,5,5,5,7),(0.,8.156602904985E-02,0.257509500477,
    0.389208667201,0.499702807474,0.611318420857,0.742574347351,
    0.918772697194,1.),.UNSPECIFIED.);
#309 = CARTESIAN_POINT('',(2.193171219946,-1.2,-1.110223024625E-16));
#310 = CARTESIAN_POINT('',(2.153825413783,-1.271910074751,
    -1.021516112746E-16));
#311 = CARTESIAN_POINT('',(2.11199056579,-1.341649907383,
    3.447255614282E-03));
#312 = CARTESIAN_POINT('',(2.067883442696,-1.409042137549,
    9.952187504109E-03));
#313 = CARTESIAN_POINT('',(2.02174179778,-1.473942271315,
    1.913588598944E-02));
#314 = CARTESIAN_POINT('',(1.973822223464,-1.536235902203,
    3.062776853813E-02));
#315 = CARTESIAN_POINT('',(1.817786601288,-1.724397249989,
    7.3044456935E-02));
#316 = CARTESIAN_POINT('',(1.703355711917,-1.841413477471,0.111292436286
    ));
#317 = CARTESIAN_POINT('',(1.582621697058,-1.946886782729,0.155691432086
    ));
#318 = CARTESIAN_POINT('',(1.456901585902,-2.040971490318,0.203686284763
    ));
#319 = CARTESIAN_POINT('',(1.327368787768,-2.123835797436,0.252754691106
    ));
#320 = CARTESIAN_POINT('',(1.096572414616,-2.249485290004,0.336186623696
    ));
#321 = CARTESIAN_POINT('',(0.995411587521,-2.297642720397,0.371499657826
    ));
#322 = CARTESIAN_POINT('',(0.892014815966,-2.340243840627,0.405507045479
    ));
#323 = CARTESIAN_POINT('',(0.786487528958,-2.377278741163,0.437259366217
    ));
#324 = CARTESIAN_POINT('',(0.678865626974,-2.408703805682,0.465729194098
    ));
#325 = CARTESIAN_POINT('',(0.476962944126,-2.455902024391,0.510199477053
    ));
#326 = CARTESIAN_POINT('',(0.383141054419,-2.473423420062,0.527509872181
    ));
#327 = CARTESIAN_POINT('',(0.288203671162,-2.48666346736,0.541084120315)
  );
#328 = CARTESIAN_POINT('',(0.19253635835,-2.495539766439,0.55035276241)
  );
#329 = CARTESIAN_POINT('',(9.639626754317E-02,-2.5,0.555010040201));
#330 = CARTESIAN_POINT('',(-9.737465265594E-02,-2.5,0.555010040201));
#331 = CARTESIAN_POINT('',(-0.194481263395,-2.495448770117,
    0.550257747849));
#332 = CARTESIAN_POINT('',(-0.291100782104,-2.486392986786,
    0.540801679752));
#333 = CARTESIAN_POINT('',(-0.386971436991,-2.472886535013,
    0.526959607034));
#334 = CARTESIAN_POINT('',(-0.481697360331,-2.455013842404,
    0.509322367625));
#335 = CARTESIAN_POINT('',(-0.683993492161,-2.407233311538,
    0.464393740086));
#336 = CARTESIAN_POINT('',(-0.791166283416,-2.375696069597,
    0.435888535941));
#337 = CARTESIAN_POINT('',(-0.896255232721,-2.338590146349,
    0.404155337503));
#338 = CARTESIAN_POINT('',(-0.999225437749,-2.295957471144,
    0.370209354922));
#339 = CARTESIAN_POINT('',(-1.099974401652,-2.24780548017,0.334987889147
    ));
#340 = CARTESIAN_POINT('',(-1.330485304439,-2.121901568609,
    0.251585243391));
#341 = CARTESIAN_POINT('',(-1.459586250738,-2.038994828636,
    0.202655106659));
#342 = CARTESIAN_POINT('',(-1.58468473616,-1.945106540128,0.154931675509
    ));
#343 = CARTESIAN_POINT('',(-1.704887185804,-1.839932794429,
    0.110768227767));
#344 = CARTESIAN_POINT('',(-1.819059830103,-1.723077366594,
    7.262489352763E-02));
#345 = CARTESIAN_POINT('',(-1.974887256844,-1.534850293694,
    3.037277764617E-02));
#346 = CARTESIAN_POINT('',(-2.022562197217,-1.472787738491,
    1.897285971743E-02));
#347 = CARTESIAN_POINT('',(-2.06847222992,-1.408142337618,
    9.865442903252E-03));
#348 = CARTESIAN_POINT('',(-2.112363566371,-1.341028122407,
    3.416516477712E-03));
#349 = CARTESIAN_POINT('',(-2.154001246949,-1.271588714552,
    -8.45291560627E-17));
#350 = CARTESIAN_POINT('',(-2.193171219946,-1.2,-1.110223024625E-16));
#351 = PCURVE('',#126,#352);
#352 = DEFINITIONAL_REPRESENTATION('',(#353),#396);
#353 = B_SPLINE_CURVE_WITH_KNOTS('',6,(#354,#355,#356,#357,#358,#359,
    #360,#361,#362,#363,#364,#365,#366,#367,#368,#369,#370,#371,#372,
    #373,#374,#375,#376,#377,#378,#379,#380,#381,#382,#383,#384,#385,
    #386,#387,#388,#389,#390,#391,#392,#393,#394,#395),.UNSPECIFIED.,.F.
  ,.F.,(7,5,5,5,5,5,5,5,7),(0.,8.156602904985E-02,0.257509500477,
    0.389208667201,0.499702807474,0.611318420857,0.742574347351,
    0.918772697194,1.),.UNSPECIFIED.);
#354 = CARTESIAN_POINT('',(1.570796326795,7.193171219946));
#355 = CARTESIAN_POINT('',(1.530846285266,7.153825413783));
#356 = CARTESIAN_POINT('',(1.492101883495,7.11199056579));
#357 = CARTESIAN_POINT('',(1.454547140752,7.067883442696));
#358 = CARTESIAN_POINT('',(1.418181633166,7.02174179778));
#359 = CARTESIAN_POINT('',(1.383017307229,6.973822223464));
#360 = CARTESIAN_POINT('',(1.275860061148,6.817786601288));
#361 = CARTESIAN_POINT('',(1.207768876692,6.703355711917));
#362 = CARTESIAN_POINT('',(1.144479972071,6.582621697058));
#363 = CARTESIAN_POINT('',(1.085991220897,6.456901585902));
#364 = CARTESIAN_POINT('',(1.03256015543,6.327368787768));
#365 = CARTESIAN_POINT('',(0.948767564715,6.096572414616));
#366 = CARTESIAN_POINT('',(0.915627215797,5.995411587521));
#367 = CARTESIAN_POINT('',(0.885376946375,5.892014815966));
#368 = CARTESIAN_POINT('',(0.858291707134,5.786487528958));
#369 = CARTESIAN_POINT('',(0.834738596638,5.678865626974));
#370 = CARTESIAN_POINT('',(0.798711866527,5.476962944126));
#371 = CARTESIAN_POINT('',(0.785032299883,5.383141054419));
#372 = CARTESIAN_POINT('',(0.774498903047,5.288203671162));
#373 = CARTESIAN_POINT('',(0.767368975101,5.19253635835));
#374 = CARTESIAN_POINT('',(0.763786496398,5.096396267543));
#375 = CARTESIAN_POINT('',(0.763786496398,4.902625347344));
#376 = CARTESIAN_POINT('',(0.767442060058,4.805518736605));
#377 = CARTESIAN_POINT('',(0.774716176906,4.708899217896));
#378 = CARTESIAN_POINT('',(0.785459354128,4.613028563009));
#379 = CARTESIAN_POINT('',(0.799405152772,4.518302639669));
#380 = CARTESIAN_POINT('',(0.835841977442,4.316006507839));
#381 = CARTESIAN_POINT('',(0.85945440293,4.208833716584));
#382 = CARTESIAN_POINT('',(0.886562577761,4.103744767279));
#383 = CARTESIAN_POINT('',(0.916805350086,4.000774562251));
#384 = CARTESIAN_POINT('',(0.949913376856,3.900025598348));
#385 = CARTESIAN_POINT('',(1.033814767141,3.669514695561));
#386 = CARTESIAN_POINT('',(1.087226103219,3.540413749262));
#387 = CARTESIAN_POINT('',(1.145549636505,3.41531526384));
#388 = CARTESIAN_POINT('',(1.208641136086,3.295112814196));
#389 = CARTESIAN_POINT('',(1.276626608266,3.180940169897));
#390 = CARTESIAN_POINT('',(1.383799412464,3.025112743156));
#391 = CARTESIAN_POINT('',(1.418828530658,2.977437802783));
#392 = CARTESIAN_POINT('',(1.455048558045,2.93152777008));
#393 = CARTESIAN_POINT('',(1.492447321836,2.887636433629));
#394 = CARTESIAN_POINT('',(1.53102481871,2.845998753051));
#395 = CARTESIAN_POINT('',(1.570796326795,2.806828780054));
#396 = ( GEOMETRIC_REPRESENTATION_CONTEXT(2) 
PARAMETRIC_REPRESENTATION_CONTEXT() REPRESENTATION_CONTEXT('2D SPACE',''
  ) );
#397 = PCURVE('',#398,#403);
#398 = CYLINDRICAL_SURFACE('',#399,2.5);
#399 = AXIS2_PLACEMENT_3D('',#400,#401,#402);
#400 = CARTESIAN_POINT('',(0.,0.,4.));
#401 = DIRECTION('',(0.,0.,-1.));
#402 = DIRECTION('',(-1.,0.,0.));
#403 = DEFINITIONAL_REPRESENTATION('',(#404),#447);
#404 = B_SPLINE_CURVE_WITH_KNOTS('',6,(#405,#406,#407,#408,#409,#410,
    #411,#412,#413,#414,#415,#416,#417,#418,#419,#420,#421,#422,#423,
    #424,#425,#426,#427,#428,#429,#430,#431,#432,#433,#434,#435,#436,
    #437,#438,#439,#440,#441,#442,#443,#444,#445,#446),.UNSPECIFIED.,.F.
  ,.F.,(7,5,5,5,5,5,5,5,7),(0.,8.156602904985E-02,0.257509500477,
    0.389208667201,0.499702807474,0.611318420857,0.742574347351,
    0.918772697194,1.),.UNSPECIFIED.);
#405 = CARTESIAN_POINT('',(3.642247365994,4.));
#406 = CARTESIAN_POINT('',(3.675035537797,4.));
#407 = CARTESIAN_POINT('',(3.707540040239,3.996552744386));
#408 = CARTESIAN_POINT('',(3.7397205235,3.990047812496));
#409 = CARTESIAN_POINT('',(3.771538467151,3.980864114011));
#410 = CARTESIAN_POINT('',(3.802954403992,3.969372231462));
#411 = CARTESIAN_POINT('',(3.900731135939,3.926955543065));
#412 = CARTESIAN_POINT('',(3.965978801597,3.888707563714));
#413 = CARTESIAN_POINT('',(4.029819170217,3.844308567914));
#414 = CARTESIAN_POINT('',(4.092372217523,3.796313715237));
#415 = CARTESIAN_POINT('',(4.153727085322,3.747245308894));
#416 = CARTESIAN_POINT('',(4.258840175539,3.663813376304));
#417 = CARTESIAN_POINT('',(4.303589744776,3.628500342174));
#418 = CARTESIAN_POINT('',(4.348225889964,3.594492954521));
#419 = CARTESIAN_POINT('',(4.392865650316,3.562740633783));
#420 = CARTESIAN_POINT('',(4.43764564986,3.534270805902));
#421 = CARTESIAN_POINT('',(4.520584051282,3.489800522947));
#422 = CARTESIAN_POINT('',(4.558722910846,3.472490127819));
#423 = CARTESIAN_POINT('',(4.597004167704,3.458915879685));
#424 = CARTESIAN_POINT('',(4.635374477259,3.44964723759));
#425 = CARTESIAN_POINT('',(4.673830473367,3.444989959799));
#426 = CARTESIAN_POINT('',(4.751338841447,3.444989959799));
#427 = CARTESIAN_POINT('',(4.790181443041,3.449742252151));
#428 = CARTESIAN_POINT('',(4.828935820944,3.459198320248));
#429 = CARTESIAN_POINT('',(4.867599691262,3.473040392966));
#430 = CARTESIAN_POINT('',(4.906118732184,3.490677632375));
#431 = CARTESIAN_POINT('',(4.989263621704,3.535606259914));
#432 = CARTESIAN_POINT('',(5.033884589186,3.564111464059));
#433 = CARTESIAN_POINT('',(5.078369378334,3.595844662497));
#434 = CARTESIAN_POINT('',(5.122853611586,3.629790645078));
#435 = CARTESIAN_POINT('',(5.167454180394,3.665012110853));
#436 = CARTESIAN_POINT('',(5.272515740444,3.748414756609));
#437 = CARTESIAN_POINT('',(5.333733039648,3.797344893341));
#438 = CARTESIAN_POINT('',(5.396044282281,3.845068324491));
#439 = CARTESIAN_POINT('',(5.45965048278,3.889231772233));
#440 = CARTESIAN_POINT('',(5.52477829726,3.927375106472));
#441 = CARTESIAN_POINT('',(5.622522140358,3.969627222354));
#442 = CARTESIAN_POINT('',(5.65380541981,3.981027140283));
#443 = CARTESIAN_POINT('',(5.685487078476,3.990134557097));
#444 = CARTESIAN_POINT('',(5.717527725083,3.996583483522));
#445 = CARTESIAN_POINT('',(5.749888950611,4.));
#446 = CARTESIAN_POINT('',(5.782530594775,4.));
#447 = ( GEOMETRIC_REPRESENTATION_CONTEXT(2) 
PARAMETRIC_REPRESENTATION_CONTEXT() REPRESENTATION_CONTEXT('2D SPACE',''
  ) );
#448 = ORIENTED_EDGE('',*,*,#449,.T.);
#449 = EDGE_CURVE('',#305,#450,#452,.T.);
#450 = VERTEX_POINT('',#451);
#451 = CARTESIAN_POINT('',(5.,-1.2,-2.22044604925E-16));
#452 = SURFACE_CURVE('',#453,(#457,#464),.PCURVE_S1.);
#453 = LINE('',#454,#455);
#454 = CARTESIAN_POINT('',(-5.,-1.2,-2.22044604925E-16));
#455 = VECTOR('',#456,1.);
#456 = DIRECTION('',(1.,0.,0.));
#457 = PCURVE('',#126,#458);
#458 = DEFINITIONAL_REPRESENTATION('',(#459),#463);
#459 = LINE('',#460,#461);
#460 = CARTESIAN_POINT('',(1.570796326795,0.));
#461 = VECTOR('',#462,1.);
#462 = DIRECTION('',(0.,1.));
#463 = ( GEOMETRIC_REPRESENTATION_CONTEXT(2) 
PARAMETRIC_REPRESENTATION_CONTEXT() REPRESENTATION_CONTEXT('2D SPACE',''
  ) );
#464 = PCURVE('',#465,#470);
#465 = PLANE('',#466);
#466 = AXIS2_PLACEMENT_3D('',#467,#468,#469);
#467 = CARTESIAN_POINT('',(0.,0.,0.));
#468 = DIRECTION('',(0.,0.,1.));
#469 = DIRECTION('',(1.,0.,-0.));
#470 = DEFINITIONAL_REPRESENTATION('',(#471),#475);
#471 = LINE('',#472,#473);
#472 = CARTESIAN_POINT('',(-5.,-1.2));
#473 = VECTOR('',#474,1.);
#474 = DIRECTION('',(1.,0.));
#475 = ( GEOMETRIC_REPRESENTATION_CONTEXT(2) 
PARAMETRIC_REPRESENTATION_CONTEXT() REPRESENTATION_CONTEXT('2D SPACE',''
  ) );
#476 = ORIENTED_EDGE('',*,*,#477,.F.);
#477 = EDGE_CURVE('',#85,#450,#478,.T.);
#478 = SURFACE_CURVE('',#479,(#484,#491),.PCURVE_S1.);
#479 = CIRCLE('',#480,1.8);
#480 = AXIS2_PLACEMENT_3D('',#481,#482,#483);
#481 = CARTESIAN_POINT('',(5.,-1.2,1.8));
#482 = DIRECTION('',(1.,0.,0.));
#483 = DIRECTION('',(-0.,0.,1.));
#484 = PCURVE('',#126,#485);
#485 = DEFINITIONAL_REPRESENTATION('',(#486),#490);
#486 = LINE('',#487,#488);
#487 = CARTESIAN_POINT('',(-1.570796326795,10.));
#488 = VECTOR('',#489,1.);
#489 = DIRECTION('',(1.,0.));
#490 = ( GEOMETRIC_REPRESENTATION_CONTEXT(2) 
PARAMETRIC_REPRESENTATION_CONTEXT() REPRESENTATION_CONTEXT('2D SPACE',''
  ) );
#491 = PCURVE('',#100,#492);
#492 = DEFINITIONAL_REPRESENTATION('',(#493),#501);
#493 = ( BOUNDED_CURVE() B_SPLINE_CURVE(2,(#494,#495,#496,#497,#498,#499
,#500),.UNSPECIFIED.,.T.,.F.) B_SPLINE_CURVE_WITH_KNOTS((1,2,2,2,2,1),(
    -2.094395102393,0.,2.094395102393,4.188790204786,6.28318530718,
8.377580409573),.UNSPECIFIED.) CURVE() GEOMETRIC_REPRESENTATION_ITEM() 
RATIONAL_B_SPLINE_CURVE((1.,0.5,1.,0.5,1.,0.5,1.)) REPRESENTATION_ITEM(
  '') );
#494 = CARTESIAN_POINT('',(1.8,-3.6));
#495 = CARTESIAN_POINT('',(-1.317691453624,-3.6));
#496 = CARTESIAN_POINT('',(0.241154273188,-0.9));
#497 = CARTESIAN_POINT('',(1.8,1.8));
#498 = CARTESIAN_POINT('',(3.358845726812,-0.9));
#499 = CARTESIAN_POINT('',(4.917691453624,-3.6));
#500 = CARTESIAN_POINT('',(1.8,-3.6));
#501 = ( GEOMETRIC_REPRESENTATION_CONTEXT(2) 
PARAMETRIC_REPRESENTATION_CONTEXT() REPRESENTATION_CONTEXT('2D SPACE',''
  ) );
#502 = ADVANCED_FACE('',(#503,#551),#72,.T.);
#503 = FACE_BOUND('',#504,.T.);
#504 = EDGE_LOOP('',(#505,#506,#529,#550));
#505 = ORIENTED_EDGE('',*,*,#56,.T.);
#506 = ORIENTED_EDGE('',*,*,#507,.T.);
#507 = EDGE_CURVE('',#57,#508,#510,.T.);
#508 = VERTEX_POINT('',#509);
#509 = CARTESIAN_POINT('',(5.,3.,4.));
#510 = SURFACE_CURVE('',#511,(#515,#522),.PCURVE_S1.);
#511 = LINE('',#512,#513);
#512 = CARTESIAN_POINT('',(5.,-3.,4.));
#513 = VECTOR('',#514,1.);
#514 = DIRECTION('',(0.,1.,0.));
#515 = PCURVE('',#72,#516);
#516 = DEFINITIONAL_REPRESENTATION('',(#517),#521);
#517 = LINE('',#518,#519);
#518 = CARTESIAN_POINT('',(5.,-3.));
#519 = VECTOR('',#520,1.);
#520 = DIRECTION('',(0.,1.));
#521 = ( GEOMETRIC_REPRESENTATION_CONTEXT(2) 
PARAMETRIC_REPRESENTATION_CONTEXT() REPRESENTATION_CONTEXT('2D SPACE',''
  ) );
#522 = PCURVE('',#100,#523);
#523 = DEFINITIONAL_REPRESENTATION('',(#524),#528);
#524 = LINE('',#525,#526);
#525 = CARTESIAN_POINT('',(0.,-4.));
#526 = VECTOR('',#527,1.);
#527 = DIRECTION('',(1.,0.));
#528 = ( GEOMETRIC_REPRESENTATION_CONTEXT(2) 
PARAMETRIC_REPRESENTATION_CONTEXT() REPRESENTATION_CONTEXT('2D SPACE',''
  ) );
#529 = ORIENTED_EDGE('',*,*,#530,.T.);
#530 = EDGE_CURVE('',#508,#144,#531,.T.);
#531 = SURFACE_CURVE('',#532,(#536,#543),.PCURVE_S1.);
#532 = LINE('',#533,#534);
#533 = CARTESIAN_POINT('',(5.,3.,4.));
#534 = VECTOR('',#535,1.);
#535 = DIRECTION('',(-1.,0.,0.));
#536 = PCURVE('',#72,#537);
#537 = DEFINITIONAL_REPRESENTATION('',(#538),#542);
#538 = LINE('',#539,#540);
#539 = CARTESIAN_POINT('',(5.,3.));
#540 = VECTOR('',#541,1.);
#541 = DIRECTION('',(-1.,0.));
#542 = ( GEOMETRIC_REPRESENTATION_CONTEXT(2) 
PARAMETRIC_REPRESENTATION_CONTEXT() REPRESENTATION_CONTEXT('2D SPACE',''
  ) );
#543 = PCURVE('',#159,#544);
#544 = DEFINITIONAL_REPRESENTATION('',(#545),#549);
#545 = LINE('',#546,#547);
#546 = CARTESIAN_POINT('',(0.,-4.));
#547 = VECTOR('',#548,1.);
#548 = DIRECTION('',(1.,0.));
#549 = ( GEOMETRIC_REPRESENTATION_CONTEXT(2) 
PARAMETRIC_REPRESENTATION_CONTEXT() REPRESENTATION_CONTEXT('2D SPACE',''
  ) );
#550 = ORIENTED_EDGE('',*,*,#171,.T.);
#551 = FACE_BOUND('',#552,.T.);
#552 = EDGE_LOOP('',(#553));
#553 = ORIENTED_EDGE('',*,*,#554,.T.);
#554 = EDGE_CURVE('',#555,#555,#557,.T.);
#555 = VERTEX_POINT('',#556);
#556 = CARTESIAN_POINT('',(-2.5,-6.123233995737E-16,4.));
#557 = SURFACE_CURVE('',#558,(#563,#574),.PCURVE_S1.);
#558 = CIRCLE('',#559,2.5);
#559 = AXIS2_PLACEMENT_3D('',#560,#561,#562);
#560 = CARTESIAN_POINT('',(0.,0.,4.));
#561 = DIRECTION('',(0.,0.,-1.));
#562 = DIRECTION('',(-1.,0.,0.));
#563 = PCURVE('',#72,#564);
#564 = DEFINITIONAL_REPRESENTATION('',(#565),#573);
#565 = ( BOUNDED_CURVE() B_SPLINE_CURVE(2,(#566,#567,#568,#569,#570,#571
,#572),.UNSPECIFIED.,.T.,.F.) B_SPLINE_CURVE_WITH_KNOTS((1,2,2,2,2,1),(
    -2.094395102393,0.,2.094395102393,4.188790204786,6.28318530718,
8.377580409573),.UNSPECIFIED.) CURVE() GEOMETRIC_REPRESENTATION_ITEM() 
RATIONAL_B_SPLINE_CURVE((1.,0.5,1.,0.5,1.,0.5,1.)) REPRESENTATION_ITEM(
  '') );
#566 = CARTESIAN_POINT('',(-2.5,0.));
#567 = CARTESIAN_POINT('',(-2.5,4.330127018922));
#568 = CARTESIAN_POINT('',(1.25,2.165063509461));
#569 = CARTESIAN_POINT('',(5.,6.123233995737E-16));
#570 = CARTESIAN_POINT('',(1.25,-2.165063509461));
#571 = CARTESIAN_POINT('',(-2.5,-4.330127018922));
#572 = CARTESIAN_POINT('',(-2.5,0.));
#573 = ( GEOMETRIC_REPRESENTATION_CONTEXT(2) 
PARAMETRIC_REPRESENTATION_CONTEXT() REPRESENTATION_CONTEXT('2D SPACE',''
  ) );
#574 = PCURVE('',#398,#575);
#575 = DEFINITIONAL_REPRESENTATION('',(#576),#580);
#576 = LINE('',#577,#578);
#577 = CARTESIAN_POINT('',(0.,0.));
#578 = VECTOR('',#579,1.);
#579 = DIRECTION('',(1.,0.));
#580 = ( GEOMETRIC_REPRESENTATION_CONTEXT(2) 
PARAMETRIC_REPRESENTATION_CONTEXT() REPRESENTATION_CONTEXT('2D SPACE',''
  ) );
#581 = ADVANCED_FACE('',(#582),#100,.F.);
#582 = FACE_BOUND('',#583,.F.);
#583 = EDGE_LOOP('',(#584,#585,#586,#609,#633,#654));
#584 = ORIENTED_EDGE('',*,*,#84,.T.);
#585 = ORIENTED_EDGE('',*,*,#507,.T.);
#586 = ORIENTED_EDGE('',*,*,#587,.F.);
#587 = EDGE_CURVE('',#588,#508,#590,.T.);
#588 = VERTEX_POINT('',#589);
#589 = CARTESIAN_POINT('',(5.,3.,1.8));
#590 = SURFACE_CURVE('',#591,(#595,#602),.PCURVE_S1.);
#591 = LINE('',#592,#593);
#592 = CARTESIAN_POINT('',(5.,3.,0.));
#593 = VECTOR('',#594,1.);
#594 = DIRECTION('',(0.,0.,1.));
#595 = PCURVE('',#100,#596);
#596 = DEFINITIONAL_REPRESENTATION('',(#597),#601);
#597 = LINE('',#598,#599);
#598 = CARTESIAN_POINT('',(6.,0.));
#599 = VECTOR('',#600,1.);
#600 = DIRECTION('',(0.,-1.));
#601 = ( GEOMETRIC_REPRESENTATION_CONTEXT(2) 
PARAMETRIC_REPRESENTATION_CONTEXT() REPRESENTATION_CONTEXT('2D SPACE',''
  ) );
#602 = PCURVE('',#159,#603);
#603 = DEFINITIONAL_REPRESENTATION('',(#604),#608);
#604 = LINE('',#605,#606);
#605 = CARTESIAN_POINT('',(0.,-0.));
#606 = VECTOR('',#607,1.);
#607 = DIRECTION('',(0.,-1.));
#608 = ( GEOMETRIC_REPRESENTATION_CONTEXT(2) 
PARAMETRIC_REPRESENTATION_CONTEXT() REPRESENTATION_CONTEXT('2D SPACE',''
  ) );
#609 = ORIENTED_EDGE('',*,*,#610,.T.);
#610 = EDGE_CURVE('',#588,#611,#613,.T.);
#611 = VERTEX_POINT('',#612);
#612 = CARTESIAN_POINT('',(5.,1.2,-2.22044604925E-16));
#613 = SURFACE_CURVE('',#614,(#619,#626),.PCURVE_S1.);
#614 = CIRCLE('',#615,1.8);
#615 = AXIS2_PLACEMENT_3D('',#616,#617,#618);
#616 = CARTESIAN_POINT('',(5.,1.2,1.8));
#617 = DIRECTION('',(-1.,0.,0.));
#618 = DIRECTION('',(0.,0.,-1.));
#619 = PCURVE('',#100,#620);
#620 = DEFINITIONAL_REPRESENTATION('',(#621),#625);
#621 = CIRCLE('',#622,1.8);
#622 = AXIS2_PLACEMENT_2D('',#623,#624);
#623 = CARTESIAN_POINT('',(4.2,-1.8));
#624 = DIRECTION('',(0.,1.));
#625 = ( GEOMETRIC_REPRESENTATION_CONTEXT(2) 
PARAMETRIC_REPRESENTATION_CONTEXT() REPRESENTATION_CONTEXT('2D SPACE',''
  ) );
#626 = PCURVE('',#264,#627);
#627 = DEFINITIONAL_REPRESENTATION('',(#628),#632);
#628 = LINE('',#629,#630);
#629 = CARTESIAN_POINT('',(-4.712388980385,0.));
#630 = VECTOR('',#631,1.);
#631 = DIRECTION('',(1.,0.));
#632 = ( GEOMETRIC_REPRESENTATION_CONTEXT(2) 
PARAMETRIC_REPRESENTATION_CONTEXT() REPRESENTATION_CONTEXT('2D SPACE',''
  ) );
#633 = ORIENTED_EDGE('',*,*,#634,.F.);
#634 = EDGE_CURVE('',#450,#611,#635,.T.);
#635 = SURFACE_CURVE('',#636,(#640,#647),.PCURVE_S1.);
#636 = LINE('',#637,#638);
#637 = CARTESIAN_POINT('',(5.,-3.,0.));
#638 = VECTOR('',#639,1.);
#639 = DIRECTION('',(0.,1.,0.));
#640 = PCURVE('',#100,#641);
#641 = DEFINITIONAL_REPRESENTATION('',(#642),#646);
#642 = LINE('',#643,#644);
#643 = CARTESIAN_POINT('',(0.,0.));
#644 = VECTOR('',#645,1.);
#645 = DIRECTION('',(1.,0.));
#646 = ( GEOMETRIC_REPRESENTATION_CONTEXT(2) 
PARAMETRIC_REPRESENTATION_CONTEXT() REPRESENTATION_CONTEXT('2D SPACE',''
  ) );
#647 = PCURVE('',#465,#648);
#648 = DEFINITIONAL_REPRESENTATION('',(#649),#653);
#649 = LINE('',#650,#651);
#650 = CARTESIAN_POINT('',(5.,-3.));
#651 = VECTOR('',#652,1.);
#652 = DIRECTION('',(0.,1.));
#653 = ( GEOMETRIC_REPRESENTATION_CONTEXT(2) 
PARAMETRIC_REPRESENTATION_CONTEXT() REPRESENTATION_CONTEXT('2D SPACE',''
  ) );
#654 = ORIENTED_EDGE('',*,*,#477,.F.);
#655 = ADVANCED_FACE('',(#656),#159,.F.);
#656 = FACE_BOUND('',#657,.F.);
#657 = EDGE_LOOP('',(#658,#659,#660,#661));
#658 = ORIENTED_EDGE('',*,*,#587,.T.);
#659 = ORIENTED_EDGE('',*,*,#530,.T.);
#660 = ORIENTED_EDGE('',*,*,#141,.F.);
#661 = ORIENTED_EDGE('',*,*,#662,.F.);
#662 = EDGE_CURVE('',#588,#142,#663,.T.);
#663 = SURFACE_CURVE('',#664,(#668,#675),.PCURVE_S1.);
#664 = LINE('',#665,#666);
#665 = CARTESIAN_POINT('',(5.,3.,1.8));
#666 = VECTOR('',#667,1.);
#667 = DIRECTION('',(-1.,0.,0.));
#668 = PCURVE('',#159,#669);
#669 = DEFINITIONAL_REPRESENTATION('',(#670),#674);
#670 = LINE('',#671,#672);
#671 = CARTESIAN_POINT('',(0.,-1.8));
#672 = VECTOR('',#673,1.);
#673 = DIRECTION('',(1.,0.));
#674 = ( GEOMETRIC_REPRESENTATION_CONTEXT(2) 
PARAMETRIC_REPRESENTATION_CONTEXT() REPRESENTATION_CONTEXT('2D SPACE',''
  ) );
#675 = PCURVE('',#264,#676);
#676 = DEFINITIONAL_REPRESENTATION('',(#677),#681);
#677 = LINE('',#678,#679);
#678 = CARTESIAN_POINT('',(0.,0.));
#679 = VECTOR('',#680,1.);
#680 = DIRECTION('',(0.,1.));
#681 = ( GEOMETRIC_REPRESENTATION_CONTEXT(2) 
PARAMETRIC_REPRESENTATION_CONTEXT() REPRESENTATION_CONTEXT('2D SPACE',''
  ) );
#682 = ADVANCED_FACE('',(#683),#264,.T.);
#683 = FACE_BOUND('',#684,.T.);
#684 = EDGE_LOOP('',(#685,#686,#687,#710,#850,#871));
#685 = ORIENTED_EDGE('',*,*,#662,.F.);
#686 = ORIENTED_EDGE('',*,*,#610,.T.);
#687 = ORIENTED_EDGE('',*,*,#688,.T.);
#688 = EDGE_CURVE('',#611,#689,#691,.T.);
#689 = VERTEX_POINT('',#690);
#690 = CARTESIAN_POINT('',(2.193171219946,1.2,-2.22044604925E-16));
#691 = SURFACE_CURVE('',#692,(#696,#703),.PCURVE_S1.);
#692 = LINE('',#693,#694);
#693 = CARTESIAN_POINT('',(5.,1.2,-2.22044604925E-16));
#694 = VECTOR('',#695,1.);
#695 = DIRECTION('',(-1.,0.,0.));
#696 = PCURVE('',#264,#697);
#697 = DEFINITIONAL_REPRESENTATION('',(#698),#702);
#698 = LINE('',#699,#700);
#699 = CARTESIAN_POINT('',(1.570796326795,0.));
#700 = VECTOR('',#701,1.);
#701 = DIRECTION('',(0.,1.));
#702 = ( GEOMETRIC_REPRESENTATION_CONTEXT(2) 
PARAMETRIC_REPRESENTATION_CONTEXT() REPRESENTATION_CONTEXT('2D SPACE',''
  ) );
#703 = PCURVE('',#465,#704);
#704 = DEFINITIONAL_REPRESENTATION('',(#705),#709);
#705 = LINE('',#706,#707);
#706 = CARTESIAN_POINT('',(5.,1.2));
#707 = VECTOR('',#708,1.);
#708 = DIRECTION('',(-1.,0.));
#709 = ( GEOMETRIC_REPRESENTATION_CONTEXT(2) 
PARAMETRIC_REPRESENTATION_CONTEXT() REPRESENTATION_CONTEXT('2D SPACE',''
  ) );
#710 = ORIENTED_EDGE('',*,*,#711,.F.);
#711 = EDGE_CURVE('',#712,#689,#714,.T.);
#712 = VERTEX_POINT('',#713);
#713 = CARTESIAN_POINT('',(-2.193171219946,1.2,-2.22044604925E-16));
#714 = SURFACE_CURVE('',#715,(#758,#804),.PCURVE_S1.);
#715 = B_SPLINE_CURVE_WITH_KNOTS('',6,(#716,#717,#718,#719,#720,#721,
    #722,#723,#724,#725,#726,#727,#728,#729,#730,#731,#732,#733,#734,
    #735,#736,#737,#738,#739,#740,#741,#742,#743,#744,#745,#746,#747,
    #748,#749,#750,#751,#752,#753,#754,#755,#756,#757),.UNSPECIFIED.,.F.
  ,.F.,(7,5,5,5,5,5,5,5,7),(0.,8.156602901091E-02,0.257509500538,
    0.38920866725,0.499702807515,0.611318420889,0.742574347372,
    0.9187726972,1.),.UNSPECIFIED.);
#716 = CARTESIAN_POINT('',(-2.193171219946,1.2,-1.110223024625E-16));
#717 = CARTESIAN_POINT('',(-2.15382541377,1.271910074776,
    -1.287636848445E-16));
#718 = CARTESIAN_POINT('',(-2.111990565792,1.341649907376,
    3.447255616109E-03));
#719 = CARTESIAN_POINT('',(-2.067883442711,1.409042137526,
    9.952187501849E-03));
#720 = CARTESIAN_POINT('',(-2.021741797787,1.47394227131,
    1.913588598627E-02));
#721 = CARTESIAN_POINT('',(-1.973822223449,1.536235902221,
    3.062776854229E-02));
#722 = CARTESIAN_POINT('',(-1.81778660121,1.724397250083,
    7.304445695619E-02));
#723 = CARTESIAN_POINT('',(-1.703355711843,1.84141347753,0.111292436317)
  );
#724 = CARTESIAN_POINT('',(-1.582621697051,1.946886782718,0.15569143209)
  );
#725 = CARTESIAN_POINT('',(-1.45690158597,2.040971490265,0.203686284735)
  );
#726 = CARTESIAN_POINT('',(-1.327368787853,2.12383579739,0.252754691075)
  );
#727 = CARTESIAN_POINT('',(-1.096572414616,2.249485290004,0.336186623696
    ));
#728 = CARTESIAN_POINT('',(-0.995411587521,2.297642720397,0.371499657826
    ));
#729 = CARTESIAN_POINT('',(-0.892014815966,2.340243840627,0.405507045479
    ));
#730 = CARTESIAN_POINT('',(-0.786487528958,2.377278741163,0.437259366217
    ));
#731 = CARTESIAN_POINT('',(-0.678865626974,2.408703805682,0.465729194098
    ));
#732 = CARTESIAN_POINT('',(-0.476962944126,2.455902024391,0.510199477053
    ));
#733 = CARTESIAN_POINT('',(-0.383141054419,2.473423420062,0.527509872181
    ));
#734 = CARTESIAN_POINT('',(-0.288203671162,2.48666346736,0.541084120315)
  );
#735 = CARTESIAN_POINT('',(-0.19253635835,2.495539766439,0.55035276241)
  );
#736 = CARTESIAN_POINT('',(-9.63962675431E-02,2.5,0.555010040201));
#737 = CARTESIAN_POINT('',(9.737465265578E-02,2.5,0.555010040201));
#738 = CARTESIAN_POINT('',(0.194481263395,2.495448770117,0.550257747849)
  );
#739 = CARTESIAN_POINT('',(0.291100782104,2.486392986786,0.540801679752)
  );
#740 = CARTESIAN_POINT('',(0.386971436991,2.472886535014,0.526959607034)
  );
#741 = CARTESIAN_POINT('',(0.481697360331,2.455013842404,0.509322367625)
  );
#742 = CARTESIAN_POINT('',(0.683993492161,2.407233311538,0.464393740086)
  );
#743 = CARTESIAN_POINT('',(0.791166283416,2.375696069597,0.435888535941)
  );
#744 = CARTESIAN_POINT('',(0.89625523272,2.338590146349,0.404155337504)
  );
#745 = CARTESIAN_POINT('',(0.999225437749,2.295957471144,0.370209354922)
  );
#746 = CARTESIAN_POINT('',(1.099974401652,2.24780548017,0.334987889147)
  );
#747 = CARTESIAN_POINT('',(1.330485304438,2.121901568609,0.251585243392)
  );
#748 = CARTESIAN_POINT('',(1.459586250737,2.038994828637,0.202655106659)
  );
#749 = CARTESIAN_POINT('',(1.584684736161,1.945106540128,0.154931675509)
  );
#750 = CARTESIAN_POINT('',(1.704887185805,1.839932794428,0.110768227767)
  );
#751 = CARTESIAN_POINT('',(1.819059830104,1.723077366593,
    7.262489352739E-02));
#752 = CARTESIAN_POINT('',(1.974887256844,1.534850293694,
    3.037277764617E-02));
#753 = CARTESIAN_POINT('',(2.022562197217,1.472787738491,
    1.897285971743E-02));
#754 = CARTESIAN_POINT('',(2.06847222992,1.408142337618,
    9.865442903251E-03));
#755 = CARTESIAN_POINT('',(2.112363566371,1.341028122407,
    3.416516477709E-03));
#756 = CARTESIAN_POINT('',(2.154001246949,1.271588714552,
    -1.286844000624E-16));
#757 = CARTESIAN_POINT('',(2.193171219946,1.2,-1.110223024625E-16));
#758 = PCURVE('',#264,#759);
#759 = DEFINITIONAL_REPRESENTATION('',(#760),#803);
#760 = B_SPLINE_CURVE_WITH_KNOTS('',6,(#761,#762,#763,#764,#765,#766,
    #767,#768,#769,#770,#771,#772,#773,#774,#775,#776,#777,#778,#779,
    #780,#781,#782,#783,#784,#785,#786,#787,#788,#789,#790,#791,#792,
    #793,#794,#795,#796,#797,#798,#799,#800,#801,#802),.UNSPECIFIED.,.F.
  ,.F.,(7,5,5,5,5,5,5,5,7),(0.,8.156602901091E-02,0.257509500538,
    0.38920866725,0.499702807515,0.611318420889,0.742574347372,
    0.9187726972,1.),.UNSPECIFIED.);
#761 = CARTESIAN_POINT('',(1.570796326795,7.193171219946));
#762 = CARTESIAN_POINT('',(1.530846285253,7.15382541377));
#763 = CARTESIAN_POINT('',(1.492101883499,7.111990565792));
#764 = CARTESIAN_POINT('',(1.454547140765,7.067883442711));
#765 = CARTESIAN_POINT('',(1.418181633169,7.021741797787));
#766 = CARTESIAN_POINT('',(1.383017307218,6.973822223449));
#767 = CARTESIAN_POINT('',(1.275860061095,6.81778660121));
#768 = CARTESIAN_POINT('',(1.207768876656,6.703355711843));
#769 = CARTESIAN_POINT('',(1.144479972076,6.582621697051));
#770 = CARTESIAN_POINT('',(1.08599122093,6.45690158597));
#771 = CARTESIAN_POINT('',(1.032560155461,6.327368787853));
#772 = CARTESIAN_POINT('',(0.948767564715,6.096572414616));
#773 = CARTESIAN_POINT('',(0.915627215797,5.995411587521));
#774 = CARTESIAN_POINT('',(0.885376946375,5.892014815966));
#775 = CARTESIAN_POINT('',(0.858291707134,5.786487528958));
#776 = CARTESIAN_POINT('',(0.834738596638,5.678865626974));
#777 = CARTESIAN_POINT('',(0.798711866527,5.476962944126));
#778 = CARTESIAN_POINT('',(0.785032299883,5.383141054419));
#779 = CARTESIAN_POINT('',(0.774498903046,5.288203671162));
#780 = CARTESIAN_POINT('',(0.767368975101,5.19253635835));
#781 = CARTESIAN_POINT('',(0.763786496398,5.096396267543));
#782 = CARTESIAN_POINT('',(0.763786496398,4.902625347344));
#783 = CARTESIAN_POINT('',(0.767442060058,4.805518736605));
#784 = CARTESIAN_POINT('',(0.774716176906,4.708899217896));
#785 = CARTESIAN_POINT('',(0.785459354128,4.613028563009));
#786 = CARTESIAN_POINT('',(0.799405152772,4.518302639669));
#787 = CARTESIAN_POINT('',(0.835841977442,4.316006507839));
#788 = CARTESIAN_POINT('',(0.85945440293,4.208833716584));
#789 = CARTESIAN_POINT('',(0.886562577761,4.103744767279));
#790 = CARTESIAN_POINT('',(0.916805350086,4.000774562251));
#791 = CARTESIAN_POINT('',(0.949913376856,3.900025598348));
#792 = CARTESIAN_POINT('',(1.03381476714,3.669514695562));
#793 = CARTESIAN_POINT('',(1.087226103218,3.540413749263));
#794 = CARTESIAN_POINT('',(1.145549636505,3.415315263839));
#795 = CARTESIAN_POINT('',(1.208641136087,3.295112814195));
#796 = CARTESIAN_POINT('',(1.276626608267,3.180940169896));
#797 = CARTESIAN_POINT('',(1.383799412464,3.025112743156));
#798 = CARTESIAN_POINT('',(1.418828530658,2.977437802783));
#799 = CARTESIAN_POINT('',(1.455048558045,2.93152777008));
#800 = CARTESIAN_POINT('',(1.492447321836,2.887636433629));
#801 = CARTESIAN_POINT('',(1.53102481871,2.845998753051));
#802 = CARTESIAN_POINT('',(1.570796326795,2.806828780054));
#803 = ( GEOMETRIC_REPRESENTATION_CONTEXT(2) 
PARAMETRIC_REPRESENTATION_CONTEXT() REPRESENTATION_CONTEXT('2D SPACE',''
  ) );
#804 = PCURVE('',#398,#805);
#805 = DEFINITIONAL_REPRESENTATION('',(#806),#849);
#806 = B_SPLINE_CURVE_WITH_KNOTS('',6,(#807,#808,#809,#810,#811,#812,
    #813,#814,#815,#816,#817,#818,#819,#820,#821,#822,#823,#824,#825,
    #826,#827,#828,#829,#830,#831,#832,#833,#834,#835,#836,#837,#838,
    #839,#840,#841,#842,#843,#844,#845,#846,#847,#848),.UNSPECIFIED.,.F.
  ,.F.,(7,5,5,5,5,5,5,5,7),(0.,8.156602901091E-02,0.257509500538,
    0.38920866725,0.499702807515,0.611318420889,0.742574347372,
    0.9187726972,1.),.UNSPECIFIED.);
#807 = CARTESIAN_POINT('',(0.500654712405,4.));
#808 = CARTESIAN_POINT('',(0.533442884218,4.));
#809 = CARTESIAN_POINT('',(0.565947386646,3.996552744384));
#810 = CARTESIAN_POINT('',(0.598127869899,3.990047812498));
#811 = CARTESIAN_POINT('',(0.629945813558,3.980864114014));
#812 = CARTESIAN_POINT('',(0.661361750412,3.969372231458));
#813 = CARTESIAN_POINT('',(0.759138482398,3.926955543044));
#814 = CARTESIAN_POINT('',(0.824386148044,3.888707563683));
#815 = CARTESIAN_POINT('',(0.888226516627,3.84430856791));
#816 = CARTESIAN_POINT('',(0.950779563899,3.796313715265));
#817 = CARTESIAN_POINT('',(1.012134431694,3.747245308925));
#818 = CARTESIAN_POINT('',(1.117247521949,3.663813376304));
#819 = CARTESIAN_POINT('',(1.161997091186,3.628500342174));
#820 = CARTESIAN_POINT('',(1.206633236375,3.594492954521));
#821 = CARTESIAN_POINT('',(1.251272996726,3.562740633783));
#822 = CARTESIAN_POINT('',(1.29605299627,3.534270805902));
#823 = CARTESIAN_POINT('',(1.378991397692,3.489800522947));
#824 = CARTESIAN_POINT('',(1.417130257256,3.472490127819));
#825 = CARTESIAN_POINT('',(1.455411514114,3.458915879685));
#826 = CARTESIAN_POINT('',(1.493781823669,3.44964723759));
#827 = CARTESIAN_POINT('',(1.532237819778,3.444989959799));
#828 = CARTESIAN_POINT('',(1.609746187857,3.444989959799));
#829 = CARTESIAN_POINT('',(1.648588789452,3.449742252151));
#830 = CARTESIAN_POINT('',(1.687343167355,3.459198320248));
#831 = CARTESIAN_POINT('',(1.726007037672,3.473040392966));
#832 = CARTESIAN_POINT('',(1.764526078594,3.490677632375));
#833 = CARTESIAN_POINT('',(1.847670968114,3.535606259914));
#834 = CARTESIAN_POINT('',(1.892291935596,3.564111464059));
#835 = CARTESIAN_POINT('',(1.936776724744,3.595844662496));
#836 = CARTESIAN_POINT('',(1.981260957996,3.629790645078));
#837 = CARTESIAN_POINT('',(2.025861526804,3.665012110853));
#838 = CARTESIAN_POINT('',(2.130923086853,3.748414756608));
#839 = CARTESIAN_POINT('',(2.192140386058,3.797344893341));
#840 = CARTESIAN_POINT('',(2.254451628691,3.845068324491));
#841 = CARTESIAN_POINT('',(2.318057829191,3.889231772233));
#842 = CARTESIAN_POINT('',(2.383185643671,3.927375106473));
#843 = CARTESIAN_POINT('',(2.480929486768,3.969627222354));
#844 = CARTESIAN_POINT('',(2.51221276622,3.981027140283));
#845 = CARTESIAN_POINT('',(2.543894424886,3.990134557097));
#846 = CARTESIAN_POINT('',(2.575935071493,3.996583483522));
#847 = CARTESIAN_POINT('',(2.608296297021,4.));
#848 = CARTESIAN_POINT('',(2.640937941185,4.));
#849 = ( GEOMETRIC_REPRESENTATION_CONTEXT(2) 
PARAMETRIC_REPRESENTATION_CONTEXT() REPRESENTATION_CONTEXT('2D SPACE',''
  ) );
#850 = ORIENTED_EDGE('',*,*,#851,.T.);
#851 = EDGE_CURVE('',#712,#218,#852,.T.);
#852 = SURFACE_CURVE('',#853,(#857,#864),.PCURVE_S1.);
#853 = LINE('',#854,#855);
#854 = CARTESIAN_POINT('',(5.,1.2,-2.22044604925E-16));
#855 = VECTOR('',#856,1.);
#856 = DIRECTION('',(-1.,0.,0.));
#857 = PCURVE('',#264,#858);
#858 = DEFINITIONAL_REPRESENTATION('',(#859),#863);
#859 = LINE('',#860,#861);
#860 = CARTESIAN_POINT('',(1.570796326795,0.));
#861 = VECTOR('',#862,1.);
#862 = DIRECTION('',(0.,1.));
#863 = ( GEOMETRIC_REPRESENTATION_CONTEXT(2) 
PARAMETRIC_REPRESENTATION_CONTEXT() REPRESENTATION_CONTEXT('2D SPACE',''
  ) );
#864 = PCURVE('',#233,#865);
#865 = DEFINITIONAL_REPRESENTATION('',(#866),#870);
#866 = LINE('',#867,#868);
#867 = CARTESIAN_POINT('',(5.,1.2));
#868 = VECTOR('',#869,1.);
#869 = DIRECTION('',(-1.,0.));
#870 = ( GEOMETRIC_REPRESENTATION_CONTEXT(2) 
PARAMETRIC_REPRESENTATION_CONTEXT() REPRESENTATION_CONTEXT('2D SPACE',''
  ) );
#871 = ORIENTED_EDGE('',*,*,#245,.F.);
#872 = ADVANCED_FACE('',(#873),#233,.F.);
#873 = FACE_BOUND('',#874,.F.);
#874 = EDGE_LOOP('',(#875,#876,#904,#930,#931));
#875 = ORIENTED_EDGE('',*,*,#281,.T.);
#876 = ORIENTED_EDGE('',*,*,#877,.T.);
#877 = EDGE_CURVE('',#282,#878,#880,.T.);
#878 = VERTEX_POINT('',#879);
#879 = CARTESIAN_POINT('',(-2.5,-6.123233995737E-16,0.));
#880 = SURFACE_CURVE('',#881,(#886,#897),.PCURVE_S1.);
#881 = CIRCLE('',#882,2.5);
#882 = AXIS2_PLACEMENT_3D('',#883,#884,#885);
#883 = CARTESIAN_POINT('',(0.,0.,0.));
#884 = DIRECTION('',(0.,0.,-1.));
#885 = DIRECTION('',(-1.,0.,0.));
#886 = PCURVE('',#233,#887);
#887 = DEFINITIONAL_REPRESENTATION('',(#888),#896);
#888 = ( BOUNDED_CURVE() B_SPLINE_CURVE(2,(#889,#890,#891,#892,#893,#894
,#895),.UNSPECIFIED.,.T.,.F.) B_SPLINE_CURVE_WITH_KNOTS((1,2,2,2,2,1),(
    -2.094395102393,0.,2.094395102393,4.188790204786,6.28318530718,
8.377580409573),.UNSPECIFIED.) CURVE() GEOMETRIC_REPRESENTATION_ITEM() 
RATIONAL_B_SPLINE_CURVE((1.,0.5,1.,0.5,1.,0.5,1.)) REPRESENTATION_ITEM(
  '') );
#889 = CARTESIAN_POINT('',(-2.5,0.));
#890 = CARTESIAN_POINT('',(-2.5,4.330127018922));
#891 = CARTESIAN_POINT('',(1.25,2.165063509461));
#892 = CARTESIAN_POINT('',(5.,6.123233995737E-16));
#893 = CARTESIAN_POINT('',(1.25,-2.165063509461));
#894 = CARTESIAN_POINT('',(-2.5,-4.330127018922));
#895 = CARTESIAN_POINT('',(-2.5,0.));
#896 = ( GEOMETRIC_REPRESENTATION_CONTEXT(2) 
PARAMETRIC_REPRESENTATION_CONTEXT() REPRESENTATION_CONTEXT('2D SPACE',''
  ) );
#897 = PCURVE('',#398,#898);
#898 = DEFINITIONAL_REPRESENTATION('',(#899),#903);
#899 = LINE('',#900,#901);
#900 = CARTESIAN_POINT('',(0.,4.));
#901 = VECTOR('',#902,1.);
#902 = DIRECTION('',(1.,0.));
#903 = ( GEOMETRIC_REPRESENTATION_CONTEXT(2) 
PARAMETRIC_REPRESENTATION_CONTEXT() REPRESENTATION_CONTEXT('2D SPACE',''
  ) );
#904 = ORIENTED_EDGE('',*,*,#905,.T.);
#905 = EDGE_CURVE('',#878,#712,#906,.T.);
#906 = SURFACE_CURVE('',#907,(#912,#923),.PCURVE_S1.);
#907 = CIRCLE('',#908,2.5);
#908 = AXIS2_PLACEMENT_3D('',#909,#910,#911);
#909 = CARTESIAN_POINT('',(0.,0.,0.));
#910 = DIRECTION('',(0.,0.,-1.));
#911 = DIRECTION('',(-1.,0.,0.));
#912 = PCURVE('',#233,#913);
#913 = DEFINITIONAL_REPRESENTATION('',(#914),#922);
#914 = ( BOUNDED_CURVE() B_SPLINE_CURVE(2,(#915,#916,#917,#918,#919,#920
,#921),.UNSPECIFIED.,.T.,.F.) B_SPLINE_CURVE_WITH_KNOTS((1,2,2,2,2,1),(
    -2.094395102393,0.,2.094395102393,4.188790204786,6.28318530718,
8.377580409573),.UNSPECIFIED.) CURVE() GEOMETRIC_REPRESENTATION_ITEM() 
RATIONAL_B_SPLINE_CURVE((1.,0.5,1.,0.5,1.,0.5,1.)) REPRESENTATION_ITEM(
  '') );
#915 = CARTESIAN_POINT('',(-2.5,0.));
#916 = CARTESIAN_POINT('',(-2.5,4.330127018922));
#917 = CARTESIAN_POINT('',(1.25,2.165063509461));
#918 = CARTESIAN_POINT('',(5.,6.123233995737E-16));
#919 = CARTESIAN_POINT('',(1.25,-2.165063509461));
#920 = CARTESIAN_POINT('',(-2.5,-4.330127018922));
#921 = CARTESIAN_POINT('',(-2.5,0.));
#922 = ( GEOMETRIC_REPRESENTATION_CONTEXT(2) 
PARAMETRIC_REPRESENTATION_CONTEXT() REPRESENTATION_CONTEXT('2D SPACE',''
  ) );
#923 = PCURVE('',#398,#924);
#924 = DEFINITIONAL_REPRESENTATION('',(#925),#929);
#925 = LINE('',#926,#927);
#926 = CARTESIAN_POINT('',(0.,4.));
#927 = VECTOR('',#928,1.);
#928 = DIRECTION('',(1.,0.));
#929 = ( GEOMETRIC_REPRESENTATION_CONTEXT(2) 
PARAMETRIC_REPRESENTATION_CONTEXT() REPRESENTATION_CONTEXT('2D SPACE',''
  ) );
#930 = ORIENTED_EDGE('',*,*,#851,.T.);
#931 = ORIENTED_EDGE('',*,*,#217,.T.);
#932 = ADVANCED_FACE('',(#933),#465,.F.);
#933 = FACE_BOUND('',#934,.F.);
#934 = EDGE_LOOP('',(#935,#936,#937,#938));
#935 = ORIENTED_EDGE('',*,*,#449,.T.);
#936 = ORIENTED_EDGE('',*,*,#634,.T.);
#937 = ORIENTED_EDGE('',*,*,#688,.T.);
#938 = ORIENTED_EDGE('',*,*,#939,.T.);
#939 = EDGE_CURVE('',#689,#305,#940,.T.);
#940 = SURFACE_CURVE('',#941,(#946,#957),.PCURVE_S1.);
#941 = CIRCLE('',#942,2.5);
#942 = AXIS2_PLACEMENT_3D('',#943,#944,#945);
#943 = CARTESIAN_POINT('',(0.,0.,0.));
#944 = DIRECTION('',(0.,0.,-1.));
#945 = DIRECTION('',(-1.,0.,0.));
#946 = PCURVE('',#465,#947);
#947 = DEFINITIONAL_REPRESENTATION('',(#948),#956);
#948 = ( BOUNDED_CURVE() B_SPLINE_CURVE(2,(#949,#950,#951,#952,#953,#954
,#955),.UNSPECIFIED.,.T.,.F.) B_SPLINE_CURVE_WITH_KNOTS((1,2,2,2,2,1),(
    -2.094395102393,0.,2.094395102393,4.188790204786,6.28318530718,
8.377580409573),.UNSPECIFIED.) CURVE() GEOMETRIC_REPRESENTATION_ITEM() 
RATIONAL_B_SPLINE_CURVE((1.,0.5,1.,0.5,1.,0.5,1.)) REPRESENTATION_ITEM(
  '') );
#949 = CARTESIAN_POINT('',(-2.5,0.));
#950 = CARTESIAN_POINT('',(-2.5,4.330127018922));
#951 = CARTESIAN_POINT('',(1.25,2.165063509461));
#952 = CARTESIAN_POINT('',(5.,6.123233995737E-16));
#953 = CARTESIAN_POINT('',(1.25,-2.165063509461));
#954 = CARTESIAN_POINT('',(-2.5,-4.330127018922));
#955 = CARTESIAN_POINT('',(-2.5,0.));
#956 = ( GEOMETRIC_REPRESENTATION_CONTEXT(2) 
PARAMETRIC_REPRESENTATION_CONTEXT() REPRESENTATION_CONTEXT('2D SPACE',''
  ) );
#957 = PCURVE('',#398,#958);
#958 = DEFINITIONAL_REPRESENTATION('',(#959),#963);
#959 = LINE('',#960,#961);
#960 = CARTESIAN_POINT('',(0.,4.));
#961 = VECTOR('',#962,1.);
#962 = DIRECTION('',(1.,0.));
#963 = ( GEOMETRIC_REPRESENTATION_CONTEXT(2) 
PARAMETRIC_REPRESENTATION_CONTEXT() REPRESENTATION_CONTEXT('2D SPACE',''
  ) );
#964 = ADVANCED_FACE('',(#965),#398,.F.);
#965 = FACE_BOUND('',#966,.F.);
#966 = EDGE_LOOP('',(#967,#968,#989,#990,#991,#992,#993,#994));
#967 = ORIENTED_EDGE('',*,*,#905,.F.);
#968 = ORIENTED_EDGE('',*,*,#969,.F.);
#969 = EDGE_CURVE('',#555,#878,#970,.T.);
#970 = SEAM_CURVE('',#971,(#975,#982),.PCURVE_S1.);
#971 = LINE('',#972,#973);
#972 = CARTESIAN_POINT('',(-2.5,-6.123233995737E-16,4.));
#973 = VECTOR('',#974,1.);
#974 = DIRECTION('',(0.,0.,-1.));
#975 = PCURVE('',#398,#976);
#976 = DEFINITIONAL_REPRESENTATION('',(#977),#981);
#977 = LINE('',#978,#979);
#978 = CARTESIAN_POINT('',(6.28318530718,-0.));
#979 = VECTOR('',#980,1.);
#980 = DIRECTION('',(0.,1.));
#981 = ( GEOMETRIC_REPRESENTATION_CONTEXT(2) 
PARAMETRIC_REPRESENTATION_CONTEXT() REPRESENTATION_CONTEXT('2D SPACE',''
  ) );
#982 = PCURVE('',#398,#983);
#983 = DEFINITIONAL_REPRESENTATION('',(#984),#988);
#984 = LINE('',#985,#986);
#985 = CARTESIAN_POINT('',(0.,-0.));
#986 = VECTOR('',#987,1.);
#987 = DIRECTION('',(0.,1.));
#988 = ( GEOMETRIC_REPRESENTATION_CONTEXT(2) 
PARAMETRIC_REPRESENTATION_CONTEXT() REPRESENTATION_CONTEXT('2D SPACE',''
  ) );
#989 = ORIENTED_EDGE('',*,*,#554,.T.);
#990 = ORIENTED_EDGE('',*,*,#969,.T.);
#991 = ORIENTED_EDGE('',*,*,#877,.F.);
#992 = ORIENTED_EDGE('',*,*,#304,.F.);
#993 = ORIENTED_EDGE('',*,*,#939,.F.);
#994 = ORIENTED_EDGE('',*,*,#711,.F.);
#995 = ( GEOMETRIC_REPRESENTATION_CONTEXT(3) 
GLOBAL_UNCERTAINTY_ASSIGNED_CONTEXT((#999)) GLOBAL_UNIT_ASSIGNED_CONTEXT
((#996,#997,#998)) REPRESENTATION_CONTEXT('Context #1',
  '3D Context with UNIT and UNCERTAINTY') );
#996 = ( LENGTH_UNIT() NAMED_UNIT(*) SI_UNIT(.MILLI.,.METRE.) );
#997 = ( NAMED_UNIT(*) PLANE_ANGLE_UNIT() SI_UNIT($,.RADIAN.) );
#998 = ( NAMED_UNIT(*) SI_UNIT($,.STERADIAN.) SOLID_ANGLE_UNIT() );
#999 = UNCERTAINTY_MEASURE_WITH_UNIT(LENGTH_MEASURE(1.E-07),#996,
  'distance_accuracy_value','confusion accuracy');
#1000 = PRODUCT_RELATED_PRODUCT_CATEGORY('part',$,(#7));
ENDSEC;
END-ISO-10303-21;
