<?xml version="1.0" encoding="UTF-8" standalone="no"?>
<svg
   xmlns:svg="http://www.w3.org/2000/svg"
   xmlns="http://www.w3.org/2000/svg"
   width="1400.0"
   height="1100.0"

>
    <g transform="scale(3.0701754376987784, -3.0701754376987784)   translate(345.9085714297143,-49.908571429714286)" stroke-width="0.4"  fill="none">
       <!-- hidden lines -->
       <g  stroke="rgb(170,170,170)" fill="none" stroke-dasharray="0.4,0.4" >
			<path d="M-18.0,19.5 L-18.0,18.1586713132984 L-18.0,16.0315958429403 L-18.0,13.210814613326232 L-18.0,9.818386102211928 L-18.0,6.0011046287082 L-18.0,1.9241483927156378 L-18.0,-2.236067977499791 L-18.0,-6.299527091028105 L-18.0,-10.09039835575785 L-18.0,-13.444646372175193 L-18.0,-16.217128935489196 L-18.0,-18.28787750729296 L-18.0,-19.56728839346243 L-18.0,-19.99999999999999 " />
			<path d="M-18.0,-3.499999999999997 L-18.0,-3.004114844846141 L-18.0,-2.506332731504352 L-18.0,-2.0069679861254204 L-18.0,-1.5063359342183342 L-18.0,-1.0047527015369524 L-18.0,-0.5025350144613592 L-18.0,4.9616764784565453e-14 L-18.0,0.5025350144614584 L-18.0,1.0047527015370514 L-18.0,1.5063359342184328 L-18.0,2.006967986125519 L-18.0,2.506332731504451 L-18.0,3.004114844846239 L-18.0,3.4999999999998317 " />
			<path d="M-40.0,19.5 L-18.0,19.5 " />
			<path d="M-40.0,19.5 L-18.0,19.5 " />
			<path d="M-40.0,19.5 L-40.0,18.1586713132984 L-40.0,16.0315958429403 L-40.0,13.210814613326232 L-40.0,9.818386102211928 L-40.0,6.0011046287082 L-40.0,1.9241483927156378 L-40.0,-2.236067977499791 L-40.0,-6.299527091028105 L-40.0,-10.09039835575785 L-40.0,-13.444646372175193 L-40.0,-16.217128935489196 L-40.0,-18.28787750729296 L-40.0,-19.56728839346243 L-40.0,-19.99999999999999 " />
			<path d="M-36.0,-19.5 L-22.0,-19.5 " />
			<path d="M-22.0,-19.5 L-22.0,-19.568628791959433 L-22.0,-19.632244754012742 L-22.0,-19.69083158987261 L-22.0,-19.744374291546094 L-22.0,-19.79285914317916 L-22.0,-19.83627372457022 L-22.0,-19.874606914351794 L-22.0,-19.907848892839414 L-22.0,-19.935991144547117 L-22.0,-19.95902646036881 L-22.0,-19.976948939425014 L-22.0,-19.989753990574474 L-22.0,-19.99743833359025 L-22.0,-20.0 " />
			<path d="M-22.0,-20.0 L-22.0,-19.997438333590246 L-22.0,-19.98975399057447 L-22.0,-19.97694893942501 L-22.0,-19.959026460368804 L-22.0,-19.93599114454711 L-22.0,-19.90784889283941 L-22.0,-19.874606914351787 L-22.0,-19.836273724570216 L-22.0,-19.792859143179154 L-22.0,-19.74437429154609 L-22.0,-19.690831589872605 L-22.0,-19.63224475401273 L-22.0,-19.568628791959423 L-22.0,-19.500000000000018 " />
			<path d="M-36.0,-19.5 L-22.0,-19.5 " />
			<path d="M-36.0,-19.5 L-36.0,-19.568628791959433 L-36.0,-19.632244754012742 L-36.0,-19.69083158987261 L-36.0,-19.744374291546094 L-36.0,-19.79285914317916 L-36.0,-19.83627372457022 L-36.0,-19.874606914351794 L-36.0,-19.907848892839414 L-36.0,-19.935991144547117 L-36.0,-19.95902646036881 L-36.0,-19.976948939425014 L-36.0,-19.989753990574474 L-36.0,-19.99743833359025 L-36.0,-20.0 " />
			<path d="M-36.0,-20.0 L-36.0,-19.997438333590246 L-36.0,-19.98975399057447 L-36.0,-19.97694893942501 L-36.0,-19.959026460368804 L-36.0,-19.93599114454711 L-36.0,-19.90784889283941 L-36.0,-19.874606914351787 L-36.0,-19.836273724570216 L-36.0,-19.792859143179154 L-36.0,-19.74437429154609 L-36.0,-19.690831589872605 L-36.0,-19.63224475401273 L-36.0,-19.568628791959423 L-36.0,-19.500000000000018 " />
			<path d="M-18.0,13.500000000000094 L-18.0,13.161526814454714 L-18.0,12.163079716682752 L-18.0,10.554725013318496 L-18.0,8.417112325092997 L-18.0,5.857430478087131 L-18.0,3.00403260841034 L-18.0,9.568409181339784e-14 L-18.0,-3.0040326084101485 L-18.0,-5.857430478086939 L-18.0,-8.417112325092807 L-18.0,-10.554725013318308 L-18.0,-12.163079716682562 L-18.0,-13.161526814454525 L-18.0,-13.499999999999899 " />
			<path d="M-18.0,-13.499999999999906 L-18.0,-13.161526814454525 L-18.0,-12.163079716682564 L-18.0,-10.55472501331831 L-18.0,-8.41711232509281 L-18.0,-5.8574304780869415 L-18.0,-3.004032608410152 L-18.0,9.237754545569998e-14 L-18.0,3.0040326084103373 L-18.0,5.857430478087127 L-18.0,8.417112325092996 L-18.0,10.554725013318494 L-18.0,12.16307971668275 L-18.0,13.161526814454712 L-18.0,13.50000000000008 " />
			<path d="M-17.5,19.5 L-40.5,19.5 " />
			<path d="M-29.0,19.5 L-29.13435737132397,19.5 L-29.267025120747576,19.5 L-29.396334874346202,19.5 L-29.52066048694107,19.5 L-29.638438491818405,19.5 L-29.74818776223048,19.5 L-29.848528137423855,19.5 L-29.938197778961637,19.5 L-30.01606903907394,19.5 L-30.0811626414829,19.5 L-30.13265999637004,19.5 L-30.16991349461819,19.5 L-30.19245465187189,19.5 L-30.2,19.5 " />
			<path d="M-30.2,19.5 L-30.16991349461819,19.5 L-30.0811626414829,19.5 L-29.938197778961637,19.5 L-29.74818776223048,19.5 L-29.52066048694107,19.5 L-29.267025120747576,19.5 L-29.0,19.5 L-28.732974879252424,19.5 L-28.47933951305893,19.5 L-28.25181223776952,19.5 L-28.061802221038363,19.5 L-27.9188373585171,19.5 L-27.83008650538181,19.5 L-27.8,19.5 " />
			<path d="M-27.8,19.5 L-27.80754534812811,19.5 L-27.83008650538181,19.5 L-27.86734000362996,19.5 L-27.9188373585171,19.5 L-27.98393096092606,19.5 L-28.061802221038363,19.5 L-28.15147186257614,19.5 L-28.25181223776952,19.5 L-28.361561508181595,19.5 L-28.47933951305893,19.5 L-28.603665125653798,19.5 L-28.732974879252424,19.5 L-28.86564262867603,19.5 L-28.99999999999999,19.5 " />
			<path d="M-29.0,19.5 L-29.13435737132397,19.5 L-29.267025120747576,19.5 L-29.396334874346202,19.5 L-29.52066048694107,19.5 L-29.638438491818405,19.5 L-29.74818776223048,19.5 L-29.848528137423855,19.5 L-29.938197778961637,19.5 L-30.01606903907394,19.5 L-30.0811626414829,19.5 L-30.13265999637004,19.5 L-30.16991349461819,19.5 L-30.19245465187189,19.5 L-30.2,19.5 " />
			<path d="M-30.2,19.5 L-30.16991349461819,19.5 L-30.0811626414829,19.5 L-29.938197778961637,19.5 L-29.74818776223048,19.5 L-29.52066048694107,19.5 L-29.267025120747576,19.5 L-29.0,19.5 L-28.732974879252424,19.5 L-28.47933951305893,19.5 L-28.25181223776952,19.5 L-28.061802221038363,19.5 L-27.9188373585171,19.5 L-27.83008650538181,19.5 L-27.8,19.5 " />
			<path d="M-27.8,19.5 L-27.80754534812811,19.5 L-27.83008650538181,19.5 L-27.86734000362996,19.5 L-27.9188373585171,19.5 L-27.98393096092606,19.5 L-28.061802221038363,19.5 L-28.15147186257614,19.5 L-28.25181223776952,19.5 L-28.361561508181595,19.5 L-28.47933951305893,19.5 L-28.603665125653798,19.5 L-28.732974879252424,19.5 L-28.86564262867603,19.5 L-28.99999999999999,19.5 " />
			<path d="M-40.0,13.500000000000094 L-40.0,13.161526814454714 L-40.0,12.163079716682752 L-40.0,10.554725013318496 L-40.0,8.417112325092997 L-40.0,5.857430478087131 L-40.0,3.00403260841034 L-40.0,9.568409181339784e-14 L-40.0,-3.0040326084101485 L-40.0,-5.857430478086939 L-40.0,-8.417112325092807 L-40.0,-10.554725013318308 L-40.0,-12.163079716682562 L-40.0,-13.161526814454525 L-40.0,-13.499999999999899 " />
			<path d="M-40.0,-13.499999999999906 L-40.0,-13.161526814454525 L-40.0,-12.163079716682564 L-40.0,-10.55472501331831 L-40.0,-8.41711232509281 L-40.0,-5.8574304780869415 L-40.0,-3.004032608410152 L-40.0,9.237754545569998e-14 L-40.0,3.0040326084103373 L-40.0,5.857430478087127 L-40.0,8.417112325092996 L-40.0,10.554725013318494 L-40.0,12.16307971668275 L-40.0,13.161526814454712 L-40.0,13.50000000000008 " />
			<path d="M-22.0,-19.5 L-22.0,-21.5 " />
			<path d="M-22.0,-19.5 L-36.0,-19.5 " />
			<path d="M-36.0,-19.5 L-36.0,-21.5 " />
			<path d="M-18.0,13.500000000000094 L-40.0,13.500000000000094 " />
			<path d="M-17.5,24.0 L-40.5,24.0 " />
			<path d="M-17.5,24.0 L-17.5,19.5 " />
			<path d="M-40.5,24.0 L-40.5,19.5 " />
			<path d="M-29.0,24.0 L-29.13435737132397,24.0 L-29.267025120747576,24.0 L-29.396334874346202,24.0 L-29.52066048694107,24.0 L-29.638438491818405,24.0 L-29.74818776223048,24.0 L-29.848528137423855,24.0 L-29.938197778961637,24.0 L-30.01606903907394,24.0 L-30.0811626414829,24.0 L-30.13265999637004,24.0 L-30.16991349461819,24.0 L-30.19245465187189,24.0 L-30.2,24.0 " />
			<path d="M-30.2,24.0 L-30.16991349461819,24.0 L-30.0811626414829,24.0 L-29.938197778961637,24.0 L-29.74818776223048,24.0 L-29.52066048694107,24.0 L-29.267025120747576,24.0 L-29.0,24.0 L-28.732974879252424,24.0 L-28.47933951305893,24.0 L-28.25181223776952,24.0 L-28.061802221038363,24.0 L-27.9188373585171,24.0 L-27.83008650538181,24.0 L-27.8,24.0 " />
			<path d="M-27.8,24.0 L-27.80754534812811,24.0 L-27.83008650538181,24.0 L-27.86734000362996,24.0 L-27.9188373585171,24.0 L-27.98393096092606,24.0 L-28.061802221038363,24.0 L-28.15147186257614,24.0 L-28.25181223776952,24.0 L-28.361561508181595,24.0 L-28.47933951305893,24.0 L-28.603665125653798,24.0 L-28.732974879252424,24.0 L-28.86564262867603,24.0 L-28.99999999999999,24.0 " />
			<path d="M-29.0,24.0 L-29.13435737132397,24.0 L-29.267025120747576,24.0 L-29.396334874346202,24.0 L-29.52066048694107,24.0 L-29.638438491818405,24.0 L-29.74818776223048,24.0 L-29.848528137423855,24.0 L-29.938197778961637,24.0 L-30.01606903907394,24.0 L-30.0811626414829,24.0 L-30.13265999637004,24.0 L-30.16991349461819,24.0 L-30.19245465187189,24.0 L-30.2,24.0 " />
			<path d="M-30.2,24.0 L-30.16991349461819,24.0 L-30.0811626414829,24.0 L-29.938197778961637,24.0 L-29.74818776223048,24.0 L-29.52066048694107,24.0 L-29.267025120747576,24.0 L-29.0,24.0 L-28.732974879252424,24.0 L-28.47933951305893,24.0 L-28.25181223776952,24.0 L-28.061802221038363,24.0 L-27.9188373585171,24.0 L-27.83008650538181,24.0 L-27.8,24.0 " />
			<path d="M-27.8,24.0 L-27.80754534812811,24.0 L-27.83008650538181,24.0 L-27.86734000362996,24.0 L-27.9188373585171,24.0 L-27.98393096092606,24.0 L-28.061802221038363,24.0 L-28.15147186257614,24.0 L-28.25181223776952,24.0 L-28.361561508181595,24.0 L-28.47933951305893,24.0 L-28.603665125653798,24.0 L-28.732974879252424,24.0 L-28.86564262867603,24.0 L-28.99999999999999,24.0 " />
			<path d="M-22.0,-21.5 L-36.0,-21.5 " />
			<path d="M-29.0,-21.5 L-29.5822152757372,-21.5 L-30.157108856572833,-21.5 L-30.717451122166867,-21.5 L-31.2561954434113,-21.5 L-31.76656679787975,-21.5 L-32.24214696966541,-21.5 L-32.67695526217005,-21.5 L-33.06552370883375,-21.5 L-33.402965835987075,-21.5 L-33.68503811309258,-21.5 L-33.90819331760351,-21.5 L-34.06962514334548,-21.5 L-34.16730349144486,-21.5 L-34.2,-21.5 " />
			<path d="M-34.2,-21.5 L-34.06962514334548,-21.5 L-33.68503811309258,-21.5 L-33.06552370883376,-21.5 L-32.24214696966541,-21.5 L-31.256195443411304,-21.5 L-30.157108856572837,-21.5 L-29.0,-21.5 L-27.842891143427167,-21.5 L-26.7438045565887,-21.5 L-25.757853030334587,-21.5 L-24.934476291166245,-21.5 L-24.31496188690742,-21.5 L-23.930374856654517,-21.5 L-23.800000000000004,-21.5 " />
			<path d="M-23.8,-21.5 L-23.832696508555138,-21.5 L-23.930374856654517,-21.5 L-24.091806682396488,-21.5 L-24.31496188690742,-21.5 L-24.59703416401292,-21.5 L-24.934476291166245,-21.5 L-25.323044737829953,-21.5 L-25.757853030334584,-21.5 L-26.23343320212025,-21.5 L-26.743804556588696,-21.5 L-27.28254887783313,-21.5 L-27.842891143427163,-21.5 L-28.4177847242628,-21.5 L-28.999999999999954,-21.5 " />
			<path d="M-33.8,24.0 L-24.199999999999996,24.0 " />
			<path d="M-24.2,24.0 L-33.8,24.0 " />
			<path d="M-29.0,-20.9 L-29.5822152757372,-20.9 L-30.157108856572833,-20.9 L-30.717451122166867,-20.9 L-31.2561954434113,-20.9 L-31.76656679787975,-20.9 L-32.24214696966541,-20.9 L-32.67695526217005,-20.9 L-33.06552370883375,-20.9 L-33.402965835987075,-20.9 L-33.68503811309258,-20.9 L-33.90819331760351,-20.9 L-34.06962514334548,-20.9 L-34.16730349144486,-20.9 L-34.2,-20.9 " />
			<path d="M-34.2,-20.9 L-34.06962514334548,-20.9 L-33.68503811309258,-20.9 L-33.06552370883376,-20.9 L-32.24214696966541,-20.9 L-31.256195443411304,-20.9 L-30.157108856572837,-20.9 L-29.0,-20.9 L-27.842891143427167,-20.9 L-26.7438045565887,-20.9 L-25.757853030334587,-20.9 L-24.934476291166245,-20.9 L-24.31496188690742,-20.9 L-23.930374856654517,-20.9 L-23.800000000000004,-20.9 " />
			<path d="M-23.8,-20.9 L-23.832696508555138,-20.9 L-23.930374856654517,-20.9 L-24.091806682396488,-20.9 L-24.31496188690742,-20.9 L-24.59703416401292,-20.9 L-24.934476291166245,-20.9 L-25.323044737829953,-20.9 L-25.757853030334584,-20.9 L-26.23343320212025,-20.9 L-26.743804556588696,-20.9 L-27.28254887783313,-20.9 L-27.842891143427163,-20.9 L-28.4177847242628,-20.9 L-28.999999999999954,-20.9 " />
			<path d="M-33.8,27.0 L-33.8,37.0 " />
			<path d="M-24.2,27.0 L-24.2,37.0 " />
			<path d="M-33.8,24.0 L-33.8,46.0 " />
			<path d="M-24.2,24.0 L-24.2,46.0 " />
			<path d="M-24.2,46.0 L-33.8,46.0 " />
			<path d="M-29.0,19.81003533565753 L-29.233539143271773,19.81141186785692 L-29.466060419329793,19.815516961857057 L-29.696672696943107,19.822281730573966 L-29.924384105138152,19.831590600311102 L-30.148068931489973,19.84327498721582 L-30.366431597351504,19.857105418340314 L-30.577967347967025,19.872782411504186 L-30.780919295416034,19.889926428155764 L-31.155672342669178,19.92697727428873 L-31.466108984691385,19.962945505853924 L-31.749999999989665,19.99999999999858 " />
			<path d="M-31.74999999998984,19.999999999998604 L-31.74877080731099,19.99983101999197 L-31.745111020121772,19.99932834397663 L-31.73067593849199,19.997352093185025 L-31.674672923656228,19.9897817774447 L-31.466179590368867,19.962954228213146 L-31.15583518729699,19.92699489131365 L-30.781128847923686,19.88994519226187 L-30.57817939623635,19.872799249806466 L-30.366640917541886,19.85711982356371 L-30.148272531994753,19.843286768078492 L-29.924580808303805,19.831599769760324 L-29.696862483199048,19.82228840152696 L-29.466243627785705,19.815521272184256 L-29.233715618582874,19.81141394955533 L-29.000168271044203,19.810035336372174 L-28.766619017071697,19.811410004073554 L-28.534087137857437,19.815513491858024 L-28.303463820105062,19.82227693302942 L-28.07574098669804,19.831584769964625 L-27.852044403698212,19.843268430317917 L-27.633669710817852,19.857098447255247 L-27.422121737625393,19.872775338006885 L-27.21915746764384,19.88991955502692 L-26.844380855767984,19.926971519420867 L-26.533920404097266,19.962941875355135 L-26.250000000121254,19.999999999983327 " />
			<path d="M-26.250000000118703,19.99999999998368 L-26.251225197707463,19.999831569386817 L-26.254875634529295,19.99933017671297 L-26.2692841342097,19.997357547046935 L-26.325244192793352,19.989792866985656 L-26.53380157051868,19.962956557503503 L-26.844018349768536,19.927010733216804 L-27.217831197790268,19.890038345637567 L-27.420891214232096,19.872873082769807 L-27.632561823404096,19.857174706663486 L-27.851075611540896,19.843324498545343 L-28.07492028504568,19.831623039198078 L-28.30279579411989,19.82230041717219 L-28.533575830524825,19.815525518248556 L-28.766272128767085,19.811414097544667 L-28.999999999999982,19.81003533565753 " />
			<path d="M-29.0,24.0 L-29.307902309284096,24.0 L-29.611932568379864,24.0 L-29.90826742037671,24.0 L-30.193180282573284,24.0 L-30.463088210417176,24.0 L-30.714596955111517,24.0 L-30.944543648263007,24.0 L-31.15003657678708,24.0 L-31.328491547877782,24.0 L-31.477664386731654,24.0 L-31.595679158348013,24.0 L-31.681051758500015,24.0 L-31.732708577206417,24.0 L-31.75,24.0 " />
			<path d="M-31.75,24.0 L-31.681051758500015,24.0 L-31.477664386731654,24.0 L-31.15003657678708,24.0 L-30.714596955111517,24.0 L-30.193180282573284,24.0 L-29.611932568379864,24.0 L-29.0,24.0 L-28.388067431620136,24.0 L-27.806819717426716,24.0 L-27.285403044888483,24.0 L-26.84996342321292,24.0 L-26.522335613268346,24.0 L-26.318948241499985,24.0 L-26.250000000000004,24.0 " />
			<path d="M-26.25,24.0 L-26.267291422793583,24.0 L-26.318948241499985,24.0 L-26.404320841651987,24.0 L-26.522335613268346,24.0 L-26.671508452122218,24.0 L-26.84996342321292,24.0 L-27.055456351736993,24.0 L-27.285403044888483,24.0 L-27.536911789582824,24.0 L-27.806819717426716,24.0 L-28.09173257962329,24.0 L-28.388067431620136,24.0 L-28.692097690715904,24.0 L-28.999999999999975,24.0 " />
			<path d="M-291.0,7.0 L-295.0,7.0 " />
			<path d="M-270.0,7.0 L-270.0,6.8244953852727654 L-270.0,6.306782075316934 L-270.0,5.472820377276209 L-270.0,4.364428613011135 L-270.0,3.0371861738229073 L-270.0,1.5576465376942012 L-270.0,4.286263797015736e-16 L-270.0,-1.5576465376942004 L-270.0,-3.0371861738229065 L-270.0,-4.3644286130111345 L-270.0,-5.472820377276209 L-270.0,-6.306782075316933 L-270.0,-6.8244953852727654 L-270.0,-6.9999999999999964 " />
			<path d="M-295.0,7.0 L-295.0,6.8244953852727654 L-295.0,6.306782075316934 L-295.0,5.472820377276209 L-295.0,4.364428613011135 L-295.0,3.0371861738229073 L-295.0,1.5576465376942012 L-295.0,4.286263797015736e-16 L-295.0,-1.5576465376942004 L-295.0,-3.0371861738229065 L-295.0,-4.3644286130111345 L-295.0,-5.472820377276209 L-295.0,-6.306782075316933 L-295.0,-6.8244953852727654 L-295.0,-6.9999999999999964 " />
			<path d="M-295.0,-7.0 L-295.0,-6.8244953852727654 L-295.0,-6.306782075316934 L-295.0,-5.472820377276209 L-295.0,-4.364428613011136 L-295.0,-3.0371861738229082 L-295.0,-1.5576465376942021 L-295.0,-1.2858791391047208e-15 L-295.0,1.5576465376941995 L-295.0,3.0371861738229056 L-295.0,4.364428613011134 L-295.0,5.472820377276208 L-295.0,6.306782075316933 L-295.0,6.824495385272765 L-295.0,6.999999999999993 " />
			<path d="M-270.0,4.0 L-270.0,3.8997116487272945 L-270.0,3.6038754716096766 L-270.0,3.127325929872119 L-270.0,2.4939592074349344 L-270.0,1.7355349564702327 L-270.0,0.8900837358252578 L-270.0,2.4492935982947064e-16 L-270.0,-0.8900837358252573 L-270.0,-1.7355349564702323 L-270.0,-2.493959207434934 L-270.0,-3.127325929872119 L-270.0,-3.603875471609676 L-270.0,-3.8997116487272945 L-270.0,-3.9999999999999982 " />
			<path d="M-270.0,-4.0 L-270.0,-3.8997116487272945 L-270.0,-3.6038754716096766 L-270.0,-3.1273259298721197 L-270.0,-2.493959207434935 L-270.0,-1.7355349564702331 L-270.0,-0.8900837358252583 L-270.0,-7.347880794884119e-16 L-270.0,0.8900837358252569 L-270.0,1.7355349564702318 L-270.0,2.4939592074349335 L-270.0,3.1273259298721188 L-270.0,3.603875471609676 L-270.0,3.899711648727294 L-270.0,3.999999999999996 " />
			<path d="M-295.0,2.5 L-295.0,2.437319780454559 L-295.0,2.252422169756048 L-295.0,1.9545787061700746 L-295.0,1.5587245046468339 L-295.0,1.0847093477938954 L-295.0,0.5563023348907861 L-295.0,1.5308084989341916e-16 L-295.0,-0.5563023348907858 L-295.0,-1.0847093477938952 L-295.0,-1.5587245046468337 L-295.0,-1.9545787061700746 L-295.0,-2.2524221697560476 L-295.0,-2.437319780454559 L-295.0,-2.4999999999999987 " />
			<path d="M-295.0,-2.5 L-295.0,-2.437319780454559 L-295.0,-2.252422169756048 L-295.0,-1.9545787061700748 L-295.0,-1.5587245046468343 L-295.0,-1.0847093477938956 L-295.0,-0.5563023348907865 L-295.0,-4.592425496802574e-16 L-295.0,0.5563023348907856 L-295.0,1.084709347793895 L-295.0,1.5587245046468334 L-295.0,1.9545787061700741 L-295.0,2.2524221697560476 L-295.0,2.4373197804545588 L-295.0,2.4999999999999973 " />
			<path d="M-264.0,4.0 L-264.0,3.8997116487272945 L-264.0,3.6038754716096766 L-264.0,3.127325929872119 L-264.0,2.4939592074349344 L-264.0,1.7355349564702327 L-264.0,0.8900837358252578 L-264.0,2.4492935982947064e-16 L-264.0,-0.8900837358252573 L-264.0,-1.7355349564702323 L-264.0,-2.493959207434934 L-264.0,-3.127325929872119 L-264.0,-3.603875471609676 L-264.0,-3.8997116487272945 L-264.0,-3.9999999999999982 " />
			<path d="M-264.0,-4.0 L-264.0,-3.8997116487272945 L-264.0,-3.6038754716096766 L-264.0,-3.1273259298721197 L-264.0,-2.493959207434935 L-264.0,-1.7355349564702331 L-264.0,-0.8900837358252583 L-264.0,-7.347880794884119e-16 L-264.0,0.8900837358252569 L-264.0,1.7355349564702318 L-264.0,2.4939592074349335 L-264.0,3.1273259298721188 L-264.0,3.603875471609676 L-264.0,3.899711648727294 L-264.0,3.999999999999996 " />
			<path d="M-295.0,2.5 L-295.49999999999994,2.5 " />
			<path d="M-295.49999999999994,2.5 L-295.49999999999994,2.437319780454559 L-295.49999999999994,2.252422169756048 L-295.49999999999994,1.9545787061700746 L-295.49999999999994,1.5587245046468339 L-295.49999999999994,1.0847093477938954 L-295.49999999999994,0.5563023348907861 L-295.49999999999994,1.5308084989341916e-16 L-295.49999999999994,-0.5563023348907858 L-295.49999999999994,-1.0847093477938952 L-295.49999999999994,-1.5587245046468337 L-295.49999999999994,-1.9545787061700746 L-295.49999999999994,-2.2524221697560476 L-295.49999999999994,-2.437319780454559 L-295.49999999999994,-2.4999999999999987 " />
			<path d="M-295.49999999999994,-2.5 L-295.49999999999994,-2.437319780454559 L-295.49999999999994,-2.252422169756048 L-295.49999999999994,-1.9545787061700748 L-295.49999999999994,-1.5587245046468343 L-295.49999999999994,-1.0847093477938956 L-295.49999999999994,-0.5563023348907865 L-295.49999999999994,-4.592425496802574e-16 L-295.49999999999994,0.5563023348907856 L-295.49999999999994,1.084709347793895 L-295.49999999999994,1.5587245046468334 L-295.49999999999994,1.9545787061700741 L-295.49999999999994,2.2524221697560476 L-295.49999999999994,2.4373197804545588 L-295.49999999999994,2.4999999999999973 " />
			<path d="M-264.0,12.5 L-264.0,12.186598902272795 L-264.0,11.262110848780239 L-264.0,9.772893530850373 L-264.0,7.79362252323417 L-264.0,5.423546738969478 L-264.0,2.7815116744539305 L-264.0,7.654042494670958e-16 L-264.0,-2.781511674453929 L-264.0,-5.423546738969476 L-264.0,-7.793622523234169 L-264.0,-9.772893530850373 L-264.0,-11.262110848780239 L-264.0,-12.186598902272795 L-264.0,-12.499999999999995 " />
			<path d="M-295.5,11.0 L-295.5,10.72420703400006 L-295.5,9.910657546926611 L-295.5,8.600146307148329 L-295.5,6.85838782044607 L-295.5,4.77272113029314 L-295.5,2.447730273519459 L-295.5,6.735557395310443e-16 L-295.5,-2.4477302735194577 L-295.5,-4.772721130293139 L-295.5,-6.858387820446068 L-295.5,-8.600146307148329 L-295.5,-9.91065754692661 L-295.5,-10.72420703400006 L-295.5,-10.999999999999995 " />
			<path d="M-295.5,-11.0 L-295.5,-10.72420703400006 L-295.5,-9.910657546926611 L-295.5,-8.600146307148329 L-295.5,-6.858387820446071 L-295.5,-4.772721130293141 L-295.5,-2.4477302735194604 L-295.5,-2.0206672185931327e-15 L-295.5,2.4477302735194564 L-295.5,4.772721130293138 L-295.5,6.858387820446067 L-295.5,8.600146307148327 L-295.5,9.91065754692661 L-295.5,10.72420703400006 L-295.5,10.99999999999999 " />
			<path d="M-18.0,12.5 L-40.0,12.5 " />
			<path d="M-14.0,12.5 L-14.0,12.186598902272795 L-14.0,11.262110848780239 L-14.0,9.772893530850373 L-14.0,7.79362252323417 L-14.0,5.423546738969478 L-14.0,2.7815116744539305 L-14.0,7.654042494670958e-16 L-14.0,-2.781511674453929 L-14.0,-5.423546738969476 L-14.0,-7.793622523234169 L-14.0,-9.772893530850373 L-14.0,-11.262110848780239 L-14.0,-12.186598902272795 L-14.0,-12.499999999999995 " />
			<path d="M-14.0,-3.5000000000000044 L-14.0,-3.0107530736702293 L-14.0,-2.516558185694022 L-14.0,-2.0182275107305916 L-14.0,-1.516580020315173 L-14.0,-1.0124401369367153 L-14.0,-0.5066363791573046 L-14.0,1.9908247744101844e-14 L-14.0,0.5066363791573444 L-14.0,1.012440136936755 L-14.0,1.5165800203152124 L-14.0,2.0182275107306307 L-14.0,2.516558185694061 L-14.0,3.010753073670268 L-14.0,3.4999999999998934 " />
			<path d="M-295.5,11.0 L-297.0,11.0 " />
			<path d="M-297.0,11.0 L-297.0,10.72420703400006 L-297.0,9.910657546926611 L-297.0,8.600146307148329 L-297.0,6.85838782044607 L-297.0,4.77272113029314 L-297.0,2.447730273519459 L-297.0,6.735557395310443e-16 L-297.0,-2.4477302735194577 L-297.0,-4.772721130293139 L-297.0,-6.858387820446068 L-297.0,-8.600146307148329 L-297.0,-9.91065754692661 L-297.0,-10.72420703400006 L-297.0,-10.999999999999995 " />
			<path d="M-297.0,-11.0 L-297.0,-10.72420703400006 L-297.0,-9.910657546926611 L-297.0,-8.600146307148329 L-297.0,-6.858387820446071 L-297.0,-4.772721130293141 L-297.0,-2.4477302735194604 L-297.0,-2.0206672185931327e-15 L-297.0,2.4477302735194564 L-297.0,4.772721130293138 L-297.0,6.858387820446067 L-297.0,8.600146307148327 L-297.0,9.91065754692661 L-297.0,10.72420703400006 L-297.0,10.99999999999999 " />
			<path d="M-14.0,1.5 L-14.0,1.4623918682727355 L-14.0,1.3514533018536288 L-14.0,1.1727472237020446 L-14.0,0.9352347027881004 L-14.0,0.6508256086763373 L-14.0,0.3337814009344717 L-14.0,9.184850993605148e-17 L-14.0,-0.3337814009344715 L-14.0,-0.6508256086763371 L-14.0,-0.9352347027881003 L-14.0,-1.1727472237020446 L-14.0,-1.3514533018536286 L-14.0,-1.4623918682727355 L-14.0,-1.4999999999999993 " />
			<path d="M-14.0,-1.5 L-14.0,-1.4623918682727355 L-14.0,-1.3514533018536288 L-14.0,-1.1727472237020449 L-14.0,-0.9352347027881005 L-14.0,-0.6508256086763374 L-14.0,-0.3337814009344719 L-14.0,-2.755455298081545e-16 L-14.0,0.33378140093447134 L-14.0,0.6508256086763369 L-14.0,0.9352347027881001 L-14.0,1.1727472237020446 L-14.0,1.3514533018536286 L-14.0,1.4623918682727353 L-14.0,1.4999999999999984 " />
			<path d="M-297.0,-11.5 L-297.0,-11.21167099009097 L-297.0,-10.36114198087782 L-297.0,-8.991062048382343 L-297.0,-7.1701327213754364 L-297.0,-4.989662999851919 L-297.0,-2.558990740497616 L-297.0,-7.041719095097281e-16 L-297.0,2.558990740497615 L-297.0,4.989662999851918 L-297.0,7.170132721375435 L-297.0,8.991062048382343 L-297.0,10.361141980877818 L-297.0,11.21167099009097 L-297.0,11.499999999999995 " />
			<path d="M-297.0,11.5 L-297.0,11.21167099009097 L-297.0,10.36114198087782 L-297.0,8.991062048382345 L-297.0,7.170132721375437 L-297.0,4.98966299985192 L-297.0,2.5589907404976175 L-297.0,2.112515728529184e-15 L-297.0,-2.5589907404976135 L-297.0,-4.989662999851917 L-297.0,-7.170132721375434 L-297.0,-8.991062048382341 L-297.0,-10.361141980877818 L-297.0,-11.21167099009097 L-297.0,-11.49999999999999 " />
			<path d="M-12.0,1.5 L-12.0,1.4623918682727355 L-12.0,1.3514533018536288 L-12.0,1.1727472237020446 L-12.0,0.9352347027881004 L-12.0,0.6508256086763373 L-12.0,0.3337814009344717 L-12.0,9.184850993605148e-17 L-12.0,-0.3337814009344715 L-12.0,-0.6508256086763371 L-12.0,-0.9352347027881003 L-12.0,-1.1727472237020446 L-12.0,-1.3514533018536286 L-12.0,-1.4623918682727355 L-12.0,-1.4999999999999993 " />
			<path d="M-291.0,-11.5 L-291.0,-11.21167099009097 L-291.0,-10.36114198087782 L-291.0,-8.991062048382343 L-291.0,-7.1701327213754364 L-291.0,-4.989662999851919 L-291.0,-2.558990740497616 L-291.0,-7.041719095097281e-16 L-291.0,2.558990740497615 L-291.0,4.989662999851918 L-291.0,7.170132721375435 L-291.0,8.991062048382343 L-291.0,10.361141980877818 L-291.0,11.21167099009097 L-291.0,11.499999999999995 " />
			<path d="M-291.0,11.5 L-291.0,11.21167099009097 L-291.0,10.36114198087782 L-291.0,8.991062048382345 L-291.0,7.170132721375437 L-291.0,4.98966299985192 L-291.0,2.5589907404976175 L-291.0,2.112515728529184e-15 L-291.0,-2.5589907404976135 L-291.0,-4.989662999851917 L-291.0,-7.170132721375434 L-291.0,-8.991062048382341 L-291.0,-10.361141980877818 L-291.0,-11.21167099009097 L-291.0,-11.49999999999999 " />
			<path d="M-297.0,-11.5 L-291.0,-11.5 " />
			<path d="M-291.0,-40.0 L-291.0,40.0 " />
			<path d="M-291.0,-27.0 L-291.0,-27.125360439090883 L-291.0,-27.495155660487903 L-291.0,-28.09084258765985 L-291.0,-28.88255099070633 L-291.0,-29.83058130441221 L-291.0,-30.88739533021843 L-291.0,-32.0 L-291.0,-33.112604669781575 L-291.0,-34.169418695587794 L-291.0,-35.117449009293665 L-291.0,-35.90915741234015 L-291.0,-36.5048443395121 L-291.0,-36.87463956090912 L-291.0,-37.0 " />
			<path d="M-291.0,-37.0 L-291.0,-36.87463956090912 L-291.0,-36.5048443395121 L-291.0,-35.90915741234015 L-291.0,-35.117449009293665 L-291.0,-34.169418695587794 L-291.0,-33.112604669781575 L-291.0,-32.0 L-291.0,-30.88739533021843 L-291.0,-29.83058130441221 L-291.0,-28.882550990706335 L-291.0,-28.09084258765985 L-291.0,-27.495155660487903 L-291.0,-27.125360439090883 L-291.0,-27.000000000000004 " />
			<path d="M-291.0,-13.0 L-291.0,-12.962391868272736 L-291.0,-12.85145330185363 L-291.0,-12.672747223702045 L-291.0,-12.435234702788101 L-291.0,-12.150825608676337 L-291.0,-11.833781400934472 L-291.0,-11.5 L-291.0,-11.166218599065528 L-291.0,-10.849174391323663 L-291.0,-10.564765297211899 L-291.0,-10.327252776297955 L-291.0,-10.148546698146372 L-291.0,-10.037608131727264 L-291.0,-10.0 " />
			<path d="M-291.0,-10.0 L-291.0,-10.037608131727264 L-291.0,-10.14854669814637 L-291.0,-10.327252776297955 L-291.0,-10.564765297211899 L-291.0,-10.849174391323663 L-291.0,-11.166218599065528 L-291.0,-11.5 L-291.0,-11.833781400934472 L-291.0,-12.150825608676337 L-291.0,-12.435234702788101 L-291.0,-12.672747223702045 L-291.0,-12.851453301853628 L-291.0,-12.962391868272736 L-291.0,-12.999999999999998 " />
			<path d="M-291.0,37.0 L-291.0,36.87463956090912 L-291.0,36.5048443395121 L-291.0,35.90915741234015 L-291.0,35.117449009293665 L-291.0,34.169418695587794 L-291.0,33.112604669781575 L-291.0,32.0 L-291.0,30.88739533021843 L-291.0,29.83058130441221 L-291.0,28.88255099070633 L-291.0,28.09084258765985 L-291.0,27.495155660487903 L-291.0,27.125360439090883 L-291.0,27.000000000000004 " />
			<path d="M-291.0,27.0 L-291.0,27.125360439090883 L-291.0,27.495155660487903 L-291.0,28.09084258765985 L-291.0,28.88255099070633 L-291.0,29.83058130441221 L-291.0,30.88739533021843 L-291.0,32.0 L-291.0,33.11260466978157 L-291.0,34.16941869558779 L-291.0,35.117449009293665 L-291.0,35.90915741234015 L-291.0,36.5048443395121 L-291.0,36.87463956090912 L-291.0,36.99999999999999 " />
			<path d="M-291.0,10.0 L-291.0,10.037608131727264 L-291.0,10.14854669814637 L-291.0,10.327252776297955 L-291.0,10.564765297211899 L-291.0,10.849174391323663 L-291.0,11.166218599065528 L-291.0,11.5 L-291.0,11.833781400934472 L-291.0,12.150825608676337 L-291.0,12.435234702788101 L-291.0,12.672747223702045 L-291.0,12.851453301853628 L-291.0,12.962391868272736 L-291.0,13.0 " />
			<path d="M-291.0,13.0 L-291.0,12.962391868272736 L-291.0,12.85145330185363 L-291.0,12.672747223702045 L-291.0,12.435234702788101 L-291.0,12.150825608676337 L-291.0,11.833781400934472 L-291.0,11.5 L-291.0,11.166218599065528 L-291.0,10.849174391323663 L-291.0,10.564765297211899 L-291.0,10.327252776297955 L-291.0,10.148546698146372 L-291.0,10.037608131727264 L-291.0,10.000000000000002 " />
			<path d="M-291.0,-13.0 L-291.0,-12.962391868272736 L-291.0,-12.85145330185363 L-291.0,-12.672747223702045 L-291.0,-12.435234702788101 L-291.0,-12.150825608676337 L-291.0,-11.833781400934472 L-291.0,-11.5 L-291.0,-11.166218599065528 L-291.0,-10.849174391323663 L-291.0,-10.564765297211899 L-291.0,-10.327252776297955 L-291.0,-10.148546698146372 L-291.0,-10.037608131727264 L-291.0,-10.0 " />
			<path d="M-291.0,-10.0 L-291.0,-10.037608131727264 L-291.0,-10.14854669814637 L-291.0,-10.327252776297955 L-291.0,-10.564765297211899 L-291.0,-10.849174391323663 L-291.0,-11.166218599065528 L-291.0,-11.5 L-291.0,-11.833781400934472 L-291.0,-12.150825608676337 L-291.0,-12.435234702788101 L-291.0,-12.672747223702045 L-291.0,-12.851453301853628 L-291.0,-12.962391868272736 L-291.0,-12.999999999999998 " />
			<path d="M-291.0,-27.0 L-291.0,-27.125360439090883 L-291.0,-27.495155660487903 L-291.0,-28.09084258765985 L-291.0,-28.88255099070633 L-291.0,-29.83058130441221 L-291.0,-30.88739533021843 L-291.0,-32.0 L-291.0,-33.112604669781575 L-291.0,-34.169418695587794 L-291.0,-35.117449009293665 L-291.0,-35.90915741234015 L-291.0,-36.5048443395121 L-291.0,-36.87463956090912 L-291.0,-37.0 " />
			<path d="M-291.0,-37.0 L-291.0,-36.87463956090912 L-291.0,-36.5048443395121 L-291.0,-35.90915741234015 L-291.0,-35.117449009293665 L-291.0,-34.169418695587794 L-291.0,-33.112604669781575 L-291.0,-32.0 L-291.0,-30.88739533021843 L-291.0,-29.83058130441221 L-291.0,-28.882550990706335 L-291.0,-28.09084258765985 L-291.0,-27.495155660487903 L-291.0,-27.125360439090883 L-291.0,-27.000000000000004 " />
			<path d="M-291.0,10.0 L-291.0,10.037608131727264 L-291.0,10.14854669814637 L-291.0,10.327252776297955 L-291.0,10.564765297211899 L-291.0,10.849174391323663 L-291.0,11.166218599065528 L-291.0,11.5 L-291.0,11.833781400934472 L-291.0,12.150825608676337 L-291.0,12.435234702788101 L-291.0,12.672747223702045 L-291.0,12.851453301853628 L-291.0,12.962391868272736 L-291.0,13.0 " />
			<path d="M-291.0,13.0 L-291.0,12.962391868272736 L-291.0,12.85145330185363 L-291.0,12.672747223702045 L-291.0,12.435234702788101 L-291.0,12.150825608676337 L-291.0,11.833781400934472 L-291.0,11.5 L-291.0,11.166218599065528 L-291.0,10.849174391323663 L-291.0,10.564765297211899 L-291.0,10.327252776297955 L-291.0,10.148546698146372 L-291.0,10.037608131727264 L-291.0,10.000000000000002 " />
			<path d="M-291.0,37.0 L-291.0,36.87463956090912 L-291.0,36.5048443395121 L-291.0,35.90915741234015 L-291.0,35.117449009293665 L-291.0,34.169418695587794 L-291.0,33.112604669781575 L-291.0,32.0 L-291.0,30.88739533021843 L-291.0,29.83058130441221 L-291.0,28.88255099070633 L-291.0,28.09084258765985 L-291.0,27.495155660487903 L-291.0,27.125360439090883 L-291.0,27.000000000000004 " />
			<path d="M-291.0,27.0 L-291.0,27.125360439090883 L-291.0,27.495155660487903 L-291.0,28.09084258765985 L-291.0,28.88255099070633 L-291.0,29.83058130441221 L-291.0,30.88739533021843 L-291.0,32.0 L-291.0,33.11260466978157 L-291.0,34.16941869558779 L-291.0,35.117449009293665 L-291.0,35.90915741234015 L-291.0,36.5048443395121 L-291.0,36.87463956090912 L-291.0,36.99999999999999 " />
			<path d="M-291.0,-40.0 L-297.0,-40.0 " />
			<path d="M-291.0,40.0 L-297.0,40.0 " />
			<path d="M-297.0,-40.0 L-297.0,40.0 " />
			<path d="M-6.0,-27.0 L-6.0,-27.125360439090883 L-6.0,-27.495155660487903 L-6.0,-28.09084258765985 L-6.0,-28.88255099070633 L-6.0,-29.83058130441221 L-6.0,-30.88739533021843 L-6.0,-32.0 L-6.0,-33.112604669781575 L-6.0,-34.169418695587794 L-6.0,-35.117449009293665 L-6.0,-35.90915741234015 L-6.0,-36.5048443395121 L-6.0,-36.87463956090912 L-6.0,-37.0 " />
			<path d="M-6.0,-37.0 L-6.0,-36.87463956090912 L-6.0,-36.5048443395121 L-6.0,-35.90915741234015 L-6.0,-35.117449009293665 L-6.0,-34.169418695587794 L-6.0,-33.112604669781575 L-6.0,-32.0 L-6.0,-30.88739533021843 L-6.0,-29.83058130441221 L-6.0,-28.882550990706335 L-6.0,-28.09084258765985 L-6.0,-27.495155660487903 L-6.0,-27.125360439090883 L-6.0,-27.000000000000004 " />
			<path d="M-297.0,-13.0 L-291.0,-13.0 " />
			<path d="M-297.0,-13.0 L-297.0,-12.962391868272736 L-297.0,-12.85145330185363 L-297.0,-12.672747223702045 L-297.0,-12.435234702788101 L-297.0,-12.150825608676337 L-297.0,-11.833781400934472 L-297.0,-11.5 L-297.0,-11.166218599065528 L-297.0,-10.849174391323663 L-297.0,-10.564765297211899 L-297.0,-10.327252776297955 L-297.0,-10.148546698146372 L-297.0,-10.037608131727264 L-297.0,-10.0 " />
			<path d="M-297.0,-10.0 L-297.0,-10.037608131727264 L-297.0,-10.14854669814637 L-297.0,-10.327252776297955 L-297.0,-10.564765297211899 L-297.0,-10.849174391323663 L-297.0,-11.166218599065528 L-297.0,-11.5 L-297.0,-11.833781400934472 L-297.0,-12.150825608676337 L-297.0,-12.435234702788101 L-297.0,-12.672747223702045 L-297.0,-12.851453301853628 L-297.0,-12.962391868272736 L-297.0,-12.999999999999998 " />
			<path d="M-66.0,37.0 L-166.0,37.0 " />
			<path d="M-6.0,37.0 L-6.0,36.87463956090912 L-6.0,36.5048443395121 L-6.0,35.90915741234015 L-6.0,35.117449009293665 L-6.0,34.169418695587794 L-6.0,33.112604669781575 L-6.0,32.0 L-6.0,30.88739533021843 L-6.0,29.83058130441221 L-6.0,28.88255099070633 L-6.0,28.09084258765985 L-6.0,27.495155660487903 L-6.0,27.125360439090883 L-6.0,27.000000000000004 " />
			<path d="M-6.0,27.0 L-6.0,27.125360439090883 L-6.0,27.495155660487903 L-6.0,28.09084258765985 L-6.0,28.88255099070633 L-6.0,29.83058130441221 L-6.0,30.88739533021843 L-6.0,32.0 L-6.0,33.11260466978157 L-6.0,34.16941869558779 L-6.0,35.117449009293665 L-6.0,35.90915741234015 L-6.0,36.5048443395121 L-6.0,36.87463956090912 L-6.0,36.99999999999999 " />
			<path d="M-297.0,10.0 L-291.0,10.0 " />
			<path d="M-297.0,10.0 L-297.0,10.037608131727264 L-297.0,10.14854669814637 L-297.0,10.327252776297955 L-297.0,10.564765297211899 L-297.0,10.849174391323663 L-297.0,11.166218599065528 L-297.0,11.5 L-297.0,11.833781400934472 L-297.0,12.150825608676337 L-297.0,12.435234702788101 L-297.0,12.672747223702045 L-297.0,12.851453301853628 L-297.0,12.962391868272736 L-297.0,13.0 " />
			<path d="M-297.0,13.0 L-297.0,12.962391868272736 L-297.0,12.85145330185363 L-297.0,12.672747223702045 L-297.0,12.435234702788101 L-297.0,12.150825608676337 L-297.0,11.833781400934472 L-297.0,11.5 L-297.0,11.166218599065528 L-297.0,10.849174391323663 L-297.0,10.564765297211899 L-297.0,10.327252776297955 L-297.0,10.148546698146372 L-297.0,10.037608131727264 L-297.0,10.000000000000002 " />
			<path d="M-297.0,-13.0 L-291.0,-13.0 " />
			<path d="M-297.0,-13.0 L-297.0,-12.962391868272736 L-297.0,-12.85145330185363 L-297.0,-12.672747223702045 L-297.0,-12.435234702788101 L-297.0,-12.150825608676337 L-297.0,-11.833781400934472 L-297.0,-11.5 L-297.0,-11.166218599065528 L-297.0,-10.849174391323663 L-297.0,-10.564765297211899 L-297.0,-10.327252776297955 L-297.0,-10.148546698146372 L-297.0,-10.037608131727264 L-297.0,-10.0 " />
			<path d="M-297.0,-10.0 L-297.0,-10.037608131727264 L-297.0,-10.14854669814637 L-297.0,-10.327252776297955 L-297.0,-10.564765297211899 L-297.0,-10.849174391323663 L-297.0,-11.166218599065528 L-297.0,-11.5 L-297.0,-11.833781400934472 L-297.0,-12.150825608676337 L-297.0,-12.435234702788101 L-297.0,-12.672747223702045 L-297.0,-12.851453301853628 L-297.0,-12.962391868272736 L-297.0,-12.999999999999998 " />
			<path d="M-6.0,-27.0 L-6.0,-27.125360439090883 L-6.0,-27.495155660487903 L-6.0,-28.09084258765985 L-6.0,-28.88255099070633 L-6.0,-29.83058130441221 L-6.0,-30.88739533021843 L-6.0,-32.0 L-6.0,-33.112604669781575 L-6.0,-34.169418695587794 L-6.0,-35.117449009293665 L-6.0,-35.90915741234015 L-6.0,-36.5048443395121 L-6.0,-36.87463956090912 L-6.0,-37.0 " />
			<path d="M-6.0,-37.0 L-6.0,-36.87463956090912 L-6.0,-36.5048443395121 L-6.0,-35.90915741234015 L-6.0,-35.117449009293665 L-6.0,-34.169418695587794 L-6.0,-33.112604669781575 L-6.0,-32.0 L-6.0,-30.88739533021843 L-6.0,-29.83058130441221 L-6.0,-28.882550990706335 L-6.0,-28.09084258765985 L-6.0,-27.495155660487903 L-6.0,-27.125360439090883 L-6.0,-27.000000000000004 " />
			<path d="M-6.0,-27.0 L-66.0,-27.0 " />
			<path d="M-66.0,-27.0 L-66.0,-27.000517146853745 L-66.0,-27.00206848043863 L-66.0,-27.00465367984775 L-66.0,-27.008272210309997 L-66.0,-27.012923323300722 L-66.0,-27.01860605669654 L-66.0,-27.02531923497438 L-66.0,-27.033061469454623 L-66.0,-27.041831158588394 L-66.0,-27.051626488288832 L-66.0,-27.06244543230637 L-66.0,-27.074285752647853 L-66.0,-27.08714500003952 L-66.0,-27.101020514433642 " />
			<path d="M-166.0,-27.101020514433642 L-66.0,-27.101020514433642 " />
			<path d="M-166.0,-27.0 L-166.0,-27.000517146853745 L-166.0,-27.00206848043863 L-166.0,-27.00465367984775 L-166.0,-27.008272210309997 L-166.0,-27.012923323300722 L-166.0,-27.01860605669654 L-166.0,-27.02531923497438 L-166.0,-27.033061469454623 L-166.0,-27.041831158588394 L-166.0,-27.051626488288832 L-166.0,-27.06244543230637 L-166.0,-27.074285752647853 L-166.0,-27.08714500003952 L-166.0,-27.101020514433642 " />
			<path d="M-166.0,-27.0 L-291.0,-27.0 " />
			<path d="M-166.0,-36.89897948556636 L-166.0,-36.91285499996048 L-166.0,-36.92571424735215 L-166.0,-36.93755456769363 L-166.0,-36.94837351171117 L-166.0,-36.958168841411606 L-166.0,-36.96693853054538 L-166.0,-36.97468076502562 L-166.0,-36.98139394330346 L-166.0,-36.987076676699274 L-166.0,-36.99172778969 L-166.0,-36.99534632015225 L-166.0,-36.99793151956137 L-166.0,-36.999482853146255 L-166.0,-37.0 " />
			<path d="M-166.0,-37.0 L-166.0,-36.87463956090912 L-166.0,-36.5048443395121 L-166.0,-35.90915741234015 L-166.0,-35.117449009293665 L-166.0,-34.169418695587794 L-166.0,-33.112604669781575 L-166.0,-32.0 L-166.0,-30.88739533021843 L-166.0,-29.83058130441221 L-166.0,-28.882550990706335 L-166.0,-28.09084258765985 L-166.0,-27.495155660487903 L-166.0,-27.125360439090883 L-166.0,-27.000000000000004 " />
			<path d="M-166.0,-36.89897948556636 L-66.0,-36.89897948556636 " />
			<path d="M-66.0,-36.89897948556636 L-66.0,-36.91285499996048 L-66.0,-36.92571424735215 L-66.0,-36.93755456769363 L-66.0,-36.94837351171117 L-66.0,-36.958168841411606 L-66.0,-36.96693853054538 L-66.0,-36.97468076502562 L-66.0,-36.98139394330346 L-66.0,-36.987076676699274 L-66.0,-36.99172778969 L-66.0,-36.99534632015225 L-66.0,-36.99793151956137 L-66.0,-36.999482853146255 L-66.0,-37.0 " />
			<path d="M-66.0,-37.0 L-66.0,-36.87463956090912 L-66.0,-36.5048443395121 L-66.0,-35.90915741234015 L-66.0,-35.117449009293665 L-66.0,-34.169418695587794 L-66.0,-33.112604669781575 L-66.0,-32.0 L-66.0,-30.88739533021843 L-66.0,-29.83058130441221 L-66.0,-28.882550990706335 L-66.0,-28.09084258765985 L-66.0,-27.495155660487903 L-66.0,-27.125360439090883 L-66.0,-27.000000000000004 " />
			<path d="M-297.0,10.0 L-291.0,10.0 " />
			<path d="M-297.0,10.0 L-297.0,10.037608131727264 L-297.0,10.14854669814637 L-297.0,10.327252776297955 L-297.0,10.564765297211899 L-297.0,10.849174391323663 L-297.0,11.166218599065528 L-297.0,11.5 L-297.0,11.833781400934472 L-297.0,12.150825608676337 L-297.0,12.435234702788101 L-297.0,12.672747223702045 L-297.0,12.851453301853628 L-297.0,12.962391868272736 L-297.0,13.0 " />
			<path d="M-297.0,13.0 L-297.0,12.962391868272736 L-297.0,12.85145330185363 L-297.0,12.672747223702045 L-297.0,12.435234702788101 L-297.0,12.150825608676337 L-297.0,11.833781400934472 L-297.0,11.5 L-297.0,11.166218599065528 L-297.0,10.849174391323663 L-297.0,10.564765297211899 L-297.0,10.327252776297955 L-297.0,10.148546698146372 L-297.0,10.037608131727264 L-297.0,10.000000000000002 " />
			<path d="M-6.0,37.0 L-6.0,36.87463956090912 L-6.0,36.5048443395121 L-6.0,35.90915741234015 L-6.0,35.117449009293665 L-6.0,34.169418695587794 L-6.0,33.112604669781575 L-6.0,32.0 L-6.0,30.88739533021843 L-6.0,29.83058130441221 L-6.0,28.88255099070633 L-6.0,28.09084258765985 L-6.0,27.495155660487903 L-6.0,27.125360439090883 L-6.0,27.000000000000004 " />
			<path d="M-6.0,27.0 L-6.0,27.125360439090883 L-6.0,27.495155660487903 L-6.0,28.09084258765985 L-6.0,28.88255099070633 L-6.0,29.83058130441221 L-6.0,30.88739533021843 L-6.0,32.0 L-6.0,33.11260466978157 L-6.0,34.16941869558779 L-6.0,35.117449009293665 L-6.0,35.90915741234015 L-6.0,36.5048443395121 L-6.0,36.87463956090912 L-6.0,36.99999999999999 " />
			<path d="M-6.0,37.0 L-66.0,37.0 " />
			<path d="M-66.0,37.0 L-66.0,36.999482853146255 L-66.0,36.99793151956137 L-66.0,36.99534632015225 L-66.0,36.99172778969 L-66.0,36.987076676699274 L-66.0,36.98139394330346 L-66.0,36.97468076502562 L-66.0,36.96693853054538 L-66.0,36.958168841411606 L-66.0,36.94837351171117 L-66.0,36.93755456769363 L-66.0,36.92571424735215 L-66.0,36.91285499996048 L-66.0,36.89897948556636 " />
			<path d="M-166.0,36.89897948556636 L-66.0,36.89897948556636 " />
			<path d="M-166.0,37.0 L-166.0,36.999482853146255 L-166.0,36.99793151956137 L-166.0,36.99534632015225 L-166.0,36.99172778969 L-166.0,36.987076676699274 L-166.0,36.98139394330346 L-166.0,36.97468076502562 L-166.0,36.96693853054538 L-166.0,36.958168841411606 L-166.0,36.94837351171117 L-166.0,36.93755456769363 L-166.0,36.92571424735215 L-166.0,36.91285499996048 L-166.0,36.89897948556636 " />
			<path d="M-166.0,37.0 L-291.0,37.0 " />
			<path d="M-166.0,27.101020514433642 L-166.0,27.08714500003952 L-166.0,27.074285752647853 L-166.0,27.06244543230637 L-166.0,27.051626488288836 L-166.0,27.041831158588394 L-166.0,27.033061469454623 L-166.0,27.02531923497438 L-166.0,27.01860605669654 L-166.0,27.012923323300722 L-166.0,27.008272210309997 L-166.0,27.00465367984775 L-166.0,27.00206848043863 L-166.0,27.000517146853745 L-166.0,27.0 " />
			<path d="M-166.0,27.0 L-166.0,27.125360439090883 L-166.0,27.495155660487903 L-166.0,28.09084258765985 L-166.0,28.88255099070633 L-166.0,29.83058130441221 L-166.0,30.88739533021843 L-166.0,32.0 L-166.0,33.11260466978157 L-166.0,34.16941869558779 L-166.0,35.117449009293665 L-166.0,35.90915741234015 L-166.0,36.5048443395121 L-166.0,36.87463956090912 L-166.0,36.99999999999999 " />
			<path d="M-166.0,27.101020514433642 L-66.0,27.101020514433642 " />
			<path d="M-66.0,27.101020514433642 L-66.0,27.08714500003952 L-66.0,27.074285752647853 L-66.0,27.06244543230637 L-66.0,27.051626488288836 L-66.0,27.041831158588394 L-66.0,27.033061469454623 L-66.0,27.02531923497438 L-66.0,27.01860605669654 L-66.0,27.012923323300722 L-66.0,27.008272210309997 L-66.0,27.00465367984775 L-66.0,27.00206848043863 L-66.0,27.000517146853745 L-66.0,27.0 " />
			<path d="M-66.0,27.0 L-66.0,27.125360439090883 L-66.0,27.495155660487903 L-66.0,28.09084258765985 L-66.0,28.88255099070633 L-66.0,29.83058130441221 L-66.0,30.88739533021843 L-66.0,32.0 L-66.0,33.11260466978157 L-66.0,34.16941869558779 L-66.0,35.117449009293665 L-66.0,35.90915741234015 L-66.0,36.5048443395121 L-66.0,36.87463956090912 L-66.0,36.99999999999999 " />
			<path d="M-297.0,-34.2 L-297.0,-34.14484140680001 L-297.0,-33.982131509385326 L-297.0,-33.720029261429666 L-297.0,-33.37167756408921 L-297.0,-32.95454422605863 L-297.0,-32.489546054703894 L-297.0,-32.0 L-297.0,-31.51045394529611 L-297.0,-31.045455773941374 L-297.0,-30.628322435910786 L-297.0,-30.279970738570334 L-297.0,-30.017868490614678 L-297.0,-29.855158593199988 L-297.0,-29.8 " />
			<path d="M-297.0,-29.8 L-297.0,-29.855158593199988 L-297.0,-30.017868490614678 L-297.0,-30.279970738570334 L-297.0,-30.628322435910786 L-297.0,-31.04545577394137 L-297.0,-31.510453945296106 L-297.0,-32.0 L-297.0,-32.489546054703894 L-297.0,-32.95454422605863 L-297.0,-33.37167756408921 L-297.0,-33.720029261429666 L-297.0,-33.98213150938532 L-297.0,-34.14484140680001 L-297.0,-34.2 " />
			<path d="M-297.0,29.8 L-297.0,29.855158593199988 L-297.0,30.017868490614678 L-297.0,30.279970738570334 L-297.0,30.628322435910786 L-297.0,31.04545577394137 L-297.0,31.51045394529611 L-297.0,32.0 L-297.0,32.489546054703894 L-297.0,32.95454422605863 L-297.0,33.37167756408921 L-297.0,33.720029261429666 L-297.0,33.98213150938532 L-297.0,34.14484140680001 L-297.0,34.2 " />
			<path d="M-297.0,34.2 L-297.0,34.14484140680001 L-297.0,33.982131509385326 L-297.0,33.720029261429666 L-297.0,33.37167756408921 L-297.0,32.95454422605863 L-297.0,32.489546054703894 L-297.0,32.0 L-297.0,31.51045394529611 L-297.0,31.045455773941374 L-297.0,30.628322435910786 L-297.0,30.279970738570334 L-297.0,30.017868490614678 L-297.0,29.855158593199988 L-297.0,29.800000000000004 " />
			<path d="M-297.0,-34.2 L-297.0,-34.14484140680001 L-297.0,-33.982131509385326 L-297.0,-33.720029261429666 L-297.0,-33.37167756408921 L-297.0,-32.95454422605863 L-297.0,-32.489546054703894 L-297.0,-32.0 L-297.0,-31.51045394529611 L-297.0,-31.045455773941374 L-297.0,-30.628322435910786 L-297.0,-30.279970738570334 L-297.0,-30.017868490614678 L-297.0,-29.855158593199988 L-297.0,-29.8 " />
			<path d="M-297.0,-29.8 L-297.0,-29.855158593199988 L-297.0,-30.017868490614678 L-297.0,-30.279970738570334 L-297.0,-30.628322435910786 L-297.0,-31.04545577394137 L-297.0,-31.510453945296106 L-297.0,-32.0 L-297.0,-32.489546054703894 L-297.0,-32.95454422605863 L-297.0,-33.37167756408921 L-297.0,-33.720029261429666 L-297.0,-33.98213150938532 L-297.0,-34.14484140680001 L-297.0,-34.2 " />
			<path d="M-297.0,-14.0 L-297.0,14.0 " />
			<path d="M-297.0,-14.0 L-297.0,14.0 " />
			<path d="M-297.0,29.8 L-297.0,29.855158593199988 L-297.0,30.017868490614678 L-297.0,30.279970738570334 L-297.0,30.628322435910786 L-297.0,31.04545577394137 L-297.0,31.51045394529611 L-297.0,32.0 L-297.0,32.489546054703894 L-297.0,32.95454422605863 L-297.0,33.37167756408921 L-297.0,33.720029261429666 L-297.0,33.98213150938532 L-297.0,34.14484140680001 L-297.0,34.2 " />
			<path d="M-297.0,34.2 L-297.0,34.14484140680001 L-297.0,33.982131509385326 L-297.0,33.720029261429666 L-297.0,33.37167756408921 L-297.0,32.95454422605863 L-297.0,32.489546054703894 L-297.0,32.0 L-297.0,31.51045394529611 L-297.0,31.045455773941374 L-297.0,30.628322435910786 L-297.0,30.279970738570334 L-297.0,30.017868490614678 L-297.0,29.855158593199988 L-297.0,29.800000000000004 " />
			<path d="M-6.0,-40.0 L-6.0,40.0 " />
			<path d="M-6.0,3.5 L-6.0,3.4122476926363827 L-6.0,3.153391037658467 L-6.0,2.7364101886381045 L-6.0,2.1822143065055677 L-6.0,1.5185930869114537 L-6.0,0.7788232688471006 L-6.0,2.143131898507868e-16 L-6.0,-0.7788232688471002 L-6.0,-1.5185930869114532 L-6.0,-2.1822143065055672 L-6.0,-2.7364101886381045 L-6.0,-3.1533910376584666 L-6.0,-3.4122476926363827 L-6.0,-3.4999999999999982 " />
			<path d="M-6.0,-3.5 L-6.0,-3.4122476926363827 L-6.0,-3.153391037658467 L-6.0,-2.7364101886381045 L-6.0,-2.182214306505568 L-6.0,-1.5185930869114541 L-6.0,-0.7788232688471011 L-6.0,-6.429395695523604e-16 L-6.0,0.7788232688470997 L-6.0,1.5185930869114528 L-6.0,2.182214306505567 L-6.0,2.736410188638104 L-6.0,3.1533910376584666 L-6.0,3.4122476926363823 L-6.0,3.4999999999999964 " />
			<path d="M-6.0,-15.0 L-6.0,-14.623918682727354 L-6.0,-13.514533018536287 L-6.0,-11.727472237020446 L-6.0,-9.352347027881004 L-6.0,-6.508256086763373 L-6.0,-3.337814009344717 L-6.0,-9.18485099360515e-16 L-6.0,3.337814009344715 L-6.0,6.508256086763371 L-6.0,9.352347027881002 L-6.0,11.727472237020446 L-6.0,13.514533018536286 L-6.0,14.623918682727354 L-6.0,14.999999999999993 " />
			<path d="M-6.0,15.0 L-6.0,14.623918682727354 L-6.0,13.514533018536287 L-6.0,11.727472237020448 L-6.0,9.352347027881006 L-6.0,6.5082560867633745 L-6.0,3.3378140093447186 L-6.0,2.7554552980815444e-15 L-6.0,-3.3378140093447133 L-6.0,-6.508256086763369 L-6.0,-9.352347027881 L-6.0,-11.727472237020445 L-6.0,-13.514533018536286 L-6.0,-14.623918682727354 L-6.0,-14.999999999999986 " />
			<path d="M-6.0,3.5 L-6.0,3.4122476926363827 L-6.0,3.153391037658467 L-6.0,2.7364101886381045 L-6.0,2.1822143065055677 L-6.0,1.5185930869114537 L-6.0,0.7788232688471006 L-6.0,2.143131898507868e-16 L-6.0,-0.7788232688471002 L-6.0,-1.5185930869114532 L-6.0,-2.1822143065055672 L-6.0,-2.7364101886381045 L-6.0,-3.1533910376584666 L-6.0,-3.4122476926363827 L-6.0,-3.4999999999999982 " />
			<path d="M-6.0,-3.5 L-6.0,-3.4122476926363827 L-6.0,-3.153391037658467 L-6.0,-2.7364101886381045 L-6.0,-2.182214306505568 L-6.0,-1.5185930869114541 L-6.0,-0.7788232688471011 L-6.0,-6.429395695523604e-16 L-6.0,0.7788232688470997 L-6.0,1.5185930869114528 L-6.0,2.182214306505567 L-6.0,2.736410188638104 L-6.0,3.1533910376584666 L-6.0,3.4122476926363823 L-6.0,3.4999999999999964 " />
			<path d="M-66.0,-26.0 L-66.0,-38.0 " />
			<path d="M-66.0,-27.101020514433642 L-66.0,-27.0 " />
			<path d="M-66.0,-37.0 L-66.0,-36.89897948556636 " />
			<path d="M-166.0,-27.101020514433642 L-166.0,-27.0 " />
			<path d="M-166.0,-26.0 L-166.0,-38.0 " />
			<path d="M-166.0,-37.0 L-166.0,-36.89897948556636 " />
			<path d="M-66.0,36.89897948556636 L-66.0,37.0 " />
			<path d="M-66.0,27.0 L-66.0,27.101020514433642 " />
			<path d="M-66.0,38.0 L-66.0,26.0 " />
			<path d="M-66.0,38.0 L-66.0,40.0 " />
			<path d="M-66.0,37.0 L-166.0,37.0 " />
			<path d="M-166.0,36.89897948556636 L-166.0,37.0 " />
			<path d="M-166.0,38.0 L-166.0,40.0 " />
			<path d="M-166.0,38.0 L-166.0,26.0 " />
			<path d="M-166.0,27.0 L-166.0,27.101020514433642 " />
			<path d="M-291.0,-34.2 L-291.0,-34.14484140680001 L-291.0,-33.982131509385326 L-291.0,-33.720029261429666 L-291.0,-33.37167756408921 L-291.0,-32.95454422605863 L-291.0,-32.489546054703894 L-291.0,-32.0 L-291.0,-31.51045394529611 L-291.0,-31.045455773941374 L-291.0,-30.628322435910786 L-291.0,-30.279970738570334 L-291.0,-30.017868490614678 L-291.0,-29.855158593199988 L-291.0,-29.8 " />
			<path d="M-291.0,-29.8 L-291.0,-29.855158593199988 L-291.0,-30.017868490614678 L-291.0,-30.279970738570334 L-291.0,-30.628322435910786 L-291.0,-31.04545577394137 L-291.0,-31.510453945296106 L-291.0,-32.0 L-291.0,-32.489546054703894 L-291.0,-32.95454422605863 L-291.0,-33.37167756408921 L-291.0,-33.720029261429666 L-291.0,-33.98213150938532 L-291.0,-34.14484140680001 L-291.0,-34.2 " />
			<path d="M-297.0,-34.2 L-291.0,-34.2 " />
			<path d="M-291.0,29.8 L-291.0,29.855158593199988 L-291.0,30.017868490614678 L-291.0,30.279970738570334 L-291.0,30.628322435910786 L-291.0,31.04545577394137 L-291.0,31.51045394529611 L-291.0,32.0 L-291.0,32.489546054703894 L-291.0,32.95454422605863 L-291.0,33.37167756408921 L-291.0,33.720029261429666 L-291.0,33.98213150938532 L-291.0,34.14484140680001 L-291.0,34.2 " />
			<path d="M-291.0,34.2 L-291.0,34.14484140680001 L-291.0,33.982131509385326 L-291.0,33.720029261429666 L-291.0,33.37167756408921 L-291.0,32.95454422605863 L-291.0,32.489546054703894 L-291.0,32.0 L-291.0,31.51045394529611 L-291.0,31.045455773941374 L-291.0,30.628322435910786 L-291.0,30.279970738570334 L-291.0,30.017868490614678 L-291.0,29.855158593199988 L-291.0,29.800000000000004 " />
			<path d="M-297.0,29.8 L-291.0,29.8 " />
			<path d="M-291.0,-34.2 L-291.0,-34.14484140680001 L-291.0,-33.982131509385326 L-291.0,-33.720029261429666 L-291.0,-33.37167756408921 L-291.0,-32.95454422605863 L-291.0,-32.489546054703894 L-291.0,-32.0 L-291.0,-31.51045394529611 L-291.0,-31.045455773941374 L-291.0,-30.628322435910786 L-291.0,-30.279970738570334 L-291.0,-30.017868490614678 L-291.0,-29.855158593199988 L-291.0,-29.8 " />
			<path d="M-291.0,-29.8 L-291.0,-29.855158593199988 L-291.0,-30.017868490614678 L-291.0,-30.279970738570334 L-291.0,-30.628322435910786 L-291.0,-31.04545577394137 L-291.0,-31.510453945296106 L-291.0,-32.0 L-291.0,-32.489546054703894 L-291.0,-32.95454422605863 L-291.0,-33.37167756408921 L-291.0,-33.720029261429666 L-291.0,-33.98213150938532 L-291.0,-34.14484140680001 L-291.0,-34.2 " />
			<path d="M-297.0,-34.2 L-291.0,-34.2 " />
			<path d="M-297.0,-14.0 L-342.0,-14.0 " />
			<path d="M-297.0,14.0 L-342.0,14.0 " />
			<path d="M-342.0,-14.0 L-342.0,14.0 " />
			<path d="M-291.0,29.8 L-291.0,29.855158593199988 L-291.0,30.017868490614678 L-291.0,30.279970738570334 L-291.0,30.628322435910786 L-291.0,31.04545577394137 L-291.0,31.51045394529611 L-291.0,32.0 L-291.0,32.489546054703894 L-291.0,32.95454422605863 L-291.0,33.37167756408921 L-291.0,33.720029261429666 L-291.0,33.98213150938532 L-291.0,34.14484140680001 L-291.0,34.2 " />
			<path d="M-291.0,34.2 L-291.0,34.14484140680001 L-291.0,33.982131509385326 L-291.0,33.720029261429666 L-291.0,33.37167756408921 L-291.0,32.95454422605863 L-291.0,32.489546054703894 L-291.0,32.0 L-291.0,31.51045394529611 L-291.0,31.045455773941374 L-291.0,30.628322435910786 L-291.0,30.279970738570334 L-291.0,30.017868490614678 L-291.0,29.855158593199988 L-291.0,29.800000000000004 " />
			<path d="M-297.0,29.8 L-291.0,29.8 " />
			<path d="M0.0,-40.0 L-6.0,-40.0 " />
			<path d="M0.0,-40.0 L0.0,40.0 " />
			<path d="M0.0,40.0 L-6.0,40.0 " />
			<path d="M-10.0,3.5 L-10.0,3.4122476926363827 L-10.0,3.153391037658467 L-10.0,2.7364101886381045 L-10.0,2.1822143065055677 L-10.0,1.5185930869114537 L-10.0,0.7788232688471006 L-10.0,2.143131898507868e-16 L-10.0,-0.7788232688471002 L-10.0,-1.5185930869114532 L-10.0,-2.1822143065055672 L-10.0,-2.7364101886381045 L-10.0,-3.1533910376584666 L-10.0,-3.4122476926363827 L-10.0,-3.4999999999999982 " />
			<path d="M0.0,-15.0 L0.0,-14.623918682727354 L0.0,-13.514533018536287 L0.0,-11.727472237020446 L0.0,-9.352347027881004 L0.0,-6.508256086763373 L0.0,-3.337814009344717 L0.0,-9.18485099360515e-16 L0.0,3.337814009344715 L0.0,6.508256086763371 L0.0,9.352347027881002 L0.0,11.727472237020446 L0.0,13.514533018536286 L0.0,14.623918682727354 L0.0,14.999999999999993 " />
			<path d="M0.0,15.0 L0.0,14.623918682727354 L0.0,13.514533018536287 L0.0,11.727472237020448 L0.0,9.352347027881006 L0.0,6.5082560867633745 L0.0,3.3378140093447186 L0.0,2.7554552980815444e-15 L0.0,-3.3378140093447133 L0.0,-6.508256086763369 L0.0,-9.352347027881 L0.0,-11.727472237020445 L0.0,-13.514533018536286 L0.0,-14.623918682727354 L0.0,-14.999999999999986 " />
			<path d="M-6.0,-15.0 L0.0,-15.0 " />
			<path d="M-6.0,3.5 L-10.0,3.5 " />
			<path d="M-10.0,3.5 L-10.0,3.4122476926363827 L-10.0,3.153391037658467 L-10.0,2.7364101886381045 L-10.0,2.1822143065055677 L-10.0,1.5185930869114537 L-10.0,0.7788232688471006 L-10.0,2.143131898507868e-16 L-10.0,-0.7788232688471002 L-10.0,-1.5185930869114532 L-10.0,-2.1822143065055672 L-10.0,-2.7364101886381045 L-10.0,-3.1533910376584666 L-10.0,-3.4122476926363827 L-10.0,-3.4999999999999982 " />
			<path d="M-10.0,-3.5 L-10.0,-3.4122476926363827 L-10.0,-3.153391037658467 L-10.0,-2.7364101886381045 L-10.0,-2.182214306505568 L-10.0,-1.5185930869114541 L-10.0,-0.7788232688471011 L-10.0,-6.429395695523604e-16 L-10.0,0.7788232688470997 L-10.0,1.5185930869114528 L-10.0,2.182214306505567 L-10.0,2.736410188638104 L-10.0,3.1533910376584666 L-10.0,3.4122476926363823 L-10.0,3.4999999999999964 " />
			<path d="M-66.0,-38.0 L-166.0,-38.0 " />
			<path d="M-66.0,-26.0 L-166.0,-26.0 " />
			<path d="M-66.0,26.0 L-166.0,26.0 " />
			<path d="M-66.0,38.0 L-166.0,38.0 " />
			<path d="M-166.0,38.0 L-66.0,38.0 " />
			<path d="M-66.0,40.0 L-166.0,40.0 " />
			<path d="M0.0,-34.2 L0.0,-34.14484140680001 L0.0,-33.982131509385326 L0.0,-33.720029261429666 L0.0,-33.37167756408921 L0.0,-32.95454422605863 L0.0,-32.489546054703894 L0.0,-32.0 L0.0,-31.51045394529611 L0.0,-31.045455773941374 L0.0,-30.628322435910786 L0.0,-30.279970738570334 L0.0,-30.017868490614678 L0.0,-29.855158593199988 L0.0,-29.8 " />
			<path d="M0.0,-29.8 L0.0,-29.855158593199988 L0.0,-30.017868490614678 L0.0,-30.279970738570334 L0.0,-30.628322435910786 L0.0,-31.04545577394137 L0.0,-31.510453945296106 L0.0,-32.0 L0.0,-32.489546054703894 L0.0,-32.95454422605863 L0.0,-33.37167756408921 L0.0,-33.720029261429666 L0.0,-33.98213150938532 L0.0,-34.14484140680001 L0.0,-34.2 " />
			<path d="M0.0,-1.3 L0.0,-1.2674062858363708 L0.0,-1.1712595282731448 L0.0,-1.0163809272084388 L0.0,-0.8105367424163537 L0.0,-0.5640488608528257 L0.0,-0.2892772141432088 L0.0,-7.960204194457797e-17 L0.0,0.28927721414320867 L0.0,0.5640488608528255 L0.0,0.8105367424163535 L0.0,1.0163809272084388 L0.0,1.1712595282731448 L0.0,1.2674062858363708 L0.0,1.2999999999999994 " />
			<path d="M0.0,1.3 L0.0,1.2674062858363708 L0.0,1.1712595282731448 L0.0,1.016380927208439 L0.0,0.8105367424163539 L0.0,0.5640488608528258 L0.0,0.28927721414320895 L0.0,2.3880612583373386e-16 L0.0,-0.2892772141432085 L0.0,-0.5640488608528254 L0.0,-0.8105367424163534 L0.0,-1.0163809272084385 L0.0,-1.1712595282731448 L0.0,-1.2674062858363706 L0.0,-1.2999999999999987 " />
			<path d="M0.0,29.8 L0.0,29.855158593199988 L0.0,30.017868490614678 L0.0,30.279970738570334 L0.0,30.628322435910786 L0.0,31.04545577394137 L0.0,31.51045394529611 L0.0,32.0 L0.0,32.489546054703894 L0.0,32.95454422605863 L0.0,33.37167756408921 L0.0,33.720029261429666 L0.0,33.98213150938532 L0.0,34.14484140680001 L0.0,34.2 " />
			<path d="M0.0,34.2 L0.0,34.14484140680001 L0.0,33.982131509385326 L0.0,33.720029261429666 L0.0,33.37167756408921 L0.0,32.95454422605863 L0.0,32.489546054703894 L0.0,32.0 L0.0,31.51045394529611 L0.0,31.045455773941374 L0.0,30.628322435910786 L0.0,30.279970738570334 L0.0,30.017868490614678 L0.0,29.855158593199988 L0.0,29.800000000000004 " />
			<path d="M0.0,-34.2 L0.0,-34.14484140680001 L0.0,-33.982131509385326 L0.0,-33.720029261429666 L0.0,-33.37167756408921 L0.0,-32.95454422605863 L0.0,-32.489546054703894 L0.0,-32.0 L0.0,-31.51045394529611 L0.0,-31.045455773941374 L0.0,-30.628322435910786 L0.0,-30.279970738570334 L0.0,-30.017868490614678 L0.0,-29.855158593199988 L0.0,-29.8 " />
			<path d="M0.0,-29.8 L0.0,-29.855158593199988 L0.0,-30.017868490614678 L0.0,-30.279970738570334 L0.0,-30.628322435910786 L0.0,-31.04545577394137 L0.0,-31.510453945296106 L0.0,-32.0 L0.0,-32.489546054703894 L0.0,-32.95454422605863 L0.0,-33.37167756408921 L0.0,-33.720029261429666 L0.0,-33.98213150938532 L0.0,-34.14484140680001 L0.0,-34.2 " />
			<path d="M0.0,-1.3 L0.0,-1.2674062858363708 L0.0,-1.1712595282731448 L0.0,-1.0163809272084388 L0.0,-0.8105367424163537 L0.0,-0.5640488608528257 L0.0,-0.2892772141432088 L0.0,-7.960204194457797e-17 L0.0,0.28927721414320867 L0.0,0.5640488608528255 L0.0,0.8105367424163535 L0.0,1.0163809272084388 L0.0,1.1712595282731448 L0.0,1.2674062858363708 L0.0,1.2999999999999994 " />
			<path d="M0.0,1.3 L0.0,1.2674062858363708 L0.0,1.1712595282731448 L0.0,1.016380927208439 L0.0,0.8105367424163539 L0.0,0.5640488608528258 L0.0,0.28927721414320895 L0.0,2.3880612583373386e-16 L0.0,-0.2892772141432085 L0.0,-0.5640488608528254 L0.0,-0.8105367424163534 L0.0,-1.0163809272084385 L0.0,-1.1712595282731448 L0.0,-1.2674062858363706 L0.0,-1.2999999999999987 " />
			<path d="M0.0,29.8 L0.0,29.855158593199988 L0.0,30.017868490614678 L0.0,30.279970738570334 L0.0,30.628322435910786 L0.0,31.04545577394137 L0.0,31.51045394529611 L0.0,32.0 L0.0,32.489546054703894 L0.0,32.95454422605863 L0.0,33.37167756408921 L0.0,33.720029261429666 L0.0,33.98213150938532 L0.0,34.14484140680001 L0.0,34.2 " />
			<path d="M0.0,34.2 L0.0,34.14484140680001 L0.0,33.982131509385326 L0.0,33.720029261429666 L0.0,33.37167756408921 L0.0,32.95454422605863 L0.0,32.489546054703894 L0.0,32.0 L0.0,31.51045394529611 L0.0,31.045455773941374 L0.0,30.628322435910786 L0.0,30.279970738570334 L0.0,30.017868490614678 L0.0,29.855158593199988 L0.0,29.800000000000004 " />
			<path d="M-10.0,-1.3 L-10.0,-1.2674062858363708 L-10.0,-1.1712595282731448 L-10.0,-1.0163809272084388 L-10.0,-0.8105367424163537 L-10.0,-0.5640488608528257 L-10.0,-0.2892772141432088 L-10.0,-7.960204194457797e-17 L-10.0,0.28927721414320867 L-10.0,0.5640488608528255 L-10.0,0.8105367424163535 L-10.0,1.0163809272084388 L-10.0,1.1712595282731448 L-10.0,1.2674062858363708 L-10.0,1.2999999999999994 " />
			<path d="M-10.0,1.3 L-10.0,1.2674062858363708 L-10.0,1.1712595282731448 L-10.0,1.016380927208439 L-10.0,0.8105367424163539 L-10.0,0.5640488608528258 L-10.0,0.28927721414320895 L-10.0,2.3880612583373386e-16 L-10.0,-0.2892772141432085 L-10.0,-0.5640488608528254 L-10.0,-0.8105367424163534 L-10.0,-1.0163809272084385 L-10.0,-1.1712595282731448 L-10.0,-1.2674062858363706 L-10.0,-1.2999999999999987 " />
			<path d="M-10.0,-1.3 L-10.0,-1.2674062858363708 L-10.0,-1.1712595282731448 L-10.0,-1.0163809272084388 L-10.0,-0.8105367424163537 L-10.0,-0.5640488608528257 L-10.0,-0.2892772141432088 L-10.0,-7.960204194457797e-17 L-10.0,0.28927721414320867 L-10.0,0.5640488608528255 L-10.0,0.8105367424163535 L-10.0,1.0163809272084388 L-10.0,1.1712595282731448 L-10.0,1.2674062858363708 L-10.0,1.2999999999999994 " />
			<path d="M-10.0,1.3 L-10.0,1.2674062858363708 L-10.0,1.1712595282731448 L-10.0,1.016380927208439 L-10.0,0.8105367424163539 L-10.0,0.5640488608528258 L-10.0,0.28927721414320895 L-10.0,2.3880612583373386e-16 L-10.0,-0.2892772141432085 L-10.0,-0.5640488608528254 L-10.0,-0.8105367424163534 L-10.0,-1.0163809272084385 L-10.0,-1.1712595282731448 L-10.0,-1.2674062858363706 L-10.0,-1.2999999999999987 " />
			<path d="M-6.0,-34.2 L0.0,-34.2 " />
			<path d="M-6.0,-34.2 L-6.0,-34.14484140680001 L-6.0,-33.982131509385326 L-6.0,-33.720029261429666 L-6.0,-33.37167756408921 L-6.0,-32.95454422605863 L-6.0,-32.489546054703894 L-6.0,-32.0 L-6.0,-31.51045394529611 L-6.0,-31.045455773941374 L-6.0,-30.628322435910786 L-6.0,-30.279970738570334 L-6.0,-30.017868490614678 L-6.0,-29.855158593199988 L-6.0,-29.8 " />
			<path d="M-6.0,-29.8 L-6.0,-29.855158593199988 L-6.0,-30.017868490614678 L-6.0,-30.279970738570334 L-6.0,-30.628322435910786 L-6.0,-31.04545577394137 L-6.0,-31.510453945296106 L-6.0,-32.0 L-6.0,-32.489546054703894 L-6.0,-32.95454422605863 L-6.0,-33.37167756408921 L-6.0,-33.720029261429666 L-6.0,-33.98213150938532 L-6.0,-34.14484140680001 L-6.0,-34.2 " />
			<path d="M-10.0,-1.3 L0.0,-1.3 " />
			<path d="M-6.0,29.8 L0.0,29.8 " />
			<path d="M-6.0,29.8 L-6.0,29.855158593199988 L-6.0,30.017868490614678 L-6.0,30.279970738570334 L-6.0,30.628322435910786 L-6.0,31.04545577394137 L-6.0,31.51045394529611 L-6.0,32.0 L-6.0,32.489546054703894 L-6.0,32.95454422605863 L-6.0,33.37167756408921 L-6.0,33.720029261429666 L-6.0,33.98213150938532 L-6.0,34.14484140680001 L-6.0,34.2 " />
			<path d="M-6.0,34.2 L-6.0,34.14484140680001 L-6.0,33.982131509385326 L-6.0,33.720029261429666 L-6.0,33.37167756408921 L-6.0,32.95454422605863 L-6.0,32.489546054703894 L-6.0,32.0 L-6.0,31.51045394529611 L-6.0,31.045455773941374 L-6.0,30.628322435910786 L-6.0,30.279970738570334 L-6.0,30.017868490614678 L-6.0,29.855158593199988 L-6.0,29.800000000000004 " />
			<path d="M-6.0,-34.2 L0.0,-34.2 " />
			<path d="M-6.0,-34.2 L-6.0,-34.14484140680001 L-6.0,-33.982131509385326 L-6.0,-33.720029261429666 L-6.0,-33.37167756408921 L-6.0,-32.95454422605863 L-6.0,-32.489546054703894 L-6.0,-32.0 L-6.0,-31.51045394529611 L-6.0,-31.045455773941374 L-6.0,-30.628322435910786 L-6.0,-30.279970738570334 L-6.0,-30.017868490614678 L-6.0,-29.855158593199988 L-6.0,-29.8 " />
			<path d="M-6.0,-29.8 L-6.0,-29.855158593199988 L-6.0,-30.017868490614678 L-6.0,-30.279970738570334 L-6.0,-30.628322435910786 L-6.0,-31.04545577394137 L-6.0,-31.510453945296106 L-6.0,-32.0 L-6.0,-32.489546054703894 L-6.0,-32.95454422605863 L-6.0,-33.37167756408921 L-6.0,-33.720029261429666 L-6.0,-33.98213150938532 L-6.0,-34.14484140680001 L-6.0,-34.2 " />
			<path d="M-10.0,-1.3 L0.0,-1.3 " />
			<path d="M-6.0,29.8 L0.0,29.8 " />
			<path d="M-6.0,29.8 L-6.0,29.855158593199988 L-6.0,30.017868490614678 L-6.0,30.279970738570334 L-6.0,30.628322435910786 L-6.0,31.04545577394137 L-6.0,31.51045394529611 L-6.0,32.0 L-6.0,32.489546054703894 L-6.0,32.95454422605863 L-6.0,33.37167756408921 L-6.0,33.720029261429666 L-6.0,33.98213150938532 L-6.0,34.14484140680001 L-6.0,34.2 " />
			<path d="M-6.0,34.2 L-6.0,34.14484140680001 L-6.0,33.982131509385326 L-6.0,33.720029261429666 L-6.0,33.37167756408921 L-6.0,32.95454422605863 L-6.0,32.489546054703894 L-6.0,32.0 L-6.0,31.51045394529611 L-6.0,31.045455773941374 L-6.0,30.628322435910786 L-6.0,30.279970738570334 L-6.0,30.017868490614678 L-6.0,29.855158593199988 L-6.0,29.800000000000004 " />
			<path d="M-14.0,3.5 L-18.0,3.5 " />
			<path d="M-14.0,3.5 L-14.0,3.4122476926363827 L-14.0,3.153391037658467 L-14.0,2.7364101886381045 L-14.0,2.1822143065055677 L-14.0,1.5185930869114537 L-14.0,0.7788232688471006 L-14.0,2.143131898507868e-16 L-14.0,-0.7788232688471002 L-14.0,-1.5185930869114532 L-14.0,-2.1822143065055672 L-14.0,-2.7364101886381045 L-14.0,-3.1533910376584666 L-14.0,-3.4122476926363827 L-14.0,-3.4999999999999982 " />
			<path d="M-14.0,-3.5 L-14.0,-3.4122476926363827 L-14.0,-3.153391037658467 L-14.0,-2.7364101886381045 L-14.0,-2.182214306505568 L-14.0,-1.5185930869114541 L-14.0,-0.7788232688471011 L-14.0,-6.429395695523604e-16 L-14.0,0.7788232688470997 L-14.0,1.5185930869114528 L-14.0,2.182214306505567 L-14.0,2.736410188638104 L-14.0,3.1533910376584666 L-14.0,3.4122476926363823 L-14.0,3.4999999999999964 " />
			<path d="M-18.0,3.5 L-18.0,3.4122476926363827 L-18.0,3.153391037658467 L-18.0,2.7364101886381045 L-18.0,2.1822143065055677 L-18.0,1.5185930869114537 L-18.0,0.7788232688471006 L-18.0,2.143131898507868e-16 L-18.0,-0.7788232688471002 L-18.0,-1.5185930869114532 L-18.0,-2.1822143065055672 L-18.0,-2.7364101886381045 L-18.0,-3.1533910376584666 L-18.0,-3.4122476926363827 L-18.0,-3.4999999999999982 " />
			<path d="M-18.0,-3.5 L-18.0,-3.4122476926363827 L-18.0,-3.153391037658467 L-18.0,-2.7364101886381045 L-18.0,-2.182214306505568 L-18.0,-1.5185930869114541 L-18.0,-0.7788232688471011 L-18.0,-6.429395695523604e-16 L-18.0,0.7788232688470997 L-18.0,1.5185930869114528 L-18.0,2.182214306505567 L-18.0,2.736410188638104 L-18.0,3.1533910376584666 L-18.0,3.4122476926363823 L-18.0,3.4999999999999964 " />
			<path d="M-14.0,-1.6 L-14.0,-1.559884659490918 L-14.0,-1.4415501886438706 L-14.0,-1.2509303719488478 L-14.0,-0.9975836829739738 L-14.0,-0.6942139825880931 L-14.0,-0.3560334943301031 L-14.0,-9.797174393178826e-17 L-14.0,0.35603349433010295 L-14.0,0.694213982588093 L-14.0,0.9975836829739736 L-14.0,1.2509303719488478 L-14.0,1.4415501886438706 L-14.0,1.559884659490918 L-14.0,1.5999999999999992 " />
			<path d="M-14.0,1.6 L-14.0,1.559884659490918 L-14.0,1.4415501886438706 L-14.0,1.250930371948848 L-14.0,0.9975836829739739 L-14.0,0.6942139825880933 L-14.0,0.35603349433010334 L-14.0,2.9391523179536476e-16 L-14.0,-0.3560334943301028 L-14.0,-0.6942139825880927 L-14.0,-0.9975836829739735 L-14.0,-1.2509303719488476 L-14.0,-1.4415501886438706 L-14.0,-1.5598846594909177 L-14.0,-1.5999999999999985 " />
			<path d="M-18.0,-1.6 L-18.0,-1.559884659490918 L-18.0,-1.4415501886438706 L-18.0,-1.2509303719488478 L-18.0,-0.9975836829739738 L-18.0,-0.6942139825880931 L-18.0,-0.3560334943301031 L-18.0,-9.797174393178826e-17 L-18.0,0.35603349433010295 L-18.0,0.694213982588093 L-18.0,0.9975836829739736 L-18.0,1.2509303719488478 L-18.0,1.4415501886438706 L-18.0,1.559884659490918 L-18.0,1.5999999999999992 " />
			<path d="M-18.0,1.6 L-18.0,1.559884659490918 L-18.0,1.4415501886438706 L-18.0,1.250930371948848 L-18.0,0.9975836829739739 L-18.0,0.6942139825880933 L-18.0,0.35603349433010334 L-18.0,2.9391523179536476e-16 L-18.0,-0.3560334943301028 L-18.0,-0.6942139825880927 L-18.0,-0.9975836829739735 L-18.0,-1.2509303719488476 L-18.0,-1.4415501886438706 L-18.0,-1.5598846594909177 L-18.0,-1.5999999999999985 " />
			<path d="M-18.0,-1.6 L-14.0,-1.6 " />
			<path d="M-14.0,3.5 L-14.0,3.4122476926363827 L-14.0,3.153391037658467 L-14.0,2.7364101886381045 L-14.0,2.1822143065055677 L-14.0,1.5185930869114537 L-14.0,0.7788232688471006 L-14.0,2.143131898507868e-16 L-14.0,-0.7788232688471002 L-14.0,-1.5185930869114532 L-14.0,-2.1822143065055672 L-14.0,-2.7364101886381045 L-14.0,-3.1533910376584666 L-14.0,-3.4122476926363827 L-14.0,-3.4999999999999982 " />
			<path d="M-18.0,3.5 L-18.0,3.4122476926363827 L-18.0,3.153391037658467 L-18.0,2.7364101886381045 L-18.0,2.1822143065055677 L-18.0,1.5185930869114537 L-18.0,0.7788232688471006 L-18.0,2.143131898507868e-16 L-18.0,-0.7788232688471002 L-18.0,-1.5185930869114532 L-18.0,-2.1822143065055672 L-18.0,-2.7364101886381045 L-18.0,-3.1533910376584666 L-18.0,-3.4122476926363827 L-18.0,-3.4999999999999982 " />
			<path d="M-14.0,-1.6 L-14.0,-1.559884659490918 L-14.0,-1.4415501886438706 L-14.0,-1.2509303719488478 L-14.0,-0.9975836829739738 L-14.0,-0.6942139825880931 L-14.0,-0.3560334943301031 L-14.0,-9.797174393178826e-17 L-14.0,0.35603349433010295 L-14.0,0.694213982588093 L-14.0,0.9975836829739736 L-14.0,1.2509303719488478 L-14.0,1.4415501886438706 L-14.0,1.559884659490918 L-14.0,1.5999999999999992 " />
			<path d="M-14.0,1.6 L-14.0,1.559884659490918 L-14.0,1.4415501886438706 L-14.0,1.250930371948848 L-14.0,0.9975836829739739 L-14.0,0.6942139825880933 L-14.0,0.35603349433010334 L-14.0,2.9391523179536476e-16 L-14.0,-0.3560334943301028 L-14.0,-0.6942139825880927 L-14.0,-0.9975836829739735 L-14.0,-1.2509303719488476 L-14.0,-1.4415501886438706 L-14.0,-1.5598846594909177 L-14.0,-1.5999999999999985 " />
			<path d="M-18.0,-1.6 L-18.0,-1.559884659490918 L-18.0,-1.4415501886438706 L-18.0,-1.2509303719488478 L-18.0,-0.9975836829739738 L-18.0,-0.6942139825880931 L-18.0,-0.3560334943301031 L-18.0,-9.797174393178826e-17 L-18.0,0.35603349433010295 L-18.0,0.694213982588093 L-18.0,0.9975836829739736 L-18.0,1.2509303719488478 L-18.0,1.4415501886438706 L-18.0,1.559884659490918 L-18.0,1.5999999999999992 " />
			<path d="M-18.0,1.6 L-18.0,1.559884659490918 L-18.0,1.4415501886438706 L-18.0,1.250930371948848 L-18.0,0.9975836829739739 L-18.0,0.6942139825880933 L-18.0,0.35603349433010334 L-18.0,2.9391523179536476e-16 L-18.0,-0.3560334943301028 L-18.0,-0.6942139825880927 L-18.0,-0.9975836829739735 L-18.0,-1.2509303719488476 L-18.0,-1.4415501886438706 L-18.0,-1.5598846594909177 L-18.0,-1.5999999999999985 " />
			<path d="M-18.0,-1.6 L-14.0,-1.6 " />
			<path d="M-29.0,-24.700000000000003 L-29.55982238051654,-24.700000000000003 L-30.11260466978157,-24.700000000000003 L-30.651395309775836,-24.700000000000003 L-31.16941869558779,-24.700000000000003 L-31.660160382576684,-24.700000000000003 L-32.117449009293665,-24.700000000000003 L-32.53553390593274,-24.700000000000003 L-32.90915741234015,-24.700000000000003 L-33.23362099614142,-24.700000000000003 L-33.5048443395121,-24.700000000000003 L-33.719416651541835,-24.700000000000003 L-33.87463956090912,-24.700000000000003 L-33.96856104946621,-24.700000000000003 L-34.0,-24.700000000000003 " />
			<path d="M-24.0,-24.700000000000003 L-24.031438950533786,-24.700000000000003 L-24.125360439090883,-24.700000000000003 L-24.280583348458162,-24.700000000000003 L-24.495155660487903,-24.700000000000003 L-24.766379003858578,-24.700000000000003 L-25.09084258765985,-24.700000000000003 L-25.464466094067262,-24.700000000000003 L-25.88255099070633,-24.700000000000003 L-26.339839617423316,-24.700000000000003 L-26.83058130441221,-24.700000000000003 L-27.348604690224164,-24.700000000000003 L-27.88739533021843,-24.700000000000003 L-28.44017761948346,-24.700000000000003 L-28.999999999999957,-24.700000000000003 " />
			<path d="M-29.0,-22.000000000000004 L-29.55982238051654,-22.000000000000004 L-30.11260466978157,-22.000000000000004 L-30.651395309775836,-22.000000000000004 L-31.16941869558779,-22.000000000000004 L-31.660160382576684,-22.000000000000004 L-32.117449009293665,-22.000000000000004 L-32.53553390593274,-22.000000000000004 L-32.90915741234015,-22.000000000000004 L-33.23362099614142,-22.000000000000004 L-33.5048443395121,-22.000000000000004 L-33.719416651541835,-22.000000000000004 L-33.87463956090912,-22.000000000000004 L-33.96856104946621,-22.000000000000004 L-34.0,-22.000000000000004 " />
			<path d="M-24.0,-22.000000000000004 L-24.031438950533786,-22.000000000000004 L-24.125360439090883,-22.000000000000004 L-24.280583348458162,-22.000000000000004 L-24.495155660487903,-22.000000000000004 L-24.766379003858578,-22.000000000000004 L-25.09084258765985,-22.000000000000004 L-25.464466094067262,-22.000000000000004 L-25.88255099070633,-22.000000000000004 L-26.339839617423316,-22.000000000000004 L-26.83058130441221,-22.000000000000004 L-27.348604690224164,-22.000000000000004 L-27.88739533021843,-22.000000000000004 L-28.44017761948346,-22.000000000000004 L-28.999999999999957,-22.000000000000004 " />
			<path d="M-78.0,-10.0 L-78.0,10.0 " />
			<path d="M-93.5,-10.0 L-78.0,-10.0 " />
			<path d="M-78.0,10.0 L-93.5,10.0 " />
			<path d="M-93.5,10.0 L-93.5,-10.0 " />
			<path d="M-101.5,-10.5 L-101.5,10.5 " />
			<path d="M-118.5,-10.5 L-101.5,-10.5 " />
			<path d="M-101.5,10.5 L-118.5,10.5 " />
			<path d="M-118.5,10.5 L-118.5,-10.5 " />
			<path d="M-126.5,-9.0 L-126.5,9.0 " />
			<path d="M-146.5,-9.0 L-126.5,-9.0 " />
			<path d="M-126.5,9.0 L-146.5,9.0 " />
			<path d="M-146.5,9.0 L-146.5,-9.0 " />
			<path d="M-40.0,-13.499999999999906 L-18.0,-13.499999999999906 " />
			<path d="M-30.2,24.0 L-30.2,19.5 " />
			<path d="M-27.8,24.0 L-27.8,19.5 " />
			<path d="M-30.2,24.0 L-30.2,19.5 " />
			<path d="M-27.8,24.0 L-27.8,19.5 " />
			<path d="M-23.8,-21.5 L-23.8,-20.9 " />
			<path d="M-34.2,-21.5 L-34.2,-20.9 " />
			<path d="M-31.75,24.0 L-31.75,19.999992072141765 " />
			<path d="M-26.25,24.0 L-26.25,19.999992291809313 " />
			<path d="M-31.749946817309148,20.0 L-26.2500516134709,20.0 " />
			<path d="M-295.0,-7.0 L-291.0,-7.0 " />
			<path d="M-295.49999999999994,-2.5 L-295.0,-2.5 " />
			<path d="M-40.0,-12.5 L-18.0,-12.5 " />
			<path d="M-297.0,-11.0 L-295.5,-11.0 " />
			<path d="M-297.0,11.5 L-291.0,11.5 " />
			<path d="M-297.0,-10.0 L-291.0,-10.0 " />
			<path d="M-297.0,13.0 L-291.0,13.0 " />
			<path d="M-297.0,-10.0 L-291.0,-10.0 " />
			<path d="M-291.0,-37.0 L-166.0,-37.0 " />
			<path d="M-66.0,-37.0 L-6.0,-37.0 " />
			<path d="M-297.0,13.0 L-291.0,13.0 " />
			<path d="M-291.0,27.0 L-166.0,27.0 " />
			<path d="M-66.0,27.0 L-6.0,27.0 " />
			<path d="M-297.0,-29.8 L-291.0,-29.8 " />
			<path d="M-297.0,34.2 L-291.0,34.2 " />
			<path d="M-297.0,-29.8 L-291.0,-29.8 " />
			<path d="M-297.0,34.2 L-291.0,34.2 " />
			<path d="M-6.0,15.0 L0.0,15.0 " />
			<path d="M-10.0,-3.5 L-6.0,-3.5 " />
			<path d="M-6.0,-29.8 L0.0,-29.8 " />
			<path d="M-10.0,1.3 L0.0,1.3 " />
			<path d="M-6.0,34.2 L0.0,34.2 " />
			<path d="M-6.0,-29.8 L0.0,-29.8 " />
			<path d="M-10.0,1.3 L0.0,1.3 " />
			<path d="M-6.0,34.2 L0.0,34.2 " />
			<path d="M-18.0,-3.5 L-14.0,-3.5 " />
			<path d="M-18.0,1.6 L-14.0,1.6 " />
			<path d="M-18.0,1.6 L-14.0,1.6 " />

       </g>

       <!-- solid lines -->
       <g  stroke="rgb(20,20,20)" fill="none">
			<path d="M-18.0,-20.0 L-18.0,-19.900810684509878 L-18.0,-19.604226590070255 L-18.0,-19.113189514012397 L-18.0,-18.43257001948175 L-18.0,-17.569119124655494 L-18.0,-16.53140133985534 L-18.0,-15.329709716755907 L-18.0,-13.97596375230975 L-18.0,-12.48359116007295 L-18.0,-10.86739468163353 L-18.0,-9.143405259230885 L-18.0,-7.328723025937052 L-18.0,-5.441347690607278 L-18.0,-3.5000000000001696 " />
			<path d="M-18.0,3.500000000000007 L-18.0,5.132631378001497 L-18.0,6.7293864575280065 L-18.0,8.279104167852722 L-18.0,9.770952222175183 L-18.0,11.19450283362848 L-18.0,12.539805603894585 L-18.0,13.797457074947628 L-18.0,14.958666457769258 L-18.0,16.015317078602497 L-18.0,16.960023113244336 L-18.0,17.786181212813105 L-18.0,18.48801666013455 L-18.0,19.060623734120593 L-18.0,19.49999999999995 " />
			<path d="M-40.0,-20.0 L-40.0,-19.567288393462434 L-40.0,-18.28787750729297 L-40.0,-16.21712893548921 L-40.0,-13.444646372175209 L-40.0,-10.09039835575787 L-40.0,-6.299527091028132 L-40.0,-2.2360679774998222 L-40.0,1.924148392715602 L-40.0,6.001104628708162 L-40.0,9.818386102211889 L-40.0,13.210814613326194 L-40.0,16.031595842940266 L-40.0,18.158671313298374 L-40.0,19.49999999999994 " />
			<path d="M-17.5,19.5 L-40.5,19.5 " />
			<path d="M-22.0,-19.5 L-36.0,-19.5 " />
			<path d="M-22.0,-21.5 L-22.0,-19.5 " />
			<path d="M-36.0,-21.5 L-36.0,-19.5 " />
			<path d="M-17.5,19.5 L-17.5,24.0 " />
			<path d="M-40.5,19.5 L-40.5,24.0 " />
			<path d="M-17.5,24.0 L-40.5,24.0 " />
			<path d="M-22.0,-21.5 L-36.0,-21.5 " />
			<path d="M-33.8,24.0 L-33.8,27.0 " />
			<path d="M-33.8,37.0 L-33.8,46.0 " />
			<path d="M-24.2,24.0 L-24.2,27.0 " />
			<path d="M-24.2,37.0 L-24.2,46.0 " />
			<path d="M-33.8,46.0 L-24.199999999999996,46.0 " />
			<path d="M-270.0,7.0 L-291.0,7.0 " />
			<path d="M-270.0,-7.0 L-270.0,-6.8244953852727654 L-270.0,-6.306782075316934 L-270.0,-5.472820377276209 L-270.0,-4.364428613011136 L-270.0,-3.0371861738229082 L-270.0,-1.5576465376942021 L-270.0,-1.2858791391047208e-15 L-270.0,1.5576465376941995 L-270.0,3.0371861738229056 L-270.0,4.364428613011134 L-270.0,5.472820377276208 L-270.0,6.306782075316933 L-270.0,6.824495385272765 L-270.0,6.999999999999993 " />
			<path d="M-264.0,4.0 L-270.0,4.0 " />
			<path d="M-264.0,-12.5 L-264.0,-12.186598902272795 L-264.0,-11.262110848780239 L-264.0,-9.772893530850373 L-264.0,-7.793622523234172 L-264.0,-5.4235467389694785 L-264.0,-2.7815116744539323 L-264.0,-2.296212748401287e-15 L-264.0,2.781511674453928 L-264.0,5.423546738969474 L-264.0,7.793622523234167 L-264.0,9.772893530850371 L-264.0,11.262110848780239 L-264.0,12.186598902272793 L-264.0,12.499999999999988 " />
			<path d="M-14.0,12.5 L-18.0,12.5 " />
			<path d="M-40.0,12.5 L-264.0,12.5 " />
			<path d="M-14.0,-12.5 L-14.0,-12.447219115123573 L-14.0,-12.289322191983624 L-14.0,-12.027642660871766 L-14.0,-11.664390390140985 L-14.0,-11.202633023996485 L-14.0,-10.646270076419595 L-14.0,-10.000000000000009 L-14.0,-9.269280507778136 L-14.0,-8.460282483177329 L-14.0,-7.5798378672538576 L-14.0,-6.635381963353824 L-14.0,-5.634890646410766 L-14.0,-4.586813007147794 L-14.0,-3.5000000000001092 " />
			<path d="M-14.0,3.5000000000000004 L-14.0,4.586813007147769 L-14.0,5.634890646410742 L-14.0,6.635381963353802 L-14.0,7.579837867253836 L-14.0,8.46028248317731 L-14.0,9.269280507778118 L-14.0,9.999999999999993 L-14.0,10.646270076419581 L-14.0,11.202633023996473 L-14.0,11.664390390140976 L-14.0,12.02764266087176 L-14.0,12.289322191983617 L-14.0,12.44721911512357 L-14.0,12.499999999999995 " />
			<path d="M-14.0,1.5 L-12.0,1.5 " />
			<path d="M-12.0,-1.5 L-12.0,-1.4623918682727355 L-12.0,-1.3514533018536288 L-12.0,-1.1727472237020449 L-12.0,-0.9352347027881005 L-12.0,-0.6508256086763374 L-12.0,-0.3337814009344719 L-12.0,-2.755455298081545e-16 L-12.0,0.33378140093447134 L-12.0,0.6508256086763369 L-12.0,0.9352347027881001 L-12.0,1.1727472237020446 L-12.0,1.3514533018536286 L-12.0,1.4623918682727353 L-12.0,1.4999999999999984 " />
			<path d="M-291.0,-40.0 L-291.0,40.0 " />
			<path d="M-291.0,-40.0 L-297.0,-40.0 " />
			<path d="M-291.0,40.0 L-297.0,40.0 " />
			<path d="M-297.0,-40.0 L-297.0,40.0 " />
			<path d="M-6.0,-27.0 L-291.0,-27.0 " />
			<path d="M-6.0,37.0 L-66.0,37.0 " />
			<path d="M-166.0,37.0 L-291.0,37.0 " />
			<path d="M-6.0,-40.0 L-6.0,40.0 " />
			<path d="M-66.0,-27.0 L-66.0,-26.0 " />
			<path d="M-66.0,-38.0 L-66.0,-37.0 " />
			<path d="M-66.0,-26.0 L-166.0,-26.0 " />
			<path d="M-166.0,-27.0 L-166.0,-26.0 " />
			<path d="M-166.0,-38.0 L-166.0,-37.0 " />
			<path d="M-66.0,-38.0 L-166.0,-38.0 " />
			<path d="M-66.0,26.0 L-66.0,27.0 " />
			<path d="M-66.0,37.0 L-66.0,40.0 " />
			<path d="M-166.0,37.0 L-166.0,40.0 " />
			<path d="M-166.0,26.0 L-166.0,27.0 " />
			<path d="M-66.0,26.0 L-166.0,26.0 " />
			<path d="M-297.0,-14.0 L-342.0,-14.0 " />
			<path d="M-297.0,14.0 L-342.0,14.0 " />
			<path d="M-342.0,-14.0 L-342.0,14.0 " />
			<path d="M0.0,-40.0 L-6.0,-40.0 " />
			<path d="M0.0,-40.0 L0.0,40.0 " />
			<path d="M0.0,40.0 L-6.0,40.0 " />
			<path d="M-6.0,3.5 L-10.0,3.5 " />
			<path d="M-10.0,-3.5 L-10.0,-3.4122476926363827 L-10.0,-3.153391037658467 L-10.0,-2.7364101886381045 L-10.0,-2.182214306505568 L-10.0,-1.5185930869114541 L-10.0,-0.7788232688471011 L-10.0,-6.429395695523604e-16 L-10.0,0.7788232688470997 L-10.0,1.5185930869114528 L-10.0,2.182214306505567 L-10.0,2.736410188638104 L-10.0,3.1533910376584666 L-10.0,3.4122476926363823 L-10.0,3.4999999999999964 " />
			<path d="M-166.0,37.0 L-66.0,37.0 " />
			<path d="M-166.0,40.0 L-66.0,40.0 " />
			<path d="M-14.0,3.5 L-18.0,3.5 " />
			<path d="M-14.0,-3.5 L-14.0,-3.4122476926363827 L-14.0,-3.153391037658467 L-14.0,-2.7364101886381045 L-14.0,-2.182214306505568 L-14.0,-1.5185930869114541 L-14.0,-0.7788232688471011 L-14.0,-6.429395695523604e-16 L-14.0,0.7788232688470997 L-14.0,1.5185930869114528 L-14.0,2.182214306505567 L-14.0,2.736410188638104 L-14.0,3.1533910376584666 L-14.0,3.4122476926363823 L-14.0,3.4999999999999964 " />
			<path d="M-18.0,-3.5 L-18.0,-3.4122476926363827 L-18.0,-3.153391037658467 L-18.0,-2.7364101886381045 L-18.0,-2.182214306505568 L-18.0,-1.5185930869114541 L-18.0,-0.7788232688471011 L-18.0,-6.429395695523604e-16 L-18.0,0.7788232688470997 L-18.0,1.5185930869114528 L-18.0,2.182214306505567 L-18.0,2.736410188638104 L-18.0,3.1533910376584666 L-18.0,3.4122476926363823 L-18.0,3.4999999999999964 " />
			<path d="M-34.0,-24.700000000000003 L-33.87463956090912,-24.700000000000003 L-33.5048443395121,-24.700000000000003 L-32.90915741234015,-24.700000000000003 L-32.117449009293665,-24.700000000000003 L-31.16941869558779,-24.700000000000003 L-30.11260466978157,-24.700000000000003 L-29.0,-24.700000000000003 L-27.88739533021843,-24.700000000000003 L-26.83058130441221,-24.700000000000003 L-25.882550990706335,-24.700000000000003 L-25.09084258765985,-24.700000000000003 L-24.495155660487903,-24.700000000000003 L-24.125360439090883,-24.700000000000003 L-24.000000000000004,-24.700000000000003 " />
			<path d="M-34.0,-22.000000000000004 L-33.87463956090912,-22.000000000000004 L-33.5048443395121,-22.000000000000004 L-32.90915741234015,-22.000000000000004 L-32.117449009293665,-22.000000000000004 L-31.16941869558779,-22.000000000000004 L-30.11260466978157,-22.000000000000004 L-29.0,-22.000000000000004 L-27.88739533021843,-22.000000000000004 L-26.83058130441221,-22.000000000000004 L-25.882550990706335,-22.000000000000004 L-25.09084258765985,-22.000000000000004 L-24.495155660487903,-22.000000000000004 L-24.125360439090883,-22.000000000000004 L-24.000000000000004,-22.000000000000004 " />
			<path d="M-78.0,-10.0 L-78.0,10.0 " />
			<path d="M-93.5,-10.0 L-78.0,-10.0 " />
			<path d="M-78.0,10.0 L-93.5,10.0 " />
			<path d="M-93.5,10.0 L-93.5,-10.0 " />
			<path d="M-101.5,-10.5 L-101.5,10.5 " />
			<path d="M-118.5,-10.5 L-101.5,-10.5 " />
			<path d="M-101.5,10.5 L-118.5,10.5 " />
			<path d="M-118.5,10.5 L-118.5,-10.5 " />
			<path d="M-126.5,-9.0 L-126.5,9.0 " />
			<path d="M-146.5,-9.0 L-126.5,-9.0 " />
			<path d="M-126.5,9.0 L-146.5,9.0 " />
			<path d="M-146.5,9.0 L-146.5,-9.0 " />
			<path d="M-40.0,-20.0 L-36.0,-20.0 " />
			<path d="M-22.0,-20.0 L-18.0,-20.0 " />
			<path d="M-291.0,-7.0 L-270.0,-7.0 " />
			<path d="M-270.0,-4.0 L-264.0,-4.0 " />
			<path d="M-264.0,-12.5 L-40.0,-12.5 " />
			<path d="M-18.0,-12.5 L-14.0,-12.5 " />
			<path d="M-12.0,-1.5 L-14.0,-1.5 " />
			<path d="M-291.0,-37.0 L-6.0,-37.0 " />
			<path d="M-291.0,27.0 L-6.0,27.0 " />
			<path d="M-10.0,-3.5 L-6.0,-3.5 " />
			<path d="M-18.0,-3.5 L-14.0,-3.5 " />
			<path d="M-34.0,-22.000000000000004 L-34.0,-24.700000000000003 " />
			<path d="M-24.0,-22.000000000000004 L-24.0,-24.700000000000003 " />

       </g>
    </g>
    
</svg>
