<?xml version="1.0" encoding="UTF-8" standalone="no"?>
<svg
   xmlns:svg="http://www.w3.org/2000/svg"
   xmlns="http://www.w3.org/2000/svg"
   width="800.0"
   height="800.0"

>
    <g transform="scale(18.18181818181818, -18.18181818181818)   translate(18.2,-18.2)" stroke-width="0.05500000000000001"  fill="none">
       <!-- hidden lines -->
       <g  stroke="rgb(180,180,180)" fill="none" stroke-dasharray="0.05500000000000001,0.05500000000000001" >

       </g>

       <!-- solid lines -->
       <g  stroke="rgb(40,40,40)" fill="none">
			<path d="M-9.327379053088904,-12.999999999999936 L-9.037122594612766,-13.20342437437877 L-8.742431228666899,-13.400369256555202 L-8.443449573068133,-13.59073799714554 L-8.140324351064258,-13.774437173963598 L-7.8332043193305605,-13.951376637866998 L-7.522240194968481,-14.121469556997265 L-7.207584581542211,-14.28463245939198 L-6.889391894189505,-14.440785273948087 L-6.567818283843495,-14.589851369716248 L-6.243021560602655,-14.731757593506973 L-5.915161116286557,-14.86643430579006 L-5.584397846215399,-14.993815414869719 L-5.250894070251702,-15.113838409318644 L-4.9148134531429255,-15.226444388655064 L-4.5763209242040865,-15.331578092247772 L-4.2355825963798,-15.429187926434903 L-3.892765684725462,-15.519225989843177 L-3.5480384243475833,-15.601648096895184 L-3.201569987843533,-15.67641379949316 L-2.853530402281217,-15.743486406868612 L-2.504090465759435,-15.80283300358808 L-2.153421663589853,-15.854424465706156 L-1.8016960841417342,-15.898235475057863 L-1.4490863343907243,-15.93424453168339 L-1.0957654552131308,-15.96243396437904 L-0.7419068364672707,-15.982789939369257 L-0.3876841319035582,-15.995302467095462 L-0.033271173945087,-15.999965407118363 L0.321158111619468,-15.996776471131334 L0.6754297909887684,-15.985737224083376 L1.0293700077056622,-15.966853083411147 L1.3828050679760768,-15.940133316380377 L1.7355615259080874,-15.905591035538025 L2.0874662686293277,-15.863243192277384 L2.438346601240975,-15.813110568519294 L2.788030331566615,-15.75521776651356 L3.136345854654404,-15.689593196765559 L3.4831222369910475,-15.616269064093974 L3.8281893003862812,-15.535281351826493 L4.171377705486678,-15.446669804141237 L4.512519034877804,-15.350477906562567 L4.851445875733939,-15.246752864620852 L5.187991901974798,-15.135545580686674 L5.521991955888947,-15.01691062899083 L5.853282129183843,-14.89090622884239 L6.18169984342273,-14.757594216057962 L6.507083929808922,-14.617040012616181 L6.829274708278314,-14.469312594552312 L7.148114065861301,-14.31448445810871 L7.463445534275663,-14.15263158415779 L7.775114366712328,-13.983833400914913 L8.082967613776333,-13.80817274495952 L8.386854198545716,-13.625735820583639 L8.686624990711506,-13.436612157487703 L8.982132879762423,-13.240894566844448 L9.273232847178381,-13.03867909575245 L9.559782037597355,-12.830064980101659 L9.84163982892069,-12.615154595874042 L10.11866790132246,-12.39405340890326 L10.390730305129004,-12.166869923118012 L10.657693527535304,-11.933715627294465 L10.91942655812551,-11.694704940343868 L11.17580095316543,-11.449955155162254 L11.42669089863542,-11.199586381069725 L11.671973271972785,-10.94372148486761 L11.911527702493348,-10.6824860305424 L12.145236630462561,-10.416008217646068 L12.37298536478715,-10.144418818382993 L12.594662139299013,-9.867851113434375 L12.810158167603714,-9.586440826551629 L13.019367696466679,-9.300326057950867 L13.222188057710888,-9.009647216541145 L13.418519718600596,-8.714546951019713 L13.60826633068636,-8.415170079868142 L13.791334777087394,-8.111663520283605 L13.967635218188054,-7.804176216080256 L14.137081135726033,-7.492859064596046 L14.299589375250616,-7.177864842640862 L14.455080186930166,-6.859348131522334 L14.603477264688838,-6.537465241186085 L14.744707783653249,-6.212374133507679 L14.878702435890823,-5.884234344773881 L15.005395464422177,-5.553206907391291 L15.12472469549093,-5.219454270860776 L15.236631569075051,-4.8831402220564515 L15.341061167624805,-4.544429804848377 L15.437962243013164,-4.20348923910838 L15.527287241685494,-3.8604858391387604 L15.608992327996132,-3.5155879315639225 L15.683037405720446,-3.168964772725205 L15.749386137731783,-2.8207864656194666 L15.808005963833672,-2.471223876422175 L15.858868116738527,-2.120448550635977 L15.901947636184993,-1.768632628905888 L15.937223381187032,-1.4159487625424247 L15.964678040408721,-1.0625700287941258 L15.984298140659677,-0.7086698459110525 L15.996074053506925,-0.3544218880409411 L16.0,2.2345480568596053e-13 " />
			<path d="M-9.327379053088816,-13.0 L-9.610933610123913,-12.791792491351261 L-9.889842123461953,-12.577401272639653 L-10.163969765291924,-12.356929983221223 L-10.433184018934988,-12.130485201633098 L-10.697354742904684,-11.898176394072104 L-10.956354233818926,-11.660115861477452 L-11.210057288133383,-11.416418685243093 L-11.458341262666421,-11.167202671585937 L-11.701086133886324,-10.912588294596896 L-11.938174555932154,-10.652698638002208 L-12.169491917340176,-10.387659335663262 L-12.39492639644846,-10.117598510843628 L-12.614369015452848,-9.8426467142727 L-12.827713693088159,-9.562936861035867 L-13.034857295909195,-9.278604166321724 L-13.2356996881467,-8.989786080057375 L-13.430143780114243,-8.696622220463455 L-13.618095575142553,-8.39925430656096 L-13.799464215018673,-8.097826089662524 L-13.974162023907947,-7.792483283881264 L-14.142104550737583,-7.4833734956907865 L-14.303210610021353,-7.170646152570394 L-14.457402321105654,-6.8544524307700065 L-14.604605145817974,-6.534945182229698 L-14.744747924499569,-6.212278860689182 L-14.877762910404904,-5.886609447022979 L-15.003585802451285,-5.558094373837333 L-15.122155776302776,-5.226892449365355 L-15.233415513773444,-4.893163780697164 L-15.337311230535668,-4.557069696382148 L-15.43379270212015,-4.218772668440758 L-15.522813288195048,-3.878436233823529 L-15.60432995511247,-3.5362249153553065 L-15.678303296711487,-3.1923041422028837 L-15.74469755336755,-2.846840169904506 L-15.803480629279125,-2.499999999999895 " />
			<path d="M-15.80348062927911,2.499999999999997 L-15.74469755336753,2.846840169904607 L-15.678303296711467,3.1923041422029845 L-15.604329955112448,3.536224915355407 L-15.522813288195023,3.8784362338236287 L-15.433792702120124,4.218772668440857 L-15.337311230535638,4.557069696382246 L-15.233415513773412,4.893163780697262 L-15.122155776302742,5.226892449365453 L-15.00358580245125,5.55809437383743 L-14.877762910404867,5.8866094470230745 L-14.744747924499528,6.212278860689277 L-14.604605145817933,6.534945182229791 L-14.45740232110561,6.854452430770099 L-14.303210610021306,7.170646152570486 L-14.142104550737535,7.483373495690877 L-13.974162023907898,7.792483283881354 L-13.799464215018622,8.097826089662613 L-13.618095575142497,8.399254306561048 L-13.430143780114188,8.696622220463542 L-13.235699688146642,8.98978608005746 L-13.034857295909134,9.278604166321808 L-12.827713693088098,9.56293686103595 L-12.614369015452784,9.84264671427278 L-12.394926396448396,10.117598510843706 L-12.169491917340109,10.38765933566334 L-11.938174555932086,10.652698638002287 L-11.701086133886255,10.91258829459697 L-11.45834126266635,11.167202671586011 L-11.21005728813331,11.416418685243164 L-10.956354233818852,11.660115861477523 L-10.697354742904608,11.898176394072172 L-10.43318401893491,12.130485201633165 L-10.16396976529185,12.356929983221283 L-9.889842123461884,12.577401272639706 L-9.610933610123848,12.79179249135131 L-9.327379053088755,13.000000000000043 " />
			<path d="M16.0,0.0 L15.996074053506922,0.35442188804116226 L15.984298140659668,0.7086698459112714 L15.964678040408707,1.062570028794342 L15.937223381187012,1.4159487625426384 L15.901947636184968,1.7686326289060992 L15.858868116738499,2.120448550636185 L15.80800596383364,2.4712238764223806 L15.749386137731747,2.820786465619669 L15.683037405720405,3.1689647727254044 L15.608992327996088,3.5155879315641188 L15.527287241685446,3.8604858391389536 L15.437962243013112,4.20348923910857 L15.34106116762475,4.544429804848565 L15.236631569074992,4.883140222056635 L15.124724695490867,5.2194542708609575 L15.005395464422111,5.55320690739147 L14.878702435890753,5.884234344774055 L14.744707783653176,6.212374133507851 L14.603477264688761,6.537465241186253 L14.455080186930088,6.8593481315224984 L14.299589375250534,7.177864842641024 L14.13708113572595,7.492859064596204 L13.967635218187969,7.804176216080411 L13.791334777087306,8.111663520283756 L13.608266330686268,8.41517007986829 L13.418519718600502,8.714546951019859 L13.222188057710792,9.009647216541286 L13.019367696466581,9.300326057951004 L12.810158167603614,9.586440826551762 L12.594662139298912,9.867851113434504 L12.372985364787047,10.14441881838312 L12.145236630462456,10.41600821764619 L11.911527702493242,10.682486030542519 L11.671973271972677,10.943721484867725 L11.42669089863531,11.199586381069837 L11.17580095316532,11.449955155162362 L10.9194265581254,11.694704940343971 L10.65769352753519,11.933715627294564 L10.39073030512889,12.16686992311811 L10.118667901322347,12.394053408903353 L9.841639828920574,12.615154595874131 L9.55978203759724,12.830064980101744 L9.273232847178265,13.038679095752531 L8.982132879762307,13.240894566844526 L8.68662499071139,13.436612157487778 L8.3868541985456,13.62573582058371 L8.082967613776221,13.808172744959586 L7.775114366712217,13.983833400914975 L7.463445534275554,14.152631584157849 L7.1481140658611935,14.314484458108764 L6.829274708278208,14.469312594552362 L6.507083929808819,14.617040012616227 L6.181699843422629,14.757594216058004 L5.853282129183745,14.890906228842427 L5.5219919558888515,15.016910628990866 L5.187991901974704,15.135545580686706 L4.851445875733847,15.24675286462088 L4.512519034877715,15.350477906562594 L4.171377705486592,15.44666980414126 L3.8281893003861986,15.535281351826514 L3.4831222369909685,15.616269064093991 L3.1363458546543277,15.689593196765575 L2.7880303315665422,15.755217766513574 L2.438346601240905,15.813110568519305 L2.087466268629261,15.863243192277393 L1.7355615259080241,15.905591035538032 L1.382805067976017,15.940133316380383 L1.0293700077056058,15.96685308341115 L0.6754297909887156,15.985737224083378 L0.32115811161941865,15.996776471131334 L-0.03327117394513282,15.999965407118363 L-0.38768413190360046,15.995302467095462 L-0.7419068364673094,15.982789939369255 L-1.095765455213166,15.962433964379038 L-1.4490863343907558,15.934244531683389 L-1.8016960841417622,15.898235475057861 L-2.153421663589877,15.854424465706153 L-2.5040904657594556,15.802833003588077 L-2.8535304022812342,15.74348640686861 L-3.2015699878435466,15.676413799493156 L-3.5480384243475935,15.601648096895183 L-3.8927656847254686,15.519225989843175 L-4.235582596379802,15.429187926434901 L-4.5763209242040865,15.331578092247772 L-4.914813453142922,15.226444388655066 L-5.250894070251695,15.113838409318646 L-5.5843978462153885,14.993815414869724 L-5.915161116286543,14.866434305790065 L-6.243021560602639,14.73175759350698 L-6.567818283843475,14.589851369716257 L-6.889391894189482,14.440785273948098 L-7.207584581542188,14.284632459391993 L-7.522240194968459,14.121469556997278 L-7.833204319330538,13.95137663786701 L-8.140324351064237,13.77443717396361 L-8.443449573068111,13.590737997145553 L-8.742431228666877,13.400369256555216 L-9.037122594612747,13.203424374378784 L-9.327379053088885,12.99999999999995 " />
			<path d="M-9.327379053088926,-13.0 L-5.459853477887712,-13.0 " />
			<path d="M-5.459853477887702,13.0 L-9.327379053088924,13.0 " />
			<path d="M14.1,0.0 L14.09600680517312,0.33554753540011595 L14.084029482480412,0.6709050131147662 L14.064074816004574,1.005882483109176 L14.036154108280492,1.3402902105889754 L14.000283173893365,1.673938783468003 L13.956482330521151,2.0066392196533203 L13.90477638742643,2.338203074086675 L13.845194631404164,2.6684425454817835 L13.77777081019335,2.997170582696971 L13.702543113361937,3.3242009906829235 L13.619554150675864,3.6493485359455424 L13.528850927964413,3.9724290514641583 L13.430484820495632,4.293259541005689 L13.324511543876826,4.611658282775645 L13.21099112249664,4.927444932347287 L13.089987855526623,5.240440624810619 L12.961570280501483,5.550468076083375 L12.825811134498709,5.8573516833266 L12.682787312939503,6.160917624407971 L12.53257982603442,6.460993956356489 L12.375273752898304,6.757410712752804 L12.210958193360584,7.050000000000002 L12.039726217498187,7.33859609242032 L11.861674812919652,7.623035526123928 L11.676904829830326,7.903157191596609 L11.48552092390973,8.178802424953897 L11.287631497033479,8.449815097809996 L11.0833486358733,8.716041705710538 L10.872788048409962,8.977331455079147 L10.656068998395039,9.233536348628522 L10.433314237798658,9.484511269187664 L10.204649937281484,9.730114061897783 L9.970205614730316,9.970205614730324 L9.730114061897774,10.204649937281493 L9.484511269187657,10.433314237798665 L9.233536348628514,10.656068998395046 L8.97733145507914,10.87278804840997 L8.716041705710527,11.083348635873309 L8.449815097809985,11.287631497033486 L8.178802424953888,11.485520923909737 L7.9031571915965975,11.676904829830333 L7.623035526123919,11.86167481291966 L7.33859609242031,12.039726217498194 L7.049999999999993,12.210958193360588 L6.757410712752796,12.375273752898307 L6.460993956356482,12.532579826034421 L6.160917624407966,12.682787312939507 L5.857351683326597,12.825811134498709 L5.550468076083371,12.961570280501485 L5.240440624810618,13.089987855526623 L4.927444932347288,13.21099112249664 L4.611658282775647,13.324511543876826 L4.293259541005693,13.430484820495632 L3.972429051464163,13.528850927964411 L3.6493485359455486,13.619554150675862 L3.3242009906829306,13.702543113361935 L2.9971705826969792,13.777770810193347 L2.6684425454817933,13.845194631404162 L2.338203074086686,13.904776387426429 L2.0066392196533327,13.95648233052115 L1.6739387834680166,14.000283173893363 L1.3402902105889902,14.03615410828049 L1.0058824831091917,14.064074816004574 L0.6709050131147836,14.084029482480412 L0.3355475354001344,14.096006805173118 L1.9648349570056532e-14,14.1 L-0.3355475354000951,14.09600680517312 L-0.6709050131147443,14.084029482480414 L-1.0058824831091526,14.064074816004576 L-1.340290210588951,14.036154108280495 L-1.6739387834679773,14.000283173893369 L-2.0066392196532936,13.956482330521155 L-2.3382030740866475,13.904776387426436 L-2.6684425454817546,13.845194631404171 L-2.997170582696941,13.777770810193354 L-3.3242009906828924,13.702543113361944 L-3.6493485359455105,13.61955415067587 L-3.9724290514641254,13.528850927964422 L-4.293259541005654,13.430484820495643 L-4.61165828277561,13.324511543876838 L-4.9274449323472505,13.210991122496655 L-5.2404406248105815,13.089987855526639 L-5.550468076083336,12.961570280501501 L-5.85735168332656,12.825811134498727 L-6.160917624407934,12.68278731293952 L-6.460993956356452,12.532579826034437 L-6.757410712752769,12.375273752898321 L-7.0499999999999705,12.210958193360602 L-7.33859609242029,12.039726217498204 L-7.623035526123901,11.86167481291967 L-7.903157191596582,11.676904829830345 L-8.178802424953872,11.48552092390975 L-8.44981509780997,11.287631497033496 L-8.716041705710515,11.083348635873318 L-8.977331455079126,10.872788048409978 L-9.233536348628505,10.656068998395053 L-9.484511269187646,10.433314237798674 L-9.730114061897767,10.2046499372815 L-9.97020561473031,9.97020561473033 L-10.20464993728148,9.730114061897787 L-10.433314237798655,9.484511269187667 L-10.656068998395037,9.233536348628526 L-10.87278804840996,8.977331455079149 L-11.0833486358733,8.716041705710538 L-11.28763149703348,8.449815097809994 L-11.485520923909734,8.178802424953895 L-11.67690482983033,7.903157191596604 L-11.861674812919656,7.623035526123924 L-12.03972621749819,7.338596092420314 L-12.210958193360588,7.049999999999994 L-12.375273752898307,6.757410712752794 L-12.532579826034425,6.460993956356477 L-12.68278731293951,6.160917624407958 L-12.825811134498714,5.857351683326585 L-12.961570280501492,5.550468076083358 L-13.08998785552663,5.240440624810601 L-13.210991122496647,4.927444932347267 L-13.324511543876833,4.6116582827756245 L-13.430484820495641,4.293259541005667 L-13.52885092796442,3.972429051464134 L-13.619554150675869,3.649348535945516 L-13.702543113361944,3.324200990682895 L-13.777770810193354,2.99717058269694 L-13.845194631404171,2.668442545481751 L-13.904776387426436,2.338203074086641 L-13.956482330521156,2.006639219653284 L-14.000283173893369,1.6739387834679644 L-14.036154108280497,1.340290210588935 L-14.064074816004577,1.0058824831091333 L-14.084029482480414,0.6709050131147218 L-14.09600680517312,0.3355475354000695 L-14.1,-4.83665108842893e-14 L-14.096006805173118,-0.3355475354001662 L-14.08402948248041,-0.6709050131148184 L-14.06407481600457,-1.0058824831092297 L-14.036154108280488,-1.3402902105890313 L-14.000283173893356,-1.6739387834680606 L-13.956482330521142,-2.0066392196533798 L-13.90477638742642,-2.338203074086736 L-13.845194631404151,-2.668442545481846 L-13.777770810193335,-2.9971705826970347 L-13.702543113361921,-3.3242009906829892 L-13.619554150675844,-3.6493485359456095 L-13.528850927964392,-3.972429051464226 L-13.43048482049561,-4.293259541005758 L-13.3245115438768,-4.611658282775716 L-13.210991122496614,-4.927444932347358 L-13.089987855526594,-5.240440624810691 L-12.961570280501453,-5.550468076083447 L-12.825811134498675,-5.857351683326673 L-12.682787312939467,-6.160917624408046 L-12.532579826034382,-6.460993956356562 L-12.375273752898263,-6.757410712752879 L-12.21095819336054,-7.050000000000078 L-12.03972621749814,-7.338596092420397 L-11.861674812919603,-7.6230355261240055 L-11.676904829830274,-7.903157191596684 L-11.485520923909677,-8.178802424953973 L-11.287631497033422,-8.449815097810072 L-11.083348635873241,-8.716041705710612 L-10.8727880484099,-8.977331455079224 L-10.656068998394973,-9.233536348628599 L-10.43331423779859,-9.484511269187738 L-10.204649937281415,-9.730114061897858 L-9.970205614730242,-9.970205614730396 L-9.730114061897698,-10.204649937281566 L-9.484511269187577,-10.43331423779874 L-9.233536348628432,-10.656068998395119 L-8.977331455079053,-10.87278804841004 L-8.716041705710438,-11.083348635873378 L-8.449815097809894,-11.287631497033555 L-8.178802424953794,-11.485520923909805 L-7.903157191596501,-11.676904829830399 L-7.623035526123819,-11.861674812919723 L-7.338596092420207,-12.039726217498256 L-7.049999999999886,-12.21095819336065 L-6.757410712752685,-12.375273752898368 L-6.460993956356366,-12.532579826034482 L-6.160917624407846,-12.682787312939563 L-5.857351683326471,-12.825811134498766 L-5.550468076083244,-12.96157028050154 L-5.240440624810486,-13.089987855526676 L-4.927444932347151,-13.210991122496692 L-4.611658282775506,-13.324511543876874 L-4.293259541005548,-13.430484820495678 L-3.9724290514640144,-13.528850927964454 L-3.649348535945396,-13.619554150675903 L-3.3242009906827743,-13.702543113361973 L-2.997170582696819,-13.777770810193381 L-2.668442545481629,-13.845194631404194 L-2.338203074086518,-13.904776387426457 L-2.006639219653161,-13.956482330521174 L-1.673938783467841,-14.000283173893383 L-1.340290210588811,-14.036154108280508 L-1.0058824831090092,-14.064074816004586 L-0.6709050131145976,-14.08402948248042 L-0.33554753539994514,-14.096006805173124 L1.7273629206860807e-13,-14.1 L0.33554753540029053,-14.096006805173115 L0.6709050131149427,-14.084029482480403 L1.0058824831093538,-14.064074816004561 L1.340290210589155,-14.036154108280476 L1.673938783468184,-14.000283173893342 L2.0066392196535023,-13.956482330521126 L2.338203074086859,-13.9047763874264 L2.6684425454819682,-13.845194631404128 L2.9971705826971564,-13.777770810193308 L3.32420099068311,-13.702543113361891 L3.6493485359457294,-13.619554150675812 L3.972429051464346,-13.528850927964358 L4.293259541005877,-13.430484820495574 L4.611658282775833,-13.32451154387676 L4.927444932347474,-13.21099112249657 L5.240440624810806,-13.089987855526548 L5.55046807608356,-12.961570280501403 L5.857351683326787,-12.825811134498624 L6.160917624408157,-12.682787312939414 L6.460993956356674,-12.532579826034324 L6.757410712752987,-12.375273752898202 L7.050000000000185,-12.210958193360478 L7.338596092420503,-12.039726217498076 L7.6230355261241085,-11.861674812919535 L7.903157191596787,-11.676904829830205 L8.178802424954075,-11.485520923909606 L8.44981509781017,-11.287631497033347 L8.716041705710712,-11.083348635873165 L8.97733145507932,-10.87278804840982 L9.233536348628691,-10.656068998394892 L9.48451126918783,-10.433314237798506 L9.730114061897947,-10.204649937281328 L9.970205614730487,-9.970205614730153 L10.204649937281653,-9.730114061897607 L10.433314237798822,-9.484511269187484 L10.656068998395199,-9.233536348628338 L10.872788048410118,-8.977331455078957 L11.083348635873454,-8.716041705710342 L11.287631497033628,-8.449815097809795 L11.485520923909878,-8.178802424953691 L11.676904829830468,-7.9031571915963985 L11.86167481291979,-7.623035526123714 L12.03972621749832,-7.338596092420103 L12.210958193360712,-7.049999999999779 L12.375273752898428,-6.757410712752575 L12.53257982603454,-6.460993956356256 L12.682787312939618,-6.160917624407735 L12.825811134498817,-5.8573516833263595 L12.961570280501588,-5.550468076083129 L13.089987855526722,-5.24044062481037 L13.210991122496734,-4.927444932347035 L13.324511543876914,-4.611658282775389 L13.430484820495716,-4.293259541005429 L13.528850927964491,-3.9724290514638954 L13.619554150675933,-3.6493485359452755 L13.702543113362003,-3.3242009906826535 L13.777770810193408,-2.9971705826966972 L13.845194631404217,-2.668442545481507 L13.904776387426478,-2.3382030740863953 L13.956482330521192,-2.0066392196530374 L14.000283173893399,-1.6739387834677175 L14.03615410828052,-1.3402902105886871 L14.064074816004597,-1.0058824831088853 L14.084029482480426,-0.6709050131144734 L14.096006805173127,-0.33554753539982085 L14.1,2.9710607325292683e-13 " />
			<path d="M0.0,-10.5 L0.0,10.5 " />
			<path d="M-10.0,1.3471114790620886e-15 L-9.996135056671676,-0.29157128705723845 L-9.98454294264796,-0.5829376820234522 L-9.965231803904086,-0.8738944367887633 L-9.93821521070493,-1.1642370911044149 L-9.903512148068979,-1.4537616162604565 L-9.86114700242721,-1.7422645584601824 L-9.811149544486351,-2.029543181790563 L-9.753554908308496,-2.3153956106882143 L-9.688403566621798,-2.5996209718007823 L-9.615741302379597,-2.8820195351440527 L-9.535619176587968,-3.1623928544556037 L-9.448093492424281,-3.44054390664636 L-9.353225755672002,-3.7162772302520617 L-9.251082631499534,-3.989399062787351 L-9.141735897613481,-4.259717476905959 L-9.025262393819228,-4.52704251527131 L-8.901743968024299,-4.791186324042762 L-8.771267418722465,-5.051963284883692 L-8.633924433998944,-5.30919014539865 L-8.489811527099647,-5.562686147907922 L-8.339029968609672,-5.812273156469026 L-8.181685715288753,-6.0577757820558595 L-8.017889335613635,-6.299021505807539 L-7.847755932079746,-6.535840800260337 L-7.671405060316703,-6.768067248477506 L-7.488960645074556,-6.995537660993283 L-7.300550893139757,-7.218092190488895 L-7.106308203242072,-7.435574444119989 L-6.9063690730157585,-7.647831593416524 L-6.70087400308035,-7.854714481677945 L-6.489967398308491,-8.05607772878812 L-6.273797466350183,-8.251779833376412 L-6.0525161134847565,-8.441683272253105 L-5.826278837873745,-8.625654597049262 L-5.595244620289693,-8.803564527993185 L-5.359575812397666,-8.97528804475748 L-5.119438022667984,-9.140704474312981 L-4.8750000000003375,-9.29969757572772 " />
			<path d="M-4.875000000000318,9.299697575727732 L-5.119438022667966,9.140704474312994 L-5.359575812397648,8.975288044757493 L-5.595244620289675,8.803564527993197 L-5.826278837873728,8.625654597049277 L-6.05251611348474,8.441683272253117 L-6.273797466350166,8.251779833376427 L-6.489967398308473,8.056077728788134 L-6.700874003080335,7.854714481677961 L-6.906369073015744,7.64783159341654 L-7.106308203242058,7.435574444120005 L-7.300550893139741,7.218092190488913 L-7.488960645074542,6.9955376609933 L-7.671405060316689,6.768067248477523 L-7.847755932079732,6.535840800260354 L-8.017889335613622,6.2990215058075565 L-8.18168571528874,6.057775782055878 L-8.33902996860966,5.812273156469046 L-8.489811527099635,5.562686147907941 L-8.633924433998933,5.309190145398669 L-8.771267418722454,5.051963284883712 L-8.90174396802429,4.7911863240427826 L-9.025262393819217,4.52704251527133 L-9.141735897613472,4.25971747690598 L-9.251082631499525,3.9893990627873714 L-9.353225755671993,3.7162772302520826 L-9.448093492424274,3.440543906646381 L-9.53561917658796,3.162392854455625 L-9.615741302379591,2.882019535144074 L-9.688403566621792,2.5996209718008036 L-9.753554908308491,2.3153956106882365 L-9.811149544486348,2.0295431817905847 L-9.861147002427206,1.7422645584602043 L-9.903512148068975,1.453761616260479 L-9.938215210704929,1.1642370911044368 L-9.965231803904084,0.8738944367887854 L-9.984542942647959,0.5829376820234744 L-9.996135056671674,0.2915712870572607 L-10.0,2.0887036712464842e-14 " />
			<path d="M-10.0,-2.5 L-10.0,-8.43769498715119e-15 " />
			<path d="M-10.0,-8.43769498715119e-15 L-10.0,2.5 " />
			<path d="M-16.0,-2.5 L-13.876599006961325,-2.5 " />
			<path d="M-10.198039027185512,-2.5 L-10.0,-2.5 " />
			<path d="M-10.0,2.5 L-10.19803902718551,2.5 " />
			<path d="M-13.876599006961325,2.5 L-16.0,2.5 " />
			<path d="M-16.0,2.5 L-16.0,-2.5 " />
			<path d="M15.198684153570666,-5.0 L17.0,-5.0 " />
			<path d="M17.0,-5.0 L17.0,5.0 " />
			<path d="M17.0,5.0 L15.198684153570667,5.0 " />
			<path d="M12.5,0.0 L12.496020596153343,0.3153874767828055 L12.484084918318173,0.6305741449034835 L12.46420056599565,0.9453593235557087 L12.436380199644677,1.2595425875633532 L12.400641532620915,1.5729238949921212 L12.357007319898607,1.8853037145171725 L12.305505343582384,2.1964831524656376 L12.246168395218273,2.506264079453137 L12.179034254915168,2.814449256533674 L12.10414566729005,3.120842460782585 L12.021550314252309,3.4252486102325763 L11.93130078464444,3.7274738880833174 L11.833454540758487,4.027325866105491 L11.72807388174954,4.324613627160733 L11.615225903969566,4.61914788675946 L11.494982458246868,4.9107411135791725 L11.367420104138315,5.199207648866515 L11.232620061183528,5.484363824647063 L11.090668157192022,5.76602808066757 L10.94165477359624,6.044021079996216 L10.785674787905286,6.31816582320726 L10.622827513295968,6.588287761077395 L10.453216635379645,6.854214905722042 L10.276950146185124,7.115777940100826 L10.094140275399623,7.372810325822525 L9.904903418911623,7.625148409180824 L9.709360064701066,7.872631525353392 L9.507634716124105,8.115102100697914 L9.299855812641233,8.352405753079951 L9.086155648039293,8.584391390168769 L8.866670286199414,8.810911305638504 L8.641539474464505,9.031821273213488 L8.410906554661482,9.246980638497766 L8.17491837183486,9.456252408530395 L7.933725180749844,9.65950333900951 L7.687480550224413,9.856604019129577 L7.4363412653513565,10.047428953977859 L7.180467227672479,10.231856644437583 L6.920021353368548,10.409769664547017 L6.655169469529812,10.581054736265108 L6.386080208573124,10.745602801596132 L6.112924900872909,10.903309092027426 L5.835877465674317,11.054073195235986 L5.555114300358042,11.19779911902145 L5.270814168127295,11.334395352424785 L4.983158084188442,11.463774923993727 L4.692329200497795,11.585855457157908 L4.398512689147911,11.700559222678411 L4.101895624467665,11.807813188138311 L3.8026668639111647,11.907549064442776 L3.501016927811336,11.999703349299034 L3.1971378780747495,12.084217367648584 L2.8912231958949146,12.161037309025872 L2.5834676585619145,12.23011426181966 L2.274067215446803,12.291404244415283 L1.9632188632397396,12.344868233197943 L1.6511205205212833,12.390472187399217 L1.3379709017467223,12.428187070770983 L1.023969390723661,12.457988870072931 L0.7093159136634317,12.479858610361891 L0.39421081188714985,12.493782367073281 L0.07885471426747323,12.499751274886945 L-0.2365515905127286,12.497761533371722 L-0.5518072818034554,12.487814409405223 L-0.8667116348510109,12.469916236367183 L-1.1810641486003792,12.444078410106988 L-1.4946646733551738,12.41031738168787 L-1.8073135382138708,12.368654646912447 L-2.1188116782011943,12.31911673263624 L-2.4289607610137067,12.261735179877917 L-2.737563313298898,12.196546523736954 L-3.044422846387384,12.123592270131594 L-3.3493439813981487,12.042918869371826 L-3.6521325736371777,11.95457768658426 L-3.952595836210281,11.85862496900771 L-4.250542462771403,11.755121810180327 L-4.545782749328247,11.64413411104105 L-4.838128715027694,11.525732537970178 L-5.12739422184407,11.399992477795767 L-5.413395093094091,11.266993989794475 L-5.695949230703003,11.126821754717465 L-5.9748767311472735,10.979565020873771 L-6.2499999999999885,10.82531754730549 L-6.521143865006046,10.664177544090965 L-6.788135687615145,10.49624760981398 L-7.050805472901535,10.321634666238761 L-7.3089859778005835,10.140449890232407 L-7.562512817593199,9.95280864297805 L-7.811224570570338,9.75883039652387 L-8.054962880810963,9.558638657714683 L-8.293572559007977,9.352360889554568 L-8.526901681277975,9.140128430050577 L-8.754801685891888,8.922076408589232 L-8.977127467864914,8.698343659899008 L-9.193737471345534,8.469072635653625 L-9.404493779744774,8.234409313772414 L-9.609262203548338,7.994503105475495 L-9.807912365755692,7.749506760152972 L-10.00031778489169,7.499576268108682 L-10.186355955537934,7.244870761240454 L-10.365908426332519,6.9855524117201 L-10.538860875388568,6.721786328737631 L-10.705103183083516,6.453740453375484 L-10.864529502172763,6.18158545167966 L-11.017038325183124,5.9054946059958615 L-11.162532549043085,5.625643704639822 L-11.300919536908795,5.342210929972076 L-11.432111177146355,5.05537674494843 L-11.556023939432917,4.765323778218361 L-11.67257892794082,4.472236707844515 L-11.781701931570923,4.176302143717333 L-11.883323471203163,3.8777085087396697 L-11.977378843934224,3.5766459188570647 L-12.063808164274178,3.2733060620100387 L-12.142556402275858,2.967882076085502 L-12.213573418572663,2.6605684259449656 L-12.276813996302543,2.35156077960787 L-12.332237869897773,2.041055883668851 L-12.379809750722227,1.729251438028279 L-12.419499349539818,1.4163459700158145 L-12.451281395799793,1.1025387079871458 L-12.475135653726609,0.7880294544743729 L-12.491046935204146,0.47301845897081374 L-12.499005109446049,0.15770629043122783 L-12.499005109446047,-0.15770629043136353 L-12.49104693520414,-0.4730184589709493 L-12.4751356537266,-0.7880294544745082 L-12.45128139579978,-1.1025387079872808 L-12.419499349539803,-1.4163459700159493 L-12.379809750722208,-1.7292514380284132 L-12.332237869897751,-2.041055883668985 L-12.276813996302518,-2.351560779608003 L-12.213573418572635,-2.6605684259450983 L-12.142556402275826,-2.9678820760856337 L-12.063808164274144,-3.27330606201017 L-11.977378843934185,-3.5766459188571944 L-11.88332347120312,-3.877708508739799 L-11.781701931570877,-4.176302143717462 L-11.672578927940771,-4.472236707844642 L-11.556023939432865,-4.765323778218486 L-11.4321111771463,-5.055376744948554 L-11.300919536908737,-5.3422109299721985 L-11.162532549043025,-5.625643704639942 L-11.01703832518306,-5.905494605995981 L-10.864529502172697,-6.181585451679778 L-10.705103183083445,-6.4537404533756 L-10.538860875388496,-6.721786328737744 L-10.365908426332442,-6.985552411720213 L-10.186355955537856,-7.244870761240565 L-10.00031778489161,-7.4995762681087905 L-9.807912365755607,-7.749506760153077 L-9.609262203548251,-7.994503105475599 L-9.404493779744683,-8.234409313772515 L-9.193737471345443,-8.469072635653724 L-8.97712746786482,-8.698343659899106 L-8.754801685891792,-8.922076408589326 L-8.526901681277877,-9.14012843005067 L-8.293572559007876,-9.352360889554658 L-8.054962880810864,-9.558638657714766 L-7.811224570570241,-9.758830396523948 L-7.562512817593103,-9.952808642978123 L-7.308985977800492,-10.140449890232475 L-7.050805472901446,-10.321634666238824 L-6.788135687615059,-10.496247609814036 L-6.521143865005964,-10.664177544091014 L-6.249999999999909,-10.825317547305534 L-5.974876731147198,-10.979565020873814 L-5.695949230702932,-11.126821754717502 L-5.413395093094024,-11.266993989794507 L-5.127394221844007,-11.399992477795793 L-4.838128715027634,-11.525732537970203 L-4.545782749328189,-11.644134111041073 L-4.250542462771346,-11.755121810180349 L-3.9525958362102265,-11.85862496900773 L-3.652132573637125,-11.954577686584276 L-3.3493439813980985,-12.04291886937184 L-3.044422846387336,-12.123592270131606 L-2.7375633132988524,-12.196546523736963 L-2.428960761013663,-12.261735179877926 L-2.118811678201154,-12.319116732636248 L-1.8073135382138326,-12.368654646912452 L-1.4946646733551383,-12.410317381687875 L-1.1810641486003466,-12.444078410106991 L-0.8667116348509807,-12.469916236367185 L-0.551807281803428,-12.487814409405223 L-0.2365515905127039,-12.497761533371722 L0.07885471426749516,-12.499751274886945 L0.3942108118871689,-12.493782367073281 L0.7093159136634479,-12.47985861036189 L1.0239693907236747,-12.45798887007293 L1.337970901746733,-12.428187070770983 L1.6511205205212913,-12.390472187399215 L1.963218863239745,-12.344868233197941 L2.274067215446806,-12.291404244415283 L2.583467658561914,-12.23011426181966 L2.891223195894912,-12.161037309025872 L3.1971378780747433,-12.084217367648586 L3.5010169278113277,-11.999703349299038 L3.8026668639111536,-11.90754906444278 L4.101895624467651,-11.807813188138317 L4.398512689147895,-11.700559222678416 L4.6923292004977775,-11.585855457157917 L4.983158084188421,-11.463774923993736 L5.270814168127272,-11.334395352424796 L5.555114300358017,-11.197799119021463 L5.83587746567429,-11.054073195236 L6.11292490087288,-10.903309092027442 L6.386080208573093,-10.745602801596151 L6.6551694695297785,-10.581054736265129 L6.920021353368513,-10.409769664547042 L7.180467227672442,-10.23185664443761 L7.436341265351317,-10.047428953977887 L7.687480550224371,-9.85660401912961 L7.933725180749798,-9.659503339009547 L8.174918371834814,-9.456252408530434 L8.410906554661432,-9.24698063849781 L8.641539474464453,-9.03182127321354 L8.86667028619936,-8.810911305638559 L9.086155648039238,-8.584391390168825 L9.299855812641177,-8.352405753080014 L9.507634716124048,-8.115102100697982 L9.70936006470101,-7.872631525353464 L9.904903418911564,-7.6251484091809 L10.094140275399562,-7.372810325822606 L10.276950146185063,-7.115777940100912 L10.453216635379588,-6.854214905722132 L10.622827513295908,-6.588287761077491 L10.785674787905226,-6.318165823207361 L10.94165477359618,-6.044021079996321 L11.090668157191963,-5.766028080667681 L11.232620061183471,-5.484363824647179 L11.36742010413826,-5.199207648866635 L11.494982458246813,-4.910741113579297 L11.615225903969515,-4.61914788675959 L11.728073881749488,-4.324613627160867 L11.83345454075844,-4.027325866105629 L11.931300784644396,-3.72747388808346 L12.021550314252268,-3.4252486102327238 L12.104145667290013,-3.1208424607827365 L12.179034254915132,-2.8144492565338304 L12.246168395218241,-2.506264079453297 L12.305505343582356,-2.1964831524658024 L12.357007319898582,-1.885303714517341 L12.400641532620895,-1.572923894992294 L12.43638019964466,-1.2595425875635298 L12.464200565995636,-0.9453593235558894 L12.484084918318162,-0.630574144903668 L12.49602059615334,-0.31538747678299367 L12.5,-1.91799531184145e-13 " />
			<path d="M10.500000000000059,4.2632564145606015e-16 L10.496013223762048,0.2893205948657014 L10.484055922549878,0.5784214837365875 L10.464137176570093,0.8670831274594899 L10.436272111838528,1.155086320437833 L10.400481888693843,1.442212357093286 L10.356793685728643,1.7282431979477064 L10.305240679150446,2.012961635199254 L10.245862017588133,2.296151457666946 L10.178702792363028,2.5775976149783917 L10.103814003247187,2.8570863808760176 L10.021252519734887,3.134405515517793 L9.931081037856723,3.409344426649177 L9.833368032569133,3.6816943295239213 L9.728187705755477,3.9512484054522723 L9.61561992987816,4.217801958856179 L9.495750187324623,4.481152572712238 L9.368669505493196,4.741100262264339 L9.234474387668193,4.997447626889272 L9.093266739736665,5.249999999999999 L8.945153792802493,5.498565596872718 L8.790248021756609,5.742955660285482 L8.628667059865133,5.982984603857795 L8.46053360944033,6.21847015298229 L8.285975348662191,6.449233483241512 L8.105124834621428,6.675099356204664 L7.91811940265747,6.895896252501211 L7.725101062067942,7.111456502070282 L7.526216388268798,7.321616411486952 L7.321616411487011,7.526216388268738 L7.111456502070341,7.725101062067882 L6.895896252501271,7.91811940265741 L6.675099356204724,8.10512483462137 L6.449233483241572,8.285975348662133 L6.218470152982349,8.46053360944027 L5.9829846038578545,8.628667059865075 L5.742955660285542,8.79024802175655 L5.498565596872778,8.945153792802435 L5.25000000000006,9.093266739736606 L4.997447626889333,9.234474387668135 L4.741100262264398,9.368669505493136 L4.481152572712299,9.495750187324562 L4.217801958856239,9.615619929878102 L3.9512484054523327,9.728187705755419 L3.6816943295239812,9.833368032569075 L3.4093444266492368,9.931081037856664 L3.1344055155178534,10.021252519734828 L2.857086380876078,10.103814003247129 L2.5775976149784516,10.17870279236297 L2.296151457667006,10.245862017588074 L2.012961635199314,10.305240679150387 L1.7282431979477662,10.356793685728585 L1.442212357093346,10.400481888693784 L1.155086320437893,10.43627211183847 L0.8670831274595495,10.464137176570034 L0.5784214837366473,10.48405592254982 L0.289320594865761,10.49601322376199 L6.004431227909675e-14,10.5 L-0.28932059486564093,10.49601322376199 L-0.5784214837365271,10.48405592254982 L-0.8670831274594294,10.464137176570034 L-1.1550863204377726,10.43627211183847 L-1.442212357093226,10.400481888693784 L-1.7282431979476458,10.356793685728585 L-2.0129616351991935,10.305240679150387 L-2.296151457666886,10.245862017588074 L-2.5775976149783313,10.17870279236297 L-2.8570863808759577,10.103814003247129 L-3.134405515517733,10.021252519734828 L-3.409344426649117,9.931081037856664 L-3.6816943295238613,9.833368032569075 L-3.9512484054522123,9.728187705755419 L-4.2178019588561195,9.615619929878102 L-4.481152572712179,9.495750187324564 L-4.741100262264276,9.368669505493138 L-4.997447626889208,9.234474387668138 L-5.249999999999934,9.09326673973661 L-5.49856559687265,8.945153792802438 L-5.742955660285412,8.790248021756558 L-5.982984603857724,8.628667059865082 L-6.218470152982218,8.46053360944028 L-6.4492334832414375,8.285975348662145 L-6.675099356204588,8.105124834621382 L-6.895896252501134,7.9181194026574255 L-7.111456502070204,7.725101062067899 L-7.321616411486873,7.526216388268757 L-7.526216388268657,7.321616411486974 L-7.725101062067801,7.111456502070305 L-7.918119402657329,6.895896252501237 L-8.105124834621288,6.675099356204692 L-8.28597534866205,6.449233483241543 L-8.460533609440187,6.218470152982324 L-8.62866705986499,5.982984603857831 L-8.790248021756467,5.742955660285521 L-8.94515379280235,5.498565596872759 L-9.093266739736523,5.250000000000044 L-9.234474387668051,4.997447626889319 L-9.368669505493052,4.741100262264388 L-9.49575018732448,4.481152572712291 L-9.61561992987802,4.217801958856234 L-9.728187705755337,3.9512484054523305 L-9.833368032568995,3.6816943295239817 L-9.931081037856584,3.4093444266492403 L-10.02125251973475,3.134405515517859 L-10.10381400324705,2.8570863808760865 L-10.178702792362893,2.5775976149784627 L-10.245862017588,2.296151457667021 L-10.305240679150314,2.0129616351993307 L-10.356793685728514,1.728243197947786 L-10.400481888693715,1.4422123570933687 L-10.436272111838402,1.1550863204379178 L-10.464137176569968,0.8670831274595772 L-10.484055922549757,0.5784214837366775 L-10.49601322376193,0.2893205948657936 L-10.499999999999941,9.497093884907393e-14 L-10.496013223761933,-0.28932059486560374 L-10.484055922549768,-0.5784214837364877 L-10.464137176569983,-0.8670831274593879 L-10.436272111838422,-1.155086320437729 L-10.40048188869374,-1.4422123570931804 L-10.356793685728544,-1.7282431979475985 L-10.30524067915035,-2.0129616351991446 L-10.24586201758804,-2.296151457666835 L-10.17870279236294,-2.577597614978279 L-10.103814003247102,-2.857086380875904 L-10.021252519734805,-3.134405515517678 L-9.931081037856645,-3.4093444266490605 L-9.83336803256906,-3.6816943295238036 L-9.728187705755408,-3.951248405452154 L-9.615619929878097,-4.217801958856061 L-9.495750187324562,-4.481152572712119 L-9.36866950549314,-4.741100262264219 L-9.234474387668142,-4.997447626889152 L-9.093266739736617,-5.24999999999988 L-8.945153792802449,-5.498565596872598 L-8.79024802175657,-5.742955660285363 L-8.628667059865098,-5.982984603857676 L-8.460533609440299,-6.218470152982171 L-8.285975348662166,-6.449233483241394 L-8.105124834621407,-6.675099356204546 L-7.918119402657452,-6.895896252501095 L-7.725101062067928,-7.111456502070166 L-7.52621638826879,-7.321616411486837 L-7.321616411487008,-7.526216388268626 L-7.111456502070342,-7.725101062067771 L-6.895896252501277,-7.918119402657302 L-6.6750993562047345,-8.105124834621263 L-6.449233483241587,-8.285975348662028 L-6.218470152982371,-8.460533609440168 L-5.982984603857879,-8.628667059864974 L-5.742955660285571,-8.790248021756453 L-5.498565596872811,-8.94515379280234 L-5.250000000000098,-9.093266739736514 L-4.997447626889375,-9.234474387668048 L-4.741100262264445,-9.368669505493054 L-4.481152572712349,-9.495750187324482 L-4.2178019588562945,-9.615619929878028 L-3.951248405452392,-9.728187705755346 L-3.6816943295240447,-9.833368032569005 L-3.4093444266493043,-9.9310810378566 L-3.134405515517925,-10.021252519734768 L-2.857086380876153,-10.103814003247075 L-2.5775976149785302,-10.17870279236292 L-2.2961514576670887,-10.245862017588028 L-2.0129616351993995,-10.305240679150348 L-1.7282431979478554,-10.356793685728551 L-1.4422123570934386,-10.400481888693754 L-1.1550863204379884,-10.436272111838447 L-0.8670831274596481,-10.464137176570016 L-0.5784214837367486,-10.484055922549809 L-0.2893205948658649,-10.496013223761985 L-1.6634840776354426e-13,-10.5 L0.2893205948655324,-10.496013223761995 L0.5784214837364166,-10.484055922549832 L0.8670831274593169,-10.464137176570054 L1.1550863204376585,-10.436272111838495 L1.4422123570931102,-10.400481888693816 L1.728243197947529,-10.356793685728624 L2.012961635199076,-10.305240679150435 L2.296151457666767,-10.245862017588127 L2.577597614978212,-10.17870279236303 L2.8570863808758378,-10.103814003247196 L3.1344055155176123,-10.021252519734903 L3.409344426648996,-9.931081037856746 L3.6816943295237414,-9.833368032569165 L3.951248405452093,-9.728187705755515 L4.2178019588560005,-9.615619929878207 L4.481152572712061,-9.495750187324676 L4.741100262264161,-9.368669505493257 L4.997447626889097,-9.234474387668262 L5.249999999999827,-9.093266739736741 L5.498565596872545,-8.945153792802577 L5.742955660285313,-8.7902480217567 L5.982984603857627,-8.628667059865231 L6.218470152982126,-8.460533609440436 L6.4492334832413505,-8.285975348662305 L6.6750993562045045,-8.10512483462155 L6.895896252501056,-7.918119402657599 L7.111456502070129,-7.725101062068077 L7.321616411486803,-7.52621638826894 L7.526216388268593,-7.321616411487161 L7.725101062067742,-7.1114565020704985 L7.918119402657275,-6.895896252501435 L8.105124834621238,-6.675099356204895 L8.285975348662006,-6.44923348324175 L8.46053360944015,-6.218470152982535 L8.628667059864958,-5.982984603858047 L8.790248021756438,-5.74295566028574 L8.94515379280233,-5.498565596872982 L9.093266739736508,-5.250000000000272 L9.234474387668044,-4.99744762688955 L9.368669505493052,-4.741100262264622 L9.495750187324486,-4.481152572712528 L9.615619929878031,-4.217801958856475 L9.728187705755355,-3.951248405452573 L9.83336803256902,-3.681694329524227 L9.931081037856616,-3.4093444266494877 L10.021252519734787,-3.1344055155181088 L10.103814003247097,-2.8570863808763387 L10.178702792362946,-2.5775976149787163 L10.24586201758806,-2.296151457667276 L10.305240679150382,-2.0129616351995874 L10.356793685728586,-1.7282431979480437 L10.400481888693797,-1.4422123570936276 L10.43627211183849,-1.1550863204381778 L10.464137176570063,-0.8670831274598378 L10.48405592254986,-0.5784214837369385 L10.49601322376204,-0.28932059486605505 L10.500000000000059,-3.5652862209710335e-13 " />

       </g>
    </g>
    
</svg>
