<?xml version="1.0" encoding="UTF-8" standalone="no"?>
<svg
   xmlns:svg="http://www.w3.org/2000/svg"
   xmlns="http://www.w3.org/2000/svg"
   width="800.0"
   height="800.0"

>
    <g transform="scale(11.78511301977579, -11.78511301977579)   translate(28.849956672411142,-15.927703778505673)" stroke-width="0.08485281374238571"  fill="none">
       <!-- hidden lines -->
       <g  stroke="rgb(180,180,180)" fill="none" stroke-dasharray="0.08485281374238571,0.08485281374238571" >

       </g>

       <!-- solid lines -->
       <g  stroke="rgb(40,40,40)" fill="none">
			<path d="M25.455844122715714,0.0 L25.455844122715714,-5.222329678670936 " />
			<path d="M25.455844122715714,-5.222329678670936 L14.100000000000001,-10.813560816246815 " />
			<path d="M25.455844122715714,0.0 L3.552713678800501e-15,12.533591228810245 " />
			<path d="M0.0,12.533591228810245 L0.0,7.311261550139309 " />
			<path d="M25.455844122715714,-5.222329678670936 L3.552713678800501e-15,7.311261550139309 " />
			<path d="M-14.100000000000001,-10.813560816246813 L-25.45584412271571,-5.222329678670935 " />
			<path d="M0.0,7.311261550139309 L-25.45584412271571,-5.222329678670936 " />
			<path d="M-9.970205614730318,-0.3133397807202556 L-10.21188386961568,-0.4352909196003152 L-10.447410867504928,-0.5601255916299364 L-10.676644735741435,-0.6877686010705455 L-10.899447392414594,-0.8181430605461415 L-11.115684629535151,-0.9511704373573524 L-11.325226193877095,-1.0867706007865978 L-11.52794586543733,-1.224861870365848 L-11.723721533465888,-1.365361065077872 L-11.912435270020868,-1.5081835534613783 L-12.093973401003835,-1.6532433045898416 L-12.26822657463283,-1.8004529398933165 L-12.435089827311803,-1.9497237857920182 L-12.594462646856762,-2.1009659271099737 L-12.746249033040547,-2.254088261236561 L-12.89035755541978,-2.408998553003316 L-13.02670140840914,-2.565603490242946 L-13.155198463569814,-2.7238087399970947 L-13.275771319080588,-2.883519005338985 L-13.388347346361812,-3.0446380827767263 L-13.492858733824141,-3.207068920202701 L-13.589242527715697,-3.370713675354123 L-13.677440670043067,-3.535473774749562 L-13.75740003354325,-3.7012499730659236 L-13.829072453685548,-3.8679424129201023 L-13.86178737278015,-3.951600865427155 L-13.892414757684069,-4.035450685019367 L-13.920949996025803,-4.1194792442223465 L-13.947388790503412,-4.2036738886441505 L-13.971727159531698,-4.288021938881016 L-13.99396143784181,-4.372510692426846 L-14.01408827703322,-4.457127425586124 L-14.032104646077975,-4.541859395390077 L-14.04800783177717,-4.626693841515724 L-14.061795439169531,-4.711617988207532 L-14.073465391892103,-4.796619046201379 L-14.08301593249293,-4.881684214650583 L-14.090445622695727,-4.966800683053676 L-14.09575334361648,-5.0519556331836055 L-14.098938295931937,-5.1371362410181005 L-14.1,-5.222329678670873 " />
			<path d="M14.1,-5.222329678670937 L14.09761120332111,-5.094543531562746 L14.090445622695729,-4.966800683053682 L14.078505686083457,-4.839144417071723 L14.061795439169531,-4.711617988207535 L14.040320543994003,-4.584264607058247 L14.01408827703322,-4.457127425586121 L13.983107526734303,-4.330249522497093 L13.947388790503412,-4.20367388864415 L13.906944171148842,-4.077443412460447 L13.861787372780151,-3.9516008654271575 L13.811933696164711,-3.826188887580938 L13.757400033543252,-3.7012499730659263 L13.69820486290615,-3.5768264557351808 L13.634368241732416,-3.4529604948064314 L13.565911800193488,-3.329694060576994 L13.492858733824146,-3.2070689202027096 L13.415233795663019,-3.0851266235457193 L13.333063287865352,-2.963908489095852 L13.246375052790881,-2.843455589970409 L13.155198463569821,-2.723808739997103 L13.059564414150191,-2.605008479884852 L12.959505308829815,-2.4870950634871045 L12.855055051276562,-2.370108444162369 L12.746249033040552,-2.2540882612365665 L12.633124121562215,-2.1390738265717717 L12.515718647680243,-2.0251041112459336 L12.394072392643734,-1.912217732348057 L12.26822657463283,-1.8004529398933187 L12.13822383479252,-1.689847603862575 L12.004108222784241,-1.580439201370634 L11.865925181860272,-1.4722648039676378 L11.723721533465891,-1.3653610650778734 L11.577545461374577,-1.2597642075802704 L11.427446495361592,-1.1555100115347594 L11.273475494421467,-1.05263380205868 L11.115684629535155,-0.9511704373573542 L10.954127365992582,-0.8511542969128598 L10.788858445276672,-0.7526192698350016 L10.619933866514938,-0.6555987433784525 L10.447410867504926,-0.5601255916299355 L10.271347905319981,-0.4662321643692806 L10.091804636501848,-0.3739502761081468 L9.908841896846882,-0.2833111953101106 L9.722521680792646,-0.1943456337957672 L9.532907120411956,-0.10708373633644541 L9.340062464021425,-0.02155507044006999 L9.144053054411792,0.062211383667398756 L8.944945306707407,0.14418724286151186 L8.74280668586239,0.22434473073656225 L8.537705683801,0.3026566870172642 L8.329711796210136,0.3790965767616168 L8.118895498991627,0.45363849935192224 L7.905328224382444,0.5262571972708612 L7.68908233675086,0.5969280646596484 L7.470231108076758,0.6656271556554048 L7.248848693124427,0.732331192504879 L7.025010104316223,0.7970175734518037 L6.798791186315627,0.8596643803951878 L6.570268590328318,0.9202503863159732 L6.339519748129957,0.9787550624695145 L6.106622845829457,1.035158585341474 L5.871656797376696,1.089441843364745 L5.63470121782363,1.1415864433951457 L5.395836396347773,1.1915747169436832 L5.155143269047318,1.2393897261632913 L4.912703391517031,1.2850152695879782 L4.668598911214259,1.328435887622482 L4.422912539624381,1.369636867780538 L4.175727524235117,1.4086042496700104 L3.9271276203292684,1.4453248297231793 L3.677197062605402,1.4797861656705837 L3.4260205366360363,1.511976580756924 L3.173683150173092,1.5418851676975693 L2.9202704043102927,1.5695017923743428 L2.6658681645122764,1.5948170972693267 L2.410562631520254,1.6178225046355355 L2.1544403121440565,1.6385102194033632 L1.8975879899504817,1.6568732318218418 L1.6400926958578572,1.672905319833795 L1.3820416786468148,1.6866010511841045 L1.1235223753971852,1.6979557852603486 L0.8646223818611594,1.7069656746652182 L0.6054294227826817,1.7136276665201429 L0.3460313221730772,1.7179395034997338 L0.08651597355308979,1.7198997245966323 L-0.1730286898286415,1.7195076656165647 L-0.43251472479056924,1.7167634594033867 L-0.691854208016589,1.7116680357940757 L-0.9509592658476606,1.7042231213036665 L-1.2097421040566019,1.6944312385402451 L-1.4681150375959713,1.6822957053501986 L-1.7259905203089398,1.6678206336940073 L-1.9832811745931553,1.651010928252961 L-2.23989982100743,1.631872284767275 L-2.4957595078112833,1.6104111881061707 L-2.7507735404273963,1.5866349100705603 L-3.0048555108168786,1.5605515069290963 L-3.257919326757455,1.532169816688418 L-3.509879241014649,1.5014994560985082 L-3.7606498803960644,1.4685508173941937 L-4.010146274678932,1.433335064773872 L-4.2582838854011165,1.3958641306166788 L-4.504978634505824,1.3561507114393603 L-4.7501469328302965,1.3142082635942378 L-4.993705708428898,1.2700509987096948 L-5.235572434720896,1.223693878874764 L-5.475665158453439,1.175152611569434 L-5.713902527470347,1.124443644342377 L-5.950203818277168,1.0715841592379185 L-6.1844889633932345,1.0165920669741384 L-6.416678578481445,0.959486000874068 L-6.6466939892465655,0.9002853105520385 L-6.8744572580929475,0.8390100553573321 L-7.099891210532621,0.7756809975773384 L-7.322919461334817,0.7103195954025416 L-7.543466440408067,0.6429479956557014 L-7.761457418406115,0.5735890262876993 L-7.976818532048935,0.5022661886425981 L-8.189476809150271,0.4290036494945433 L-8.399360193343304,0.35382623285916726 L-8.606397568495959,0.27675941158230977 L-8.810518782807645,0.1978292987088972 L-9.011654672579237,0.11706263863488697 L-9.209737085648252,0.03448679804529231 L-9.404698904481291,-0.04987024335864554 L-9.596474068915892,-0.13597990233999724 L-9.784997598544125,-0.22381300181118746 L-9.97020561473023,-0.31333978072021207 " />
			<path d="M-25.455844122715714,0.0 L-25.455844122715714,-5.222329678670936 " />
			<path d="M0.0,12.533591228810245 L-25.45584412271571,0.0 " />
			<path d="M-9.970205614730318,-7.27644601894817 L-10.21188386961568,-7.39839715782823 L-10.447410867504928,-7.523231829857851 L-10.676644735741435,-7.65087483929846 L-10.899447392414594,-7.781249298774056 L-11.115684629535151,-7.914276675585267 L-11.325226193877095,-8.049876839014512 L-11.52794586543733,-8.187968108593763 L-11.723721533465888,-8.328467303305786 L-11.912435270020868,-8.471289791689292 L-12.093973401003835,-8.616349542817757 L-12.26822657463283,-8.76355917812123 L-12.435089827311803,-8.912830024019932 L-12.594462646856762,-9.064072165337889 L-12.746249033040547,-9.217194499464476 L-12.89035755541978,-9.37210479123123 L-13.02670140840914,-9.528709728470862 L-13.155198463569814,-9.686914978225008 L-13.275771319080588,-9.8466252435669 L-13.388347346361812,-10.00774432100464 L-13.492858733824141,-10.170175158430617 L-13.589242527715697,-10.333819913582039 L-13.677440670043067,-10.498580012977476 L-13.75740003354325,-10.664356211293839 L-13.829072453685548,-10.831048651148016 L-13.86178737278015,-10.914707103655068 L-13.892414757684069,-10.998556923247282 L-13.920949996025803,-11.082585482450261 L-13.947388790503412,-11.166780126872064 L-13.971727159531698,-11.25112817710893 L-13.99396143784181,-11.33561693065476 L-14.01408827703322,-11.420233663814038 L-14.032104646077975,-11.50496563361799 L-14.04800783177717,-11.589800079743638 L-14.061795439169531,-11.674724226435448 L-14.073465391892103,-11.759725284429294 L-14.08301593249293,-11.844790452878497 L-14.090445622695727,-11.92990692128159 L-14.09575334361648,-12.01506187141152 L-14.098938295931937,-12.100242479246015 L-14.1,-12.185435916898786 " />
			<path d="M-14.1,-12.18543591689885 L-14.09840705096728,-12.289788030886054 L-14.0936285637963,-12.394116566490416 L-14.085665618187273,-12.498397950656635 L-14.074520013369492,-12.602608620983284 L-14.06019426769479,-12.70672503104675 L-14.042691618068517,-12.810723655721542 L-14.022016019218158,-12.914580996495806 L-13.99817214279977,-13.018273586780813 L-13.971165376342416,-13.121777997213245 L-13.941001822030843,-13.225070840949062 L-13.907688295326713,-13.328128778947766 L-13.87123232342862,-13.43092852524586 L-13.831642143571344,-13.533446852218322 L-13.78892670116463,-13.635660595826879 L-13.743095647771977,-13.737546660853942 L-13.694159338929863,-13.839082026120971 L-13.64212883180791,-13.940243749690104 L-13.587015882710512,-14.041008974047912 L-13.528832944420504,-14.141354931270042 L-13.467593163385438,-14.241258948165644 L-13.403310376747152,-14.340698451400382 L-13.335999109215267,-14.439650972596876 L-13.265674569785313,-14.538094153411457 L-13.192352648302263,-14.63600575058601 L-13.116049911870219,-14.733363640973872 L-13.036783601109063,-14.83014582653854 L-12.954571626258947,-14.926330439324147 L-12.869432563133461,-15.021895746396524 L-12.781385648922429,-15.116820154753757 L-12.690450777845259,-15.211082216205142 L-12.596648496655838,-15.304660632217402 L-12.500000000000002,-15.397534258727092 " />
			<path d="M12.499999999999998,-15.397534258727097 L12.596648496655837,-15.304660632217406 L12.690450777845259,-15.211082216205142 L12.78138564892243,-15.116820154753754 L12.869432563133461,-15.021895746396522 L12.954571626258947,-14.926330439324149 L13.036783601109061,-14.830145826538542 L13.116049911870215,-14.733363640973874 L13.192352648302263,-14.636005750586012 L13.265674569785313,-14.538094153411455 L13.335999109215267,-14.439650972596876 L13.403310376747152,-14.340698451400382 L13.467593163385436,-14.241258948165648 L13.528832944420502,-14.141354931270046 L13.587015882710512,-14.041008974047914 L13.64212883180791,-13.940243749690104 L13.694159338929863,-13.839082026120971 L13.743095647771975,-13.737546660853944 L13.78892670116463,-13.635660595826879 L13.831642143571345,-13.533446852218319 L13.87123232342862,-13.43092852524586 L13.907688295326713,-13.328128778947766 L13.941001822030843,-13.225070840949064 L13.971165376342416,-13.121777997213247 L13.99817214279977,-13.018273586780813 L14.022016019218158,-12.914580996495804 L14.042691618068517,-12.810723655721542 L14.06019426769479,-12.706725031046751 L14.074520013369492,-12.602608620983286 L14.085665618187273,-12.498397950656637 L14.093628563796297,-12.394116566490418 L14.09840705096728,-12.289788030886054 L14.1,-12.185435916898882 " />
			<path d="M14.1,-12.18543591689885 L14.09761120332111,-12.057649769790661 L14.090445622695729,-11.929906921281596 L14.078505686083457,-11.802250655299638 L14.061795439169531,-11.67472422643545 L14.040320543994003,-11.547370845286162 L14.01408827703322,-11.420233663814034 L13.983107526734303,-11.293355760725008 L13.947388790503412,-11.166780126872064 L13.906944171148842,-11.040549650688362 L13.861787372780151,-10.914707103655072 L13.811933696164711,-10.789295125808852 L13.757400033543252,-10.66435621129384 L13.69820486290615,-10.539932693963095 L13.634368241732416,-10.416066733034347 L13.565911800193488,-10.292800298804908 L13.492858733824146,-10.170175158430624 L13.415233795663019,-10.048232861773634 L13.333063287865352,-9.927014727323765 L13.246375052790881,-9.806561828198323 L13.155198463569821,-9.686914978225017 L13.059564414150191,-9.568114718112767 L12.959505308829815,-9.450201301715019 L12.855055051276562,-9.333214682390285 L12.746249033040552,-9.217194499464481 L12.633124121562215,-9.102180064799686 L12.515718647680243,-8.988210349473848 L12.394072392643734,-8.875323970575971 L12.26822657463283,-8.763559178121234 L12.13822383479252,-8.65295384209049 L12.004108222784241,-8.54354543959855 L11.865925181860272,-8.435371042195552 L11.723721533465891,-8.328467303305787 L11.577545461374577,-8.222870445808185 L11.427446495361592,-8.118616249762674 L11.273475494421467,-8.015740040286595 L11.115684629535155,-7.914276675585269 L10.954127365992582,-7.814260535140774 L10.788858445276672,-7.715725508062916 L10.619933866514938,-7.618704981606367 L10.447410867504926,-7.52323182985785 L10.271347905319981,-7.429338402597195 L10.091804636501848,-7.337056514336061 L9.908841896846882,-7.246417433538025 L9.722521680792646,-7.157451872023682 L9.532907120411956,-7.07018997456436 L9.340062464021425,-6.9846613086679845 L9.144053054411792,-6.900894854560516 L8.944945306707407,-6.818918995366403 L8.74280668586239,-6.738761507491352 L8.537705683801,-6.66044955121065 L8.329711796210136,-6.584009661466298 L8.118895498991627,-6.509467738875992 L7.905328224382444,-6.436849040957053 L7.68908233675086,-6.366178173568266 L7.470231108076758,-6.29747908257251 L7.248848693124427,-6.2307750457230355 L7.025010104316223,-6.166088664776111 L6.798791186315627,-6.103441857832727 L6.570268590328318,-6.042855851911941 L6.339519748129957,-5.9843511757584 L6.106622845829457,-5.9279476528864405 L5.871656797376696,-5.8736643948631695 L5.63470121782363,-5.821519794832769 L5.395836396347773,-5.771531521284231 L5.155143269047318,-5.723716512064623 L4.912703391517031,-5.678090968639936 L4.668598911214259,-5.6346703506054325 L4.422912539624381,-5.593469370447377 L4.175727524235117,-5.554501988557904 L3.9271276203292684,-5.517781408504735 L3.677197062605402,-5.483320072557331 L3.4260205366360363,-5.45112965747099 L3.173683150173092,-5.421221070530345 L2.9202704043102927,-5.393604445853572 L2.6658681645122764,-5.368289140958588 L2.410562631520254,-5.345283733592379 L2.1544403121440565,-5.324596018824551 L1.8975879899504817,-5.306233006406073 L1.6400926958578572,-5.290200918394119 L1.3820416786468148,-5.27650518704381 L1.1235223753971852,-5.265150452967566 L0.8646223818611594,-5.256140563562696 L0.6054294227826817,-5.249478571707772 L0.3460313221730772,-5.245166734728181 L0.08651597355308979,-5.243206513631282 L-0.1730286898286415,-5.24359857261135 L-0.43251472479056924,-5.246342778824528 L-0.691854208016589,-5.251438202433839 L-0.9509592658476606,-5.258883116924248 L-1.2097421040566019,-5.268674999687669 L-1.4681150375959713,-5.280810532877716 L-1.7259905203089398,-5.295285604533907 L-1.9832811745931553,-5.3120953099749535 L-2.23989982100743,-5.331233953460639 L-2.4957595078112833,-5.352695050121744 L-2.7507735404273963,-5.376471328157354 L-3.0048555108168786,-5.402554731298818 L-3.257919326757455,-5.430936421539497 L-3.509879241014649,-5.461606782129406 L-3.7606498803960644,-5.494555420833721 L-4.010146274678932,-5.5297711734540425 L-4.2582838854011165,-5.567242107611236 L-4.504978634505824,-5.606955526788554 L-4.7501469328302965,-5.648897974633677 L-4.993705708428898,-5.69305523951822 L-5.235572434720896,-5.7394123593531505 L-5.475665158453439,-5.787953626658481 L-5.713902527470347,-5.838662593885537 L-5.950203818277168,-5.891522078989996 L-6.1844889633932345,-5.946514171253776 L-6.416678578481445,-6.0036202373538465 L-6.6466939892465655,-6.062820927675876 L-6.8744572580929475,-6.124096182870582 L-7.099891210532621,-6.187425240650576 L-7.322919461334817,-6.252786642825373 L-7.543466440408067,-6.320158242572213 L-7.761457418406115,-6.389517211940215 L-7.976818532048935,-6.460840049585316 L-8.189476809150271,-6.534102588733371 L-8.399360193343304,-6.609280005368747 L-8.606397568495959,-6.686346826645605 L-8.810518782807645,-6.765276939519017 L-9.011654672579237,-6.8460435995930276 L-9.209737085648252,-6.928619440182622 L-9.404698904481291,-7.01297648158656 L-9.596474068915892,-7.099086140567912 L-9.784997598544125,-7.186919240039102 L-9.97020561473023,-7.276446018948127 " />
			<path d="M-8.83883476483189,-7.833494518006379 L-9.053088536893382,-7.941607229779482 L-9.26188906693704,-8.052276265266734 L-9.465110581331109,-8.165434961579333 L-9.662630667034263,-8.281015156149897 L-9.85433034533263,-8.39894722779104 L-10.040094143508112,-8.51916013863257 L-10.219810164394845,-8.641581476912048 L-10.393370153781863,-8.766137500592919 L-10.560669565621385,-8.89275318178397 L-10.721607625003449,-9.021352251933319 L-10.87608738885894,-9.151857247769732 L-11.024015804354484,-9.284189557963616 L-11.165303764943987,-9.418269470479533 L-11.299866164043086,-9.554016220591757 L-11.42762194629418,-9.691348039533915 L-11.54849415639113,-9.830182203753447 L-11.66240998543428,-9.970435084741167 L-11.769300814787805,-10.112022199405963 L-11.869102257413003,-10.254858260964244 L-11.961754196652656,-10.398857230313512 L-12.047200822443044,-10.5439323678591 L-12.125390664931844,-10.689996285762858 L-12.196276625481653,-10.836961000582328 L-12.259816005040427,-10.984737986268655 L-12.315970529861811,-11.133238227491407 L-12.36470637455981,-11.28237227325806 L-12.405994182483923,-11.43205029079591 L-12.43980908340251,-11.582182119664022 L-12.466130708483675,-11.732677326062477 L-12.484943202564702,-11.883445257306317 L-12.4962352337026,-12.034395096431336 L-12.500000000000048,-12.18543591689877 " />
			<path d="M-12.500000000000048,-12.185435916898827 L-12.497992501972748,-12.295734048023085 L-12.491970652698575,-12.40599675142244 L-12.48193638639362,-12.516188610751362 L-12.467892926061051,-12.626274232419414 L-12.449844782455896,-12.736218256959663 L-12.427797752636181,-12.84598537038613 L-12.401758918100926,-12.955540315536627 L-12.37173664251557,-13.06484790339735 L-12.33774056902555,-13.17387302440558 L-12.29978161715894,-13.282580659726863 L-12.257871979319102,-13.390935892503041 L-12.212025116868482,-13.498903919067551 L-12.162255755804825,-13.606450060124335 L-12.108579882031199,-13.713539771886833 L-12.051014736221317,-13.820138657173427 L-11.989578808281845,-13.92621247645581 L-11.924291831413443,-14.031727158856706 L-11.855174775772479,-14.136648813093434 L-11.782249841735405,-14.240943738363768 L-11.70554045276802,-14.344578435170632 L-11.625071247901845,-14.447519616082122 L-11.540868073820086,-14.549734216423419 L-11.452957976555682,-14.651189404897156 L-11.361369192804124,-14.75185259412882 L-11.266131140853847,-14.851691451133798 L-11.167274411137079,-14.950673907702736 L-11.064830756404197,-15.048768170701825 L-10.958833081524773,-15.14594273228475 L-10.849315432918518,-15.242166380013003 L-10.7363129876196,-15.337408206881307 L-10.619862041977779,-15.43163762124493 L-10.500000000000048,-15.524824356645716 " />
			<path d="M10.499999999999956,-15.524824356645713 L10.619862041977694,-15.43163762124492 L10.736312987619515,-15.337408206881298 L10.84931543291843,-15.242166380012996 L10.958833081524686,-15.145942732284743 L11.064830756404112,-15.048768170701816 L11.167274411136988,-14.950673907702729 L11.266131140853759,-14.851691451133792 L11.361369192804036,-14.751852594128813 L11.452957976555592,-14.65118940489715 L11.540868073819997,-14.549734216423412 L11.625071247901753,-14.447519616082117 L11.705540452767929,-14.344578435170627 L11.782249841735315,-14.240943738363763 L11.855174775772387,-14.13664881309343 L11.92429183141335,-14.031727158856702 L11.98957880828175,-13.926212476455804 L12.051014736221225,-13.820138657173423 L12.108579882031105,-13.713539771886827 L12.16225575580473,-13.606450060124333 L12.212025116868386,-13.498903919067548 L12.257871979319008,-13.390935892503038 L12.299781617158846,-13.282580659726861 L12.337740569025454,-13.173873024405578 L12.371736642515474,-13.064847903397348 L12.401758918100832,-12.955540315536624 L12.427797752636085,-12.845985370386126 L12.4498447824558,-12.736218256959663 L12.467892926060957,-12.626274232419412 L12.481936386393524,-12.51618861075136 L12.491970652698479,-12.40599675142244 L12.497992501972652,-12.295734048023085 L12.499999999999952,-12.185435916898856 " />
			<path d="M12.499999999999952,-12.185435916898827 L12.497882272447745,-12.072150325490858 L12.491529807354322,-11.9589031193658 L12.480944757166137,-11.845732670800235 L12.466130708483579,-11.732677326062479 L12.4470926808457,-11.619775392419493 L12.423837125029403,-11.50706512515697 L12.396371920863697,-11.394584714617052 L12.364706374559715,-11.282372273258058 L12.328851215557437,-11.170465822740592 L12.288818592890157,-11.058903281044413 L12.244622071067958,-10.94772244962046 L12.196276625481559,-10.83696100058233 L12.1437986373281,-10.726656463941598 L12.087205888060604,-10.616846214891288 L12.026517553362973,-10.507567461141786 L11.961754196652564,-10.39885723031352 L11.892937762112558,-10.290752357390657 L11.82009156725647,-10.183289472240064 L11.743240295027329,-10.07650498719978 L11.66240998543419,-9.970435084741174 L11.577628026728846,-9.865115705209037 L11.488923146125675,-9.760582534643657 L11.396325400067825,-9.656870992689104 L11.299866164042996,-9.554016220591762 L11.19957812195227,-9.452053069293186 L11.09549525503563,-9.351016087621343 L10.987652830357872,-9.250939510584217 L10.876087388858846,-9.151857247769733 L10.760836732972043,-9.053802871855954 L10.641939913815769,-8.956809607235439 L10.519437217961185,-8.860910318757606 L10.39337015378177,-8.76613750059292 L10.263781437388761,-8.672523265222704 L10.13071497815739,-8.580099332558245 L9.99421586384877,-8.488897019192926 L9.854330345332535,-8.39894722779104 L9.711105820915362,-8.310280436616845 L9.56459082028069,-8.222926689207394 L9.41483498804511,-8.136915584192725 L9.261889066936943,-8.052276265266734 L9.105804880602772,-7.969037411312253 L8.94663531604769,-7.8872272266835886 L8.784434305715273,-7.806873431649868 L8.61925680921329,-7.7280032530024005 L8.451158794691402,-7.6506434148292435 L8.280197219877103,-7.574820129460116 L8.106430012776363,-7.5005590885847 L7.9299160520455265,-7.427885454547366 L7.7507151470410784,-7.356823851821257 L7.568888017554031,-7.287398358664607 L7.3844962732358885,-7.2196324989621665 L7.1976023927230255,-7.153549234254449 L7.008269702466658,-7.089170955957518 L6.816562355275537,-7.0265194777759685 L6.622545308578639,-6.965616028311645 L6.426284302415224,-6.906481243870622 L6.227845837159725,-6.849135161470866 L6.027297150988984,-6.793597212052972 L5.824706197099525,-6.739886213896248 L5.6201416206825385,-6.688020366242399 L5.413672735664364,-6.63801724312896 L5.205369501220428,-6.58989378743457 L4.995302498070546,-6.5436663051381165 L4.783542904563581,-6.499350459793668 L4.57016247255963,-6.456961267223093 L4.355233503117888,-6.4165130904281575 L4.138828821998409,-6.3780196347238105 L3.9210217549861057,-6.341493943094329 L3.7018861030452688,-6.306948391773874 L3.4814961173131334,-6.27439468605298 L3.259926473940911,-6.243843856312373 L3.0372522487907645,-6.215306254285475 L2.813548891997374,-6.188791549550861 L2.5888922024026937,-6.164308726255849 L2.3633583018725375,-6.141866080072353 L2.137023609503723,-6.121471215385998 L1.909964815730499,-6.103131042719483 L1.6822588563390317,-6.086851776391045 L1.4539828863987618,-6.072638932408816 L1.225214254119469,-6.060497326601805 L0.9960304746428469,-6.050431072988113 L0.7665092037775757,-6.04244358238096 L0.5367282116867267,-6.036537561232977 L0.3067653565363681,-6.032715010719155 L0.07669855811439347,-6.030977226058784 L-0.15339422857153856,-6.031324796076575 L-0.3834350397079993,-6.033757603003151 L-0.6133459290927686,-6.038274822514951 L-0.8430489945458463,-6.04487492401354 L-1.0724664043055459,-6.053555671144234 L-1.3015204234007314,-6.064314122553849 L-1.5301334399902426,-6.077146632887352 L-1.7582279916606465,-6.092048854023032 L-1.9857267916733012,-6.109015736545803 L-2.212552755151895,-6.12804153145813 L-2.4386290252016405,-6.149119792127997 L-2.6638789989511817,-6.172243376473266 L-2.88822635350843,-6.1974044493816685 L-3.1115950718215455,-6.224594485365631 L-3.3339094684362753,-6.253804271451017 L-3.555094215140945,-6.28502391029882 L-3.7750743664904,-6.318242823558743 L-3.993775385200247,-6.3534497554535285 L-4.211123167402793,-6.390632776592821 L-4.427044067756164,-6.429779288015289 L-4.641464924398005,-6.470876025457604 L-4.8543130837353665,-6.513909063848853 L-5.0655164250624125,-6.558863822028869 L-5.275003384997538,-6.60572506768885 L-5.482702981731639,-6.654476922532626 L-5.688544839079343,-6.7051028676568025 L-5.8924592103250175,-6.757585749147963 L-6.094377001855498,-6.811907783895043 L-6.29422979657152,-6.868050565614896 L-6.4919498770699215,-6.925995071089006 L-6.68747024858876,-6.985721666609255 L-6.880724661707597,-7.047210114630533 L-7.0716476347952035,-7.110439580627963 L-7.260174476197098,-7.17538864015638 L-7.44624130615546,-7.242035286109728 L-7.629785078453912,-7.310356936177864 L-7.810743601779874,-7.380330440498265 L-7.989055560797243,-7.451932089500048 L-8.164660536922257,-7.525137621937632 L-8.33749902879552,-7.599922233111336 L-8.507512472443215,-7.676260583272108 L-8.674643261120726,-7.754126806207561 L-8.838834764831812,-7.833494518006341 " />
			<path d="M-8.838834764831843,-7.833494518006402 L-9.053088536893334,-7.941607229779505 L-9.261889066936993,-8.052276265266759 L-9.46511058133106,-8.165434961579354 L-9.662630667034215,-8.28101515614992 L-9.854330345332581,-8.398947227791062 L-10.040094143508064,-8.519160138632593 L-10.219810164394797,-8.64158147691207 L-10.393370153781815,-8.766137500592942 L-10.560669565621337,-8.892753181783995 L-10.7216076250034,-9.02135225193334 L-10.876087388858892,-9.151857247769755 L-11.024015804354436,-9.28418955796364 L-11.165303764943939,-9.418269470479558 L-11.299866164043038,-9.55401622059178 L-11.427621946294131,-9.691348039533938 L-11.548494156391081,-9.83018220375347 L-11.662409985434232,-9.97043508474119 L-11.769300814787757,-10.112022199405986 L-11.869102257412955,-10.254858260964268 L-11.961754196652608,-10.398857230313535 L-12.047200822442996,-10.543932367859123 L-12.125390664931796,-10.68999628576288 L-12.196276625481605,-10.83696100058235 L-12.25981600504038,-10.984737986268678 L-12.315970529861763,-11.133238227491432 L-12.364706374559763,-11.282372273258083 L-12.405994182483875,-11.432050290795933 L-12.439809083402462,-11.582182119664045 L-12.466130708483627,-11.7326773260625 L-12.484943202564654,-11.88344525730634 L-12.496235233702553,-12.034395096431359 L-12.5,-12.185435916898793 " />
			<path d="M12.5,-12.18543591689885 L12.497882272447793,-12.072150325490881 L12.49152980735437,-11.958903119365823 L12.480944757166185,-11.845732670800258 L12.466130708483627,-11.732677326062502 L12.447092680845747,-11.619775392419516 L12.42383712502945,-11.507065125156993 L12.396371920863745,-11.394584714617075 L12.364706374559763,-11.282372273258083 L12.328851215557485,-11.170465822740615 L12.288818592890205,-11.058903281044437 L12.244622071068006,-10.947722449620484 L12.196276625481607,-10.836961000582352 L12.143798637328148,-10.726656463941621 L12.087205888060652,-10.61684621489131 L12.026517553363021,-10.507567461141809 L11.961754196652612,-10.398857230313544 L11.892937762112606,-10.29075235739068 L11.820091567256519,-10.183289472240087 L11.743240295027377,-10.076504987199801 L11.662409985434238,-9.970435084741197 L11.577628026728894,-9.86511570520906 L11.488923146125723,-9.760582534643682 L11.396325400067873,-9.656870992689129 L11.299866164043044,-9.554016220591784 L11.199578121952317,-9.452053069293209 L11.095495255035678,-9.351016087621366 L10.98765283035792,-9.25093951058424 L10.876087388858894,-9.151857247769756 L10.760836732972091,-9.053802871855977 L10.641939913815817,-8.956809607235462 L10.519437217961233,-8.860910318757629 L10.393370153781818,-8.766137500592944 L10.26378143738881,-8.672523265222729 L10.130714978157439,-8.580099332558268 L9.994215863848819,-8.48889701919295 L9.854330345332583,-8.398947227791064 L9.71110582091541,-8.310280436616868 L9.564590820280738,-8.22292668920742 L9.414834988045158,-8.136915584192748 L9.261889066936991,-8.052276265266757 L9.10580488060282,-7.969037411312276 L8.946635316047738,-7.887227226683612 L8.78443430571532,-7.806873431649891 L8.619256809213338,-7.728003253002424 L8.45115879469145,-7.650643414829267 L8.28019721987715,-7.574820129460139 L8.10643001277641,-7.5005590885847235 L7.9299160520455745,-7.427885454547389 L7.750715147041126,-7.3568238518212805 L7.568888017554079,-7.28739835866463 L7.3844962732359365,-7.21963249896219 L7.1976023927230735,-7.153549234254472 L7.0082697024667056,-7.089170955957541 L6.816562355275585,-7.026519477775992 L6.622545308578687,-6.965616028311668 L6.426284302415272,-6.906481243870645 L6.227845837159773,-6.8491351614708895 L6.027297150989032,-6.793597212052995 L5.824706197099573,-6.739886213896271 L5.6201416206825865,-6.688020366242422 L5.413672735664412,-6.638017243128983 L5.205369501220476,-6.589893787434593 L4.995302498070594,-6.54366630513814 L4.783542904563629,-6.499350459793691 L4.570162472559678,-6.456961267223116 L4.355233503117936,-6.416513090428181 L4.138828821998457,-6.378019634723834 L3.9210217549861537,-6.341493943094352 L3.7018861030453167,-6.306948391773897 L3.4814961173131813,-6.274394686053003 L3.259926473940959,-6.243843856312396 L3.0372522487908125,-6.215306254285498 L2.813548891997422,-6.188791549550884 L2.5888922024027416,-6.1643087262558725 L2.3633583018725854,-6.141866080072376 L2.137023609503771,-6.121471215386021 L1.9099648157305467,-6.1031310427195065 L1.6822588563390795,-6.086851776391068 L1.4539828863988096,-6.0726389324088395 L1.2252142541195168,-6.060497326601828 L0.9960304746428947,-6.050431072988136 L0.7665092037776235,-6.042443582380983 L0.5367282116867745,-6.036537561233 L0.30676535653641596,-6.032715010719178 L0.0766985581144413,-6.030977226058807 L-0.1533942285714907,-6.031324796076598 L-0.38343503970795145,-6.033757603003174 L-0.6133459290927208,-6.038274822514974 L-0.8430489945457984,-6.0448749240135635 L-1.0724664043054981,-6.053555671144257 L-1.3015204234006836,-6.064314122553872 L-1.530133439990195,-6.077146632887375 L-1.7582279916605987,-6.092048854023055 L-1.9857267916732535,-6.109015736545826 L-2.212552755151847,-6.128041531458153 L-2.4386290252015925,-6.14911979212802 L-2.663878998951134,-6.172243376473289 L-2.888226353508382,-6.1974044493816915 L-3.1115950718214975,-6.224594485365654 L-3.3339094684362274,-6.25380427145104 L-3.555094215140897,-6.285023910298843 L-3.775074366490352,-6.318242823558766 L-3.993775385200199,-6.353449755453552 L-4.211123167402745,-6.390632776592844 L-4.427044067756116,-6.429779288015312 L-4.641464924397957,-6.470876025457627 L-4.854313083735319,-6.513909063848876 L-5.0655164250623645,-6.558863822028892 L-5.27500338499749,-6.605725067688873 L-5.482702981731591,-6.654476922532649 L-5.688544839079295,-6.705102867656826 L-5.8924592103249696,-6.757585749147986 L-6.09437700185545,-6.811907783895066 L-6.294229796571472,-6.868050565614919 L-6.491949877069874,-6.925995071089029 L-6.687470248588712,-6.985721666609278 L-6.880724661707549,-7.047210114630556 L-7.071647634795156,-7.110439580627986 L-7.26017447619705,-7.175388640156403 L-7.446241306155412,-7.2420352861097514 L-7.629785078453864,-7.310356936177887 L-7.810743601779826,-7.380330440498288 L-7.989055560797195,-7.451932089500071 L-8.16466053692221,-7.525137621937655 L-8.337499028795472,-7.599922233111359 L-8.507512472443167,-7.676260583272131 L-8.674643261120679,-7.754126806207584 L-8.838834764831764,-7.833494518006364 " />
			<path d="M-8.838834764831843,-25.24126011357619 L-9.053088536893334,-25.349372825349292 L-9.261889066936993,-25.460041860836544 L-9.46511058133106,-25.57320055714914 L-9.662630667034215,-25.688780751719705 L-9.854330345332581,-25.806712823360847 L-10.040094143508064,-25.926925734202378 L-10.219810164394797,-26.049347072481854 L-10.393370153781815,-26.17390309616273 L-10.560669565621337,-26.30051877735378 L-10.7216076250034,-26.429117847503125 L-10.876087388858892,-26.55962284333954 L-11.024015804354436,-26.691955153533424 L-11.165303764943939,-26.826035066049343 L-11.299866164043038,-26.961781816161565 L-11.427621946294131,-27.099113635103723 L-11.548494156391081,-27.237947799323255 L-11.662409985434232,-27.378200680310975 L-11.769300814787757,-27.51978779497577 L-11.869102257412955,-27.66262385653405 L-11.961754196652608,-27.80662282588332 L-12.047200822442996,-27.95169796342891 L-12.125390664931796,-28.097761881332666 L-12.196276625481605,-28.244726596152134 L-12.25981600504038,-28.392503581838465 L-12.315970529861763,-28.541003823061217 L-12.364706374559763,-28.69013786882787 L-12.405994182483875,-28.83981588636572 L-12.439809083402462,-28.989947715233832 L-12.466130708483627,-29.140442921632285 L-12.484943202564654,-29.291210852876123 L-12.496235233702553,-29.442160692001146 L-12.5,-29.59320151246858 " />
			<path d="M-12.5,-29.593201512468635 L-12.496235233702553,-29.744242332936125 L-12.484943202564654,-29.895192172061147 L-12.466130708483627,-30.045960103304985 L-12.439809083402462,-30.196455309703442 L-12.405994182483875,-30.346587138571554 L-12.364706374559761,-30.496265156109406 L-12.315970529861765,-30.645399201876053 L-12.259816005040381,-30.793899443098805 L-12.196276625481607,-30.941676428785133 L-12.1253906649318,-31.088641143604598 L-12.047200822442997,-31.234705061508357 L-11.96175419665261,-31.379780199053943 L-11.869102257412958,-31.523779168403212 L-11.769300814787758,-31.666615229961494 L-11.662409985434236,-31.80820234462629 L-11.548494156391085,-31.948455225614012 L-11.427621946294133,-32.08728938983354 L-11.299866164043042,-32.2246212087757 L-11.16530376494394,-32.36036795888793 L-11.024015804354438,-32.49444787140384 L-10.876087388858892,-32.62678018159773 L-10.7216076250034,-32.75728517743414 L-10.560669565621337,-32.88588424758349 L-10.393370153781815,-33.012499928774545 L-10.219810164394795,-33.13705595245542 L-10.040094143508062,-33.25947729073489 L-9.854330345332578,-33.37969020157642 L-9.662630667034211,-33.497622273217566 L-9.465110581331055,-33.613202467788135 L-9.261889066936988,-33.72636116410073 L-9.053088536893336,-33.83703019958798 L-8.838834764831843,-33.94514291136108 L-8.619256809213335,-34.050634176365065 L-8.394486935587729,-34.15344045060645 L-8.16466053692221,-34.25349980742983 L-7.929916052045568,-34.3507519748201 L-7.690394882257835,-34.44513837170811 L-7.446241306155417,-34.53660214325773 L-7.1976023927230655,-34.625088195113015 L-6.9446279127450286,-34.71054322658504 L-6.687470248588714,-34.792915762758206 L-6.4262843024152705,-34.87215618549684 L-6.161227402872301,-34.94821676333327 L-5.892459210324972,-35.0210516802195 L-5.620141620682586,-35.090617063125066 L-5.344438667878528,-35.15687100846452 L-5.065516425062373,-35.219773607338595 L-4.783542904563623,-35.279286969573796 L-4.498687956687354,-35.33537524654607 L-4.211123167402751,-35.38800465277464 L-3.9210217549861417,-35.437143486273136 L-3.628558465680779,-35.48276214764568 L-3.3339094684362305,-35.52483315791645 L-3.0372522487907996,-35.563331175081984 L-2.738765501960875,-35.5982330093763 L-2.438629025201604,-35.629517637239466 L-2.137023609503764,-35.65716621398147 L-1.834130930692022,-35.68116208513352 L-1.5301334399902036,-35.70149079648011 L-1.2252142541195097,-35.71814010276566 L-0.9195570449958459,-35.73109997507062 L-0.6133459290927266,-35.740362606852514 L-0.3067653565364033,-35.745922418648306 L-7.654042494670958e-16,-35.747776061435275 L0.3067653565364018,-35.745922418648306 L0.6133459290927251,-35.740362606852514 L0.9195570449958443,-35.73109997507062 L1.2252142541195081,-35.71814010276566 L1.530133439990202,-35.70149079648011 L1.8341309306920204,-35.68116208513352 L2.1370236095037627,-35.65716621398147 L2.4386290252016023,-35.629517637239466 L2.738765501960873,-35.5982330093763 L3.0372522487907982,-35.563331175081984 L3.3339094684362287,-35.52483315791645 L3.628558465680777,-35.48276214764568 L3.9210217549861404,-35.437143486273136 L4.211123167402749,-35.38800465277464 L4.498687956687352,-35.33537524654607 L4.783542904563622,-35.279286969573796 L5.065516425062374,-35.219773607338595 L5.344438667878528,-35.15687100846452 L5.620141620682584,-35.090617063125066 L5.892459210324971,-35.0210516802195 L6.1612274028723,-34.94821676333327 L6.4262843024152705,-34.87215618549684 L6.687470248588713,-34.792915762758206 L6.944627912745024,-34.71054322658504 L7.197602392723063,-34.625088195113015 L7.446241306155412,-34.53660214325773 L7.69039488225783,-34.44513837170812 L7.929916052045567,-34.3507519748201 L8.164660536922211,-34.25349980742983 L8.39448693558773,-34.15344045060645 L8.619256809213336,-34.050634176365065 L8.838834764831843,-33.94514291136108 L9.053088536893334,-33.83703019958798 L9.261889066936986,-33.72636116410073 L9.465110581331054,-33.613202467788135 L9.662630667034213,-33.497622273217566 L9.854330345332581,-33.37969020157642 L10.040094143508064,-33.25947729073489 L10.219810164394797,-33.13705595245541 L10.393370153781817,-33.012499928774545 L10.560669565621339,-32.88588424758349 L10.7216076250034,-32.75728517743414 L10.876087388858892,-32.62678018159773 L11.024015804354438,-32.49444787140384 L11.16530376494394,-32.36036795888793 L11.299866164043038,-32.2246212087757 L11.427621946294131,-32.08728938983354 L11.548494156391085,-31.948455225614012 L11.662409985434238,-31.808202344626288 L11.76930081478776,-31.666615229961494 L11.869102257412958,-31.523779168403212 L11.96175419665261,-31.379780199053943 L12.047200822442997,-31.234705061508357 L12.1253906649318,-31.088641143604598 L12.196276625481605,-30.941676428785136 L12.259816005040381,-30.793899443098805 L12.315970529861765,-30.645399201876053 L12.364706374559761,-30.496265156109406 L12.405994182483875,-30.346587138571557 L12.43980908340246,-30.196455309703442 L12.466130708483627,-30.045960103304985 L12.484943202564654,-29.895192172061144 L12.496235233702553,-29.744242332936125 L12.5,-29.593201512468664 " />
			<path d="M12.5,-29.593201512468635 L12.497882272447793,-29.479915921060666 L12.49152980735437,-29.36666871493561 L12.480944757166185,-29.25349826637004 L12.466130708483627,-29.140442921632285 L12.447092680845747,-29.0275409879893 L12.42383712502945,-28.914830720726776 L12.396371920863745,-28.80235031018686 L12.364706374559763,-28.69013786882787 L12.328851215557485,-28.578231418310402 L12.288818592890205,-28.46666887661422 L12.244622071068006,-28.355488045190267 L12.196276625481607,-28.244726596152137 L12.143798637328148,-28.134422059511405 L12.087205888060652,-28.024611810461096 L12.026517553363021,-27.915333056711596 L11.961754196652612,-27.806622825883327 L11.892937762112606,-27.698517952960465 L11.820091567256519,-27.591055067809872 L11.743240295027377,-27.484270582769586 L11.662409985434238,-27.378200680310982 L11.577628026728894,-27.272881300778845 L11.488923146125723,-27.168348130213467 L11.396325400067873,-27.064636588258914 L11.299866164043044,-26.96178181616157 L11.199578121952317,-26.859818664862992 L11.095495255035678,-26.758781683191152 L10.98765283035792,-26.658705106154027 L10.876087388858894,-26.559622843339543 L10.760836732972091,-26.461568467425764 L10.641939913815817,-26.36457520280525 L10.519437217961233,-26.268675914327414 L10.393370153781818,-26.17390309616273 L10.26378143738881,-26.080288860792514 L10.130714978157439,-25.987864928128054 L9.994215863848819,-25.896662614762732 L9.854330345332583,-25.80671282336085 L9.71110582091541,-25.718046032186653 L9.564590820280738,-25.630692284777204 L9.414834988045158,-25.544681179762534 L9.261889066936991,-25.46004186083654 L9.10580488060282,-25.37680300688206 L8.946635316047738,-25.2949928222534 L8.78443430571532,-25.214639027219675 L8.619256809213338,-25.13576884857221 L8.45115879469145,-25.058409010399053 L8.28019721987715,-24.982585725029924 L8.10643001277641,-24.908324684154508 L7.9299160520455745,-24.835651050117175 L7.750715147041126,-24.764589447391067 L7.568888017554079,-24.695163954234417 L7.3844962732359365,-24.627398094531976 L7.1976023927230735,-24.561314829824255 L7.0082697024667056,-24.496936551527327 L6.816562355275585,-24.434285073345777 L6.622545308578687,-24.373381623881453 L6.426284302415272,-24.31424683944043 L6.227845837159773,-24.256900757040675 L6.027297150989032,-24.20136280762278 L5.824706197099573,-24.147651809466055 L5.6201416206825865,-24.095785961812208 L5.413672735664412,-24.04578283869877 L5.205369501220476,-23.99765938300438 L4.995302498070594,-23.951431900707924 L4.783542904563629,-23.907116055363474 L4.570162472559678,-23.8647268627929 L4.355233503117936,-23.824278685997967 L4.138828821998457,-23.78578523029362 L3.9210217549861537,-23.749259538664138 L3.7018861030453167,-23.714713987343682 L3.4814961173131813,-23.68216028162279 L3.259926473940959,-23.65160945188218 L3.0372522487908125,-23.623071849855283 L2.813548891997422,-23.59655714512067 L2.5888922024027416,-23.572074321825657 L2.3633583018725854,-23.54963167564216 L2.137023609503771,-23.529236810955805 L1.9099648157305467,-23.510896638289292 L1.6822588563390795,-23.494617371960853 L1.4539828863988096,-23.480404527978624 L1.2252142541195168,-23.46826292217161 L0.9960304746428947,-23.45819666855792 L0.7665092037776235,-23.450209177950768 L0.5367282116867745,-23.444303156802786 L0.30676535653641596,-23.440480606288965 L0.0766985581144413,-23.438742821628594 L-0.1533942285714907,-23.43909039164638 L-0.38343503970795145,-23.44152319857296 L-0.6133459290927208,-23.44604041808476 L-0.8430489945457984,-23.452640519583348 L-1.0724664043054981,-23.46132126671404 L-1.3015204234006836,-23.47207971812366 L-1.530133439990195,-23.484912228457162 L-1.7582279916605987,-23.49981444959284 L-1.9857267916732535,-23.516781332115613 L-2.212552755151847,-23.535807127027937 L-2.4386290252015925,-23.556885387697804 L-2.663878998951134,-23.580008972043075 L-2.888226353508382,-23.60517004495148 L-3.1115950718214975,-23.632360080935438 L-3.3339094684362274,-23.661569867020823 L-3.555094215140897,-23.692789505868628 L-3.775074366490352,-23.72600841912855 L-3.993775385200199,-23.76121535102334 L-4.211123167402745,-23.79839837216263 L-4.427044067756116,-23.837544883585096 L-4.641464924397957,-23.878641621027413 L-4.854313083735319,-23.921674659418663 L-5.0655164250623645,-23.966629417598675 L-5.27500338499749,-24.013490663258658 L-5.482702981731591,-24.062242518102433 L-5.688544839079295,-24.11286846322661 L-5.8924592103249696,-24.16535134471777 L-6.09437700185545,-24.21967337946485 L-6.294229796571472,-24.275816161184704 L-6.491949877069874,-24.333760666658815 L-6.687470248588712,-24.393487262179065 L-6.880724661707549,-24.45497571020034 L-7.071647634795156,-24.51820517619777 L-7.26017447619705,-24.583154235726187 L-7.446241306155412,-24.649800881679536 L-7.629785078453864,-24.71812253174767 L-7.810743601779826,-24.788096036068072 L-7.989055560797195,-24.859697685069854 L-8.16466053692221,-24.93290321750744 L-8.337499028795472,-25.007687828681142 L-8.507512472443167,-25.084026178841917 L-8.674643261120679,-25.16189240177737 L-8.838834764831764,-25.24126011357615 " />
			<path d="M-7.424621202458789,-25.937570737398957 L-7.604594370990442,-26.028385415288366 L-7.779986816227117,-26.121347405097655 L-7.950692888318133,-26.216400710000237 L-8.116609760308783,-26.313488073439512 L-8.27763749007941,-26.412551013618074 L-8.433679080546815,-26.513529858724958 L-8.584640538091671,-26.61636378287972 L-8.730430929176768,-26.720990842771652 L-8.870962435121966,-26.827348014972134 L-9.006150405002899,-26.935371233897587 L-9.135913406641512,-27.044995430400174 L-9.260173275657769,-27.156154570963036 L-9.37885516255295,-27.268781697476406 L-9.491887577796195,-27.382808967570675 L-9.599202434887113,-27.49816769548209 L-9.700735091368552,-27.614788393426494 L-9.796424387764798,-27.73260081345618 L-9.886212684421757,-27.85153398977461 L-9.970045896226924,-27.971516281483563 L-10.047873525188233,-28.09247541573695 L-10.11964869085216,-28.214338531275242 L-10.185328158542752,-28.3370322223144 L-10.244872365404591,-28.460482582762754 L-10.298245444233961,-28.58461525073927 L-10.345415245083924,-28.70935545336638 L-10.386353354630243,-28.83462805181037 L-10.421035113286496,-28.960357586542163 L-10.44943963005811,-29.08646832279138 L-10.47154979512629,-29.21288429616608 L-10.487352290154353,-29.339529358410903 L-10.496837596310188,-29.466327223275922 L-10.500000000000043,-29.593201512468568 " />
			<path d="M-10.500000000000043,-29.593201512468614 L-10.496837596310188,-29.720075801661306 L-10.487352290154353,-29.846873666526324 L-10.47154979512629,-29.97351872877115 L-10.44943963005811,-30.099934702145852 L-10.421035113286496,-30.226045438395065 L-10.386353354630241,-30.35177497312686 L-10.345415245083926,-30.477047571570843 L-10.298245444233963,-30.601787774197955 L-10.244872365404593,-30.725920442174473 L-10.185328158542754,-30.849370802622822 L-10.119648690852161,-30.97206449366198 L-10.047873525188235,-31.093927609200275 L-9.970045896226928,-31.214886743453658 L-9.88621268442176,-31.334869035162615 L-9.7964243877648,-31.453802211481044 L-9.700735091368553,-31.57161463151073 L-9.599202434887113,-31.688235329455136 L-9.491887577796197,-31.80359405736655 L-9.378855162552954,-31.917621327460818 L-9.26017327565777,-32.03024845397419 L-9.135913406641512,-32.14140759453706 L-9.006150405002899,-32.251031791039644 L-8.870962435121966,-32.35905500996509 L-8.730430929176768,-32.46541218216558 L-8.584640538091671,-32.57003924205751 L-8.433679080546815,-32.67287316621227 L-8.277637490079409,-32.77385201131916 L-8.11660976030878,-32.87291495149772 L-7.950692888318129,-32.97000231493699 L-7.779986816227112,-33.065055619839576 L-7.604594370990445,-33.158017609648866 L-7.424621202458791,-33.24883228753827 L-7.240175719739244,-33.33744495014162 L-7.051369025893735,-33.423802220504385 L-6.858314851014699,-33.50785208023602 L-6.66112948371832,-33.58954390084384 L-6.459931701096624,-33.66882847422978 L-6.254842697170593,-33.745658042331456 L-6.045986009887417,-33.81998632588989 L-5.833487446705867,-33.89176855232639 L-5.617475008814563,-33.96096148271185 L-5.39807881402887,-34.027523437812306 L-5.175431018412776,-34.09141432319491 L-4.94966573667302,-34.152595653379336 L-4.720918961373414,-34.21103057502001 L-4.489328481018005,-34.26668388910516 L-4.255033797052437,-34.31952207215938 L-4.018176039833486,-34.36951329643695 L-3.778897883617419,-34.41662744909366 L-3.5373434606183527,-34.460836150325655 L-3.2936582741884015,-34.50211277046439 L-3.047989111171897,-34.54043244601733 L-2.800483953486476,-34.575772094644776 L-2.551291888984314,-34.60811042906383 L-2.3005630216471773,-34.63742796987105 L-2.04844838116939,-34.66370705727611 L-1.7950998319832043,-34.68693186173939 L-1.5406699817813407,-34.707088393507114 L-1.2853120895918133,-34.72416451103825 L-1.0291799734604306,-34.73814992831811 L-0.7724279177965528,-34.749036221054276 L-0.5152105804379327,-34.75681683175107 L-0.25768289949062106,-34.76148707365954 L-4.2947510776328003e-14,-34.76304413360059 L0.2576828994905352,-34.76148707365954 L0.5152105804378467,-34.75681683175107 L0.772427917796467,-34.749036221054276 L1.0291799734603444,-34.738149928318116 L1.2853120895917272,-34.72416451103825 L1.5406699817812548,-34.707088393507114 L1.7950998319831184,-34.68693186173939 L2.0484483811693037,-34.66370705727611 L2.300563021647091,-34.637427969871055 L2.5512918889842284,-34.60811042906383 L2.80048395348639,-34.575772094644776 L3.0479891111718107,-34.54043244601733 L3.293658274188316,-34.50211277046439 L3.537343460618267,-34.460836150325655 L3.7788978836173337,-34.41662744909366 L4.018176039833399,-34.36951329643695 L4.255033797052351,-34.31952207215938 L4.489328481017921,-34.26668388910516 L4.720918961373328,-34.21103057502001 L4.949665736672933,-34.152595653379336 L5.175431018412689,-34.09141432319491 L5.398078814028785,-34.027523437812306 L5.617475008814476,-33.96096148271185 L5.833487446705778,-33.89176855232639 L6.04598600988733,-33.81998632588989 L6.254842697170503,-33.745658042331456 L6.459931701096535,-33.66882847422978 L6.661129483718234,-33.58954390084384 L6.858314851014614,-33.50785208023602 L7.051369025893651,-33.423802220504385 L7.2401757197391605,-33.33744495014161 L7.424621202458706,-33.24883228753827 L7.604594370990359,-33.158017609648866 L7.779986816227026,-33.065055619839576 L7.950692888318043,-32.97000231493699 L8.116609760308696,-32.87291495149772 L8.277637490079325,-32.77385201131916 L8.43367908054673,-32.67287316621227 L8.584640538091588,-32.57003924205751 L8.730430929176684,-32.46541218216558 L8.870962435121882,-32.35905500996509 L9.006150405002813,-32.251031791039644 L9.135913406641427,-32.14140759453706 L9.260173275657685,-32.03024845397419 L9.378855162552867,-31.917621327460818 L9.49188757779611,-31.803594057366553 L9.599202434887028,-31.68823532945514 L9.700735091368468,-31.57161463151073 L9.796424387764716,-31.453802211481044 L9.886212684421675,-31.334869035162615 L9.970045896226843,-31.214886743453658 L10.04787352518815,-31.09392760920027 L10.119648690852076,-30.97206449366198 L10.185328158542669,-30.849370802622822 L10.244872365404506,-30.725920442174473 L10.298245444233878,-30.60178777419796 L10.34541524508384,-30.477047571570846 L10.386353354630156,-30.35177497312686 L10.421035113286411,-30.22604543839507 L10.449439630058023,-30.099934702145852 L10.471549795126204,-29.973518728771147 L10.487352290154268,-29.84687366652632 L10.496837596310103,-29.720075801661306 L10.499999999999957,-29.59320151246864 " />
			<path d="M10.499999999999957,-29.593201512468614 L10.498221108856104,-29.49804161568592 L10.492885038177628,-29.40291396254087 L10.483993596019552,-29.307850785745796 L10.471549795126204,-29.21288429616608 L10.455557851910385,-29.118046671905972 L10.436023185024697,-29.023370047405454 L10.412952413525502,-28.928886502551922 L10.386353354630158,-28.83462805181037 L10.356235021068244,-28.740626633375697 L10.32260761802773,-28.646914098350905 L10.285482539697083,-28.553522199954784 L10.244872365404508,-28.460482582762754 L10.200790855355601,-28.36782677198454 L10.153252945970905,-28.275586162782282 L10.102274744824895,-28.1837920096327 L10.047873525188152,-28.092475415736956 L9.990067720174546,-28.00166732248175 L9.928876916495433,-27.911398498955254 L9.864321847822954,-27.821699531521414 L9.796424387764718,-27.732600813456184 L9.725207542452228,-27.64413253464919 L9.650695442745564,-27.55632467137427 L9.57291333605697,-27.469206976132448 L9.491887577796113,-27.38280896757068 L9.407645622439905,-27.297159920479874 L9.320216014229926,-27.212288855875528 L9.22962837750061,-27.128224531164342 L9.135913406641428,-27.044995430400174 L9.039102855696514,-26.9626297546326 L8.939229527605242,-26.88115541235137 L8.836327263087393,-26.80060001002999 L8.730430929176684,-26.720990842771652 L8.621576407406558,-26.642354885060673 L8.509800581652206,-26.564718781622524 L8.395141325632965,-26.488108838395657 L8.277637490079327,-26.412551013618074 L8.157328889568902,-26.33807090903175 L8.034256289035778,-26.264693761207813 L7.90846138995789,-26.192444432995487 L7.77998681622703,-26.121347405097655 L7.648876099706326,-26.05142676777589 L7.515173665480058,-25.982706212687813 L7.378924816800827,-25.91520902485949 L7.240175719739161,-25.848958074795615 L7.0989733875407754,-25.783975810730162 L6.955365664696764,-25.720284251020097 L6.809401210732142,-25.657904976684748 L6.6611294837182395,-25.59685912409339 L6.510600723514504,-25.537167377803456 L6.357865934745384,-25.47884996355187 L6.202976869518144,-25.421926641401818 L6.045986009887339,-25.366416699047335 L5.886946550071991,-25.312338945277915 L5.725912378431449,-25.25971170360541 L5.398078814028786,-25.158879587124922 L5.062929606830744,-25.064057000398094 L4.7209189613733304,-24.975372449917216 L4.372510381025156,-24.892946123718637 L4.018176039833406,-24.81688972850028 L3.6583961426190235,-24.74730633823325 L3.293658274188327,-24.684290254472835 L2.92445673854303,-24.627926878558103 L2.55129188898424,-24.5782925958734 L2.174669450018261,-24.535454672328513 L1.7950998319831253,-24.49947116319784 L1.4130974393247844,-24.470390834442078 L1.0291799734603517,-24.448253096619116 L0.6438677311731614,-24.433087951473606 L0.2576828994905471,-24.42491595127769 L-0.12885115200009448,-24.423748170977923 L-0.5152105804379278,-24.429586193186157 L-0.9008717796166608,-24.442422106034755 L-1.2853120895918062,-24.462238513898974 L-1.6680105050055754,-24.489008560972074 L-2.04844838116938,-24.522695967661114 L-2.4261101369470834,-24.5632550797542 L-2.800483953486473,-24.61063093029245 L-3.1710624678519377,-24.664759314062945 L-3.5373434606183483,-24.72556687461157 L-3.8988305364943265,-24.792971203657984 L-4.2550337970524295,-24.866880952777848 L-4.605470504654579,-24.947195957201004 L-4.949665736673017,-25.033807371557888 L-5.28715302912008,-25.126597817390113 L-5.61747500881456,-25.225441542225372 L-5.940184013227974,-25.330204590001088 L-6.098546560005564,-25.38476180000496 L-6.254842697170588,-25.44074498260577 L-6.409019465901289,-25.498135168663005 L-6.561024625495097,-25.55691291229214 L-6.710806671069687,-25.61705829745364 L-6.858314851014699,-25.67855094470121 L-7.003499184188239,-25.74137001808712 L-7.146310476852303,-25.80549423222217 L-7.286700339341413,-25.87090185948795 L-7.424621202458725,-25.937570737398925 " />
			<path d="M14.100000000000001,-12.18543591689885 L14.100000000000001,-5.222329678670936 " />
			<path d="M-14.100000000000001,-12.18543591689885 L-14.100000000000001,-5.222329678670936 " />
			<path d="M12.500000000000002,-29.593201512468635 L12.500000000000002,-12.18543591689885 " />
			<path d="M-12.500000000000002,-29.593201512468635 L-12.500000000000002,-12.18543591689885 " />

       </g>
    </g>
    
</svg>
