<?xml version="1.0" encoding="UTF-8" standalone="no"?>
<svg
   xmlns:svg="http://www.w3.org/2000/svg"
   xmlns="http://www.w3.org/2000/svg"
   width="800.0"
   height="800.0"

>
    <g transform="scale(16.666666666666664, -16.666666666666664)   translate(20.4,-20.4)" stroke-width="0.06000000000000001"  fill="none">
       <!-- hidden lines -->
       <g  stroke="rgb(180,180,180)" fill="none" stroke-dasharray="0.06000000000000001,0.06000000000000001" >

       </g>

       <!-- solid lines -->
       <g  stroke="rgb(40,40,40)" fill="none">
			<path d="M-18.0,-18.0 L-18.0,18.0 " />
			<path d="M-18.0,-18.0 L18.0,-18.0 " />
			<path d="M-18.0,18.0 L18.0,18.0 " />
			<path d="M18.0,-18.0 L18.0,18.0 " />
			<path d="M14.1,0.0 L14.09600680517312,0.33554753540011595 L14.084029482480412,0.6709050131147662 L14.064074816004574,1.005882483109176 L14.036154108280492,1.3402902105889754 L14.000283173893365,1.673938783468003 L13.956482330521151,2.0066392196533203 L13.90477638742643,2.338203074086675 L13.845194631404164,2.6684425454817835 L13.77777081019335,2.997170582696971 L13.702543113361937,3.3242009906829235 L13.619554150675864,3.6493485359455424 L13.528850927964413,3.9724290514641583 L13.430484820495632,4.293259541005689 L13.324511543876826,4.611658282775645 L13.21099112249664,4.927444932347287 L13.089987855526623,5.240440624810619 L12.961570280501483,5.550468076083375 L12.825811134498709,5.8573516833266 L12.682787312939503,6.160917624407971 L12.53257982603442,6.460993956356489 L12.375273752898304,6.757410712752804 L12.210958193360584,7.050000000000002 L12.039726217498187,7.33859609242032 L11.861674812919652,7.623035526123928 L11.676904829830326,7.903157191596609 L11.48552092390973,8.178802424953897 L11.287631497033479,8.449815097809996 L11.0833486358733,8.716041705710538 L10.872788048409962,8.977331455079147 L10.656068998395039,9.233536348628522 L10.433314237798658,9.484511269187664 L10.204649937281484,9.730114061897783 L9.970205614730316,9.970205614730324 L9.730114061897774,10.204649937281493 L9.484511269187657,10.433314237798665 L9.233536348628514,10.656068998395046 L8.97733145507914,10.87278804840997 L8.716041705710527,11.083348635873309 L8.449815097809985,11.287631497033486 L8.178802424953888,11.485520923909737 L7.9031571915965975,11.676904829830333 L7.623035526123919,11.86167481291966 L7.33859609242031,12.039726217498194 L7.049999999999993,12.210958193360588 L6.757410712752796,12.375273752898307 L6.460993956356482,12.532579826034421 L6.160917624407966,12.682787312939507 L5.857351683326597,12.825811134498709 L5.550468076083371,12.961570280501485 L5.240440624810618,13.089987855526623 L4.927444932347288,13.21099112249664 L4.611658282775647,13.324511543876826 L4.293259541005693,13.430484820495632 L3.972429051464163,13.528850927964411 L3.6493485359455486,13.619554150675862 L3.3242009906829306,13.702543113361935 L2.9971705826969792,13.777770810193347 L2.6684425454817933,13.845194631404162 L2.338203074086686,13.904776387426429 L2.0066392196533327,13.95648233052115 L1.6739387834680166,14.000283173893363 L1.3402902105889902,14.03615410828049 L1.0058824831091917,14.064074816004574 L0.6709050131147836,14.084029482480412 L0.3355475354001344,14.096006805173118 L1.9648349570056532e-14,14.1 L-0.3355475354000951,14.09600680517312 L-0.6709050131147443,14.084029482480414 L-1.0058824831091526,14.064074816004576 L-1.340290210588951,14.036154108280495 L-1.6739387834679773,14.000283173893369 L-2.0066392196532936,13.956482330521155 L-2.3382030740866475,13.904776387426436 L-2.6684425454817546,13.845194631404171 L-2.997170582696941,13.777770810193354 L-3.3242009906828924,13.702543113361944 L-3.6493485359455105,13.61955415067587 L-3.9724290514641254,13.528850927964422 L-4.293259541005654,13.430484820495643 L-4.61165828277561,13.324511543876838 L-4.9274449323472505,13.210991122496655 L-5.2404406248105815,13.089987855526639 L-5.550468076083336,12.961570280501501 L-5.85735168332656,12.825811134498727 L-6.160917624407934,12.68278731293952 L-6.460993956356452,12.532579826034437 L-6.757410712752769,12.375273752898321 L-7.0499999999999705,12.210958193360602 L-7.33859609242029,12.039726217498204 L-7.623035526123901,11.86167481291967 L-7.903157191596582,11.676904829830345 L-8.178802424953872,11.48552092390975 L-8.44981509780997,11.287631497033496 L-8.716041705710515,11.083348635873318 L-8.977331455079126,10.872788048409978 L-9.233536348628505,10.656068998395053 L-9.484511269187646,10.433314237798674 L-9.730114061897767,10.2046499372815 L-9.97020561473031,9.97020561473033 L-10.20464993728148,9.730114061897787 L-10.433314237798655,9.484511269187667 L-10.656068998395037,9.233536348628526 L-10.87278804840996,8.977331455079149 L-11.0833486358733,8.716041705710538 L-11.28763149703348,8.449815097809994 L-11.485520923909734,8.178802424953895 L-11.67690482983033,7.903157191596604 L-11.861674812919656,7.623035526123924 L-12.03972621749819,7.338596092420314 L-12.210958193360588,7.049999999999994 L-12.375273752898307,6.757410712752794 L-12.532579826034425,6.460993956356477 L-12.68278731293951,6.160917624407958 L-12.825811134498714,5.857351683326585 L-12.961570280501492,5.550468076083358 L-13.08998785552663,5.240440624810601 L-13.210991122496647,4.927444932347267 L-13.324511543876833,4.6116582827756245 L-13.430484820495641,4.293259541005667 L-13.52885092796442,3.972429051464134 L-13.619554150675869,3.649348535945516 L-13.702543113361944,3.324200990682895 L-13.777770810193354,2.99717058269694 L-13.845194631404171,2.668442545481751 L-13.904776387426436,2.338203074086641 L-13.956482330521156,2.006639219653284 L-14.000283173893369,1.6739387834679644 L-14.036154108280497,1.340290210588935 L-14.064074816004577,1.0058824831091333 L-14.084029482480414,0.6709050131147218 L-14.09600680517312,0.3355475354000695 L-14.1,-4.83665108842893e-14 L-14.096006805173118,-0.3355475354001662 L-14.08402948248041,-0.6709050131148184 L-14.06407481600457,-1.0058824831092297 L-14.036154108280488,-1.3402902105890313 L-14.000283173893356,-1.6739387834680606 L-13.956482330521142,-2.0066392196533798 L-13.90477638742642,-2.338203074086736 L-13.845194631404151,-2.668442545481846 L-13.777770810193335,-2.9971705826970347 L-13.702543113361921,-3.3242009906829892 L-13.619554150675844,-3.6493485359456095 L-13.528850927964392,-3.972429051464226 L-13.43048482049561,-4.293259541005758 L-13.3245115438768,-4.611658282775716 L-13.210991122496614,-4.927444932347358 L-13.089987855526594,-5.240440624810691 L-12.961570280501453,-5.550468076083447 L-12.825811134498675,-5.857351683326673 L-12.682787312939467,-6.160917624408046 L-12.532579826034382,-6.460993956356562 L-12.375273752898263,-6.757410712752879 L-12.21095819336054,-7.050000000000078 L-12.03972621749814,-7.338596092420397 L-11.861674812919603,-7.6230355261240055 L-11.676904829830274,-7.903157191596684 L-11.485520923909677,-8.178802424953973 L-11.287631497033422,-8.449815097810072 L-11.083348635873241,-8.716041705710612 L-10.8727880484099,-8.977331455079224 L-10.656068998394973,-9.233536348628599 L-10.43331423779859,-9.484511269187738 L-10.204649937281415,-9.730114061897858 L-9.970205614730242,-9.970205614730396 L-9.730114061897698,-10.204649937281566 L-9.484511269187577,-10.43331423779874 L-9.233536348628432,-10.656068998395119 L-8.977331455079053,-10.87278804841004 L-8.716041705710438,-11.083348635873378 L-8.449815097809894,-11.287631497033555 L-8.178802424953794,-11.485520923909805 L-7.903157191596501,-11.676904829830399 L-7.623035526123819,-11.861674812919723 L-7.338596092420207,-12.039726217498256 L-7.049999999999886,-12.21095819336065 L-6.757410712752685,-12.375273752898368 L-6.460993956356366,-12.532579826034482 L-6.160917624407846,-12.682787312939563 L-5.857351683326471,-12.825811134498766 L-5.550468076083244,-12.96157028050154 L-5.240440624810486,-13.089987855526676 L-4.927444932347151,-13.210991122496692 L-4.611658282775506,-13.324511543876874 L-4.293259541005548,-13.430484820495678 L-3.9724290514640144,-13.528850927964454 L-3.649348535945396,-13.619554150675903 L-3.3242009906827743,-13.702543113361973 L-2.997170582696819,-13.777770810193381 L-2.668442545481629,-13.845194631404194 L-2.338203074086518,-13.904776387426457 L-2.006639219653161,-13.956482330521174 L-1.673938783467841,-14.000283173893383 L-1.340290210588811,-14.036154108280508 L-1.0058824831090092,-14.064074816004586 L-0.6709050131145976,-14.08402948248042 L-0.33554753539994514,-14.096006805173124 L1.7273629206860807e-13,-14.1 L0.33554753540029053,-14.096006805173115 L0.6709050131149427,-14.084029482480403 L1.0058824831093538,-14.064074816004561 L1.340290210589155,-14.036154108280476 L1.673938783468184,-14.000283173893342 L2.0066392196535023,-13.956482330521126 L2.338203074086859,-13.9047763874264 L2.6684425454819682,-13.845194631404128 L2.9971705826971564,-13.777770810193308 L3.32420099068311,-13.702543113361891 L3.6493485359457294,-13.619554150675812 L3.972429051464346,-13.528850927964358 L4.293259541005877,-13.430484820495574 L4.611658282775833,-13.32451154387676 L4.927444932347474,-13.21099112249657 L5.240440624810806,-13.089987855526548 L5.55046807608356,-12.961570280501403 L5.857351683326787,-12.825811134498624 L6.160917624408157,-12.682787312939414 L6.460993956356674,-12.532579826034324 L6.757410712752987,-12.375273752898202 L7.050000000000185,-12.210958193360478 L7.338596092420503,-12.039726217498076 L7.6230355261241085,-11.861674812919535 L7.903157191596787,-11.676904829830205 L8.178802424954075,-11.485520923909606 L8.44981509781017,-11.287631497033347 L8.716041705710712,-11.083348635873165 L8.97733145507932,-10.87278804840982 L9.233536348628691,-10.656068998394892 L9.48451126918783,-10.433314237798506 L9.730114061897947,-10.204649937281328 L9.970205614730487,-9.970205614730153 L10.204649937281653,-9.730114061897607 L10.433314237798822,-9.484511269187484 L10.656068998395199,-9.233536348628338 L10.872788048410118,-8.977331455078957 L11.083348635873454,-8.716041705710342 L11.287631497033628,-8.449815097809795 L11.485520923909878,-8.178802424953691 L11.676904829830468,-7.9031571915963985 L11.86167481291979,-7.623035526123714 L12.03972621749832,-7.338596092420103 L12.210958193360712,-7.049999999999779 L12.375273752898428,-6.757410712752575 L12.53257982603454,-6.460993956356256 L12.682787312939618,-6.160917624407735 L12.825811134498817,-5.8573516833263595 L12.961570280501588,-5.550468076083129 L13.089987855526722,-5.24044062481037 L13.210991122496734,-4.927444932347035 L13.324511543876914,-4.611658282775389 L13.430484820495716,-4.293259541005429 L13.528850927964491,-3.9724290514638954 L13.619554150675933,-3.6493485359452755 L13.702543113362003,-3.3242009906826535 L13.777770810193408,-2.9971705826966972 L13.845194631404217,-2.668442545481507 L13.904776387426478,-2.3382030740863953 L13.956482330521192,-2.0066392196530374 L14.000283173893399,-1.6739387834677175 L14.03615410828052,-1.3402902105886871 L14.064074816004597,-1.0058824831088853 L14.084029482480426,-0.6709050131144734 L14.096006805173127,-0.33554753539982085 L14.1,2.9710607325292683e-13 " />
			<path d="M7.4,0.0 L7.396018088358501,-0.27357646689702897 L7.3840757269702415,-0.5469211556412117 L7.364183033585828,-0.8198024844456859 L7.336356861598315,-1.0919892640891933 L7.300620785764762,-1.3632508937831116 L7.257005082233338,-1.6333575565399578 L7.205546702892898,-1.9020804138778429 L7.146289244066796,-2.169191799695922 L7.079282909577405,-2.434465413156586 L7.00458446821267,-2.6976765104109783 L6.922257205630736,-2.9586020950054124 L6.832370870743366,-3.2170211068073646 L6.735001616623602,-3.4727146092909877 L6.630231935987723,-3.7254659750234755 L6.518150591306151,-3.975061069195122 L6.3988525396025455,-4.221288431037598 L6.272438852004754,-4.4639394529767396 L6.139016628115817,-4.702808557368061 L5.998698905277548,-4.93769337066527 L5.851604562803585,-5.168394894874224 L5.69785822126301,-5.3947176761470566 L5.5375901368999125,-5.616469970373666 L5.37093609127831,-5.833463905630242 L5.198037276245941,-6.045515641347222 L5.019040174314374,-6.252445524061833 L4.8340964345567965,-6.454078239623231 L4.643362744128604,-6.650242961721329 L4.447000695519657,-6.840773496613454 L4.245176649650659,-7.0255084239262136 L4.038061594929647,-7.204291233413295 L3.8258310023880098,-7.37697045755334 L3.608664677018753,-7.543399799875527 L3.3867466054429665,-7.703438258904181 L3.16026480003356,-7.856950247617368 L2.92941113962831,-8.003805708318284 L2.6943812069671793,-8.143880222822126 L2.455374122991655,-8.27705511786507 L2.212592378146433,-8.403217565646065 L1.9662416608264395,-8.522260679416274 L1.7165306831144789,-8.634083604035151 L1.4636710039571814,-8.738591601416458 L1.2078768499290375,-8.83569613079181 L0.9493649337363772,-8.925314923723768 L0.6883542706150623,-9.007372053804914 L0.42506599277744206,-9.081798000983856 L0.1597231620657702,-9.148529710463679 L-0.10744941902918814,-9.207510646122927 L-0.37622539782425113,-9.258690838413873 L-0.6463770632132664,-9.302026926697474 L-0.9176755385874285,-9.33748219597917 L-1.1898909757430327,-9.365026608014386 L-1.462792749612376,-9.384636826757388 L-1.736149653652829,-9.396296238131942 L-2.009730095728544,-9.399994964107009 L-2.283302294318844,-9.395729871065562 L-2.5566344748870558,-9.38350457245944 L-2.8294950662434353,-9.363329425747969 L-3.101652896735806,-9.335221523622973 L-3.372877390101708,-9.299204679527575 L-3.6429387608161212,-9.255309407481091 L-3.9116082087692656,-9.203572896227092 L-4.178658113109542,-9.144038977726526 L-4.443862225087383,-9.076758090022613 L-4.706995859736653,-9.001787234508969 L-4.967836086231159,-8.919189927637158 L-5.226161916755067,-8.82903614710458 L-5.481754493727125,-8.731402272568307 L-5.734397275220159,-8.626371020935064 L-5.983876218418687,-8.514031376282215 L-6.2299799609592545,-8.394478514469087 L-6.472499999999854,-8.267813722502542 " />
			<path d="M-6.4724999999998145,8.267813722502561 L-6.2299799609592155,8.394478514469109 L-5.983876218418647,8.514031376282233 L-5.734397275220119,8.62637102093508 L-5.481754493727085,8.731402272568321 L-5.226161916755026,8.829036147104594 L-4.967836086231118,8.91918992763717 L-4.70699585973661,9.001787234508981 L-4.443862225087341,9.076758090022624 L-4.178658113109499,9.144038977726536 L-3.911608208769223,9.203572896227103 L-3.6429387608160786,9.2553094074811 L-3.3728773901016647,9.29920467952758 L-3.1016528967357626,9.335221523622979 L-2.8294950662433918,9.363329425747974 L-2.5566344748870122,9.383504572459442 L-2.2833022943188,9.395729871065564 L-2.0097300957285005,9.399994964107009 L-1.7361496536527852,9.39629623813194 L-1.4627927496123323,9.384636826757385 L-1.1898909757429892,9.365026608014382 L-0.9176755385873852,9.337482195979165 L-0.6463770632132231,9.302026926697469 L-0.3762253978242083,9.258690838413866 L-0.10744941902914529,9.20751064612292 L0.15972316206581239,9.148529710463668 L0.4250659927774847,9.081798000983845 L0.688354270615104,9.007372053804902 L0.9493649337364181,8.925314923723755 L1.2078768499290784,8.835696130791794 L1.4636710039572223,8.738591601416442 L1.7165306831145188,8.634083604035133 L1.9662416608264794,8.522260679416256 L2.2125923781464722,8.403217565646045 L2.455374122991693,8.27705511786505 L2.6943812069672166,8.143880222822105 L2.929411139628346,8.00380570831826 L3.160264800033598,7.856950247617343 L3.3867466054430047,7.703438258904154 L3.6086646770187905,7.543399799875498 L3.825831002388049,7.376970457553309 L4.038061594929685,7.2042912334132625 L4.245176649650697,7.025508423926179 L4.447000695519694,6.840773496613418 L4.643362744128641,6.6502429617212915 L4.834096434556833,6.454078239623191 L5.019040174314411,6.252445524061792 L5.198037276245977,6.04551564134718 L5.370936091278345,5.833463905630197 L5.537590136899947,5.61646997037362 L5.6978582212630435,5.394717676147009 L5.851604562803617,5.168394894874173 L5.998698905277581,4.937693370665218 L6.139016628115847,4.702808557368006 L6.272438852004784,4.463939452976684 L6.398852539602576,4.22128843103754 L6.5181505913061795,3.9750610691950623 L6.630231935987748,3.7254659750234143 L6.735001616623627,3.472714609290925 L6.8323708707433894,3.2170211068073002 L6.922257205630759,2.9586020950053467 L7.004584468212689,2.697676510410911 L7.079282909577422,2.4344654131565164 L7.146289244066814,2.1691917996958514 L7.205546702892912,1.9020804138777707 L7.25700508223335,1.6333575565398841 L7.3006207857647745,1.3632508937830363 L7.336356861598324,1.0919892640891167 L7.364183033585835,0.8198024844456081 L7.384075726970247,0.5469211556411328 L7.396018088358504,0.27357646689694887 L7.4,-8.118643546941476e-14 " />
			<path d="M7.0,2.7129319932501095 L7.0,1.5 " />
			<path d="M7.0,1.5 L7.279547402756236,1.5 " />
			<path d="M7.279547402756236,-1.5 L7.0,-1.5 " />
			<path d="M7.0,-1.5 L7.0,-2.71293199325011 " />
			<path d="M7.0,0.0 L6.996024657781234,0.2674702910456392 L6.9841021429795465,0.5347042963267763 L6.964242988056371,0.8014659388159704 L6.936464736775486,1.0675195587755024 L6.900791928704685,1.3326301219413992 L6.857256077537297,1.596563427154906 L6.805895643252697,1.8590863132579893 L6.74675599814039,2.119966865070089 L6.679889386717717,2.3789746182641673 L6.605354879576545,2.6358807629610537 L6.523218321199762,2.8904583458622444 L6.433552271793641,3.14248247074257 L6.336435943187466,3.391730497125635 L6.23195512885707,3.637982236966499 L6.120202128134068,3.8810201491678664 L6.001275664667755,4.120629531757929 L5.875280799211723,4.356598711560105 L5.742328836812191,4.588719231187105 L5.602537228480093,4.81678603319415 L5.456029467433745,5.040597641228635 L5.302934980003784,5.259956338016231 L5.143389011296733,5.474668340026187 L4.977532505718195,5.68454396866151 L4.80551198246126,5.889397817822822 L4.627479406070058,6.089048917697843 L4.443592052192866,6.28332089463183 L4.254012368643321,6.4720421269377075 L4.058907831892496,6.655045896508286 L3.8584507991186188,6.832170536096594 L3.6528183559451195,7.003259572134245 L3.442192160001529,7.168161862961655 L3.226758280445429,7.3267317323480015 L3.006707033587209,7.478829098182976 L2.7822328147628514,7.624319596226628 L2.553533926603274,7.763074698808004 L2.3208124038519156,7.894971828367688 L2.084273834885357,8.019894465743977 L1.844127180094615,8.137732253106993 L1.6005845872875764,8.248381091449833 L1.3538612042756295,8.351743232550605 L1.1041749888100747,8.447727365324118 L0.8517465160361963,8.536248696486966 L0.5967987836351134,8.617229025464693 L0.339557014825536,8.690596813474931 L0.08024845939945946,8.756287246725417 L-0.18089780703243385,8.814242293671112 L-0.4436510854083169,8.864410756279815 L-0.707779257016935,8.906748315260979 L-0.9730489885534523,8.941217569217791 L-1.2392259382482826,8.967788067687918 L-1.506074962886807,8.986436338043726 L-1.7733603255370964,8.997145906228228 L-2.040845903802128,8.99990731130841 L-2.3082953984125263,8.994718113833121 L-2.575472541975556,8.981582897988092 L-2.8421413076959507,8.960513267546238 L-3.108066117884201,8.93152783561676 L-3.3730120520680935,8.89465220820217 L-3.6367450545236615,8.84991896157769 L-3.8990321410422055,8.797367613513071 L-4.159641604750732,8.737044588362227 L-4.418343220803976,8.669003176051527 L-4.674908449767193,8.593303485002963 L-4.929110639510031,8.510012389033822 L-5.180725225433164,8.419203468279713 L-5.429529928850749,8.320956944193195 L-5.675304953353516,8.215359608675392 L-5.917833178978972,8.102504747403207 L-6.1569003540172105,7.982492057419887 L-6.392295284282887,7.855427559061717 L-6.6238100196861405,7.721423502298656 L-6.851240037937659,7.580598267571671 L-7.074384425225579,7.4330762612143335 L-7.293046053704646,7.278987805551104 L-7.507031755640786,7.118469023769364 L-7.716152494057306,6.95166171966692 L-7.920223529731931,6.778713252381191 L-8.11906458439716,6.599776406210775 L-8.312499999999787,6.415009255644351 " />
			<path d="M-8.312499999999783,-6.415009255644356 L-8.119064584397156,-6.599776406210779 L-7.920223529731926,-6.778713252381196 L-7.716152494057305,-6.951661719666921 L-7.507031755640787,-7.118469023769363 L-7.293046053704651,-7.2789878055510995 L-7.074384425225589,-7.433076261214327 L-6.851240037937671,-7.580598267571664 L-6.6238100196861565,-7.721423502298647 L-6.392295284282906,-7.855427559061705 L-6.156900354017234,-7.982492057419876 L-5.917833178978999,-8.102504747403195 L-5.675304953353548,-8.215359608675378 L-5.429529928850783,-8.320956944193183 L-5.1807252254332,-8.419203468279699 L-4.9291106395100694,-8.510012389033808 L-4.674908449767233,-8.59330348500295 L-4.418343220804019,-8.669003176051515 L-4.159641604750777,-8.737044588362217 L-3.8990321410422526,-8.79736761351306 L-3.6367450545237103,-8.84991896157768 L-3.373012052068145,-8.894652208202164 L-3.108066117884255,-8.931527835616755 L-2.8421413076960067,-8.960513267546233 L-2.575472541975614,-8.98158289798809 L-2.3082953984125867,-8.99471811383312 L-2.04084590380219,-8.99990731130841 L-1.7733603255371606,-8.997145906228228 L-1.5060749628868733,-8.98643633804373 L-1.2392259382483506,-8.967788067687923 L-0.9730489885535221,-8.941217569217798 L-0.7077792570170065,-8.90674831526099 L-0.44365108540839016,-8.86441075627983 L-0.18089780703250824,-8.814242293671128 L0.08024845939938352,-8.756287246725435 L0.33955701482545875,-8.69059681347495 L0.5967987836350348,-8.617229025464718 L0.8517465160361164,-8.536248696486991 L1.1041749888099939,-8.447727365324148 L1.3538612042755482,-8.351743232550637 L1.6005845872874933,-8.24838109144987 L1.8441271800945316,-8.137732253107032 L2.0842738348852725,-8.01989446574402 L2.3208124038518303,-7.894971828367734 L2.5535339266031887,-7.763074698808053 L2.782232814762766,-7.624319596226682 L3.006707033587123,-7.4788290981830325 L3.2267582804453436,-7.326731732348062 L3.4421921600014436,-7.168161862961719 L3.6528183559450342,-7.003259572134313 L3.8584507991185344,-6.832170536096667 L4.0589078318924114,-6.655045896508362 L4.254012368643238,-6.4720421269377875 L4.443592052192784,-6.283320894631914 L4.627479406069978,-6.08904891769793 L4.805511982461181,-5.889397817822912 L4.977532505718119,-5.684543968661606 L5.143389011296657,-5.4746683400262866 L5.302934980003711,-5.259956338016334 L5.456029467433673,-5.040597641228741 L5.602537228480022,-4.81678603319426 L5.742328836812123,-4.58871923118722 L5.875280799211658,-4.356598711560223 L6.001275664667693,-4.120629531758052 L6.120202128134007,-3.881020149167992 L6.231955128857013,-3.637982236966628 L6.336435943187411,-3.3917304971257676 L6.433552271793589,-3.142482470742707 L6.523218321199716,-2.8904583458623843 L6.605354879576501,-2.6358807629611967 L6.679889386717676,-2.378974618264313 L6.746755998140355,-2.1199668650702383 L6.805895643252665,-1.8590863132581417 L6.857256077537269,-1.5965634271550613 L6.90079192870466,-1.3326301219415568 L6.936464736775466,-1.067519558775663 L6.964242988056357,-0.8014659388161334 L6.984102142979536,-0.5347042963269417 L6.996024657781229,-0.26747029104580705 L7.0,-1.700700855617889e-13 " />
			<path d="M12.5,0.0 L12.496020596153343,0.3153874767828055 L12.484084918318173,0.6305741449034835 L12.46420056599565,0.9453593235557087 L12.436380199644677,1.2595425875633532 L12.400641532620915,1.5729238949921212 L12.357007319898607,1.8853037145171725 L12.305505343582384,2.1964831524656376 L12.246168395218273,2.506264079453137 L12.179034254915168,2.814449256533674 L12.10414566729005,3.120842460782585 L12.021550314252309,3.4252486102325763 L11.93130078464444,3.7274738880833174 L11.833454540758487,4.027325866105491 L11.72807388174954,4.324613627160733 L11.615225903969566,4.61914788675946 L11.494982458246868,4.9107411135791725 L11.367420104138315,5.199207648866515 L11.232620061183528,5.484363824647063 L11.090668157192022,5.76602808066757 L10.94165477359624,6.044021079996216 L10.785674787905286,6.31816582320726 L10.622827513295968,6.588287761077395 L10.453216635379645,6.854214905722042 L10.276950146185124,7.115777940100826 L10.094140275399623,7.372810325822525 L9.904903418911623,7.625148409180824 L9.709360064701066,7.872631525353392 L9.507634716124105,8.115102100697914 L9.299855812641233,8.352405753079951 L9.086155648039293,8.584391390168769 L8.866670286199414,8.810911305638504 L8.641539474464505,9.031821273213488 L8.410906554661482,9.246980638497766 L8.17491837183486,9.456252408530395 L7.933725180749844,9.65950333900951 L7.687480550224413,9.856604019129577 L7.4363412653513565,10.047428953977859 L7.180467227672479,10.231856644437583 L6.920021353368548,10.409769664547017 L6.655169469529812,10.581054736265108 L6.386080208573124,10.745602801596132 L6.112924900872909,10.903309092027426 L5.835877465674317,11.054073195235986 L5.555114300358042,11.19779911902145 L5.270814168127295,11.334395352424785 L4.983158084188442,11.463774923993727 L4.692329200497795,11.585855457157908 L4.398512689147911,11.700559222678411 L4.101895624467665,11.807813188138311 L3.8026668639111647,11.907549064442776 L3.501016927811336,11.999703349299034 L3.1971378780747495,12.084217367648584 L2.8912231958949146,12.161037309025872 L2.5834676585619145,12.23011426181966 L2.274067215446803,12.291404244415283 L1.9632188632397396,12.344868233197943 L1.6511205205212833,12.390472187399217 L1.3379709017467223,12.428187070770983 L1.023969390723661,12.457988870072931 L0.7093159136634317,12.479858610361891 L0.39421081188714985,12.493782367073281 L0.07885471426747323,12.499751274886945 L-0.2365515905127286,12.497761533371722 L-0.5518072818034554,12.487814409405223 L-0.8667116348510109,12.469916236367183 L-1.1810641486003792,12.444078410106988 L-1.4946646733551738,12.41031738168787 L-1.8073135382138708,12.368654646912447 L-2.1188116782011943,12.31911673263624 L-2.4289607610137067,12.261735179877917 L-2.737563313298898,12.196546523736954 L-3.044422846387384,12.123592270131594 L-3.3493439813981487,12.042918869371826 L-3.6521325736371777,11.95457768658426 L-3.952595836210281,11.85862496900771 L-4.250542462771403,11.755121810180327 L-4.545782749328247,11.64413411104105 L-4.838128715027694,11.525732537970178 L-5.12739422184407,11.399992477795767 L-5.413395093094091,11.266993989794475 L-5.695949230703003,11.126821754717465 L-5.9748767311472735,10.979565020873771 L-6.2499999999999885,10.82531754730549 L-6.521143865006046,10.664177544090965 L-6.788135687615145,10.49624760981398 L-7.050805472901535,10.321634666238761 L-7.3089859778005835,10.140449890232407 L-7.562512817593199,9.95280864297805 L-7.811224570570338,9.75883039652387 L-8.054962880810963,9.558638657714683 L-8.293572559007977,9.352360889554568 L-8.526901681277975,9.140128430050577 L-8.754801685891888,8.922076408589232 L-8.977127467864914,8.698343659899008 L-9.193737471345534,8.469072635653625 L-9.404493779744774,8.234409313772414 L-9.609262203548338,7.994503105475495 L-9.807912365755692,7.749506760152972 L-10.00031778489169,7.499576268108682 L-10.186355955537934,7.244870761240454 L-10.365908426332519,6.9855524117201 L-10.538860875388568,6.721786328737631 L-10.705103183083516,6.453740453375484 L-10.864529502172763,6.18158545167966 L-11.017038325183124,5.9054946059958615 L-11.162532549043085,5.625643704639822 L-11.300919536908795,5.342210929972076 L-11.432111177146355,5.05537674494843 L-11.556023939432917,4.765323778218361 L-11.67257892794082,4.472236707844515 L-11.781701931570923,4.176302143717333 L-11.883323471203163,3.8777085087396697 L-11.977378843934224,3.5766459188570647 L-12.063808164274178,3.2733060620100387 L-12.142556402275858,2.967882076085502 L-12.213573418572663,2.6605684259449656 L-12.276813996302543,2.35156077960787 L-12.332237869897773,2.041055883668851 L-12.379809750722227,1.729251438028279 L-12.419499349539818,1.4163459700158145 L-12.451281395799793,1.1025387079871458 L-12.475135653726609,0.7880294544743729 L-12.491046935204146,0.47301845897081374 L-12.499005109446049,0.15770629043122783 L-12.499005109446047,-0.15770629043136353 L-12.49104693520414,-0.4730184589709493 L-12.4751356537266,-0.7880294544745082 L-12.45128139579978,-1.1025387079872808 L-12.419499349539803,-1.4163459700159493 L-12.379809750722208,-1.7292514380284132 L-12.332237869897751,-2.041055883668985 L-12.276813996302518,-2.351560779608003 L-12.213573418572635,-2.6605684259450983 L-12.142556402275826,-2.9678820760856337 L-12.063808164274144,-3.27330606201017 L-11.977378843934185,-3.5766459188571944 L-11.88332347120312,-3.877708508739799 L-11.781701931570877,-4.176302143717462 L-11.672578927940771,-4.472236707844642 L-11.556023939432865,-4.765323778218486 L-11.4321111771463,-5.055376744948554 L-11.300919536908737,-5.3422109299721985 L-11.162532549043025,-5.625643704639942 L-11.01703832518306,-5.905494605995981 L-10.864529502172697,-6.181585451679778 L-10.705103183083445,-6.4537404533756 L-10.538860875388496,-6.721786328737744 L-10.365908426332442,-6.985552411720213 L-10.186355955537856,-7.244870761240565 L-10.00031778489161,-7.4995762681087905 L-9.807912365755607,-7.749506760153077 L-9.609262203548251,-7.994503105475599 L-9.404493779744683,-8.234409313772515 L-9.193737471345443,-8.469072635653724 L-8.97712746786482,-8.698343659899106 L-8.754801685891792,-8.922076408589326 L-8.526901681277877,-9.14012843005067 L-8.293572559007876,-9.352360889554658 L-8.054962880810864,-9.558638657714766 L-7.811224570570241,-9.758830396523948 L-7.562512817593103,-9.952808642978123 L-7.308985977800492,-10.140449890232475 L-7.050805472901446,-10.321634666238824 L-6.788135687615059,-10.496247609814036 L-6.521143865005964,-10.664177544091014 L-6.249999999999909,-10.825317547305534 L-5.974876731147198,-10.979565020873814 L-5.695949230702932,-11.126821754717502 L-5.413395093094024,-11.266993989794507 L-5.127394221844007,-11.399992477795793 L-4.838128715027634,-11.525732537970203 L-4.545782749328189,-11.644134111041073 L-4.250542462771346,-11.755121810180349 L-3.9525958362102265,-11.85862496900773 L-3.652132573637125,-11.954577686584276 L-3.3493439813980985,-12.04291886937184 L-3.044422846387336,-12.123592270131606 L-2.7375633132988524,-12.196546523736963 L-2.428960761013663,-12.261735179877926 L-2.118811678201154,-12.319116732636248 L-1.8073135382138326,-12.368654646912452 L-1.4946646733551383,-12.410317381687875 L-1.1810641486003466,-12.444078410106991 L-0.8667116348509807,-12.469916236367185 L-0.551807281803428,-12.487814409405223 L-0.2365515905127039,-12.497761533371722 L0.07885471426749516,-12.499751274886945 L0.3942108118871689,-12.493782367073281 L0.7093159136634479,-12.47985861036189 L1.0239693907236747,-12.45798887007293 L1.337970901746733,-12.428187070770983 L1.6511205205212913,-12.390472187399215 L1.963218863239745,-12.344868233197941 L2.274067215446806,-12.291404244415283 L2.583467658561914,-12.23011426181966 L2.891223195894912,-12.161037309025872 L3.1971378780747433,-12.084217367648586 L3.5010169278113277,-11.999703349299038 L3.8026668639111536,-11.90754906444278 L4.101895624467651,-11.807813188138317 L4.398512689147895,-11.700559222678416 L4.6923292004977775,-11.585855457157917 L4.983158084188421,-11.463774923993736 L5.270814168127272,-11.334395352424796 L5.555114300358017,-11.197799119021463 L5.83587746567429,-11.054073195236 L6.11292490087288,-10.903309092027442 L6.386080208573093,-10.745602801596151 L6.6551694695297785,-10.581054736265129 L6.920021353368513,-10.409769664547042 L7.180467227672442,-10.23185664443761 L7.436341265351317,-10.047428953977887 L7.687480550224371,-9.85660401912961 L7.933725180749798,-9.659503339009547 L8.174918371834814,-9.456252408530434 L8.410906554661432,-9.24698063849781 L8.641539474464453,-9.03182127321354 L8.86667028619936,-8.810911305638559 L9.086155648039238,-8.584391390168825 L9.299855812641177,-8.352405753080014 L9.507634716124048,-8.115102100697982 L9.70936006470101,-7.872631525353464 L9.904903418911564,-7.6251484091809 L10.094140275399562,-7.372810325822606 L10.276950146185063,-7.115777940100912 L10.453216635379588,-6.854214905722132 L10.622827513295908,-6.588287761077491 L10.785674787905226,-6.318165823207361 L10.94165477359618,-6.044021079996321 L11.090668157191963,-5.766028080667681 L11.232620061183471,-5.484363824647179 L11.36742010413826,-5.199207648866635 L11.494982458246813,-4.910741113579297 L11.615225903969515,-4.61914788675959 L11.728073881749488,-4.324613627160867 L11.83345454075844,-4.027325866105629 L11.931300784644396,-3.72747388808346 L12.021550314252268,-3.4252486102327238 L12.104145667290013,-3.1208424607827365 L12.179034254915132,-2.8144492565338304 L12.246168395218241,-2.506264079453297 L12.305505343582356,-2.1964831524658024 L12.357007319898582,-1.885303714517341 L12.400641532620895,-1.572923894992294 L12.43638019964466,-1.2595425875635298 L12.464200565995636,-0.9453593235558894 L12.484084918318162,-0.630574144903668 L12.49602059615334,-0.31538747678299367 L12.5,-1.91799531184145e-13 " />
			<path d="M10.500000000000059,4.2632564145606015e-16 L10.496013223762048,0.2893205948657014 L10.484055922549878,0.5784214837365875 L10.464137176570093,0.8670831274594899 L10.436272111838528,1.155086320437833 L10.400481888693843,1.442212357093286 L10.356793685728643,1.7282431979477064 L10.305240679150446,2.012961635199254 L10.245862017588133,2.296151457666946 L10.178702792363028,2.5775976149783917 L10.103814003247187,2.8570863808760176 L10.021252519734887,3.134405515517793 L9.931081037856723,3.409344426649177 L9.833368032569133,3.6816943295239213 L9.728187705755477,3.9512484054522723 L9.61561992987816,4.217801958856179 L9.495750187324623,4.481152572712238 L9.368669505493196,4.741100262264339 L9.234474387668193,4.997447626889272 L9.093266739736665,5.249999999999999 L8.945153792802493,5.498565596872718 L8.790248021756609,5.742955660285482 L8.628667059865133,5.982984603857795 L8.46053360944033,6.21847015298229 L8.285975348662191,6.449233483241512 L8.105124834621428,6.675099356204664 L7.91811940265747,6.895896252501211 L7.725101062067942,7.111456502070282 L7.526216388268798,7.321616411486952 L7.321616411487011,7.526216388268738 L7.111456502070341,7.725101062067882 L6.895896252501271,7.91811940265741 L6.675099356204724,8.10512483462137 L6.449233483241572,8.285975348662133 L6.218470152982349,8.46053360944027 L5.9829846038578545,8.628667059865075 L5.742955660285542,8.79024802175655 L5.498565596872778,8.945153792802435 L5.25000000000006,9.093266739736606 L4.997447626889333,9.234474387668135 L4.741100262264398,9.368669505493136 L4.481152572712299,9.495750187324562 L4.217801958856239,9.615619929878102 L3.9512484054523327,9.728187705755419 L3.6816943295239812,9.833368032569075 L3.4093444266492368,9.931081037856664 L3.1344055155178534,10.021252519734828 L2.857086380876078,10.103814003247129 L2.5775976149784516,10.17870279236297 L2.296151457667006,10.245862017588074 L2.012961635199314,10.305240679150387 L1.7282431979477662,10.356793685728585 L1.442212357093346,10.400481888693784 L1.155086320437893,10.43627211183847 L0.8670831274595495,10.464137176570034 L0.5784214837366473,10.48405592254982 L0.289320594865761,10.49601322376199 L6.004431227909675e-14,10.5 L-0.28932059486564093,10.49601322376199 L-0.5784214837365271,10.48405592254982 L-0.8670831274594294,10.464137176570034 L-1.1550863204377726,10.43627211183847 L-1.442212357093226,10.400481888693784 L-1.7282431979476458,10.356793685728585 L-2.0129616351991935,10.305240679150387 L-2.296151457666886,10.245862017588074 L-2.5775976149783313,10.17870279236297 L-2.8570863808759577,10.103814003247129 L-3.134405515517733,10.021252519734828 L-3.409344426649117,9.931081037856664 L-3.6816943295238613,9.833368032569075 L-3.9512484054522123,9.728187705755419 L-4.2178019588561195,9.615619929878102 L-4.481152572712179,9.495750187324564 L-4.741100262264276,9.368669505493138 L-4.997447626889208,9.234474387668138 L-5.249999999999934,9.09326673973661 L-5.49856559687265,8.945153792802438 L-5.742955660285412,8.790248021756558 L-5.982984603857724,8.628667059865082 L-6.218470152982218,8.46053360944028 L-6.4492334832414375,8.285975348662145 L-6.675099356204588,8.105124834621382 L-6.895896252501134,7.9181194026574255 L-7.111456502070204,7.725101062067899 L-7.321616411486873,7.526216388268757 L-7.526216388268657,7.321616411486974 L-7.725101062067801,7.111456502070305 L-7.918119402657329,6.895896252501237 L-8.105124834621288,6.675099356204692 L-8.28597534866205,6.449233483241543 L-8.460533609440187,6.218470152982324 L-8.62866705986499,5.982984603857831 L-8.790248021756467,5.742955660285521 L-8.94515379280235,5.498565596872759 L-9.093266739736523,5.250000000000044 L-9.234474387668051,4.997447626889319 L-9.368669505493052,4.741100262264388 L-9.49575018732448,4.481152572712291 L-9.61561992987802,4.217801958856234 L-9.728187705755337,3.9512484054523305 L-9.833368032568995,3.6816943295239817 L-9.931081037856584,3.4093444266492403 L-10.02125251973475,3.134405515517859 L-10.10381400324705,2.8570863808760865 L-10.178702792362893,2.5775976149784627 L-10.245862017588,2.296151457667021 L-10.305240679150314,2.0129616351993307 L-10.356793685728514,1.728243197947786 L-10.400481888693715,1.4422123570933687 L-10.436272111838402,1.1550863204379178 L-10.464137176569968,0.8670831274595772 L-10.484055922549757,0.5784214837366775 L-10.49601322376193,0.2893205948657936 L-10.499999999999941,9.497093884907393e-14 L-10.496013223761933,-0.28932059486560374 L-10.484055922549768,-0.5784214837364877 L-10.464137176569983,-0.8670831274593879 L-10.436272111838422,-1.155086320437729 L-10.40048188869374,-1.4422123570931804 L-10.356793685728544,-1.7282431979475985 L-10.30524067915035,-2.0129616351991446 L-10.24586201758804,-2.296151457666835 L-10.17870279236294,-2.577597614978279 L-10.103814003247102,-2.857086380875904 L-10.021252519734805,-3.134405515517678 L-9.931081037856645,-3.4093444266490605 L-9.83336803256906,-3.6816943295238036 L-9.728187705755408,-3.951248405452154 L-9.615619929878097,-4.217801958856061 L-9.495750187324562,-4.481152572712119 L-9.36866950549314,-4.741100262264219 L-9.234474387668142,-4.997447626889152 L-9.093266739736617,-5.24999999999988 L-8.945153792802449,-5.498565596872598 L-8.79024802175657,-5.742955660285363 L-8.628667059865098,-5.982984603857676 L-8.460533609440299,-6.218470152982171 L-8.285975348662166,-6.449233483241394 L-8.105124834621407,-6.675099356204546 L-7.918119402657452,-6.895896252501095 L-7.725101062067928,-7.111456502070166 L-7.52621638826879,-7.321616411486837 L-7.321616411487008,-7.526216388268626 L-7.111456502070342,-7.725101062067771 L-6.895896252501277,-7.918119402657302 L-6.6750993562047345,-8.105124834621263 L-6.449233483241587,-8.285975348662028 L-6.218470152982371,-8.460533609440168 L-5.982984603857879,-8.628667059864974 L-5.742955660285571,-8.790248021756453 L-5.498565596872811,-8.94515379280234 L-5.250000000000098,-9.093266739736514 L-4.997447626889375,-9.234474387668048 L-4.741100262264445,-9.368669505493054 L-4.481152572712349,-9.495750187324482 L-4.2178019588562945,-9.615619929878028 L-3.951248405452392,-9.728187705755346 L-3.6816943295240447,-9.833368032569005 L-3.4093444266493043,-9.9310810378566 L-3.134405515517925,-10.021252519734768 L-2.857086380876153,-10.103814003247075 L-2.5775976149785302,-10.17870279236292 L-2.2961514576670887,-10.245862017588028 L-2.0129616351993995,-10.305240679150348 L-1.7282431979478554,-10.356793685728551 L-1.4422123570934386,-10.400481888693754 L-1.1550863204379884,-10.436272111838447 L-0.8670831274596481,-10.464137176570016 L-0.5784214837367486,-10.484055922549809 L-0.2893205948658649,-10.496013223761985 L-1.6634840776354426e-13,-10.5 L0.2893205948655324,-10.496013223761995 L0.5784214837364166,-10.484055922549832 L0.8670831274593169,-10.464137176570054 L1.1550863204376585,-10.436272111838495 L1.4422123570931102,-10.400481888693816 L1.728243197947529,-10.356793685728624 L2.012961635199076,-10.305240679150435 L2.296151457666767,-10.245862017588127 L2.577597614978212,-10.17870279236303 L2.8570863808758378,-10.103814003247196 L3.1344055155176123,-10.021252519734903 L3.409344426648996,-9.931081037856746 L3.6816943295237414,-9.833368032569165 L3.951248405452093,-9.728187705755515 L4.2178019588560005,-9.615619929878207 L4.481152572712061,-9.495750187324676 L4.741100262264161,-9.368669505493257 L4.997447626889097,-9.234474387668262 L5.249999999999827,-9.093266739736741 L5.498565596872545,-8.945153792802577 L5.742955660285313,-8.7902480217567 L5.982984603857627,-8.628667059865231 L6.218470152982126,-8.460533609440436 L6.4492334832413505,-8.285975348662305 L6.6750993562045045,-8.10512483462155 L6.895896252501056,-7.918119402657599 L7.111456502070129,-7.725101062068077 L7.321616411486803,-7.52621638826894 L7.526216388268593,-7.321616411487161 L7.725101062067742,-7.1114565020704985 L7.918119402657275,-6.895896252501435 L8.105124834621238,-6.675099356204895 L8.285975348662006,-6.44923348324175 L8.46053360944015,-6.218470152982535 L8.628667059864958,-5.982984603858047 L8.790248021756438,-5.74295566028574 L8.94515379280233,-5.498565596872982 L9.093266739736508,-5.250000000000272 L9.234474387668044,-4.99744762688955 L9.368669505493052,-4.741100262264622 L9.495750187324486,-4.481152572712528 L9.615619929878031,-4.217801958856475 L9.728187705755355,-3.951248405452573 L9.83336803256902,-3.681694329524227 L9.931081037856616,-3.4093444266494877 L10.021252519734787,-3.1344055155181088 L10.103814003247097,-2.8570863808763387 L10.178702792362946,-2.5775976149787163 L10.24586201758806,-2.296151457667276 L10.305240679150382,-2.0129616351995874 L10.356793685728586,-1.7282431979480437 L10.400481888693797,-1.4422123570936276 L10.43627211183849,-1.1550863204381778 L10.464137176570063,-0.8670831274598378 L10.48405592254986,-0.5784214837369385 L10.49601322376204,-0.28932059486605505 L10.500000000000059,-3.5652862209710335e-13 " />

       </g>
    </g>
    
</svg>
