<?xml version="1.0" encoding="UTF-8" standalone="no"?>
<svg
   xmlns:svg="http://www.w3.org/2000/svg"
   xmlns="http://www.w3.org/2000/svg"
   width="800.0"
   height="800.0"

>
    <g transform="scale(17.291066232590584, -17.291066232590584)   translate(35.31333344,-19.31333334)" stroke-width="0.057833333500000014"  fill="none">
       <!-- hidden lines -->
       <g  stroke="rgb(180,180,180)" fill="none" stroke-dasharray="0.057833333500000014,0.057833333500000014" >

       </g>

       <!-- solid lines -->
       <g  stroke="rgb(40,40,40)" fill="none">
			<path d="M0.0,-16.0 L0.0,-15.598846594909178 L0.0,-14.415501886438706 L0.0,-12.509303719488479 L0.0,-9.97583682973974 L0.0,-6.942139825880933 L0.0,-3.5603349433010334 L0.0,-2.9391523179536475e-15 L0.0,3.5603349433010276 L0.0,6.942139825880927 L0.0,9.975836829739734 L0.0,12.509303719488475 L0.0,14.415501886438705 L0.0,15.598846594909176 L0.0,15.999999999999984 " />
			<path d="M0.0,16.0 L-2.3,16.0 " />
			<path d="M-4.8,16.0 L-5.0,16.0 " />
			<path d="M-5.0,-9.327379053088904 L-5.0,-7.184971993643293 L-5.0,-4.866601183737336 L-5.0,-2.429044746240511 L-5.0,0.0680002771495684 L-5.0,2.5633799379174738 L-5.0,4.995981073156005 L-5.0,7.3062279991312025 L-5.0,9.437541551172174 L-5.0,11.337724737229976 L-5.0,12.960241069719652 L-5.0,14.265354268624995 L-5.0,15.22110142393635 L-5.0,15.804075784160577 L-5.0,15.99999999999999 " />
			<path d="M-5.0,-9.327379053088816 L-2.1,-9.327379053088816 " />
			<path d="M-2.1000000000000005,-9.327379053088816 L-2.1000000000000005,-10.185993386245451 L-2.1000000000000005,-10.99787836259794 L-2.1000000000000005,-11.75930937117263 L-2.1000000000000005,-12.466793264081812 L-2.1000000000000005,-13.11708438172103 L-2.1000000000000005,-13.707199442586909 L-2.1000000000000005,-14.234431229406761 L-2.1000000000000005,-14.696361008793417 L-2.1000000000000005,-15.090869627448726 L-2.1000000000000005,-15.416147234010683 L-2.1000000000000005,-15.670701581944163 L-2.1000000000000005,-15.853364875384829 L-2.1000000000000005,-15.963299126530162 L-2.1000000000000005,-15.999999999999998 " />
			<path d="M-5.0,-14.1 L-5.0,-14.074144766575145 L-5.0,-13.99667388801625 L-5.0,-13.867871481720298 L-5.0,-13.688209918790909 L-5.0,-13.458348091660277 L-5.0,-13.179128997661158 L-5.0,-12.851576647410862 L-5.0,-12.476892309345503 L-5.0,-12.056450104177319 L-5.0,-11.591791965432028 L-5.0,-11.084621984547926 L-5.0,-10.536800161275632 L-5.0,-9.950335582298258 L-5.0,-9.327379053088864 " />
			<path d="M-5.0,14.1 L-13.0,14.1 " />
			<path d="M-13.0,-14.1 L-13.0,-13.746483561763712 L-13.0,-12.70366103742411 L-13.0,-11.023823902799222 L-13.0,-8.791206206208145 L-13.0,-6.117760721557572 L-13.0,-3.1375451687840354 L-13.0,-2.5901279801966517e-15 L-13.0,3.1375451687840306 L-13.0,6.117760721557567 L-13.0,8.791206206208141 L-13.0,11.023823902799219 L-13.0,12.703661037424109 L-13.0,13.74648356176371 L-13.0,14.099999999999985 " />
			<path d="M-4.8,-10.0 L-4.8,-9.996532887253187 L-4.8,-9.986133734625621 L-4.8,-9.968809097578145 L-4.8,-9.94456989728711 L-4.8,-9.913431413759845 L-4.8,-9.875413276202378 L-4.8,-9.830539450645498 L-4.8,-9.778838224836944 L-4.8,-9.720342190409271 L-4.8,-9.655088222334587 L-4.8,-9.583117455679162 L-4.8,-9.504475259672537 L-4.8,-9.419211209107479 L-4.8,-9.327379053088832 " />
			<path d="M-2.3,-10.0 L-2.3,-9.996532887253187 L-2.3,-9.986133734625621 L-2.3,-9.968809097578145 L-2.3,-9.94456989728711 L-2.3,-9.913431413759845 L-2.3,-9.875413276202378 L-2.3,-9.830539450645498 L-2.3,-9.778838224836944 L-2.3,-9.720342190409271 L-2.3,-9.655088222334587 L-2.3,-9.583117455679162 L-2.3,-9.504475259672537 L-2.3,-9.419211209107479 L-2.3,-9.327379053088832 " />
			<path d="M-2.3,-10.0 L-4.8,-10.0 " />
			<path d="M-2.3,-10.0 L-2.1000000000000005,-10.0 " />
			<path d="M0.0,-10.0 L1.7000000000000002,-10.0 " />
			<path d="M-4.8,-16.0 L-4.8,-10.0 " />
			<path d="M-4.8,-16.0 L1.7000000000000002,-16.0 " />
			<path d="M1.7000000000000002,-16.0 L1.7000000000000002,-10.0 " />
			<path d="M-2.3,17.0 L-4.8,17.0 " />
			<path d="M-2.3,14.0 L-2.3,17.0 " />
			<path d="M-4.8,14.0 L-4.8,17.0 " />
			<path d="M-13.0,12.5 L-33.0,12.5 " />
			<path d="M-33.0,-12.5 L-33.0,-12.186598902272795 L-33.0,-11.262110848780239 L-33.0,-9.772893530850373 L-33.0,-7.793622523234172 L-33.0,-5.4235467389694785 L-33.0,-2.7815116744539323 L-33.0,-2.296212748401287e-15 L-33.0,2.781511674453928 L-33.0,5.423546738969474 L-33.0,7.793622523234167 L-33.0,9.772893530850371 L-33.0,11.262110848780239 L-33.0,12.186598902272793 L-33.0,12.499999999999988 " />
			<path d="M-13.0,-14.1 L-5.0,-14.1 " />
			<path d="M-33.0,-12.5 L-13.0,-12.5 " />

       </g>
    </g>
    
</svg>
