<?xml version="1.0" encoding="UTF-8" standalone="no"?>
<svg
   xmlns:svg="http://www.w3.org/2000/svg"
   xmlns="http://www.w3.org/2000/svg"
   width="800.0"
   height="800.0"

>
    <g transform="scale(11.330803586685192, -11.330803586685192)   translate(28.98604387368518,-20.301574845187567)" stroke-width="0.08825499377423665"  fill="none">
       <!-- hidden lines -->
       <g  stroke="rgb(180,180,180)" fill="none" stroke-dasharray="0.08825499377423665,0.08825499377423665" >

       </g>

       <!-- solid lines -->
       <g  stroke="rgb(40,40,40)" fill="none">
			<path d="M25.455844122715714,0.0 L25.455844122715714,-5.52344770738994 " />
			<path d="M25.455844122715714,-5.52344770738994 L14.099999999999998,-9.958662646202985 " />
			<path d="M25.455844122715714,0.0 L0.0,9.942205873301893 " />
			<path d="M0.0,9.942205873301893 L0.0,4.418758165911952 " />
			<path d="M25.455844122715714,-5.52344770738994 L0.0,4.418758165911952 " />
			<path d="M-14.1,-9.958662646202985 L-25.455844122715714,-5.5234477073899395 " />
			<path d="M0.0,4.418758165911952 L-25.455844122715714,-5.52344770738994 " />
			<path d="M-9.970205614730318,-1.6294170736800315 L-10.21188386961568,-1.7261541785604084 L-10.447410867504928,-1.8251786310726055 L-10.676644735741435,-1.9264307825891844 L-10.899447392414594,-2.029849642600137 L-11.115684629535151,-2.135372915451274 L-11.325226193877095,-2.2429370378687974 L-11.52794586543733,-2.352477217247446 L-11.723721533465888,-2.4639274706791334 L-11.912435270020868,-2.5772206646985842 L-12.093973401003835,-2.692288555722027 L-12.26822657463283,-2.809061831154576 L-12.435089827311803,-2.9274701511415437 L-12.594462646856762,-3.047442190938542 L-12.746249033040547,-3.1689056838748413 L-12.89035755541978,-3.291787464884109 L-13.02670140840914,-3.416013514576311 L-13.155198463569814,-3.541509003824223 L-13.275771319080588,-3.6681983388377026 L-13.388347346361812,-3.7960052066985552 L-13.492858733824141,-3.924852621328589 L-13.589242527715697,-4.054662969863146 L-13.677440670043067,-4.18535805940219 L-13.75740003354325,-4.316859164110792 L-13.829072453685548,-4.449087072640609 L-13.892414757684069,-4.581962135843868 L-13.947388790503412,-4.715404314751017 L-13.971727159531698,-4.782312965684109 L-13.99396143784181,-4.849333228783198 L-14.01408827703322,-4.916455011043179 L-14.032104646077975,-4.983668204170529 L-14.04800783177717,-5.050962686105599 L-14.061795439169531,-5.118328322546944 L-14.073465391892103,-5.185754968477498 L-14.08301593249293,-5.2532324696923975 L-14.090445622695727,-5.320750664328164 L-14.09575334361648,-5.388299384393043 L-14.098938295931937,-5.45586845729825 L-14.1,-5.52344770738989 " />
			<path d="M14.1,-5.523447707389941 L14.09761120332111,-5.422082012665088 L14.090445622695729,-5.320750664328169 L14.078505686083457,-5.219487997129304 L14.061795439169531,-5.118328322546946 L14.040320543994003,-5.017305917161901 L14.01408827703322,-4.916455011043176 L13.983107526734303,-4.815809776149577 L13.947388790503412,-4.715404314751017 L13.906944171148842,-4.615272647873411 L13.861787372780151,-4.515448703771126 L13.811933696164711,-4.4159663064308505 L13.757400033543252,-4.316859164110794 L13.69820486290615,-4.218160857919102 L13.634368241732416,-4.119904830435358 L13.565911800193488,-4.022124374379011 L13.492858733824146,-3.924852621328596 L13.415233795663019,-3.828122530495553 L13.333063287865352,-3.731966877556441 L13.246375052790881,-3.636418243547344 L13.155198463569821,-3.54150900382423 L13.059564414150191,-3.447271317093008 L12.959505308829815,-3.3537371145129815 L12.855055051276562,-3.2609380888774115 L12.746249033040552,-3.1689056838748453 L12.633124121562215,-3.077671083434843 L12.515718647680243,-2.987265201161734 L12.394072392643734,-2.8977186698599633 L12.26822657463283,-2.809061831154578 L12.13822383479252,-2.7213247252103803 L12.004108222784241,-2.6345370805532307 L11.865925181860272,-2.5487283039969317 L11.723721533465891,-2.4639274706791343 L11.577545461374577,-2.3801633142096286 L11.427446495361592,-2.2974642169343427 L11.273475494421467,-2.2158582003183684 L11.115684629535155,-2.135372915451275 L10.954127365992582,-2.0560356336779146 L10.788858445276672,-1.977873237357891 L10.619933866514938,-1.9009122107568417 L10.447410867504926,-1.8251786310726046 L10.271347905319981,-1.750698159599311 L10.091804636501848,-1.677496033032405 L9.908841896846882,-1.6055970549175376 L9.722521680792646,-1.5350255872462188 L9.532907120411956,-1.4658055422010854 L9.340062464021425,-1.3979603740535893 L9.144053054411792,-1.3315130712168255 L8.944945306707407,-1.2664861484562335 L8.74280668586239,-1.2029016392607712 L8.537705683801,-1.140781088377155 L8.329711796210136,-1.0801455445097332 L8.118895498991627,-1.0210155531884109 L7.905328224382444,-0.9634111498070714 L7.68908233675086,-0.9073518528348625 L7.470231108076758,-0.8528566572026257 L7.248848693124427,-0.7999440278667205 L7.025010104316223,-0.7486318935524272 L6.798791186315627,-0.6989376406790431 L6.570268590328318,-0.6508781074687269 L6.339519748129957,-0.6044695782411003 L6.106622845829457,-0.5597277778955227 L5.871656797376696,-0.5166678665829245 L5.63470121782363,-0.47530443456899896 L5.395836396347773,-0.4356514972904888 L4.912703391517031,-0.3615302662446549 L4.422912539624381,-0.2944046248223975 L3.9271276203292684,-0.2343655437620038 L3.4260205366360363,-0.18149438987672983 L2.9202704043102927,-0.13586281578398474 L2.410562631520254,-0.09753266279949457 L1.8975879899504817,-0.06655587712804589 L1.3820416786468148,-0.0429744394643885 L0.8646223818611594,-0.026820308099700263 L0.3460313221730772,-0.018115375610730844 L-0.1730286898286415,-0.016871439190305537 L-0.691854208016589,-0.023090184659400492 L-1.2097421040566019,-0.03676318418247693 L-1.7259905203089398,-0.05787190768913142 L-2.23989982100743,-0.0863877479866284 L-2.7507735404273963,-0.12227205952924436 L-3.257919326757455,-0.16547621079190478 L-3.7606498803960644,-0.21594165017712363 L-4.2582838854011165,-0.2735999853659328 L-4.7501469328302965,-0.338373076005265 L-5.235572434720896,-0.4101731396061661 L-5.713902527470347,-0.4889028705093299 L-5.950203818277168,-0.5308333813797681 L-6.1844889633932345,-0.5744555717567241 L-6.416678578481445,-0.6197546608538875 L-6.6466939892465655,-0.6667152996906047 L-6.8744572580929475,-0.7153215762926788 L-7.099891210532621,-0.7655570210839233 L-7.322919461334817,-0.8174046124666532 L-7.543466440408067,-0.8708467825892185 L-7.761457418406115,-0.9258654232986441 L-7.976818532048935,-0.9824418922763227 L-8.189476809150271,-1.0405570193547042 L-8.399360193343304,-1.1001911130128592 L-8.606397568495959,-1.161323967048678 L-8.810518782807645,-1.2239348674254664 L-9.011654672579237,-1.288002599290616 L-9.209737085648252,-1.3535054541639706 L-9.404698904481291,-1.420421237293449 L-9.596474068915892,-1.4887272751754335 L-9.784997598544125,-1.5584004232373774 L-9.97020561473023,-1.6294170736799973 " />
			<path d="M-25.455844122715714,0.0 L-25.455844122715714,-5.52344770738994 " />
			<path d="M0.0,9.942205873301893 L-25.455844122715714,0.0 " />
			<path d="M-9.970205614730318,-8.99401401686662 L-10.21188386961568,-9.090751121746997 L-10.447410867504928,-9.189775574259194 L-10.676644735741435,-9.291027725775773 L-10.899447392414594,-9.394446585786724 L-11.115684629535151,-9.499969858637861 L-11.325226193877095,-9.607533981055386 L-11.52794586543733,-9.717074160434034 L-11.723721533465888,-9.828524413865722 L-11.912435270020868,-9.941817607885172 L-12.093973401003835,-10.056885498908615 L-12.26822657463283,-10.173658774341163 L-12.435089827311803,-10.292067094328132 L-12.594462646856762,-10.41203913412513 L-12.746249033040547,-10.533502627061429 L-12.89035755541978,-10.656384408070696 L-13.02670140840914,-10.780610457762899 L-13.155198463569814,-10.906105947010811 L-13.275771319080588,-11.03279528202429 L-13.388347346361812,-11.160602149885143 L-13.492858733824141,-11.289449564515177 L-13.589242527715697,-11.419259913049734 L-13.677440670043067,-11.549955002588778 L-13.75740003354325,-11.68145610729738 L-13.829072453685548,-11.813684015827198 L-13.892414757684069,-11.946559079030456 L-13.947388790503412,-12.080001257937605 L-13.971727159531698,-12.146909908870697 L-13.99396143784181,-12.213930171969787 L-14.01408827703322,-12.281051954229767 L-14.032104646077975,-12.348265147357118 L-14.04800783177717,-12.415559629292188 L-14.061795439169531,-12.482925265733531 L-14.073465391892103,-12.550351911664087 L-14.08301593249293,-12.617829412878987 L-14.090445622695727,-12.685347607514752 L-14.09575334361648,-12.75289632757963 L-14.098938295931937,-12.820465400484837 L-14.1,-12.888044650576479 " />
			<path d="M-14.1,-12.888044650576528 L-14.09840705096728,-12.970821420748372 L-14.0936285637963,-13.053579487490998 L-14.085665618187273,-13.136300151601235 L-14.074520013369492,-13.218964722327042 L-14.06019426769479,-13.301554521590694 L-14.042691618068517,-13.384050888209089 L-14.022016019218158,-13.466435182110256 L-13.99817214279977,-13.548688788545077 L-13.971165376342416,-13.630793122293296 L-13.941001822030843,-13.71272963186285 L-13.907688295326713,-13.794479803681591 L-13.87123232342862,-13.876025166280423 L-13.831642143571344,-13.957347294466937 L-13.78892670116463,-14.038427813488589 L-13.743095647771977,-14.119248403184482 L-13.694159338929863,-14.199790802124799 L-13.64212883180791,-14.28003681173699 L-13.587015882710512,-14.359968300417739 L-13.528832944420504,-14.4395672076298 L-13.467593163385438,-14.518815547982781 L-13.403310376747152,-14.597695415296954 L-13.335999109215267,-14.676188986649146 L-13.265674569785313,-14.754278526399847 L-13.192352648302263,-14.831946390200574 L-13.116049911870219,-14.909175028980616 L-13.036783601109063,-14.985946992912249 L-12.954571626258947,-15.062244935353531 L-12.869432563133461,-15.138051616767783 L-12.781385648922429,-15.213349908618854 L-12.690450777845259,-15.288122797241334 L-12.596648496655838,-15.36235338768478 L-12.500000000000002,-15.436024907531142 " />
			<path d="M12.499999999999998,-15.436024907531145 L12.596648496655837,-15.36235338768478 L12.690450777845259,-15.288122797241334 L12.78138564892243,-15.213349908618852 L12.869432563133461,-15.138051616767783 L12.954571626258947,-15.062244935353531 L13.036783601109061,-14.98594699291225 L13.116049911870215,-14.909175028980618 L13.192352648302263,-14.831946390200576 L13.265674569785313,-14.754278526399847 L13.335999109215267,-14.676188986649146 L13.403310376747152,-14.597695415296954 L13.467593163385436,-14.518815547982783 L13.528832944420502,-14.439567207629802 L13.587015882710512,-14.35996830041774 L13.64212883180791,-14.28003681173699 L13.694159338929863,-14.199790802124799 L13.743095647771975,-14.119248403184482 L13.78892670116463,-14.038427813488589 L13.831642143571345,-13.957347294466935 L13.87123232342862,-13.876025166280423 L13.907688295326713,-13.794479803681591 L13.941001822030843,-13.712729631862851 L13.971165376342416,-13.630793122293298 L13.99817214279977,-13.548688788545077 L14.022016019218158,-13.466435182110255 L14.042691618068517,-13.384050888209089 L14.06019426769479,-13.301554521590694 L14.074520013369492,-13.218964722327044 L14.085665618187273,-13.136300151601237 L14.093628563796297,-13.053579487490998 L14.09840705096728,-12.97082142074837 L14.1,-12.888044650576553 " />
			<path d="M14.1,-12.888044650576528 L14.09761120332111,-12.786678955851677 L14.090445622695729,-12.685347607514757 L14.078505686083457,-12.584084940315892 L14.061795439169531,-12.482925265733533 L14.040320543994003,-12.38190286034849 L14.01408827703322,-12.281051954229763 L13.983107526734303,-12.180406719336165 L13.947388790503412,-12.080001257937605 L13.906944171148842,-11.97986959106 L13.861787372780151,-11.880045646957715 L13.811933696164711,-11.780563249617439 L13.757400033543252,-11.681456107297382 L13.69820486290615,-11.582757801105691 L13.634368241732416,-11.484501773621947 L13.565911800193488,-11.386721317565598 L13.492858733824146,-11.289449564515184 L13.415233795663019,-11.192719473682141 L13.333063287865352,-11.096563820743029 L13.246375052790881,-11.001015186733932 L13.155198463569821,-10.906105947010818 L13.059564414150191,-10.811868260279596 L12.959505308829815,-10.71833405769957 L12.855055051276562,-10.625535032064 L12.746249033040552,-10.533502627061434 L12.633124121562215,-10.44226802662143 L12.515718647680243,-10.351862144348322 L12.394072392643734,-10.262315613046551 L12.26822657463283,-10.173658774341167 L12.13822383479252,-10.085921668396969 L12.004108222784241,-9.999134023739819 L11.865925181860272,-9.91332524718352 L11.723721533465891,-9.828524413865722 L11.577545461374577,-9.744760257396216 L11.427446495361592,-9.662061160120931 L11.273475494421467,-9.580455143504956 L11.115684629535155,-9.499969858637863 L10.954127365992582,-9.420632576864502 L10.788858445276672,-9.34247018054448 L10.619933866514938,-9.26550915394343 L10.447410867504926,-9.189775574259192 L10.271347905319981,-9.115295102785899 L10.091804636501848,-9.042092976218992 L9.908841896846882,-8.970193998104126 L9.722521680792646,-8.899622530432808 L9.532907120411956,-8.830402485387673 L9.340062464021425,-8.762557317240177 L9.144053054411792,-8.696110014403413 L8.944945306707407,-8.631083091642822 L8.74280668586239,-8.56749858244736 L8.537705683801,-8.505378031563744 L8.329711796210136,-8.44474248769632 L8.118895498991627,-8.385612496375 L7.905328224382444,-8.32800809299366 L7.68908233675086,-8.271948796021451 L7.470231108076758,-8.217453600389213 L7.248848693124427,-8.16454097105331 L7.025010104316223,-8.113228836739015 L6.798791186315627,-8.063534583865632 L6.570268590328318,-8.015475050655315 L6.339519748129957,-7.969066521427688 L6.106622845829457,-7.924324721082111 L5.871656797376696,-7.881264809769513 L5.63470121782363,-7.839901377755587 L5.395836396347773,-7.800248440477077 L4.912703391517031,-7.726127209431243 L4.422912539624381,-7.659001568008986 L3.9271276203292684,-7.598962486948592 L3.4260205366360363,-7.546091333063318 L2.9202704043102927,-7.500459758970573 L2.410562631520254,-7.462129605986083 L1.8975879899504817,-7.431152820314634 L1.3820416786468148,-7.407571382650977 L0.8646223818611594,-7.391417251286288 L0.3460313221730772,-7.382712318797319 L-0.1730286898286415,-7.381468382376894 L-0.691854208016589,-7.387687127845989 L-1.2097421040566019,-7.401360127369065 L-1.7259905203089398,-7.4224688508757195 L-2.23989982100743,-7.4509846911732165 L-2.7507735404273963,-7.486869002715832 L-3.257919326757455,-7.530073153978493 L-3.7606498803960644,-7.580538593363712 L-4.2582838854011165,-7.638196928552521 L-4.7501469328302965,-7.702970019191853 L-5.235572434720896,-7.774770082792754 L-5.713902527470347,-7.853499813695918 L-5.950203818277168,-7.895430324566356 L-6.1844889633932345,-7.939052514943312 L-6.416678578481445,-7.984351604040476 L-6.6466939892465655,-8.031312242877192 L-6.8744572580929475,-8.079918519479268 L-7.099891210532621,-8.130153964270512 L-7.322919461334817,-8.18200155565324 L-7.543466440408067,-8.235443725775806 L-7.761457418406115,-8.290462366485233 L-7.976818532048935,-8.34703883546291 L-8.189476809150271,-8.405153962541291 L-8.399360193343304,-8.464788056199447 L-8.606397568495959,-8.525920910235266 L-8.810518782807645,-8.588531810612054 L-9.011654672579237,-8.652599542477205 L-9.209737085648252,-8.71810239735056 L-9.404698904481291,-8.785018180480037 L-9.596474068915892,-8.853324218362022 L-9.784997598544125,-8.922997366423965 L-9.97020561473023,-8.994014016866586 " />
			<path d="M-8.83883476483189,-9.435889833457797 L-9.053088536893382,-9.521649678209904 L-9.26188906693704,-9.609437313415754 L-9.465110581331109,-9.699199859086479 L-9.662630667034263,-9.79088324562101 L-9.85433034533263,-9.884432246375566 L-10.040094143508112,-9.979790510930108 L-10.219810164394845,-10.076900599031747 L-10.393370153781863,-10.17570401519459 L-10.560669565621385,-10.276141243935237 L-10.721607625003449,-10.378151785622688 L-10.87608738885894,-10.481674192921046 L-11.024015804354484,-10.586646107803109 L-11.165303764943987,-10.693004299112506 L-11.299866164043086,-10.800684700651777 L-11.42762194629418,-10.909622449773469 L-11.54849415639113,-11.019751926450953 L-11.66240998543428,-11.131006792805485 L-11.769300814787805,-11.243320033065661 L-11.869102257413003,-11.356623993935212 L-11.961754196652656,-11.470850425344816 L-12.047200822443044,-11.585930521563395 L-12.125390664931844,-11.701794962644108 L-12.196276625481653,-11.818373956180103 L-12.259816005040427,-11.935597279344835 L-12.315970529861811,-12.053394321191695 L-12.36470637455981,-12.171694125187393 L-12.405994182483923,-12.290425431953512 L-12.43980908340251,-12.409516722190508 L-12.466130708483675,-12.528896259758252 L-12.484943202564702,-12.6484921348872 L-12.4962352337026,-12.768232307494154 L-12.500000000000048,-12.888044650576466 " />
			<path d="M-12.500000000000048,-12.88804465057651 L-12.497992501972748,-12.975538067830866 L-12.491970652698575,-13.063003382227215 L-12.48193638639362,-13.15041249993418 L-12.467892926061051,-13.237737345170743 L-12.449844782455896,-13.324949869224177 L-12.427797752636181,-13.412022059459282 L-12.401758918100926,-13.498925948316037 L-12.37173664251557,-13.585633622292773 L-12.33774056902555,-13.672117230911974 L-12.29978161715894,-13.75834899566585 L-12.257871979319102,-13.844301218938778 L-12.212025116868482,-13.929946292903775 L-12.162255755804825,-14.015256708390112 L-12.108579882031199,-14.100205063719265 L-12.051014736221317,-14.184764073506312 L-11.989578808281845,-14.268906577423998 L-11.924291831413443,-14.352605548926627 L-11.855174775772479,-14.435834103930967 L-11.782249841735405,-14.51856550945142 L-11.70554045276802,-14.600773192186649 L-11.625071247901845,-14.682430747054903 L-11.540868073820086,-14.763511945675333 L-11.452957976555682,-14.843990744792535 L-11.361369192804124,-14.923841294641633 L-11.266131140853847,-15.00303794725122 L-11.167274411137079,-15.081555264681475 L-11.064830756404197,-15.15936802719482 L-10.958833081524773,-15.236451241356496 L-10.849315432918518,-15.312780148062448 L-10.7363129876196,-15.388330230491928 L-10.619862041977779,-15.46307722198231 L-10.500000000000048,-15.536997113823515 " />
			<path d="M10.499999999999956,-15.536997113823514 L10.619862041977694,-15.463077221982303 L10.736312987619515,-15.38833023049192 L10.84931543291843,-15.31278014806244 L10.958833081524686,-15.236451241356491 L11.064830756404112,-15.159368027194812 L11.167274411136988,-15.08155526468147 L11.266131140853759,-15.003037947251215 L11.361369192804036,-14.923841294641628 L11.452957976555592,-14.84399074479253 L11.540868073819997,-14.763511945675328 L11.625071247901753,-14.682430747054898 L11.705540452767929,-14.600773192186644 L11.782249841735315,-14.518565509451417 L11.855174775772387,-14.435834103930963 L11.92429183141335,-14.352605548926624 L11.98957880828175,-14.268906577423994 L12.051014736221225,-14.184764073506306 L12.108579882031105,-14.10020506371926 L12.16225575580473,-14.01525670839011 L12.212025116868386,-13.929946292903772 L12.257871979319008,-13.844301218938776 L12.299781617158846,-13.758348995665848 L12.337740569025454,-13.672117230911972 L12.371736642515474,-13.585633622292772 L12.401758918100832,-13.498925948316035 L12.427797752636085,-13.412022059459279 L12.4498447824558,-13.324949869224175 L12.467892926060957,-13.237737345170743 L12.481936386393524,-13.150412499934179 L12.491970652698479,-13.063003382227215 L12.497992501972652,-12.975538067830866 L12.499999999999952,-12.888044650576534 " />
			<path d="M12.499999999999952,-12.88804465057651 L12.497882272447745,-12.798181446033203 L12.491529807354322,-12.708348690415365 L12.480944757166137,-12.618576822331265 L12.466130708483579,-12.528896259758254 L12.4470926808457,-12.439337389736052 L12.423837125029403,-12.349930558070515 L12.396371920863697,-12.260706059051365 L12.364706374559715,-12.171694125187393 L12.328851215557437,-12.082924916962567 L12.288818592890157,-11.994428512616569 L12.244622071067958,-11.906234897953205 L12.196276625481559,-11.818373956180105 L12.1437986373281,-11.730875457783215 L12.087205888060604,-11.64376905043947 L12.026517553362973,-11.557084248971076 L11.961754196652564,-11.470850425344823 L11.892937762112558,-11.385096798719784 L11.82009156725647,-11.299852425546813 L11.743240295027329,-11.215146189723145 L11.66240998543419,-11.13100679280549 L11.577628026728846,-11.047462744284903 L11.488923146125675,-10.964542351926724 L11.396325400067825,-10.882273712178879 L11.299866164042996,-10.80068470065178 L11.19957812195227,-10.719802962673056 L11.09549525503563,-10.6396559039203 L10.987652830357872,-10.56027068113504 L10.876087388858846,-10.481674192921048 L10.760836732972043,-10.403893070630092 L10.641939913815769,-10.326953669338293 L10.519437217961185,-10.250882058916043 L10.39337015378177,-10.17570401519459 L10.263781437388761,-10.101445011232263 L10.13071497815739,-10.028130208683251 L9.99421586384877,-9.955784449271926 L9.854330345332535,-9.884432246375567 L9.711105820915362,-9.814097776718333 L9.56459082028069,-9.744804872179303 L9.41483498804511,-9.67657701171738 L9.261889066936943,-9.609437313415752 L9.105804880602772,-9.543408526648648 L8.94663531604769,-9.478513024373022 L8.784434305715273,-9.414772795547785 L8.61925680921329,-9.35220943768314 L8.451158794691402,-9.290844149522561 L8.280197219877103,-9.230697723859887 L8.106430012776363,-9.171790540493962 L7.9299160520455265,-9.114142559323225 L7.7507151470410784,-9.057773313582567 L7.568888017554031,-9.00270190322475 L7.1976023927230255,-8.896526783376574 L6.816562355275537,-8.795761091573782 L6.426284302415224,-8.70054138858784 L6.027297150988984,-8.610996719095219 L5.6201416206825385,-8.527248436792078 L5.205369501220428,-8.449410039931994 L4.783542904563581,-8.377587017509622 L4.355233503117888,-8.311876706298776 L3.9210217549861057,-8.25236815893862 L3.4814961173131334,-8.199142023246779 L3.0372522487907645,-8.152270432922954 L2.5888922024026937,-8.111816909791088 L2.137023609503723,-8.077836277712642 L1.6822588563390317,-8.050374588287596 L1.225214254119469,-8.02946905844393 L0.7665092037775757,-8.015148020000057 L0.3067653565363681,-8.0074308812687 L-0.15339422857153856,-8.00632810075414 L-0.6133459290927686,-8.011841172978514 L-1.0724664043055459,-8.02396262645642 L-1.5301334399902426,-8.042676033820474 L-1.9857267916733012,-8.067956034084212 L-2.4386290252016405,-8.099768367012064 L-2.88822635350843,-8.138069919549885 L-3.3339094684362753,-8.18280878425309 L-3.7750743664904,-8.233924329633242 L-4.211123167402793,-8.291347282327685 L-4.641464924398005,-8.354999820980966 L-5.0655164250624125,-8.424795681710721 L-5.482702981731639,-8.500640275015149 L-5.8924592103250175,-8.582430813963624 L-6.29422979657152,-8.67005645349671 L-6.68747024858876,-8.763398440646792 L-7.0716476347952035,-8.862330275475784 L-7.44624130615546,-8.966717882511723 L-7.629785078453912,-9.020913675096669 L-7.810743601779874,-9.076419792451977 L-7.989055560797243,-9.133217427084201 L-8.164660536922257,-9.191287333886821 L-8.33749902879552,-9.250609836661182 L-8.507512472443215,-9.311164834783508 L-8.674643261120726,-9.372931810015729 L-8.838834764831812,-9.435889833457766 " />
			<path d="M-4.949747468305831,15.74182596606133 L-5.093203961760682,15.684504146842976 L-5.233276602064727,15.625919649685406 L-5.369892551530298,15.566102938491472 L-5.502980769946841,15.505085117914582 L-5.632472051521802,15.442897917184288 L-5.758299060867598,15.379573673607108 L-5.8803963680159725,15.31514531575115 L-5.998700482441544,15.249646346323278 L-6.113149886076833,15.183110824747715 L-6.223685065301628,15.115573349455174 L-6.330248541890026,15.047069039891689 L-6.432784902899078,14.97763351825653 L-6.531240829483483,14.907302890978674 L-6.625565124621358,14.836113729941484 L-6.715708739736654,14.764103053465366 L-6.801624800204396,14.69130830705824 L-6.883268629725445,14.617767343943921 L-6.9605977735581535,14.543518405378464 L-7.033572020594808,14.468600100764709 L-7.1021534242713775,14.393051387575449 L-7.166306322299705,14.316911551095549 L-7.225997355211866,14.240220183993625 L-7.281195483707092,14.163017165733876 L-7.331872004792166,14.0853426418388 L-7.378000566706981,14.007237003013529 L-7.419557182627421,13.928740864142705 L-7.456520243138507,13.849895043170752 L-7.488870527471279,13.77074053987657 L-7.516591213497576,13.691318514553686 L-7.539667886477543,13.611670266606914 L-7.55808854655528,13.531837213076699 L-7.5718436149987545,13.451860867102297 " />
			<path d="M-6.010407640085654,12.941552300425304 L-6.112674083975113,12.881957790561206 " />
			<path d="M5.451117773817923,7.813180613497191 L5.769814077427383,7.878799620981061 L6.081530956017812,7.949347679882692 L6.385768913693346,8.024711743818319 L6.682040438799467,8.104771049225823 L6.969870785112861,8.189397308876558 L7.248798732575961,8.278454917443124 L7.518377326357097,8.371801168793672 L7.778174593051994,8.469286484664565 " />
			<path d="M10.414213562373096,13.256274497735857 L10.412688798535507,13.32097600500704 L10.408115023668241,13.385655589051883 L10.40049378753275,13.450291334072434 L10.389827672481308,13.514861339125003 L10.376120292582033,13.579343725540989 L10.3593762923943,13.643716644340175 L10.33960134539499,13.707958283633962 L10.316802152056125,13.772046876016022 L10.290986437574485,13.835960705937897 L10.262162949254044,13.899678117067015 L10.23034145354206,13.963177519624638 L10.195532732719853,14.02643739770127 L10.157748581249361,14.089436316547031 L10.117001801776766,14.152152929834527 L10.073306200794471,14.21456598689177 L10.026676583962976,14.276654339902674 L9.977128751094172,14.338396951072701 L9.92467949079779,14.39977289975724 L9.869346574792807,14.46076138955028 L9.811148751885748,14.521341755330992 L9.7501057416179,14.581493470265814 L9.686238227583615,14.641196152763703 L9.619567850421964,14.700429573382152 L9.550117200484086,14.759173661681663 L9.477909810178765,14.817408513026345 L9.402970145998783,14.87511439532833 L9.325323600230798,14.932271755733716 L9.244996482351498,14.98886122724779 L9.076410300320482,15.100260004227374 L8.897440073096005,15.20915975521084 L8.708328346646452,15.315412895899005 L8.509331411012555,15.418875428760536 L8.300718952975227,15.519407138181847 L8.082773690567729,15.616871780491604 L7.855790989927466,15.71113726860237 L7.620078465006698,15.802075851019083 L7.375955560684643,15.889564284971826 L7.123753119845908,15.973484003438223 L6.863812935012032,16.053721275829126 L6.5964872851337075,16.130167362119813 L6.3221384581715165,16.202718660217823 L6.041138260112091,16.2712768463677 L5.753867511085198,16.335749008402388 L5.460715529264557,16.396047771660648 L5.162079603251837,16.45209141739991 L4.858364453658909,16.503803993544018 L4.549981684618008,16.551115417615826 L4.237349225963126,16.59396157171514 L3.9208907668385855,16.632284389413265 L3.60103518150248,16.666031934446416 L3.2782159481030693,16.69515847110136 L2.9528705612158106,16.719624526197844 L2.6254399389372325,16.739396942583873 L2.2963678253391473,16.754448924071315 L1.9661001890929841,16.764760071750903 L1.6350846190793147,16.77031641163748 L1.3037697178016219,16.771110413607964 L0.9726044934263363,16.767141001606415 L0.6420377512731364,16.758413555102322 L0.3125174855801547,16.744939901800205 L-0.015509727631647374,16.72673830161031 L-0.3415993357720517,16.70383342190226 L-0.6653094121529401,16.67625630407503 L-0.9862012549009884,16.64404432148872 L-1.303839981499958,16.607241128815012 L-1.6177951181568815,16.56589660287501 L-1.9276411831934344,16.52006677504465 L-2.232958263671808,16.469813755319226 L-2.5333325844736505,16.415205648140038 L-2.8283570690608837,16.356316460097137 L-3.117631891158365,16.293225999633314 L-3.4007650166107775,16.226019768885255 L-3.677372734679417,16.15478884780838 L-3.947080178058801,16.079629770742507 L-4.20952183090838,16.00064439558552 L-4.464342024210896,15.917939765752434 L-4.711195417785985,15.831627965106819 L-4.949747468305775,15.741825966061352 " />
			<path d="M7.7781745930520225,8.469286484664575 L7.932437308936296,8.531033572886093 L8.082773690567725,8.594240670234301 L8.229093180931455,8.658869703117224 L8.371307642637728,8.724881741422088 L8.509331411012553,8.792237021965368 L8.643081345698901,8.860894972444639 L8.772476880737349,8.930814235877818 L8.897440073096003,9.001952695515065 L9.01789564962046,9.074267500208332 L9.133771052375543,9.147715090223297 L9.244996482351498,9.222251223478114 L9.35150494150829,9.2978310021932 L9.453232273132732,9.374408899935965 L9.550117200484085,9.451938789044242 L9.642101363704871,9.530373968411858 L9.729129354974676,9.609667191619648 L9.811148751885746,9.689770695394914 L9.888110149020283,9.77063622838224 L9.959967187710426,9.852215080208317 L10.026676583962976,9.934458110823233 L10.088198154532055,10.01731578010061 L10.144494841123992,10.100738177678723 L10.195532732719851,10.184675053024636 L10.24128108600217,10.269075845703242 L10.281712343873567,10.353889715832981 L10.316802152056123,10.439065574709883 L10.346529373761486,10.524552115581487 L10.370876102422868,10.610297844552125 L10.389827672481308,10.696251111600903 L10.403372668219648,10.782360141693745 L10.411502930638934,10.868573065970752 L10.414213562373096,10.954837952990033 " />
			<path d="M10.414213562373096,10.954837952990049 L10.410456307664095,11.05639767159898 L10.39918768063997,11.157872593378803 L10.380417089990043,11.25917799230114 L10.354160208134338,11.360229283879956 L10.320438958137967,11.460942095795001 L10.27928149540656,11.56123233833809 L10.23072218417804,11.661016274623433 L10.174801568830363,11.760210590503362 L10.111566340029155,11.858732464131116 L10.041069295743572,11.956499635112552 L9.963369297162862,12.053430473189104 L9.878531219550478,12.149444046394594 L9.786625898076782,12.244460188629004 L9.687730068675528,12.33839956659282 L9.581926303973539,12.431183746025988 L9.469302944347072,12.522735257196269 L9.34995402416242,12.612977659582226 L9.223979193262329,12.7018356056969 L9.09148363376383,12.789234903998853 L8.952577972236881,12.87510258083806 L8.80737818733724,12.95936694138493 L8.656005512970584,13.041957629491584 L8.49858633706882,13.122805686435399 L8.33525209606305,13.201843608495778 L8.166139165141306,13.279005403316091 L7.991388744382708,13.354226645003685 L7.811146740863105,13.42744452792199 L7.625563646830603,13.498597919129814 L7.4347944140527495,13.567627409424006 L7.238998324440254,13.634475362942904 L7.03833885705527,13.699085965289147 L6.832983551615296,13.761405270131638 L6.6231038686066395,13.821381244247805 L6.408875046124257,13.878963810968498 L6.1904759535575,13.93410489198928 L5.96808894224392,13.98675844751319 L5.741899693215846,14.036880514691463 L5.512097062166841,14.084429244330115 L5.278872921767496,14.129364935831738 L5.042422001462202,14.17165007034333 L4.802941724880684,14.211249342082503 L4.560632045000032,14.248129687815872 L4.315695277194861,14.282260314465066 L4.068335930315002,14.313612724817263 L3.8187605359317622,14.34216074131881 L3.5671774758953188,14.367880527932058 L3.3137968083472327,14.390750610037145 L3.0588300923333525,14.410751892362141 L2.80249021116354,14.427867674926558 L2.5449911946657133,14.44208366698492 L2.2865480404826064,14.45338799895876 L2.0273765345604544,14.461771232347068 L1.7676930709794942,14.46722636760693 L1.5077144712767017,14.469748849997757 L1.247657803411626,14.469336573384249 L0.9877402005264767,14.465989881994906 L0.7281786796517856,14.459711570134615 L0.4691899605090153,14.450506879851554 L0.2109902845614049,14.438383496560368 L-0.04620476553586328,14.423351542625271 L-0.3021804459354327,14.405423568908422 L-0.5567230308971756,14.384614544290633 L-0.8096199912375395,14.360941843173181 L-1.060660171779743,14.334425230971132 " />
			<path d="M9.545941546018392,15.14345246442742 L9.545941546018392,14.762617020739894 " />
			<path d="M9.545941546018392,9.44849542998601 L9.545941546018392,9.159717448088319 " />
			<path d="M9.545941546018392,15.14345246442742 L9.210492356670297,15.012437170475534 " />
			<path d="M9.545941546018392,9.159717448088319 L7.778174593052017,8.469286484664574 " />
			<path d="M6.0104076400856545,7.9326740632793715 L6.0104076400856545,7.778855521240834 " />
			<path d="M7.778174593052017,8.469286484664574 L6.0104076400856545,7.778855521240834 " />
			<path d="M12.374368670764582,14.038762922949433 L12.374368670764582,8.05502790661033 " />
			<path d="M12.374368670764582,14.038762922949433 L9.545941546018392,15.14345246442742 " />
			<path d="M12.374368670764582,8.05502790661033 L9.545941546018392,9.159717448088319 " />
			<path d="M6.0104076400856545,7.778855521240834 L8.838834764831844,6.674165979762845 " />
			<path d="M8.838834764831844,6.674165979762845 L12.374368670764582,8.05502790661033 " />
			<path d="M-1.060660171779821,14.77522261726809 L-1.060660171779821,9.527947295247646 " />
			<path d="M-3.181980515339464,15.603739773376581 L-3.181980515339464,8.699430139139157 " />
			<path d="M-1.060660171779821,14.77522261726809 L-3.1819805153394634,15.603739773376581 " />
			<path d="M-6.0104076400856545,14.499050231898593 L-6.0104076400856545,7.5947405976611675 " />
			<path d="M-3.181980515339464,15.603739773376581 L-6.0104076400856545,14.499050231898593 " />
			<path d="M-8.131727983645296,13.670533075790102 L-8.131727983645296,6.766223441552677 " />
			<path d="M-6.0104076400856545,12.84201591968161 L-8.131727983645296,13.670533075790102 " />
			<path d="M-10.960155108391486,12.565843534312114 L-10.960155108391486,5.66153390007469 " />
			<path d="M-8.131727983645296,13.670533075790102 L-10.960155108391486,12.565843534312114 " />
			<path d="M-8.838834764831843,-9.435889833457814 L-9.053088536893334,-9.521649678209922 L-9.261889066936993,-9.609437313415771 L-9.46511058133106,-9.699199859086496 L-9.662630667034215,-9.790883245621028 L-9.854330345332581,-9.884432246375583 L-10.040094143508064,-9.979790510930126 L-10.219810164394797,-10.076900599031765 L-10.393370153781815,-10.175704015194608 L-10.560669565621337,-10.276141243935255 L-10.7216076250034,-10.378151785622705 L-10.876087388858892,-10.481674192921064 L-11.024015804354436,-10.586646107803126 L-11.165303764943939,-10.693004299112523 L-11.299866164043038,-10.800684700651795 L-11.427621946294131,-10.909622449773487 L-11.548494156391081,-11.01975192645097 L-11.662409985434232,-11.131006792805502 L-11.769300814787757,-11.243320033065679 L-11.869102257412955,-11.35662399393523 L-11.961754196652608,-11.470850425344834 L-12.047200822442996,-11.585930521563412 L-12.125390664931796,-11.701794962644126 L-12.196276625481605,-11.818373956180121 L-12.25981600504038,-11.935597279344853 L-12.315970529861763,-12.053394321191712 L-12.364706374559763,-12.171694125187411 L-12.405994182483875,-12.29042543195353 L-12.439809083402462,-12.409516722190526 L-12.466130708483627,-12.52889625975827 L-12.484943202564654,-12.648492134887217 L-12.496235233702553,-12.768232307494172 L-12.5,-12.888044650576484 " />
			<path d="M12.5,-12.888044650576528 L12.497882272447793,-12.79818144603322 L12.49152980735437,-12.708348690415383 L12.480944757166185,-12.618576822331283 L12.466130708483627,-12.528896259758271 L12.447092680845747,-12.43933738973607 L12.42383712502945,-12.349930558070533 L12.396371920863745,-12.260706059051383 L12.364706374559763,-12.171694125187411 L12.328851215557485,-12.082924916962584 L12.288818592890205,-11.994428512616587 L12.244622071068006,-11.906234897953222 L12.196276625481607,-11.818373956180123 L12.143798637328148,-11.730875457783233 L12.087205888060652,-11.643769050439488 L12.026517553363021,-11.557084248971094 L11.961754196652612,-11.47085042534484 L11.892937762112606,-11.385096798719802 L11.820091567256519,-11.299852425546831 L11.743240295027377,-11.215146189723162 L11.662409985434238,-11.131006792805508 L11.577628026728894,-11.047462744284921 L11.488923146125723,-10.964542351926742 L11.396325400067873,-10.882273712178897 L11.299866164043044,-10.800684700651798 L11.199578121952317,-10.719802962673073 L11.095495255035678,-10.639655903920318 L10.98765283035792,-10.560270681135059 L10.876087388858894,-10.481674192921066 L10.760836732972091,-10.40389307063011 L10.641939913815817,-10.32695366933831 L10.519437217961233,-10.25088205891606 L10.393370153781818,-10.175704015194608 L10.26378143738881,-10.101445011232281 L10.130714978157439,-10.028130208683269 L9.994215863848819,-9.955784449271944 L9.854330345332583,-9.884432246375585 L9.71110582091541,-9.81409777671835 L9.564590820280738,-9.744804872179321 L9.414834988045158,-9.676577011717399 L9.261889066936991,-9.60943731341577 L9.10580488060282,-9.543408526648665 L8.946635316047738,-9.47851302437304 L8.78443430571532,-9.414772795547803 L8.619256809213338,-9.352209437683157 L8.45115879469145,-9.290844149522579 L8.28019721987715,-9.230697723859905 L8.10643001277641,-9.17179054049398 L7.9299160520455745,-9.114142559323243 L7.750715147041126,-9.057773313582585 L7.568888017554079,-9.002701903224768 L7.1976023927230735,-8.896526783376592 L6.816562355275585,-8.7957610915738 L6.426284302415272,-8.700541388587858 L6.027297150989032,-8.610996719095237 L5.6201416206825865,-8.527248436792096 L5.205369501220476,-8.449410039932012 L4.783542904563629,-8.37758701750964 L4.355233503117936,-8.311876706298793 L3.9210217549861537,-8.252368158938637 L3.4814961173131813,-8.199142023246797 L3.0372522487908125,-8.152270432922972 L2.5888922024027416,-8.111816909791106 L2.137023609503771,-8.07783627771266 L1.6822588563390795,-8.050374588287614 L1.2252142541195168,-8.029469058443947 L0.7665092037776235,-8.015148020000074 L0.30676535653641596,-8.007430881268718 L-0.1533942285714907,-8.006328100754157 L-0.6133459290927208,-8.011841172978531 L-1.0724664043054981,-8.023962626456438 L-1.530133439990195,-8.042676033820491 L-1.9857267916732535,-8.06795603408423 L-2.4386290252015925,-8.099768367012082 L-2.888226353508382,-8.138069919549903 L-3.3339094684362274,-8.182808784253108 L-3.775074366490352,-8.23392432963326 L-4.211123167402745,-8.291347282327703 L-4.641464924397957,-8.354999820980984 L-5.0655164250623645,-8.424795681710739 L-5.482702981731591,-8.500640275015167 L-5.8924592103249696,-8.582430813963642 L-6.294229796571472,-8.670056453496727 L-6.687470248588712,-8.76339844064681 L-7.071647634795156,-8.862330275475802 L-7.446241306155412,-8.966717882511741 L-7.629785078453864,-9.020913675096686 L-7.810743601779826,-9.076419792451995 L-7.989055560797195,-9.133217427084219 L-8.16466053692221,-9.191287333886839 L-8.337499028795472,-9.2506098366612 L-8.507512472443167,-9.311164834783526 L-8.674643261120679,-9.372931810015746 L-8.838834764831764,-9.435889833457784 " />
			<path d="M-8.838834764831843,-27.84738219142428 L-9.053088536893334,-27.93314203617639 L-9.261889066936993,-28.020929671382238 L-9.46511058133106,-28.110692217052964 L-9.662630667034215,-28.202375603587495 L-9.854330345332581,-28.295924604342048 L-10.040094143508064,-28.391282868896592 L-10.219810164394797,-28.48839295699823 L-10.393370153781815,-28.587196373161074 L-10.560669565621337,-28.687633601901723 L-10.7216076250034,-28.78964414358917 L-10.876087388858892,-28.89316655088753 L-11.024015804354436,-28.998138465769593 L-11.165303764943939,-29.10449665707899 L-11.299866164043038,-29.212177058618263 L-11.427621946294131,-29.321114807739953 L-11.548494156391081,-29.431244284417435 L-11.662409985434232,-29.54249915077197 L-11.769300814787757,-29.654812391032145 L-11.869102257412955,-29.768116351901696 L-11.961754196652608,-29.8823427833113 L-12.047200822442996,-29.99742287952988 L-12.125390664931796,-30.113287320610592 L-12.196276625481605,-30.229866314146587 L-12.25981600504038,-30.347089637311317 L-12.315970529861763,-30.464886679158177 L-12.364706374559763,-30.583186483153877 L-12.405994182483875,-30.701917789919996 L-12.439809083402462,-30.82100908015699 L-12.466130708483627,-30.940388617724736 L-12.484943202564654,-31.059984492853683 L-12.496235233702553,-31.17972466546064 L-12.5,-31.29953700854295 " />
			<path d="M-12.5,-31.299537008542995 L-12.496235233702553,-31.41934935162535 L-12.484943202564654,-31.539089524232306 L-12.466130708483627,-31.658685399361254 L-12.439809083402462,-31.778064936929 L-12.405994182483875,-31.897156227165993 L-12.364706374559761,-32.015887533932116 L-12.315970529861765,-32.134187337927806 L-12.259816005040381,-32.25198437977467 L-12.196276625481607,-32.3692077029394 L-12.1253906649318,-32.485786696475394 L-12.047200822442997,-32.601651137556104 L-11.96175419665261,-32.71673123377469 L-11.869102257412958,-32.830957665184286 L-11.769300814787758,-32.94426162605384 L-11.662409985434236,-33.056574866314016 L-11.548494156391085,-33.16782973266855 L-11.427621946294133,-33.27795920934604 L-11.299866164043042,-33.38689695846772 L-11.16530376494394,-33.494577360007 L-11.024015804354438,-33.6009355513164 L-10.876087388858892,-33.70590746619846 L-10.7216076250034,-33.80942987349682 L-10.560669565621337,-33.911440415184266 L-10.393370153781815,-34.01187764392492 L-10.219810164394795,-34.11068106008776 L-10.040094143508062,-34.2077911481894 L-9.854330345332578,-34.30314941274394 L-9.662630667034211,-34.3966984134985 L-9.465110581331055,-34.488381800033025 L-9.261889066936988,-34.578144345703755 L-9.053088536893336,-34.6659319809096 L-8.838834764831843,-34.75169182566171 L-8.619256809213335,-34.835372221436366 L-8.394486935587729,-34.916922762292174 L-8.16466053692221,-34.99629432523268 L-7.929916052045568,-35.07343909979628 L-7.690394882257835,-35.1483106168554 L-7.446241306155417,-35.22086377660778 L-7.1976023927230655,-35.29105487574294 L-6.9446279127450286,-35.358841633767355 L-6.687470248588714,-35.42418321847271 L-6.4262843024152705,-35.487040270531665 L-6.161227402872301,-35.54737492720643 L-5.892459210324972,-35.60515084515588 L-5.620141620682586,-35.660333222327424 L-5.344438667878528,-35.71288881892046 L-5.065516425062373,-35.76278597740878 L-4.783542904563623,-35.80999464160988 L-4.498687956687354,-35.8544863747897 L-4.211123167402751,-35.89623437679182 L-3.9210217549861417,-35.935213500180886 L-3.628558465680779,-35.97140026539051 L-3.3339094684362305,-36.00477287486641 L-3.0372522487907996,-36.035311226196555 L-2.738765501960875,-36.06299692421998 L-2.438629025201604,-36.08781329210744 L-2.137023609503764,-36.10974538140687 L-1.834130930692022,-36.12877998104776 L-1.5301334399902036,-36.14490562529903 L-1.2252142541195097,-36.15811260067558 L-0.9195570449958459,-36.168392951789265 L-0.6133459290927266,-36.17574048614099 L-0.3067653565364033,-36.180150777850805 L-7.654042494670958e-16,-36.18162117032389 L0.3067653565364018,-36.180150777850805 L0.6133459290927251,-36.17574048614099 L0.9195570449958443,-36.168392951789265 L1.2252142541195081,-36.15811260067558 L1.530133439990202,-36.14490562529903 L1.8341309306920204,-36.12877998104776 L2.1370236095037627,-36.10974538140687 L2.4386290252016023,-36.08781329210744 L2.738765501960873,-36.06299692421998 L3.0372522487907982,-36.035311226196555 L3.3339094684362287,-36.00477287486641 L3.628558465680777,-35.97140026539051 L3.9210217549861404,-35.935213500180886 L4.211123167402749,-35.89623437679182 L4.498687956687352,-35.8544863747897 L4.783542904563622,-35.80999464160988 L5.065516425062374,-35.76278597740878 L5.344438667878528,-35.71288881892046 L5.620141620682584,-35.660333222327424 L5.892459210324971,-35.60515084515588 L6.1612274028723,-35.54737492720643 L6.4262843024152705,-35.487040270531665 L6.687470248588713,-35.42418321847271 L6.944627912745024,-35.358841633767355 L7.197602392723063,-35.29105487574294 L7.446241306155412,-35.220863776607786 L7.69039488225783,-35.1483106168554 L7.929916052045567,-35.07343909979628 L8.164660536922211,-34.99629432523268 L8.39448693558773,-34.916922762292174 L8.619256809213336,-34.835372221436366 L8.838834764831843,-34.75169182566171 L9.053088536893334,-34.6659319809096 L9.261889066936986,-34.578144345703755 L9.465110581331054,-34.48838180003303 L9.662630667034213,-34.3966984134985 L9.854330345332581,-34.30314941274394 L10.040094143508064,-34.2077911481894 L10.219810164394797,-34.11068106008776 L10.393370153781817,-34.01187764392492 L10.560669565621339,-33.911440415184266 L10.7216076250034,-33.80942987349682 L10.876087388858892,-33.70590746619846 L11.024015804354438,-33.6009355513164 L11.16530376494394,-33.494577360007 L11.299866164043038,-33.38689695846773 L11.427621946294131,-33.27795920934604 L11.548494156391085,-33.16782973266855 L11.662409985434238,-33.056574866314016 L11.76930081478776,-32.94426162605384 L11.869102257412958,-32.830957665184286 L11.96175419665261,-32.71673123377469 L12.047200822442997,-32.601651137556104 L12.1253906649318,-32.485786696475394 L12.196276625481605,-32.369207702939406 L12.259816005040381,-32.25198437977467 L12.315970529861765,-32.13418733792781 L12.364706374559761,-32.015887533932116 L12.405994182483875,-31.897156227165997 L12.43980908340246,-31.778064936929 L12.466130708483627,-31.658685399361254 L12.484943202564654,-31.539089524232306 L12.496235233702553,-31.41934935162535 L12.5,-31.299537008543016 " />
			<path d="M12.5,-31.299537008542995 L12.497882272447793,-31.209673803999685 L12.49152980735437,-31.11984104838185 L12.480944757166185,-31.03006918029775 L12.466130708483627,-30.940388617724736 L12.447092680845747,-30.850829747702534 L12.42383712502945,-30.761422916037 L12.396371920863745,-30.67219841701785 L12.364706374559763,-30.583186483153877 L12.328851215557485,-30.49441727492905 L12.288818592890205,-30.405920870583053 L12.244622071068006,-30.31772725591969 L12.196276625481607,-30.229866314146587 L12.143798637328148,-30.142367815749697 L12.087205888060652,-30.055261408405954 L12.026517553363021,-29.96857660693756 L11.961754196652612,-29.882342783311305 L11.892937762112606,-29.796589156686267 L11.820091567256519,-29.711344783513297 L11.743240295027377,-29.62663854768963 L11.662409985434238,-29.542499150771974 L11.577628026728894,-29.458955102251387 L11.488923146125723,-29.376034709893208 L11.396325400067873,-29.293766070145363 L11.299866164043044,-29.212177058618266 L11.199578121952317,-29.131295320639538 L11.095495255035678,-29.051148261886784 L10.98765283035792,-28.971763039101525 L10.876087388858894,-28.893166550887532 L10.760836732972091,-28.815385428596578 L10.641939913815817,-28.738446027304775 L10.519437217961233,-28.662374416882525 L10.393370153781818,-28.587196373161074 L10.26378143738881,-28.512937369198745 L10.130714978157439,-28.439622566649735 L9.994215863848819,-28.36727680723841 L9.854330345332583,-28.29592460434205 L9.71110582091541,-28.225590134684815 L9.564590820280738,-28.15629723014579 L9.414834988045158,-28.088069369683865 L9.261889066936991,-28.020929671382238 L9.10580488060282,-27.95490088461513 L8.946635316047738,-27.890005382339506 L8.78443430571532,-27.82626515351427 L8.619256809213338,-27.763701795649624 L8.45115879469145,-27.702336507489047 L8.28019721987715,-27.64219008182637 L8.10643001277641,-27.583282898460446 L7.9299160520455745,-27.525634917289707 L7.750715147041126,-27.46926567154905 L7.568888017554079,-27.414194261191234 L7.1976023927230735,-27.308019141343056 L6.816562355275585,-27.207253449540268 L6.426284302415272,-27.112033746554324 L6.027297150989032,-27.022489077061703 L5.6201416206825865,-26.938740794758562 L5.205369501220476,-26.860902397898478 L4.783542904563629,-26.789079375476106 L4.355233503117936,-26.72336906426526 L3.9210217549861537,-26.663860516905103 L3.4814961173131813,-26.610634381213263 L3.0372522487908125,-26.563762790889438 L2.5888922024027416,-26.523309267757572 L2.137023609503771,-26.489328635679126 L1.6822588563390795,-26.46186694625408 L1.2252142541195168,-26.440961416410413 L0.7665092037776235,-26.426640377966542 L0.30676535653641596,-26.418923239235184 L-0.1533942285714907,-26.417820458720623 L-0.6133459290927208,-26.423333530944998 L-1.0724664043054981,-26.435454984422904 L-1.530133439990195,-26.454168391786958 L-1.9857267916732535,-26.479448392050696 L-2.4386290252015925,-26.51126072497855 L-2.888226353508382,-26.54956227751637 L-3.3339094684362274,-26.594301142219575 L-3.775074366490352,-26.645416687599727 L-4.211123167402745,-26.70283964029417 L-4.641464924397957,-26.766492178947452 L-5.0655164250623645,-26.836288039677207 L-5.482702981731591,-26.91213263298163 L-5.8924592103249696,-26.993923171930106 L-6.294229796571472,-27.081548811463193 L-6.687470248588712,-27.174890798613276 L-7.071647634795156,-27.27382263344227 L-7.446241306155412,-27.378210240478207 L-7.629785078453864,-27.432406033063153 L-7.810743601779826,-27.48791215041846 L-7.989055560797195,-27.544709785050685 L-8.16466053692221,-27.602779691853307 L-8.337499028795472,-27.662102194627664 L-8.507512472443167,-27.722657192749992 L-8.674643261120679,-27.784424167982213 L-8.838834764831764,-27.847382191424252 " />
			<path d="M-7.424621202458789,-28.399726962163257 L-7.604594370990442,-28.47176523175503 L-7.779986816227117,-28.54550684532794 L-7.950692888318133,-28.62090738369135 L-8.116609760308783,-28.697921428380358 L-8.27763749007941,-28.776502589014182 L-8.433679080546815,-28.856603531239998 L-8.584640538091671,-28.938176005245374 L-8.730430929176768,-29.02117087482216 L-8.870962435121966,-29.105538146964307 L-9.006150405002899,-29.191227001981765 L-9.135913406641512,-29.278185824112384 L-9.260173275657769,-29.36636223261332 L-9.37885516255295,-29.455703113313213 L-9.491887577796195,-29.5461546506062 L-9.599202434887113,-29.637662359868422 L-9.700735091368552,-29.730171120277507 L-9.796424387764798,-29.823625208015315 L-9.886212684421757,-29.91796832983386 L-9.970045896226924,-30.013143656964285 L-10.047873525188233,-30.109093859348352 L-10.11964869085216,-30.20576114017196 L-10.185328158542752,-30.303087270679757 L-10.244872365404591,-30.401013625249995 L-10.298245444233961,-30.499481216708368 L-10.345415245083924,-30.598430731859732 L-10.386353354630243,-30.69780256721612 L-10.421035113286496,-30.79753686489966 L-10.44943963005811,-30.897573548698734 L-10.47154979512629,-30.99785236025564 L-10.487352290154353,-31.098312895363957 L-10.496837596310188,-31.198894640353796 L-10.500000000000043,-31.299537008542938 " />
			<path d="M-10.500000000000043,-31.299537008542977 L-10.496837596310188,-31.400179376732154 L-10.487352290154353,-31.500761121721997 L-10.47154979512629,-31.601221656830315 L-10.44943963005811,-31.70150046838722 L-10.421035113286496,-31.801537152186295 L-10.386353354630241,-31.901271449869835 L-10.345415245083926,-32.00064328522622 L-10.298245444233963,-32.099592800377586 L-10.244872365404593,-32.19806039183596 L-10.185328158542754,-32.29598674640619 L-10.119648690852161,-32.39331287691399 L-10.047873525188235,-32.4899801577376 L-9.970045896226928,-32.585930360121665 L-9.88621268442176,-32.681105687252085 L-9.7964243877648,-32.77544880907064 L-9.700735091368553,-32.86890289680844 L-9.599202434887113,-32.96141165721753 L-9.491887577796197,-33.05291936647975 L-9.378855162552954,-33.14337090377274 L-9.26017327565777,-33.232711784472635 L-9.135913406641512,-33.32088819297357 L-9.006150405002899,-33.40784701510419 L-8.870962435121966,-33.49353587012165 L-8.730430929176768,-33.57790314226379 L-8.584640538091671,-33.66089801184058 L-8.433679080546815,-33.742470485845956 L-8.277637490079409,-33.822571428071775 L-8.11660976030878,-33.9011525887056 L-7.950692888318129,-33.97816663339461 L-7.779986816227112,-34.05356717175802 L-7.604594370990445,-34.127308785330925 L-7.424621202458791,-34.1993470549227 L-7.240175719739244,-34.26963858737341 L-7.051369025893735,-34.33814104169228 L-6.858314851014699,-34.40481315456232 L-6.66112948371832,-34.469614765195736 L-6.459931701096624,-34.5325068395254 L-6.254842697170593,-34.593451493717396 L-6.045986009887417,-34.65241201699093 L-5.833487446705867,-34.709352893731435 L-5.617475008814563,-34.76423982488394 L-5.39807881402887,-34.81703974861346 L-5.175431018412776,-34.86772086022026 L-4.94966573667302,-34.9162526312978 L-4.720918961373414,-34.9626058281219 L-4.489328481018005,-35.006752529260055 L-4.255033797052437,-35.04866614239024 L-4.018176039833486,-35.08832142031917 L-3.778897883617419,-35.12569447619021 L-3.5373434606183527,-35.16076279787199 L-3.2936582741884015,-35.19350526151881 L-3.047989111171897,-35.22390214429488 L-2.800483953486476,-35.25193513625465 L-2.551291888984314,-35.27758735137196 L-2.3005630216471773,-35.30084333771164 L-2.04844838116939,-35.32168908673711 L-1.7950998319832043,-35.340112041748625 L-1.5406699817813407,-35.356101105446974 L-1.2853120895918133,-35.36964664661805 L-1.0291799734604306,-35.38074050593435 L-0.7724279177965528,-35.389376000869845 L-0.5152105804379327,-35.395547929725296 L-0.25768289949062106,-35.39925257476154 L-4.2947510776328003e-14,-35.40048770443893 L0.2576828994905352,-35.39925257476154 L0.5152105804378467,-35.395547929725296 L0.772427917796467,-35.389376000869845 L1.0291799734603444,-35.38074050593435 L1.2853120895917272,-35.36964664661805 L1.5406699817812548,-35.356101105446974 L1.7950998319831184,-35.340112041748625 L2.0484483811693037,-35.32168908673711 L2.300563021647091,-35.30084333771164 L2.5512918889842284,-35.27758735137196 L2.80048395348639,-35.25193513625465 L3.0479891111718107,-35.22390214429488 L3.293658274188316,-35.19350526151881 L3.537343460618267,-35.16076279787199 L3.7788978836173337,-35.12569447619021 L4.018176039833399,-35.08832142031917 L4.255033797052351,-35.04866614239024 L4.489328481017921,-35.006752529260055 L4.720918961373328,-34.9626058281219 L4.949665736672933,-34.9162526312978 L5.175431018412689,-34.86772086022026 L5.398078814028785,-34.81703974861346 L5.617475008814476,-34.76423982488394 L5.833487446705778,-34.70935289373144 L6.04598600988733,-34.65241201699093 L6.254842697170503,-34.593451493717396 L6.459931701096535,-34.5325068395254 L6.661129483718234,-34.469614765195736 L6.858314851014614,-34.40481315456232 L7.051369025893651,-34.33814104169228 L7.2401757197391605,-34.26963858737341 L7.424621202458706,-34.1993470549227 L7.604594370990359,-34.127308785330925 L7.779986816227026,-34.05356717175802 L7.950692888318043,-33.97816663339461 L8.116609760308696,-33.9011525887056 L8.277637490079325,-33.82257142807177 L8.43367908054673,-33.742470485845956 L8.584640538091588,-33.66089801184058 L8.730430929176684,-33.57790314226379 L8.870962435121882,-33.49353587012165 L9.006150405002813,-33.40784701510419 L9.135913406641427,-33.32088819297357 L9.260173275657685,-33.232711784472635 L9.378855162552867,-33.14337090377274 L9.49188757779611,-33.052919366479756 L9.599202434887028,-32.96141165721753 L9.700735091368468,-32.86890289680844 L9.796424387764716,-32.77544880907063 L9.886212684421675,-32.681105687252085 L9.970045896226843,-32.585930360121665 L10.04787352518815,-32.4899801577376 L10.119648690852076,-32.39331287691399 L10.185328158542669,-32.29598674640619 L10.244872365404506,-32.19806039183596 L10.298245444233878,-32.099592800377586 L10.34541524508384,-32.000643285226225 L10.386353354630156,-31.90127144986984 L10.421035113286411,-31.8015371521863 L10.449439630058023,-31.70150046838722 L10.471549795126204,-31.601221656830315 L10.487352290154268,-31.500761121721997 L10.496837596310103,-31.400179376732154 L10.499999999999957,-31.299537008542995 " />
			<path d="M10.499999999999957,-31.299537008542977 L10.498221108856104,-31.224051916726598 L10.492885038177628,-31.148592402007615 L10.483993596019552,-31.07318403281697 L10.471549795126204,-30.99785236025564 L10.455557851910385,-30.922622909436992 L10.436023185024697,-30.84752117083794 L10.412952413525502,-30.772572591661856 L10.386353354630158,-30.69780256721612 L10.356235021068244,-30.623236432307262 L10.32260761802773,-30.548899452656627 L10.285482539697083,-30.4748168163394 L10.244872365404508,-30.401013625249995 L10.200790855355601,-30.327514886596607 L10.153252945970905,-30.254345504427864 L10.102274744824895,-30.18153027119441 L10.047873525188152,-30.10909385934836 L9.990067720174546,-30.037060812983327 L9.928876916495433,-29.96545553951803 L9.864321847822954,-29.89430230142615 L9.796424387764718,-29.82362520801532 L9.725207542452228,-29.753448207258028 L9.650695442745564,-29.683795077677157 L9.57291333605697,-29.614689420288965 L9.491887577796113,-29.546154650606205 L9.407645622439905,-29.478213990704074 L9.320216014229926,-29.41089046135176 L9.22962837750061,-29.344206874212144 L9.135913406641428,-29.278185824112388 L9.039102855696514,-29.212849681387986 L8.939229527605242,-29.148220584302873 L8.836327263087393,-29.084320431548182 L8.730430929176684,-29.021170874822165 L8.621576407406558,-28.958793311493807 L8.509800581652206,-28.89720887735264 L8.395141325632965,-28.836438439447125 L8.277637490079327,-28.776502589014182 L8.034256289035778,-28.65921559468932 L7.77998681622703,-28.54550684532794 L7.515173665480058,-28.435530442532045 L7.240175719739161,-28.329435429712547 L6.955365664696764,-28.227365590101012 L6.6611294837182395,-28.129459251890218 L6.357865934745384,-28.035849100767496 L6.045986009887339,-27.946662000095028 L5.725912378431449,-27.862018818980683 L5.398078814028786,-27.782034268472493 L5.062929606830744,-27.706816746098692 L4.7209189613733304,-27.636468188964052 L4.372510381025156,-27.57108393560158 L4.018176039833406,-27.51075259676679 L3.6583961426190235,-27.45555593534968 L3.293658274188327,-27.405568755567145 L2.92445673854303,-27.360858801586 L2.55129188898424,-27.32148666571399 L2.174669450018261,-27.287505706283223 L1.7950998319831253,-27.258961975337325 L1.4130974393247844,-27.23589415622029 L1.0291799734603517,-27.21833351115161 L0.6438677311731614,-27.206303838858755 L0.2576828994905471,-27.199821442324417 L-0.12885115200009448,-27.198895106692184 L-0.5152105804379278,-27.20352608736066 L-0.9008717796166608,-27.2137081082821 L-1.2853120895918062,-27.229427370467906 L-1.6680105050055754,-27.250662570689446 L-2.04844838116938,-27.27738493034884 L-2.4261101369470834,-27.30955823448061 L-2.800483953486473,-27.347138880831302 L-3.1710624678519377,-27.39007593895063 L-3.5373434606183483,-27.438311219213965 L-3.8988305364943265,-27.49177935168272 L-4.2550337970524295,-27.550407874695715 L-4.605470504654579,-27.614117333071434 L-4.949665736673017,-27.682821385788152 L-5.28715302912008,-27.756426922995942 L-5.61747500881456,-27.834834192202013 L-5.940184013227974,-27.917936933458368 L-6.254842697170588,-28.005622523368555 L-6.561024625495097,-28.09777212771837 L-6.858314851014699,-28.194260862523638 L-7.146310476852303,-28.294957963276854 L-7.424621202458725,-28.399726962163232 " />
			<path d="M14.099999999999998,-12.888044650576528 L14.099999999999998,-5.52344770738994 " />
			<path d="M-14.099999999999998,-12.888044650576528 L-14.099999999999998,-5.52344770738994 " />
			<path d="M10.414213562373096,10.954837952990049 L10.414213562373096,13.256274497735857 " />
			<path d="M12.499999999999998,-31.299537008542995 L12.499999999999998,-12.888044650576528 " />
			<path d="M-12.499999999999998,-31.299537008542995 L-12.499999999999998,-12.888044650576528 " />

       </g>
    </g>
    
</svg>
