<?xml version="1.0" encoding="UTF-8" standalone="no"?>
<svg
   xmlns:svg="http://www.w3.org/2000/svg"
   xmlns="http://www.w3.org/2000/svg"
   width="800.0"
   height="800.0"

>
    <g transform="scale(14.03336655419091, -14.03336655419091)   translate(18.85034954695561,-10.728204969632902)" stroke-width="0.07125873867389013"  fill="none">
       <!-- hidden lines -->
       <g  stroke="rgb(180,180,180)" fill="none" stroke-dasharray="0.07125873867389013,0.07125873867389013" >

       </g>

       <!-- solid lines -->
       <g  stroke="rgb(40,40,40)" fill="none">
			<path d="M-11.313708498984758,5.570484990582333 L-11.485261426517647,5.484717499745189 L-11.654132627847174,5.397669366692707 L-11.820282672758502,5.309360916539886 L-11.983672766407302,5.219812768676739 L-12.14426475837808,5.129045831953808 L-12.302021151592026,5.037081299800088 L-12.456905111062301,4.943940645274533 L-12.608880472494747,4.84964561605224 L-12.757911750732013,4.7542182293465105 L-12.903964148039066,4.657680766768006 L-13.047003562228202,4.560055769122145 L-13.186996594621693,4.461366031145981 L-13.3239105578501,4.361634596185817 L-13.457713483484559,4.260884750816728 L-13.588374129501197,4.159140019405311 L-13.7158619875759,4.056424158616926 L-13.840147290207787,3.9527611518686783 L-13.96120101766972,3.848175203729463 L-14.078994904784189,3.742690734268381 L-14.193501447523026,3.636332373352822 L-14.304693909429425,3.5291249548975534 L-14.41254632786069,3.4210935110661973 L-14.517033520050328,3.312263266426392 L-14.618131088988052,3.202659632060033 L-14.715815429116299,3.092308199629984 L-14.810063731841955,2.9812347354045974 L-14.900853990862023,2.8694651742414585 L-14.988165007301912,2.757025613531805 L-15.07197639466523,2.643942307106964 L-15.152268583593887,2.530241659108267 L-15.229022826437397,2.4159502178218886 L-15.302221201630271,2.3010946694800687 " />
			<path d="M-15.556349186104045,1.842264745887353 L-15.609853047183073,1.7290731688147234 L-15.65995972025608,1.6155052918107058 L-15.70665830055745,1.5015858307665046 L-15.749938625028223,1.3873395780889048 L-15.789791274527888,1.2727913973046974 L-15.82620757588428,1.1579662176495902 L-15.859179603781143,1.0428890286428196 L-15.888700182482907,0.9275848746486783 L-15.914762887396364,0.8120788494260764 L-15.93736204646885,0.6963960906673629 L-15.956492741422664,0.5805617745275834 L-15.972150808825443,0.46460111014536193 L-15.984332840996236,0.3485393341566315 L-15.993036186747142,0.23240170520234563 L-15.998258951960278,0.11621349843140086 L-16.0,7.18989298849013e-14 " />
			<path d="M16.0,-9.64759042752737e-16 L15.997289308733174,0.14500555700220116 L15.989158153413593,0.28996198084227387 L15.975609289172716,0.4348201550061991 L15.956647306859043,0.579530996270526 L15.932278631482557,0.7240454713335471 L15.902511520037697,0.8683146134295773 L15.867356058705592,1.0122895389206723 L15.826824159436496,1.1559214638601827 L15.78092955591358,1.29916172052254 L15.729687798899462,1.4419617738936494 L15.673116250967048,1.58427323811631 L15.611234080616457,1.7260478928851173 L15.544062255780029,1.8672376997852538 L15.471623536717635,2.00779481856965 L15.393942468304667,2.1476716233690123 L15.311045371715343,2.286820718829193 L15.222960335504135,2.4251949561704587 L15.129717206088344,2.562747449163216 L15.031347577635042,2.699431590014782 L14.927884781355825,2.835201065161796 L14.819363874212984,2.9700098709629317 L14.705821627040924,3.103812329286617 L14.587296512086878,3.2365631029884443 L14.463828689975095,3.3682172112730435 L14.335459996098967,3.498730044935222 L14.202233926445667,3.62805738147518 L14.064195622858138,3.7561554000827 L13.921391857739383,3.8829806964852396 L13.773871018204277,4.008490297654878 L13.621683089684245,4.132641676369137 L13.464879638990379,4.255392765620764 L13.303513796840727,4.37670197287156 L13.137640239857676,4.496528194145436 L12.967315172041522,4.614830827955945 L12.792596305726487,4.7315697890635535 L12.613542842025707,4.846705522057966 L12.430215450771724,4.960199014760938 L12.242676249959345,5.072011811445033 L12.050988784697802,5.182106025863811 L11.85521800567935,5.290444354089079 L11.65543024717161,5.396990087150815 L11.451693204541105,5.501707123475506 L11.24407591131561,5.604559981118667 L11.032648715793073,5.705513809787426 L10.817483257205057,5.804534402649067 L10.598652441442752,5.9015882079215505 L10.376230416353806,5.996642340242082 L10.150292546618335,6.08966459180987 L9.920915388212642,6.1806234432992895 L9.688176662469221,6.269488074539802 L9.452155229741999,6.356228374958925 L9.212931062685534,6.4408149537848045 L8.970585219157384,6.523219150004876 L8.725199814752749,6.60341304207726 L8.476857994980719,6.681369457391592 L8.225643907091548,6.757061981476102 L7.971642671564509,6.8304649669477895 L7.714940353265961,6.901553542202694 L7.455623932287454,6.9703036198433015 L7.193781274473711,7.036691904840228 L6.929501101650447,7.1006959024254295 L6.662872961562209,7.162293925714248 L6.39398719753036,7.22146510305371 L6.122934917841445,7.278189385094604 L5.849807964876389,7.332447551584939 L5.5746988839909575,7.384221217882456 L5.297700892158025,7.433492841184021 L5.018907846382277,7.480245726469758 L4.7384142118980055,7.52446403215994 L4.456315030160872,7.566132775482685 L4.172705886644428,7.605237837550661 L3.8876828784522397,7.64176596814509 L3.6013425817567004,7.675704790205397 L3.3137820190755094,7.707042804023011 L3.0250986263969093,7.735769391137888 L2.735390220164827,7.761874817936421 L2.4447549641351,7.78535023894956 L2.153291336114022,7.806187699849961 L1.8610980945904763,7.8243801401472135 L1.5682742452729814,7.8399213955801885 L1.2749190075429053,7.8528062002057135 L0.9811317808353581,7.8630301881828695 L0.6870121109590714,7.870589895252289 L0.39265965636661243,7.87548275990998 L0.09817415438648487,7.877707124275255 L-0.1963446125715081,7.877262234652483 L-0.49079685082617786,7.874148241786465 L-0.7850827892386826,7.868366200811361 L-1.079102713018622,7.859918070893166 L-1.3727569975110376,7.84880671456588 L-1.6659461419528752,7.835035896761571 L-1.9585708031874496,7.818610283534687 L-2.2505318293255665,7.7995354404810175 L-2.5417302933417645,7.777817830851871 L-2.832067526594364,7.7534648133640935 L-3.1214451522580386,7.726484639706663 L-3.409765118657451,7.696886451744718 L-3.6969297324907293,7.6646802784219625 L-3.9828416919315166,7.62987703236249 L-4.267404119598371,7.592488506173197 L-4.550520595380348,7.552527368448009 L-4.83209518910765,7.5100071594753075 L-5.112032493056255,7.464942286649983 L-5.390237654275514,7.417348019591687 L-5.666616406727828,7.367240484970929 L-5.941075103229386,7.314636661044766 L-6.2135207471812075,7.259554371903967 L-6.483861024079827,7.202012281433547 L-6.752004332796787,7.142029886988771 L-7.017859816616436,7.079627512788737 L-7.281337394021498,7.014826303029792 L-7.542347789215961,6.947648214721106 L-7.800802562374976,6.8781160102448435 L-8.056614139611485,6.806253249643432 L-8.309695842649438,6.7320842826365705 L-8.559961918193551,6.655634240370653 L-8.807327566985663,6.576929026903416 L-9.0517089725378,6.495995310426705 L-9.293023329532224,6.412860514230331 L-9.531188871878927,6.327552807410046 L-9.766124900420946,6.240101095322832 L-9.997751810278178,6.150535009792719 L-10.22599111782041,6.058884899070438 L-10.450765487260428,5.96518181755033 L-10.671998756858203,5.869457515247989 L-10.889615964727254,5.771744427042201 L-11.10354337423447,5.672075661684821 L-11.313708498984658,5.570484990582382 " />
			<path d="M15.787841134561596,-3.0732989075883106 L15.741029744514586,-2.940302971299792 L15.689597257143559,-2.8077214499934007 L15.63355877149436,-2.6755932656534824 L15.57293073879669,-2.543957207178159 L15.50773095763452,-2.412851918992061 L15.437978568720949,-2.2823158897014757 L15.363694049279065,-2.1523874407952373 L15.28489920703045,-2.0231047153946915 L15.201617173793071,-1.894505667055994 L15.113872398690468,-1.7666280486280832 L15.02169064097423,-1.6395094011695823 L14.925098962461838,-1.5131870429278416 L14.824125719592123,-1.387698058383426 L14.718800555100662,-1.2630792873632135 L14.609154389317554,-1.1393673142253196 L14.49521941109013,-1.0165984571190214 L14.377029068333266,-0.8948087573228269 L14.254618058210081,-0.7740339686638338 L14.128022316945868,-0.6543095470214699 L13.997279009278307,-0.5356706399187017 L13.862426517546986,-0.4181520762037705 L13.723504430425509,-0.30178835582548125 L13.580553531299419,-0.18661363970503864 L13.433615786293442,-0.07266173970743584 L13.28273433195145,0.04003389128472534 L13.127953462572878,0.15144016919198844 L12.96931861720923,0.2615243884505416 L12.806876366324532,0.3702542316136075 L12.640674398123624,0.4775977788388719 L12.470761504552327,0.5835235172592057 L12.297187566973587,0.6880003502338994 L12.120003541523786,0.7909976064777124 L11.939261444153543,0.8924850490650469 L11.755014335357377,0.9924328843066093 L11.567316304596728,1.090811770495952 L11.376222454420907,1.1875928265233178 L11.181788884290622,1.2827476403542812 L10.984072674108857,1.3762482773706672 L10.783131867463895,1.4680672885713326 L10.579025454589484,1.5581777186303603 L10.371813355047022,1.6465531138103566 L10.161556400134982,1.7331675297284717 L9.948316315030668,1.8179955389728892 L9.732155700669487,1.9010122385675814 L9.513138015367257,1.9821932572830514 L9.291327556190689,2.061514762791014 L9.066789440081674,2.1389534686608673 L8.839589584740905,2.2144866411958803 L8.60979468927643,2.28809210610713 L8.37747221462276,2.3597482550232103 L8.142690363736317,2.429434051833824 L7.90551806157311,2.4971290388653387 L7.666024934854442,2.562813342886553 L7.424281291626556,2.6264676809428877 L7.180358100620265,2.688073366017294 L6.934326970416665,2.747612312516199 L6.686260128425022,2.805067041578887 L6.436230399678926,2.860420686208786 L6.18431118545701,2.9136569962251153 L5.9305764417345435,2.964760343033448 L5.675100657472189,3.0137157242137995 L5.417958832748225,3.0605087679248957 L5.159226456740766,3.105125737123318 L4.89897948556641,3.147553533596283 L4.63729431998174,3.1877797018068987 L4.374247782954362,3.2257924325507323 L4.10991709711001,3.261580566422637 L3.844379862062229,3.295133597092825 L3.5777140316314635,3.3264416743912166 L3.309997890960149,3.355495607199149 L3.041310033530485,3.3822868661476218 L2.771729338091759,3.406807586121263 L2.5013349455039244,3.429050568567291 L2.230206235504171,3.4490092836087944 L1.9584228034033762,3.466677871961715 L1.686064436719316,3.4820511466549533 L1.4132110917534597,3.4951245945531113 L1.139942870118151,3.505894377681412 L0.8663399952211353,3.514357334352419 L0.5924827887143831,3.520510980094211 L0.31845164691407696,3.524353508379747 L0.04432701719861884,3.525883791157211 L-0.22981062560835128,3.5251013791811783 L-0.5038808028629375,3.522006502144489 L-0.7778030557270913,3.5166000686108285 L-1.0514969687889582,3.508883665747998 L-1.3248821936704742,3.498859558861964 L-1.597878472615228,3.486530690731838 L-1.8704056620497174,3.471900680745958 L-2.1423837561111445,3.454973823839353 L-2.4137329101347813,3.4357550892328685 L-2.6843734640939534,3.4142501189743557 L-2.954225965985826,3.390465226282335 L-3.223211195156185,3.364407393692624 L-3.491250185556245,3.3360842710084677 L-3.7582642489247187,3.3055041730547945 L-4.024174997888383,3.2726760772372145 L-4.288904368974251,3.237609620906537 L-4.552374645526653,3.2003150985295266 L-4.814508480522575,3.1608034586667486 L-5.0752289192784215,3.119086300758407 L-5.33445942204161,3.0751758717190887 L-5.592123886460397,3.0290850623424337 L-5.848146669925237,2.9808274035167805 L-6.1024526117751705,2.9304170622529115 L-6.354967055362785,2.8778688375250328 L-6.605615869971203,2.82319815592623 L-6.85432547257663,2.766421067139688 L-7.101022849450108,2.707554239226986 L-7.345635577592203,2.6466149537348445 L-7.588091845994258,2.5836211006217793 L-7.828320476719944,2.5185911730061354 L-8.066250945800956,2.4515442617370793 L-8.301813403940773,2.382500049790078 L-8.534938697020356,2.3114788064885623 L-8.76555838639971,2.238501381553461 L-8.993604769009409,2.1635891989823524 L-9.219010897226221,2.0867642507600124 L-9.44171059852696,2.008049090402211 L-9.661638494914742,1.9274668263346797 L-9.878730022112002,1.8450411151091837 L-10.092921448514652,1.760796154458638 L-10.30414989390181,1.6747566761933825 L-10.512353347895546,1.586947938940658 L-10.717470688165239,1.4973957207294362 L-10.919441698371324,1.4061263114227467 L-11.118207085842995,1.3131665049997618 L-11.313708498984658,1.2185435916899356 " />
			<path d="M15.78784113456158,-3.0732989075882573 L15.78784113456158,-0.5491728962306386 " />
			<path d="M15.787841134561578,-0.549172896230641 L15.837481491794904,-0.7078391976305702 L15.880544900528868,-0.8669705998563675 L15.91701347750207,-1.0265010192294124 L15.94687207813785,-1.1863642063682711 L15.970108302833482,-1.3464937737005698 L15.986712502109457,-1.5068232230322542 L15.996677780616688,-1.667285973162789 L16.0,-1.827815387534756 " />
			<path d="M16.0,-1.827815387534828 L15.998106636535178,-1.9490054921904885 L15.992426994243862,-2.0701669147315926 L15.982962417329453,-2.1912709798317915 L15.969715145777469,-2.312289025739548 L15.952688314825407,-2.4331924110615244 L15.93188595422072,-2.5539525215411514 L15.907312987267103,-2.6745407768307814 L15.87897522965929,-2.7949286372558078 L15.846879388106641,-2.915087610569163 L15.811033058745885,-3.0349892586945924 L15.771444725343311,-3.1546052044571034 L15.728123757286934,-3.2739071382990073 L15.681080407369024,-3.3928668249799516 L15.630325809359583,-3.5114561102593673 L15.575871975371303,-3.6296469275597465 L15.517731793016658,-3.7474113046091695 L15.455919022357788,-3.8647213700615164 L15.390448292649893,-3.9815493600927896 L15.321335098878931,-4.097867624971989 L15.248595798094405,-4.213648635604987 L15.172247605538134,-4.328864990049855 L15.092308590569917,-4.4434894200020825 L15.008797672391049,-4.557494797248191 L14.921734615566704,-4.6708541400861705 L14.83114002534825,-4.783540619711257 L14.737035342796585,-4.8955275665655105 L14.63944283970769,-5.006788476649717 L14.53838561334154,-5.117297017796101 L14.433887580955663,-5.2270270359003685 L14.325973474144645,-5.335952561111609 L14.21466883298688,-5.444047813978594 L14.100000000000005,-5.55128721155101 " />
			<path d="M-11.313708498984758,1.2185435916898868 L-11.587953327223467,1.0801593206203153 L-11.855218005679351,0.9385029551966317 L-12.115341544103757,0.7936598239165074 L-12.368167253803795,0.6457171748661859 L-12.613542842025703,0.4947641231655213 L-12.85132050369032,0.3408915972883628 L-13.08135701042534,0.18419228429063228 L-13.303513796840724,0.024760573979115463 L-13.517657043995312,-0.1373074979454305 L-13.723657760004352,-0.30191430773659444 L-13.921391857739382,-0.468960702407204 L-14.110740229573677,-0.6383460594553765 L-14.291588819128242,-0.8099683474757513 L-14.46382868997509,-0.983724187619397 L-14.627356091256488,-1.1595089158653598 L-14.782072520180584,-1.3372166460663588 L-14.856097287571442,-1.426758228985637 L-14.927884781355818,-1.5167403337306409 L-14.997424190601198,-1.6071494093273686 L-15.064705042928328,-1.6979718405015802 L-15.129717206088335,-1.7891939497292175 L-15.192450889488581,-1.8808019992961804 L-15.252896645667098,-1.9727821933671565 L-15.311045371715338,-2.0651206800632433 L-15.366888310649045,-2.157803553547998 L-15.420417052727034,-2.2508168561215953 L-15.471623536717631,-2.34414658032279 L-15.5205000511127,-2.437778671038405 L-15.56703923528896,-2.5316990276199975 L-15.611234080616455,-2.6258935060073263 L-15.653077931514039,-2.720347920858413 L-15.692564486451685,-2.815048047685827 L-15.72968779889946,-2.909979624998794 L-15.764442278223058,-3.0051283564509506 L-15.796822690525733,-3.100479912993338 L-15.826824159436496,-3.1960199350322642 L-15.85444216684448,-3.291734034591828 L-15.87967255357936,-3.387607797480713 L-15.902511520037697,-3.483626785462873 L-15.92295562675515,-3.5797765384318962 L-15.941001794924448,-3.6760425765886597 L-15.956647306859043,-3.7724104026219174 L-15.969889806402387,-3.868865503891531 L-15.980727299282758,-3.965393354614032 L-15.989158153413591,-4.061979418050166 L-15.995181099139268,-4.158609148694057 L-15.998795229426312,-4.255267994463697 L-16.0,-4.351941398892374 " />
			<path d="M-16.0,-4.351941398892446 L-15.998106636535178,-4.473131503548107 L-15.992426994243862,-4.594292926089211 L-15.982962417329453,-4.71539699118941 L-15.969715145777469,-4.836415037097167 L-15.952688314825407,-4.957318422419142 L-15.93188595422072,-5.07807853289877 L-15.907312987267103,-5.1986667881884 L-15.87897522965929,-5.319054648613426 L-15.846879388106641,-5.439213621926781 L-15.811033058745885,-5.55911527005221 L-15.771444725343311,-5.678731215814722 L-15.728123757286934,-5.798033149656625 L-15.681080407369024,-5.91699283633757 L-15.630325809359583,-6.035582121616986 L-15.575871975371303,-6.153772938917365 L-15.517731793016658,-6.271537315966788 L-15.455919022357788,-6.388847381419135 L-15.390448292649893,-6.505675371450408 L-15.321335098878931,-6.6219936363296075 L-15.248595798094405,-6.737774646962606 L-15.172247605538134,-6.852991001407473 L-15.092308590569917,-6.9676154313597 L-15.008797672391049,-7.081620808605809 L-14.921734615566704,-7.194980151443789 L-14.83114002534825,-7.307666631068875 L-14.737035342796585,-7.419653577923128 L-14.63944283970769,-7.530914488007335 L-14.53838561334154,-7.64142302915372 L-14.433887580955663,-7.751153047257987 L-14.325973474144645,-7.860078572469227 L-14.21466883298688,-7.968173825336212 L-14.100000000000005,-8.075413222908628 " />
			<path d="M15.787841134561656,-3.0732989075882964 L13.053087573924476,-1.7267993346288177 " />
			<path d="M13.053087573924401,-1.7267993346288448 L12.969555382194493,-1.6282792835871982 L12.88295607726052,-1.53040333943982 L12.793310138611856,-1.4331946484389761 L12.7006387662229,-1.3366761990411629 L12.604963875539598,-1.240870816470677 L12.506308092296749,-1.1458011573217712 L12.404694747167344,-1.0514897042006912 L12.300147870245192,-0.9579587604088724 L12.192692185362162,-0.8652304446685251 L12.082353104241339,-0.7733266858918735 L11.969156720487527,-0.6822692179952909 L11.853129803416493,-0.5920795747595382 L11.734299791724386,-0.5027790847373241 L11.612694786998894,-0.41438886620942483 L11.48834354707363,-0.3269298221905039 L11.361275479227302,-0.24042263548585474 L11.231520633229335,-0.1548877638002164 L11.099109694233519,-0.07034543489981981 L10.964073975521408,0.013184358171193011 L10.826445411097188,0.09568186181883309 L10.686256548135747,0.17712756657070194 L10.543540539285718,0.25750221168970633 L10.398331134829393,0.33678678972893916 L10.250662674701225,0.4149625510266688 L10.10057008036695,0.4920110081403717 L9.948088846565154,0.5679139402187392 L9.79325503291329,0.6426533973106485 L9.63610525538008,0.7162117046100676 L9.476676677626383,0.7885714666358901 L9.31500700221652,0.8597155713457187 L8.98509780958082,0.9982898020538862 L8.646689734128099,1.1318033212389897 L8.300102871492104,1.260129840264212 L7.945665053511048,1.3831479768062191 L7.583711538135896,1.5007413696690657 L7.214584692314416,1.6127987888486714 L6.838633668150887,1.7192142407437858 L6.456214072647806,1.819887068413916 L6.067687631342054,1.9147220467893566 L5.673421846153583,2.0036294727433033 L5.273789647770304,2.086525249940828 L4.8691690428979815,2.1633309683844724 L4.459942756708775,2.2339739785812016 L4.046497870826702,2.2983874602605834 L3.6292254571923213,2.3565104855791743 L3.2085202081530406,2.408288076751357 L2.784780063128982,2.4536712580520765 L2.3584058322074437,2.492617102142318 L1.9298008170220393,2.525088770673503 L1.4993704292751284,2.551055549132381 L1.0675218072643422,2.5704928758934784 L0.6346634307759942,2.5833823654516026 L0.20120473470953895,2.58971182581245 L-0.23244427820140323,2.589475270024842 L-0.6658734252050634,2.5826729218437086 L-1.0986727315178688,2.569311215518436 L-1.5304328181140598,2.549402789706801 L-1.960745288951789,2.5229664755202297 L-2.3892031172694397,2.49002727871171 L-2.815401030586713,2.450616356023181 L-3.238935894046425,2.404770985714797 L-3.6594070917343533,2.3525345323039177 L-4.076416905616392,2.2939564055472017 L-4.489570891734686,2.22909201370458 L-4.898478253306848,2.158002711129333 L-5.30275221037537,2.080755740233834 L-5.7020103656575705,1.9974241678858577 L-6.095875066249998,1.9080868162956204 L-6.48397376084524,1.8128281884589121 L-6.865939352123198,1.7117383882268449 L-7.2414105439834655,1.604913035077847 L-7.610032183290434,1.492453173672482 L-7.971455595807876,1.3744651782766644 L-8.325338916005167,1.2510606521436891 L-8.671347410423294,1.1223563219502095 L-9.009153794294749,0.9884739273860443 L-9.338438541117737,0.849540106002256 L-9.499787644538499,0.7782197943615614 L-9.658890184892002,0.7056862734263962 L-9.81570853671709,0.6319566963306409 L-9.97020561473023,0.5570484990582774 " />
			<path d="M-9.970205614730318,0.5570484990582338 L-10.21188386961568,0.43509736017817424 L-10.447410867504928,0.31026268814855307 L-10.676644735741435,0.18261967870794393 L-10.899447392414594,0.05224521923234793 L-11.115684629535151,-0.08078215757886298 L-11.325226193877095,-0.2163823210081084 L-11.52794586543733,-0.3544735905873586 L-11.723721533465888,-0.4949727852993826 L-11.912435270020868,-0.6377952736828889 L-12.093973401003835,-0.7828550248113522 L-12.26822657463283,-0.930064660114827 L-12.435089827311803,-1.0793355060135288 L-12.594462646856762,-1.2305776473314842 L-12.746249033040547,-1.3836999814580717 L-12.89035755541978,-1.5386102732248266 L-13.02670140840914,-1.6952152104644567 L-13.155198463569814,-1.8534204602186053 L-13.275771319080588,-2.0131307255604955 L-13.388347346361812,-2.174249802998237 L-13.492858733824141,-2.3366806404242118 L-13.589242527715697,-2.5003253955756337 L-13.677440670043067,-2.6650854949710725 L-13.75740003354325,-2.830861693287434 L-13.829072453685548,-2.997554133141613 L-13.86178737278015,-3.0812125856486654 L-13.892414757684069,-3.165062405240878 L-13.920949996025803,-3.249090964443857 L-13.947388790503412,-3.333285608865661 L-13.971727159531698,-3.4176336591025263 L-13.99396143784181,-3.5021224126483563 L-14.01408827703322,-3.586739145807635 L-14.032104646077975,-3.671471115611587 L-14.04800783177717,-3.7563055617372343 L-14.061795439169531,-3.8412297084290428 L-14.073465391892103,-3.92623076642289 L-14.08301593249293,-4.011295934872094 L-14.090445622695727,-4.0964124032751865 L-14.09575334361648,-4.181567353405116 L-14.098938295931937,-4.266747961239611 L-14.1,-4.351941398892383 " />
			<path d="M14.1,-4.351941398892447 L14.098964728866871,-4.267815124154331 L14.095859067493913,-4.183701203104697 L14.090683471938085,-4.099611987617918 L14.083438702219908,-4.01555982594043 L14.074125822211862,-3.931557060877439 L14.062746199482145,-3.8476160279804033 L14.04930150509387,-3.763749053735596 L14.03379371335966,-3.679968453754001 L14.016225101551727,-3.59628653096281 L13.996598249567475,-3.512715573798767 L13.97491603955063,-3.429267854403646 L13.951181655468018,-3.3459556268221258 L13.897570607238709,-3.1797865619992782 L13.835796594203277,-3.0143059814411455 L13.765895900335996,-2.8496110828661925 L13.687909582949693,-2.685798602509755 L13.601883448580066,-2.522964758304424 L13.507868026080475,-2.361205193364893 L13.405918536942997,-2.2006149198103993 L13.296094862863162,-2.041288262957811 L13.178461510567493,-1.8833188059181145 L13.053087573924424,-1.7267993346288733 " />
			<path d="M-9.970205614730318,-6.406057739169682 L-10.21188386961568,-6.528008878049741 L-10.447410867504928,-6.652843550079362 L-10.676644735741435,-6.7804865595199715 L-10.899447392414594,-6.9108610189955675 L-11.115684629535151,-7.043888395806778 L-11.325226193877095,-7.179488559236024 L-11.52794586543733,-7.3175798288152745 L-11.723721533465888,-7.458079023527298 L-11.912435270020868,-7.600901511910804 L-12.093973401003835,-7.745961263039268 L-12.26822657463283,-7.893170898342742 L-12.435089827311803,-8.042441744241444 L-12.594462646856762,-8.1936838855594 L-12.746249033040547,-8.346806219685988 L-12.89035755541978,-8.501716511452742 L-13.02670140840914,-8.658321448692373 L-13.155198463569814,-8.81652669844652 L-13.275771319080588,-8.976236963788411 L-13.388347346361812,-9.137356041226152 L-13.492858733824141,-9.299786878652128 L-13.589242527715697,-9.46343163380355 L-13.677440670043067,-9.628191733198987 L-13.75740003354325,-9.79396793151535 L-13.829072453685548,-9.960660371369528 L-13.86178737278015,-10.04431882387658 L-13.892414757684069,-10.128168643468793 L-13.920949996025803,-10.212197202671772 L-13.947388790503412,-10.296391847093576 L-13.971727159531698,-10.380739897330441 L-13.99396143784181,-10.465228650876272 L-14.01408827703322,-10.54984538403555 L-14.032104646077975,-10.634577353839502 L-14.04800783177717,-10.71941179996515 L-14.061795439169531,-10.804335946656959 L-14.073465391892103,-10.889337004650805 L-14.08301593249293,-10.974402173100009 L-14.090445622695727,-11.059518641503102 L-14.09575334361648,-11.144673591633032 L-14.098938295931937,-11.229854199467526 L-14.1,-11.315047637120298 " />
			<path d="M-14.1,-11.315047637120362 L-14.09840705096728,-11.419399751107566 L-14.0936285637963,-11.523728286711927 L-14.085665618187273,-11.628009670878146 L-14.074520013369492,-11.732220341204796 L-14.06019426769479,-11.836336751268261 L-14.042691618068517,-11.940335375943054 L-14.022016019218158,-12.044192716717317 L-13.99817214279977,-12.147885307002324 L-13.971165376342416,-12.251389717434757 L-13.941001822030843,-12.354682561170574 L-13.907688295326713,-12.457740499169278 L-13.87123232342862,-12.560540245467372 L-13.831642143571344,-12.663058572439834 L-13.78892670116463,-12.76527231604839 L-13.743095647771977,-12.867158381075454 L-13.694159338929863,-12.968693746342483 L-13.64212883180791,-13.069855469911616 L-13.587015882710512,-13.170620694269424 L-13.528832944420504,-13.270966651491554 L-13.467593163385438,-13.370870668387155 L-13.403310376747152,-13.470310171621893 L-13.335999109215267,-13.569262692818388 L-13.265674569785313,-13.667705873632968 L-13.192352648302263,-13.765617470807522 L-13.116049911870219,-13.862975361195383 L-13.036783601109063,-13.959757546760052 L-12.954571626258947,-14.055942159545658 L-12.869432563133461,-14.151507466618035 L-12.781385648922429,-14.246431874975269 L-12.690450777845259,-14.340693936426653 L-12.596648496655838,-14.434272352438914 L-12.500000000000002,-14.527145978948603 " />
			<path d="M12.499999999999998,-14.527145978948608 L12.596648496655837,-14.434272352438917 L12.690450777845259,-14.340693936426653 L12.78138564892243,-14.246431874975265 L12.869432563133461,-14.151507466618034 L12.954571626258947,-14.05594215954566 L13.036783601109061,-13.959757546760054 L13.116049911870215,-13.862975361195385 L13.192352648302263,-13.765617470807523 L13.265674569785313,-13.667705873632967 L13.335999109215267,-13.569262692818388 L13.403310376747152,-13.470310171621893 L13.467593163385436,-13.370870668387159 L13.528832944420502,-13.270966651491557 L13.587015882710512,-13.170620694269425 L13.64212883180791,-13.069855469911616 L13.694159338929863,-12.968693746342483 L13.743095647771975,-12.867158381075456 L13.78892670116463,-12.76527231604839 L13.831642143571345,-12.66305857243983 L13.87123232342862,-12.560540245467372 L13.907688295326713,-12.457740499169278 L13.941001822030843,-12.354682561170575 L13.971165376342416,-12.251389717434758 L13.99817214279977,-12.147885307002324 L14.022016019218158,-12.044192716717316 L14.042691618068517,-11.940335375943054 L14.06019426769479,-11.836336751268263 L14.074520013369492,-11.732220341204798 L14.085665618187273,-11.628009670878148 L14.093628563796297,-11.523728286711929 L14.09840705096728,-11.419399751107566 L14.1,-11.315047637120394 " />
			<path d="M14.1,-11.315047637120362 L14.09761120332111,-11.187261490012173 L14.090445622695729,-11.059518641503107 L14.078505686083457,-10.931862375521149 L14.061795439169531,-10.80433594665696 L14.040320543994003,-10.676982565507673 L14.01408827703322,-10.549845384035546 L13.983107526734303,-10.42296748094652 L13.947388790503412,-10.296391847093576 L13.906944171148842,-10.170161370909874 L13.861787372780151,-10.044318823876583 L13.811933696164711,-9.918906846030364 L13.757400033543252,-9.793967931515352 L13.69820486290615,-9.669544414184607 L13.634368241732416,-9.545678453255858 L13.565911800193488,-9.42241201902642 L13.492858733824146,-9.299786878652135 L13.415233795663019,-9.177844581995146 L13.333063287865352,-9.056626447545277 L13.246375052790881,-8.936173548419834 L13.155198463569821,-8.816526698446529 L13.059564414150191,-8.697726438334278 L12.959505308829815,-8.57981302193653 L12.855055051276562,-8.462826402611796 L12.746249033040552,-8.346806219685993 L12.633124121562215,-8.231791785021198 L12.515718647680243,-8.11782206969536 L12.394072392643734,-8.004935690797483 L12.26822657463283,-7.893170898342745 L12.13822383479252,-7.782565562312001 L12.004108222784241,-7.67315715982006 L11.865925181860272,-7.564982762417063 L11.723721533465891,-7.458079023527299 L11.577545461374577,-7.352482166029697 L11.427446495361592,-7.248227969984185 L11.273475494421467,-7.145351760508106 L11.115684629535155,-7.04388839580678 L10.954127365992582,-6.943872255362286 L10.788858445276672,-6.845337228284428 L10.619933866514938,-6.7483167018278785 L10.447410867504926,-6.6528435500793615 L10.271347905319981,-6.558950122818707 L10.091804636501848,-6.466668234557573 L9.908841896846882,-6.376029153759537 L9.722521680792646,-6.287063592245193 L9.532907120411956,-6.199801694785871 L9.340062464021425,-6.114273028889496 L9.144053054411792,-6.030506574782027 L8.944945306707407,-5.948530715587914 L8.74280668586239,-5.868373227712864 L8.537705683801,-5.790061271432162 L8.329711796210136,-5.713621381687809 L8.118895498991627,-5.639079459097504 L7.905328224382444,-5.566460761178565 L7.68908233675086,-5.495789893789778 L7.470231108076758,-5.427090802794021 L7.248848693124427,-5.360386765944547 L7.025010104316223,-5.295700384997622 L6.798791186315627,-5.233053578054238 L6.570268590328318,-5.172467572133453 L6.339519748129957,-5.1139628959799115 L6.106622845829457,-5.057559373107952 L5.871656797376696,-5.003276115084681 L5.63470121782363,-4.95113151505428 L5.395836396347773,-4.901143241505743 L5.155143269047318,-4.853328232286135 L4.912703391517031,-4.807702688861448 L4.668598911214259,-4.764282070826944 L4.422912539624381,-4.723081090668888 L4.175727524235117,-4.684113708779416 L3.9271276203292684,-4.647393128726247 L3.677197062605402,-4.612931792778842 L3.4260205366360363,-4.580741377692502 L3.173683150173092,-4.550832790751857 L2.9202704043102927,-4.523216166075083 L2.6658681645122764,-4.497900861180099 L2.410562631520254,-4.4748954538138905 L2.1544403121440565,-4.454207739046063 L1.8975879899504817,-4.435844726627584 L1.6400926958578572,-4.419812638615631 L1.3820416786468148,-4.4061169072653215 L1.1235223753971852,-4.394762173189077 L0.8646223818611594,-4.385752283784208 L0.6054294227826817,-4.379090291929283 L0.3460313221730772,-4.374778454949692 L0.08651597355308979,-4.372818233852794 L-0.1730286898286415,-4.373210292832861 L-0.43251472479056924,-4.375954499046039 L-0.691854208016589,-4.38104992265535 L-0.9509592658476606,-4.3884948371457595 L-1.2097421040566019,-4.398286719909181 L-1.4681150375959713,-4.410422253099227 L-1.7259905203089398,-4.424897324755419 L-1.9832811745931553,-4.441707030196465 L-2.23989982100743,-4.460845673682151 L-2.4957595078112833,-4.482306770343255 L-2.7507735404273963,-4.506083048378866 L-3.0048555108168786,-4.53216645152033 L-3.257919326757455,-4.560548141761008 L-3.509879241014649,-4.591218502350918 L-3.7606498803960644,-4.624167141055232 L-4.010146274678932,-4.659382893675554 L-4.2582838854011165,-4.696853827832747 L-4.504978634505824,-4.736567247010066 L-4.7501469328302965,-4.778509694855188 L-4.993705708428898,-4.822666959739731 L-5.235572434720896,-4.869024079574662 L-5.475665158453439,-4.917565346879992 L-5.713902527470347,-4.968274314107049 L-5.950203818277168,-5.0211337992115075 L-6.1844889633932345,-5.076125891475288 L-6.416678578481445,-5.133231957575358 L-6.6466939892465655,-5.1924326478973875 L-6.8744572580929475,-5.253707903092094 L-7.099891210532621,-5.3170369608720875 L-7.322919461334817,-5.382398363046884 L-7.543466440408067,-5.449769962793725 L-7.761457418406115,-5.519128932161727 L-7.976818532048935,-5.590451769806828 L-8.189476809150271,-5.663714308954883 L-8.399360193343304,-5.738891725590259 L-8.606397568495959,-5.815958546867116 L-8.810518782807645,-5.894888659740529 L-9.011654672579237,-5.975655319814539 L-9.209737085648252,-6.058231160404134 L-9.404698904481291,-6.1425882018080715 L-9.596474068915892,-6.228697860789423 L-9.784997598544125,-6.3165309602606134 L-9.97020561473023,-6.406057739169638 " />
			<path d="M-8.83883476483189,-6.9631062382278905 L-9.053088536893382,-7.071218950000993 L-9.26188906693704,-7.181887985488246 L-9.465110581331109,-7.2950466818008435 L-9.662630667034263,-7.410626876371408 L-9.85433034533263,-7.528558948012551 L-10.040094143508112,-7.648771858854081 L-10.219810164394845,-7.771193197133559 L-10.393370153781863,-7.89574922081443 L-10.560669565621385,-8.022364902005481 L-10.721607625003449,-8.15096397215483 L-10.87608738885894,-8.281468967991243 L-11.024015804354484,-8.413801278185128 L-11.165303764943987,-8.547881190701045 L-11.299866164043086,-8.683627940813269 L-11.42762194629418,-8.820959759755427 L-11.54849415639113,-8.959793923974958 L-11.66240998543428,-9.100046804962679 L-11.769300814787805,-9.241633919627475 L-11.869102257413003,-9.384469981185756 L-11.961754196652656,-9.528468950535023 L-12.047200822443044,-9.673544088080611 L-12.125390664931844,-9.81960800598437 L-12.196276625481653,-9.966572720803839 L-12.259816005040427,-10.114349706490167 L-12.315970529861811,-10.262849947712919 L-12.36470637455981,-10.411983993479572 L-12.405994182483923,-10.561662011017422 L-12.43980908340251,-10.711793839885534 L-12.466130708483675,-10.862289046283989 L-12.484943202564702,-11.013056977527828 L-12.4962352337026,-11.164006816652847 L-12.500000000000048,-11.315047637120282 " />
			<path d="M-12.500000000000048,-11.315047637120339 L-12.497992501972748,-11.425345768244597 L-12.491970652698575,-11.535608471643952 L-12.48193638639362,-11.645800330972873 L-12.467892926061051,-11.755885952640925 L-12.449844782455896,-11.865829977181175 L-12.427797752636181,-11.975597090607641 L-12.401758918100926,-12.085152035758139 L-12.37173664251557,-12.194459623618862 L-12.33774056902555,-12.303484744627092 L-12.29978161715894,-12.412192379948374 L-12.257871979319102,-12.520547612724553 L-12.212025116868482,-12.628515639289063 L-12.162255755804825,-12.736061780345846 L-12.108579882031199,-12.843151492108344 L-12.051014736221317,-12.949750377394938 L-11.989578808281845,-13.055824196677321 L-11.924291831413443,-13.161338879078217 L-11.855174775772479,-13.266260533314945 L-11.782249841735405,-13.37055545858528 L-11.70554045276802,-13.474190155392144 L-11.625071247901845,-13.577131336303633 L-11.540868073820086,-13.67934593664493 L-11.452957976555682,-13.780801125118668 L-11.361369192804124,-13.881464314350332 L-11.266131140853847,-13.981303171355309 L-11.167274411137079,-14.080285627924248 L-11.064830756404197,-14.178379890923337 L-10.958833081524773,-14.275554452506261 L-10.849315432918518,-14.371778100234515 L-10.7363129876196,-14.467019927102818 L-10.619862041977779,-14.561249341466441 L-10.500000000000048,-14.654436076867228 " />
			<path d="M10.499999999999956,-14.654436076867224 L10.619862041977694,-14.561249341466432 L10.736312987619515,-14.46701992710281 L10.84931543291843,-14.371778100234508 L10.958833081524686,-14.275554452506254 L11.064830756404112,-14.178379890923328 L11.167274411136988,-14.08028562792424 L11.266131140853759,-13.981303171355304 L11.361369192804036,-13.881464314350325 L11.452957976555592,-13.78080112511866 L11.540868073819997,-13.679345936644923 L11.625071247901753,-13.577131336303628 L11.705540452767929,-13.474190155392138 L11.782249841735315,-13.370555458585274 L11.855174775772387,-13.266260533314941 L11.92429183141335,-13.161338879078214 L11.98957880828175,-13.055824196677316 L12.051014736221225,-12.949750377394935 L12.108579882031105,-12.843151492108339 L12.16225575580473,-12.736061780345844 L12.212025116868386,-12.62851563928906 L12.257871979319008,-12.520547612724549 L12.299781617158846,-12.412192379948372 L12.337740569025454,-12.30348474462709 L12.371736642515474,-12.19445962361886 L12.401758918100832,-12.085152035758135 L12.427797752636085,-11.975597090607637 L12.4498447824558,-11.865829977181175 L12.467892926060957,-11.755885952640924 L12.481936386393524,-11.645800330972872 L12.491970652698479,-11.535608471643952 L12.497992501972652,-11.425345768244597 L12.499999999999952,-11.315047637120367 " />
			<path d="M12.499999999999952,-11.315047637120339 L12.497882272447745,-11.20176204571237 L12.491529807354322,-11.088514839587312 L12.480944757166137,-10.975344391021746 L12.466130708483579,-10.86228904628399 L12.4470926808457,-10.749387112641005 L12.423837125029403,-10.636676845378481 L12.396371920863697,-10.524196434838563 L12.364706374559715,-10.41198399347957 L12.328851215557437,-10.300077542962104 L12.288818592890157,-10.188515001265925 L12.244622071067958,-10.077334169841972 L12.196276625481559,-9.96657272080384 L12.1437986373281,-9.85626818416311 L12.087205888060604,-9.7464579351128 L12.026517553362973,-9.637179181363297 L11.961754196652564,-9.528468950535032 L11.892937762112558,-9.420364077612168 L11.82009156725647,-9.312901192461576 L11.743240295027329,-9.206116707421291 L11.66240998543419,-9.100046804962686 L11.577628026728846,-8.994727425430549 L11.488923146125675,-8.890194254865168 L11.396325400067825,-8.786482712910615 L11.299866164042996,-8.683627940813274 L11.19957812195227,-8.581664789514697 L11.09549525503563,-8.480627807842854 L10.987652830357872,-8.380551230805729 L10.876087388858846,-8.281468967991245 L10.760836732972043,-8.183414592077465 L10.641939913815769,-8.08642132745695 L10.519437217961185,-7.990522038979117 L10.39337015378177,-7.895749220814432 L10.263781437388761,-7.802134985444217 L10.13071497815739,-7.709711052779756 L9.99421586384877,-7.6185087394144375 L9.854330345332535,-7.528558948012552 L9.711105820915362,-7.439892156838356 L9.56459082028069,-7.352538409428907 L9.41483498804511,-7.266527304414236 L9.261889066936943,-7.181887985488245 L9.105804880602772,-7.098649131533764 L8.94663531604769,-7.0168389469051 L8.784434305715273,-6.93648515187138 L8.61925680921329,-6.857614973223912 L8.451158794691402,-6.780255135050755 L8.280197219877103,-6.704431849681628 L8.106430012776363,-6.630170808806212 L7.9299160520455265,-6.557497174768877 L7.7507151470410784,-6.486435572042769 L7.568888017554031,-6.417010078886118 L7.3844962732358885,-6.349244219183678 L7.1976023927230255,-6.28316095447596 L7.008269702466658,-6.218782676179029 L6.816562355275537,-6.15613119799748 L6.622545308578639,-6.095227748533157 L6.426284302415224,-6.036092964092133 L6.227845837159725,-5.978746881692378 L6.027297150988984,-5.923208932274483 L5.824706197099525,-5.869497934117759 L5.6201416206825385,-5.81763208646391 L5.413672735664364,-5.767628963350472 L5.205369501220428,-5.7195055076560815 L4.995302498070546,-5.673278025359628 L4.783542904563581,-5.628962180015179 L4.57016247255963,-5.586572987444605 L4.355233503117888,-5.546124810649669 L4.138828821998409,-5.507631354945322 L3.9210217549861057,-5.47110566331584 L3.7018861030452688,-5.4365601119953855 L3.4814961173131334,-5.404006406274491 L3.259926473940911,-5.3734555765338845 L3.0372522487907645,-5.344917974506987 L2.813548891997374,-5.318403269772372 L2.5888922024026937,-5.293920446477361 L2.3633583018725375,-5.271477800293864 L2.137023609503723,-5.251082935607509 L1.909964815730499,-5.232742762940995 L1.6822588563390317,-5.2164634966125565 L1.4539828863987618,-5.202250652630328 L1.225214254119469,-5.190109046823316 L0.9960304746428469,-5.1800427932096245 L0.7665092037775757,-5.172055302602471 L0.5367282116867267,-5.166149281454488 L0.3067653565363681,-5.162326730940666 L0.07669855811439347,-5.160588946280296 L-0.15339422857153856,-5.1609365162980865 L-0.3834350397079993,-5.1633693232246625 L-0.6133459290927686,-5.167886542736462 L-0.8430489945458463,-5.174486644235052 L-1.0724664043055459,-5.183167391365745 L-1.3015204234007314,-5.193925842775361 L-1.5301334399902426,-5.206758353108864 L-1.7582279916606465,-5.221660574244543 L-1.9857267916733012,-5.238627456767315 L-2.212552755151895,-5.257653251679641 L-2.4386290252016405,-5.278731512349508 L-2.6638789989511817,-5.301855096694777 L-2.88822635350843,-5.32701616960318 L-3.1115950718215455,-5.354206205587142 L-3.3339094684362753,-5.383415991672528 L-3.555094215140945,-5.414635630520332 L-3.7750743664904,-5.447854543780254 L-3.993775385200247,-5.48306147567504 L-4.211123167402793,-5.520244496814333 L-4.427044067756164,-5.5593910082368 L-4.641464924398005,-5.600487745679115 L-4.8543130837353665,-5.643520784070365 L-5.0655164250624125,-5.68847554225038 L-5.275003384997538,-5.735336787910361 L-5.482702981731639,-5.784088642754138 L-5.688544839079343,-5.834714587878314 L-5.8924592103250175,-5.887197469369474 L-6.094377001855498,-5.941519504116554 L-6.29422979657152,-5.997662285836407 L-6.4919498770699215,-6.055606791310518 L-6.68747024858876,-6.115333386830766 L-6.880724661707597,-6.176821834852045 L-7.0716476347952035,-6.2400513008494745 L-7.260174476197098,-6.305000360377892 L-7.44624130615546,-6.37164700633124 L-7.629785078453912,-6.439968656399375 L-7.810743601779874,-6.509942160719777 L-7.989055560797243,-6.581543809721559 L-8.164660536922257,-6.6547493421591435 L-8.33749902879552,-6.729533953332847 L-8.507512472443215,-6.8058723034936195 L-8.674643261120726,-6.883738526429072 L-8.838834764831812,-6.963106238227852 " />
			<path d="M-8.485281374238571,5.657523818560179 L-8.485281374238571,3.481553119113956 " />
			<path d="M-6.363961030678928,4.613057882825993 L-8.485281374238571,5.657523818560181 " />
			<path d="M-6.975006648670152,2.7379452480794804 L-8.485281374238571,3.4815531191139573 " />
			<path d="M-15.556349186104047,2.1759706994462236 L-15.556349186104047,4.440892098500626e-16 " />
			<path d="M-8.485281374238571,5.657523818560179 L-15.556349186104047,2.175970699446222 " />
			<path d="M-8.485281374238571,3.481553119113956 L-15.556349186104047,-1.3322676295501878e-15 " />
			<path d="M-15.556349186104047,0.0 L-14.16240242880205,-0.6863319388084357 " />
			<path d="M-8.838834764831843,-6.963106238227914 L-9.053088536893334,-7.0712189500010165 L-9.261889066936993,-7.181887985488269 L-9.46511058133106,-7.295046681800867 L-9.662630667034215,-7.410626876371431 L-9.854330345332581,-7.5285589480125745 L-10.040094143508064,-7.648771858854104 L-10.219810164394797,-7.771193197133582 L-10.393370153781815,-7.895749220814453 L-10.560669565621337,-8.022364902005506 L-10.7216076250034,-8.150963972154852 L-10.876087388858892,-8.281468967991266 L-11.024015804354436,-8.41380127818515 L-11.165303764943939,-8.54788119070107 L-11.299866164043038,-8.683627940813292 L-11.427621946294131,-8.82095975975545 L-11.548494156391081,-8.959793923974981 L-11.662409985434232,-9.100046804962702 L-11.769300814787757,-9.241633919627498 L-11.869102257412955,-9.384469981185779 L-11.961754196652608,-9.528468950535046 L-12.047200822442996,-9.673544088080634 L-12.125390664931796,-9.819608005984392 L-12.196276625481605,-9.966572720803862 L-12.25981600504038,-10.11434970649019 L-12.315970529861763,-10.262849947712944 L-12.364706374559763,-10.411983993479595 L-12.405994182483875,-10.561662011017445 L-12.439809083402462,-10.711793839885557 L-12.466130708483627,-10.862289046284012 L-12.484943202564654,-11.013056977527851 L-12.496235233702553,-11.16400681665287 L-12.5,-11.315047637120305 " />
			<path d="M12.5,-11.315047637120362 L12.497882272447793,-11.201762045712393 L12.49152980735437,-11.088514839587335 L12.480944757166185,-10.97534439102177 L12.466130708483627,-10.862289046284014 L12.447092680845747,-10.749387112641028 L12.42383712502945,-10.636676845378505 L12.396371920863745,-10.524196434838586 L12.364706374559763,-10.411983993479595 L12.328851215557485,-10.300077542962127 L12.288818592890205,-10.188515001265948 L12.244622071068006,-10.077334169841995 L12.196276625481607,-9.966572720803864 L12.143798637328148,-9.856268184163133 L12.087205888060652,-9.746457935112822 L12.026517553363021,-9.63717918136332 L11.961754196652612,-9.528468950535055 L11.892937762112606,-9.420364077612192 L11.820091567256519,-9.312901192461599 L11.743240295027377,-9.206116707421312 L11.662409985434238,-9.100046804962709 L11.577628026728894,-8.994727425430572 L11.488923146125723,-8.890194254865193 L11.396325400067873,-8.78648271291064 L11.299866164043044,-8.683627940813295 L11.199578121952317,-8.58166478951472 L11.095495255035678,-8.480627807842877 L10.98765283035792,-8.380551230805752 L10.876087388858894,-8.281468967991268 L10.760836732972091,-8.183414592077488 L10.641939913815817,-8.086421327456973 L10.519437217961233,-7.99052203897914 L10.393370153781818,-7.895749220814455 L10.26378143738881,-7.80213498544424 L10.130714978157439,-7.709711052779779 L9.994215863848819,-7.618508739414461 L9.854330345332583,-7.528558948012575 L9.71110582091541,-7.439892156838379 L9.564590820280738,-7.35253840942893 L9.414834988045158,-7.266527304414259 L9.261889066936991,-7.1818879854882685 L9.10580488060282,-7.098649131533787 L8.946635316047738,-7.016838946905123 L8.78443430571532,-6.936485151871403 L8.619256809213338,-6.857614973223935 L8.45115879469145,-6.780255135050778 L8.28019721987715,-6.704431849681651 L8.10643001277641,-6.630170808806235 L7.9299160520455745,-6.5574971747689 L7.750715147041126,-6.486435572042792 L7.568888017554079,-6.4170100788861415 L7.3844962732359365,-6.349244219183701 L7.1976023927230735,-6.283160954475983 L7.0082697024667056,-6.218782676179052 L6.816562355275585,-6.156131197997503 L6.622545308578687,-6.09522774853318 L6.426284302415272,-6.036092964092156 L6.227845837159773,-5.978746881692401 L6.027297150989032,-5.923208932274506 L5.824706197099573,-5.869497934117782 L5.6201416206825865,-5.8176320864639335 L5.413672735664412,-5.767628963350495 L5.205369501220476,-5.7195055076561045 L4.995302498070594,-5.673278025359651 L4.783542904563629,-5.628962180015202 L4.570162472559678,-5.586572987444628 L4.355233503117936,-5.546124810649692 L4.138828821998457,-5.507631354945345 L3.9210217549861537,-5.471105663315863 L3.7018861030453167,-5.436560111995409 L3.4814961173131813,-5.404006406274514 L3.259926473940959,-5.373455576533908 L3.0372522487908125,-5.34491797450701 L2.813548891997422,-5.3184032697723955 L2.5888922024027416,-5.293920446477384 L2.3633583018725854,-5.271477800293887 L2.137023609503771,-5.251082935607532 L1.9099648157305467,-5.232742762941018 L1.6822588563390795,-5.21646349661258 L1.4539828863988096,-5.202250652630351 L1.2252142541195168,-5.1901090468233395 L0.9960304746428947,-5.1800427932096476 L0.7665092037776235,-5.1720553026024945 L0.5367282116867745,-5.166149281454511 L0.30676535653641596,-5.1623267309406895 L0.0766985581144413,-5.160588946280319 L-0.1533942285714907,-5.16093651629811 L-0.38343503970795145,-5.163369323224686 L-0.6133459290927208,-5.167886542736485 L-0.8430489945457984,-5.174486644235075 L-1.0724664043054981,-5.183167391365768 L-1.3015204234006836,-5.193925842775384 L-1.530133439990195,-5.206758353108887 L-1.7582279916605987,-5.2216605742445665 L-1.9857267916732535,-5.238627456767338 L-2.212552755151847,-5.257653251679664 L-2.4386290252015925,-5.278731512349531 L-2.663878998951134,-5.3018550966948 L-2.888226353508382,-5.327016169603203 L-3.1115950718214975,-5.3542062055871655 L-3.3339094684362274,-5.3834159916725515 L-3.555094215140897,-5.414635630520355 L-3.775074366490352,-5.447854543780277 L-3.993775385200199,-5.483061475675063 L-4.211123167402745,-5.520244496814356 L-4.427044067756116,-5.559391008236823 L-4.641464924397957,-5.600487745679138 L-4.854313083735319,-5.643520784070388 L-5.0655164250623645,-5.688475542250403 L-5.27500338499749,-5.735336787910384 L-5.482702981731591,-5.784088642754161 L-5.688544839079295,-5.834714587878337 L-5.8924592103249696,-5.8871974693694975 L-6.09437700185545,-5.941519504116577 L-6.294229796571472,-5.99766228583643 L-6.491949877069874,-6.055606791310541 L-6.687470248588712,-6.115333386830789 L-6.880724661707549,-6.176821834852068 L-7.071647634795156,-6.2400513008494976 L-7.26017447619705,-6.305000360377915 L-7.446241306155412,-6.371647006331263 L-7.629785078453864,-6.439968656399398 L-7.810743601779826,-6.5099421607198 L-7.989055560797195,-6.581543809721582 L-8.16466053692221,-6.654749342159167 L-8.337499028795472,-6.72953395333287 L-8.507512472443167,-6.805872303493643 L-8.674643261120679,-6.883738526429095 L-8.838834764831764,-6.9631062382278754 " />
			<path d="M-8.838834764831843,-24.3708718337977 L-9.053088536893334,-24.478984545570803 L-9.261889066936993,-24.589653581058055 L-9.46511058133106,-24.70281227737065 L-9.662630667034215,-24.818392471941216 L-9.854330345332581,-24.93632454358236 L-10.040094143508064,-25.05653745442389 L-10.219810164394797,-25.178958792703366 L-10.393370153781815,-25.30351481638424 L-10.560669565621337,-25.43013049757529 L-10.7216076250034,-25.558729567724637 L-10.876087388858892,-25.68923456356105 L-11.024015804354436,-25.821566873754936 L-11.165303764943939,-25.955646786270854 L-11.299866164043038,-26.091393536383077 L-11.427621946294131,-26.228725355325235 L-11.548494156391081,-26.367559519544766 L-11.662409985434232,-26.507812400532487 L-11.769300814787757,-26.64939951519728 L-11.869102257412955,-26.792235576755562 L-11.961754196652608,-26.93623454610483 L-12.047200822442996,-27.08130968365042 L-12.125390664931796,-27.227373601554177 L-12.196276625481605,-27.374338316373645 L-12.25981600504038,-27.522115302059976 L-12.315970529861763,-27.67061554328273 L-12.364706374559763,-27.81974958904938 L-12.405994182483875,-27.96942760658723 L-12.439809083402462,-28.119559435455344 L-12.466130708483627,-28.270054641853797 L-12.484943202564654,-28.420822573097634 L-12.496235233702553,-28.571772412222657 L-12.5,-28.72281323269009 " />
			<path d="M-12.5,-28.722813232690147 L-12.496235233702553,-28.873854053157636 L-12.484943202564654,-29.02480389228266 L-12.466130708483627,-29.175571823526496 L-12.439809083402462,-29.326067029924953 L-12.405994182483875,-29.476198858793065 L-12.364706374559761,-29.625876876330917 L-12.315970529861765,-29.775010922097565 L-12.259816005040381,-29.923511163320317 L-12.196276625481607,-30.071288149006644 L-12.1253906649318,-30.21825286382611 L-12.047200822442997,-30.36431678172987 L-11.96175419665261,-30.509391919275455 L-11.869102257412958,-30.653390888624724 L-11.769300814787758,-30.796226950183005 L-11.662409985434236,-30.937814064847803 L-11.548494156391085,-31.078066945835523 L-11.427621946294133,-31.216901110055055 L-11.299866164043042,-31.354232928997213 L-11.16530376494394,-31.48997967910944 L-11.024015804354438,-31.624059591625358 L-10.876087388858892,-31.756391901819242 L-10.7216076250034,-31.886896897655657 L-10.560669565621337,-32.015495967805 L-10.393370153781815,-32.14211164899606 L-10.219810164394795,-32.26666767267693 L-10.040094143508062,-32.389089010956404 L-9.854330345332578,-32.509301921797935 L-9.662630667034211,-32.62723399343908 L-9.465110581331055,-32.742814188009646 L-9.261889066936988,-32.85597288432224 L-9.053088536893336,-32.96664191980949 L-8.838834764831843,-33.07475463158259 L-8.619256809213335,-33.18024589658658 L-8.394486935587729,-33.283052170827965 L-8.16466053692221,-33.383111527651344 L-7.929916052045568,-33.48036369504161 L-7.690394882257835,-33.57475009192963 L-7.446241306155417,-33.66621386347924 L-7.1976023927230655,-33.75469991533453 L-6.9446279127450286,-33.84015494680655 L-6.687470248588714,-33.92252748297972 L-6.4262843024152705,-34.00176790571835 L-6.161227402872301,-34.07782848355478 L-5.892459210324972,-34.15066340044101 L-5.620141620682586,-34.22022878334658 L-5.344438667878528,-34.28648272868603 L-5.065516425062373,-34.34938532756011 L-4.783542904563623,-34.40889868979531 L-4.498687956687354,-34.46498696676758 L-4.211123167402751,-34.51761637299615 L-3.9210217549861417,-34.56675520649465 L-3.628558465680779,-34.61237386786719 L-3.3339094684362305,-34.65444487813796 L-3.0372522487907996,-34.6929428953035 L-2.738765501960875,-34.72784472959781 L-2.438629025201604,-34.75912935746098 L-2.137023609503764,-34.78677793420297 L-1.834130930692022,-34.81077380535503 L-1.5301334399902036,-34.83110251670162 L-1.2252142541195097,-34.84775182298717 L-0.9195570449958459,-34.860711695292125 L-0.6133459290927266,-34.869974327074026 L-0.3067653565364033,-34.87553413886982 L-7.654042494670958e-16,-34.877387781656786 L0.3067653565364018,-34.87553413886982 L0.6133459290927251,-34.869974327074026 L0.9195570449958443,-34.860711695292125 L1.2252142541195081,-34.84775182298717 L1.530133439990202,-34.83110251670162 L1.8341309306920204,-34.81077380535503 L2.1370236095037627,-34.78677793420297 L2.4386290252016023,-34.75912935746098 L2.738765501960873,-34.72784472959781 L3.0372522487907982,-34.6929428953035 L3.3339094684362287,-34.65444487813796 L3.628558465680777,-34.61237386786719 L3.9210217549861404,-34.56675520649465 L4.211123167402749,-34.51761637299615 L4.498687956687352,-34.46498696676758 L4.783542904563622,-34.40889868979531 L5.065516425062374,-34.3493853275601 L5.344438667878528,-34.28648272868603 L5.620141620682584,-34.22022878334658 L5.892459210324971,-34.15066340044101 L6.1612274028723,-34.07782848355478 L6.4262843024152705,-34.00176790571835 L6.687470248588713,-33.92252748297972 L6.944627912745024,-33.84015494680655 L7.197602392723063,-33.75469991533453 L7.446241306155412,-33.66621386347924 L7.69039488225783,-33.57475009192963 L7.929916052045567,-33.48036369504161 L8.164660536922211,-33.38311152765134 L8.39448693558773,-33.283052170827965 L8.619256809213336,-33.18024589658658 L8.838834764831843,-33.07475463158259 L9.053088536893334,-32.96664191980949 L9.261889066936986,-32.85597288432224 L9.465110581331054,-32.742814188009646 L9.662630667034213,-32.62723399343908 L9.854330345332581,-32.509301921797935 L10.040094143508064,-32.389089010956404 L10.219810164394797,-32.266667672676924 L10.393370153781817,-32.14211164899606 L10.560669565621339,-32.015495967805 L10.7216076250034,-31.886896897655657 L10.876087388858892,-31.756391901819242 L11.024015804354438,-31.624059591625358 L11.16530376494394,-31.48997967910944 L11.299866164043038,-31.354232928997217 L11.427621946294131,-31.21690111005506 L11.548494156391085,-31.078066945835523 L11.662409985434238,-30.9378140648478 L11.76930081478776,-30.796226950183005 L11.869102257412958,-30.653390888624724 L11.96175419665261,-30.509391919275455 L12.047200822442997,-30.36431678172987 L12.1253906649318,-30.21825286382611 L12.196276625481605,-30.071288149006648 L12.259816005040381,-29.923511163320317 L12.315970529861765,-29.775010922097565 L12.364706374559761,-29.625876876330917 L12.405994182483875,-29.47619885879307 L12.43980908340246,-29.326067029924953 L12.466130708483627,-29.175571823526496 L12.484943202564654,-29.024803892282655 L12.496235233702553,-28.873854053157636 L12.5,-28.722813232690175 " />
			<path d="M12.5,-28.722813232690147 L12.497882272447793,-28.609527641282178 L12.49152980735437,-28.49628043515712 L12.480944757166185,-28.383109986591553 L12.466130708483627,-28.270054641853797 L12.447092680845747,-28.157152708210813 L12.42383712502945,-28.044442440948288 L12.396371920863745,-27.93196203040837 L12.364706374559763,-27.81974958904938 L12.328851215557485,-27.707843138531913 L12.288818592890205,-27.596280596835733 L12.244622071068006,-27.48509976541178 L12.196276625481607,-27.37433831637365 L12.143798637328148,-27.264033779732916 L12.087205888060652,-27.154223530682607 L12.026517553363021,-27.044944776933107 L11.961754196652612,-26.93623454610484 L11.892937762112606,-26.828129673181977 L11.820091567256519,-26.720666788031384 L11.743240295027377,-26.613882302991097 L11.662409985434238,-26.507812400532494 L11.577628026728894,-26.402493021000357 L11.488923146125723,-26.297959850434978 L11.396325400067873,-26.194248308480425 L11.299866164043044,-26.09139353638308 L11.199578121952317,-25.989430385084503 L11.095495255035678,-25.888393403412664 L10.98765283035792,-25.78831682637554 L10.876087388858894,-25.689234563561055 L10.760836732972091,-25.591180187647275 L10.641939913815817,-25.49418692302676 L10.519437217961233,-25.398287634548925 L10.393370153781818,-25.30351481638424 L10.26378143738881,-25.209900581014026 L10.130714978157439,-25.117476648349566 L9.994215863848819,-25.026274334984244 L9.854330345332583,-24.936324543582362 L9.71110582091541,-24.847657752408164 L9.564590820280738,-24.760304004998716 L9.414834988045158,-24.674292899984046 L9.261889066936991,-24.58965358105805 L9.10580488060282,-24.50641472710357 L8.946635316047738,-24.42460454247491 L8.78443430571532,-24.344250747441187 L8.619256809213338,-24.26538056879372 L8.45115879469145,-24.188020730620565 L8.28019721987715,-24.112197445251436 L8.10643001277641,-24.03793640437602 L7.9299160520455745,-23.965262770338686 L7.750715147041126,-23.89420116761258 L7.568888017554079,-23.82477567445593 L7.3844962732359365,-23.757009814753488 L7.1976023927230735,-23.690926550045766 L7.0082697024667056,-23.626548271748838 L6.816562355275585,-23.563896793567288 L6.622545308578687,-23.502993344102965 L6.426284302415272,-23.44385855966194 L6.227845837159773,-23.386512477262187 L6.027297150989032,-23.33097452784429 L5.824706197099573,-23.277263529687566 L5.6201416206825865,-23.22539768203372 L5.413672735664412,-23.17539455892028 L5.205369501220476,-23.12727110322589 L4.995302498070594,-23.081043620929435 L4.783542904563629,-23.036727775584986 L4.570162472559678,-22.99433858301441 L4.355233503117936,-22.95389040621948 L4.138828821998457,-22.91539695051513 L3.9210217549861537,-22.87887125888565 L3.7018861030453167,-22.844325707565194 L3.4814961173131813,-22.8117720018443 L3.259926473940959,-22.78122117210369 L3.0372522487908125,-22.752683570076794 L2.813548891997422,-22.72616886534218 L2.5888922024027416,-22.701686042047168 L2.3633583018725854,-22.679243395863672 L2.137023609503771,-22.658848531177316 L1.9099648157305467,-22.640508358510804 L1.6822588563390795,-22.624229092182365 L1.4539828863988096,-22.610016248200136 L1.2252142541195168,-22.597874642393123 L0.9960304746428947,-22.587808388779433 L0.7665092037776235,-22.57982089817228 L0.5367282116867745,-22.573914877024297 L0.30676535653641596,-22.570092326510476 L0.0766985581144413,-22.568354541850105 L-0.1533942285714907,-22.568702111867893 L-0.38343503970795145,-22.57113491879447 L-0.6133459290927208,-22.57565213830627 L-0.8430489945457984,-22.58225223980486 L-1.0724664043054981,-22.590932986935552 L-1.3015204234006836,-22.60169143834517 L-1.530133439990195,-22.614523948678674 L-1.7582279916605987,-22.62942616981435 L-1.9857267916732535,-22.646393052337125 L-2.212552755151847,-22.665418847249448 L-2.4386290252015925,-22.686497107919315 L-2.663878998951134,-22.709620692264586 L-2.888226353508382,-22.73478176517299 L-3.1115950718214975,-22.76197180115695 L-3.3339094684362274,-22.791181587242335 L-3.555094215140897,-22.82240122609014 L-3.775074366490352,-22.855620139350062 L-3.993775385200199,-22.89082707124485 L-4.211123167402745,-22.92801009238414 L-4.427044067756116,-22.967156603806608 L-4.641464924397957,-23.008253341248924 L-4.854313083735319,-23.051286379640175 L-5.0655164250623645,-23.096241137820186 L-5.27500338499749,-23.14310238348017 L-5.482702981731591,-23.191854238323945 L-5.688544839079295,-23.242480183448123 L-5.8924592103249696,-23.29496306493928 L-6.09437700185545,-23.349285099686362 L-6.294229796571472,-23.405427881406215 L-6.491949877069874,-23.463372386880327 L-6.687470248588712,-23.523098982400576 L-6.880724661707549,-23.584587430421852 L-7.071647634795156,-23.647816896419283 L-7.26017447619705,-23.7127659559477 L-7.446241306155412,-23.779412601901047 L-7.629785078453864,-23.847734251969182 L-7.810743601779826,-23.917707756289584 L-7.989055560797195,-23.989309405291365 L-8.16466053692221,-24.062514937728952 L-8.337499028795472,-24.137299548902654 L-8.507512472443167,-24.21363789906343 L-8.674643261120679,-24.29150412199888 L-8.838834764831764,-24.37087183379766 " />
			<path d="M-7.424621202458789,-25.06718245762047 L-7.604594370990442,-25.157997135509877 L-7.779986816227117,-25.250959125319167 L-7.950692888318133,-25.346012430221748 L-8.116609760308783,-25.443099793661023 L-8.27763749007941,-25.542162733839586 L-8.433679080546815,-25.64314157894647 L-8.584640538091671,-25.74597550310123 L-8.730430929176768,-25.850602562993164 L-8.870962435121966,-25.956959735193646 L-9.006150405002899,-26.0649829541191 L-9.135913406641512,-26.174607150621686 L-9.260173275657769,-26.285766291184547 L-9.37885516255295,-26.398393417697918 L-9.491887577796195,-26.512420687792186 L-9.599202434887113,-26.6277794157036 L-9.700735091368552,-26.744400113648005 L-9.796424387764798,-26.862212533677692 L-9.886212684421757,-26.98114570999612 L-9.970045896226924,-27.101128001705074 L-10.047873525188233,-27.22208713595846 L-10.11964869085216,-27.343950251496754 L-10.185328158542752,-27.46664394253591 L-10.244872365404591,-27.590094302984266 L-10.298245444233961,-27.71422697096078 L-10.345415245083924,-27.838967173587893 L-10.386353354630243,-27.96423977203188 L-10.421035113286496,-28.089969306763674 L-10.44943963005811,-28.21608004301289 L-10.47154979512629,-28.342496016387592 L-10.487352290154353,-28.469141078632415 L-10.496837596310188,-28.595938943497433 L-10.500000000000043,-28.72281323269008 " />
			<path d="M-10.500000000000043,-28.722813232690125 L-10.496837596310188,-28.849687521882817 L-10.487352290154353,-28.976485386747836 L-10.47154979512629,-29.103130448992662 L-10.44943963005811,-29.229546422367363 L-10.421035113286496,-29.355657158616577 L-10.386353354630241,-29.481386693348373 L-10.345415245083926,-29.606659291792354 L-10.298245444233963,-29.731399494419467 L-10.244872365404593,-29.855532162395985 L-10.185328158542754,-29.978982522844333 L-10.119648690852161,-30.10167621388349 L-10.047873525188235,-30.223539329421786 L-9.970045896226928,-30.34449846367517 L-9.88621268442176,-30.464480755384127 L-9.7964243877648,-30.583413931702555 L-9.700735091368553,-30.70122635173224 L-9.599202434887113,-30.817847049676647 L-9.491887577796197,-30.93320577758806 L-9.378855162552954,-31.04723304768233 L-9.26017327565777,-31.1598601741957 L-9.135913406641512,-31.271019314758565 L-9.006150405002899,-31.38064351126115 L-8.870962435121966,-31.488666730186605 L-8.730430929176768,-31.595023902387087 L-8.584640538091671,-31.699650962279023 L-8.433679080546815,-31.80248488643378 L-8.277637490079409,-31.90346373154067 L-8.11660976030878,-32.00252667171923 L-7.950692888318129,-32.0996140351585 L-7.779986816227112,-32.19466734006109 L-7.604594370990445,-32.28762932987037 L-7.424621202458791,-32.37844400775978 L-7.240175719739244,-32.46705667036312 L-7.051369025893735,-32.553413940725896 L-6.858314851014699,-32.63746380045753 L-6.66112948371832,-32.719155621065354 L-6.459931701096624,-32.79844019445129 L-6.254842697170593,-32.87526976255297 L-6.045986009887417,-32.949598046111404 L-5.833487446705867,-33.0213802725479 L-5.617475008814563,-33.09057320293336 L-5.39807881402887,-33.15713515803382 L-5.175431018412776,-33.221026043416416 L-4.94966573667302,-33.28220737360085 L-4.720918961373414,-33.34064229524152 L-4.489328481018005,-33.39629560932667 L-4.255033797052437,-33.44913379238089 L-4.018176039833486,-33.49912501665846 L-3.778897883617419,-33.54623916931517 L-3.5373434606183527,-33.590447870547166 L-3.2936582741884015,-33.631724490685905 L-3.047989111171897,-33.67004416623884 L-2.800483953486476,-33.70538381486629 L-2.551291888984314,-33.73772214928534 L-2.3005630216471773,-33.76703969009256 L-2.04844838116939,-33.79331877749762 L-1.7950998319832043,-33.8165435819609 L-1.5406699817813407,-33.836700113728625 L-1.2853120895918133,-33.853776231259765 L-1.0291799734604306,-33.86776164853963 L-0.7724279177965528,-33.87864794127579 L-0.5152105804379327,-33.88642855197258 L-0.25768289949062106,-33.89109879388105 L-4.2947510776328003e-14,-33.8926558538221 L0.2576828994905352,-33.89109879388105 L0.5152105804378467,-33.88642855197258 L0.772427917796467,-33.87864794127579 L1.0291799734603444,-33.86776164853963 L1.2853120895917272,-33.853776231259765 L1.5406699817812548,-33.836700113728625 L1.7950998319831184,-33.8165435819609 L2.0484483811693037,-33.79331877749762 L2.300563021647091,-33.76703969009256 L2.5512918889842284,-33.73772214928534 L2.80048395348639,-33.70538381486629 L3.0479891111718107,-33.67004416623884 L3.293658274188316,-33.631724490685905 L3.537343460618267,-33.590447870547166 L3.7788978836173337,-33.54623916931517 L4.018176039833399,-33.49912501665846 L4.255033797052351,-33.44913379238089 L4.489328481017921,-33.39629560932667 L4.720918961373328,-33.34064229524152 L4.949665736672933,-33.282207373600855 L5.175431018412689,-33.22102604341642 L5.398078814028785,-33.15713515803382 L5.617475008814476,-33.09057320293336 L5.833487446705778,-33.0213802725479 L6.04598600988733,-32.949598046111404 L6.254842697170503,-32.87526976255297 L6.459931701096535,-32.79844019445129 L6.661129483718234,-32.719155621065354 L6.858314851014614,-32.63746380045753 L7.051369025893651,-32.553413940725896 L7.2401757197391605,-32.46705667036312 L7.424621202458706,-32.37844400775978 L7.604594370990359,-32.28762932987038 L7.779986816227026,-32.19466734006109 L7.950692888318043,-32.0996140351585 L8.116609760308696,-32.00252667171923 L8.277637490079325,-31.903463731540665 L8.43367908054673,-31.80248488643378 L8.584640538091588,-31.69965096227902 L8.730430929176684,-31.595023902387087 L8.870962435121882,-31.488666730186605 L9.006150405002813,-31.38064351126115 L9.135913406641427,-31.271019314758565 L9.260173275657685,-31.159860174195703 L9.378855162552867,-31.04723304768233 L9.49188757779611,-30.933205777588064 L9.599202434887028,-30.81784704967665 L9.700735091368468,-30.70122635173224 L9.796424387764716,-30.583413931702555 L9.886212684421675,-30.464480755384127 L9.970045896226843,-30.34449846367517 L10.04787352518815,-30.223539329421783 L10.119648690852076,-30.10167621388349 L10.185328158542669,-29.978982522844333 L10.244872365404506,-29.855532162395985 L10.298245444233878,-29.73139949441947 L10.34541524508384,-29.606659291792358 L10.386353354630156,-29.481386693348373 L10.421035113286411,-29.35565715861658 L10.449439630058023,-29.229546422367363 L10.471549795126204,-29.10313044899266 L10.487352290154268,-28.976485386747832 L10.496837596310103,-28.849687521882817 L10.499999999999957,-28.72281323269015 " />
			<path d="M10.499999999999957,-28.722813232690125 L10.498221108856104,-28.627653335907432 L10.492885038177628,-28.532525682762383 L10.483993596019552,-28.437462505967307 L10.471549795126204,-28.342496016387592 L10.455557851910385,-28.247658392127484 L10.436023185024697,-28.152981767626965 L10.412952413525502,-28.058498222773434 L10.386353354630158,-27.96423977203188 L10.356235021068244,-27.87023835359721 L10.32260761802773,-27.776525818572416 L10.285482539697083,-27.683133920176296 L10.244872365404508,-27.590094302984266 L10.200790855355601,-27.49743849220605 L10.153252945970905,-27.405197883003794 L10.102274744824895,-27.313403729854212 L10.047873525188152,-27.222087135958468 L9.990067720174546,-27.131279042703262 L9.928876916495433,-27.041010219176766 L9.864321847822954,-26.951311251742926 L9.796424387764718,-26.862212533677695 L9.725207542452228,-26.773744254870703 L9.650695442745564,-26.68593639159578 L9.57291333605697,-26.59881869635396 L9.491887577796113,-26.51242068779219 L9.407645622439905,-26.426771640701386 L9.320216014229926,-26.34190057609704 L9.22962837750061,-26.257836251385854 L9.135913406641428,-26.174607150621686 L9.039102855696514,-26.092241474854113 L8.939229527605242,-26.01076713257288 L8.836327263087393,-25.9302117302515 L8.730430929176684,-25.850602562993164 L8.621576407406558,-25.771966605282184 L8.509800581652206,-25.694330501844036 L8.395141325632965,-25.61772055861717 L8.277637490079327,-25.542162733839586 L8.157328889568902,-25.46768262925326 L8.034256289035778,-25.394305481429324 L7.90846138995789,-25.322056153216998 L7.77998681622703,-25.250959125319167 L7.648876099706326,-25.1810384879974 L7.515173665480058,-25.112317932909324 L7.378924816800827,-25.044820745081 L7.240175719739161,-24.978569795017126 L7.0989733875407754,-24.913587530951673 L6.955365664696764,-24.849895971241608 L6.809401210732142,-24.78751669690626 L6.6611294837182395,-24.7264708443149 L6.510600723514504,-24.666779098024968 L6.357865934745384,-24.60846168377338 L6.202976869518144,-24.55153836162333 L6.045986009887339,-24.496028419268846 L5.886946550071991,-24.441950665499427 L5.725912378431449,-24.389323423826923 L5.398078814028786,-24.288491307346433 L5.062929606830744,-24.193668720619605 L4.7209189613733304,-24.104984170138728 L4.372510381025156,-24.02255784394015 L4.018176039833406,-23.94650144872179 L3.6583961426190235,-23.876918058454763 L3.293658274188327,-23.813901974694346 L2.92445673854303,-23.757538598779615 L2.55129188898424,-23.70790431609491 L2.174669450018261,-23.665066392550024 L1.7950998319831253,-23.62908288341935 L1.4130974393247844,-23.60000255466359 L1.0291799734603517,-23.577864816840627 L0.6438677311731614,-23.562699671695118 L0.2576828994905471,-23.5545276714992 L-0.12885115200009448,-23.553359891199435 L-0.5152105804379278,-23.55919791340767 L-0.9008717796166608,-23.572033826256266 L-1.2853120895918062,-23.591850234120486 L-1.6680105050055754,-23.618620281193586 L-2.04844838116938,-23.652307687882626 L-2.4261101369470834,-23.69286679997571 L-2.800483953486473,-23.740242650513963 L-3.1710624678519377,-23.794371034284456 L-3.5373434606183483,-23.85517859483308 L-3.8988305364943265,-23.922582923879496 L-4.2550337970524295,-23.99649267299936 L-4.605470504654579,-24.076807677422515 L-4.949665736673017,-24.1634190917794 L-5.28715302912008,-24.256209537611625 L-5.61747500881456,-24.355053262446884 L-5.940184013227974,-24.4598163102226 L-6.098546560005564,-24.51437352022647 L-6.254842697170588,-24.570356702827283 L-6.409019465901289,-24.627746888884516 L-6.561024625495097,-24.686524632513652 L-6.710806671069687,-24.74667001767515 L-6.858314851014699,-24.808162664922722 L-7.003499184188239,-24.870981738308632 L-7.146310476852303,-24.93510595244368 L-7.286700339341413,-25.000513579709462 L-7.424621202458725,-25.067182457620437 " />
			<path d="M16.000000000000004,-1.827815387534828 L16.000000000000004,0.0 " />
			<path d="M-16.000000000000004,-4.351941398892446 L-16.000000000000004,0.0 " />
			<path d="M14.100000000000001,-11.315047637120362 L14.100000000000001,-4.351941398892446 " />
			<path d="M-14.100000000000001,-11.315047637120362 L-14.100000000000001,-4.351941398892446 " />
			<path d="M12.500000000000002,-28.722813232690147 L12.500000000000002,-11.315047637120362 " />
			<path d="M-12.500000000000002,-28.722813232690147 L-12.500000000000002,-11.315047637120362 " />

       </g>
    </g>
    
</svg>
