<?xml version="1.0" encoding="UTF-8" standalone="no"?>
<svg
   xmlns:svg="http://www.w3.org/2000/svg"
   xmlns="http://www.w3.org/2000/svg"
   width="800.0"
   height="800.0"

>
    <g transform="scale(17.291066232590584, -17.291066232590584)   translate(4.013333340000001,-18.31333344)" stroke-width="0.057833333500000014"  fill="none">
       <!-- hidden lines -->
       <g  stroke="rgb(180,180,180)" fill="none" stroke-dasharray="0.057833333500000014,0.057833333500000014" >

       </g>

       <!-- solid lines -->
       <g  stroke="rgb(40,40,40)" fill="none">
			<path d="M0.0,0.0 L0.0,-1.7914316176529257 L0.0,-3.5603349433010303 L0.0,-5.2844649912826736 L0.0,-6.94213982588093 L0.0,-8.512513224245385 L0.0,-9.975836829739736 L0.0,-11.31370849898476 L0.0,-12.509303719488477 L0.0,-13.547587187652546 L0.0,-14.415501886438706 L0.0,-15.102133284933881 L0.0,-15.598846594909178 L0.0,-15.899395358291882 L0.0,-15.999999999999998 " />
			<path d="M0.0,16.0 L0.0,15.899395358291882 L0.0,15.598846594909178 L0.0,15.102133284933881 L0.0,14.415501886438708 L0.0,13.547587187652548 L0.0,12.509303719488479 L0.0,11.313708498984763 L0.0,9.97583682973974 L0.0,8.512513224245389 L0.0,6.9421398258809335 L0.0,5.284464991282677 L0.0,3.5603349433010343 L0.0,1.7914316176529295 L0.0,1.4566126083082054e-13 " />
			<path d="M5.0,16.0 L5.0,15.899395358291882 L5.0,15.598846594909178 L5.0,15.102133284933881 L5.0,14.415501886438708 L5.0,13.547587187652548 L5.0,12.509303719488479 L5.0,11.313708498984763 L5.0,9.97583682973974 L5.0,8.512513224245389 L5.0,6.9421398258809335 L5.0,5.284464991282677 L5.0,3.5603349433010343 L5.0,1.7914316176529295 L5.0,1.4566126083082054e-13 " />
			<path d="M5.0,0.0 L5.0,-1.7914316176529257 L5.0,-3.5603349433010303 L5.0,-5.2844649912826736 L5.0,-6.94213982588093 L5.0,-8.512513224245385 L5.0,-9.975836829739736 L5.0,-11.31370849898476 L5.0,-12.509303719488477 L5.0,-13.547587187652546 L5.0,-14.415501886438706 L5.0,-15.102133284933881 L5.0,-15.598846594909178 L5.0,-15.899395358291882 L5.0,-15.999999999999998 " />
			<path d="M13.0,0.0 L13.0,-1.5786991130566408 L13.0,-3.137545168784033 L13.0,-4.656934773567856 L13.0,-6.11776072155757 L13.0,-7.501652278866246 L13.0,-8.791206206208141 L13.0,-9.970205614730318 L13.0,-11.02382390279922 L13.0,-11.938811209118805 L13.0,-12.70366103742411 L13.0,-13.308754957347983 L13.0,-13.746483561763712 L13.0,-14.01134215949472 L13.0,-14.099999999999998 " />
			<path d="M13.0,14.1 L13.0,14.01134215949472 L13.0,13.746483561763712 L13.0,13.308754957347983 L13.0,12.70366103742411 L13.0,11.938811209118807 L13.0,11.023823902799222 L13.0,9.970205614730322 L13.0,8.791206206208145 L13.0,7.501652278866248 L13.0,6.1177607215575724 L13.0,4.656934773567859 L13.0,3.1375451687840363 L13.0,1.5786991130566441 L13.0,1.283417816466681e-13 " />
			<path d="M0.0,2.5 L-1.7000000000000002,2.5 " />
			<path d="M0.0,-2.5 L-1.7000000000000002,-2.5 " />
			<path d="M-1.7000000000000002,2.5 L-1.7000000000000002,-2.5 " />
			<path d="M2.3,5.0 L4.8,5.0 " />
			<path d="M2.3,-5.0 L4.8,-5.0 " />
			<path d="M2.3,5.0 L2.3,-5.0 " />
			<path d="M4.8,5.0 L4.8,-5.0 " />
			<path d="M33.0,0.0 L33.0,-1.3995559512913482 L33.0,-2.78151167445393 L33.0,-4.128488274439588 L33.0,-5.423546738969477 L33.0,-6.6504009564417075 L33.0,-7.793622523234169 L33.0,-8.838834764831843 L33.0,-9.772893530850373 L33.0,-10.584052490353551 L33.0,-11.262110848780239 L33.0,-11.798541628854595 L33.0,-12.186598902272795 L33.0,-12.421402623665532 L33.0,-12.499999999999998 " />
			<path d="M33.0,12.5 L33.0,12.421402623665532 L33.0,12.186598902272795 L33.0,11.798541628854595 L33.0,11.26211084878024 L33.0,10.584052490353553 L33.0,9.772893530850373 L33.0,8.838834764831846 L33.0,7.793622523234172 L33.0,6.65040095644171 L33.0,5.423546738969479 L33.0,4.128488274439592 L33.0,2.781511674453933 L33.0,1.3995559512913511 L33.0,1.1368683772161603e-13 " />
			<path d="M5.0,16.0 L0.0,16.0 " />
			<path d="M5.0,-16.0 L0.0,-16.0 " />
			<path d="M13.0,14.1 L5.0,14.1 " />
			<path d="M13.0,-14.1 L5.0,-14.1 " />
			<path d="M33.0,12.5 L13.0,12.5 " />
			<path d="M33.0,-12.5 L13.0,-12.5 " />

       </g>
    </g>
    
</svg>
