<?xml version="1.0" encoding="UTF-8" standalone="no"?>
<svg
   xmlns:svg="http://www.w3.org/2000/svg"
   xmlns="http://www.w3.org/2000/svg"
   width="800.0"
   height="800.0"

>
    <g transform="scale(15.999999957333333, -15.999999957333333)   translate(6.000000006666667,-20.500000006666667)" stroke-width="0.06250000016666667"  fill="none">
       <!-- hidden lines -->
       <g  stroke="rgb(180,180,180)" fill="none" stroke-dasharray="0.06250000016666667,0.06250000016666667" >

       </g>

       <!-- solid lines -->
       <g  stroke="rgb(40,40,40)" fill="none">
			<path d="M0.0,18.0 L6.0,18.0 " />
			<path d="M6.0,18.0 L6.0,-18.0 " />
			<path d="M0.0,-18.0 L6.0,-18.0 " />
			<path d="M0.0,18.0 L0.0,-18.0 " />
			<path d="M14.0,0.0 L14.0,-1.5786991130566408 L14.0,-3.137545168784033 L14.0,-4.656934773567856 L14.0,-6.11776072155757 L14.0,-7.501652278866246 L14.0,-8.791206206208141 L14.0,-9.970205614730318 L14.0,-11.02382390279922 L14.0,-11.938811209118805 L14.0,-12.70366103742411 L14.0,-13.308754957347983 L14.0,-13.746483561763712 L14.0,-14.01134215949472 L14.0,-14.099999999999998 " />
			<path d="M14.0,14.1 L14.0,14.01134215949472 L14.0,13.746483561763712 L14.0,13.308754957347983 L14.0,12.70366103742411 L14.0,11.938811209118807 L14.0,11.023823902799222 L14.0,9.970205614730322 L14.0,8.791206206208145 L14.0,7.501652278866248 L14.0,6.1177607215575724 L14.0,4.656934773567859 L14.0,3.1375451687840363 L14.0,1.5786991130566441 L14.0,1.283417816466681e-13 " />
			<path d="M-3.5,-2.5 L0.0,-2.5 " />
			<path d="M-3.5,2.5 L0.0,2.5 " />
			<path d="M-3.5,2.5 L-3.5,-2.5 " />
			<path d="M34.0,0.0 L34.0,-1.3995559512913482 L34.0,-2.78151167445393 L34.0,-4.128488274439588 L34.0,-5.423546738969477 L34.0,-6.6504009564417075 L34.0,-7.793622523234169 L34.0,-8.838834764831843 L34.0,-9.772893530850373 L34.0,-10.584052490353551 L34.0,-11.262110848780239 L34.0,-11.798541628854595 L34.0,-12.186598902272795 L34.0,-12.421402623665532 L34.0,-12.499999999999998 " />
			<path d="M34.0,12.5 L34.0,12.421402623665532 L34.0,12.186598902272795 L34.0,11.798541628854595 L34.0,11.26211084878024 L34.0,10.584052490353553 L34.0,9.772893530850373 L34.0,8.838834764831846 L34.0,7.793622523234172 L34.0,6.65040095644171 L34.0,5.423546738969479 L34.0,4.128488274439592 L34.0,2.781511674453933 L34.0,1.3995559512913511 L34.0,1.1368683772161603e-13 " />
			<path d="M14.0,14.1 L6.0,14.1 " />
			<path d="M14.0,-14.1 L6.0,-14.1 " />
			<path d="M34.0,12.5 L14.0,12.5 " />
			<path d="M34.0,-12.5 L14.0,-12.5 " />

       </g>
    </g>
    
</svg>
