<?xml version="1.0" encoding="UTF-8" standalone="no"?>
<svg
   xmlns:svg="http://www.w3.org/2000/svg"
   xmlns="http://www.w3.org/2000/svg"
   width="800.0"
   height="800.0"

>
    <g transform="scale(15.999999957333333, -15.999999957333333)   translate(36.50000010666667,-20.500000006666667)" stroke-width="0.06250000016666667"  fill="none">
       <!-- hidden lines -->
       <g  stroke="rgb(180,180,180)" fill="none" stroke-dasharray="0.06250000016666667,0.06250000016666667" >

       </g>

       <!-- solid lines -->
       <g  stroke="rgb(40,40,40)" fill="none">
			<path d="M0.0,-18.0 L-6.0,-18.0 " />
			<path d="M0.0,-18.0 L0.0,18.0 " />
			<path d="M0.0,18.0 L-6.0,18.0 " />
			<path d="M-6.0,-18.0 L-6.0,18.0 " />
			<path d="M-6.0,14.1 L-14.0,14.1 " />
			<path d="M-14.0,-14.1 L-14.0,-13.746483561763712 L-14.0,-12.70366103742411 L-14.0,-11.023823902799222 L-14.0,-8.791206206208145 L-14.0,-6.117760721557572 L-14.0,-3.1375451687840354 L-14.0,-2.5901279801966517e-15 L-14.0,3.1375451687840306 L-14.0,6.117760721557567 L-14.0,8.791206206208141 L-14.0,11.023823902799219 L-14.0,12.703661037424109 L-14.0,13.74648356176371 L-14.0,14.099999999999985 " />
			<path d="M3.5,-15.0 L0.0,-15.0 " />
			<path d="M3.5,-15.0 L3.5,-11.0 " />
			<path d="M3.5,-11.0 L0.0,-11.0 " />
			<path d="M-14.0,12.5 L-34.0,12.5 " />
			<path d="M-34.0,-12.5 L-34.0,-12.186598902272795 L-34.0,-11.262110848780239 L-34.0,-9.772893530850373 L-34.0,-7.793622523234172 L-34.0,-5.4235467389694785 L-34.0,-2.7815116744539323 L-34.0,-2.296212748401287e-15 L-34.0,2.781511674453928 L-34.0,5.423546738969474 L-34.0,7.793622523234167 L-34.0,9.772893530850371 L-34.0,11.262110848780239 L-34.0,12.186598902272793 L-34.0,12.499999999999988 " />
			<path d="M-14.0,-14.1 L-6.0,-14.1 " />
			<path d="M-34.0,-12.5 L-14.0,-12.5 " />

       </g>
    </g>
    
</svg>
