<?xml version="1.0" encoding="UTF-8" standalone="no"?>
<svg
   xmlns:svg="http://www.w3.org/2000/svg"
   xmlns="http://www.w3.org/2000/svg"
   width="800.0"
   height="800.0"

>
    <g transform="scale(14.999999925, -14.999999925)   translate(40.66666678,-18.666666780000018)" stroke-width="0.066666667"  fill="none">
       <!-- hidden lines -->
       <g  stroke="rgb(180,180,180)" fill="none" stroke-dasharray="0.066666667,0.066666667" >

       </g>

       <!-- solid lines -->
       <g  stroke="rgb(40,40,40)" fill="none">
			<path d="M0.0,16.0 L-10.0,16.0 " />
			<path d="M0.0,-16.0 L0.0,-15.598846594909178 L0.0,-14.415501886438706 L0.0,-12.509303719488479 L0.0,-9.97583682973974 L0.0,-6.942139825880933 L0.0,-3.5603349433010334 L0.0,-2.9391523179536475e-15 L0.0,3.5603349433010276 L0.0,6.942139825880927 L0.0,9.975836829739734 L0.0,12.509303719488475 L0.0,14.415501886438705 L0.0,15.598846594909176 L0.0,15.999999999999984 " />
			<path d="M-10.0,-16.0 L-10.0,-15.598846594909178 L-10.0,-14.415501886438706 L-10.0,-12.509303719488479 L-10.0,-9.97583682973974 L-10.0,-6.942139825880933 L-10.0,-3.5603349433010334 L-10.0,-2.9391523179536475e-15 L-10.0,3.5603349433010276 L-10.0,6.942139825880927 L-10.0,9.975836829739734 L-10.0,12.509303719488475 L-10.0,14.415501886438705 L-10.0,15.598846594909176 L-10.0,15.999999999999984 " />
			<path d="M-10.0,14.1 L-18.0,14.1 " />
			<path d="M-18.0,-14.1 L-18.0,-13.746483561763712 L-18.0,-12.70366103742411 L-18.0,-11.023823902799222 L-18.0,-8.791206206208145 L-18.0,-6.117760721557572 L-18.0,-3.1375451687840354 L-18.0,-2.5901279801966517e-15 L-18.0,3.1375451687840306 L-18.0,6.117760721557567 L-18.0,8.791206206208141 L-18.0,11.023823902799219 L-18.0,12.703661037424109 L-18.0,13.74648356176371 L-18.0,14.099999999999985 " />
			<path d="M2.0,11.0 L0.0,11.0 " />
			<path d="M2.0,-11.0 L2.0,-10.72420703400006 L2.0,-9.910657546926611 L2.0,-8.600146307148329 L2.0,-6.858387820446071 L2.0,-4.772721130293141 L2.0,-2.4477302735194604 L2.0,-2.0206672185931327e-15 L2.0,2.4477302735194564 L2.0,4.772721130293138 L2.0,6.858387820446067 L2.0,8.600146307148327 L2.0,9.91065754692661 L2.0,10.72420703400006 L2.0,10.99999999999999 " />
			<path d="M-18.0,12.5 L-38.0,12.5 " />
			<path d="M-38.0,-12.5 L-38.0,-12.186598902272795 L-38.0,-11.262110848780239 L-38.0,-9.772893530850373 L-38.0,-7.793622523234172 L-38.0,-5.4235467389694785 L-38.0,-2.7815116744539323 L-38.0,-2.296212748401287e-15 L-38.0,2.781511674453928 L-38.0,5.423546738969474 L-38.0,7.793622523234167 L-38.0,9.772893530850371 L-38.0,11.262110848780239 L-38.0,12.186598902272793 L-38.0,12.499999999999988 " />
			<path d="M-10.0,-16.0 L0.0,-16.0 " />
			<path d="M-18.0,-14.1 L-10.0,-14.1 " />
			<path d="M0.0,-11.0 L2.0,-11.0 " />
			<path d="M-38.0,-12.5 L-18.0,-12.5 " />

       </g>
    </g>
    
</svg>
