<?xml version="1.0" encoding="UTF-8" standalone="no"?>
<svg
   xmlns:svg="http://www.w3.org/2000/svg"
   xmlns="http://www.w3.org/2000/svg"
   width="800.0"
   height="800.0"

>
    <g transform="scale(11.798849348607792, -11.798849348607792)   translate(21.39016109267637,-13.272471742715624)" stroke-width="0.0847540273169091"  fill="none">
       <!-- hidden lines -->
       <g  stroke="rgb(180,180,180)" fill="none" stroke-dasharray="0.0847540273169091,0.0847540273169091" >

       </g>

       <!-- solid lines -->
       <g  stroke="rgb(40,40,40)" fill="none">
			<path d="M-12.727922061357852,6.266795614405125 L-13.0364474931264,6.111113309451857 L-13.33712025638927,5.951749898350213 L-13.629759237116726,5.788801375660073 L-13.91418816052927,5.6223658954784606 L-14.190235697278917,5.452543712315213 L-14.45773556665161,5.2794371207034105 L-14.716526636728506,5.103150393580964 L-14.966453021445814,4.923789719480507 L-15.207364174494726,4.741463138565393 L-15.439114980004897,4.556280477550334 L-15.551511410188555,4.4626529101047865 L-15.661565839956804,4.368353283545898 L-15.76926169551732,4.273395799050573 L-15.874582758270387,4.177794756866704 L-15.977513167251365,4.081564554159588 L-16.078037421519273,3.984719682843782 L-16.17614038249117,3.887274727400691 L-16.271807276221978,3.7892443626821803 L-16.365023695629397,3.690643351700587 L-16.45577560266355,3.591486543405473 L-16.54404933042104,3.491788870447447 L-16.629831585203156,3.3915653469293487 L-16.713109448517873,3.2908310661451603 L-16.793870379025297,3.1896011983070314 L-16.87210221442635,3.0878909882607126 L-16.947793173294368,2.9857157531897247 L-17.020931856849376,2.8830908803086324 L-17.091507250674653,2.7800318245457993 L-17.159508726375485,2.676554106215951 L-17.224926043179757,2.572673308682853 L-17.287749349480176,2.4684050760125045 L-17.347969184317915,2.3637651106172073 L-17.405576478807337,2.2587691708908633 L-17.460562557501788,2.1534330688357968 L-17.51291913970008,2.047772667681505 L-17.56263834069351,1.9418038794957602 L-17.609712672953293,1.8355426627882871 L-17.654135047258144,1.729005020107447 L-17.695898773761893,1.6222069956303589 L-17.734997563000938,1.515164672746683 L-17.77142552684145,1.4078941716364972 L-17.80517717936606,1.300411646842705 L-17.83624743770004,1.1927332848381957 L-17.86463162277678,1.0848753015882 L-17.89032546004241,0.9768539401082699 L-17.913325080099543,0.8686854680181185 L-17.933627019290004,0.76038617509176 L-17.951228220216425,0.6519723708043449 L-17.966126032202684,0.5434603818760295 L-17.978318211693104,0.43486654981321593 L-17.98780292259029,0.32620722844756533 L-17.994578736531675,0.21749878147318713 L-17.9986446331046,0.10875757998234248 L-18.0,8.088629612051397e-14 " />
			<path d="M18.0,-1.0853539230968291e-15 L17.996950472324823,0.16313125162747633 L17.98780292259029,0.3262072284475581 L17.972560450319307,0.489172674381974 L17.951228220216425,0.6519723708043417 L17.923813460417875,0.8145511552502406 L17.89032546004241,0.9768539401082744 L17.85077556604379,1.1388257312857566 L17.80517717936606,1.3004116468427056 L17.75354575040278,1.4615569355878577 L17.695898773761897,1.6222069956303558 L17.63225578233793,1.7823073928808488 L17.562638340693514,1.941803879495757 L17.48707003775253,2.1006424122584106 L17.40557647880734,2.2587691708908566 L17.31818527684275,2.4161305762901386 L17.22492604317976,2.5726733086828424 L17.125830377442153,2.7283443256917663 L17.020931856849387,2.883090880308618 L16.910266024839423,3.03686053876663 L16.793870379025304,3.1896011983070207 L16.671784358489607,3.3412611048332983 L16.54404933042104,3.491788870447444 L16.410708576097736,3.641133490862 L16.27180727622198,3.789244362682174 L16.12739249561134,3.9360713005521246 L15.977513167251375,4.081564554159578 L15.822220075715405,4.225674825093037 L15.661565839956806,4.368353283545895 L15.495604895479811,4.509551584861738 L15.324393475894775,4.64922188591528 L15.147989593864176,4.78731686132336 L14.966453021445819,4.923789719480506 L14.779845269839885,5.0585942184136155 L14.588229568546712,5.191684681450439 L14.391670843942299,5.323016012696498 L14.19023569727892,5.452543712315212 L13.98399238211819,5.580223891606055 L13.773010781204263,5.7060132878756615 L13.557362382785028,5.829869279096788 L13.337120256389268,5.951749898350214 L13.112359028068061,6.0716138480446675 L12.883154855108742,6.189420513909944 L12.64958540023006,6.305129978758501 L12.411729805267207,6.418703036010855 L12.169668664355688,6.530101202980201 L11.923483996623096,6.639286733911744 L11.673259218398032,6.746222632772343 L11.419079114945626,6.850872665786104 L11.161029811739223,6.953201373711701 L10.899198745277873,7.053174083857278 L10.63367463345975,7.150756921828791 L10.364547445521225,7.245916823007905 L10.091908371552057,7.338621543755486 L9.815849791596843,7.428839672336917 L9.536465244353309,7.516540639565542 L9.253849395477992,7.601694729160616 L8.968098005510072,7.684273087816264 L8.679307897424206,7.7642477349780314 L8.387576923823385,7.841591572323715 L8.093003933782924,7.916278392945257 L7.795688739356753,7.988282890228609 L7.495732081757485,8.05758066642853 L7.193235597221655,8.124148240935424 L6.888301782571626,8.18796305823143 L6.581033960485938,8.249003495533056 L6.271536244489827,8.307248870117764 L5.959913503677778,8.362679446332024 L5.646271327180061,8.41527644227848 L5.330715988385256,8.465022036179933 L5.013354408930981,8.51189937241802 L4.6942941224749815,8.555892567244493 L4.3736432382587695,8.596986714163226 L4.0515104044762875,8.635167888981071 L3.7280047714599482,8.670423154525889 L3.403235954696523,8.702740565030124 L3.0773139976854305,8.732109170178475 L2.7503493346519874,8.758519018818255 L2.4224527531282747,8.781961162331205 L2.0937353564142858,8.802427657665616 L1.764308525932104,8.819911570027713 L1.4342838834857685,8.83440697523143 L1.103773253439778,8.84590896170573 L0.7728886248289554,8.854413632158826 L0.44174211341243896,8.859918104898728 L0.11044592368479549,8.862420514809662 L-0.2208876891429466,8.861920013984044 L-0.5521464571794501,8.858416772009774 L-0.8832181378935179,8.851911975912781 L-1.2139905521459498,8.842407829754812 L-1.5443516221999174,8.829907553886615 L-1.8741894096969847,8.814415383856769 L-2.203392153585881,8.795936568976524 L-2.5318483079912624,8.774477370541145 L-2.859446580009485,8.750045059708356 L-3.1860759674186596,8.722647915034605 L-3.5116257962902937,8.692295219669996 L-3.8359857584896324,8.658997258212809 L-4.159045949052071,8.622765313224708 L-4.480696903422956,8.583611661407803 L-4.800829634548167,8.541549569444847 L-5.119335669802892,8.49659328950401 L-5.436107087746106,8.448758054409721 L-5.7510365546882865,8.39806007248123 L-6.064017361059953,8.344516522040648 L-6.374943457568806,8.288145545592295 L-6.683709491133059,8.228966243675362 L-6.990210840578858,8.166998668391964 L-7.294343652089806,8.10226381661274 L-7.596004874396385,8.034783622862369 L-7.895092293693491,7.9645809518873305 L-8.191504568274185,7.891679590908516 L-8.485141262867957,7.816104241561245 L-8.775902882671847,7.737880511525449 L-9.06369090706292,7.657034905848862 L-9.348407822980617,7.573594817966142 L-9.629957157967745,7.487588520416985 L-9.90824351285887,7.399045155266344 L-10.183172594105024,7.307994724230045 L-10.45465124572375,7.214468078509124 L-10.722587480863792,7.1184969083363026 L-10.986890512973565,7.020113732238187 L-11.24747078656295,6.919351886016809 L-11.504240007547962,6.816245511454243 L-11.757111173167981,6.710829544744121 L-12.005998601465478,6.603139704653988 L-12.25081796031816,6.493212480422476 L-12.491486296013779,6.381085119395424 L-12.72792206135774,6.26679561440518 " />
			<path d="M-12.727922061357852,-4.177863742936746 L-13.0364474931264,-4.333546047890015 L-13.33712025638927,-4.492909458991658 L-13.629759237116726,-4.655857981681798 L-13.91418816052927,-4.822293461863411 L-14.190235697278917,-4.992115645026658 L-14.45773556665161,-5.165222236638461 L-14.716526636728506,-5.341508963760908 L-14.966453021445814,-5.520869637861364 L-15.207364174494726,-5.703196218776478 L-15.439114980004897,-5.888378879791538 L-15.551511410188555,-5.982006447237085 L-15.661565839956804,-6.0763060737959735 L-15.76926169551732,-6.171263558291298 L-15.874582758270387,-6.266864600475167 L-15.977513167251365,-6.363094803182284 L-16.078037421519273,-6.45993967449809 L-16.17614038249117,-6.557384629941181 L-16.271807276221978,-6.655414994659691 L-16.365023695629397,-6.754016005641285 L-16.45577560266355,-6.853172813936398 L-16.54404933042104,-6.952870486894424 L-16.629831585203156,-7.053094010412522 L-16.713109448517873,-7.153828291196711 L-16.793870379025297,-7.25505815903484 L-16.87210221442635,-7.356768369081159 L-16.947793173294368,-7.458943604152147 L-17.020931856849376,-7.561568477033239 L-17.091507250674653,-7.664627532796072 L-17.159508726375485,-7.76810525112592 L-17.224926043179757,-7.871986048659018 L-17.287749349480176,-7.976254281329367 L-17.347969184317915,-8.080894246724664 L-17.405576478807337,-8.185890186451008 L-17.460562557501788,-8.291226288506074 L-17.51291913970008,-8.396886689660366 L-17.56263834069351,-8.502855477846111 L-17.609712672953293,-8.609116694553585 L-17.654135047258144,-8.715654337234424 L-17.695898773761893,-8.822452361711512 L-17.734997563000938,-8.929494684595188 L-17.77142552684145,-9.036765185705374 L-17.80517717936606,-9.144247710499167 L-17.83624743770004,-9.251926072503675 L-17.86463162277678,-9.359784055753671 L-17.89032546004241,-9.4678054172336 L-17.913325080099543,-9.575973889323754 L-17.933627019290004,-9.684273182250111 L-17.951228220216425,-9.792686986537527 L-17.966126032202684,-9.901198975465842 L-17.978318211693104,-10.009792807528655 L-17.98780292259029,-10.118452128894306 L-17.994578736531675,-10.227160575868684 L-17.9986446331046,-10.33590177735953 L-18.0,-10.44465935734179 " />
			<path d="M-18.0,-10.444659357341873 L-17.996045472314705,-10.630423860185441 L-17.9841836268465,-10.816106739599073 L-17.96441967559499,-11.00162640801751 L-17.93676230268154,-11.18690134958909 L-17.901223660533585,-11.371850155993167 L-17.857819364544937,-11.556391562210264 L-17.8065684862145,-11.740444482229274 L-17.747493544766403,-11.923928044676 L-17.680620497255266,-12.106761628347384 L-17.60597872716084,-12.288864897635827 L-17.523601031477153,-12.470157837827994 L-17.433523606301794,-12.650560790262652 L-17.335786030931615,-12.829994487332026 L-17.230431250471913,-13.008380087311375 L-17.1175055569667,-13.185639209001385 L-16.997058569058353,-13.361693966168259 L-16.869143210185563,-13.536467001766292 L-16.73381568532923,-13.709881521927937 L-16.59113545631642,-13.881861329706416 L-16.441165215693328,-14.052330858556042 L-16.283970859178684,-14.221215205535556 L-16.119621456709687,-14.388440164219876 L-15.948189222093237,-14.553932257305803 L-15.769749481275774,-14.717618768897356 L-15.584380639245657,-14.879427776456563 L-15.392164145582639,-15.039288182405626 L-15.193184458669585,-15.197129745366649 L-14.987529008582127,-15.352883111025115 L-14.775288158672598,-15.506479842603632 L-14.556555165865104,-15.657852450932483 L-14.331426139679172,-15.806934424103844 L-14.10000000000001,-15.953660256696567 " />
			<path d="M14.099999999999996,-15.953660256696576 L14.331426139679168,-15.806934424103847 L14.556555165865104,-15.657852450932483 L14.775288158672602,-15.506479842603628 L14.987529008582127,-15.352883111025115 L15.193184458669585,-15.197129745366649 L15.392164145582637,-15.039288182405627 L15.584380639245653,-14.879427776456565 L15.769749481275774,-14.717618768897356 L15.948189222093239,-14.553932257305801 L16.119621456709687,-14.388440164219876 L16.283970859178684,-14.221215205535557 L16.441165215693328,-14.052330858556044 L16.591135456316415,-13.88186132970642 L16.733815685329226,-13.709881521927938 L16.869143210185566,-13.53646700176629 L16.997058569058353,-13.36169396616826 L17.1175055569667,-13.185639209001387 L17.230431250471913,-13.008380087311375 L17.33578603093162,-12.829994487332025 L17.433523606301797,-12.65056079026265 L17.523601031477153,-12.470157837827996 L17.605978727160835,-12.288864897635829 L17.680620497255266,-12.106761628347387 L17.747493544766403,-11.923928044676 L17.8065684862145,-11.740444482229272 L17.857819364544937,-11.556391562210264 L17.901223660533585,-11.371850155993169 L17.93676230268154,-11.186901349589093 L17.96441967559499,-11.001626408017513 L17.9841836268465,-10.816106739599075 L17.996045472314705,-10.630423860185441 L18.0,-10.444659357341912 " />
			<path d="M18.0,-10.444659357341873 L17.996950472324823,-10.281528105714395 L17.98780292259029,-10.118452128894313 L17.972560450319307,-9.955486682959897 L17.951228220216425,-9.792686986537529 L17.923813460417875,-9.63010820209163 L17.89032546004241,-9.467805417233597 L17.85077556604379,-9.305833626056115 L17.80517717936606,-9.144247710499165 L17.75354575040278,-8.983102421754014 L17.695898773761897,-8.822452361711516 L17.63225578233793,-8.662351964461022 L17.562638340693514,-8.502855477846115 L17.48707003775253,-8.34401694508346 L17.40557647880734,-8.185890186451015 L17.31818527684275,-8.028528781051733 L17.22492604317976,-7.8719860486590285 L17.125830377442153,-7.716315031650105 L17.020931856849387,-7.561568477033253 L16.910266024839423,-7.407798818575241 L16.793870379025304,-7.255058159034851 L16.671784358489607,-7.103398252508573 L16.54404933042104,-6.952870486894428 L16.410708576097736,-6.8035258664798715 L16.27180727622198,-6.655414994659697 L16.12739249561134,-6.508588056789747 L15.977513167251375,-6.363094803182293 L15.822220075715405,-6.218984532248834 L15.661565839956806,-6.076306073795976 L15.495604895479811,-5.9351077724801335 L15.324393475894775,-5.795437471426592 L15.147989593864176,-5.6573424960185115 L14.966453021445819,-5.520869637861366 L14.779845269839885,-5.386065138928256 L14.588229568546712,-5.252974675891433 L14.391670843942299,-5.121643344645373 L14.19023569727892,-4.99211564502666 L13.98399238211819,-4.864435465735816 L13.773010781204263,-4.73864606946621 L13.557362382785028,-4.6147900782450835 L13.337120256389268,-4.492909458991657 L13.112359028068061,-4.373045509297204 L12.883154855108742,-4.255238843431927 L12.64958540023006,-4.1395293785833704 L12.411729805267207,-4.025956321331017 L12.169668664355688,-3.9145581543616705 L11.923483996623096,-3.8053726234301273 L11.673259218398032,-3.698436724569528 L11.419079114945626,-3.593786691555767 L11.161029811739223,-3.4914579836301707 L10.899198745277873,-3.3914852734845935 L10.63367463345975,-3.29390243551308 L10.364547445521225,-3.1987425343339666 L10.091908371552057,-3.1060378135863855 L9.815849791596843,-3.0158196850049546 L9.536465244353309,-2.9281187177763295 L9.253849395477992,-2.8429646281812557 L8.968098005510072,-2.7603862695256076 L8.679307897424206,-2.68041162236384 L8.387576923823385,-2.6030677850181565 L8.093003933782924,-2.5283809643966144 L7.795688739356753,-2.4563764671132624 L7.495732081757485,-2.3870786909133415 L7.193235597221655,-2.320511116406447 L6.888301782571626,-2.256696299110441 L6.581033960485938,-2.195655861808815 L6.271536244489827,-2.1374104872241073 L5.959913503677778,-2.0819799110098476 L5.646271327180061,-2.029382915063392 L5.330715988385256,-1.9796373211619382 L5.013354408930981,-1.9327599849238517 L4.6942941224749815,-1.8887667900973781 L4.3736432382587695,-1.8476726431786457 L4.0515104044762875,-1.8094914683608003 L3.7280047714599482,-1.7742362028159828 L3.403235954696523,-1.741918792311747 L3.0773139976854305,-1.7125501871633961 L2.7503493346519874,-1.6861403385236162 L2.4224527531282747,-1.662698195010666 L2.0937353564142858,-1.6422316996762554 L1.764308525932104,-1.624747787314158 L1.4342838834857685,-1.610252382110442 L1.103773253439778,-1.5987503956361415 L0.7728886248289554,-1.5902457251830455 L0.44174211341243896,-1.584741252443143 L0.11044592368479549,-1.5822388425322096 L-0.2208876891429466,-1.5827393433578276 L-0.5521464571794501,-1.5862425853320978 L-0.8832181378935179,-1.5927473814290902 L-1.2139905521459498,-1.6022515275870592 L-1.5443516221999174,-1.6147518034552562 L-1.8741894096969847,-1.6302439734851024 L-2.203392153585881,-1.6487227883653475 L-2.5318483079912624,-1.670181986800726 L-2.859446580009485,-1.6946142976335157 L-3.1860759674186596,-1.7220114423072665 L-3.5116257962902937,-1.7523641376718757 L-3.8359857584896324,-1.7856620991290626 L-4.159045949052071,-1.8218940441171636 L-4.480696903422956,-1.8610476959340687 L-4.800829634548167,-1.9031097878970247 L-5.119335669802892,-1.9480660678378605 L-5.436107087746106,-1.9959013029321504 L-5.7510365546882865,-2.0465992848606405 L-6.064017361059953,-2.1001428353012237 L-6.374943457568806,-2.1565138117495763 L-6.683709491133059,-2.215693113666509 L-6.990210840578858,-2.277660688949908 L-7.294343652089806,-2.3423955407291306 L-7.596004874396385,-2.4098757344795025 L-7.895092293693491,-2.480078405454541 L-8.191504568274185,-2.5529797664333556 L-8.485141262867957,-2.6285551157806264 L-8.775902882671847,-2.706778845816422 L-9.06369090706292,-2.7876244514930093 L-9.348407822980617,-2.8710645393757295 L-9.629957157967745,-2.9570708369248866 L-9.90824351285887,-3.0456142020755275 L-10.183172594105024,-3.1366646331118266 L-10.45465124572375,-3.2301912788327476 L-10.722587480863792,-3.326162449005569 L-10.986890512973565,-3.4245456251036845 L-11.24747078656295,-3.5253074713250623 L-11.504240007547962,-3.6284138458876285 L-11.757111173167981,-3.73382981259775 L-12.005998601465478,-3.841519652687883 L-12.25081796031816,-3.9514468769193956 L-12.491486296013779,-4.0635742379464475 L-12.72792206135774,-4.177863742936691 " />
			<path d="M-9.970205614730318,-5.535669459391191 L-10.21188386961568,-5.657620598271251 L-10.447410867504928,-5.782455270300872 L-10.676644735741435,-5.910098279741481 L-10.899447392414594,-6.040472739217077 L-11.115684629535151,-6.173500116028288 L-11.325226193877095,-6.3091002794575335 L-11.52794586543733,-6.447191549036784 L-11.723721533465888,-6.587690743748808 L-11.912435270020868,-6.730513232132314 L-12.093973401003835,-6.875572983260778 L-12.26822657463283,-7.022782618564252 L-12.435089827311803,-7.172053464462953 L-12.594462646856762,-7.32329560578091 L-12.746249033040547,-7.476417939907497 L-12.89035755541978,-7.631328231674251 L-13.02670140840914,-7.787933168913882 L-13.155198463569814,-7.94613841866803 L-13.275771319080588,-8.10584868400992 L-13.388347346361812,-8.266967761447662 L-13.492858733824141,-8.429398598873636 L-13.589242527715697,-8.59304335402506 L-13.677440670043067,-8.757803453420497 L-13.75740003354325,-8.923579651736858 L-13.829072453685548,-9.090272091591038 L-13.86178737278015,-9.17393054409809 L-13.892414757684069,-9.257780363690303 L-13.920949996025803,-9.341808922893282 L-13.947388790503412,-9.426003567315085 L-13.971727159531698,-9.510351617551951 L-13.99396143784181,-9.594840371097781 L-14.01408827703322,-9.679457104257061 L-14.032104646077975,-9.764189074061012 L-14.04800783177717,-9.849023520186659 L-14.061795439169531,-9.933947666878469 L-14.073465391892103,-10.018948724872315 L-14.08301593249293,-10.104013893321518 L-14.090445622695727,-10.189130361724612 L-14.09575334361648,-10.274285311854541 L-14.098938295931937,-10.359465919689036 L-14.1,-10.444659357341807 " />
			<path d="M14.1,-10.444659357341871 L14.09761120332111,-10.316873210233682 L14.090445622695729,-10.189130361724617 L14.078505686083457,-10.061474095742659 L14.061795439169531,-9.93394766687847 L14.040320543994003,-9.806594285729183 L14.01408827703322,-9.679457104257056 L13.983107526734303,-9.55257920116803 L13.947388790503412,-9.426003567315085 L13.906944171148842,-9.299773091131383 L13.861787372780151,-9.173930544098093 L13.811933696164711,-9.048518566251873 L13.757400033543252,-8.923579651736862 L13.69820486290615,-8.799156134406116 L13.634368241732416,-8.675290173477368 L13.565911800193488,-8.552023739247929 L13.492858733824146,-8.429398598873645 L13.415233795663019,-8.307456302216655 L13.333063287865352,-8.186238167766788 L13.246375052790881,-8.065785268641346 L13.155198463569821,-7.946138418668038 L13.059564414150191,-7.827338158555788 L12.959505308829815,-7.70942474215804 L12.855055051276562,-7.592438122833305 L12.746249033040552,-7.476417939907503 L12.633124121562215,-7.361403505242707 L12.515718647680243,-7.247433789916869 L12.394072392643734,-7.134547411018993 L12.26822657463283,-7.022782618564254 L12.13822383479252,-6.912177282533511 L12.004108222784241,-6.80276888004157 L11.865925181860272,-6.694594482638573 L11.723721533465891,-6.587690743748809 L11.577545461374577,-6.4820938862512065 L11.427446495361592,-6.377839690205695 L11.273475494421467,-6.274963480729616 L11.115684629535155,-6.17350011602829 L10.954127365992582,-6.0734839755837955 L10.788858445276672,-5.974948948505937 L10.619933866514938,-5.877928422049388 L10.447410867504926,-5.782455270300871 L10.271347905319981,-5.688561843040216 L10.091804636501848,-5.5962799547790825 L9.908841896846882,-5.505640873981046 L9.722521680792646,-5.416675312466703 L9.532907120411956,-5.329413415007381 L9.340062464021425,-5.243884749111006 L9.144053054411792,-5.160118295003537 L8.944945306707407,-5.078142435809424 L8.74280668586239,-4.997984947934373 L8.537705683801,-4.9196729916536714 L8.329711796210136,-4.843233101909319 L8.118895498991627,-4.768691179319013 L7.905328224382444,-4.6960724814000745 L7.68908233675086,-4.625401614011287 L7.470231108076758,-4.556702523015531 L7.248848693124427,-4.489998486166057 L7.025010104316223,-4.425312105219132 L6.798791186315627,-4.362665298275748 L6.570268590328318,-4.3020792923549624 L6.339519748129957,-4.243574616201421 L6.106622845829457,-4.187171093329462 L5.871656797376696,-4.132887835306191 L5.63470121782363,-4.08074323527579 L5.395836396347773,-4.0307549617272525 L5.155143269047318,-3.9829399525076443 L4.912703391517031,-3.9373144090829575 L4.668598911214259,-3.8938937910484537 L4.422912539624381,-3.8526928108903977 L4.175727524235117,-3.8137254290009253 L3.9271276203292684,-3.7770048489477563 L3.677197062605402,-3.742543513000352 L3.4260205366360363,-3.7103530979140116 L3.173683150173092,-3.6804445109733663 L2.9202704043102927,-3.652827886296593 L2.6658681645122764,-3.627512581401609 L2.410562631520254,-3.6045071740354 L2.1544403121440565,-3.5838194592675725 L1.8975879899504817,-3.565456446849094 L1.6400926958578572,-3.5494243588371406 L1.3820416786468148,-3.535728627486831 L1.1235223753971852,-3.524373893410587 L0.8646223818611594,-3.5153640040057175 L0.6054294227826817,-3.508702012150793 L0.3460313221730772,-3.504390175171202 L0.08651597355308979,-3.5024299540743034 L-0.1730286898286415,-3.502822013054371 L-0.43251472479056924,-3.505566219267549 L-0.691854208016589,-3.51066164287686 L-0.9509592658476606,-3.518106557367269 L-1.2097421040566019,-3.5278984401306905 L-1.4681150375959713,-3.540033973320737 L-1.7259905203089398,-3.5545090449769283 L-1.9832811745931553,-3.5713187504179746 L-2.23989982100743,-3.5904573939036606 L-2.4957595078112833,-3.611918490564765 L-2.7507735404273963,-3.6356947686003753 L-3.0048555108168786,-3.6617781717418394 L-3.257919326757455,-3.6901598619825178 L-3.509879241014649,-3.7208302225724275 L-3.7606498803960644,-3.753778861276742 L-4.010146274678932,-3.7889946138970636 L-4.2582838854011165,-3.826465548054257 L-4.504978634505824,-3.8661789672315754 L-4.7501469328302965,-3.908121415076698 L-4.993705708428898,-3.952278679961241 L-5.235572434720896,-3.9986357997961717 L-5.475665158453439,-4.047177067101502 L-5.713902527470347,-4.097886034328559 L-5.950203818277168,-4.150745519433017 L-6.1844889633932345,-4.205737611696797 L-6.416678578481445,-4.262843677796868 L-6.6466939892465655,-4.322044368118897 L-6.8744572580929475,-4.383319623313604 L-7.099891210532621,-4.446648681093597 L-7.322919461334817,-4.512010083268394 L-7.543466440408067,-4.579381683015234 L-7.761457418406115,-4.648740652383236 L-7.976818532048935,-4.720063490028338 L-8.189476809150271,-4.793326029176392 L-8.399360193343304,-4.868503445811768 L-8.606397568495959,-4.945570267088626 L-8.810518782807645,-5.0245003799620385 L-9.011654672579237,-5.105267040036049 L-9.209737085648252,-5.187842880625643 L-9.404698904481291,-5.272199922029581 L-9.596474068915892,-5.358309581010933 L-9.784997598544125,-5.446142680482123 L-9.97020561473023,-5.535669459391148 " />
			<path d="M-9.970205614730318,-12.498775697619106 L-10.21188386961568,-12.620726836499164 L-10.447410867504928,-12.745561508528786 L-10.676644735741435,-12.873204517969395 L-10.899447392414594,-13.003578977444992 L-11.115684629535151,-13.136606354256202 L-11.325226193877095,-13.272206517685447 L-11.52794586543733,-13.410297787264698 L-11.723721533465888,-13.55079698197672 L-11.912435270020868,-13.693619470360227 L-12.093973401003835,-13.838679221488691 L-12.26822657463283,-13.985888856792165 L-12.435089827311803,-14.135159702690867 L-12.594462646856762,-14.286401844008823 L-12.746249033040547,-14.439524178135411 L-12.89035755541978,-14.594434469902165 L-13.02670140840914,-14.751039407141796 L-13.155198463569814,-14.909244656895943 L-13.275771319080588,-15.068954922237834 L-13.388347346361812,-15.230073999675575 L-13.492858733824141,-15.392504837101551 L-13.589242527715697,-15.556149592252973 L-13.677440670043067,-15.72090969164841 L-13.75740003354325,-15.886685889964774 L-13.829072453685548,-16.05337832981895 L-13.86178737278015,-16.137036782326003 L-13.892414757684069,-16.220886601918217 L-13.920949996025803,-16.304915161121194 L-13.947388790503412,-16.389109805543 L-13.971727159531698,-16.473457855779866 L-13.99396143784181,-16.557946609325697 L-14.01408827703322,-16.642563342484973 L-14.032104646077975,-16.727295312288927 L-14.04800783177717,-16.812129758414574 L-14.061795439169531,-16.897053905106382 L-14.073465391892103,-16.98205496310023 L-14.08301593249293,-17.067120131549434 L-14.090445622695727,-17.152236599952527 L-14.09575334361648,-17.237391550082457 L-14.098938295931937,-17.32257215791695 L-14.1,-17.40776559556972 " />
			<path d="M-14.1,-17.407765595569785 L-14.09840705096728,-17.51211770955699 L-14.0936285637963,-17.616446245161352 L-14.085665618187273,-17.72072762932757 L-14.074520013369492,-17.82493829965422 L-14.06019426769479,-17.929054709717686 L-14.042691618068517,-18.033053334392477 L-14.022016019218158,-18.13691067516674 L-13.99817214279977,-18.240603265451746 L-13.971165376342416,-18.344107675884178 L-13.941001822030843,-18.447400519619997 L-13.907688295326713,-18.550458457618703 L-13.87123232342862,-18.653258203916796 L-13.831642143571344,-18.755776530889257 L-13.78892670116463,-18.857990274497812 L-13.743095647771977,-18.95987633952488 L-13.694159338929863,-19.061411704791904 L-13.64212883180791,-19.16257342836104 L-13.587015882710512,-19.263338652718847 L-13.528832944420504,-19.363684609940975 L-13.467593163385438,-19.46358862683658 L-13.403310376747152,-19.563028130071316 L-13.335999109215267,-19.66198065126781 L-13.265674569785313,-19.76042383208239 L-13.192352648302263,-19.858335429256947 L-13.116049911870219,-19.95569331964481 L-13.036783601109063,-20.052475505209475 L-12.954571626258947,-20.14866011799508 L-12.869432563133461,-20.24422542506746 L-12.781385648922429,-20.339149833424692 L-12.690450777845259,-20.433411894876077 L-12.596648496655838,-20.526990310888337 L-12.500000000000002,-20.619863937398026 " />
			<path d="M12.499999999999998,-20.61986393739803 L12.596648496655837,-20.52699031088834 L12.690450777845259,-20.433411894876077 L12.78138564892243,-20.33914983342469 L12.869432563133461,-20.244225425067455 L12.954571626258947,-20.14866011799508 L13.036783601109061,-20.05247550520948 L13.116049911870215,-19.95569331964481 L13.192352648302263,-19.858335429256947 L13.265674569785313,-19.760423832082388 L13.335999109215267,-19.66198065126781 L13.403310376747152,-19.563028130071316 L13.467593163385436,-19.463588626836582 L13.528832944420502,-19.36368460994098 L13.587015882710512,-19.26333865271885 L13.64212883180791,-19.16257342836104 L13.694159338929863,-19.061411704791904 L13.743095647771975,-18.95987633952488 L13.78892670116463,-18.857990274497812 L13.831642143571345,-18.755776530889253 L13.87123232342862,-18.653258203916796 L13.907688295326713,-18.550458457618703 L13.941001822030843,-18.447400519619997 L13.971165376342416,-18.34410767588418 L13.99817214279977,-18.240603265451746 L14.022016019218158,-18.13691067516674 L14.042691618068517,-18.033053334392477 L14.06019426769479,-17.929054709717686 L14.074520013369492,-17.82493829965422 L14.085665618187273,-17.720727629327573 L14.093628563796297,-17.616446245161352 L14.09840705096728,-17.51211770955699 L14.1,-17.407765595569817 " />
			<path d="M14.1,-17.407765595569785 L14.09761120332111,-17.279979448461596 L14.090445622695729,-17.15223659995253 L14.078505686083457,-17.024580333970572 L14.061795439169531,-16.897053905106382 L14.040320543994003,-16.7697005239571 L14.01408827703322,-16.64256334248497 L13.983107526734303,-16.51568543939594 L13.947388790503412,-16.389109805543 L13.906944171148842,-16.262879329359297 L13.861787372780151,-16.137036782326007 L13.811933696164711,-16.011624804479787 L13.757400033543252,-15.886685889964776 L13.69820486290615,-15.76226237263403 L13.634368241732416,-15.638396411705282 L13.565911800193488,-15.515129977475842 L13.492858733824146,-15.392504837101558 L13.415233795663019,-15.270562540444569 L13.333063287865352,-15.1493444059947 L13.246375052790881,-15.028891506869257 L13.155198463569821,-14.909244656895952 L13.059564414150191,-14.790444396783702 L12.959505308829815,-14.672530980385954 L12.855055051276562,-14.55554436106122 L12.746249033040552,-14.439524178135416 L12.633124121562215,-14.324509743470621 L12.515718647680243,-14.210540028144782 L12.394072392643734,-14.097653649246906 L12.26822657463283,-13.985888856792169 L12.13822383479252,-13.875283520761425 L12.004108222784241,-13.765875118269484 L11.865925181860272,-13.657700720866487 L11.723721533465891,-13.550796981976722 L11.577545461374577,-13.44520012447912 L11.427446495361592,-13.340945928433609 L11.273475494421467,-13.23806971895753 L11.115684629535155,-13.136606354256203 L10.954127365992582,-13.03659021381171 L10.788858445276672,-12.938055186733852 L10.619933866514938,-12.841034660277302 L10.447410867504926,-12.745561508528784 L10.271347905319981,-12.65166808126813 L10.091804636501848,-12.559386193006997 L9.908841896846882,-12.468747112208959 L9.722521680792646,-12.379781550694616 L9.532907120411956,-12.292519653235296 L9.340062464021425,-12.20699098733892 L9.144053054411792,-12.12322453323145 L8.944945306707407,-12.041248674037337 L8.74280668586239,-11.961091186162287 L8.537705683801,-11.882779229881585 L8.329711796210136,-11.806339340137232 L8.118895498991627,-11.731797417546927 L7.905328224382444,-11.659178719627988 L7.68908233675086,-11.5885078522392 L7.470231108076758,-11.519808761243445 L7.248848693124427,-11.45310472439397 L7.025010104316223,-11.388418343447047 L6.798791186315627,-11.325771536503662 L6.570268590328318,-11.265185530582876 L6.339519748129957,-11.206680854429335 L6.106622845829457,-11.150277331557376 L5.871656797376696,-11.095994073534104 L5.63470121782363,-11.043849473503704 L5.395836396347773,-10.993861199955166 L5.155143269047318,-10.946046190735558 L4.912703391517031,-10.90042064731087 L4.668598911214259,-10.857000029276367 L4.422912539624381,-10.815799049118311 L4.175727524235117,-10.776831667228839 L3.9271276203292684,-10.74011108717567 L3.677197062605402,-10.705649751228265 L3.4260205366360363,-10.673459336141924 L3.173683150173092,-10.64355074920128 L2.9202704043102927,-10.615934124524507 L2.6658681645122764,-10.590618819629523 L2.410562631520254,-10.567613412263313 L2.1544403121440565,-10.546925697495485 L1.8975879899504817,-10.528562685077008 L1.6400926958578572,-10.512530597065055 L1.3820416786468148,-10.498834865714745 L1.1235223753971852,-10.4874801316385 L0.8646223818611594,-10.47847024223363 L0.6054294227826817,-10.471808250378707 L0.3460313221730772,-10.467496413399115 L0.08651597355308979,-10.465536192302217 L-0.1730286898286415,-10.465928251282286 L-0.43251472479056924,-10.468672457495462 L-0.691854208016589,-10.473767881104774 L-0.9509592658476606,-10.481212795595184 L-1.2097421040566019,-10.491004678358603 L-1.4681150375959713,-10.50314021154865 L-1.7259905203089398,-10.517615283204842 L-1.9832811745931553,-10.534424988645888 L-2.23989982100743,-10.553563632131574 L-2.4957595078112833,-10.575024728792679 L-2.7507735404273963,-10.598801006828289 L-3.0048555108168786,-10.624884409969752 L-3.257919326757455,-10.65326610021043 L-3.509879241014649,-10.683936460800341 L-3.7606498803960644,-10.716885099504655 L-4.010146274678932,-10.752100852124977 L-4.2582838854011165,-10.78957178628217 L-4.504978634505824,-10.829285205459488 L-4.7501469328302965,-10.871227653304611 L-4.993705708428898,-10.915384918189154 L-5.235572434720896,-10.961742038024084 L-5.475665158453439,-11.010283305329416 L-5.713902527470347,-11.060992272556472 L-5.950203818277168,-11.113851757660932 L-6.1844889633932345,-11.168843849924711 L-6.416678578481445,-11.225949916024781 L-6.6466939892465655,-11.28515060634681 L-6.8744572580929475,-11.346425861541517 L-7.099891210532621,-11.40975491932151 L-7.322919461334817,-11.475116321496309 L-7.543466440408067,-11.542487921243147 L-7.761457418406115,-11.611846890611151 L-7.976818532048935,-11.683169728256251 L-8.189476809150271,-11.756432267404307 L-8.399360193343304,-11.831609684039682 L-8.606397568495959,-11.908676505316539 L-8.810518782807645,-11.987606618189952 L-9.011654672579237,-12.068373278263962 L-9.209737085648252,-12.150949118853557 L-9.404698904481291,-12.235306160257494 L-9.596474068915892,-12.321415819238847 L-9.784997598544125,-12.409248918710038 L-9.97020561473023,-12.498775697619061 " />
			<path d="M-8.83883476483189,-13.055824196677312 L-9.053088536893382,-13.163936908450415 L-9.26188906693704,-13.274605943937669 L-9.465110581331109,-13.387764640250264 L-9.662630667034263,-13.50334483482083 L-9.85433034533263,-13.621276906461972 L-10.040094143508112,-13.741489817303503 L-10.219810164394845,-13.86391115558298 L-10.393370153781863,-13.988467179263852 L-10.560669565621385,-14.115082860454905 L-10.721607625003449,-14.24368193060425 L-10.87608738885894,-14.374186926440665 L-11.024015804354484,-14.50651923663455 L-11.165303764943987,-14.640599149150468 L-11.299866164043086,-14.77634589926269 L-11.42762194629418,-14.913677718204848 L-11.54849415639113,-15.05251188242438 L-11.66240998543428,-15.1927647634121 L-11.769300814787805,-15.334351878076896 L-11.869102257413003,-15.477187939635177 L-11.961754196652656,-15.621186908984445 L-12.047200822443044,-15.766262046530032 L-12.125390664931844,-15.91232596443379 L-12.196276625481653,-16.05929067925326 L-12.259816005040427,-16.20706766493959 L-12.315970529861811,-16.355567906162342 L-12.36470637455981,-16.504701951928993 L-12.405994182483923,-16.654379969466845 L-12.43980908340251,-16.804511798334957 L-12.466130708483675,-16.95500700473341 L-12.484943202564702,-17.105774935977248 L-12.4962352337026,-17.25672477510227 L-12.500000000000048,-17.407765595569703 " />
			<path d="M-12.500000000000048,-17.40776559556976 L-12.497992501972748,-17.51806372669402 L-12.491970652698575,-17.628326430093374 L-12.48193638639362,-17.738518289422295 L-12.467892926061051,-17.848603911090347 L-12.449844782455896,-17.958547935630598 L-12.427797752636181,-18.068315049057063 L-12.401758918100926,-18.17786999420756 L-12.37173664251557,-18.287177582068285 L-12.33774056902555,-18.396202703076515 L-12.29978161715894,-18.504910338397796 L-12.257871979319102,-18.613265571173976 L-12.212025116868482,-18.721233597738483 L-12.162255755804825,-18.82877973879527 L-12.108579882031199,-18.935869450557767 L-12.051014736221317,-19.04246833584436 L-11.989578808281845,-19.14854215512674 L-11.924291831413443,-19.25405683752764 L-11.855174775772479,-19.35897849176437 L-11.782249841735405,-19.463273417034703 L-11.70554045276802,-19.566908113841567 L-11.625071247901845,-19.669849294753057 L-11.540868073820086,-19.77206389509435 L-11.452957976555682,-19.87351908356809 L-11.361369192804124,-19.97418227279975 L-11.266131140853847,-20.07402112980473 L-11.167274411137079,-20.173003586373667 L-11.064830756404197,-20.271097849372758 L-10.958833081524773,-20.368272410955683 L-10.849315432918518,-20.464496058683938 L-10.7363129876196,-20.559737885552238 L-10.619862041977779,-20.653967299915863 L-10.500000000000048,-20.747154035316647 " />
			<path d="M10.499999999999956,-20.747154035316644 L10.619862041977694,-20.653967299915852 L10.736312987619515,-20.55973788555223 L10.84931543291843,-20.46449605868393 L10.958833081524686,-20.368272410955676 L11.064830756404112,-20.27109784937275 L11.167274411136988,-20.173003586373664 L11.266131140853759,-20.074021129804724 L11.361369192804036,-19.974182272799744 L11.452957976555592,-19.873519083568084 L11.540868073819997,-19.772063895094345 L11.625071247901753,-19.66984929475305 L11.705540452767929,-19.56690811384156 L11.782249841735315,-19.463273417034696 L11.855174775772387,-19.35897849176436 L11.92429183141335,-19.254056837527635 L11.98957880828175,-19.148542155126737 L12.051014736221225,-19.042468335844354 L12.108579882031105,-18.93586945055776 L12.16225575580473,-18.828779738795266 L12.212025116868386,-18.72123359773848 L12.257871979319008,-18.613265571173972 L12.299781617158846,-18.504910338397792 L12.337740569025454,-18.39620270307651 L12.371736642515474,-18.28717758206828 L12.401758918100832,-18.17786999420756 L12.427797752636085,-18.06831504905706 L12.4498447824558,-17.958547935630595 L12.467892926060957,-17.848603911090347 L12.481936386393524,-17.738518289422295 L12.491970652698479,-17.628326430093374 L12.497992501972652,-17.51806372669402 L12.499999999999952,-17.40776559556979 " />
			<path d="M12.499999999999952,-17.40776559556976 L12.497882272447745,-17.29448000416179 L12.491529807354322,-17.181232798036735 L12.480944757166137,-17.068062349471166 L12.466130708483579,-16.95500700473341 L12.4470926808457,-16.842105071090426 L12.423837125029403,-16.7293948038279 L12.396371920863697,-16.616914393287985 L12.364706374559715,-16.504701951928993 L12.328851215557437,-16.392795501411527 L12.288818592890157,-16.281232959715346 L12.244622071067958,-16.170052128291392 L12.196276625481559,-16.059290679253262 L12.1437986373281,-15.948986142612531 L12.087205888060604,-15.83917589356222 L12.026517553362973,-15.729897139812719 L11.961754196652564,-15.621186908984454 L11.892937762112558,-15.51308203606159 L11.82009156725647,-15.405619150910997 L11.743240295027329,-15.29883466587071 L11.66240998543419,-15.192764763412107 L11.577628026728846,-15.08744538387997 L11.488923146125675,-14.982912213314592 L11.396325400067825,-14.879200671360039 L11.299866164042996,-14.776345899262694 L11.19957812195227,-14.674382747964119 L11.09549525503563,-14.573345766292276 L10.987652830357872,-14.47326918925515 L10.876087388858846,-14.374186926440666 L10.760836732972043,-14.276132550526887 L10.641939913815769,-14.179139285906372 L10.519437217961185,-14.083239997428539 L10.39337015378177,-13.988467179263854 L10.263781437388761,-13.894852943893639 L10.13071497815739,-13.802429011229178 L9.99421586384877,-13.711226697863859 L9.854330345332535,-13.621276906461974 L9.711105820915362,-13.532610115287778 L9.56459082028069,-13.44525636787833 L9.41483498804511,-13.359245262863658 L9.261889066936943,-13.274605943937667 L9.105804880602772,-13.191367089983185 L8.94663531604769,-13.109556905354522 L8.784434305715273,-13.0292031103208 L8.61925680921329,-12.950332931673334 L8.451158794691402,-12.872973093500176 L8.280197219877103,-12.79714980813105 L8.106430012776363,-12.722888767255633 L7.9299160520455265,-12.6502151332183 L7.7507151470410784,-12.57915353049219 L7.568888017554031,-12.50972803733554 L7.3844962732358885,-12.4419621776331 L7.1976023927230255,-12.375878912925382 L7.008269702466658,-12.311500634628452 L6.816562355275537,-12.248849156446902 L6.622545308578639,-12.187945706982578 L6.426284302415224,-12.128810922541554 L6.227845837159725,-12.0714648401418 L6.027297150988984,-12.015926890723904 L5.824706197099525,-11.96221589256718 L5.6201416206825385,-11.910350044913333 L5.413672735664364,-11.860346921799893 L5.205369501220428,-11.812223466105504 L4.995302498070546,-11.765995983809049 L4.783542904563581,-11.7216801384646 L4.57016247255963,-11.679290945894026 L4.355233503117888,-11.63884276909909 L4.138828821998409,-11.600349313394744 L3.9210217549861057,-11.563823621765263 L3.7018861030452688,-11.529278070444807 L3.4814961173131334,-11.496724364723914 L3.259926473940911,-11.466173534983305 L3.0372522487907645,-11.437635932956407 L2.813548891997374,-11.411121228221795 L2.5888922024026937,-11.386638404926781 L2.3633583018725375,-11.364195758743286 L2.137023609503723,-11.34380089405693 L1.909964815730499,-11.325460721390417 L1.6822588563390317,-11.309181455061978 L1.4539828863987618,-11.29496861107975 L1.225214254119469,-11.282827005272738 L0.9960304746428469,-11.272760751659046 L0.7665092037775757,-11.264773261051893 L0.5367282116867267,-11.25886723990391 L0.3067653565363681,-11.255044689390088 L0.07669855811439347,-11.253306904729717 L-0.15339422857153856,-11.253654474747508 L-0.3834350397079993,-11.256087281674084 L-0.6133459290927686,-11.260604501185885 L-0.8430489945458463,-11.267204602684473 L-1.0724664043055459,-11.275885349815166 L-1.3015204234007314,-11.286643801224782 L-1.5301334399902426,-11.299476311558285 L-1.7582279916606465,-11.314378532693965 L-1.9857267916733012,-11.331345415216736 L-2.212552755151895,-11.350371210129062 L-2.4386290252016405,-11.371449470798929 L-2.6638789989511817,-11.3945730551442 L-2.88822635350843,-11.419734128052601 L-3.1115950718215455,-11.446924164036563 L-3.3339094684362753,-11.47613395012195 L-3.555094215140945,-11.507353588969753 L-3.7750743664904,-11.540572502229676 L-3.993775385200247,-11.575779434124462 L-4.211123167402793,-11.612962455263755 L-4.427044067756164,-11.652108966686221 L-4.641464924398005,-11.693205704128538 L-4.8543130837353665,-11.736238742519786 L-5.0655164250624125,-11.781193500699802 L-5.275003384997538,-11.828054746359783 L-5.482702981731639,-11.876806601203558 L-5.688544839079343,-11.927432546327736 L-5.8924592103250175,-11.979915427818895 L-6.094377001855498,-12.034237462565976 L-6.29422979657152,-12.090380244285829 L-6.4919498770699215,-12.14832474975994 L-6.68747024858876,-12.208051345280188 L-6.880724661707597,-12.269539793301465 L-7.0716476347952035,-12.332769259298896 L-7.260174476197098,-12.397718318827312 L-7.44624130615546,-12.46436496478066 L-7.629785078453912,-12.532686614848796 L-7.810743601779874,-12.602660119169197 L-7.989055560797243,-12.67426176817098 L-8.164660536922257,-12.747467300608566 L-8.33749902879552,-12.822251911782269 L-8.507512472443215,-12.898590261943042 L-8.674643261120726,-12.976456484878494 L-8.838834764831812,-13.055824196677275 " />
			<path d="M9.81122454289603,7.680827889656491 L9.565010478903421,7.81634749859216 L9.311077659819723,7.948369022893294 L9.049631003898234,8.076785924065756 L8.780881492894899,8.201494572467746 L8.50504600181062,8.322394330936678 L8.222347123877864,8.439387636001161 L7.933012990932778,8.552380076612604 L7.637277089317758,8.661280470332876 L7.335378071463061,8.766000936916543 L7.027559563299487,8.866456969228318 L6.71406996765758,8.962567501438468 L6.395162263811904,9.05425497444119 L6.0710938033323485,9.141445398443096 L5.742126102406981,9.224068412671386 L5.408524630804157,9.302057342153448 L5.0705585976442515,9.375349251522112 L4.728500734153731,9.443884995803117 L4.382627073577002,9.507609268143817 L4.033216728423603,9.566470644444612 L3.6805516652304546,9.620421624857071 L3.3249164770210644,9.669418672115278 L2.966598153645126,9.713422246669447 L2.6058858501839306,9.752396838593501 L2.243070653608581,9.78631099624078 L1.8784453478791012,9.815137351624854 L1.5123041776741721,9.838852642504882 L1.1449426109420835,9.857437731157745 L0.7766571004645381,9.870877619821757 L0.40774484462571337,9.879161462799544 L0.03850354757964045,9.882282575210278 L-0.3307688209905516,9.880238438384236 L-0.6997742663277253,9.873030701895305 L-1.0682150090759428,9.860665182229816 L-1.435793725581954,9.843151858092773 L-1.8022137878289426,9.820504862355236 L-2.1671795028088043,9.792742470649422 L-2.5303963511400087,9.75988708662066 L-2.891571224738315,9.721965223848132 L-3.250412663348607,9.679007484449004 L-3.6066310897469736,9.631048534383174 L-3.9599390434232182,9.578127075478598 L-4.310051412555228,9.520285814199768 L-4.656685664087996,9.457571427184517 L-4.999562071731678,9.39003452357698 L-5.338403941694561,9.317729604187143 L-5.672937835968947,9.240715017509853 L-6.0028937929897035,9.159052912638861 L-6.328005545487309,9.07280918911386 L-6.648010735359771,8.982053443740993 L-6.962651125389897,8.88685891442974 L-7.271672807637089,8.787302421091528 L-7.574826408335558,8.683464303647726 L-7.871867289133468,8.575428357197088 L-8.162555744510783,8.46328176439494 L-8.446657195216424,8.347115025098647 L-8.723942377568564,8.227021883336235 L-8.994187528465458,8.10309925165698 L-9.257174565957392,7.975447132925105 L-9.512691265234047,7.844168539619632 L-9.760531429885317,7.709369410705575 L-10.00049505829731,7.571158526143481 L-10.232388505049293,7.4296474191063915 L-10.45602463718133,7.284950285974993 L-10.67122298520645,7.1371838941836625 " />
			<path d="M12.244675899951543,6.823405702959716 L12.184979743158596,6.875889530677221 " />
			<path d="M12.184979743158596,6.87588953067722 L12.124355652982143,6.928114866535274 " />
			<path d="M12.124355652982143,6.928114866535273 L12.062808246181362,6.980077733372354 " />
			<path d="M12.062808246181362,6.9800777333723545 L12.000342209829574,7.031774174014971 " />
			<path d="M12.000342209829574,7.03177417401497 L11.936962300957292,7.083200251579019 " />
			<path d="M11.93696230095729,7.083200251579019 L11.872673346189961,7.134352049769583 " />
			<path d="M11.872673346189963,7.134352049769584 L11.807480241380402,7.185225673179193 " />
			<path d="M11.807480241380402,7.185225673179193 L11.74138795123594,7.2358172475844595 " />
			<path d="M11.74138795123594,7.235817247584459 L11.674401508940358,7.286122920241117 " />
			<path d="M11.674401508940358,7.286122920241116 L11.606526015770585,7.336138860177431 " />
			<path d="M11.606526015770585,7.3361388601774316 L11.53776664070822,7.385861258485925 " />
			<path d="M11.53776664070822,7.385861258485926 L11.468128620045887,7.435286328613463 " />
			<path d="M11.468128620045887,7.435286328613462 L11.397617256988472,7.484410306649596 " />
			<path d="M11.397617256988472,7.484410306649595 L11.326237921249264,7.533229451613209 " />
			<path d="M11.326237921249264,7.5332294516132094 L11.253996048641042,7.581740045737397 " />
			<path d="M11.253996048641042,7.581740045737398 L11.1808971406621,7.629938394752605 " />
			<path d="M11.180897140662102,7.629938394752603 L11.106946764077296,7.677820828167944 " />
			<path d="M11.106946764077295,7.677820828167944 L11.032150550494109,7.7253836995507275 " />
			<path d="M11.03215055049411,7.7253836995507275 L10.956514195933796,7.772623386804156 " />
			<path d="M10.956514195933796,7.772623386804158 L10.880043460397593,7.8195362924431455 " />
			<path d="M10.880043460397593,7.819536292443145 L10.80274416742808,7.866118843868299 " />
			<path d="M10.80274416742808,7.8661188438683 L10.724622203665696,7.912367493637977 " />
			<path d="M10.724622203665694,7.912367493637976 L10.64568351840043,7.95827871973844 " />
			<path d="M10.645683518400432,7.9582787197384395 L10.565934123118808,8.003849025852066 " />
			<path d="M10.565934123118808,8.003849025852066 L9.811224542896037,7.680827889656487 " />
			<path d="M9.811224542896037,7.430320731588413 L9.811224542896037,7.680827889656488 " />
			<path d="M12.244675899951543,6.823405702959716 L12.244675899951543,6.496020452743327 " />
			<path d="M12.184979743158596,6.87588953067722 L12.184979743158596,6.523175814368887 " />
			<path d="M12.124355652982143,6.928114866535273 L12.124355652982143,6.550503103509754 " />
			<path d="M12.062808246181362,6.9800777333723545 L12.062808246181362,6.577991905351884 " />
			<path d="M12.000342209829574,7.03177417401497 L12.000342209829574,6.605631882641168 " />
			<path d="M11.93696230095729,7.083200251579019 L11.93696230095729,6.633412779037411 " />
			<path d="M11.872673346189963,7.134352049769584 L11.872673346189963,6.6613244222228 " />
			<path d="M11.807480241380402,7.185225673179193 L11.807480241380402,6.689356726774192 " />
			<path d="M11.74138795123594,7.235817247584459 L11.74138795123594,6.7174996968085825 " />
			<path d="M11.674401508940358,7.286122920241116 L11.674401508940358,6.74574342841112 " />
			<path d="M11.606526015770585,7.3361388601774316 L11.606526015770585,6.774078111854987 " />
			<path d="M11.53776664070822,7.385861258485926 L11.53776664070822,6.802494033622463 " />
			<path d="M11.468128620045887,7.435286328613462 L11.468128620045887,6.830981578236198 " />
			<path d="M11.397617256988472,7.484410306649595 L11.397617256988472,6.859531229909866 " />
			<path d="M11.326237921249264,7.5332294516132094 L11.326237921249264,6.888133574026974 " />
			<path d="M11.253996048641042,7.581740045737398 L11.253996048641042,6.916779298456531 " />
			<path d="M11.180897140662102,7.629938394752603 L11.180897140662102,6.945459194714094 " />
			<path d="M11.106946764077295,7.677820828167944 L11.106946764077295,6.974164158976489 " />
			<path d="M11.03215055049411,7.7253836995507275 L11.03215055049411,7.00288519295821 " />
			<path d="M10.956514195933796,7.772623386804158 L10.956514195933796,7.031613404657417 " />
			<path d="M10.880043460397593,7.819536292443145 L10.880043460397593,7.0603400089790425 " />
			<path d="M10.80274416742808,7.8661188438683 L10.80274416742808,7.0890563282424015 " />
			<path d="M10.724622203665694,7.912367493637976 L10.724622203665694,7.117753792580336 " />
			<path d="M10.645683518400432,7.9582787197384395 L10.645683518400432,7.146423940236797 " />
			<path d="M10.565934123118808,8.003849025852066 L10.565934123118808,7.175058417769388 " />
			<path d="M-8.838834764831843,-13.055824196677337 L-9.053088536893334,-13.16393690845044 L-9.261889066936993,-13.274605943937694 L-9.46511058133106,-13.387764640250289 L-9.662630667034215,-13.503344834820854 L-9.854330345332581,-13.621276906461997 L-10.040094143508064,-13.741489817303528 L-10.219810164394797,-13.863911155583004 L-10.393370153781815,-13.988467179263877 L-10.560669565621337,-14.11508286045493 L-10.7216076250034,-14.243681930604275 L-10.876087388858892,-14.37418692644069 L-11.024015804354436,-14.506519236634574 L-11.165303764943939,-14.640599149150493 L-11.299866164043038,-14.776345899262715 L-11.427621946294131,-14.913677718204873 L-11.548494156391081,-15.052511882424405 L-11.662409985434232,-15.192764763412125 L-11.769300814787757,-15.334351878076921 L-11.869102257412955,-15.477187939635202 L-11.961754196652608,-15.62118690898447 L-12.047200822442996,-15.766262046530057 L-12.125390664931796,-15.912325964433816 L-12.196276625481605,-16.059290679253284 L-12.25981600504038,-16.207067664939615 L-12.315970529861763,-16.355567906162367 L-12.364706374559763,-16.504701951929018 L-12.405994182483875,-16.65437996946687 L-12.439809083402462,-16.804511798334982 L-12.466130708483627,-16.955007004733435 L-12.484943202564654,-17.105774935977273 L-12.496235233702553,-17.256724775102295 L-12.5,-17.407765595569728 " />
			<path d="M12.5,-17.407765595569785 L12.497882272447793,-17.294480004161816 L12.49152980735437,-17.18123279803676 L12.480944757166185,-17.06806234947119 L12.466130708483627,-16.955007004733435 L12.447092680845747,-16.84210507109045 L12.42383712502945,-16.729394803827926 L12.396371920863745,-16.61691439328801 L12.364706374559763,-16.504701951929018 L12.328851215557485,-16.392795501411552 L12.288818592890205,-16.28123295971537 L12.244622071068006,-16.170052128291417 L12.196276625481607,-16.059290679253287 L12.143798637328148,-15.948986142612556 L12.087205888060652,-15.839175893562246 L12.026517553363021,-15.729897139812744 L11.961754196652612,-15.621186908984479 L11.892937762112606,-15.513082036061615 L11.820091567256519,-15.405619150911022 L11.743240295027377,-15.298834665870736 L11.662409985434238,-15.192764763412132 L11.577628026728894,-15.087445383879995 L11.488923146125723,-14.982912213314616 L11.396325400067873,-14.879200671360064 L11.299866164043044,-14.776345899262719 L11.199578121952317,-14.674382747964144 L11.095495255035678,-14.5733457662923 L10.98765283035792,-14.473269189255175 L10.876087388858894,-14.374186926440691 L10.760836732972091,-14.276132550526912 L10.641939913815817,-14.179139285906396 L10.519437217961233,-14.083239997428564 L10.393370153781818,-13.988467179263878 L10.26378143738881,-13.894852943893664 L10.130714978157439,-13.802429011229203 L9.994215863848819,-13.711226697863884 L9.854330345332583,-13.621276906461999 L9.71110582091541,-13.532610115287802 L9.564590820280738,-13.445256367878354 L9.414834988045158,-13.359245262863682 L9.261889066936991,-13.274605943937692 L9.10580488060282,-13.19136708998321 L8.946635316047738,-13.109556905354546 L8.78443430571532,-13.029203110320825 L8.619256809213338,-12.950332931673358 L8.45115879469145,-12.872973093500201 L8.28019721987715,-12.797149808131074 L8.10643001277641,-12.722888767255657 L7.9299160520455745,-12.650215133218325 L7.750715147041126,-12.579153530492215 L7.568888017554079,-12.509728037335565 L7.3844962732359365,-12.441962177633124 L7.1976023927230735,-12.375878912925407 L7.0082697024667056,-12.311500634628477 L6.816562355275585,-12.248849156446926 L6.622545308578687,-12.187945706982603 L6.426284302415272,-12.128810922541579 L6.227845837159773,-12.071464840141825 L6.027297150989032,-12.015926890723929 L5.824706197099573,-11.962215892567205 L5.6201416206825865,-11.910350044913358 L5.413672735664412,-11.860346921799918 L5.205369501220476,-11.812223466105529 L4.995302498070594,-11.765995983809074 L4.783542904563629,-11.721680138464626 L4.570162472559678,-11.679290945894051 L4.355233503117936,-11.638842769099115 L4.138828821998457,-11.60034931339477 L3.9210217549861537,-11.563823621765287 L3.7018861030453167,-11.529278070444832 L3.4814961173131813,-11.496724364723939 L3.259926473940959,-11.46617353498333 L3.0372522487908125,-11.437635932956432 L2.813548891997422,-11.41112122822182 L2.5888922024027416,-11.386638404926806 L2.3633583018725854,-11.36419575874331 L2.137023609503771,-11.343800894056955 L1.9099648157305467,-11.325460721390442 L1.6822588563390795,-11.309181455062003 L1.4539828863988096,-11.294968611079774 L1.2252142541195168,-11.282827005272763 L0.9960304746428947,-11.27276075165907 L0.7665092037776235,-11.264773261051918 L0.5367282116867745,-11.258867239903935 L0.30676535653641596,-11.255044689390113 L0.0766985581144413,-11.253306904729742 L-0.1533942285714907,-11.253654474747533 L-0.38343503970795145,-11.256087281674109 L-0.6133459290927208,-11.26060450118591 L-0.8430489945457984,-11.267204602684497 L-1.0724664043054981,-11.27588534981519 L-1.3015204234006836,-11.286643801224807 L-1.530133439990195,-11.29947631155831 L-1.7582279916605987,-11.31437853269399 L-1.9857267916732535,-11.331345415216761 L-2.212552755151847,-11.350371210129087 L-2.4386290252015925,-11.371449470798954 L-2.663878998951134,-11.394573055144225 L-2.888226353508382,-11.419734128052626 L-3.1115950718214975,-11.446924164036588 L-3.3339094684362274,-11.476133950121975 L-3.555094215140897,-11.507353588969778 L-3.775074366490352,-11.5405725022297 L-3.993775385200199,-11.575779434124486 L-4.211123167402745,-11.61296245526378 L-4.427044067756116,-11.652108966686246 L-4.641464924397957,-11.693205704128562 L-4.854313083735319,-11.736238742519811 L-5.0655164250623645,-11.781193500699827 L-5.27500338499749,-11.828054746359808 L-5.482702981731591,-11.876806601203583 L-5.688544839079295,-11.927432546327761 L-5.8924592103249696,-11.97991542781892 L-6.09437700185545,-12.034237462566 L-6.294229796571472,-12.090380244285853 L-6.491949877069874,-12.148324749759965 L-6.687470248588712,-12.208051345280213 L-6.880724661707549,-12.26953979330149 L-7.071647634795156,-12.33276925929892 L-7.26017447619705,-12.397718318827337 L-7.446241306155412,-12.464364964780685 L-7.629785078453864,-12.53268661484882 L-7.810743601779826,-12.602660119169222 L-7.989055560797195,-12.674261768171005 L-8.16466053692221,-12.74746730060859 L-8.337499028795472,-12.822251911782294 L-8.507512472443167,-12.898590261943067 L-8.674643261120679,-12.976456484878518 L-8.838834764831764,-13.0558241966773 " />
			<path d="M-8.838834764831843,-30.46358979224712 L-9.053088536893334,-30.571702504020223 L-9.261889066936993,-30.68237153950748 L-9.46511058133106,-30.795530235820074 L-9.662630667034215,-30.91111043039064 L-9.854330345332581,-31.029042502031782 L-10.040094143508064,-31.149255412873313 L-10.219810164394797,-31.27167675115279 L-10.393370153781815,-31.396232774833663 L-10.560669565621337,-31.522848456024715 L-10.7216076250034,-31.65144752617406 L-10.876087388858892,-31.781952522010474 L-11.024015804354436,-31.91428483220436 L-11.165303764943939,-32.048364744720274 L-11.299866164043038,-32.1841114948325 L-11.427621946294131,-32.32144331377466 L-11.548494156391081,-32.46027747799419 L-11.662409985434232,-32.600530358981906 L-11.769300814787757,-32.74211747364671 L-11.869102257412955,-32.884953535204986 L-11.961754196652608,-33.028952504554255 L-12.047200822442996,-33.174027642099844 L-12.125390664931796,-33.3200915600036 L-12.196276625481605,-33.46705627482307 L-12.25981600504038,-33.6148332605094 L-12.315970529861763,-33.76333350173215 L-12.364706374559763,-33.9124675474988 L-12.405994182483875,-34.06214556503665 L-12.439809083402462,-34.21227739390476 L-12.466130708483627,-34.36277260030322 L-12.484943202564654,-34.51354053154706 L-12.496235233702553,-34.66449037067208 L-12.5,-34.81553119113951 " />
			<path d="M-12.5,-34.81553119113957 L-12.496235233702553,-34.96657201160706 L-12.484943202564654,-35.11752185073208 L-12.466130708483627,-35.26828978197592 L-12.439809083402462,-35.41878498837438 L-12.405994182483875,-35.56891681724249 L-12.364706374559761,-35.71859483478034 L-12.315970529861765,-35.867728880546984 L-12.259816005040381,-36.01622912176974 L-12.196276625481607,-36.16400610745607 L-12.1253906649318,-36.310970822275536 L-12.047200822442997,-36.45703474017929 L-11.96175419665261,-36.60210987772488 L-11.869102257412958,-36.74610884707415 L-11.769300814787758,-36.88894490863243 L-11.662409985434236,-37.030532023297226 L-11.548494156391085,-37.17078490428495 L-11.427621946294133,-37.30961906850448 L-11.299866164043042,-37.44695088744664 L-11.16530376494394,-37.58269763755886 L-11.024015804354438,-37.71677755007478 L-10.876087388858892,-37.84910986026866 L-10.7216076250034,-37.97961485610508 L-10.560669565621337,-38.10821392625443 L-10.393370153781815,-38.23482960744548 L-10.219810164394795,-38.35938563112635 L-10.040094143508062,-38.48180696940583 L-9.854330345332578,-38.60201988024736 L-9.662630667034211,-38.719951951888504 L-9.465110581331055,-38.835532146459066 L-9.261889066936988,-38.94869084277167 L-9.053088536893336,-39.05935987825892 L-8.838834764831843,-39.16747259003202 L-8.619256809213335,-39.272963855036 L-8.394486935587729,-39.37577012927739 L-8.16466053692221,-39.475829486100764 L-7.929916052045568,-39.57308165349103 L-7.690394882257835,-39.66746805037905 L-7.446241306155417,-39.75893182192867 L-7.1976023927230655,-39.847417873783954 L-6.9446279127450286,-39.93287290525597 L-6.687470248588714,-40.015245441429144 L-6.4262843024152705,-40.09448586416778 L-6.161227402872301,-40.17054644200421 L-5.892459210324972,-40.24338135889043 L-5.620141620682586,-40.312946741796 L-5.344438667878528,-40.37920068713546 L-5.065516425062373,-40.44210328600953 L-4.783542904563623,-40.50161664824473 L-4.498687956687354,-40.557704925217 L-4.211123167402751,-40.61033433144557 L-3.9210217549861417,-40.659473164944075 L-3.628558465680779,-40.70509182631661 L-3.3339094684362305,-40.74716283658738 L-3.0372522487907996,-40.78566085375292 L-2.738765501960875,-40.82056268804723 L-2.438629025201604,-40.8518473159104 L-2.137023609503764,-40.8794958926524 L-1.834130930692022,-40.90349176380445 L-1.5301334399902036,-40.92382047515105 L-1.2252142541195097,-40.94046978143659 L-0.9195570449958459,-40.95342965374155 L-0.6133459290927266,-40.962692285523445 L-0.3067653565364033,-40.968252097319244 L-7.654042494670958e-16,-40.970105740106206 L0.3067653565364018,-40.968252097319244 L0.6133459290927251,-40.962692285523445 L0.9195570449958443,-40.95342965374155 L1.2252142541195081,-40.94046978143659 L1.530133439990202,-40.92382047515105 L1.8341309306920204,-40.90349176380445 L2.1370236095037627,-40.8794958926524 L2.4386290252016023,-40.8518473159104 L2.738765501960873,-40.82056268804723 L3.0372522487907982,-40.78566085375292 L3.3339094684362287,-40.74716283658738 L3.628558465680777,-40.70509182631661 L3.9210217549861404,-40.659473164944075 L4.211123167402749,-40.61033433144557 L4.498687956687352,-40.557704925217 L4.783542904563622,-40.50161664824473 L5.065516425062374,-40.44210328600953 L5.344438667878528,-40.37920068713545 L5.620141620682584,-40.312946741796 L5.892459210324971,-40.24338135889043 L6.1612274028723,-40.17054644200421 L6.4262843024152705,-40.09448586416778 L6.687470248588713,-40.015245441429144 L6.944627912745024,-39.93287290525598 L7.197602392723063,-39.847417873783954 L7.446241306155412,-39.75893182192867 L7.69039488225783,-39.66746805037905 L7.929916052045567,-39.57308165349103 L8.164660536922211,-39.475829486100764 L8.39448693558773,-39.37577012927739 L8.619256809213336,-39.272963855036 L8.838834764831843,-39.16747259003202 L9.053088536893334,-39.05935987825892 L9.261889066936986,-38.94869084277167 L9.465110581331054,-38.835532146459066 L9.662630667034213,-38.719951951888504 L9.854330345332581,-38.602019880247354 L10.040094143508064,-38.481806969405824 L10.219810164394797,-38.35938563112635 L10.393370153781817,-38.23482960744548 L10.560669565621339,-38.10821392625443 L10.7216076250034,-37.97961485610508 L10.876087388858892,-37.84910986026866 L11.024015804354438,-37.71677755007478 L11.16530376494394,-37.582697637558866 L11.299866164043038,-37.44695088744664 L11.427621946294131,-37.30961906850448 L11.548494156391085,-37.17078490428495 L11.662409985434238,-37.030532023297226 L11.76930081478776,-36.888944908632425 L11.869102257412958,-36.74610884707415 L11.96175419665261,-36.60210987772488 L12.047200822442997,-36.45703474017929 L12.1253906649318,-36.310970822275536 L12.196276625481605,-36.16400610745607 L12.259816005040381,-36.01622912176974 L12.315970529861765,-35.86772888054699 L12.364706374559761,-35.71859483478034 L12.405994182483875,-35.56891681724249 L12.43980908340246,-35.41878498837438 L12.466130708483627,-35.26828978197592 L12.484943202564654,-35.11752185073208 L12.496235233702553,-34.96657201160706 L12.5,-34.8155311911396 " />
			<path d="M12.5,-34.81553119113957 L12.497882272447793,-34.7022455997316 L12.49152980735437,-34.588998393606545 L12.480944757166185,-34.475827945040976 L12.466130708483627,-34.362772600303224 L12.447092680845747,-34.249870666660236 L12.42383712502945,-34.137160399397715 L12.396371920863745,-34.0246799888578 L12.364706374559763,-33.9124675474988 L12.328851215557485,-33.80056109698133 L12.288818592890205,-33.68899855528515 L12.244622071068006,-33.5778177238612 L12.196276625481607,-33.46705627482307 L12.143798637328148,-33.35675173818234 L12.087205888060652,-33.246941489132034 L12.026517553363021,-33.13766273538253 L11.961754196652612,-33.02895250455426 L11.892937762112606,-32.920847631631396 L11.820091567256519,-32.81338474648081 L11.743240295027377,-32.70660026144052 L11.662409985434238,-32.60053035898191 L11.577628026728894,-32.49521097944978 L11.488923146125723,-32.3906778088844 L11.396325400067873,-32.286966266929845 L11.299866164043044,-32.18411149483251 L11.199578121952317,-32.08214834353393 L11.095495255035678,-31.981111361862084 L10.98765283035792,-31.881034784824962 L10.876087388858894,-31.781952522010478 L10.760836732972091,-31.683898146096695 L10.641939913815817,-31.586904881476183 L10.519437217961233,-31.49100559299835 L10.393370153781818,-31.396232774833663 L10.26378143738881,-31.30261853946345 L10.130714978157439,-31.21019460679899 L9.994215863848819,-31.11899229343367 L9.854330345332583,-31.029042502031785 L9.71110582091541,-30.940375710857587 L9.564590820280738,-30.85302196344814 L9.414834988045158,-30.767010858433466 L9.261889066936991,-30.68237153950748 L9.10580488060282,-30.599132685552995 L8.946635316047738,-30.51732250092433 L8.78443430571532,-30.43696870589061 L8.619256809213338,-30.358098527243143 L8.45115879469145,-30.280738689069985 L8.28019721987715,-30.20491540370086 L8.10643001277641,-30.130654362825442 L7.9299160520455745,-30.05798072878811 L7.750715147041126,-29.986919126062 L7.568888017554079,-29.917493632905348 L7.3844962732359365,-29.849727773202908 L7.1976023927230735,-29.783644508495193 L7.0082697024667056,-29.71926623019826 L6.816562355275585,-29.65661475201671 L6.622545308578687,-29.595711302552388 L6.426284302415272,-29.536576518111364 L6.227845837159773,-29.47923043571161 L6.027297150989032,-29.423692486293714 L5.824706197099573,-29.36998148813699 L5.6201416206825865,-29.318115640483143 L5.413672735664412,-29.2681125173697 L5.205369501220476,-29.219989061675314 L4.995302498070594,-29.17376157937886 L4.783542904563629,-29.129445734034412 L4.570162472559678,-29.087056541463838 L4.355233503117936,-29.0466083646689 L4.138828821998457,-29.008114908964554 L3.9210217549861537,-28.971589217335072 L3.7018861030453167,-28.937043666014617 L3.4814961173131813,-28.904489960293724 L3.259926473940959,-28.873939130553115 L3.0372522487908125,-28.845401528526217 L2.813548891997422,-28.818886823791605 L2.5888922024027416,-28.79440400049659 L2.3633583018725854,-28.771961354313095 L2.137023609503771,-28.75156648962674 L1.9099648157305467,-28.733226316960227 L1.6822588563390795,-28.716947050631788 L1.4539828863988096,-28.70273420664956 L1.2252142541195168,-28.69059260084255 L0.9960304746428947,-28.680526347228856 L0.7665092037776235,-28.672538856621703 L0.5367282116867745,-28.66663283547372 L0.30676535653641596,-28.662810284959896 L0.0766985581144413,-28.661072500299525 L-0.1533942285714907,-28.66142007031732 L-0.38343503970795145,-28.663852877243894 L-0.6133459290927208,-28.668370096755694 L-0.8430489945457984,-28.674970198254282 L-1.0724664043054981,-28.683650945384976 L-1.3015204234006836,-28.69440939679459 L-1.530133439990195,-28.707241907128093 L-1.7582279916605987,-28.722144128263775 L-1.9857267916732535,-28.739111010786544 L-2.212552755151847,-28.75813680569887 L-2.4386290252015925,-28.77921506636874 L-2.663878998951134,-28.80233865071401 L-2.888226353508382,-28.82749972362241 L-3.1115950718214975,-28.854689759606373 L-3.3339094684362274,-28.88389954569176 L-3.555094215140897,-28.915119184539563 L-3.775074366490352,-28.948338097799486 L-3.993775385200199,-28.98354502969427 L-4.211123167402745,-29.020728050833565 L-4.427044067756116,-29.05987456225603 L-4.641464924397957,-29.100971299698347 L-4.854313083735319,-29.144004338089594 L-5.0655164250623645,-29.188959096269613 L-5.27500338499749,-29.235820341929593 L-5.482702981731591,-29.284572196773368 L-5.688544839079295,-29.335198141897546 L-5.8924592103249696,-29.387681023388705 L-6.09437700185545,-29.442003058135786 L-6.294229796571472,-29.49814583985564 L-6.491949877069874,-29.55609034532975 L-6.687470248588712,-29.615816940849996 L-6.880724661707549,-29.677305388871275 L-7.071647634795156,-29.740534854868706 L-7.26017447619705,-29.805483914397122 L-7.446241306155412,-29.87213056035047 L-7.629785078453864,-29.940452210418606 L-7.810743601779826,-30.010425714739007 L-7.989055560797195,-30.082027363740792 L-8.16466053692221,-30.155232896178376 L-8.337499028795472,-30.23001750735208 L-8.507512472443167,-30.30635585751285 L-8.674643261120679,-30.384222080448303 L-8.838834764831764,-30.463589792247085 " />
			<path d="M-7.424621202458789,-31.159900416069892 L-7.604594370990442,-31.2507150939593 L-7.779986816227117,-31.34367708376859 L-7.950692888318133,-31.438730388671175 L-8.116609760308783,-31.535817752110447 L-8.27763749007941,-31.63488069228901 L-8.433679080546815,-31.735859537395893 L-8.584640538091671,-31.838693461550655 L-8.730430929176768,-31.943320521442587 L-8.870962435121966,-32.04967769364307 L-9.006150405002899,-32.15770091256852 L-9.135913406641512,-32.26732510907111 L-9.260173275657769,-32.37848424963397 L-9.37885516255295,-32.491111376147344 L-9.491887577796195,-32.60513864624161 L-9.599202434887113,-32.72049737415303 L-9.700735091368552,-32.837118072097425 L-9.796424387764798,-32.95493049212711 L-9.886212684421757,-33.07386366844554 L-9.970045896226924,-33.1938459601545 L-10.047873525188233,-33.31480509440789 L-10.11964869085216,-33.43666820994618 L-10.185328158542752,-33.55936190098534 L-10.244872365404591,-33.68281226143369 L-10.298245444233961,-33.80694492941021 L-10.345415245083924,-33.931685132037316 L-10.386353354630243,-34.0569577304813 L-10.421035113286496,-34.1826872652131 L-10.44943963005811,-34.308798001462314 L-10.47154979512629,-34.43521397483701 L-10.487352290154353,-34.56185903708184 L-10.496837596310188,-34.68865690194686 L-10.500000000000043,-34.8155311911395 " />
			<path d="M-10.500000000000043,-34.81553119113955 L-10.496837596310188,-34.94240548033224 L-10.487352290154353,-35.06920334519726 L-10.47154979512629,-35.195848407442085 L-10.44943963005811,-35.32226438081678 L-10.421035113286496,-35.448375117066 L-10.386353354630241,-35.574104651797796 L-10.345415245083926,-35.69937725024178 L-10.298245444233963,-35.82411745286889 L-10.244872365404593,-35.94825012084541 L-10.185328158542754,-36.07170048129376 L-10.119648690852161,-36.19439417233291 L-10.047873525188235,-36.31625728787121 L-9.970045896226928,-36.43721642212459 L-9.88621268442176,-36.55719871383355 L-9.7964243877648,-36.67613189015198 L-9.700735091368553,-36.793944310181665 L-9.599202434887113,-36.91056500812607 L-9.491887577796197,-37.025923736037484 L-9.378855162552954,-37.13995100613175 L-9.26017327565777,-37.25257813264513 L-9.135913406641512,-37.36373727320799 L-9.006150405002899,-37.473361469710575 L-8.870962435121966,-37.58138468863603 L-8.730430929176768,-37.68774186083651 L-8.584640538091671,-37.79236892072844 L-8.433679080546815,-37.89520284488321 L-8.277637490079409,-37.99618168999009 L-8.11660976030878,-38.09524463016865 L-7.950692888318129,-38.19233199360793 L-7.779986816227112,-38.28738529851051 L-7.604594370990445,-38.3803472883198 L-7.424621202458791,-38.4711619662092 L-7.240175719739244,-38.55977462881255 L-7.051369025893735,-38.646131899175316 L-6.858314851014699,-38.73018175890695 L-6.66112948371832,-38.811873579514774 L-6.459931701096624,-38.891158152900715 L-6.254842697170593,-38.96798772100239 L-6.045986009887417,-39.04231600456083 L-5.833487446705867,-39.11409823099733 L-5.617475008814563,-39.18329116138279 L-5.39807881402887,-39.249853116483244 L-5.175431018412776,-39.31374400186584 L-4.94966573667302,-39.374925332050275 L-4.720918961373414,-39.43336025369095 L-4.489328481018005,-39.48901356777609 L-4.255033797052437,-39.54185175083031 L-4.018176039833486,-39.59184297510788 L-3.778897883617419,-39.63895712776459 L-3.5373434606183527,-39.68316582899659 L-3.2936582741884015,-39.72444244913533 L-3.047989111171897,-39.762762124688265 L-2.800483953486476,-39.79810177331571 L-2.551291888984314,-39.830440107734766 L-2.3005630216471773,-39.859757648541986 L-2.04844838116939,-39.886036735947044 L-1.7950998319832043,-39.90926154041033 L-1.5406699817813407,-39.92941807217805 L-1.2853120895918133,-39.946494189709185 L-1.0291799734604306,-39.96047960698905 L-0.7724279177965528,-39.971365899725214 L-0.5152105804379327,-39.979146510422005 L-0.25768289949062106,-39.98381675233047 L-4.2947510776328003e-14,-39.985373812271526 L0.2576828994905352,-39.98381675233047 L0.5152105804378467,-39.979146510422005 L0.772427917796467,-39.971365899725214 L1.0291799734603444,-39.96047960698905 L1.2853120895917272,-39.946494189709185 L1.5406699817812548,-39.92941807217805 L1.7950998319831184,-39.90926154041033 L2.0484483811693037,-39.886036735947044 L2.300563021647091,-39.859757648541986 L2.5512918889842284,-39.830440107734766 L2.80048395348639,-39.79810177331571 L3.0479891111718107,-39.762762124688265 L3.293658274188316,-39.72444244913533 L3.537343460618267,-39.68316582899659 L3.7788978836173337,-39.63895712776459 L4.018176039833399,-39.59184297510788 L4.255033797052351,-39.54185175083031 L4.489328481017921,-39.48901356777609 L4.720918961373328,-39.43336025369095 L4.949665736672933,-39.374925332050275 L5.175431018412689,-39.31374400186584 L5.398078814028785,-39.249853116483244 L5.617475008814476,-39.18329116138279 L5.833487446705778,-39.11409823099733 L6.04598600988733,-39.04231600456083 L6.254842697170503,-38.96798772100239 L6.459931701096535,-38.891158152900715 L6.661129483718234,-38.81187357951478 L6.858314851014614,-38.73018175890695 L7.051369025893651,-38.646131899175316 L7.2401757197391605,-38.55977462881255 L7.424621202458706,-38.4711619662092 L7.604594370990359,-38.3803472883198 L7.779986816227026,-38.28738529851051 L7.950692888318043,-38.19233199360793 L8.116609760308696,-38.09524463016865 L8.277637490079325,-37.99618168999009 L8.43367908054673,-37.8952028448832 L8.584640538091588,-37.79236892072844 L8.730430929176684,-37.68774186083651 L8.870962435121882,-37.58138468863603 L9.006150405002813,-37.473361469710575 L9.135913406641427,-37.36373727320799 L9.260173275657685,-37.25257813264513 L9.378855162552867,-37.13995100613175 L9.49188757779611,-37.025923736037484 L9.599202434887028,-36.91056500812607 L9.700735091368468,-36.793944310181665 L9.796424387764716,-36.67613189015198 L9.886212684421675,-36.55719871383355 L9.970045896226843,-36.43721642212459 L10.04787352518815,-36.31625728787121 L10.119648690852076,-36.19439417233291 L10.185328158542669,-36.07170048129376 L10.244872365404506,-35.94825012084541 L10.298245444233878,-35.82411745286889 L10.34541524508384,-35.69937725024178 L10.386353354630156,-35.574104651797796 L10.421035113286411,-35.448375117066 L10.449439630058023,-35.32226438081678 L10.471549795126204,-35.195848407442085 L10.487352290154268,-35.06920334519726 L10.496837596310103,-34.94240548033224 L10.499999999999957,-34.81553119113957 " />
			<path d="M10.499999999999957,-34.81553119113955 L10.498221108856104,-34.72037129435685 L10.492885038177628,-34.6252436412118 L10.483993596019552,-34.53018046441673 L10.471549795126204,-34.43521397483702 L10.455557851910385,-34.34037635057691 L10.436023185024697,-34.24569972607639 L10.412952413525502,-34.15121618122286 L10.386353354630158,-34.0569577304813 L10.356235021068244,-33.96295631204663 L10.32260761802773,-33.86924377702184 L10.285482539697083,-33.77585187862572 L10.244872365404508,-33.68281226143369 L10.200790855355601,-33.59015645065548 L10.153252945970905,-33.497915841453214 L10.102274744824895,-33.406121688303635 L10.047873525188152,-33.31480509440789 L9.990067720174546,-33.22399700115268 L9.928876916495433,-33.13372817762619 L9.864321847822954,-33.04402921019235 L9.796424387764718,-32.95493049212712 L9.725207542452228,-32.866462213320126 L9.650695442745564,-32.77865435004521 L9.57291333605697,-32.691536654803386 L9.491887577796113,-32.60513864624161 L9.407645622439905,-32.51948959915081 L9.320216014229926,-32.43461853454646 L9.22962837750061,-32.35055420983528 L9.135913406641428,-32.26732510907111 L9.039102855696514,-32.18495943330353 L8.939229527605242,-32.1034850910223 L8.836327263087393,-32.02292968870092 L8.730430929176684,-31.943320521442587 L8.621576407406558,-31.864684563731608 L8.509800581652206,-31.78704846029346 L8.395141325632965,-31.710438517066592 L8.277637490079327,-31.63488069228901 L8.157328889568902,-31.560400587702684 L8.034256289035778,-31.487023439878747 L7.90846138995789,-31.41477411166642 L7.77998681622703,-31.34367708376859 L7.648876099706326,-31.273756446446825 L7.515173665480058,-31.205035891358747 L7.378924816800827,-31.137538703530424 L7.240175719739161,-31.07128775346655 L7.0989733875407754,-31.0063054894011 L6.955365664696764,-30.94261392969103 L6.809401210732142,-30.880234655355682 L6.6611294837182395,-30.819188802764323 L6.510600723514504,-30.75949705647439 L6.357865934745384,-30.701179642222804 L6.202976869518144,-30.644256320072756 L6.045986009887339,-30.588746377718273 L5.886946550071991,-30.53466862394885 L5.725912378431449,-30.482041382276346 L5.398078814028786,-30.381209265795857 L5.062929606830744,-30.286386679069032 L4.7209189613733304,-30.197702128588148 L4.372510381025156,-30.115275802389572 L4.018176039833406,-30.039219407171217 L3.6583961426190235,-29.969636016904186 L3.293658274188327,-29.90661993314377 L2.92445673854303,-29.850256557229038 L2.55129188898424,-29.800622274544335 L2.174669450018261,-29.757784350999447 L1.7950998319831253,-29.72180084186877 L1.4130974393247844,-29.692720513113013 L1.0291799734603517,-29.67058277529005 L0.6438677311731614,-29.65541763014454 L0.2576828994905471,-29.647245629948625 L-0.12885115200009448,-29.646077849648858 L-0.5152105804379278,-29.651915871857092 L-0.9008717796166608,-29.66475178470569 L-1.2853120895918062,-29.684568192569913 L-1.6680105050055754,-29.71133823964301 L-2.04844838116938,-29.745025646332053 L-2.4261101369470834,-29.785584758425138 L-2.800483953486473,-29.83296060896339 L-3.1710624678519377,-29.88708899273388 L-3.5373434606183483,-29.947896553282504 L-3.8988305364943265,-30.015300882328923 L-4.2550337970524295,-30.089210631448783 L-4.605470504654579,-30.169525635871942 L-4.949665736673017,-30.256137050228823 L-5.28715302912008,-30.348927496061044 L-5.61747500881456,-30.447771220896307 L-5.940184013227974,-30.552534268672023 L-6.098546560005564,-30.607091478675894 L-6.254842697170588,-30.663074661276706 L-6.409019465901289,-30.72046484733394 L-6.561024625495097,-30.779242590963076 L-6.710806671069687,-30.839387976124573 L-6.858314851014699,-30.900880623372146 L-7.003499184188239,-30.963699696758056 L-7.146310476852303,-31.027823910893105 L-7.286700339341413,-31.093231538158886 L-7.424621202458725,-31.15990041606986 " />
			<path d="M18.000000000000004,-10.444659357341871 L18.000000000000004,0.0 " />
			<path d="M-18.000000000000004,-10.444659357341871 L-18.000000000000004,0.0 " />
			<path d="M14.100000000000001,-17.407765595569785 L14.100000000000001,-10.444659357341871 " />
			<path d="M-14.100000000000001,-17.407765595569785 L-14.100000000000001,-10.444659357341871 " />
			<path d="M12.500000000000002,-34.81553119113957 L12.500000000000002,-17.407765595569785 " />
			<path d="M-12.500000000000002,-34.81553119113957 L-12.500000000000002,-17.407765595569785 " />

       </g>
    </g>
    
</svg>
