<?xml version="1.0" encoding="UTF-8" standalone="no"?>
<svg
   xmlns:svg="http://www.w3.org/2000/svg"
   xmlns="http://www.w3.org/2000/svg"
   width="800.0"
   height="800.0"

>
    <g transform="scale(13.636363574380166, -13.636363574380166)   translate(42.933333446666666,-20.93333344666669)" stroke-width="0.07333333366666667"  fill="none">
       <!-- hidden lines -->
       <g  stroke="rgb(180,180,180)" fill="none" stroke-dasharray="0.07333333366666667,0.07333333366666667" >

       </g>

       <!-- solid lines -->
       <g  stroke="rgb(40,40,40)" fill="none">
			<path d="M0.0,18.0 L-12.0,18.0 " />
			<path d="M0.0,-18.0 L0.0,-17.548702419272825 L0.0,-16.217439622243546 L0.0,-14.07296668442454 L0.0,-11.222816433457206 L0.0,-7.809907304116049 L0.0,-4.0053768112136625 L0.0,-3.3065463576978533e-15 L0.0,4.005376811213656 L0.0,7.809907304116043 L0.0,11.2228164334572 L0.0,14.072966684424534 L0.0,16.217439622243543 L0.0,17.54870241927282 L0.0,17.999999999999982 " />
			<path d="M-12.0,-18.0 L-12.0,-17.548702419272825 L-12.0,-16.217439622243546 L-12.0,-14.07296668442454 L-12.0,-11.222816433457206 L-12.0,-7.809907304116049 L-12.0,-4.0053768112136625 L-12.0,-3.3065463576978533e-15 L-12.0,4.005376811213656 L-12.0,7.809907304116043 L-12.0,11.2228164334572 L-12.0,14.072966684424534 L-12.0,16.217439622243543 L-12.0,17.54870241927282 L-12.0,17.999999999999982 " />
			<path d="M-12.0,14.1 L-20.0,14.1 " />
			<path d="M-20.0,-14.1 L-20.0,-13.746483561763712 L-20.0,-12.70366103742411 L-20.0,-11.023823902799222 L-20.0,-8.791206206208145 L-20.0,-6.117760721557572 L-20.0,-3.1375451687840354 L-20.0,-2.5901279801966517e-15 L-20.0,3.1375451687840306 L-20.0,6.117760721557567 L-20.0,8.791206206208141 L-20.0,11.023823902799219 L-20.0,12.703661037424109 L-20.0,13.74648356176371 L-20.0,14.099999999999985 " />
			<path d="M4.0,-0.9068341586736182 L4.0,0.6156215676336649 L4.0,2.1296328483967994 L4.0,3.614432078181191 L4.0,5.049652351571046 L4.0,6.415606834836526 L4.0,7.693558809096797 L4.0,8.865978680812498 L4.0,9.916784434209482 L4.0,10.831562227361852 L4.0,11.597764106030498 L4.0,12.20488012322783 L4.0,12.64458250355457 L4.0,12.910839874814682 L4.0,12.999999999999996 " />
			<path d="M4.0,-13.000000000000002 L4.0,-12.946596897500722 L4.0,-12.786826342519278 L4.0,-12.522000987874753 L4.0,-12.154296602114604 L4.0,-11.686734193700708 L4.0,-11.123155190820963 L4.0,-10.468189880745708 L4.0,-9.727219368026859 L4.0,-8.9063313640859 L4.0,-8.01227017141743 L4.0,-7.052381273331099 L4.0,-6.034550984474965 L4.0,-4.967141657963287 L4.0,-3.858922981438048 " />
			<path d="M4.0,-3.858922981437993 L4.0,-3.7413372650955963 " />
			<path d="M4.0,-3.7413372650955963 L4.0,-3.623466631435292 " />
			<path d="M4.0,-3.623466631435292 L4.0,-3.5053200567621823 " />
			<path d="M4.0,-3.5053200567621823 L4.0,-3.3869065383953516 " />
			<path d="M4.0,-3.386906538395352 L4.0,-3.268235093982675 " />
			<path d="M4.0,-3.268235093982675 L4.0,-3.1493147608141103 " />
			<path d="M4.0,-3.1493147608141103 L4.0,-3.030154595133442 " />
			<path d="M4.0,-3.0301545951334425 L4.0,-2.9107636714486342 " />
			<path d="M4.0,-2.9107636714486342 L4.0,-2.7911510818407654 " />
			<path d="M4.0,-2.791151081840765 L4.0,-2.6713259352716276 " />
			<path d="M4.0,-2.671325935271627 L4.0,-2.5512973568900654 " />
			<path d="M4.0,-2.5512973568900654 L4.0,-2.4310744873370274 " />
			<path d="M4.0,-2.4310744873370274 L4.0,-2.310666482049491 " />
			<path d="M4.0,-2.310666482049491 L4.0,-2.1900825105632316 " />
			<path d="M4.0,-2.1900825105632316 L4.0,-2.069331755814549 " />
			<path d="M4.0,-2.069331755814549 L4.0,-1.9484234134409182 " />
			<path d="M4.0,-1.9484234134409184 L4.0,-1.8273666910807258 " />
			<path d="M4.0,-1.8273666910807256 L4.0,-1.7061708076720692 " />
			<path d="M4.0,-1.7061708076720692 L4.0,-1.584844992750694 " />
			<path d="M4.0,-1.584844992750694 L4.0,-1.4633984857471498 " />
			<path d="M4.0,-1.4633984857471498 L4.0,-1.3418405352831386 " />
			<path d="M4.0,-1.3418405352831384 L4.0,-1.2201803984672186 " />
			<path d="M4.0,-1.2201803984672186 L4.0,-1.0984273401898283 " />
			<path d="M4.0,-1.0984273401898283 L4.0,-0.9765906324177547 " />
			<path d="M4.0,-0.9765906324177549 L4.0,-0.9068341586736296 " />
			<path d="M0.0,-0.9068341586736295 L4.0,-0.9068341586736295 " />
			<path d="M4.0,-3.858922981437993 L0.0,-3.858922981437993 " />
			<path d="M4.0,-3.7413372650955963 L0.0,-3.7413372650955963 " />
			<path d="M4.0,-3.623466631435292 L0.0,-3.623466631435292 " />
			<path d="M4.0,-3.5053200567621823 L0.0,-3.5053200567621823 " />
			<path d="M4.0,-3.386906538395352 L0.0,-3.386906538395352 " />
			<path d="M4.0,-3.268235093982675 L0.0,-3.268235093982675 " />
			<path d="M4.0,-3.1493147608141103 L0.0,-3.1493147608141103 " />
			<path d="M4.0,-3.0301545951334425 L0.0,-3.0301545951334425 " />
			<path d="M4.0,-2.9107636714486342 L0.0,-2.9107636714486342 " />
			<path d="M4.0,-2.791151081840765 L0.0,-2.791151081840765 " />
			<path d="M4.0,-2.671325935271627 L0.0,-2.671325935271627 " />
			<path d="M4.0,-2.5512973568900654 L0.0,-2.5512973568900654 " />
			<path d="M4.0,-2.4310744873370274 L0.0,-2.4310744873370274 " />
			<path d="M4.0,-2.310666482049491 L0.0,-2.310666482049491 " />
			<path d="M4.0,-2.1900825105632316 L0.0,-2.1900825105632316 " />
			<path d="M4.0,-2.069331755814549 L0.0,-2.069331755814549 " />
			<path d="M4.0,-1.9484234134409184 L0.0,-1.9484234134409184 " />
			<path d="M4.0,-1.8273666910807256 L0.0,-1.8273666910807256 " />
			<path d="M4.0,-1.7061708076720692 L0.0,-1.7061708076720692 " />
			<path d="M4.0,-1.584844992750694 L0.0,-1.584844992750694 " />
			<path d="M4.0,-1.4633984857471498 L0.0,-1.4633984857471498 " />
			<path d="M4.0,-1.3418405352831384 L0.0,-1.3418405352831384 " />
			<path d="M4.0,-1.2201803984672186 L0.0,-1.2201803984672186 " />
			<path d="M4.0,-1.0984273401898283 L0.0,-1.0984273401898283 " />
			<path d="M4.0,-0.9765906324177549 L0.0,-0.9765906324177549 " />
			<path d="M-20.0,12.5 L-40.0,12.5 " />
			<path d="M-40.0,-12.5 L-40.0,-12.186598902272795 L-40.0,-11.262110848780239 L-40.0,-9.772893530850373 L-40.0,-7.793622523234172 L-40.0,-5.4235467389694785 L-40.0,-2.7815116744539323 L-40.0,-2.296212748401287e-15 L-40.0,2.781511674453928 L-40.0,5.423546738969474 L-40.0,7.793622523234167 L-40.0,9.772893530850371 L-40.0,11.262110848780239 L-40.0,12.186598902272793 L-40.0,12.499999999999988 " />
			<path d="M-12.0,-18.0 L0.0,-18.0 " />
			<path d="M-20.0,-14.1 L-12.0,-14.1 " />
			<path d="M0.0,13.0 L4.0,13.0 " />
			<path d="M0.0,-13.0 L4.0,-13.0 " />
			<path d="M-40.0,-12.5 L-20.0,-12.5 " />

       </g>
    </g>
    
</svg>
