<?xml version="1.0" encoding="UTF-8" standalone="no"?>
<svg
   xmlns:svg="http://www.w3.org/2000/svg"
   xmlns="http://www.w3.org/2000/svg"
   width="800.0"
   height="800.0"

>
    <g transform="scale(14.999999925, -14.999999925)   translate(4.66666678,-18.66666678)" stroke-width="0.066666667"  fill="none">
       <!-- hidden lines -->
       <g  stroke="rgb(180,180,180)" fill="none" stroke-dasharray="0.066666667,0.066666667" >

       </g>

       <!-- solid lines -->
       <g  stroke="rgb(40,40,40)" fill="none">
			<path d="M0.0,0.0 L0.0,-1.7914316176529257 L0.0,-3.5603349433010303 L0.0,-5.2844649912826736 L0.0,-6.94213982588093 L0.0,-8.512513224245385 L0.0,-9.975836829739736 L0.0,-11.31370849898476 L0.0,-12.509303719488477 L0.0,-13.547587187652546 L0.0,-14.415501886438706 L0.0,-15.102133284933881 L0.0,-15.598846594909178 L0.0,-15.899395358291882 L0.0,-15.999999999999998 " />
			<path d="M0.0,16.0 L0.0,15.899395358291882 L0.0,15.598846594909178 L0.0,15.102133284933881 L0.0,14.415501886438708 L0.0,13.547587187652548 L0.0,12.509303719488479 L0.0,11.313708498984763 L0.0,9.97583682973974 L0.0,8.512513224245389 L0.0,6.9421398258809335 L0.0,5.284464991282677 L0.0,3.5603349433010343 L0.0,1.7914316176529295 L0.0,1.4566126083082054e-13 " />
			<path d="M10.0,0.0 L10.0,-1.7914316176529257 L10.0,-3.5603349433010303 L10.0,-5.2844649912826736 L10.0,-6.94213982588093 L10.0,-8.512513224245385 L10.0,-9.975836829739736 L10.0,-11.31370849898476 L10.0,-12.509303719488477 L10.0,-13.547587187652546 L10.0,-14.415501886438706 L10.0,-15.102133284933881 L10.0,-15.598846594909178 L10.0,-15.899395358291882 L10.0,-15.999999999999998 " />
			<path d="M10.0,16.0 L10.0,15.899395358291882 L10.0,15.598846594909178 L10.0,15.102133284933881 L10.0,14.415501886438708 L10.0,13.547587187652548 L10.0,12.509303719488479 L10.0,11.313708498984763 L10.0,9.97583682973974 L10.0,8.512513224245389 L10.0,6.9421398258809335 L10.0,5.284464991282677 L10.0,3.5603349433010343 L10.0,1.7914316176529295 L10.0,1.4566126083082054e-13 " />
			<path d="M18.0,0.0 L18.0,-1.5786991130566408 L18.0,-3.137545168784033 L18.0,-4.656934773567856 L18.0,-6.11776072155757 L18.0,-7.501652278866246 L18.0,-8.791206206208141 L18.0,-9.970205614730318 L18.0,-11.02382390279922 L18.0,-11.938811209118805 L18.0,-12.70366103742411 L18.0,-13.308754957347983 L18.0,-13.746483561763712 L18.0,-14.01134215949472 L18.0,-14.099999999999998 " />
			<path d="M18.0,14.1 L18.0,14.01134215949472 L18.0,13.746483561763712 L18.0,13.308754957347983 L18.0,12.70366103742411 L18.0,11.938811209118807 L18.0,11.023823902799222 L18.0,9.970205614730322 L18.0,8.791206206208145 L18.0,7.501652278866248 L18.0,6.1177607215575724 L18.0,4.656934773567859 L18.0,3.1375451687840363 L18.0,1.5786991130566441 L18.0,1.283417816466681e-13 " />
			<path d="M-2.0,0.0 L-2.0,-1.2316092371363865 L-2.0,-2.447730273519458 L-2.0,-3.633069681506838 L-2.0,-4.77272113029314 L-2.0,-5.8523528416687025 L-2.0,-6.858387820446068 L-2.0,-7.778174593052022 L-2.0,-8.600146307148329 L-2.0,-9.313966191511126 L-2.0,-9.910657546926611 L-2.0,-10.382716633392043 L-2.0,-10.72420703400006 L-2.0,-10.930834308825668 L-2.0,-10.999999999999998 " />
			<path d="M-2.0,11.0 L-2.0,10.930834308825668 L-2.0,10.72420703400006 L-2.0,10.382716633392043 L-2.0,9.910657546926611 L-2.0,9.313966191511126 L-2.0,8.600146307148329 L-2.0,7.778174593052024 L-2.0,6.858387820446071 L-2.0,5.852352841668704 L-2.0,4.772721130293141 L-2.0,3.6330696815068406 L-2.0,2.4477302735194613 L-2.0,1.231609237136389 L-2.0,9.992007221626409e-14 " />
			<path d="M38.0,0.0 L38.0,-1.3995559512913482 L38.0,-2.78151167445393 L38.0,-4.128488274439588 L38.0,-5.423546738969477 L38.0,-6.6504009564417075 L38.0,-7.793622523234169 L38.0,-8.838834764831843 L38.0,-9.772893530850373 L38.0,-10.584052490353551 L38.0,-11.262110848780239 L38.0,-11.798541628854595 L38.0,-12.186598902272795 L38.0,-12.421402623665532 L38.0,-12.499999999999998 " />
			<path d="M38.0,12.5 L38.0,12.421402623665532 L38.0,12.186598902272795 L38.0,11.798541628854595 L38.0,11.26211084878024 L38.0,10.584052490353553 L38.0,9.772893530850373 L38.0,8.838834764831846 L38.0,7.793622523234172 L38.0,6.65040095644171 L38.0,5.423546738969479 L38.0,4.128488274439592 L38.0,2.781511674453933 L38.0,1.3995559512913511 L38.0,1.1368683772161603e-13 " />
			<path d="M10.0,16.0 L0.0,16.0 " />
			<path d="M10.0,-16.0 L0.0,-16.0 " />
			<path d="M18.0,14.1 L10.0,14.1 " />
			<path d="M18.0,-14.1 L10.0,-14.1 " />
			<path d="M0.0,11.0 L-2.0,11.0 " />
			<path d="M0.0,-11.0 L-2.0,-11.0 " />
			<path d="M38.0,12.5 L18.0,12.5 " />
			<path d="M38.0,-12.5 L18.0,-12.5 " />

       </g>
    </g>
    
</svg>
