<?xml version="1.0" encoding="UTF-8" standalone="no"?>
<svg
   xmlns:svg="http://www.w3.org/2000/svg"
   xmlns="http://www.w3.org/2000/svg"
   width="800.0"
   height="800.0"

>
    <g transform="scale(16.666666666666664, -16.666666666666664)   translate(20.4,-20.4)" stroke-width="0.06000000000000001"  fill="none">
       <!-- hidden lines -->
       <g  stroke="rgb(180,180,180)" fill="none" stroke-dasharray="0.06000000000000001,0.06000000000000001" >

       </g>

       <!-- solid lines -->
       <g  stroke="rgb(40,40,40)" fill="none">
			<path d="M18.0,0.0 L17.99602585336034,0.3782241203125575 L17.984105168312645,0.7562812275010286 L17.96424320869584,1.1340043821896206 L17.936448744992173,1.511226792466564 L17.90073405045435,1.8877818875347252 L17.85711489568608,2.26350339126458 L17.80561054167818,2.6382253956170736 L17.74624373130347,3.0117824339039387 L17.679040679274166,3.384009553853128 L17.604031060566204,3.7547423904470936 L17.521247997315598,4.12381723850175 L17.430728044192637,4.491071124954076 L17.332511172260386,4.856341880826437 L17.22664075132457,5.219468212835827 L17.1131635307827,5.580289774616458 L16.99212961898085,5.9386472375241866 L16.863592461087237,6.294382360991568 L16.727608815492307,6.64733806240243 L16.584238728745863,6.997358486455141 L16.433545509042183,7.344289073983914 L16.275595698264897,7.6879766302077925 L16.110459042603978,8.028269392377146 L15.938208461757778,8.365017096787835 L15.758920016733747,8.698071045133423 L15.572672876262033,9.027284170166173 L15.379549281836796,9.352511100637802 L15.179634511400682,9.673608225491323 L14.973016841688487,9.990433757275653 L14.759787509246632,10.302847794754957 L14.54004067014567,10.610712384685105 L14.313873358403622,10.913891582729917 L14.081385443138487,11.212251513490388 L13.842679584468844,11.505660429620262 L13.59786118818203,11.793988770001977 L13.347038359189936,12.077109216957197 L13.090321853792885,12.354896752466706 L12.827825030772804,12.627228713374867 L12.559663801337146,12.8939848455542 L12.285956577935785,13.155047357006225 L12.006824221973401,13.410300969875092 L11.722389990440492,13.659632971351044 L11.432779481486552,13.902933263441211 L11.138120578959466,14.140094411585789 L10.838543395935602,14.371011692098115 L10.534180217265547,14.5955831384077 L10.225165441160822,14.813709586085803 L9.911635519847437,15.025294716633637 L9.593728899312413,15.230245100013914 L9.271585958169947,15.428470235906925 L8.945348945674148,15.619882593672925 L8.615161918905793,15.8043976510032 L8.281170679160754,15.981933931242747 L7.943522707568268,16.15241303936806 L7.6023670999674104,16.31575969660417 L7.257854501070577,16.47190177366565 L6.910137037943016,16.620770322606838 L6.559368252827794,16.76229960726734 L6.205703035345878,16.896427132299273 L5.8492975541012235,17.023093670763416 L5.490309187721125,17.142243290282195 L5.12889645536224,17.253823377737834 L4.765218946712996,17.357784662504816 L4.399437251523273,17.45408123820642 L4.03171288869249,17.54267058298567 L3.6622082349474114,17.62351357828181 L3.29108645314115,17.696574526103937 L2.9185114202050455,17.76182116479424 L2.544647654785229,17.81922468327385 L2.169660244595814,17.86875973376497 L1.793714773520815,17.910404442983783 L1.4169772484969607,17.944140421799034 L1.039614026209708,17.96995277335219 L0.6617917396348102,17.987830099635453 L0.2836772244578878,17.9977645065248 L-0.09456255459551552,17.999751607265818 L-0.472760577486854,17.993790524410755 L-0.8507498426159278,17.979883890205993 L-1.2283634405640877,17.958037845429704 L-1.6054346277967373,17.928262036680273 L-1.9817969002925808,17.89056961211662 L-2.357284067067115,17.84497721565235 L-2.7317303235578874,17.79150497960626 L-3.1049703248391243,17.73017651581248 L-3.4768392586333943,17.66101890519416 L-3.847172918088072,17.584062685805282 L-4.2158077742844595,17.49934183934592 L-4.582581048447556,17.406893776156885 L-4.947330783824581,17.306759318700358 L-5.309895917200514,17.198982683533853 L-5.670116350019082,17.083611461785424 L-6.027833019077773,16.96069659813876 L-6.382887966765665,16.830292368337457 L-6.735124410813063,16.692456355218365 L-7.084386813522136,16.547249423284633 L-7.430520950447987,16.394735691829666 L-7.773373978499823,16.234982506623833 L-8.112794503432163,16.068060410176486 L-8.448632646696273,15.894043110586367 L-8.780740111622318,15.713007448994189 L-9.108970248902997,15.525033365651751 L-9.433178121349737,15.330203864622565 L-9.75322056789289,15.12860497712962 L-10.06895626679763,14.920325723566384 L-10.380245798067639,14.705458074187934 L-10.686951705009069,14.484096908499465 L-10.988938554927534,14.256339973360173 L-11.286072998931392,14.022287839820997 L-11.578223830814844,13.78204385871527 L-11.865262044994914,13.535714115021902 L-12.14706089347667,13.283407381021245 L-12.42349594182159,13.025235068264314 L-12.694445124094289,12.761311178376568 L-12.959788796763402,12.491752252718024 L-13.219409791532811,12.216677320921859 L-13.473193467079854,11.936207848334277 L-13.72102775967771,11.650467682378837 L-13.962803232679589,11.359582997868909 L-14.198413124842872,11.063682241292438 L-14.427753397471868,10.762896074093579 L-14.650722780358375,10.457357314976292 L-14.867222816499758,10.147200881255333 L-15.077157905574778,9.832563729280578 L-15.280435346158015,9.513584793960938 L-15.476965376654201,9.19040492741463 L-15.666661214934415,8.863166836772832 L-15.849439096656628,8.532015021164245 L-16.02521831225368,8.197095707908339 L-16.193921242572348,7.858556787945484 L-16.355473393147786,7.5165477505324745 L-16.50980342709818,7.171219617232286 L-16.656843196625104,6.8227248752272 L-16.79652777310567,6.471217409984758 L-16.92879547576319,6.116852437306273 L-17.05358789890366,5.759786434787896 L-17.170849937706066,5.400177072724524 L-17.280529812555134,5.038183144487026 L-17.38257909190575,4.673964496403568 L-17.476952713668954,4.307681957175968 L-17.563609005110102,3.9394972668622765 L-17.64250970125037,3.5695730054569133 L-17.713619961763477,3.198072521099921 L-17.776908386360233,2.825159857947027 L-17.832347028653963,2.4509996837323604 L-17.879911408500902,2.075757217055815 L-17.919580522809895,1.6995981544271679 L-17.951336854816798,1.3226885970991669 L-17.97516638181937,0.9451949777218907 L-17.99105858136932,0.5672839868507771 L-17.99900643591871,0.1891224993407663 L-17.99900643591871,-0.18912249934093772 L-17.991058581369316,-0.5672839868509485 L-17.975166381819363,-0.9451949777220618 L-17.951336854816784,-1.3226885970993378 L-17.91958052280988,-1.6995981544273386 L-17.87991140850088,-2.075757217055985 L-17.832347028653942,-2.45099968373253 L-17.776908386360205,-2.8251598579471966 L-17.71361996176345,-3.1980725211000895 L-17.642509701250333,-3.569573005457081 L-17.563609005110063,-3.939497266862444 L-17.47695271366891,-4.3076819571761344 L-17.382579091905708,-4.673964496403734 L-17.280529812555088,-5.038183144487191 L-17.170849937706013,-5.400177072724688 L-17.053587898903604,-5.759786434788059 L-16.928795475763135,-6.1168524373064335 L-16.79652777310561,-6.471217409984918 L-16.65684319662504,-6.822724875227358 L-16.509803427098113,-7.171219617232444 L-16.355473393147715,-7.516547750532631 L-16.193921242572273,-7.858556787945639 L-16.025218312253603,-8.197095707908492 L-15.849439096656548,-8.532015021164398 L-15.666661214934331,-8.863166836772981 L-15.476965376654114,-9.190404927414777 L-15.280435346157924,-9.513584793961083 L-15.077157905574683,-9.832563729280722 L-14.867222816499662,-10.147200881255475 L-14.650722780358276,-10.45735731497643 L-14.427753397471765,-10.762896074093716 L-14.198413124842766,-11.063682241292573 L-13.96280323267948,-11.359582997869044 L-13.721027759677597,-11.650467682378968 L-13.473193467079739,-11.936207848334405 L-13.219409791532694,-12.216677320921985 L-12.959788796763284,-12.491752252718147 L-12.694445124094168,-12.761311178376689 L-12.423495941821466,-13.025235068264431 L-12.147060893476544,-13.283407381021362 L-11.865262044994783,-13.535714115022015 L-11.57822383081472,-13.782043858715372 L-11.286072998931266,-14.022287839821098 L-10.988938554927405,-14.256339973360273 L-10.686951705008937,-14.484096908499563 L-10.380245798067506,-14.70545807418803 L-10.068956266797496,-14.920325723566474 L-9.753220567892754,-15.128604977129708 L-9.433178121349597,-15.330203864622652 L-9.108970248902855,-15.525033365651833 L-8.780740111622176,-15.713007448994269 L-8.448632646696128,-15.894043110586443 L-8.112794503432017,-16.068060410176557 L-7.773373978499675,-16.2349825066239 L-7.430520950447838,-16.394735691829734 L-7.084386813521986,-16.5472494232847 L-6.735124410812912,-16.692456355218425 L-6.382887966765512,-16.830292368337513 L-6.027833019077619,-16.960696598138814 L-5.670116350018928,-17.083611461785473 L-5.3098959172003575,-17.198982683533902 L-4.947330783824423,-17.3067593187004 L-4.582581048447398,-17.406893776156927 L-4.2158077742843005,-17.49934183934596 L-3.847172918087912,-17.584062685805318 L-3.476839258633234,-17.661018905194194 L-3.1049703248389635,-17.73017651581251 L-2.731730323557726,-17.791504979606284 L-2.3572840670669533,-17.84497721565237 L-1.9817969002924185,-17.890569612116643 L-1.6054346277965743,-17.92826203668029 L-1.2283634405639248,-17.95803784542972 L-0.8507498426157645,-17.979883890206 L-0.4727605774866906,-17.99379052441076 L-0.09456255459535208,-17.999751607265818 L0.2836772244580512,-17.997764506524796 L0.6617917396349735,-17.987830099635445 L1.039614026209871,-17.96995277335218 L1.4169772484971235,-17.94414042179902 L1.7937147735209775,-17.910404442983765 L2.1696602445959763,-17.86875973376495 L2.5446476547853902,-17.819224683273827 L2.918511420205207,-17.761821164794217 L3.29108645314131,-17.69657452610391 L3.6622082349475713,-17.623513578281777 L4.03171288869265,-17.542670582985636 L4.399437251523432,-17.45408123820638 L4.765218946713154,-17.357784662504773 L5.128896455362397,-17.25382337773779 L5.49030918772128,-17.142243290282146 L5.849297554101378,-17.023093670763362 L6.205703035346031,-16.896427132299213 L6.559368252827946,-16.76229960726728 L6.910137037943166,-16.620770322606774 L7.257854501070727,-16.471901773665582 L7.60236709996756,-16.315759696604104 L7.943522707568413,-16.15241303936799 L8.281170679160898,-15.981933931242672 L8.615161918905935,-15.804397651003121 L8.94534894567429,-15.619882593672843 L9.271585958170085,-15.42847023590684 L9.593728899312552,-15.230245100013825 L9.911635519847573,-15.025294716633544 L10.225165441160959,-14.813709586085709 L10.534180217265682,-14.595583138407603 L10.838543395935739,-14.371011692098012 L11.138120578959601,-14.140094411585682 L11.432779481486687,-13.902933263441101 L11.722389990440625,-13.65963297135093 L12.006824221973533,-13.410300969874974 L12.285956577935917,-13.1550473570061 L12.559663801337276,-12.893984845554073 L12.827825030772933,-12.627228713374738 L13.090321853793013,-12.354896752466573 L13.347038359190062,-12.077109216957057 L13.597861188182154,-11.793988770001835 L13.842679584468964,-11.505660429620116 L14.08138544313861,-11.212251513490235 L14.313873358403743,-10.913891582729764 L14.540040670145785,-10.610712384684945 L14.759787509246745,-10.302847794754793 L14.9730168416886,-9.990433757275484 L15.179634511400792,-9.67360822549115 L15.379549281836901,-9.352511100637626 L15.572672876262136,-9.027284170165995 L15.75892001673385,-8.69807104513324 L15.938208461757876,-8.365017096787648 L16.110459042604074,-8.028269392376956 L16.275595698264986,-7.687976630207599 L16.43354550904227,-7.3442890739837186 L16.584238728745948,-6.997358486454942 L16.727608815492385,-6.64733806240223 L16.86359246108731,-6.2943823609913645 L16.992129618980925,-5.9386472375239805 L17.113163530782767,-5.580289774616249 L17.226640751324634,-5.219468212835617 L17.332511172260446,-4.856341880826223 L17.430728044192694,-4.491071124953861 L17.521247997315648,-4.123817238501532 L17.60403106056625,-3.7547423904468733 L17.67904067927421,-3.3840095538529065 L17.746243731303508,-3.011782433903715 L17.805610541678213,-2.638225395616848 L17.857114895686113,-2.263503391264353 L17.900734050454375,-1.8877818875344963 L17.93644874499219,-1.5112267924663338 L17.96424320869586,-1.1340043821893888 L17.984105168312652,-0.7562812275007955 L17.996025853360347,-0.3782241203123232 L18.0,2.3539944484210335e-13 " />
			<path d="M-9.0,0.0 L-8.996009978392385,0.2679635584639292 L-8.984043451407855,0.5356895212860086 L-8.964111029424465,0.8029405034936645 L-8.936230385952081,1.069479541266083 L-8.900426241961792,1.3350703020432673 L-8.85673034396652,1.5994772940753763 L-8.805181435872303,1.8624660752265405 L-8.745825224625175,2.1238034608480145 L-8.678714339684117,2.3832577305363527 L-8.603908286356022,2.640598833593278 L-8.521473393034038,2.895598593005075 L-8.431482752386069,3.1480309077606323 L-8.334016156545598,3.3976719533287674 L-8.229160026362276,3.6443003801170413 L-8.117007334775018,3.8876975097361357 L-7.997657524375554,4.127647528895737 L-7.87121641923552,4.3639376807600225 L-7.73779613107527,4.596358453593083 L-7.597514959857616,4.82470376652699 L-7.450497288894627,5.048771152287833 L-7.2968734745604875,5.26836193671767 L-7.136779730708231,5.483281414933229 L-6.970358007892791,5.693339023965184 L-6.797755867507506,5.898348511724895 L-6.619126350945631,6.098128102148821 L-6.434627843902909,6.292500656374172 L-6.244423935941491,6.481293829802888 L-6.048683275439735,6.664340224914666 L-5.847579420056505,6.841477539693573 L-5.641290682842549,7.012548711536615 L-5.429999974135396,7.177402056516661 L-5.213894639377988,7.335891403876252 L-4.993166293004813,7.487876225633045 L-4.768010648542859,7.633221761181966 L-4.538627345078009,7.771799136783589 L-4.305219770240765,7.903485479832809 L-4.067994879868232,8.028164027806472 L-3.8271630145022915,8.145724231793373 L-3.5829377128866318,8.25606185451482 L-3.335535522628048,8.359079062748863 L-3.085175808189852,8.454684514076211 L-2.8320805563876625,8.54279343787095 L-2.5764741795600297,8.623327710464242 L-2.3185833165884175,8.696215924414357 L-2.058636631942973,8.761393451821606 L-1.7968646129322658,8.818802501632055 L-1.533499365336768,8.868392170879213 L-1.268774407607279,8.910118489818236 L-1.0029244638107808,8.943944460912638 L-0.7361852555073022,8.969840091638961 L-0.4687932927423386,8.987782421080285 L-0.2009856643401424,8.997755540285018 L0.06700017231617345,8.999750606372912 L0.3349266018313214,8.993765850375787 L0.602556061484631,8.979806578806034 L0.8696512518701355,8.957885168951469 L1.135975347303184,8.92802105790076 L1.4012922058070196,8.890240725309102 L1.6653665784931322,8.844577669919467 L1.9279643181497361,8.791072379860232 L2.1888525868534225,8.729772296745493 L2.447800062419902,8.66073177360996 L2.704577143510787,8.584012026715657 L2.958956153214544,8.499681081273213 L3.210711540921121,8.407813711125854 L3.459620082311232,8.308491372449563 L3.705461077282996,8.201802131528213 L3.948016545640418,8.087840586667712 L4.187071420370211,7.966707784318374 L4.422413738335581,7.8385111294799295 L4.653834828217889,7.703364290468559 L4.881129495539561,7.561387098130455 L5.104096204604173,7.41270543959122 L5.322537257192403,7.257451146635351 L5.536258967855402,7.09576187881475 L5.745071835650157,6.927781001389936 L5.948790712164568,6.753657458212148 L6.147234965683263,6.573545639659094 L6.340228641348589,6.3876052457413985 L6.527600617174758,6.196001144501163 L6.7091847557768345,5.998903225828179 L6.884820051680016,5.796486250823406 L7.054350774078586,5.588929696843293 L7.217626604917983,5.376417598362324 L7.374502772177532,5.159138383794904 L7.524840178235657,4.937284708421258 L7.668505523203777,4.711053283565488 L7.80537142311952,4.480644702177263 L7.935316522894437,4.246263260971762 L8.058225603916105,4.008116779285618 L8.173989686209183,3.766416414809429 L8.282506125064836,3.521376476360269 L8.383678702052887,3.273214233860171 L8.477417710335937,3.022149725689082 L8.563640034209872,2.7684055635831157 L8.642269222800175,2.5122067352510733 L8.713235557848744,2.2537804048842647 L8.776476115531079,1.9933557117364988 L8.831934822249035,1.7311635669528456 L8.879562504349698,1.4674364488273126 L8.919316931726243,1.2024081966709743 L8.951162855262176,0.9363138034733269 L8.975072038085713,0.6693892075407089 L8.991023280606612,0.40187108329653715 L8.999002439313244,0.13399663142884782 L8.999002439313244,-0.13399663142878568 L8.991023280606614,-0.40187108329647503 L8.975072038085717,-0.6693892075406469 L8.951162855262183,-0.9363138034732651 L8.919316931726252,-1.2024081966709128 L8.879562504349709,-1.4674364488272513 L8.831934822249048,-1.7311635669527847 L8.776476115531093,-1.9933557117364384 L8.71323555784876,-2.253780404884205 L8.642269222800191,-2.5122067352510133 L8.563640034209891,-2.7684055635830562 L8.477417710335958,-3.0221497256890237 L8.38367870205291,-3.273214233860113 L8.282506125064861,-3.5213764763602122 L8.17398968620921,-3.7664164148093726 L8.058225603916133,-4.008116779285562 L7.935316522894466,-4.246263260971707 L7.805371423119549,-4.480644702177209 L7.66850552320381,-4.711053283565436 L7.52484017823569,-4.937284708421206 L7.374502772177568,-5.159138383794853 L7.217626604918021,-5.376417598362274 L7.054350774078625,-5.588929696843244 L6.884820051680056,-5.796486250823358 L6.709184755776876,-5.998903225828132 L6.527600617174802,-6.196001144501118 L6.340228641348633,-6.387605245741354 L6.147234965683309,-6.57354563965905 L5.948790712164615,-6.753657458212107 L5.745071835650202,-6.927781001389898 L5.536258967855444,-7.0957618788147165 L5.322537257192444,-7.257451146635322 L5.104096204604211,-7.412705439591194 L4.881129495539597,-7.5613870981304325 L4.6538348282179225,-7.703364290468539 L4.422413738335611,-7.838511129479913 L4.187071420370239,-7.96670778431836 L3.9480165456404417,-8.0878405866677 L3.705461077283016,-8.201802131528204 L3.4596200823112486,-8.308491372449556 L3.210711540921134,-8.40781371112585 L2.9589561532145536,-8.499681081273211 L2.7045771435107926,-8.584012026715655 L2.447800062419904,-8.66073177360996 L2.1888525868534208,-8.729772296745493 L1.9279643181497303,-8.791072379860232 L1.6653665784931226,-8.84457766991947 L1.4012922058070059,-8.890240725309104 L1.1359753473031664,-8.928021057900763 L0.8696512518701137,-8.957885168951472 L0.6025560614846053,-8.979806578806036 L0.33492660183129164,-8.99376585037579 L0.06700017231613967,-8.999750606372912 L-0.20098566434018014,-8.997755540285018 L-0.4687932927423803,-8.987782421080283 L-0.7361852555073478,-8.969840091638957 L-1.0029244638108301,-8.943944460912633 L-1.2687744076073322,-8.910118489818228 L-1.5334993653368247,-8.868392170879204 L-1.7968646129323265,-8.818802501632042 L-2.058636631943037,-8.76139345182159 L-2.318583316588485,-8.69621592441434 L-2.5764741795601003,-8.62332771046422 L-2.8320805563877363,-8.542793437870925 L-3.0851758081899288,-8.454684514076183 L-3.3355355226281276,-8.359079062748833 L-3.582937712886714,-8.256061854514787 L-3.8271630145023763,-8.145724231793332 L-4.06799487986832,-8.02816402780643 L-4.3052197702408534,-7.903485479832761 L-4.5386273450781,-7.771799136783536 L-4.768010648542951,-7.633221761181908 L-4.993166293004908,-7.487876225632982 L-5.213894639378084,-7.335891403876183 L-5.429999974135494,-7.177402056516588 L-5.641290682842647,-7.012548711536536 L-5.847579420056604,-6.841477539693488 L-6.048683275439833,-6.664340224914575 L-6.24442393594159,-6.481293829802792 L-6.434627843903009,-6.292500656374072 L-6.619126350945729,-6.0981281021487135 L-6.797755867507604,-5.898348511724781 L-6.970358007892888,-5.693339023965065 L-7.1367797307083265,-5.483281414933105 L-7.2968734745605826,-5.268361936717538 L-7.450497288894719,-5.048771152287697 L-7.597514959857707,-4.824703766526846 L-7.737796131075358,-4.596358453592933 L-7.871216419235605,-4.363937680759867 L-7.997657524375637,-4.127647528895576 L-8.117007334775098,-3.887697509735969 L-8.229160026362353,-3.644300380116869 L-8.334016156545673,-3.3976719533285893 L-8.431482752386138,-3.1480309077604502 L-8.521473393034102,-2.8955985930048866 L-8.60390828635608,-2.6405988335930854 L-8.678714339684172,-2.3832577305361546 L-8.745825224625225,-2.1238034608478116 L-8.805181435872347,-1.8624660752263325 L-8.856730343966559,-1.5994772940751634 L-8.900426241961824,-1.33507030204305 L-8.936230385952108,-1.0694795412658615 L-8.964111029424485,-0.8029405034934387 L-8.984043451407869,-0.5356895212857785 L-8.996009978392392,-0.26796355846369535 L-9.0,2.376038090805686e-13 " />
			<path d="M14.1,0.0 L14.09600680517312,0.33554753540011595 L14.084029482480412,0.6709050131147662 L14.064074816004574,1.005882483109176 L14.036154108280492,1.3402902105889754 L14.000283173893365,1.673938783468003 L13.956482330521151,2.0066392196533203 L13.90477638742643,2.338203074086675 L13.845194631404164,2.6684425454817835 L13.77777081019335,2.997170582696971 L13.702543113361937,3.3242009906829235 L13.619554150675864,3.6493485359455424 L13.528850927964413,3.9724290514641583 L13.430484820495632,4.293259541005689 L13.324511543876826,4.611658282775645 L13.21099112249664,4.927444932347287 L13.089987855526623,5.240440624810619 L12.961570280501483,5.550468076083375 L12.825811134498709,5.8573516833266 L12.682787312939503,6.160917624407971 L12.53257982603442,6.460993956356489 L12.375273752898304,6.757410712752804 L12.210958193360584,7.050000000000002 L12.039726217498187,7.33859609242032 L11.861674812919652,7.623035526123928 L11.676904829830326,7.903157191596609 L11.48552092390973,8.178802424953897 L11.287631497033479,8.449815097809996 L11.0833486358733,8.716041705710538 L10.872788048409962,8.977331455079147 L10.656068998395039,9.233536348628522 L10.433314237798658,9.484511269187664 L10.204649937281484,9.730114061897783 L9.970205614730316,9.970205614730324 L9.730114061897774,10.204649937281493 L9.484511269187657,10.433314237798665 L9.233536348628514,10.656068998395046 L8.97733145507914,10.87278804840997 L8.716041705710527,11.083348635873309 L8.449815097809985,11.287631497033486 L8.178802424953888,11.485520923909737 L7.9031571915965975,11.676904829830333 L7.623035526123919,11.86167481291966 L7.33859609242031,12.039726217498194 L7.049999999999993,12.210958193360588 L6.757410712752796,12.375273752898307 L6.460993956356482,12.532579826034421 L6.160917624407966,12.682787312939507 L5.857351683326597,12.825811134498709 L5.550468076083371,12.961570280501485 L5.240440624810618,13.089987855526623 L4.927444932347288,13.21099112249664 L4.611658282775647,13.324511543876826 L4.293259541005693,13.430484820495632 L3.972429051464163,13.528850927964411 L3.6493485359455486,13.619554150675862 L3.3242009906829306,13.702543113361935 L2.9971705826969792,13.777770810193347 L2.6684425454817933,13.845194631404162 L2.338203074086686,13.904776387426429 L2.0066392196533327,13.95648233052115 L1.6739387834680166,14.000283173893363 L1.3402902105889902,14.03615410828049 L1.0058824831091917,14.064074816004574 L0.6709050131147836,14.084029482480412 L0.3355475354001344,14.096006805173118 L1.9648349570056532e-14,14.1 L-0.3355475354000951,14.09600680517312 L-0.6709050131147443,14.084029482480414 L-1.0058824831091526,14.064074816004576 L-1.340290210588951,14.036154108280495 L-1.6739387834679773,14.000283173893369 L-2.0066392196532936,13.956482330521155 L-2.3382030740866475,13.904776387426436 L-2.6684425454817546,13.845194631404171 L-2.997170582696941,13.777770810193354 L-3.3242009906828924,13.702543113361944 L-3.6493485359455105,13.61955415067587 L-3.9724290514641254,13.528850927964422 L-4.293259541005654,13.430484820495643 L-4.61165828277561,13.324511543876838 L-4.9274449323472505,13.210991122496655 L-5.2404406248105815,13.089987855526639 L-5.550468076083336,12.961570280501501 L-5.85735168332656,12.825811134498727 L-6.160917624407934,12.68278731293952 L-6.460993956356452,12.532579826034437 L-6.757410712752769,12.375273752898321 L-7.0499999999999705,12.210958193360602 L-7.33859609242029,12.039726217498204 L-7.623035526123901,11.86167481291967 L-7.903157191596582,11.676904829830345 L-8.178802424953872,11.48552092390975 L-8.44981509780997,11.287631497033496 L-8.716041705710515,11.083348635873318 L-8.977331455079126,10.872788048409978 L-9.233536348628505,10.656068998395053 L-9.484511269187646,10.433314237798674 L-9.730114061897767,10.2046499372815 L-9.97020561473031,9.97020561473033 L-10.20464993728148,9.730114061897787 L-10.433314237798655,9.484511269187667 L-10.656068998395037,9.233536348628526 L-10.87278804840996,8.977331455079149 L-11.0833486358733,8.716041705710538 L-11.28763149703348,8.449815097809994 L-11.485520923909734,8.178802424953895 L-11.67690482983033,7.903157191596604 L-11.861674812919656,7.623035526123924 L-12.03972621749819,7.338596092420314 L-12.210958193360588,7.049999999999994 L-12.375273752898307,6.757410712752794 L-12.532579826034425,6.460993956356477 L-12.68278731293951,6.160917624407958 L-12.825811134498714,5.857351683326585 L-12.961570280501492,5.550468076083358 L-13.08998785552663,5.240440624810601 L-13.210991122496647,4.927444932347267 L-13.324511543876833,4.6116582827756245 L-13.430484820495641,4.293259541005667 L-13.52885092796442,3.972429051464134 L-13.619554150675869,3.649348535945516 L-13.702543113361944,3.324200990682895 L-13.777770810193354,2.99717058269694 L-13.845194631404171,2.668442545481751 L-13.904776387426436,2.338203074086641 L-13.956482330521156,2.006639219653284 L-14.000283173893369,1.6739387834679644 L-14.036154108280497,1.340290210588935 L-14.064074816004577,1.0058824831091333 L-14.084029482480414,0.6709050131147218 L-14.09600680517312,0.3355475354000695 L-14.1,-4.83665108842893e-14 L-14.096006805173118,-0.3355475354001662 L-14.08402948248041,-0.6709050131148184 L-14.06407481600457,-1.0058824831092297 L-14.036154108280488,-1.3402902105890313 L-14.000283173893356,-1.6739387834680606 L-13.956482330521142,-2.0066392196533798 L-13.90477638742642,-2.338203074086736 L-13.845194631404151,-2.668442545481846 L-13.777770810193335,-2.9971705826970347 L-13.702543113361921,-3.3242009906829892 L-13.619554150675844,-3.6493485359456095 L-13.528850927964392,-3.972429051464226 L-13.43048482049561,-4.293259541005758 L-13.3245115438768,-4.611658282775716 L-13.210991122496614,-4.927444932347358 L-13.089987855526594,-5.240440624810691 L-12.961570280501453,-5.550468076083447 L-12.825811134498675,-5.857351683326673 L-12.682787312939467,-6.160917624408046 L-12.532579826034382,-6.460993956356562 L-12.375273752898263,-6.757410712752879 L-12.21095819336054,-7.050000000000078 L-12.03972621749814,-7.338596092420397 L-11.861674812919603,-7.6230355261240055 L-11.676904829830274,-7.903157191596684 L-11.485520923909677,-8.178802424953973 L-11.287631497033422,-8.449815097810072 L-11.083348635873241,-8.716041705710612 L-10.8727880484099,-8.977331455079224 L-10.656068998394973,-9.233536348628599 L-10.43331423779859,-9.484511269187738 L-10.204649937281415,-9.730114061897858 L-9.970205614730242,-9.970205614730396 L-9.730114061897698,-10.204649937281566 L-9.484511269187577,-10.43331423779874 L-9.233536348628432,-10.656068998395119 L-8.977331455079053,-10.87278804841004 L-8.716041705710438,-11.083348635873378 L-8.449815097809894,-11.287631497033555 L-8.178802424953794,-11.485520923909805 L-7.903157191596501,-11.676904829830399 L-7.623035526123819,-11.861674812919723 L-7.338596092420207,-12.039726217498256 L-7.049999999999886,-12.21095819336065 L-6.757410712752685,-12.375273752898368 L-6.460993956356366,-12.532579826034482 L-6.160917624407846,-12.682787312939563 L-5.857351683326471,-12.825811134498766 L-5.550468076083244,-12.96157028050154 L-5.240440624810486,-13.089987855526676 L-4.927444932347151,-13.210991122496692 L-4.611658282775506,-13.324511543876874 L-4.293259541005548,-13.430484820495678 L-3.9724290514640144,-13.528850927964454 L-3.649348535945396,-13.619554150675903 L-3.3242009906827743,-13.702543113361973 L-2.997170582696819,-13.777770810193381 L-2.668442545481629,-13.845194631404194 L-2.338203074086518,-13.904776387426457 L-2.006639219653161,-13.956482330521174 L-1.673938783467841,-14.000283173893383 L-1.340290210588811,-14.036154108280508 L-1.0058824831090092,-14.064074816004586 L-0.6709050131145976,-14.08402948248042 L-0.33554753539994514,-14.096006805173124 L1.7273629206860807e-13,-14.1 L0.33554753540029053,-14.096006805173115 L0.6709050131149427,-14.084029482480403 L1.0058824831093538,-14.064074816004561 L1.340290210589155,-14.036154108280476 L1.673938783468184,-14.000283173893342 L2.0066392196535023,-13.956482330521126 L2.338203074086859,-13.9047763874264 L2.6684425454819682,-13.845194631404128 L2.9971705826971564,-13.777770810193308 L3.32420099068311,-13.702543113361891 L3.6493485359457294,-13.619554150675812 L3.972429051464346,-13.528850927964358 L4.293259541005877,-13.430484820495574 L4.611658282775833,-13.32451154387676 L4.927444932347474,-13.21099112249657 L5.240440624810806,-13.089987855526548 L5.55046807608356,-12.961570280501403 L5.857351683326787,-12.825811134498624 L6.160917624408157,-12.682787312939414 L6.460993956356674,-12.532579826034324 L6.757410712752987,-12.375273752898202 L7.050000000000185,-12.210958193360478 L7.338596092420503,-12.039726217498076 L7.6230355261241085,-11.861674812919535 L7.903157191596787,-11.676904829830205 L8.178802424954075,-11.485520923909606 L8.44981509781017,-11.287631497033347 L8.716041705710712,-11.083348635873165 L8.97733145507932,-10.87278804840982 L9.233536348628691,-10.656068998394892 L9.48451126918783,-10.433314237798506 L9.730114061897947,-10.204649937281328 L9.970205614730487,-9.970205614730153 L10.204649937281653,-9.730114061897607 L10.433314237798822,-9.484511269187484 L10.656068998395199,-9.233536348628338 L10.872788048410118,-8.977331455078957 L11.083348635873454,-8.716041705710342 L11.287631497033628,-8.449815097809795 L11.485520923909878,-8.178802424953691 L11.676904829830468,-7.9031571915963985 L11.86167481291979,-7.623035526123714 L12.03972621749832,-7.338596092420103 L12.210958193360712,-7.049999999999779 L12.375273752898428,-6.757410712752575 L12.53257982603454,-6.460993956356256 L12.682787312939618,-6.160917624407735 L12.825811134498817,-5.8573516833263595 L12.961570280501588,-5.550468076083129 L13.089987855526722,-5.24044062481037 L13.210991122496734,-4.927444932347035 L13.324511543876914,-4.611658282775389 L13.430484820495716,-4.293259541005429 L13.528850927964491,-3.9724290514638954 L13.619554150675933,-3.6493485359452755 L13.702543113362003,-3.3242009906826535 L13.777770810193408,-2.9971705826966972 L13.845194631404217,-2.668442545481507 L13.904776387426478,-2.3382030740863953 L13.956482330521192,-2.0066392196530374 L14.000283173893399,-1.6739387834677175 L14.03615410828052,-1.3402902105886871 L14.064074816004597,-1.0058824831088853 L14.084029482480426,-0.6709050131144734 L14.096006805173127,-0.33554753539982085 L14.1,2.9710607325292683e-13 " />
			<path d="M1.528103963468988,8.666308226507432 L1.2669167333508176,8.708324867088718 L1.0045845637624182,8.742471610148375 L0.7413445298385369,8.768717596551877 L0.47743452717013857,8.78703910724573 L0.2130930568131253,8.797419584692893 L-0.05144099025011917,8.799849647836156 L-0.3159285490015631,8.79432710057602 L-0.5801305964356476,8.780856933755341 L-0.8438083675694339,8.759451320649019 L-1.1067235712195749,8.730129605962734 L-1.3686386053511,8.692918288350732 L-1.6293167718034036,8.647850996468438 L-1.8885224901993867,8.594968458581516 L-2.146021510844424,8.534318465758883 L-2.401581126422778,8.465955828682898 L-2.6549703823001236,8.389942328115799 L-2.905960285242138,8.306346659067117 L-3.154324010360539,8.215244368712536 L-3.3998371060995307,8.116717788120319 L-3.642277697077438,8.010855957846971 L-3.8814266846001653,7.897754547469413 L-4.117067944665347,7.777515769126352 L-4.348988523278171,7.65024828514701 L-4.57697882890241,7.516067109850679 L-4.800832821872737,7.375093505605843 L-5.020348200597126,7.227454873242809 L-5.2353265843810854,7.073284636918884 L-5.445573692708495,6.912722123540133 L-5.650899520817012,6.74591243684871 L-5.851118511409405,6.573006326289533 L-6.046049722345606,6.39416005077482 L-6.235516990163958,6.2095352374696 L-6.41934908928386,6.019298735725824 L-6.597379886745947,5.823622466297077 L-6.769448492349972,5.622683265970148 L-6.93539940405467,5.416662727753884 L-7.09508264850826,5.2057470367697505 L-7.248353916582526,4.990126801992388 L-7.395074693788041,4.7699968839922455 L-7.535112385452633,4.545556218835969 L-7.668340436550004,4.3170076383036555 L-7.794638446070186,4.084557686585486 L-7.913892275828478,3.848416433623366 L-8.02599415361454,3.6087972852662746 L-8.130842770588432,3.3659167904108793 L-8.228343372835536,3.1199944453017143 L-8.318407846997694,2.8712524951677794 L-8.40095479990311,2.61991573337482 L-8.475909632123072,2.366211298274808 L-8.543204605389047,2.1103684679361976 L-8.602778903809188,1.85261845294049 L-8.654578688828929,1.593194187432331 L-8.698557147886044,1.3323301186119951 L-8.734674536716138,1.0702619948604886 L-8.76289821527039,0.807226652688746 L-8.78320267721304,0.5434618027034632 L-8.79556957297203,0.27920581478298945 L-8.799987726321877,0.014697502657422312 L-8.796453144483872,-0.2498240919124155 L-8.78496902173444,-0.5141199151620752 L-8.765545736518414,-0.7779511173614286 L-8.738200842069794,-1.0410792686682269 L-8.702959050548538,-1.3032665746021934 L-8.659852210707644,-1.564276090944933 L-8.608919279110772,-1.8238719378714348 L-8.550206284926361,-2.081819513119663 L-8.483766288330102,-2.3378857040055916 L-8.409659332553332,-2.591839098092062 L-8.327952389620695,-2.8434501923211135 L-8.238719299826105,-3.092491600420749 L-8.142040705001708,-3.3387382583987173 L-8.038003975640159,-3.581967627937615 L-7.926703131936045,-3.8219598975074716 L-7.808238758817856,-4.05849818101408 L-7.682717915047255,-4.291368713803557 L-7.550254036467799,-4.520361045845975 L-7.410966833490582,-4.745268231923524 L-7.264982182909384,-4.965887018651274 L-7.112432014143164,-5.182018028161561 L-6.953454190008644,-5.393465938285998 L-6.788192382130761,-5.60003965907224 L-6.616795941103585,-5.801552505476026 L-6.439419761519018,-5.997822366072405 L-6.256224141985281,-6.1886718676336825 L-6.067374640261658,-6.373928535425365 L-5.873041923640457,-6.553424949075226 L-5.673401614711352,-6.726998893874642 L-5.468634132647545,-6.8944935073754525 L-5.258924530157125,-7.055757421149886 L-5.04446232624703,-7.2106448975854045 L-4.825441334950705,-7.359015961590868 L-4.602059490174257,-7.500736527094994 L-4.3745186668193945,-7.635678518222772 L-4.1430244983448015,-7.7637199850403436 L-3.9077861909308376,-7.884745213763743 L-3.669016334415475,-7.998644831331897 L-3.426930710172365,-8.105315904249355 L-3.1817480961046445,-8.204662031609498 L-2.933690068930712,-8.29659343221405 L-2.6829808039406577,-8.381027025710273 L-2.4298468724043074,-8.457886507672413 L-2.174517036813971,-8.527102418559648 L-1.9172220441469345,-8.58861220648814 L-1.6581944173345338,-8.642360283760485 L-1.3976682451262585,-8.688298077101505 L-1.1358789705387933,-8.72638407155494 L-0.873063178081181,-8.756583848001387 L-0.6094583799483934,-8.778870114263608 L-0.3453028013765318,-8.793222729771012 L-0.08083516535364077,-8.79962872376115 L0.1837055231193132,-8.79808230700165 L0.44808019302231505,-8.788584877022075 L0.7120499233698481,-8.771145016850937 L0.9753761591288432,-8.745778487259045 L1.237820926805912,-8.712508212516152 L1.4991470495090315,-8.671364259673814 L1.7591183612893204,-8.622383811393158 L2.0174999205692083,-8.56561113234212 L2.2740582224641104,-8.501097529192533 L2.5285614098057367,-8.428901304253197 L2.780779482676322,-8.349087702780851 L3.0304845062644192,-8.261728854016653 L3.277450816854415,-8.166903706001458 L3.5214552257636074,-8.064697954228802 L3.762277221042539,-7.9552039642000665 L3.9996991667563178,-7.8385206879518305 L4.233506499666815,-7.71475357463081 L4.463487923138006,-7.584014475197234 L4.68943559808922,-7.446421541342769 L4.911145330823702,-7.302099118714328 L5.128416757562795,-7.151177634540282 L5.341053525518917,-6.9937934797606065 L5.548863470343736,-6.830088885767512 L5.751658789791163,-6.660211795867912 L5.949256213438202,-6.4843157315839415 L6.141477168310331,-6.302559653912285 L6.328147940261669,-6.115107819667779 L6.509099830964125,-5.92212963304104 L6.6841693103636555,-5.723799492504319 L6.853198164465823,-5.520296633203898 L7.016033638317148,-5.311804964981515 L7.172528574052983,-5.098512906171123 L7.3225415438871915,-4.880613213321274 L7.4659369779234375,-4.65830280699693 L7.602585286672564,-4.43178259381819 L7.73236297816536,-4.2012572848967205 L7.855152769554867,-3.9669352108339906 L7.970843693107375,-3.7290281334485 L8.079331196486304,-3.4877510544021364 L8.18051723723837,-3.243322020898627 L8.274310371396618,-2.9959619286296624 L8.360625836120288,-2.7458943221467846 L8.439385626296765,-2.4933451928394454 L8.51051856503647,-2.238542774701799 L8.573960367996904,-1.9817173380728164 L8.62965370147779,-1.723100981536102 L8.677548234234738,-1.4629274221674913 L8.71760068296465,-1.2014317843199813 L8.749774851421776,-0.938850387136878 L8.774041663129012,-0.6754205309851808 L8.790379187654937,-0.41138028300222085 L8.798772660432796,-0.14696826194934687 L8.799214496103568,0.11757657743289962 L8.791704295371009,0.3820151603732391 L8.776248845362492,0.64610850812659 L8.752862113495356,0.9096179539442166 L8.72156523485424,1.1723053587619239 L8.682386493090874,1.433933326411366 L8.63536129486353,1.6942654181599968 L8.580532137839285,1.9530663663857488 L8.517948572287969,2.210102287193372 L8.447667156302554,2.465140891780252 L8.369751404686394,2.7179516963607275 L8.284271731553558,2.9683062304591568 L8.191305386694102,3.21597824338353 L8.090936385761802,3.4607439086930065 L7.983255434347433,3.7023820264746057 L7.86835984600619,3.940674223246253 L7.746353454313388,4.17540514930552 L7.617346519027852,4.406362673345704 L7.481455626447837,4.633338074163381 L7.338803584049529,4.8561262292841825 L7.189519309503327,5.074525800336307 L7.03373771416821,5.288339415004279 L6.871599581169493,5.49737384539848 L6.703251438170134,5.701440182679291 L6.528845424950581,5.900354007777999 L6.348539155916836,6.093935558060224 L6.16249557766098,6.282009889781207 L5.970882821702879,6.464407036186188 L5.773874052546185,6.640962161112945 L5.571647311185899,6.811515707957734 L5.364385354208955,6.97591354386997 L5.152275488633231,7.134007099045334 L4.935509402634221,7.285653500991468 L4.714282992312383,7.430715703644853 L4.488796184657682,7.569062611222256 L4.259252756871336,7.700569196694743 L4.02586015220805,7.8251166147772775 L3.7888292925051505,7.942592309331692 L3.5483743875680567,8.052890115086077 L3.3047127415843516,8.155910353578566 L3.0580645567413782,8.25155992323889 L2.8086527342248693,8.339752383526214 L2.5567026727784223,8.42040803304731 L2.302442065005887,8.493453981584373 L2.046100691600737,8.55882421596746 L1.7879102136883946,8.616459659731992 L1.528103963469167,8.6663082265074 " />
			<path d="M0.003632147591824694,8.999999267083519 L0.0035514332008952515,8.799999283370552 " />
			<path d="M3.006439760592084,8.270509051196969 L3.0747679369691774,8.458475165996902 " />
			<path d="M1.345773376918711,7.632260085844613 L1.1004559641716085,7.671472914044548 L0.8540077585320103,7.7028027852442875 L0.6066820021907708,7.726217505883317 L0.35873283908141185,7.741693015753377 L0.11041505373005034,7.749213412721953 L-0.1380161905529249,7.7487709690727895 L-0.38630561387040174,7.74036613944665 L-0.6341980820558992,7.724007560374123 L-0.8814388688411661,7.69971204140103 L-1.1277739176046442,7.667504547815455 L-1.3729501024318178,7.627418174994241 L-1.6167154882192045,7.579494114395245 L-1.858819589554704,7.523781611230332 L-2.099013628108288,7.460337913862595 L-2.3370507882685576,7.389228214979783 L-2.5726864707624633,7.310525584604419 L-2.805678543997594,7.224310895009403 L-3.0357875928687585,7.130672737616284 L-3.2627771647731842,7.0297073319616 L-3.486414012581558,6.921518426824779 L-3.706468334315215,6.806217193619273 L-3.9227140092832,6.683922112156404 L-4.1349288304365786,6.554758848899355 L-4.342894732701182,6.418860127832382 L-4.546398017054226,6.276365594077946 L-4.745229570114496,6.127421670401915 L-4.939185079020482,5.972181406754272 L-5.128065241375659,5.810804322999942 L-5.311675970045164,5.643456245001352 L-5.489828592593463,5.470309134221145 L-5.66234004515801,5.291540911020153 L-5.8290330605597624,5.1073352718322 L-5.989736350457172,4.917881500403603 L-6.144284781356551,4.723374273291318 L-6.292519544297888,4.524013459819622 L-6.434288318041794,4.320003916700877 L-6.5694454255898735,4.111555277531399 L-6.697851983877686,3.898881737378777 L-6.819376046486485,3.682201832681957 L-6.93389273922708,3.4617382166902786 L-7.041284388456509,3.23771743067221 L-7.141440641995661,3.0103696711288808 L-7.2342585825236005,2.7799285532516183 L-7.319642833332069,2.5466308708665446 L-7.397505656331504,2.3107163531129116 L-7.467767042207852,2.072427418105209 L-7.530354792637552,1.8320089238321606 L-7.585204594476193,1.589707916548592 L-7.632260085844615,1.3457733769187012 L-7.671472914044549,1.1004559641715979 L-7.702802785244288,0.8540077585319988 L-7.726217505883317,0.6066820021907586 L-7.741693015753378,0.3587328390813991 L-7.749213412721952,0.11041505373003657 L-7.7487709690727895,-0.13801619055293934 L-7.740366139446648,-0.3863056138704173 L-7.724007560374123,-0.6341980820559157 L-7.699712041401029,-0.8814388688411832 L-7.667504547815452,-1.1277739176046615 L-7.6274181749942365,-1.3729501024318362 L-7.57949411439524,-1.616715488219224 L-7.523781611230328,-1.8588195895547235 L-7.46033791386259,-2.0990136281083087 L-7.389228214979777,-2.337050788268577 L-7.310525584604413,-2.5726864707624815 L-7.224310895009395,-2.8056785439976113 L-7.130672737616278,-3.035787592868774 L-7.029707331961593,-3.2627771647732002 L-6.921518426824773,-3.486414012581572 L-6.806217193619267,-3.706468334315227 L-6.683922112156397,-3.9227140092832133 L-6.554758848899349,-4.13492883043659 L-6.418860127832375,-4.342894732701193 L-6.276365594077939,-4.546398017054235 L-6.12742167040191,-4.745229570114504 L-5.972181406754267,-4.939185079020489 L-5.810804322999937,-5.128065241375665 L-5.643456245001346,-5.311675970045171 L-5.470309134221139,-5.489828592593469 L-5.291540911020148,-5.6623400451580155 L-5.107335271832198,-5.829033060559766 L-4.917881500403601,-5.989736350457174 L-4.723374273291316,-6.144284781356553 L-4.524013459819623,-6.292519544297887 L-4.320003916700879,-6.4342883180417925 L-4.111555277531402,-6.569445425589871 L-3.8988817373787823,-6.697851983877683 L-3.6822018326819643,-6.819376046486482 L-3.4617382166902866,-6.933892739227075 L-3.237717430672219,-7.041284388456505 L-3.0103696711288923,-7.141440641995657 L-2.7799285532516316,-7.234258582523595 L-2.5466308708665597,-7.319642833332064 L-2.3107163531129284,-7.397505656331498 L-2.0724274181052276,-7.4677670422078455 L-1.832008923832181,-7.530354792637547 L-1.589707916548614,-7.585204594476188 L-1.3457733769187255,-7.63226008584461 L-1.1004559641716238,-7.6714729140445455 L-0.8540077585320268,-7.702802785244285 L-0.6066820021907885,-7.726217505883314 L-0.3587328390814305,-7.741693015753375 L-0.11041505373006943,-7.749213412721952 L0.13801619055290426,-7.748770969072791 L0.38630561387038087,-7.74036613944665 L0.6341980820558772,-7.724007560374125 L0.8814388688411436,-7.699712041401032 L1.1277739176046206,-7.667504547815459 L1.3729501024317936,-7.6274181749942445 L1.6167154882191794,-7.579494114395249 L1.858819589554678,-7.523781611230339 L2.0990136281082616,-7.460337913862602 L2.33705078826853,-7.389228214979792 L2.572686470762436,-7.310525584604429 L2.805678543997566,-7.224310895009413 L3.0357875928687292,-7.1306727376162975 L3.262777164773155,-7.029707331961613 L3.48641401258153,-6.921518426824794 L3.7064683343151836,-6.806217193619289 L3.9227140092831707,-6.683922112156422 L4.134928830436548,-6.554758848899375 L4.3428947327011524,-6.418860127832402 L4.546398017054196,-6.276365594077968 L4.745229570114466,-6.127421670401938 L4.939185079020453,-5.972181406754298 L5.128065241375629,-5.810804322999968 L5.311675970045136,-5.64345624500138 L5.489828592593436,-5.470309134221173 L5.662340045157982,-5.291540911020183 L5.829033060559734,-5.107335271832233 L5.989736350457144,-4.917881500403639 L6.1442847813565225,-4.7233742732913555 L6.292519544297859,-4.524013459819663 L6.434288318041766,-4.3200039167009185 L6.569445425589846,-4.111555277531444 L6.6978519838776585,-3.898881737378824 L6.819376046486458,-3.682201832682006 L6.933892739227054,-3.46173821669033 L7.041284388456485,-3.237717430672263 L7.141440641995637,-3.0103696711289367 L7.234258582523578,-2.779928553251677 L7.319642833332048,-2.546630870866605 L7.397505656331483,-2.3107163531129746 L7.467767042207832,-2.072427418105274 L7.530354792637534,-1.8320089238322284 L7.585204594476178,-1.5897079165486618 L7.632260085844602,-1.3457733769187734 L7.671472914044539,-1.100455964171672 L7.7028027852442795,-0.8540077585320751 L7.7262175058833105,-0.6066820021908368 L7.7416930157533725,-0.358732839081479 L7.749213412721951,-0.11041505373011806 L7.748770969072791,0.13801619055285563 L7.740366139446652,0.38630561387033224 L7.72400756037413,0.6341980820558286 L7.699712041401038,0.8814388688410955 L7.667504547815466,1.1277739176045722 L7.627418174994253,1.3729501024317454 L7.57949411439526,1.6167154882191324 L7.52378161123035,1.8588195895546307 L7.460337913862615,2.0990136281082146 L7.389228214979807,2.337050788268485 L7.310525584604447,2.5726864707623895 L7.224310895009431,2.8056785439975203 L7.130672737616316,3.035787592868684 L7.029707331961633,3.2627771647731105 L6.921518426824816,3.486414012581485 L6.806217193619313,3.706468334315142 L6.683922112156446,3.922714009283129 L6.5547588488994,4.1349288304365075 L6.418860127832429,4.342894732701112 L6.276365594077997,4.546398017054156 L6.1274216704019695,4.745229570114428 L5.972181406754329,4.939185079020414 L5.810804323000001,5.128065241375592 L5.643456245001413,5.3116759700450995 L5.470309134221209,5.4898285925934 L5.291540911020218,5.662340045157949 L5.1073352718322695,5.829033060559701 L4.917881500403676,5.989736350457114 L4.723374273291394,6.144284781356493 L4.524013459819702,6.29251954429783 L4.320003916700959,6.434288318041738 L4.111555277531485,6.569445425589819 L3.8988817373788662,6.6978519838776345 L3.6822018326820496,6.819376046486436 L3.4617382166903736,6.933892739227032 L3.2377174306723076,7.041284388456464 L3.0103696711289816,7.14144064199562 L2.779928553251722,7.234258582523561 L2.546630870866651,7.319642833332032 L2.3107163531130213,7.397505656331468 L2.0724274181053213,7.46776704220782 L1.8320089238322756,7.530354792637524 L1.5897079165487096,7.585204594476169 L1.3457733769188214,7.632260085844593 " />
			<path d="M-0.0036321475918258653,-8.999999267083519 L-0.0035514332008963895,-8.799999283370552 " />
			<path d="M-3.0064397605920847,-8.270509051196969 L-3.074767936969178,-8.458475165996902 " />
			<path d="M1.085301110418321,6.1550484563263375 L0.8649215400980244,6.189863546918859 L0.6434397581495964,6.216790593033744 L0.42113800959083975,6.235795280225156 L0.1982995843629291,6.246853389894944 L-0.02479154367975184,6.249950830155581 L-0.24785107865132033,6.245083653788141 L-0.47059476492648183,6.232258063272432 L-0.6927387493813122,6.211490402882875 L-0.9139999431211168,6.1828071378602 L-1.1340963822343848,6.1462448206854985 L-1.3527475871131367,6.101850044499621 L-1.5696749198817381,6.049679383727264 L-1.7846019394787156,5.989799321981432 L-1.997254753939056,5.92228616734013 L-2.2073623694280737,5.847225955103265 L-2.414657035582047,5.764714338153671 L-2.6188745867155467,5.674856465061989 L-2.8197547784606227,5.577766846090725 L-3.0170416194088787,5.473569207268236 L-3.2104836973337827,5.362396332718644 L-3.3998344995775125,5.244389895448553 L-3.584852727194031,5.1197002768062365 L-3.7653026024480867,4.988486374843375 L-3.9409541692782577,4.850915401823519 L-4.111583586341157,4.707162671135372 L-4.276973412263357,4.557411373882396 L-4.436912882737509,4.401852345433476 L-4.5911981791095755,4.240683822232115 L-4.739632688114851,4.074111189174079 L-4.8820272524318264,3.902346717875436 L-5.018200411734567,3.7256092961644853 L-5.1479786339364475,3.5441241491423567 L-5.271196536330527,3.3581225521676887 L-5.387697096344801,3.167841536131183 L-5.497331851643691,2.9735235853955997 L-5.599961089320841,2.7754163287861284 L-5.695454023942072,2.5737722240249195 L-5.783688964211624,2.3688482360119183 L-5.864553468049304,2.1609055093619824 L-5.937944485880902,1.9502090356155852 L-6.003768491959277,1.7370273155471936 L-6.061941603548775,1.5216320170016595 L-6.112389687821083,1.3042976286946586 L-6.155048456326294,1.085301110418356 L-6.189863546918817,0.8649215400980597 L-6.216790593033702,0.6434397581496318 L-6.235795280225114,0.4211380095908752 L-6.246853389894901,0.19829958436296471 L-6.249950830155537,-0.02479154367971623 L-6.2450836537880985,-0.2478510786512845 L-6.232258063272389,-0.4705947649264458 L-6.211490402882833,-0.6927387493812766 L-6.182807137860158,-0.9139999431210802 L-6.146244820685457,-1.1340963822343486 L-6.101850044499579,-1.3527475871131005 L-6.049679383727223,-1.5696749198817024 L-5.989799321981391,-1.78460193947868 L-5.92228616734009,-1.9972547539390209 L-5.847225955103223,-2.2073623694280395 L-5.764714338153629,-2.4146570355820143 L-5.674856465061947,-2.6188745867155157 L-5.5777668460906815,-2.819754778460593 L-5.473569207268191,-3.0170416194088494 L-5.3623963327186,-3.210483697333755 L-5.244389895448507,-3.399834499577486 L-5.119700276806189,-3.584852727194006 L-4.988486374843328,-3.7653026024480636 L-4.85091540182347,-3.9409541692782346 L-4.707162671135321,-4.111583586341135 L-4.557411373882345,-4.276973412263335 L-4.401852345433424,-4.436912882737488 L-4.240683822232062,-4.591198179109554 L-4.074111189174025,-4.739632688114832 L-3.9023467178753797,-4.882027252431807 L-3.725609296164428,-5.018200411734549 L-3.5441241491422977,-5.147978633936429 L-3.3581225521676283,-5.2711965363305096 L-3.167841536131121,-5.387697096344782 L-2.973523585395536,-5.497331851643672 L-2.7754163287860627,-5.599961089320822 L-2.5737722240248524,-5.6954540239420535 L-2.3688482360118495,-5.783688964211605 L-2.160905509361912,-5.864553468049285 L-1.950209035615513,-5.93794448588088 L-1.7370273155471199,-6.0037684919592555 L-1.5216320170015842,-6.061941603548754 L-1.3042976286945813,-6.112389687821061 L-1.0853011104182775,-6.15504845632627 L-0.8649215400979795,-6.189863546918793 L-0.6434397581495499,-6.216790593033676 L-0.4211380095907918,-6.235795280225085 L-0.19829958436287992,-6.246853389894872 L0.02479154367980257,-6.249950830155508 L0.24785107865137196,-6.2450836537880665 L0.47059476492653457,-6.232258063272356 L0.6927387493813664,-6.211490402882799 L0.9139999431211716,-6.182807137860122 L1.1340963822344403,-6.1462448206854186 L1.3527475871131935,-6.101850044499538 L1.5696749198817967,-6.049679383727179 L1.7846019394787749,-5.989799321981346 L1.997254753939115,-5.922286167340042 L2.2073623694281332,-5.847225955103173 L2.414657035582108,-5.764714338153578 L2.618874586715607,-5.674856465061894 L2.8197547784606836,-5.577766846090626 L3.01704161940894,-5.473569207268136 L3.2104836973338444,-5.362396332718542 L3.399834499577574,-5.244389895448447 L3.5848527271940935,-5.119700276806129 L3.765302602448149,-4.988486374843263 L3.9409541692783203,-4.850915401823405 L4.11158358634122,-4.707162671135254 L4.276973412263418,-4.557411373882277 L4.43691288273757,-4.401852345433355 L4.591198179109634,-4.240683822231991 L4.739632688114909,-4.074111189173953 L4.882027252431884,-3.902346717875306 L5.018200411734624,-3.7256092961643534 L5.147978633936503,-3.5441241491422213 L5.2711965363305815,-3.3581225521675506 L5.387697096344852,-3.167841536131043 L5.497331851643742,-2.9735235853954567 L5.599961089320891,-2.775416328785983 L5.695454023942119,-2.573772224024771 L5.7836889642116684,-2.3688482360117677 L5.864553468049346,-2.1609055093618297 L5.937944485880941,-1.9502090356154298 L6.003768491959314,-1.7370273155470364 L6.06194160354881,-1.5216320170015 L6.112389687821114,-1.304297628694497 L6.155048456326322,-1.0853011104181924 L6.1898635469188426,-0.8649215400978942 L6.216790593033723,-0.6434397581494646 L6.2357952802251315,-0.42113800959070646 L6.246853389894917,-0.19829958436279424 L6.249950830155551,0.02479154367988792 L6.2450836537881065,0.24785107865145775 L6.232258063272395,0.4705947649266199 L6.211490402882835,0.6927387493814517 L6.182807137860156,0.9139999431212568 L6.146244820685451,1.1340963822345258 L6.101850044499568,1.3527475871132781 L6.049679383727208,1.5696749198818805 L5.989799321981372,1.7846019394788581 L5.922286167340067,1.9972547539391985 L5.847225955103196,2.2073623694282154 L5.7647143381536,2.4146570355821897 L5.6748564650619135,2.6188745867156884 L5.577766846090644,2.819754778460764 L5.473569207268151,3.017041619409019 L5.362396332718555,3.210483697333922 L5.244389895448459,3.3998344995776515 L5.11970027680614,3.5848527271941695 L4.988486374843273,3.765302602448223 L4.850915401823412,3.9409541692783927 L4.7071626711352605,4.1115835863412915 L4.557411373882282,4.276973412263488 L4.401852345433358,4.436912882737639 L4.2406838222319925,4.5911981791097025 L4.074111189173954,4.739632688114976 L3.9023467178753055,4.882027252431949 L3.7256092961643508,5.0182004117346874 L3.544124149142218,5.147978633936564 L3.3581225521675466,5.271196536330641 L3.1678415361310375,5.387697096344911 L2.9735235853954505,5.497331851643798 L2.7754163287859757,5.599961089320945 L2.5737722240247636,5.695454023942172 L2.368848236011759,5.78368896421172 L2.1609055093618204,5.864553468049396 L1.95020903561542,5.937944485880989 L1.7370273155470253,6.003768491959359 L1.5216320170014888,6.0619416035488545 L1.3042976286944854,6.112389687821156 L1.0853011104181804,6.155048456326362 " />
			<path d="M12.5,0.0 L12.496020596153343,0.3153874767828055 L12.484084918318173,0.6305741449034835 L12.46420056599565,0.9453593235557087 L12.436380199644677,1.2595425875633532 L12.400641532620915,1.5729238949921212 L12.357007319898607,1.8853037145171725 L12.305505343582384,2.1964831524656376 L12.246168395218273,2.506264079453137 L12.179034254915168,2.814449256533674 L12.10414566729005,3.120842460782585 L12.021550314252309,3.4252486102325763 L11.93130078464444,3.7274738880833174 L11.833454540758487,4.027325866105491 L11.72807388174954,4.324613627160733 L11.615225903969566,4.61914788675946 L11.494982458246868,4.9107411135791725 L11.367420104138315,5.199207648866515 L11.232620061183528,5.484363824647063 L11.090668157192022,5.76602808066757 L10.94165477359624,6.044021079996216 L10.785674787905286,6.31816582320726 L10.622827513295968,6.588287761077395 L10.453216635379645,6.854214905722042 L10.276950146185124,7.115777940100826 L10.094140275399623,7.372810325822525 L9.904903418911623,7.625148409180824 L9.709360064701066,7.872631525353392 L9.507634716124105,8.115102100697914 L9.299855812641233,8.352405753079951 L9.086155648039293,8.584391390168769 L8.866670286199414,8.810911305638504 L8.641539474464505,9.031821273213488 L8.410906554661482,9.246980638497766 L8.17491837183486,9.456252408530395 L7.933725180749844,9.65950333900951 L7.687480550224413,9.856604019129577 L7.4363412653513565,10.047428953977859 L7.180467227672479,10.231856644437583 L6.920021353368548,10.409769664547017 L6.655169469529812,10.581054736265108 L6.386080208573124,10.745602801596132 L6.112924900872909,10.903309092027426 L5.835877465674317,11.054073195235986 L5.555114300358042,11.19779911902145 L5.270814168127295,11.334395352424785 L4.983158084188442,11.463774923993727 L4.692329200497795,11.585855457157908 L4.398512689147911,11.700559222678411 L4.101895624467665,11.807813188138311 L3.8026668639111647,11.907549064442776 L3.501016927811336,11.999703349299034 L3.1971378780747495,12.084217367648584 L2.8912231958949146,12.161037309025872 L2.5834676585619145,12.23011426181966 L2.274067215446803,12.291404244415283 L1.9632188632397396,12.344868233197943 L1.6511205205212833,12.390472187399217 L1.3379709017467223,12.428187070770983 L1.023969390723661,12.457988870072931 L0.7093159136634317,12.479858610361891 L0.39421081188714985,12.493782367073281 L0.07885471426747323,12.499751274886945 L-0.2365515905127286,12.497761533371722 L-0.5518072818034554,12.487814409405223 L-0.8667116348510109,12.469916236367183 L-1.1810641486003792,12.444078410106988 L-1.4946646733551738,12.41031738168787 L-1.8073135382138708,12.368654646912447 L-2.1188116782011943,12.31911673263624 L-2.4289607610137067,12.261735179877917 L-2.737563313298898,12.196546523736954 L-3.044422846387384,12.123592270131594 L-3.3493439813981487,12.042918869371826 L-3.6521325736371777,11.95457768658426 L-3.952595836210281,11.85862496900771 L-4.250542462771403,11.755121810180327 L-4.545782749328247,11.64413411104105 L-4.838128715027694,11.525732537970178 L-5.12739422184407,11.399992477795767 L-5.413395093094091,11.266993989794475 L-5.695949230703003,11.126821754717465 L-5.9748767311472735,10.979565020873771 L-6.2499999999999885,10.82531754730549 L-6.521143865006046,10.664177544090965 L-6.788135687615145,10.49624760981398 L-7.050805472901535,10.321634666238761 L-7.3089859778005835,10.140449890232407 L-7.562512817593199,9.95280864297805 L-7.811224570570338,9.75883039652387 L-8.054962880810963,9.558638657714683 L-8.293572559007977,9.352360889554568 L-8.526901681277975,9.140128430050577 L-8.754801685891888,8.922076408589232 L-8.977127467864914,8.698343659899008 L-9.193737471345534,8.469072635653625 L-9.404493779744774,8.234409313772414 L-9.609262203548338,7.994503105475495 L-9.807912365755692,7.749506760152972 L-10.00031778489169,7.499576268108682 L-10.186355955537934,7.244870761240454 L-10.365908426332519,6.9855524117201 L-10.538860875388568,6.721786328737631 L-10.705103183083516,6.453740453375484 L-10.864529502172763,6.18158545167966 L-11.017038325183124,5.9054946059958615 L-11.162532549043085,5.625643704639822 L-11.300919536908795,5.342210929972076 L-11.432111177146355,5.05537674494843 L-11.556023939432917,4.765323778218361 L-11.67257892794082,4.472236707844515 L-11.781701931570923,4.176302143717333 L-11.883323471203163,3.8777085087396697 L-11.977378843934224,3.5766459188570647 L-12.063808164274178,3.2733060620100387 L-12.142556402275858,2.967882076085502 L-12.213573418572663,2.6605684259449656 L-12.276813996302543,2.35156077960787 L-12.332237869897773,2.041055883668851 L-12.379809750722227,1.729251438028279 L-12.419499349539818,1.4163459700158145 L-12.451281395799793,1.1025387079871458 L-12.475135653726609,0.7880294544743729 L-12.491046935204146,0.47301845897081374 L-12.499005109446049,0.15770629043122783 L-12.499005109446047,-0.15770629043136353 L-12.49104693520414,-0.4730184589709493 L-12.4751356537266,-0.7880294544745082 L-12.45128139579978,-1.1025387079872808 L-12.419499349539803,-1.4163459700159493 L-12.379809750722208,-1.7292514380284132 L-12.332237869897751,-2.041055883668985 L-12.276813996302518,-2.351560779608003 L-12.213573418572635,-2.6605684259450983 L-12.142556402275826,-2.9678820760856337 L-12.063808164274144,-3.27330606201017 L-11.977378843934185,-3.5766459188571944 L-11.88332347120312,-3.877708508739799 L-11.781701931570877,-4.176302143717462 L-11.672578927940771,-4.472236707844642 L-11.556023939432865,-4.765323778218486 L-11.4321111771463,-5.055376744948554 L-11.300919536908737,-5.3422109299721985 L-11.162532549043025,-5.625643704639942 L-11.01703832518306,-5.905494605995981 L-10.864529502172697,-6.181585451679778 L-10.705103183083445,-6.4537404533756 L-10.538860875388496,-6.721786328737744 L-10.365908426332442,-6.985552411720213 L-10.186355955537856,-7.244870761240565 L-10.00031778489161,-7.4995762681087905 L-9.807912365755607,-7.749506760153077 L-9.609262203548251,-7.994503105475599 L-9.404493779744683,-8.234409313772515 L-9.193737471345443,-8.469072635653724 L-8.97712746786482,-8.698343659899106 L-8.754801685891792,-8.922076408589326 L-8.526901681277877,-9.14012843005067 L-8.293572559007876,-9.352360889554658 L-8.054962880810864,-9.558638657714766 L-7.811224570570241,-9.758830396523948 L-7.562512817593103,-9.952808642978123 L-7.308985977800492,-10.140449890232475 L-7.050805472901446,-10.321634666238824 L-6.788135687615059,-10.496247609814036 L-6.521143865005964,-10.664177544091014 L-6.249999999999909,-10.825317547305534 L-5.974876731147198,-10.979565020873814 L-5.695949230702932,-11.126821754717502 L-5.413395093094024,-11.266993989794507 L-5.127394221844007,-11.399992477795793 L-4.838128715027634,-11.525732537970203 L-4.545782749328189,-11.644134111041073 L-4.250542462771346,-11.755121810180349 L-3.9525958362102265,-11.85862496900773 L-3.652132573637125,-11.954577686584276 L-3.3493439813980985,-12.04291886937184 L-3.044422846387336,-12.123592270131606 L-2.7375633132988524,-12.196546523736963 L-2.428960761013663,-12.261735179877926 L-2.118811678201154,-12.319116732636248 L-1.8073135382138326,-12.368654646912452 L-1.4946646733551383,-12.410317381687875 L-1.1810641486003466,-12.444078410106991 L-0.8667116348509807,-12.469916236367185 L-0.551807281803428,-12.487814409405223 L-0.2365515905127039,-12.497761533371722 L0.07885471426749516,-12.499751274886945 L0.3942108118871689,-12.493782367073281 L0.7093159136634479,-12.47985861036189 L1.0239693907236747,-12.45798887007293 L1.337970901746733,-12.428187070770983 L1.6511205205212913,-12.390472187399215 L1.963218863239745,-12.344868233197941 L2.274067215446806,-12.291404244415283 L2.583467658561914,-12.23011426181966 L2.891223195894912,-12.161037309025872 L3.1971378780747433,-12.084217367648586 L3.5010169278113277,-11.999703349299038 L3.8026668639111536,-11.90754906444278 L4.101895624467651,-11.807813188138317 L4.398512689147895,-11.700559222678416 L4.6923292004977775,-11.585855457157917 L4.983158084188421,-11.463774923993736 L5.270814168127272,-11.334395352424796 L5.555114300358017,-11.197799119021463 L5.83587746567429,-11.054073195236 L6.11292490087288,-10.903309092027442 L6.386080208573093,-10.745602801596151 L6.6551694695297785,-10.581054736265129 L6.920021353368513,-10.409769664547042 L7.180467227672442,-10.23185664443761 L7.436341265351317,-10.047428953977887 L7.687480550224371,-9.85660401912961 L7.933725180749798,-9.659503339009547 L8.174918371834814,-9.456252408530434 L8.410906554661432,-9.24698063849781 L8.641539474464453,-9.03182127321354 L8.86667028619936,-8.810911305638559 L9.086155648039238,-8.584391390168825 L9.299855812641177,-8.352405753080014 L9.507634716124048,-8.115102100697982 L9.70936006470101,-7.872631525353464 L9.904903418911564,-7.6251484091809 L10.094140275399562,-7.372810325822606 L10.276950146185063,-7.115777940100912 L10.453216635379588,-6.854214905722132 L10.622827513295908,-6.588287761077491 L10.785674787905226,-6.318165823207361 L10.94165477359618,-6.044021079996321 L11.090668157191963,-5.766028080667681 L11.232620061183471,-5.484363824647179 L11.36742010413826,-5.199207648866635 L11.494982458246813,-4.910741113579297 L11.615225903969515,-4.61914788675959 L11.728073881749488,-4.324613627160867 L11.83345454075844,-4.027325866105629 L11.931300784644396,-3.72747388808346 L12.021550314252268,-3.4252486102327238 L12.104145667290013,-3.1208424607827365 L12.179034254915132,-2.8144492565338304 L12.246168395218241,-2.506264079453297 L12.305505343582356,-2.1964831524658024 L12.357007319898582,-1.885303714517341 L12.400641532620895,-1.572923894992294 L12.43638019964466,-1.2595425875635298 L12.464200565995636,-0.9453593235558894 L12.484084918318162,-0.630574144903668 L12.49602059615334,-0.31538747678299367 L12.5,-1.91799531184145e-13 " />
			<path d="M10.500000000000059,4.2632564145606015e-16 L10.496013223762048,0.2893205948657014 L10.484055922549878,0.5784214837365875 L10.464137176570093,0.8670831274594899 L10.436272111838528,1.155086320437833 L10.400481888693843,1.442212357093286 L10.356793685728643,1.7282431979477064 L10.305240679150446,2.012961635199254 L10.245862017588133,2.296151457666946 L10.178702792363028,2.5775976149783917 L10.103814003247187,2.8570863808760176 L10.021252519734887,3.134405515517793 L9.931081037856723,3.409344426649177 L9.833368032569133,3.6816943295239213 L9.728187705755477,3.9512484054522723 L9.61561992987816,4.217801958856179 L9.495750187324623,4.481152572712238 L9.368669505493196,4.741100262264339 L9.234474387668193,4.997447626889272 L9.093266739736665,5.249999999999999 L8.945153792802493,5.498565596872718 L8.790248021756609,5.742955660285482 L8.628667059865133,5.982984603857795 L8.46053360944033,6.21847015298229 L8.285975348662191,6.449233483241512 L8.105124834621428,6.675099356204664 L7.91811940265747,6.895896252501211 L7.725101062067942,7.111456502070282 L7.526216388268798,7.321616411486952 L7.321616411487011,7.526216388268738 L7.111456502070341,7.725101062067882 L6.895896252501271,7.91811940265741 L6.675099356204724,8.10512483462137 L6.449233483241572,8.285975348662133 L6.218470152982349,8.46053360944027 L5.9829846038578545,8.628667059865075 L5.742955660285542,8.79024802175655 L5.498565596872778,8.945153792802435 L5.25000000000006,9.093266739736606 L4.997447626889333,9.234474387668135 L4.741100262264398,9.368669505493136 L4.481152572712299,9.495750187324562 L4.217801958856239,9.615619929878102 L3.9512484054523327,9.728187705755419 L3.6816943295239812,9.833368032569075 L3.4093444266492368,9.931081037856664 L3.1344055155178534,10.021252519734828 L2.857086380876078,10.103814003247129 L2.5775976149784516,10.17870279236297 L2.296151457667006,10.245862017588074 L2.012961635199314,10.305240679150387 L1.7282431979477662,10.356793685728585 L1.442212357093346,10.400481888693784 L1.155086320437893,10.43627211183847 L0.8670831274595495,10.464137176570034 L0.5784214837366473,10.48405592254982 L0.289320594865761,10.49601322376199 L6.004431227909675e-14,10.5 L-0.28932059486564093,10.49601322376199 L-0.5784214837365271,10.48405592254982 L-0.8670831274594294,10.464137176570034 L-1.1550863204377726,10.43627211183847 L-1.442212357093226,10.400481888693784 L-1.7282431979476458,10.356793685728585 L-2.0129616351991935,10.305240679150387 L-2.296151457666886,10.245862017588074 L-2.5775976149783313,10.17870279236297 L-2.8570863808759577,10.103814003247129 L-3.134405515517733,10.021252519734828 L-3.409344426649117,9.931081037856664 L-3.6816943295238613,9.833368032569075 L-3.9512484054522123,9.728187705755419 L-4.2178019588561195,9.615619929878102 L-4.481152572712179,9.495750187324564 L-4.741100262264276,9.368669505493138 L-4.997447626889208,9.234474387668138 L-5.249999999999934,9.09326673973661 L-5.49856559687265,8.945153792802438 L-5.742955660285412,8.790248021756558 L-5.982984603857724,8.628667059865082 L-6.218470152982218,8.46053360944028 L-6.4492334832414375,8.285975348662145 L-6.675099356204588,8.105124834621382 L-6.895896252501134,7.9181194026574255 L-7.111456502070204,7.725101062067899 L-7.321616411486873,7.526216388268757 L-7.526216388268657,7.321616411486974 L-7.725101062067801,7.111456502070305 L-7.918119402657329,6.895896252501237 L-8.105124834621288,6.675099356204692 L-8.28597534866205,6.449233483241543 L-8.460533609440187,6.218470152982324 L-8.62866705986499,5.982984603857831 L-8.790248021756467,5.742955660285521 L-8.94515379280235,5.498565596872759 L-9.093266739736523,5.250000000000044 L-9.234474387668051,4.997447626889319 L-9.368669505493052,4.741100262264388 L-9.49575018732448,4.481152572712291 L-9.61561992987802,4.217801958856234 L-9.728187705755337,3.9512484054523305 L-9.833368032568995,3.6816943295239817 L-9.931081037856584,3.4093444266492403 L-10.02125251973475,3.134405515517859 L-10.10381400324705,2.8570863808760865 L-10.178702792362893,2.5775976149784627 L-10.245862017588,2.296151457667021 L-10.305240679150314,2.0129616351993307 L-10.356793685728514,1.728243197947786 L-10.400481888693715,1.4422123570933687 L-10.436272111838402,1.1550863204379178 L-10.464137176569968,0.8670831274595772 L-10.484055922549757,0.5784214837366775 L-10.49601322376193,0.2893205948657936 L-10.499999999999941,9.497093884907393e-14 L-10.496013223761933,-0.28932059486560374 L-10.484055922549768,-0.5784214837364877 L-10.464137176569983,-0.8670831274593879 L-10.436272111838422,-1.155086320437729 L-10.40048188869374,-1.4422123570931804 L-10.356793685728544,-1.7282431979475985 L-10.30524067915035,-2.0129616351991446 L-10.24586201758804,-2.296151457666835 L-10.17870279236294,-2.577597614978279 L-10.103814003247102,-2.857086380875904 L-10.021252519734805,-3.134405515517678 L-9.931081037856645,-3.4093444266490605 L-9.83336803256906,-3.6816943295238036 L-9.728187705755408,-3.951248405452154 L-9.615619929878097,-4.217801958856061 L-9.495750187324562,-4.481152572712119 L-9.36866950549314,-4.741100262264219 L-9.234474387668142,-4.997447626889152 L-9.093266739736617,-5.24999999999988 L-8.945153792802449,-5.498565596872598 L-8.79024802175657,-5.742955660285363 L-8.628667059865098,-5.982984603857676 L-8.460533609440299,-6.218470152982171 L-8.285975348662166,-6.449233483241394 L-8.105124834621407,-6.675099356204546 L-7.918119402657452,-6.895896252501095 L-7.725101062067928,-7.111456502070166 L-7.52621638826879,-7.321616411486837 L-7.321616411487008,-7.526216388268626 L-7.111456502070342,-7.725101062067771 L-6.895896252501277,-7.918119402657302 L-6.6750993562047345,-8.105124834621263 L-6.449233483241587,-8.285975348662028 L-6.218470152982371,-8.460533609440168 L-5.982984603857879,-8.628667059864974 L-5.742955660285571,-8.790248021756453 L-5.498565596872811,-8.94515379280234 L-5.250000000000098,-9.093266739736514 L-4.997447626889375,-9.234474387668048 L-4.741100262264445,-9.368669505493054 L-4.481152572712349,-9.495750187324482 L-4.2178019588562945,-9.615619929878028 L-3.951248405452392,-9.728187705755346 L-3.6816943295240447,-9.833368032569005 L-3.4093444266493043,-9.9310810378566 L-3.134405515517925,-10.021252519734768 L-2.857086380876153,-10.103814003247075 L-2.5775976149785302,-10.17870279236292 L-2.2961514576670887,-10.245862017588028 L-2.0129616351993995,-10.305240679150348 L-1.7282431979478554,-10.356793685728551 L-1.4422123570934386,-10.400481888693754 L-1.1550863204379884,-10.436272111838447 L-0.8670831274596481,-10.464137176570016 L-0.5784214837367486,-10.484055922549809 L-0.2893205948658649,-10.496013223761985 L-1.6634840776354426e-13,-10.5 L0.2893205948655324,-10.496013223761995 L0.5784214837364166,-10.484055922549832 L0.8670831274593169,-10.464137176570054 L1.1550863204376585,-10.436272111838495 L1.4422123570931102,-10.400481888693816 L1.728243197947529,-10.356793685728624 L2.012961635199076,-10.305240679150435 L2.296151457666767,-10.245862017588127 L2.577597614978212,-10.17870279236303 L2.8570863808758378,-10.103814003247196 L3.1344055155176123,-10.021252519734903 L3.409344426648996,-9.931081037856746 L3.6816943295237414,-9.833368032569165 L3.951248405452093,-9.728187705755515 L4.2178019588560005,-9.615619929878207 L4.481152572712061,-9.495750187324676 L4.741100262264161,-9.368669505493257 L4.997447626889097,-9.234474387668262 L5.249999999999827,-9.093266739736741 L5.498565596872545,-8.945153792802577 L5.742955660285313,-8.7902480217567 L5.982984603857627,-8.628667059865231 L6.218470152982126,-8.460533609440436 L6.4492334832413505,-8.285975348662305 L6.6750993562045045,-8.10512483462155 L6.895896252501056,-7.918119402657599 L7.111456502070129,-7.725101062068077 L7.321616411486803,-7.52621638826894 L7.526216388268593,-7.321616411487161 L7.725101062067742,-7.1114565020704985 L7.918119402657275,-6.895896252501435 L8.105124834621238,-6.675099356204895 L8.285975348662006,-6.44923348324175 L8.46053360944015,-6.218470152982535 L8.628667059864958,-5.982984603858047 L8.790248021756438,-5.74295566028574 L8.94515379280233,-5.498565596872982 L9.093266739736508,-5.250000000000272 L9.234474387668044,-4.99744762688955 L9.368669505493052,-4.741100262264622 L9.495750187324486,-4.481152572712528 L9.615619929878031,-4.217801958856475 L9.728187705755355,-3.951248405452573 L9.83336803256902,-3.681694329524227 L9.931081037856616,-3.4093444266494877 L10.021252519734787,-3.1344055155181088 L10.103814003247097,-2.8570863808763387 L10.178702792362946,-2.5775976149787163 L10.24586201758806,-2.296151457667276 L10.305240679150382,-2.0129616351995874 L10.356793685728586,-1.7282431979480437 L10.400481888693797,-1.4422123570936276 L10.43627211183849,-1.1550863204381778 L10.464137176570063,-0.8670831274598378 L10.48405592254986,-0.5784214837369385 L10.49601322376204,-0.28932059486605505 L10.500000000000059,-3.5652862209710335e-13 " />

       </g>
    </g>
    
</svg>
