<?xml version="1.0" encoding="UTF-8" standalone="no"?>
<svg
   xmlns:svg="http://www.w3.org/2000/svg"
   xmlns="http://www.w3.org/2000/svg"
   width="800.0"
   height="800.0"

>
    <g transform="scale(18.75, -18.75)   translate(18.133333333333333,-18.133333333333333)" stroke-width="0.05333333333333334"  fill="none">
       <!-- hidden lines -->
       <g  stroke="rgb(180,180,180)" fill="none" stroke-dasharray="0.05333333333333334,0.05333333333333334" >

       </g>

       <!-- solid lines -->
       <g  stroke="rgb(40,40,40)" fill="none">
			<path d="M16.0,0.0 L15.99600037762597,0.35773162984253914 L15.984003510126275,0.7152844107562513 L15.96401539536837,1.0724795832283316 L15.936046026466135,1.4291385665333156 L15.900109386783772,1.7850830480150128 L15.856223442944797,2.1401350722344175 L15.804410135849572,2.4941171299390277 L15.744695369705887,2.846852246809094 L15.677108999078083,3.1981640719364237 L15.601684813961178,3.5478769659915117 L15.518460522887466,3.895816089034914 L15.427477734074023,4.241807487928966 L15.328781934620576,4.585678183306137 L15.222422467768089,4.927256256050552 L15.108452508229474,5.266370933249433 L14.986929035604751,5.602852673571493 L14.85791280589393,5.936533252029603 L14.721468321121879,6.267245844085339 L14.577663797090363,6.5948251090533825 L14.42657112927336,6.9191072727640535 L14.268265856872707,7.239930209442668 L14.102827125052087,7.55713352276477 L13.930337645368166,7.870558626046724 L13.75088365441872,8.180048821531573 L13.564554870728411,8.485449378730518 L13.371444449893765,8.786607611780854 L13.171648938009758,9.083372955781703 L12.965268223401335,9.375597042069353 L12.752405486683962,9.663133772394584 L12.533167149178183,9.945839391964903 L12.307662819703994,10.223572561315146 L12.076005239781592,10.496194426970545 L11.83831022726595,10.763568690866911 L11.594696618443347,11.025561678493228 L11.345286208618845,11.282042405722603 L11.090203691224373,11.532882644298141 L10.829576595477905,11.777956985941033 L10.563535222624871,12.01714290504876 L10.292212580793679,12.250320819952117 L10.015744318497937,12.477374152700412 L9.73426865681859,12.69818938734492 L9.447926320299919,12.91265612669152 L9.156860466593889,13.12066714749406 L8.861216614888104,13.32211845406094 L8.561142573153065,13.516909330248026 L8.256788364245171,13.70494238981199 L7.948306150902369,13.886123625098818 L7.635850159669971,14.060362454043213 L7.319576603794653,14.227571765455338 L6.9996436051252156,14.38766796257231 L6.676211115059116,14.540571004852634 L6.3494408345743265,14.686204447992683 L6.019496133386469,14.824495482145265 L5.686541968271677,14.955374968321085 L5.35074480059599,15.078777472954993 L5.0122725130925305,15.194641300619672 L4.671294325928059,15.302908524870437 L4.327980712100881,15.403525017205729 L3.9825033122123914,15.496440474128804 L3.6350348486548807,15.58160844229711 L3.285749039258488,15.658986341746772 L2.9348205104404874,15.728535487180547 L2.582424709900322,15.79022110730867 L2.2287378189040363,15.844012362232835 L1.873936664201959,15.889882358864702 L1.5181986296236747,15.927808164371166 L1.1617015673944824,15.9577708176397 L0.8046237092176781,15.979755338758 L0.44714357716711617,15.993750736503248 L0.08943989443459913,15.999750013837202 L-0.2683085040232819,15.997750171404377 L-0.6259227608941836,15.987752209031594 L-0.9832240859302246,15.9697611252281 L-1.3400338453346692,15.943785914686561 L-1.6961736510703942,15.909839563786132 L-2.0514654500454865,15.867939044099888 L-2.4057316131313855,15.81810530390983 L-2.75879502396906,15.760363257733736 L-3.110479167518832,15.694741773869087 L-3.4606082183095586,15.621273659960265 L-3.809007128343073,15.53999564659629 L-4.155501714609917,15.45094836894726 L-4.499918746172628,15.35417634644868 L-4.842086030773025,15.249727960543845 L-5.1818325009202155,15.137655430495402 L-5.518988299416262,15.01801478727819 L-5.853384864276765,14.890865845566392 L-6.184855013003897,14.756272173829018 L-6.513233026169762,14.61430106254868 L-6.838354730268285,14.465023490579522 L-7.160057579794214,14.308514089661143 L-7.4781807385082075,14.144851107106248 L-7.792565159847354,13.974116366680692 L-8.103053666440951,13.796395227695452 L-8.409491028691765,13.61177654233101 L-8.71172404238351,13.42035261121544 L-9.00960160527572,13.222219137278476 L-9.302974792647737,13.017475177904538 L-9.59169693175404,12.806223095408738 L-9.8756236751537,12.588568505860536 L-10.154613072877279,12.364620226280703 L-10.428525643395123,12.134490220237947 L-10.697224443351534,11.8982935418724 L-10.96057513602999,11.656148278374001 L-11.218446058515159,11.408175490944451 L-11.470708287518145,11.154499154272349 L-11.71723570383204,10.895246094551682 L-11.957905055385583,10.630545926074726 L-12.192596018863371,10.360530986431009 L-12.42119125986184,10.085336270344774 L-12.643576491550931,9.805099362183977 L-12.859640531812103,9.519960367174612 L-13.069275358824147,9.230061841354692 L-13.272376165069003,8.935548720302979 L-13.468841409730569,8.63656824667802 L-13.658572869460308,8.333269896603783 L-13.841475687484296,8.025805304938636 L-14.01745842102713,7.714328189465084 L-14.186433087028991,7.398994274038133 L-14.348315206133035,7.079961210730713 L-14.50302384492107,6.75738850101508 L-14.650481656376453,6.431437416019614 L-14.790614918553942,6.1022709159008635 L-14.923353571437193,5.77005356837116 L-15.048631251965462,5.434951466422531 L-15.166385327211996,5.097132145288043 L-15.276556925697546,4.756764498682096 L-15.379090966823329,4.414018694361534 L-15.473936188408718,4.069066089049803 L-15.561045172319925,3.7220791427666766 L-15.640374368176822,3.3732313326063856 L-15.711884115126075,3.022697066007261 L-15.775538661669701,2.6706515935562467 L-15.83130618353913,2.31727092137188 L-15.879158799605836,1.962731723109537 L-15.919072585820583,1.6072112516329484 L-15.951027587174327,1.2508872503961321 L-15.975007827674766,0.8939378645800566 L-15.991001318333598,0.5365415520284605 L-15.99900006316044,0.17887699402735321 L-15.999000063160441,-0.17887699402719298 L-15.991001318333604,-0.5365415520283003 L-15.975007827674775,-0.8939378645798967 L-15.95102758717434,-1.2508872503959723 L-15.9190725858206,-1.607211251632789 L-15.879158799605856,-1.962731723109378 L-15.831306183539153,-2.3172709213717213 L-15.775538661669728,-2.670651593556089 L-15.711884115126105,-3.0226970660071037 L-15.640374368176856,-3.373231332606229 L-15.561045172319963,-3.7220791427665207 L-15.473936188408759,-4.069066089049648 L-15.379090966823373,-4.4140186943613795 L-15.276556925697594,-4.756764498681942 L-15.166385327212046,-5.097132145287891 L-15.048631251965517,-5.43495146642238 L-14.923353571437252,-5.770053568371011 L-14.790614918554004,-6.102270915900715 L-14.650481656376519,-6.431437416019468 L-14.503023844921138,-6.757388501014935 L-14.348315206133107,-7.079961210730569 L-14.186433087029066,-7.398994274037991 L-14.017458421027206,-7.714328189464943 L-13.841475687484376,-8.025805304938498 L-13.658572869460391,-8.333269896603646 L-13.468841409730656,-8.636568246677886 L-13.272376165069094,-8.935548720302846 L-13.069275358824239,-9.230061841354562 L-12.859640531812197,-9.519960367174482 L-12.643576491551029,-9.805099362183851 L-12.421191259861942,-10.08533627034465 L-12.192596018863474,-10.360530986430886 L-11.95790505538569,-10.630545926074605 L-11.717235703832149,-10.895246094551565 L-11.470708287518256,-11.154499154272235 L-11.218446058515273,-11.40817549094434 L-10.960575136030107,-11.656148278373891 L-10.697224443351653,-11.898293541872293 L-10.428525643395243,-12.134490220237842 L-10.154613072877401,-12.364620226280602 L-9.875623675153825,-12.588568505860437 L-9.591696931754168,-12.806223095408642 L-9.302974792647866,-13.017475177904446 L-9.009601605275853,-13.222219137278385 L-8.711724042383645,-13.420352611215353 L-8.409491028691901,-13.611776542330924 L-8.103053666441088,-13.796395227695372 L-7.792565159847494,-13.974116366680613 L-7.478180738508349,-14.144851107106174 L-7.160057579794357,-14.30851408966107 L-6.8383547302684295,-14.465023490579453 L-6.513233026169911,-14.614301062548614 L-6.184855013004051,-14.756272173828954 L-5.853384864276924,-14.89086584556633 L-5.518988299416426,-15.01801478727813 L-5.181832500920384,-15.137655430495345 L-4.842086030773198,-15.24972796054379 L-4.499918746172805,-15.354176346448629 L-4.155501714610099,-15.450948368947213 L-3.8090071283432594,-15.539995646596244 L-3.46060821830975,-15.621273659960222 L-3.1104791675190273,-15.694741773869048 L-2.75879502396926,-15.760363257733701 L-2.4057316131315893,-15.818105303909798 L-2.051465450045695,-15.867939044099861 L-1.6961736510706065,-15.909839563786111 L-1.3400338453348855,-15.943785914686543 L-0.9832240859304449,-15.969761125228086 L-0.6259227608944077,-15.987752209031585 L-0.2683085040235096,-15.997750171404373 L0.08943989443436784,-15.999750013837202 L0.4471435771668814,-15.993750736503255 L0.80462370921744,-15.979755338758011 L1.161701567394241,-15.957770817639718 L1.5181986296234302,-15.92780816437119 L1.8739366642017117,-15.88988235886473 L2.2287378189037863,-15.844012362232869 L2.5824247099000694,-15.790221107308712 L2.934820510440232,-15.728535487180595 L3.2857490392582305,-15.658986341746825 L3.635034848654621,-15.58160844229717 L3.9825033122121294,-15.496440474128871 L4.327980712100617,-15.403525017205803 L4.671294325927794,-15.302908524870519 L5.012272513092264,-15.194641300619761 L5.350744800595722,-15.078777472955089 L5.686541968271407,-14.955374968321188 L6.019496133386198,-14.824495482145373 L6.349440834574056,-14.6862044479928 L6.6762111150588455,-14.540571004852758 L6.999643605124944,-14.387667962572444 L7.319576603794381,-14.227571765455478 L7.635850159669698,-14.06036245404336 L7.9483061509020985,-13.886123625098975 L8.2567883642449,-13.704942389812153 L8.561142573152795,-13.516909330248197 L8.861216614887834,-13.322118454061117 L9.15686046659362,-13.120667147494249 L9.447926320299652,-12.912656126691715 L9.734268656818326,-12.698189387345124 L10.015744318497672,-12.477374152700623 L10.292212580793418,-12.250320819952337 L10.563535222624612,-12.017142905048987 L10.829576595477649,-11.77795698594127 L11.090203691224119,-11.532882644298386 L11.345286208618594,-11.282042405722855 L11.5946966184431,-11.025561678493489 L11.838310227265705,-10.76356869086718 L12.07600523978135,-10.496194426970822 L12.307662819703758,-10.22357256131543 L12.533167149177952,-9.945839391965196 L12.752405486683735,-9.663133772394884 L12.965268223401113,-9.37559704206966 L13.17164893800954,-9.08337295578202 L13.371444449893552,-8.786607611781177 L13.564554870728204,-8.485449378730848 L13.750883654418518,-8.180048821531912 L13.93033764536797,-7.87055862604707 L14.102827125051899,-7.557133522765122 L14.268265856872524,-7.239930209443027 L14.426571129273183,-6.919107272764419 L14.577663797090196,-6.594825109053755 L14.72146832112172,-6.267245844085717 L14.857912805893775,-5.936533252029987 L14.986929035604605,-5.602852673571883 L15.108452508229337,-5.266370933249828 L15.22242246776796,-4.927256256050953 L15.328781934620455,-4.585678183306543 L15.42747773407391,-4.2418074879293775 L15.518460522887361,-3.8958160890353306 L15.601684813961084,-3.5478769659919327 L15.677108999077996,-3.1981640719368496 L15.74469536970581,-2.8468522468095245 L15.804410135849505,-2.4941171299394624 L15.856223442944739,-2.140135072234856 L15.900109386783722,-1.7850830480154554 L15.936046026466096,-1.4291385665337617 L15.96401539536834,-1.0724795832287812 L15.984003510126255,-0.7152844107567041 L15.996000377625961,-0.357731629842995 L16.0,-4.586662206437356e-13 " />
			<path d="M-9.0,0.0 L-8.99604752857915,0.2666999504030377 L-8.984193585878893,0.5331656510434286 L-8.964448583536953,0.7991630579064131 L-8.936829864121652,1.0644585382922922 L-8.901361685899476,1.3288190760223308 L-8.858075201528372,1.5920124761031567 L-8.807008430695536,1.8538075686698854 L-8.748206226723697,2.113974412028853 L-8.681720237175227,2.3722844946216086 L-8.607608858488701,2.6285109357327823 L-8.525937184687722,2.882428684765538 L-8.436776950207088,3.133814718909589 L-8.340206466886501,3.3824482390281423 L-8.236310555187167,3.628110863591749 L-8.125180469691692,3.870586820488683 L-8.006913818952725,4.109663136543416 L-7.8816144797607315,4.345129824576702 L-7.749392505906201,4.576780067842982 L-7.610364031516435,4.804410401683114 L-7.464651169051818,5.02782089223287 L-7.312381902051133,5.246815312030247 L-7.153689972720182,5.461201312367338 L-6.988714764462384,5.670790592235397 L-6.817601179454583,5.875399063714692 L-6.640499511375548,6.074847013663892 L-6.457565313398982,6.2689592615669705 L-6.268959261566977,6.457565313398978 L-6.074847013663898,6.640499511375543 L-5.875399063714697,6.817601179454578 L-5.670790592235403,6.988714764462379 L-5.4612013123673435,7.153689972720176 L-5.246815312030253,7.312381902051129 L-5.027820892232876,7.4646511690518125 L-4.80441040168312,7.610364031516432 L-4.576780067842988,7.749392505906197 L-4.345129824576707,7.88161447976073 L-4.10966313654342,8.006913818952723 L-3.870586820488686,8.12518046969169 L-3.628110863591751,8.236310555187165 L-3.382448239028144,8.3402064668865 L-3.1338147189095893,8.436776950207088 L-2.8824286847655376,8.525937184687722 L-2.628510935732781,8.607608858488701 L-2.3722844946216064,8.68172023717523 L-2.11397441202885,8.748206226723697 L-1.8538075686698814,8.807008430695538 L-1.592012476103152,8.858075201528372 L-1.3288190760223257,8.901361685899476 L-1.064458538292286,8.936829864121654 L-0.7991630579064061,8.964448583536953 L-0.5331656510434207,8.984193585878893 L-0.266699950403029,8.99604752857915 L9.4409161620101e-15,9.0 L0.2666999504030479,8.99604752857915 L0.5331656510434396,8.984193585878891 L0.799163057906425,8.964448583536951 L1.0644585382923046,8.936829864121652 L1.3288190760223442,8.901361685899474 L1.5920124761031706,8.858075201528369 L1.8538075686698998,8.807008430695534 L2.1139744120288686,8.748206226723694 L2.3722844946216246,8.681720237175224 L2.628510935732799,8.607608858488696 L2.882428684765556,8.525937184687717 L3.1338147189096066,8.436776950207081 L3.3824482390281614,8.340206466886494 L3.6281108635917687,8.236310555187158 L3.870586820488703,8.125180469691683 L4.1096631365434355,8.006913818952716 L4.34512982457672,7.881614479760723 L4.576780067843,7.749392505906191 L4.804410401683129,7.610364031516426 L5.027820892232884,7.464651169051808 L5.24681531203026,7.312381902051124 L5.461201312367351,7.153689972720171 L5.670790592235409,6.988714764462375 L5.875399063714703,6.8176011794545746 L6.074847013663901,6.640499511375539 L6.2689592615669785,6.457565313398974 L6.457565313398985,6.268959261566969 L6.640499511375549,6.0748470136638915 L6.817601179454583,5.875399063714691 L6.988714764462384,5.670790592235398 L7.15368997272018,5.461201312367339 L7.312381902051132,5.2468153120302485 L7.464651169051816,5.0278208922328735 L7.610364031516434,4.804410401683118 L7.749392505906198,4.576780067842987 L7.881614479760729,4.345129824576707 L8.006913818952723,4.109663136543423 L8.125180469691689,3.87058682048869 L8.236310555187163,3.628110863591757 L8.340206466886498,3.382448239028152 L8.436776950207085,3.1338147189095986 L8.525937184687718,2.8824286847655496 L8.607608858488698,2.6285109357327947 L8.681720237175224,2.3722844946216224 L8.748206226723694,2.113974412028868 L8.807008430695532,1.8538075686699016 L8.858075201528369,1.5920124761031742 L8.901361685899474,1.32881907602235 L8.93682986412165,1.0644585382923124 L8.96444858353695,0.7991630579064345 L8.984193585878891,0.5331656510434511 L8.996047528579147,0.2666999504030615 L9.0,2.5082999451135998e-14 " />
			<path d="M9.0,1.102182119232618e-15 L8.99604752857915,-0.26669995040303535 L8.984193585878893,-0.5331656510434251 L8.964448583536953,-0.7991630579064085 L8.936829864121654,-1.0644585382922864 L8.901361685899477,-1.328819076022324 L8.858075201528372,-1.5920124761031484 L8.807008430695538,-1.8538075686698758 L8.748206226723699,-2.113974412028843 L8.681720237175231,-2.372284494621597 L8.607608858488707,-2.6285109357327694 L8.525937184687727,-2.882428684765525 L8.436776950207094,-3.133814718909574 L8.340206466886507,-3.382448239028128 L8.236310555187174,-3.628110863591733 L8.1251804696917,-3.8705868204886666 L8.006913818952736,-4.109663136543399 L7.881614479760742,-4.345129824576684 L7.749392505906211,-4.576780067842964 L7.610364031516448,-4.8044104016830955 L7.46465116905183,-5.027820892232851 L7.312381902051147,-5.246815312030227 L7.153689972720196,-5.461201312367318 L6.9887147644624,-5.670790592235377 L6.8176011794546,-5.875399063714672 L6.640499511375567,-6.074847013663871 L6.457565313399003,-6.268959261566949 L6.268959261566997,-6.457565313398956 L6.074847013663921,-6.6404995113755225 L5.875399063714722,-6.817601179454558 L5.670790592235429,-6.988714764462358 L5.461201312367371,-7.153689972720155 L5.246815312030281,-7.312381902051108 L5.027820892232906,-7.464651169051793 L4.8044104016831515,-7.610364031516411 L4.576780067843021,-7.749392505906177 L4.345129824576743,-7.88161447976071 L4.109663136543459,-8.006913818952706 L3.870586820488727,-8.12518046969167 L3.6281108635917945,-8.236310555187146 L3.3824482390281894,-8.340206466886482 L3.133814718909637,-8.43677695020707 L2.8824286847655882,-8.525937184687706 L2.6285109357328333,-8.607608858488685 L2.3722844946216615,-8.681720237175213 L2.1139744120289072,-8.748206226723683 L1.8538075686699413,-8.807008430695525 L1.5920124761032142,-8.858075201528361 L1.32881907602239,-8.901361685899467 L1.0644585382923526,-8.936829864121645 L0.7991630579064749,-8.964448583536948 L0.5331656510434917,-8.98419358587889 L0.266699950403102,-8.996047528579147 L6.560211939725794e-14,-9.0 L-0.2666999504029709,-8.996047528579151 L-0.5331656510433607,-8.984193585878897 L-0.7991630579063441,-8.964448583536958 L-1.0644585382922223,-8.93682986412166 L-1.3288190760222602,-8.901361685899486 L-1.592012476103085,-8.858075201528385 L-1.853807568669813,-8.807008430695552 L-2.11397441202878,-8.748206226723715 L-2.3722844946215353,-8.681720237175249 L-2.628510935732708,-8.607608858488724 L-2.882428684765464,-8.525937184687747 L-3.133814718909514,-8.436776950207117 L-3.382448239028068,-8.340206466886531 L-3.628110863591674,-8.236310555187199 L-3.8705868204886085,-8.125180469691728 L-4.109663136543341,-8.006913818952764 L-4.345129824576628,-7.881614479760772 L-4.5767800678429085,-7.749392505906244 L-4.8044104016830405,-7.6103640315164816 L-5.027820892232797,-7.464651169051867 L-5.246815312030174,-7.312381902051185 L-5.461201312367267,-7.153689972720235 L-5.670790592235327,-6.988714764462441 L-5.875399063714623,-6.817601179454642 L-6.074847013663824,-6.6404995113756105 L-6.268959261566904,-6.457565313399049 L-6.457565313398911,-6.268959261567044 L-6.640499511375478,-6.074847013663968 L-6.817601179454515,-5.875399063714771 L-6.988714764462317,-5.670790592235479 L-7.153689972720116,-5.461201312367423 L-7.3123819020510705,-5.246815312030334 L-7.464651169051757,-5.02782089223296 L-7.610364031516378,-4.8044104016832065 L-7.749392505906145,-4.576780067843077 L-7.881614479760679,-4.3451298245768 L-8.006913818952675,-4.109663136543516 L-8.125180469691644,-3.8705868204887848 L-8.23631055518712,-3.6281108635918535 L-8.340206466886459,-3.3824482390282493 L-8.436776950207047,-3.133814718909697 L-8.525937184687686,-2.882428684765649 L-8.607608858488668,-2.6285109357328955 L-8.681720237175197,-2.3722844946217236 L-8.748206226723669,-2.11397441202897 L-8.807008430695511,-1.8538075686700044 L-8.858075201528349,-1.5920124761032777 L-8.901361685899458,-1.3288190760224539 L-8.936829864121638,-1.0644585382924165 L-8.96444858353694,-0.7991630579065392 L-8.984193585878884,-0.5331656510435561 L-8.996047528579146,-0.2666999504031665 L-9.0,-1.3010205667528327e-13 " />
			<path d="M14.1,0.0 L14.09600680517312,0.33554753540011595 L14.084029482480412,0.6709050131147662 L14.064074816004574,1.005882483109176 L14.036154108280492,1.3402902105889754 L14.000283173893365,1.673938783468003 L13.956482330521151,2.0066392196533203 L13.90477638742643,2.338203074086675 L13.845194631404164,2.6684425454817835 L13.77777081019335,2.997170582696971 L13.702543113361937,3.3242009906829235 L13.619554150675864,3.6493485359455424 L13.528850927964413,3.9724290514641583 L13.430484820495632,4.293259541005689 L13.324511543876826,4.611658282775645 L13.21099112249664,4.927444932347287 L13.089987855526623,5.240440624810619 L12.961570280501483,5.550468076083375 L12.825811134498709,5.8573516833266 L12.682787312939503,6.160917624407971 L12.53257982603442,6.460993956356489 L12.375273752898304,6.757410712752804 L12.210958193360584,7.050000000000002 L12.039726217498187,7.33859609242032 L11.861674812919652,7.623035526123928 L11.676904829830326,7.903157191596609 L11.48552092390973,8.178802424953897 L11.287631497033479,8.449815097809996 L11.0833486358733,8.716041705710538 L10.872788048409962,8.977331455079147 L10.656068998395039,9.233536348628522 L10.433314237798658,9.484511269187664 L10.204649937281484,9.730114061897783 L9.970205614730316,9.970205614730324 L9.730114061897774,10.204649937281493 L9.484511269187657,10.433314237798665 L9.233536348628514,10.656068998395046 L8.97733145507914,10.87278804840997 L8.716041705710527,11.083348635873309 L8.449815097809985,11.287631497033486 L8.178802424953888,11.485520923909737 L7.9031571915965975,11.676904829830333 L7.623035526123919,11.86167481291966 L7.33859609242031,12.039726217498194 L7.049999999999993,12.210958193360588 L6.757410712752796,12.375273752898307 L6.460993956356482,12.532579826034421 L6.160917624407966,12.682787312939507 L5.857351683326597,12.825811134498709 L5.550468076083371,12.961570280501485 L5.240440624810618,13.089987855526623 L4.927444932347288,13.21099112249664 L4.611658282775647,13.324511543876826 L4.293259541005693,13.430484820495632 L3.972429051464163,13.528850927964411 L3.6493485359455486,13.619554150675862 L3.3242009906829306,13.702543113361935 L2.9971705826969792,13.777770810193347 L2.6684425454817933,13.845194631404162 L2.338203074086686,13.904776387426429 L2.0066392196533327,13.95648233052115 L1.6739387834680166,14.000283173893363 L1.3402902105889902,14.03615410828049 L1.0058824831091917,14.064074816004574 L0.6709050131147836,14.084029482480412 L0.3355475354001344,14.096006805173118 L1.9648349570056532e-14,14.1 L-0.3355475354000951,14.09600680517312 L-0.6709050131147443,14.084029482480414 L-1.0058824831091526,14.064074816004576 L-1.340290210588951,14.036154108280495 L-1.6739387834679773,14.000283173893369 L-2.0066392196532936,13.956482330521155 L-2.3382030740866475,13.904776387426436 L-2.6684425454817546,13.845194631404171 L-2.997170582696941,13.777770810193354 L-3.3242009906828924,13.702543113361944 L-3.6493485359455105,13.61955415067587 L-3.9724290514641254,13.528850927964422 L-4.293259541005654,13.430484820495643 L-4.61165828277561,13.324511543876838 L-4.9274449323472505,13.210991122496655 L-5.2404406248105815,13.089987855526639 L-5.550468076083336,12.961570280501501 L-5.85735168332656,12.825811134498727 L-6.160917624407934,12.68278731293952 L-6.460993956356452,12.532579826034437 L-6.757410712752769,12.375273752898321 L-7.0499999999999705,12.210958193360602 L-7.33859609242029,12.039726217498204 L-7.623035526123901,11.86167481291967 L-7.903157191596582,11.676904829830345 L-8.178802424953872,11.48552092390975 L-8.44981509780997,11.287631497033496 L-8.716041705710515,11.083348635873318 L-8.977331455079126,10.872788048409978 L-9.233536348628505,10.656068998395053 L-9.484511269187646,10.433314237798674 L-9.730114061897767,10.2046499372815 L-9.97020561473031,9.97020561473033 L-10.20464993728148,9.730114061897787 L-10.433314237798655,9.484511269187667 L-10.656068998395037,9.233536348628526 L-10.87278804840996,8.977331455079149 L-11.0833486358733,8.716041705710538 L-11.28763149703348,8.449815097809994 L-11.485520923909734,8.178802424953895 L-11.67690482983033,7.903157191596604 L-11.861674812919656,7.623035526123924 L-12.03972621749819,7.338596092420314 L-12.210958193360588,7.049999999999994 L-12.375273752898307,6.757410712752794 L-12.532579826034425,6.460993956356477 L-12.68278731293951,6.160917624407958 L-12.825811134498714,5.857351683326585 L-12.961570280501492,5.550468076083358 L-13.08998785552663,5.240440624810601 L-13.210991122496647,4.927444932347267 L-13.324511543876833,4.6116582827756245 L-13.430484820495641,4.293259541005667 L-13.52885092796442,3.972429051464134 L-13.619554150675869,3.649348535945516 L-13.702543113361944,3.324200990682895 L-13.777770810193354,2.99717058269694 L-13.845194631404171,2.668442545481751 L-13.904776387426436,2.338203074086641 L-13.956482330521156,2.006639219653284 L-14.000283173893369,1.6739387834679644 L-14.036154108280497,1.340290210588935 L-14.064074816004577,1.0058824831091333 L-14.084029482480414,0.6709050131147218 L-14.09600680517312,0.3355475354000695 L-14.1,-4.83665108842893e-14 L-14.096006805173118,-0.3355475354001662 L-14.08402948248041,-0.6709050131148184 L-14.06407481600457,-1.0058824831092297 L-14.036154108280488,-1.3402902105890313 L-14.000283173893356,-1.6739387834680606 L-13.956482330521142,-2.0066392196533798 L-13.90477638742642,-2.338203074086736 L-13.845194631404151,-2.668442545481846 L-13.777770810193335,-2.9971705826970347 L-13.702543113361921,-3.3242009906829892 L-13.619554150675844,-3.6493485359456095 L-13.528850927964392,-3.972429051464226 L-13.43048482049561,-4.293259541005758 L-13.3245115438768,-4.611658282775716 L-13.210991122496614,-4.927444932347358 L-13.089987855526594,-5.240440624810691 L-12.961570280501453,-5.550468076083447 L-12.825811134498675,-5.857351683326673 L-12.682787312939467,-6.160917624408046 L-12.532579826034382,-6.460993956356562 L-12.375273752898263,-6.757410712752879 L-12.21095819336054,-7.050000000000078 L-12.03972621749814,-7.338596092420397 L-11.861674812919603,-7.6230355261240055 L-11.676904829830274,-7.903157191596684 L-11.485520923909677,-8.178802424953973 L-11.287631497033422,-8.449815097810072 L-11.083348635873241,-8.716041705710612 L-10.8727880484099,-8.977331455079224 L-10.656068998394973,-9.233536348628599 L-10.43331423779859,-9.484511269187738 L-10.204649937281415,-9.730114061897858 L-9.970205614730242,-9.970205614730396 L-9.730114061897698,-10.204649937281566 L-9.484511269187577,-10.43331423779874 L-9.233536348628432,-10.656068998395119 L-8.977331455079053,-10.87278804841004 L-8.716041705710438,-11.083348635873378 L-8.449815097809894,-11.287631497033555 L-8.178802424953794,-11.485520923909805 L-7.903157191596501,-11.676904829830399 L-7.623035526123819,-11.861674812919723 L-7.338596092420207,-12.039726217498256 L-7.049999999999886,-12.21095819336065 L-6.757410712752685,-12.375273752898368 L-6.460993956356366,-12.532579826034482 L-6.160917624407846,-12.682787312939563 L-5.857351683326471,-12.825811134498766 L-5.550468076083244,-12.96157028050154 L-5.240440624810486,-13.089987855526676 L-4.927444932347151,-13.210991122496692 L-4.611658282775506,-13.324511543876874 L-4.293259541005548,-13.430484820495678 L-3.9724290514640144,-13.528850927964454 L-3.649348535945396,-13.619554150675903 L-3.3242009906827743,-13.702543113361973 L-2.997170582696819,-13.777770810193381 L-2.668442545481629,-13.845194631404194 L-2.338203074086518,-13.904776387426457 L-2.006639219653161,-13.956482330521174 L-1.673938783467841,-14.000283173893383 L-1.340290210588811,-14.036154108280508 L-1.0058824831090092,-14.064074816004586 L-0.6709050131145976,-14.08402948248042 L-0.33554753539994514,-14.096006805173124 L1.7273629206860807e-13,-14.1 L0.33554753540029053,-14.096006805173115 L0.6709050131149427,-14.084029482480403 L1.0058824831093538,-14.064074816004561 L1.340290210589155,-14.036154108280476 L1.673938783468184,-14.000283173893342 L2.0066392196535023,-13.956482330521126 L2.338203074086859,-13.9047763874264 L2.6684425454819682,-13.845194631404128 L2.9971705826971564,-13.777770810193308 L3.32420099068311,-13.702543113361891 L3.6493485359457294,-13.619554150675812 L3.972429051464346,-13.528850927964358 L4.293259541005877,-13.430484820495574 L4.611658282775833,-13.32451154387676 L4.927444932347474,-13.21099112249657 L5.240440624810806,-13.089987855526548 L5.55046807608356,-12.961570280501403 L5.857351683326787,-12.825811134498624 L6.160917624408157,-12.682787312939414 L6.460993956356674,-12.532579826034324 L6.757410712752987,-12.375273752898202 L7.050000000000185,-12.210958193360478 L7.338596092420503,-12.039726217498076 L7.6230355261241085,-11.861674812919535 L7.903157191596787,-11.676904829830205 L8.178802424954075,-11.485520923909606 L8.44981509781017,-11.287631497033347 L8.716041705710712,-11.083348635873165 L8.97733145507932,-10.87278804840982 L9.233536348628691,-10.656068998394892 L9.48451126918783,-10.433314237798506 L9.730114061897947,-10.204649937281328 L9.970205614730487,-9.970205614730153 L10.204649937281653,-9.730114061897607 L10.433314237798822,-9.484511269187484 L10.656068998395199,-9.233536348628338 L10.872788048410118,-8.977331455078957 L11.083348635873454,-8.716041705710342 L11.287631497033628,-8.449815097809795 L11.485520923909878,-8.178802424953691 L11.676904829830468,-7.9031571915963985 L11.86167481291979,-7.623035526123714 L12.03972621749832,-7.338596092420103 L12.210958193360712,-7.049999999999779 L12.375273752898428,-6.757410712752575 L12.53257982603454,-6.460993956356256 L12.682787312939618,-6.160917624407735 L12.825811134498817,-5.8573516833263595 L12.961570280501588,-5.550468076083129 L13.089987855526722,-5.24044062481037 L13.210991122496734,-4.927444932347035 L13.324511543876914,-4.611658282775389 L13.430484820495716,-4.293259541005429 L13.528850927964491,-3.9724290514638954 L13.619554150675933,-3.6493485359452755 L13.702543113362003,-3.3242009906826535 L13.777770810193408,-2.9971705826966972 L13.845194631404217,-2.668442545481507 L13.904776387426478,-2.3382030740863953 L13.956482330521192,-2.0066392196530374 L14.000283173893399,-1.6739387834677175 L14.03615410828052,-1.3402902105886871 L14.064074816004597,-1.0058824831088853 L14.084029482480426,-0.6709050131144734 L14.096006805173127,-0.33554753539982085 L14.1,2.9710607325292683e-13 " />
			<path d="M-9.0,2.000000000000001 L-9.0,-2.220446049250313e-15 " />
			<path d="M-10.307764064044092,2.0000000000000013 L-9.0,2.000000000000001 " />
			<path d="M-9.0,-1.999999999999999 L-10.307764064044093,-1.999999999999999 " />
			<path d="M-9.0,-2.220446049250313e-15 L-9.0,-1.9999999999999991 " />
			<path d="M9.0,-2.0 L9.0,1.1102230246251565e-15 " />
			<path d="M10.307764064044209,-2.0 L9.0,-2.0 " />
			<path d="M9.0,2.0 L10.307764064044209,2.0 " />
			<path d="M9.0,1.1102230246251565e-15 L9.0,2.0 " />
			<path d="M8.8,0.0 L8.796023626860084,0.26451532227678437 L8.784098100972912,0.5287915964575238 L8.764234199688671,0.7925899904789978 L8.736449874435433,1.055672104148402 L8.700770234496074,1.317800184590648 L8.657227524316479,1.5787373411106707 L8.605861094365556,1.8382477592765623 L8.546717365573384,2.0960969140300674 L8.479849787379639,2.3520517816318427 L8.405318789430195,2.6058810502499417 L8.323191726965586,2.8573553290012152 L8.233542819950639,3.106247355256707 L8.136453086000326,3.3523322000237035 L8.032010267162432,3.595387471218824 L7.9203087506232,3.835193514648456 L7.8014494834076435,4.0715336125149 L7.675539881151577,4.304194179268825 L7.542693731027836,4.532964954631063 L7.403031088914395,4.757639193609259 L7.256678170897333,4.97801385333771 L7.103767239206686,5.193889776571488 L6.944436482688265,5.405071871669076 L6.778829891919475,5.611369288900794 L6.607097129081983,5.812595592923753 L6.42939339270883,6.0085689312674155 L6.245879277428239,6.199112198677526 L6.056720628830846,6.384053197169874 L5.86208839359153,6.563224791649262 L5.662158464981282,6.736465060953024 L5.457111523908737,6.903617444182613 L5.247132875635011,7.0645308821909945 L5.0324122823094095,7.219059954097999 L4.813143791477362,7.367065008710249 L4.589525560715543,7.508412290726894 L4.361759678552682,7.642974061617116 L4.130051981837871,7.770628715060132 L3.894611869721461,7.891260886843415 L3.655652114416605,8.00476155911976 L3.41338866891251,8.111028158929033 L3.168040471813152,8.209964650895515 L2.9198292494778193,8.301481624017113 L2.6689793156423125,8.385496372467971 L2.4157173687018703,8.461932970341477 L2.1602722868390334,8.530722340266108 L1.9028749211815843,8.59180231583212 L1.643757887177497,8.645117697772644 L1.3831553543754325,8.69062030384843 L1.121302834800761,8.728269012391161 L0.858436970118359,8.758029799465975 L0.5947953177745272,8.779875769619608 L0.33061613631129844,8.793787180186396 L0.06613817004714895,8.799751459130128 L-0.19839956668129574,8.797763216405674 L-0.46275800552157614,8.787824248830066 L-0.7266982401565298,8.769943538458696 L-0.9899817422089874,8.744137244468025 L-1.2523705768049158,8.710428688552208 L-1.5136276176002013,8.668848333846773 L-1.773516761076745,8.619433757398445 L-2.0318031399142122,8.562229616205977 L-2.288253335244599,8.497287606862674 L-2.5426355875978057,8.424666418837079 L-2.7947200063475757,8.34443168143407 L-3.044278777468521,8.25665590448426 L-3.2910863694164787,8.161418412815328 L-3.534919736946142,8.058805274564502 L-3.7755585226817705,7.948909223396947 L-4.0127852562588116,7.8318295747004045 L-4.246385550856479,7.707672135831761 L-4.476148296943657,7.576549110496706 L-4.701865853063049,7.438578997348868 L-4.9233342334811665,7.293886482900075 L-5.140353292534546,7.142602328838507 L-5.352726905505625,6.984863253856598 L-5.560263145864805,6.820811810095456 L-5.762774458718509,6.650596254317473 L-5.9600778303065205,6.474370413923561 L-6.151994953395386,6.292293547936056 L-6.338352388418436,6.104530203072986 L-6.518981720216797,5.911250065043711 L-6.69371971023973,5.712627805200349 L-6.862408444066769,5.508842922683593 L-7.024895474118327,5.300079582205522 L-7.18103395742579,5.086526447616065 L-7.330682788336632,4.868376511403476 L-7.473706726034566,4.6458269202829445 L-7.609976516759541,4.419078797030932 L-7.7393690106170965,4.188337058726263 L-7.861767272871534,3.9538102315622212 L-7.977060689622306,3.715710262397017 L-8.085145067768146,3.4742523272129255 L-8.185922729168576,3.2296546366571914 L-8.279302598917711,2.9821382388404554 L-8.365200287650577,2.7319268195708903 L-8.443538167807569,2.4792465002046074 L-8.514245443788125,2.2243256332949954 L-8.577258215930192,1.9673945962256876 L-8.632519538257725,1.7086855830136412 L-8.679979469943952,1.4484323944704904 L-8.719595120443973,1.1868702269118037 L-8.751330688255837,0.9242354596051946 L-8.775157493275131,0.6607654411493733 L-8.79105400271379,0.39669827497719495 L-8.79900585055973,0.13227260417654588 L-8.799005850559732,-0.13227260417646555 L-8.791054002713793,-0.3966982749771147 L-8.775157493275136,-0.6607654411492933 L-8.751330688255846,-0.9242354596051148 L-8.719595120443984,-1.1868702269117244 L-8.679979469943966,-1.4484323944704112 L-8.632519538257739,-1.7086855830135625 L-8.57725821593021,-1.9673945962256094 L-8.514245443788145,-2.2243256332949177 L-8.443538167807594,-2.4792465002045305 L-8.365200287650602,-2.731926819570814 L-8.279302598917738,-2.9821382388403794 L-8.185922729168606,-3.229654636657117 L-8.085145067768178,-3.474252327212852 L-7.97706068962234,-3.7157102623969442 L-7.861767272871569,-3.9538102315621493 L-7.739369010617135,-4.188337058726192 L-7.6099765167595805,-4.4190787970308625 L-7.4737067260346075,-4.645826920282876 L-7.330682788336676,-4.868376511403409 L-7.181033957425837,-5.0865264476159995 L-7.024895474118375,-5.300079582205458 L-6.862408444066819,-5.508842922683531 L-6.693719710239781,-5.712627805200288 L-6.51898172021685,-5.911250065043651 L-6.338352388418492,-6.104530203072929 L-6.151994953395444,-6.292293547936 L-5.96007783030658,-6.474370413923506 L-5.762774458718569,-6.6505962543174215 L-5.560263145864863,-6.820811810095407 L-5.352726905505686,-6.9848632538565525 L-5.140353292534607,-7.142602328838463 L-4.92333423348123,-7.2938864829000325 L-4.701865853063113,-7.438578997348827 L-4.476148296943722,-7.576549110496667 L-4.246385550856545,-7.707672135831723 L-4.012785256258879,-7.83182957470037 L-3.7755585226818393,-7.948909223396915 L-3.5349197369462138,-8.05880527456447 L-3.291086369416553,-8.161418412815298 L-3.044278777468598,-8.256655904484232 L-2.7947200063476556,-8.344431681434044 L-2.542635587597888,-8.424666418837054 L-2.288253335244684,-8.49728760686265 L-2.0318031399142997,-8.562229616205958 L-1.7735167610768352,-8.619433757398426 L-1.5136276176002939,-8.668848333846755 L-1.2523705768050106,-8.710428688552195 L-0.9899817422090847,-8.744137244468014 L-0.7266982401566294,-8.769943538458687 L-0.46275800552167784,-8.78782424883006 L-0.1983995666813995,-8.79776321640567 L0.06613817004704324,-8.79975145913013 L0.33061613631119086,-8.7937871801864 L0.5947953177744179,-8.779875769619617 L0.8584369701182479,-8.758029799465985 L1.1213028348006484,-8.728269012391177 L1.3831553543753183,-8.69062030384845 L1.6437578871773817,-8.645117697772665 L1.9028749211814677,-8.591802315832146 L2.1602722868389157,-8.530722340266138 L2.4157173687017517,-8.461932970341511 L2.668979315642193,-8.385496372468008 L2.9198292494776994,-8.301481624017155 L3.1680404718130317,-8.20996465089556 L3.4133886689123893,-8.111028158929084 L3.6556521144164837,-8.004761559119816 L3.8946118697213397,-7.891260886843474 L4.130051981837751,-7.770628715060196 L4.361759678552561,-7.642974061617184 L4.5895255607154235,-7.508412290726968 L4.813143791477243,-7.367065008710326 L5.032412282309292,-7.219059954098082 L5.247132875634895,-7.064530882191081 L5.457111523908624,-6.903617444182702 L5.662158464981171,-6.736465060953118 L5.862088393591421,-6.563224791649359 L6.05672062883074,-6.384053197169975 L6.245879277428135,-6.199112198677631 L6.429393392708728,-6.008568931267525 L6.607097129081883,-5.8125955929238655 L6.778829891919379,-5.611369288900911 L6.944436482688171,-5.405071871669197 L7.103767239206595,-5.193889776571613 L7.256678170897246,-4.978013853337837 L7.403031088914311,-4.75763919360939 L7.5426937310277555,-4.532964954631197 L7.6755398811515,-4.304194179268963 L7.80144948340757,-4.07153361251504 L7.920308750623129,-3.835193514648601 L8.032010267162367,-3.5953874712189715 L8.136453086000264,-3.3523322000238545 L8.233542819950582,-3.1062473552568615 L8.323191726965531,-2.8573553290013725 L8.405318789430146,-2.605881050250102 L8.479849787379592,-2.3520517816320057 L8.546717365573343,-2.096096914030233 L8.605861094365519,-1.8382477592767306 L8.657227524316447,-1.5787373411108414 L8.700770234496048,-1.3178001845908212 L8.736449874435412,-1.055672104148577 L8.764234199688655,-0.7925899904791749 L8.784098100972901,-0.5287915964577027 L8.796023626860078,-0.26451532227696484 L8.8,-1.819226905138047e-13 " />
			<path d="M7.75,0.0 L7.7460181755553315,0.24839972618032757 L7.734076793815107,0.4965442048505251 L7.714188125356286,0.7441784507845335 L7.686372607130158,0.9910480030549215 L7.650658821461989,1.2368991865086887 L7.6070834666807565,1.481479372435635 L7.555691319409133,1.7245372381614361 L7.496535188552478,1.9658230252986815 L7.42967586103412,2.2050887963905006 L7.355182039332683,2.4420886896830596 L7.273130270885644,2.676579171765133 L7.18360486943167,2.9083192878151483 L7.086697828372547,3.137070909198551 L6.982508726243749,3.362598978161074 L6.871144624390751,3.584671749366472 L6.752719956956268,3.8030610280305175 L6.627356413291434,4.0175424044065675 L6.495182812911765,4.227895484381751 L6.356334973126409,4.433904115946813 L6.210955569476665,4.635356611306922 L6.059193989127232,4.832045964405184 L5.901206177360794,5.023770063635358 L5.737154477333696,5.210331899525204 L5.5672074632573905,5.391539767177018 L5.391539767177021,5.567207463257387 L5.210331899525206,5.737154477333694 L5.023770063635362,5.90120617736079 L4.832045964405187,6.0591939891272295 L4.635356611306927,6.210955569476662 L4.4339041159468175,6.3563349731264065 L4.227895484381755,6.495182812911763 L4.017542404406571,6.627356413291431 L3.80306102803052,6.752719956956266 L3.5846717493664744,6.87114462439075 L3.362598978161076,6.982508726243748 L3.1370709091985516,7.086697828372547 L2.9083192878151483,7.18360486943167 L2.676579171765132,7.273130270885644 L2.442088689683058,7.355182039332683 L2.2050887963904984,7.42967586103412 L1.9658230252986786,7.496535188552479 L1.7245372381614321,7.555691319409134 L1.4814793724356299,7.607083466680757 L1.236899186508683,7.65065882146199 L0.9910480030549148,7.686372607130159 L0.744178450784526,7.714188125356287 L0.49654420485051676,7.734076793815108 L0.2483997261803185,7.7460181755553315 L-9.850523494344357e-15,7.75 L-0.24839972618033818,7.746018175555331 L-0.49654420485053646,7.734076793815106 L-0.7441784507845457,7.7141881253562845 L-0.9910480030549341,7.686372607130156 L-1.2368991865087022,7.650658821461986 L-1.4814793724356492,7.607083466680754 L-1.7245372381614512,7.55569131940913 L-1.9658230252986975,7.496535188552474 L-2.205088796390517,7.429675861034116 L-2.4420886896830765,7.355182039332677 L-2.676579171765151,7.273130270885637 L-2.908319287815167,7.183604869431662 L-3.13707090919857,7.0866978283725395 L-3.3625989781610937,6.98250872624374 L-3.5846717493664904,6.871144624390741 L-3.8030610280305344,6.752719956956258 L-4.0175424044065835,6.627356413291423 L-4.227895484381765,6.495182812911756 L-4.433904115946827,6.356334973126399 L-4.635356611306935,6.210955569476656 L-4.832045964405195,6.059193989127223 L-5.02377006363537,5.901206177360784 L-5.2103318995252135,5.737154477333688 L-5.3915397671770275,5.5672074632573825 L-5.567207463257395,5.391539767177013 L-5.737154477333701,5.210331899525199 L-5.9012061773607964,5.0237700636353555 L-6.059193989127235,4.8320459644051805 L-6.210955569476667,4.63535661130692 L-6.356334973126411,4.433904115946811 L-6.495182812911767,4.22789548438175 L-6.627356413291434,4.0175424044065675 L-6.752719956956268,3.8030610280305175 L-6.871144624390751,3.584671749366473 L-6.982508726243747,3.3625989781610763 L-7.086697828372546,3.137070909198554 L-7.183604869431668,2.9083192878151523 L-7.273130270885642,2.676579171765138 L-7.355182039332681,2.442088689683065 L-7.429675861034117,2.2050887963905073 L-7.4965351885524765,1.9658230252986888 L-7.5556913194091315,1.7245372381614443 L-7.607083466680755,1.4814793724356439 L-7.650658821461987,1.2368991865086985 L-7.686372607130156,0.9910480030549322 L-7.7141881253562845,0.7441784507845454 L-7.734076793815106,0.49654420485053785 L-7.746018175555331,0.24839972618034128 L-7.75,1.471586677469114e-14 L-7.7460181755553315,-0.2483997261803119 L-7.734076793815108,-0.4965442048505085 L-7.714188125356288,-0.744178450784516 L-7.68637260713016,-0.9910480030549029 L-7.650658821461992,-1.2368991865086696 L-7.607083466680761,-1.481479372435615 L-7.555691319409138,-1.7245372381614155 L-7.496535188552484,-1.9658230252986604 L-7.429675861034126,-2.205088796390479 L-7.35518203933269,-2.442088689683037 L-7.273130270885652,-2.6765791717651104 L-7.1836048694316785,-2.9083192878151247 L-7.086697828372558,-3.1370709091985267 L-6.98250872624376,-3.3625989781610497 L-6.871144624390764,-3.584671749366447 L-6.752719956956282,-3.803061028030492 L-6.62735641329145,-4.017542404406542 L-6.495182812911783,-4.227895484381725 L-6.356334973126427,-4.433904115946787 L-6.210955569476685,-4.6353566113068965 L-6.0591939891272535,-4.8320459644051565 L-5.901206177360816,-5.0237700636353315 L-5.737154477333721,-5.210331899525178 L-5.567207463257415,-5.391539767176992 L-5.391539767177048,-5.567207463257361 L-5.210331899525235,-5.737154477333668 L-5.023770063635392,-5.901206177360765 L-4.832045964405218,-6.059193989127205 L-4.635356611306959,-6.210955569476638 L-4.433904115946851,-6.356334973126383 L-4.22789548438179,-6.49518281291174 L-4.017542404406608,-6.627356413291409 L-3.80306102803056,-6.752719956956244 L-3.584671749366516,-6.871144624390729 L-3.3625989781611203,-6.982508726243727 L-3.137070909198598,-7.086697828372526 L-2.9083192878151976,-7.183604869431649 L-2.6765791717651832,-7.273130270885625 L-2.4420886896831107,-7.355182039332665 L-2.2050887963905534,-7.429675861034104 L-1.9658230252987356,-7.496535188552464 L-1.7245372381614916,-7.55569131940912 L-1.4814793724356916,-7.607083466680745 L-1.2368991865087466,-7.650658821461979 L-0.9910480030549804,-7.68637260713015 L-0.7441784507845938,-7.71418812535628 L-0.49654420485058637,-7.7340767938151025 L-0.24839972618038997,-7.746018175555329 L-6.337409667809253e-14,-7.75 L0.24839972618026326,-7.746018175555333 L0.4965442048504599,-7.7340767938151105 L0.7441784507844676,-7.7141881253562925 L0.9910480030548547,-7.686372607130166 L1.2368991865086216,-7.650658821461999 L1.4814793724355673,-7.60708346668077 L1.7245372381613682,-7.555691319409148 L1.965823025298613,-7.496535188552496 L2.205088796390432,-7.4296758610341405 L2.4420886896829908,-7.355182039332705 L2.676579171765064,-7.273130270885669 L2.90831928781508,-7.183604869431697 L3.1370709091984823,-7.086697828372578 L3.3625989781610057,-6.982508726243782 L3.584671749366404,-6.871144624390787 L3.8030610280304495,-6.752719956956307 L4.0175424044065,-6.627356413291475 L4.227895484381683,-6.49518281291181 L4.4339041159467465,-6.356334973126455 L4.6353566113068565,-6.210955569476714 L4.832045964405119,-6.059193989127284 L5.023770063635295,-5.901206177360847 L5.2103318995251415,-5.737154477333753 L5.3915397671769565,-5.567207463257449 L5.567207463257327,-5.3915397671770835 L5.737154477333636,-5.210331899525271 L5.901206177360733,-5.023770063635429 L6.059193989127174,-4.832045964405256 L6.210955569476608,-4.635356611306998 L6.356334973126355,-4.433904115946891 L6.495182812911714,-4.227895484381831 L6.627356413291383,-4.01754240440665 L6.752719956956221,-3.8030610280306023 L6.8711446243907055,-3.5846717493665596 L6.982508726243705,-3.3625989781611643 L7.086697828372507,-3.1370709091986426 L7.183604869431631,-2.9083192878152424 L7.273130270885608,-2.676579171765229 L7.35518203933265,-2.4420886896831573 L7.42967586103409,-2.2050887963906005 L7.496535188552452,-1.965823025298783 L7.55569131940911,-1.7245372381615391 L7.607083466680736,-1.4814793724357394 L7.650658821461971,-1.2368991865087946 L7.686372607130143,-0.9910480030550288 L7.714188125356276,-0.7441784507846422 L7.7340767938151,-0.496544204850635 L7.746018175555328,-0.24839972618043857 L7.75,-1.1203232658149392e-13 " />
			<path d="M6.250000000000036,5.730183352904034e-16 L6.246017660356234,0.22307708649362842 L6.234075716314121,0.4458698949952027 L6.214189386074395,0.6680945097819554 L6.186384011755866,0.8894677392080327 L6.150695027100762,1.1097074765893962 L6.107167912319784,1.328533059706105 L6.055858136134457,1.5456656284638477 L5.996831085090645,1.760828480258936 L5.930161980233284,1.9737474225939065 L5.855935781248547,2.184151122494365 L5.774247078195579,2.3917714522818114 L5.685199970965777,2.59634383126179 L5.588907936623232,2.7976075628919532 L5.485493684795384,2.995306167000355 L5.375089001298165,3.189187706630623 L5.257834580194919,3.3790051090974846 L5.133879844503109,3.5645164808435252 L5.00338275577729,3.745485415695918 L4.866509612811007,3.9216812961303247 L4.723434839714152,4.0928795871580315 L4.5743407636358215,4.258862122461819 L4.4194173824159595,4.419417382415922 L4.258862122461857,4.574340763635783 L4.09287958715807,4.7234348397141135 L3.9216812961303633,4.86650961281097 L3.7454854156959567,5.003382755777252 L3.564516480843564,5.133879844503072 L3.3790051090975237,5.257834580194882 L3.189187706630661,5.375089001298128 L2.9953061670003946,5.4854936847953475 L2.7976075628919927,5.588907936623195 L2.5963438312618297,5.68519997096574 L2.391771452281851,5.7742470781955415 L2.1841511224944044,5.855935781248511 L1.9737474225939458,5.9301619802332475 L1.7608284802589758,5.996831085090609 L1.5456656284638872,6.055858136134421 L1.3285330597061447,6.107167912319747 L1.1097074765894361,6.150695027100726 L0.8894677392080729,6.18638401175583 L0.6680945097819957,6.2141893860743584 L0.44586989499524315,6.234075716314085 L0.22307708649366903,6.246017660356198 L4.1333815592721786e-14,6.250000000000001 L-0.22307708649358637,6.246017660356199 L-0.44586989499516055,6.234075716314086 L-0.6680945097819132,6.21418938607436 L-0.8894677392079904,6.186384011755831 L-1.1097074765893533,6.150695027100727 L-1.3285330597060623,6.107167912319749 L-1.5456656284638048,6.055858136134423 L-1.7608284802588934,5.996831085090611 L-1.9737474225938634,5.930161980233251 L-2.184151122494322,5.8559357812485135 L-2.391771452281769,5.774247078195545 L-2.596343831261748,5.685199970965743 L-2.797607562891911,5.588907936623199 L-2.995306167000314,5.485493684795351 L-3.1891877066305825,5.3750890012981305 L-3.3790051090974456,5.257834580194885 L-3.5645164808434875,5.133879844503074 L-3.7454854156958817,5.003382755777253 L-3.9216812961302887,4.86650961281097 L-4.092879587157997,4.7234348397141135 L-4.258862122461785,4.5743407636357825 L-4.419417382415889,4.419417382415919 L-4.574340763635752,4.258862122461816 L-4.723434839714082,4.092879587158027 L-4.866509612810939,3.9216812961303185 L-5.003382755777222,3.7454854156959105 L-5.133879844503042,3.5645164808435164 L-5.257834580194852,3.379005109097475 L-5.375089001298099,3.189187706630611 L-5.485493684795318,2.9953061670003427 L-5.588907936623166,2.7976075628919395 L-5.68519997096571,2.5963438312617746 L-5.774247078195513,2.391771452281794 L-5.855935781248482,2.184151122494346 L-5.930161980233218,1.9737474225938862 L-5.996831085090578,1.7608284802589147 L-6.055858136134391,1.5456656284638246 L-6.107167912319716,1.3285330597060805 L-6.150695027100694,1.1097074765893702 L-6.186384011755797,0.8894677392080055 L-6.214189386074325,0.6680945097819269 L-6.2340757163140506,0.44586989499517277 L-6.246017660356163,0.22307708649359714 L-6.249999999999964,-3.1968268153997196e-14 L-6.246017660356161,-0.22307708649366104 L-6.234075716314046,-0.44586989499523655 L-6.214189386074318,-0.6680945097819905 L-6.186384011755788,-0.8894677392080688 L-6.150695027100682,-1.109707476589433 L-6.107167912319702,-1.3285330597061427 L-6.055858136134375,-1.5456656284638863 L-5.996831085090561,-1.7608284802589758 L-5.930161980233198,-1.9737474225939466 L-5.855935781248459,-2.184151122494406 L-5.774247078195488,-2.391771452281853 L-5.685199970965684,-2.596343831261833 L-5.588907936623137,-2.7976075628919967 L-5.485493684795287,-2.9953061670003986 L-5.375089001298066,-3.1891877066306664 L-5.257834580194817,-3.3790051090975286 L-5.133879844503005,-3.5645164808435688 L-5.003382755777182,-3.7454854156959616 L-4.866509612810899,-3.921681296130368 L-4.723434839714041,-4.092879587158074 L-4.574340763635708,-4.258862122461862 L-4.419417382415843,-4.419417382415964 L-4.258862122461738,-4.574340763635825 L-4.092879587157948,-4.723434839714154 L-3.921681296130238,-4.866509612811009 L-3.7454854156958297,-5.003382755777291 L-3.5645164808434338,-5.1338798445031095 L-3.379005109097391,-5.257834580194918 L-3.1891877066305265,-5.3750890012981625 L-2.995306167000257,-5.48549368479538 L-2.797607562891853,-5.588907936623227 L-2.596343831261687,-5.685199970965769 L-2.3917714522817057,-5.77424707819557 L-2.1841511224942574,-5.855935781248536 L-1.9737474225937963,-5.9301619802332715 L-1.7608284802588243,-5.99683108509063 L-1.5456656284637336,-6.0558581361344395 L-1.328533059705989,-6.107167912319763 L-1.1097074765892785,-6.150695027100739 L-0.8894677392079136,-6.18638401175584 L-0.6680945097818347,-6.214189386074366 L-0.4458698949950804,-6.23407571631409 L-0.22307708649350472,-6.2460176603562 L1.2445751272145578e-13,-6.249999999999999 L0.2230770864937535,-6.246017660356194 L0.44586989499532886,-6.234075716314077 L0.6680945097820825,-6.214189386074348 L0.8894677392081607,-6.186384011755815 L1.1097074765895247,-6.150695027100708 L1.3285330597062341,-6.107167912319726 L1.5456656284639771,-6.055858136134396 L1.7608284802590664,-5.996831085090581 L1.9737474225940366,-5.9301619802332155 L2.1841511224944954,-5.855935781248475 L2.3917714522819415,-5.774247078195502 L2.5963438312619203,-5.685199970965696 L2.7976075628920833,-5.588907936623148 L2.9953061670004844,-5.485493684795296 L3.189187706630751,-5.375089001298073 L3.3790051090976125,-5.257834580194824 L3.564516480843652,-5.133879844503009 L3.7454854156960433,-5.003382755777186 L3.9216812961304486,-4.8665096128108996 L4.092879587158153,-4.72343483971404 L4.25886212246194,-4.574340763635705 L4.41941738241604,-4.41941738241584 L4.5743407636359,-4.258862122461733 L4.723434839714227,-4.092879587157942 L4.866509612811081,-3.9216812961302314 L5.003382755777361,-3.7454854156958217 L5.133879844503178,-3.5645164808434253 L5.257834580194985,-3.3790051090973807 L5.375089001298228,-3.189187706630516 L5.485493684795444,-2.995306167000245 L5.588907936623289,-2.79760756289184 L5.685199970965829,-2.5963438312616733 L5.774247078195628,-2.3917714522816915 L5.855935781248593,-2.1841511224942423 L5.930161980233326,-1.97374742259378 L5.996831085090682,-1.7608284802588074 L6.05585813613449,-1.5456656284637165 L6.107167912319812,-1.3285330597059715 L6.150695027100786,-1.1097074765892603 L6.1863840117558855,-0.8894677392078952 L6.214189386074409,-0.6680945097818161 L6.234075716314131,-0.4458698949950617 L6.24601766035624,-0.2230770864934858 L6.250000000000036,1.4337120303762656e-13 " />
			<path d="M-8.8,-1.599999999999999 L-8.8,1.1102230246251565e-15 " />
			<path d="M-8.8,1.1102230246251565e-15 L-8.8,1.6000000000000012 " />
			<path d="M-8.8,1.6000000000000012 L-8.85663593019381,1.6000000000000012 " />
			<path d="M-9.0,1.6000000000000012 L-10.377379245262205,1.6000000000000014 " />
			<path d="M-10.377379245262205,-1.5999999999999985 L-9.0,-1.5999999999999988 " />
			<path d="M-8.85663593019381,-1.5999999999999988 L-8.800000000000002,-1.5999999999999988 " />
			<path d="M8.8,1.6 L8.8,0.0 " />
			<path d="M8.8,0.0 L8.8,-1.6 " />
			<path d="M8.8,-1.6 L8.856635930193812,-1.6 " />
			<path d="M9.0,-1.6 L10.377379245262322,-1.6 " />
			<path d="M10.377379245262322,1.6 L9.0,1.6 " />
			<path d="M8.856635930193812,1.6 L8.8,1.6 " />
			<path d="M12.5,0.0 L12.496020596153343,0.3153874767828055 L12.484084918318173,0.6305741449034835 L12.46420056599565,0.9453593235557087 L12.436380199644677,1.2595425875633532 L12.400641532620915,1.5729238949921212 L12.357007319898607,1.8853037145171725 L12.305505343582384,2.1964831524656376 L12.246168395218273,2.506264079453137 L12.179034254915168,2.814449256533674 L12.10414566729005,3.120842460782585 L12.021550314252309,3.4252486102325763 L11.93130078464444,3.7274738880833174 L11.833454540758487,4.027325866105491 L11.72807388174954,4.324613627160733 L11.615225903969566,4.61914788675946 L11.494982458246868,4.9107411135791725 L11.367420104138315,5.199207648866515 L11.232620061183528,5.484363824647063 L11.090668157192022,5.76602808066757 L10.94165477359624,6.044021079996216 L10.785674787905286,6.31816582320726 L10.622827513295968,6.588287761077395 L10.453216635379645,6.854214905722042 L10.276950146185124,7.115777940100826 L10.094140275399623,7.372810325822525 L9.904903418911623,7.625148409180824 L9.709360064701066,7.872631525353392 L9.507634716124105,8.115102100697914 L9.299855812641233,8.352405753079951 L9.086155648039293,8.584391390168769 L8.866670286199414,8.810911305638504 L8.641539474464505,9.031821273213488 L8.410906554661482,9.246980638497766 L8.17491837183486,9.456252408530395 L7.933725180749844,9.65950333900951 L7.687480550224413,9.856604019129577 L7.4363412653513565,10.047428953977859 L7.180467227672479,10.231856644437583 L6.920021353368548,10.409769664547017 L6.655169469529812,10.581054736265108 L6.386080208573124,10.745602801596132 L6.112924900872909,10.903309092027426 L5.835877465674317,11.054073195235986 L5.555114300358042,11.19779911902145 L5.270814168127295,11.334395352424785 L4.983158084188442,11.463774923993727 L4.692329200497795,11.585855457157908 L4.398512689147911,11.700559222678411 L4.101895624467665,11.807813188138311 L3.8026668639111647,11.907549064442776 L3.501016927811336,11.999703349299034 L3.1971378780747495,12.084217367648584 L2.8912231958949146,12.161037309025872 L2.5834676585619145,12.23011426181966 L2.274067215446803,12.291404244415283 L1.9632188632397396,12.344868233197943 L1.6511205205212833,12.390472187399217 L1.3379709017467223,12.428187070770983 L1.023969390723661,12.457988870072931 L0.7093159136634317,12.479858610361891 L0.39421081188714985,12.493782367073281 L0.07885471426747323,12.499751274886945 L-0.2365515905127286,12.497761533371722 L-0.5518072818034554,12.487814409405223 L-0.8667116348510109,12.469916236367183 L-1.1810641486003792,12.444078410106988 L-1.4946646733551738,12.41031738168787 L-1.8073135382138708,12.368654646912447 L-2.1188116782011943,12.31911673263624 L-2.4289607610137067,12.261735179877917 L-2.737563313298898,12.196546523736954 L-3.044422846387384,12.123592270131594 L-3.3493439813981487,12.042918869371826 L-3.6521325736371777,11.95457768658426 L-3.952595836210281,11.85862496900771 L-4.250542462771403,11.755121810180327 L-4.545782749328247,11.64413411104105 L-4.838128715027694,11.525732537970178 L-5.12739422184407,11.399992477795767 L-5.413395093094091,11.266993989794475 L-5.695949230703003,11.126821754717465 L-5.9748767311472735,10.979565020873771 L-6.2499999999999885,10.82531754730549 L-6.521143865006046,10.664177544090965 L-6.788135687615145,10.49624760981398 L-7.050805472901535,10.321634666238761 L-7.3089859778005835,10.140449890232407 L-7.562512817593199,9.95280864297805 L-7.811224570570338,9.75883039652387 L-8.054962880810963,9.558638657714683 L-8.293572559007977,9.352360889554568 L-8.526901681277975,9.140128430050577 L-8.754801685891888,8.922076408589232 L-8.977127467864914,8.698343659899008 L-9.193737471345534,8.469072635653625 L-9.404493779744774,8.234409313772414 L-9.609262203548338,7.994503105475495 L-9.807912365755692,7.749506760152972 L-10.00031778489169,7.499576268108682 L-10.186355955537934,7.244870761240454 L-10.365908426332519,6.9855524117201 L-10.538860875388568,6.721786328737631 L-10.705103183083516,6.453740453375484 L-10.864529502172763,6.18158545167966 L-11.017038325183124,5.9054946059958615 L-11.162532549043085,5.625643704639822 L-11.300919536908795,5.342210929972076 L-11.432111177146355,5.05537674494843 L-11.556023939432917,4.765323778218361 L-11.67257892794082,4.472236707844515 L-11.781701931570923,4.176302143717333 L-11.883323471203163,3.8777085087396697 L-11.977378843934224,3.5766459188570647 L-12.063808164274178,3.2733060620100387 L-12.142556402275858,2.967882076085502 L-12.213573418572663,2.6605684259449656 L-12.276813996302543,2.35156077960787 L-12.332237869897773,2.041055883668851 L-12.379809750722227,1.729251438028279 L-12.419499349539818,1.4163459700158145 L-12.451281395799793,1.1025387079871458 L-12.475135653726609,0.7880294544743729 L-12.491046935204146,0.47301845897081374 L-12.499005109446049,0.15770629043122783 L-12.499005109446047,-0.15770629043136353 L-12.49104693520414,-0.4730184589709493 L-12.4751356537266,-0.7880294544745082 L-12.45128139579978,-1.1025387079872808 L-12.419499349539803,-1.4163459700159493 L-12.379809750722208,-1.7292514380284132 L-12.332237869897751,-2.041055883668985 L-12.276813996302518,-2.351560779608003 L-12.213573418572635,-2.6605684259450983 L-12.142556402275826,-2.9678820760856337 L-12.063808164274144,-3.27330606201017 L-11.977378843934185,-3.5766459188571944 L-11.88332347120312,-3.877708508739799 L-11.781701931570877,-4.176302143717462 L-11.672578927940771,-4.472236707844642 L-11.556023939432865,-4.765323778218486 L-11.4321111771463,-5.055376744948554 L-11.300919536908737,-5.3422109299721985 L-11.162532549043025,-5.625643704639942 L-11.01703832518306,-5.905494605995981 L-10.864529502172697,-6.181585451679778 L-10.705103183083445,-6.4537404533756 L-10.538860875388496,-6.721786328737744 L-10.365908426332442,-6.985552411720213 L-10.186355955537856,-7.244870761240565 L-10.00031778489161,-7.4995762681087905 L-9.807912365755607,-7.749506760153077 L-9.609262203548251,-7.994503105475599 L-9.404493779744683,-8.234409313772515 L-9.193737471345443,-8.469072635653724 L-8.97712746786482,-8.698343659899106 L-8.754801685891792,-8.922076408589326 L-8.526901681277877,-9.14012843005067 L-8.293572559007876,-9.352360889554658 L-8.054962880810864,-9.558638657714766 L-7.811224570570241,-9.758830396523948 L-7.562512817593103,-9.952808642978123 L-7.308985977800492,-10.140449890232475 L-7.050805472901446,-10.321634666238824 L-6.788135687615059,-10.496247609814036 L-6.521143865005964,-10.664177544091014 L-6.249999999999909,-10.825317547305534 L-5.974876731147198,-10.979565020873814 L-5.695949230702932,-11.126821754717502 L-5.413395093094024,-11.266993989794507 L-5.127394221844007,-11.399992477795793 L-4.838128715027634,-11.525732537970203 L-4.545782749328189,-11.644134111041073 L-4.250542462771346,-11.755121810180349 L-3.9525958362102265,-11.85862496900773 L-3.652132573637125,-11.954577686584276 L-3.3493439813980985,-12.04291886937184 L-3.044422846387336,-12.123592270131606 L-2.7375633132988524,-12.196546523736963 L-2.428960761013663,-12.261735179877926 L-2.118811678201154,-12.319116732636248 L-1.8073135382138326,-12.368654646912452 L-1.4946646733551383,-12.410317381687875 L-1.1810641486003466,-12.444078410106991 L-0.8667116348509807,-12.469916236367185 L-0.551807281803428,-12.487814409405223 L-0.2365515905127039,-12.497761533371722 L0.07885471426749516,-12.499751274886945 L0.3942108118871689,-12.493782367073281 L0.7093159136634479,-12.47985861036189 L1.0239693907236747,-12.45798887007293 L1.337970901746733,-12.428187070770983 L1.6511205205212913,-12.390472187399215 L1.963218863239745,-12.344868233197941 L2.274067215446806,-12.291404244415283 L2.583467658561914,-12.23011426181966 L2.891223195894912,-12.161037309025872 L3.1971378780747433,-12.084217367648586 L3.5010169278113277,-11.999703349299038 L3.8026668639111536,-11.90754906444278 L4.101895624467651,-11.807813188138317 L4.398512689147895,-11.700559222678416 L4.6923292004977775,-11.585855457157917 L4.983158084188421,-11.463774923993736 L5.270814168127272,-11.334395352424796 L5.555114300358017,-11.197799119021463 L5.83587746567429,-11.054073195236 L6.11292490087288,-10.903309092027442 L6.386080208573093,-10.745602801596151 L6.6551694695297785,-10.581054736265129 L6.920021353368513,-10.409769664547042 L7.180467227672442,-10.23185664443761 L7.436341265351317,-10.047428953977887 L7.687480550224371,-9.85660401912961 L7.933725180749798,-9.659503339009547 L8.174918371834814,-9.456252408530434 L8.410906554661432,-9.24698063849781 L8.641539474464453,-9.03182127321354 L8.86667028619936,-8.810911305638559 L9.086155648039238,-8.584391390168825 L9.299855812641177,-8.352405753080014 L9.507634716124048,-8.115102100697982 L9.70936006470101,-7.872631525353464 L9.904903418911564,-7.6251484091809 L10.094140275399562,-7.372810325822606 L10.276950146185063,-7.115777940100912 L10.453216635379588,-6.854214905722132 L10.622827513295908,-6.588287761077491 L10.785674787905226,-6.318165823207361 L10.94165477359618,-6.044021079996321 L11.090668157191963,-5.766028080667681 L11.232620061183471,-5.484363824647179 L11.36742010413826,-5.199207648866635 L11.494982458246813,-4.910741113579297 L11.615225903969515,-4.61914788675959 L11.728073881749488,-4.324613627160867 L11.83345454075844,-4.027325866105629 L11.931300784644396,-3.72747388808346 L12.021550314252268,-3.4252486102327238 L12.104145667290013,-3.1208424607827365 L12.179034254915132,-2.8144492565338304 L12.246168395218241,-2.506264079453297 L12.305505343582356,-2.1964831524658024 L12.357007319898582,-1.885303714517341 L12.400641532620895,-1.572923894992294 L12.43638019964466,-1.2595425875635298 L12.464200565995636,-0.9453593235558894 L12.484084918318162,-0.630574144903668 L12.49602059615334,-0.31538747678299367 L12.5,-1.91799531184145e-13 " />
			<path d="M10.500000000000059,4.2632564145606015e-16 L10.496013223762048,0.2893205948657014 L10.484055922549878,0.5784214837365875 L10.464137176570093,0.8670831274594899 L10.436272111838528,1.155086320437833 L10.400481888693843,1.442212357093286 L10.356793685728643,1.7282431979477064 L10.305240679150446,2.012961635199254 L10.245862017588133,2.296151457666946 L10.178702792363028,2.5775976149783917 L10.103814003247187,2.8570863808760176 L10.021252519734887,3.134405515517793 L9.931081037856723,3.409344426649177 L9.833368032569133,3.6816943295239213 L9.728187705755477,3.9512484054522723 L9.61561992987816,4.217801958856179 L9.495750187324623,4.481152572712238 L9.368669505493196,4.741100262264339 L9.234474387668193,4.997447626889272 L9.093266739736665,5.249999999999999 L8.945153792802493,5.498565596872718 L8.790248021756609,5.742955660285482 L8.628667059865133,5.982984603857795 L8.46053360944033,6.21847015298229 L8.285975348662191,6.449233483241512 L8.105124834621428,6.675099356204664 L7.91811940265747,6.895896252501211 L7.725101062067942,7.111456502070282 L7.526216388268798,7.321616411486952 L7.321616411487011,7.526216388268738 L7.111456502070341,7.725101062067882 L6.895896252501271,7.91811940265741 L6.675099356204724,8.10512483462137 L6.449233483241572,8.285975348662133 L6.218470152982349,8.46053360944027 L5.9829846038578545,8.628667059865075 L5.742955660285542,8.79024802175655 L5.498565596872778,8.945153792802435 L5.25000000000006,9.093266739736606 L4.997447626889333,9.234474387668135 L4.741100262264398,9.368669505493136 L4.481152572712299,9.495750187324562 L4.217801958856239,9.615619929878102 L3.9512484054523327,9.728187705755419 L3.6816943295239812,9.833368032569075 L3.4093444266492368,9.931081037856664 L3.1344055155178534,10.021252519734828 L2.857086380876078,10.103814003247129 L2.5775976149784516,10.17870279236297 L2.296151457667006,10.245862017588074 L2.012961635199314,10.305240679150387 L1.7282431979477662,10.356793685728585 L1.442212357093346,10.400481888693784 L1.155086320437893,10.43627211183847 L0.8670831274595495,10.464137176570034 L0.5784214837366473,10.48405592254982 L0.289320594865761,10.49601322376199 L6.004431227909675e-14,10.5 L-0.28932059486564093,10.49601322376199 L-0.5784214837365271,10.48405592254982 L-0.8670831274594294,10.464137176570034 L-1.1550863204377726,10.43627211183847 L-1.442212357093226,10.400481888693784 L-1.7282431979476458,10.356793685728585 L-2.0129616351991935,10.305240679150387 L-2.296151457666886,10.245862017588074 L-2.5775976149783313,10.17870279236297 L-2.8570863808759577,10.103814003247129 L-3.134405515517733,10.021252519734828 L-3.409344426649117,9.931081037856664 L-3.6816943295238613,9.833368032569075 L-3.9512484054522123,9.728187705755419 L-4.2178019588561195,9.615619929878102 L-4.481152572712179,9.495750187324564 L-4.741100262264276,9.368669505493138 L-4.997447626889208,9.234474387668138 L-5.249999999999934,9.09326673973661 L-5.49856559687265,8.945153792802438 L-5.742955660285412,8.790248021756558 L-5.982984603857724,8.628667059865082 L-6.218470152982218,8.46053360944028 L-6.4492334832414375,8.285975348662145 L-6.675099356204588,8.105124834621382 L-6.895896252501134,7.9181194026574255 L-7.111456502070204,7.725101062067899 L-7.321616411486873,7.526216388268757 L-7.526216388268657,7.321616411486974 L-7.725101062067801,7.111456502070305 L-7.918119402657329,6.895896252501237 L-8.105124834621288,6.675099356204692 L-8.28597534866205,6.449233483241543 L-8.460533609440187,6.218470152982324 L-8.62866705986499,5.982984603857831 L-8.790248021756467,5.742955660285521 L-8.94515379280235,5.498565596872759 L-9.093266739736523,5.250000000000044 L-9.234474387668051,4.997447626889319 L-9.368669505493052,4.741100262264388 L-9.49575018732448,4.481152572712291 L-9.61561992987802,4.217801958856234 L-9.728187705755337,3.9512484054523305 L-9.833368032568995,3.6816943295239817 L-9.931081037856584,3.4093444266492403 L-10.02125251973475,3.134405515517859 L-10.10381400324705,2.8570863808760865 L-10.178702792362893,2.5775976149784627 L-10.245862017588,2.296151457667021 L-10.305240679150314,2.0129616351993307 L-10.356793685728514,1.728243197947786 L-10.400481888693715,1.4422123570933687 L-10.436272111838402,1.1550863204379178 L-10.464137176569968,0.8670831274595772 L-10.484055922549757,0.5784214837366775 L-10.49601322376193,0.2893205948657936 L-10.499999999999941,9.497093884907393e-14 L-10.496013223761933,-0.28932059486560374 L-10.484055922549768,-0.5784214837364877 L-10.464137176569983,-0.8670831274593879 L-10.436272111838422,-1.155086320437729 L-10.40048188869374,-1.4422123570931804 L-10.356793685728544,-1.7282431979475985 L-10.30524067915035,-2.0129616351991446 L-10.24586201758804,-2.296151457666835 L-10.17870279236294,-2.577597614978279 L-10.103814003247102,-2.857086380875904 L-10.021252519734805,-3.134405515517678 L-9.931081037856645,-3.4093444266490605 L-9.83336803256906,-3.6816943295238036 L-9.728187705755408,-3.951248405452154 L-9.615619929878097,-4.217801958856061 L-9.495750187324562,-4.481152572712119 L-9.36866950549314,-4.741100262264219 L-9.234474387668142,-4.997447626889152 L-9.093266739736617,-5.24999999999988 L-8.945153792802449,-5.498565596872598 L-8.79024802175657,-5.742955660285363 L-8.628667059865098,-5.982984603857676 L-8.460533609440299,-6.218470152982171 L-8.285975348662166,-6.449233483241394 L-8.105124834621407,-6.675099356204546 L-7.918119402657452,-6.895896252501095 L-7.725101062067928,-7.111456502070166 L-7.52621638826879,-7.321616411486837 L-7.321616411487008,-7.526216388268626 L-7.111456502070342,-7.725101062067771 L-6.895896252501277,-7.918119402657302 L-6.6750993562047345,-8.105124834621263 L-6.449233483241587,-8.285975348662028 L-6.218470152982371,-8.460533609440168 L-5.982984603857879,-8.628667059864974 L-5.742955660285571,-8.790248021756453 L-5.498565596872811,-8.94515379280234 L-5.250000000000098,-9.093266739736514 L-4.997447626889375,-9.234474387668048 L-4.741100262264445,-9.368669505493054 L-4.481152572712349,-9.495750187324482 L-4.2178019588562945,-9.615619929878028 L-3.951248405452392,-9.728187705755346 L-3.6816943295240447,-9.833368032569005 L-3.4093444266493043,-9.9310810378566 L-3.134405515517925,-10.021252519734768 L-2.857086380876153,-10.103814003247075 L-2.5775976149785302,-10.17870279236292 L-2.2961514576670887,-10.245862017588028 L-2.0129616351993995,-10.305240679150348 L-1.7282431979478554,-10.356793685728551 L-1.4422123570934386,-10.400481888693754 L-1.1550863204379884,-10.436272111838447 L-0.8670831274596481,-10.464137176570016 L-0.5784214837367486,-10.484055922549809 L-0.2893205948658649,-10.496013223761985 L-1.6634840776354426e-13,-10.5 L0.2893205948655324,-10.496013223761995 L0.5784214837364166,-10.484055922549832 L0.8670831274593169,-10.464137176570054 L1.1550863204376585,-10.436272111838495 L1.4422123570931102,-10.400481888693816 L1.728243197947529,-10.356793685728624 L2.012961635199076,-10.305240679150435 L2.296151457666767,-10.245862017588127 L2.577597614978212,-10.17870279236303 L2.8570863808758378,-10.103814003247196 L3.1344055155176123,-10.021252519734903 L3.409344426648996,-9.931081037856746 L3.6816943295237414,-9.833368032569165 L3.951248405452093,-9.728187705755515 L4.2178019588560005,-9.615619929878207 L4.481152572712061,-9.495750187324676 L4.741100262264161,-9.368669505493257 L4.997447626889097,-9.234474387668262 L5.249999999999827,-9.093266739736741 L5.498565596872545,-8.945153792802577 L5.742955660285313,-8.7902480217567 L5.982984603857627,-8.628667059865231 L6.218470152982126,-8.460533609440436 L6.4492334832413505,-8.285975348662305 L6.6750993562045045,-8.10512483462155 L6.895896252501056,-7.918119402657599 L7.111456502070129,-7.725101062068077 L7.321616411486803,-7.52621638826894 L7.526216388268593,-7.321616411487161 L7.725101062067742,-7.1114565020704985 L7.918119402657275,-6.895896252501435 L8.105124834621238,-6.675099356204895 L8.285975348662006,-6.44923348324175 L8.46053360944015,-6.218470152982535 L8.628667059864958,-5.982984603858047 L8.790248021756438,-5.74295566028574 L8.94515379280233,-5.498565596872982 L9.093266739736508,-5.250000000000272 L9.234474387668044,-4.99744762688955 L9.368669505493052,-4.741100262264622 L9.495750187324486,-4.481152572712528 L9.615619929878031,-4.217801958856475 L9.728187705755355,-3.951248405452573 L9.83336803256902,-3.681694329524227 L9.931081037856616,-3.4093444266494877 L10.021252519734787,-3.1344055155181088 L10.103814003247097,-2.8570863808763387 L10.178702792362946,-2.5775976149787163 L10.24586201758806,-2.296151457667276 L10.305240679150382,-2.0129616351995874 L10.356793685728586,-1.7282431979480437 L10.400481888693797,-1.4422123570936276 L10.43627211183849,-1.1550863204381778 L10.464137176570063,-0.8670831274598378 L10.48405592254986,-0.5784214837369385 L10.49601322376204,-0.28932059486605505 L10.500000000000059,-3.5652862209710335e-13 " />

       </g>
    </g>
    
</svg>
