<?xml version="1.0" encoding="UTF-8" standalone="no"?>
<svg
   xmlns:svg="http://www.w3.org/2000/svg"
   xmlns="http://www.w3.org/2000/svg"
   width="800.0"
   height="800.0"

>
    <g transform="scale(12.736910623160103, -12.736910623160103)   translate(19.14047897354844,-11.01833439622573)" stroke-width="0.07851197433871088"  fill="none">
       <!-- hidden lines -->
       <g  stroke="rgb(180,180,180)" fill="none" stroke-dasharray="0.07851197433871088,0.07851197433871088" >

       </g>

       <!-- solid lines -->
       <g  stroke="rgb(40,40,40)" fill="none">
			<path d="M-11.313708498984758,5.570484990582333 L-11.587953327223467,5.4321007195127615 L-11.855218005679351,5.290444354089078 L-12.115341544103757,5.145601222808954 L-12.368167253803795,4.997658573758632 L-12.613542842025703,4.846705522057968 L-12.85132050369032,4.692832996180809 L-13.08135701042534,4.5361336831830785 L-13.303513796840724,4.376701972871562 L-13.517657043995312,4.214633900947016 L-13.723657760004352,4.050027091155852 L-13.921391857739382,3.8829806964852422 L-14.110740229573677,3.7135953394370698 L-14.291588819128242,3.541973051416695 L-14.46382868997509,3.3682172112730493 L-14.627356091256488,3.1924324830270865 L-14.782072520180584,3.0147247528260874 L-14.856097287571442,2.925183169906809 L-14.927884781355818,2.8352010651618054 L-14.997424190601198,2.7447919895650776 L-15.064705042928328,2.653969558390866 L-15.129717206088335,2.5627474491632287 L-15.192450889488581,2.471139399596266 L-15.252896645667098,2.3791592055252897 L-15.311045371715338,2.286820718829203 L-15.366888310649045,2.1941378453444482 L-15.420417052727034,2.101124542770851 L-15.471623536717631,2.007794818569656 L-15.5205000511127,1.9141627278540414 L-15.56703923528896,1.820242371272449 L-15.611234080616455,1.7260478928851202 L-15.653077931514039,1.631593478034033 L-15.692564486451685,1.5368933512066196 L-15.72968779889946,1.4419617738936523 L-15.764442278223058,1.346813042441496 L-15.796822690525733,1.2514614858991087 L-15.826824159436496,1.155921463860182 L-15.85444216684448,1.0602073643006185 L-15.87967255357936,0.9643336014117332 L-15.902511520037697,0.8683146134295732 L-15.92295562675515,0.7721648604605498 L-15.941001794924448,0.6758988223037866 L-15.956647306859043,0.5795309962705287 L-15.969889806402387,0.48307589500091513 L-15.980727299282758,0.38654804427841416 L-15.989158153413591,0.28996198084228025 L-15.995181099139268,0.19333225019838857 L-15.998795229426312,0.09667340442874886 L-16.0,7.18989298849013e-14 " />
			<path d="M16.0,-9.64759042752737e-16 L15.997289308733174,0.14500555700220116 L15.989158153413593,0.28996198084227387 L15.975609289172716,0.4348201550061991 L15.956647306859043,0.579530996270526 L15.932278631482557,0.7240454713335471 L15.902511520037697,0.8683146134295773 L15.867356058705592,1.0122895389206723 L15.826824159436496,1.1559214638601827 L15.78092955591358,1.29916172052254 L15.729687798899462,1.4419617738936494 L15.673116250967048,1.58427323811631 L15.611234080616457,1.7260478928851173 L15.544062255780029,1.8672376997852538 L15.471623536717635,2.00779481856965 L15.393942468304667,2.1476716233690123 L15.311045371715343,2.286820718829193 L15.222960335504135,2.4251949561704587 L15.129717206088344,2.562747449163216 L15.031347577635042,2.699431590014782 L14.927884781355825,2.835201065161796 L14.819363874212984,2.9700098709629317 L14.705821627040924,3.103812329286617 L14.587296512086878,3.2365631029884443 L14.463828689975095,3.3682172112730435 L14.335459996098967,3.498730044935222 L14.202233926445667,3.62805738147518 L14.064195622858138,3.7561554000827 L13.921391857739383,3.8829806964852396 L13.773871018204277,4.008490297654878 L13.621683089684245,4.132641676369137 L13.464879638990379,4.255392765620764 L13.303513796840727,4.37670197287156 L13.137640239857676,4.496528194145436 L12.967315172041522,4.614830827955945 L12.792596305726487,4.7315697890635535 L12.613542842025707,4.846705522057966 L12.430215450771724,4.960199014760938 L12.242676249959345,5.072011811445033 L12.050988784697802,5.182106025863811 L11.85521800567935,5.290444354089079 L11.65543024717161,5.396990087150815 L11.451693204541105,5.501707123475506 L11.24407591131561,5.604559981118667 L11.032648715793073,5.705513809787426 L10.817483257205057,5.804534402649067 L10.598652441442752,5.9015882079215505 L10.376230416353806,5.996642340242082 L10.150292546618335,6.08966459180987 L9.920915388212642,6.1806234432992895 L9.688176662469221,6.269488074539802 L9.452155229741999,6.356228374958925 L9.212931062685534,6.4408149537848045 L8.970585219157384,6.523219150004876 L8.725199814752749,6.60341304207726 L8.476857994980719,6.681369457391592 L8.225643907091548,6.757061981476102 L7.971642671564509,6.8304649669477895 L7.714940353265961,6.901553542202694 L7.455623932287454,6.9703036198433015 L7.193781274473711,7.036691904840228 L6.929501101650447,7.1006959024254295 L6.662872961562209,7.162293925714248 L6.39398719753036,7.22146510305371 L6.122934917841445,7.278189385094604 L5.849807964876389,7.332447551584939 L5.5746988839909575,7.384221217882456 L5.297700892158025,7.433492841184021 L5.018907846382277,7.480245726469758 L4.7384142118980055,7.52446403215994 L4.456315030160872,7.566132775482685 L4.172705886644428,7.605237837550661 L3.8876828784522397,7.64176596814509 L3.6013425817567004,7.675704790205397 L3.3137820190755094,7.707042804023011 L3.0250986263969093,7.735769391137888 L2.735390220164827,7.761874817936421 L2.4447549641351,7.78535023894956 L2.153291336114022,7.806187699849961 L1.8610980945904763,7.8243801401472135 L1.5682742452729814,7.8399213955801885 L1.2749190075429053,7.8528062002057135 L0.9811317808353581,7.8630301881828695 L0.6870121109590714,7.870589895252289 L0.39265965636661243,7.87548275990998 L0.09817415438648487,7.877707124275255 L-0.1963446125715081,7.877262234652483 L-0.49079685082617786,7.874148241786465 L-0.7850827892386826,7.868366200811361 L-1.079102713018622,7.859918070893166 L-1.3727569975110376,7.84880671456588 L-1.6659461419528752,7.835035896761571 L-1.9585708031874496,7.818610283534687 L-2.2505318293255665,7.7995354404810175 L-2.5417302933417645,7.777817830851871 L-2.832067526594364,7.7534648133640935 L-3.1214451522580386,7.726484639706663 L-3.409765118657451,7.696886451744718 L-3.6969297324907293,7.6646802784219625 L-3.9828416919315166,7.62987703236249 L-4.267404119598371,7.592488506173197 L-4.550520595380348,7.552527368448009 L-4.83209518910765,7.5100071594753075 L-5.112032493056255,7.464942286649983 L-5.390237654275514,7.417348019591687 L-5.666616406727828,7.367240484970929 L-5.941075103229386,7.314636661044766 L-6.2135207471812075,7.259554371903967 L-6.483861024079827,7.202012281433547 L-6.752004332796787,7.142029886988771 L-7.017859816616436,7.079627512788737 L-7.281337394021498,7.014826303029792 L-7.542347789215961,6.947648214721106 L-7.800802562374976,6.8781160102448435 L-8.056614139611485,6.806253249643432 L-8.309695842649438,6.7320842826365705 L-8.559961918193551,6.655634240370653 L-8.807327566985663,6.576929026903416 L-9.0517089725378,6.495995310426705 L-9.293023329532224,6.412860514230331 L-9.531188871878927,6.327552807410046 L-9.766124900420946,6.240101095322832 L-9.997751810278178,6.150535009792719 L-10.22599111782041,6.058884899070438 L-10.450765487260428,5.96518181755033 L-10.671998756858203,5.869457515247989 L-10.889615964727254,5.771744427042201 L-11.10354337423447,5.672075661684821 L-11.313708498984658,5.570484990582382 " />
			<path d="M-11.313708498984758,-3.1333978072025594 L-11.587953327223467,-3.271782078272131 L-11.855218005679351,-3.4134384436958145 L-12.115341544103757,-3.558281574975939 L-12.368167253803795,-3.7062242240262604 L-12.613542842025703,-3.857177275726925 L-12.85132050369032,-4.011049801604083 L-13.08135701042534,-4.167749114601814 L-13.303513796840724,-4.327180824913331 L-13.517657043995312,-4.489248896837877 L-13.723657760004352,-4.653855706629041 L-13.921391857739382,-4.82090210129965 L-14.110740229573677,-4.990287458347822 L-14.291588819128242,-5.161909746368197 L-14.46382868997509,-5.335665586511843 L-14.627356091256488,-5.511450314757806 L-14.782072520180584,-5.6891580449588055 L-14.856097287571442,-5.778699627878083 L-14.927884781355818,-5.868681732623087 L-14.997424190601198,-5.959090808219814 L-15.064705042928328,-6.0499132393940265 L-15.129717206088335,-6.141135348621663 L-15.192450889488581,-6.232743398188626 L-15.252896645667098,-6.324723592259603 L-15.311045371715338,-6.41706207895569 L-15.366888310649045,-6.509744952440444 L-15.420417052727034,-6.602758255014042 L-15.471623536717631,-6.696087979215236 L-15.5205000511127,-6.789720069930851 L-15.56703923528896,-6.883640426512444 L-15.611234080616455,-6.9778349048997725 L-15.653077931514039,-7.072289319750859 L-15.692564486451685,-7.166989446578273 L-15.72968779889946,-7.26192102389124 L-15.764442278223058,-7.357069755343397 L-15.796822690525733,-7.452421311885784 L-15.826824159436496,-7.547961333924711 L-15.85444216684448,-7.643675433484274 L-15.87967255357936,-7.73954919637316 L-15.902511520037697,-7.835568184355319 L-15.92295562675515,-7.9317179373243425 L-15.941001794924448,-8.027983975481106 L-15.956647306859043,-8.124351801514363 L-15.969889806402387,-8.220806902783977 L-15.980727299282758,-8.31733475350648 L-15.989158153413591,-8.413920816942612 L-15.995181099139268,-8.510550547586504 L-15.998795229426312,-8.607209393356143 L-16.0,-8.703882797784821 " />
			<path d="M-16.0,-8.703882797784892 L-15.998106636535178,-8.825072902440555 L-15.992426994243862,-8.946234324981658 L-15.982962417329453,-9.067338390081858 L-15.969715145777469,-9.188356435989613 L-15.952688314825407,-9.309259821311588 L-15.93188595422072,-9.430019931791216 L-15.907312987267103,-9.550608187080847 L-15.87897522965929,-9.670996047505874 L-15.846879388106641,-9.791155020819227 L-15.811033058745885,-9.911056668944656 L-15.771444725343311,-10.030672614707168 L-15.728123757286934,-10.149974548549071 L-15.681080407369024,-10.268934235230017 L-15.630325809359583,-10.387523520509433 L-15.575871975371303,-10.505714337809811 L-15.517731793016658,-10.623478714859235 L-15.455919022357788,-10.740788780311581 L-15.390448292649893,-10.857616770342855 L-15.321335098878931,-10.973935035222054 L-15.248595798094405,-11.089716045855052 L-15.172247605538134,-11.204932400299919 L-15.092308590569917,-11.319556830252147 L-15.008797672391049,-11.433562207498255 L-14.921734615566704,-11.546921550336236 L-14.83114002534825,-11.659608029961321 L-14.737035342796585,-11.771594976815575 L-14.63944283970769,-11.882855886899781 L-14.53838561334154,-11.993364428046167 L-14.433887580955663,-12.103094446150433 L-14.325973474144645,-12.212019971361673 L-14.21466883298688,-12.320115224228658 L-14.100000000000005,-12.427354621801074 " />
			<path d="M14.1,-12.42735462180108 L14.214668832986879,-12.32011522422866 L14.325973474144641,-12.212019971361675 L14.433887580955663,-12.103094446150433 L14.53838561334154,-11.993364428046167 L14.639442839707689,-11.882855886899783 L14.737035342796586,-11.771594976815575 L14.83114002534825,-11.659608029961321 L14.921734615566704,-11.546921550336236 L15.008797672391049,-11.433562207498257 L15.092308590569916,-11.31955683025215 L15.172247605538134,-11.204932400299919 L15.248595798094405,-11.089716045855052 L15.321335098878931,-10.973935035222055 L15.390448292649895,-10.857616770342853 L15.455919022357788,-10.740788780311581 L15.517731793016658,-10.623478714859235 L15.575871975371303,-10.505714337809813 L15.630325809359583,-10.387523520509435 L15.681080407369024,-10.268934235230017 L15.728123757286934,-10.149974548549073 L15.77144472534331,-10.03067261470717 L15.811033058745885,-9.911056668944656 L15.846879388106641,-9.791155020819227 L15.87897522965929,-9.670996047505874 L15.907312987267103,-9.550608187080847 L15.93188595422072,-9.430019931791218 L15.952688314825407,-9.309259821311588 L15.969715145777469,-9.188356435989613 L15.982962417329453,-9.067338390081858 L15.992426994243862,-8.946234324981656 L15.998106636535178,-8.825072902440553 L16.0,-8.703882797784928 " />
			<path d="M16.0,-8.703882797784894 L15.997289308733174,-8.55887724078269 L15.989158153413593,-8.41392081694262 L15.975609289172716,-8.269062642778694 L15.956647306859043,-8.124351801514367 L15.932278631482557,-7.979837326451346 L15.902511520037697,-7.835568184355315 L15.867356058705592,-7.69159325886422 L15.826824159436496,-7.54796133392471 L15.78092955591358,-7.404721077262352 L15.729687798899462,-7.261921023891243 L15.673116250967048,-7.119609559668582 L15.611234080616457,-6.977834904899775 L15.544062255780029,-6.8366450979996385 L15.471623536717635,-6.696087979215243 L15.393942468304667,-6.55621117441588 L15.311045371715343,-6.417062078955699 L15.222960335504135,-6.278687841614434 L15.129717206088344,-6.141135348621677 L15.031347577635042,-6.00445120777011 L14.927884781355825,-5.868681732623097 L14.819363874212984,-5.733872926821961 L14.705821627040924,-5.600070468498275 L14.587296512086878,-5.467319694796448 L14.463828689975095,-5.335665586511849 L14.335459996098967,-5.205152752849671 L14.202233926445667,-5.075825416309712 L14.064195622858138,-4.9477273977021925 L13.921391857739383,-4.820902101299653 L13.773871018204277,-4.695392500130015 L13.621683089684245,-4.571241121415755 L13.464879638990379,-4.448490032164129 L13.303513796840727,-4.327180824913333 L13.137640239857676,-4.207354603639456 L12.967315172041522,-4.089051969828947 L12.792596305726487,-3.972313008721339 L12.613542842025707,-3.8571772757269267 L12.430215450771724,-3.743683783023955 L12.242676249959345,-3.6318709863398597 L12.050988784697802,-3.5217767719210817 L11.85521800567935,-3.4134384436958136 L11.65543024717161,-3.3068927106340773 L11.451693204541105,-3.2021756743093865 L11.24407591131561,-3.0993228166662252 L11.032648715793073,-2.998368987997466 L10.817483257205057,-2.899348395135825 L10.598652441442752,-2.802294589863342 L10.376230416353806,-2.7072404575428104 L10.150292546618335,-2.614218205975022 L9.920915388212642,-2.523259354485603 L9.688176662469221,-2.4343947232450907 L9.452155229741999,-2.3476544228259675 L9.212931062685534,-2.263067844000088 L8.970585219157384,-2.1806636477800163 L8.725199814752749,-2.100469755707633 L8.476857994980719,-2.0225133403933 L8.225643907091548,-1.9468208163087901 L7.971642671564509,-1.873417830837103 L7.714940353265961,-1.8023292555821984 L7.455623932287454,-1.733579177941591 L7.193781274473711,-1.6671908929446646 L6.929501101650447,-1.603186895359463 L6.662872961562209,-1.541588872070644 L6.39398719753036,-1.4824176947311827 L6.122934917841445,-1.425693412690289 L5.849807964876389,-1.3714352461999537 L5.5746988839909575,-1.3196615799024363 L5.297700892158025,-1.2703899566008712 L5.018907846382277,-1.2236370713151343 L4.7384142118980055,-1.1794187656249528 L4.456315030160872,-1.1377500223022077 L4.172705886644428,-1.0986449602342319 L3.8876828784522397,-1.0621168296398027 L3.6013425817567004,-1.0281780075794957 L3.3137820190755094,-0.9968399937618813 L3.0250986263969093,-0.9681134066470047 L2.735390220164827,-0.9420079798484711 L2.4447549641351,-0.9185325588353326 L2.153291336114022,-0.8976950979349319 L1.8610980945904763,-0.879502657637679 L1.5682742452729814,-0.863961402204704 L1.2749190075429053,-0.851076597579179 L0.9811317808353581,-0.840852609602023 L0.6870121109590714,-0.8332929025326035 L0.39265965636661243,-0.8284000378749123 L0.09817415438648487,-0.8261756735096375 L-0.1963446125715081,-0.8266205631324093 L-0.49079685082617786,-0.829734555998427 L-0.7850827892386826,-0.8355165969735312 L-1.079102713018622,-0.8439647268917261 L-1.3727569975110376,-0.8550760832190125 L-1.6659461419528752,-0.8688469010233213 L-1.9585708031874496,-0.8852725142502056 L-2.2505318293255665,-0.9043473573038749 L-2.5417302933417645,-0.9260649669330219 L-2.832067526594364,-0.950417984420799 L-3.1214451522580386,-0.9773981580782296 L-3.409765118657451,-1.0069963460401743 L-3.6969297324907293,-1.03920251936293 L-3.9828416919315166,-1.0740057654224024 L-4.267404119598371,-1.1113942916116955 L-4.550520595380348,-1.151355429336883 L-4.83209518910765,-1.193875638309585 L-5.112032493056255,-1.2389405111349099 L-5.390237654275514,-1.2865347781932055 L-5.666616406727828,-1.3366423128139635 L-5.941075103229386,-1.3892461367401268 L-6.2135207471812075,-1.4443284258809257 L-6.483861024079827,-1.501870516351345 L-6.752004332796787,-1.5618529107961212 L-7.017859816616436,-1.6242552849961553 L-7.281337394021498,-1.6890564947551008 L-7.542347789215961,-1.7562345830637867 L-7.800802562374976,-1.825766787540049 L-8.056614139611485,-1.8976295481414605 L-8.309695842649438,-1.971798515148322 L-8.559961918193551,-2.0482485574142393 L-8.807327566985663,-2.1269537708814763 L-9.0517089725378,-2.207887487358187 L-9.293023329532224,-2.291022283554561 L-9.531188871878927,-2.3763299903748463 L-9.766124900420946,-2.46378170246206 L-9.997751810278178,-2.5533477879921733 L-10.22599111782041,-2.644997898714455 L-10.450765487260428,-2.7387009802345625 L-10.671998756858203,-2.8344252825369036 L-10.889615964727254,-2.932138370742692 L-11.10354337423447,-3.0318071361000714 L-11.313708498984658,-3.1333978072025106 " />
			<path d="M-9.970205614730318,-3.7948928998342124 L-10.21188386961568,-3.916844038714272 L-10.447410867504928,-4.041678710743893 L-10.676644735741435,-4.169321720184502 L-10.899447392414594,-4.299696179660098 L-11.115684629535151,-4.432723556471309 L-11.325226193877095,-4.568323719900555 L-11.52794586543733,-4.706414989479805 L-11.723721533465888,-4.846914184191829 L-11.912435270020868,-4.989736672575335 L-12.093973401003835,-5.134796423703799 L-12.26822657463283,-5.282006059007273 L-12.435089827311803,-5.431276904905975 L-12.594462646856762,-5.582519046223931 L-12.746249033040547,-5.735641380350518 L-12.89035755541978,-5.890551672117272 L-13.02670140840914,-6.047156609356903 L-13.155198463569814,-6.2053618591110515 L-13.275771319080588,-6.365072124452942 L-13.388347346361812,-6.526191201890683 L-13.492858733824141,-6.688622039316658 L-13.589242527715697,-6.85226679446808 L-13.677440670043067,-7.017026893863519 L-13.75740003354325,-7.1828030921798804 L-13.829072453685548,-7.349495532034059 L-13.86178737278015,-7.433153984541112 L-13.892414757684069,-7.517003804133324 L-13.920949996025803,-7.601032363336303 L-13.947388790503412,-7.685227007758107 L-13.971727159531698,-7.769575057994973 L-13.99396143784181,-7.854063811540803 L-14.01408827703322,-7.938680544700081 L-14.032104646077975,-8.023412514504033 L-14.04800783177717,-8.10824696062968 L-14.061795439169531,-8.19317110732149 L-14.073465391892103,-8.278172165315336 L-14.08301593249293,-8.36323733376454 L-14.090445622695727,-8.448353802167633 L-14.09575334361648,-8.533508752297562 L-14.098938295931937,-8.618689360132057 L-14.1,-8.703882797784829 " />
			<path d="M14.1,-8.703882797784892 L14.09761120332111,-8.576096650676703 L14.090445622695729,-8.448353802167638 L14.078505686083457,-8.32069753618568 L14.061795439169531,-8.193171107321492 L14.040320543994003,-8.065817726172204 L14.01408827703322,-7.938680544700078 L13.983107526734303,-7.81180264161105 L13.947388790503412,-7.685227007758106 L13.906944171148842,-7.5589965315744045 L13.861787372780151,-7.433153984541114 L13.811933696164711,-7.307742006694895 L13.757400033543252,-7.182803092179883 L13.69820486290615,-7.058379574849138 L13.634368241732416,-6.934513613920388 L13.565911800193488,-6.811247179690951 L13.492858733824146,-6.688622039316666 L13.415233795663019,-6.566679742659677 L13.333063287865352,-6.445461608209809 L13.246375052790881,-6.325008709084366 L13.155198463569821,-6.2053618591110595 L13.059564414150191,-6.086561598998809 L12.959505308829815,-5.968648182601061 L12.855055051276562,-5.851661563276326 L12.746249033040552,-5.735641380350524 L12.633124121562215,-5.6206269456857285 L12.515718647680243,-5.50665723035989 L12.394072392643734,-5.393770851462014 L12.26822657463283,-5.2820060590072755 L12.13822383479252,-5.171400722976532 L12.004108222784241,-5.061992320484591 L11.865925181860272,-4.953817923081594 L11.723721533465891,-4.84691418419183 L11.577545461374577,-4.741317326694228 L11.427446495361592,-4.637063130648716 L11.273475494421467,-4.534186921172637 L11.115684629535155,-4.432723556471311 L10.954127365992582,-4.332707416026817 L10.788858445276672,-4.234172388948958 L10.619933866514938,-4.137151862492409 L10.447410867504926,-4.041678710743892 L10.271347905319981,-3.9477852834832374 L10.091804636501848,-3.8555033952221036 L9.908841896846882,-3.7648643144240674 L9.722521680792646,-3.675898752909724 L9.532907120411956,-3.5886368554504022 L9.340062464021425,-3.503108189554027 L9.144053054411792,-3.419341735446558 L8.944945306707407,-3.337365876252445 L8.74280668586239,-3.2572083883773946 L8.537705683801,-3.1788964320966926 L8.329711796210136,-3.10245654235234 L8.118895498991627,-3.0279146197620346 L7.905328224382444,-2.9552959218430956 L7.68908233675086,-2.8846250544543084 L7.470231108076758,-2.815925963458552 L7.248848693124427,-2.749221926609078 L7.025010104316223,-2.684535545662153 L6.798791186315627,-2.621888738718769 L6.570268590328318,-2.5613027327979836 L6.339519748129957,-2.5027980566444423 L6.106622845829457,-2.446394533772483 L5.871656797376696,-2.392111275749212 L5.63470121782363,-2.339966675718811 L5.395836396347773,-2.2899784021702736 L5.155143269047318,-2.2421633929506655 L4.912703391517031,-2.1965378495259786 L4.668598911214259,-2.153117231491475 L4.422912539624381,-2.111916251333419 L4.175727524235117,-2.0729488694439464 L3.9271276203292684,-2.0362282893907775 L3.677197062605402,-2.001766953443373 L3.4260205366360363,-1.9695765383570327 L3.173683150173092,-1.9396679514163875 L2.9202704043102927,-1.912051326739614 L2.6658681645122764,-1.88673602184463 L2.410562631520254,-1.8637306144784214 L2.1544403121440565,-1.8430428997105937 L1.8975879899504817,-1.824679887292115 L1.6400926958578572,-1.8086477992801617 L1.3820416786468148,-1.7949520679298523 L1.1235223753971852,-1.7835973338536082 L0.8646223818611594,-1.7745874444487386 L0.6054294227826817,-1.767925452593814 L0.3460313221730772,-1.763613615614223 L0.08651597355308979,-1.7616533945173245 L-0.1730286898286415,-1.7620454534973922 L-0.43251472479056924,-1.7647896597105701 L-0.691854208016589,-1.7698850833198811 L-0.9509592658476606,-1.7773299978102903 L-1.2097421040566019,-1.7871218805737117 L-1.4681150375959713,-1.7992574137637583 L-1.7259905203089398,-1.8137324854199495 L-1.9832811745931553,-1.8305421908609958 L-2.23989982100743,-1.8496808343466817 L-2.4957595078112833,-1.8711419310077861 L-2.7507735404273963,-1.8949182090433965 L-3.0048555108168786,-1.9210016121848605 L-3.257919326757455,-1.949383302425539 L-3.509879241014649,-1.9800536630154486 L-3.7606498803960644,-2.013002301719763 L-4.010146274678932,-2.0482180543400847 L-4.2582838854011165,-2.085688988497278 L-4.504978634505824,-2.1254024076745965 L-4.7501469328302965,-2.167344855519719 L-4.993705708428898,-2.211502120404262 L-5.235572434720896,-2.257859240239193 L-5.475665158453439,-2.306400507544523 L-5.713902527470347,-2.3571094747715797 L-5.950203818277168,-2.4099689598760383 L-6.1844889633932345,-2.4649610521398184 L-6.416678578481445,-2.522067118239889 L-6.6466939892465655,-2.5812678085619183 L-6.8744572580929475,-2.6425430637566247 L-7.099891210532621,-2.7058721215366184 L-7.322919461334817,-2.771233523711415 L-7.543466440408067,-2.8386051234582554 L-7.761457418406115,-2.9079640928262576 L-7.976818532048935,-2.9792869304713587 L-8.189476809150271,-3.0525494696194135 L-8.399360193343304,-3.1277268862547896 L-8.606397568495959,-3.204793707531647 L-8.810518782807645,-3.2837238204050596 L-9.011654672579237,-3.36449048047907 L-9.209737085648252,-3.4470663210686645 L-9.404698904481291,-3.5314233624726024 L-9.596474068915892,-3.617533021453954 L-9.784997598544125,-3.7053661209251443 L-9.97020561473023,-3.794892899834169 " />
			<path d="M-9.970205614730318,-10.757999138062129 L-10.21188386961568,-10.879950276942187 L-10.447410867504928,-11.004784948971809 L-10.676644735741435,-11.132427958412418 L-10.899447392414594,-11.262802417888015 L-11.115684629535151,-11.395829794699225 L-11.325226193877095,-11.53142995812847 L-11.52794586543733,-11.66952122770772 L-11.723721533465888,-11.810020422419743 L-11.912435270020868,-11.95284291080325 L-12.093973401003835,-12.097902661931714 L-12.26822657463283,-12.245112297235188 L-12.435089827311803,-12.39438314313389 L-12.594462646856762,-12.545625284451846 L-12.746249033040547,-12.698747618578434 L-12.89035755541978,-12.853657910345188 L-13.02670140840914,-13.01026284758482 L-13.155198463569814,-13.168468097338966 L-13.275771319080588,-13.328178362680857 L-13.388347346361812,-13.489297440118598 L-13.492858733824141,-13.651728277544574 L-13.589242527715697,-13.815373032695996 L-13.677440670043067,-13.980133132091433 L-13.75740003354325,-14.145909330407797 L-13.829072453685548,-14.312601770261974 L-13.86178737278015,-14.396260222769026 L-13.892414757684069,-14.48011004236124 L-13.920949996025803,-14.564138601564219 L-13.947388790503412,-14.648333245986022 L-13.971727159531698,-14.732681296222887 L-13.99396143784181,-14.817170049768718 L-14.01408827703322,-14.901786782927996 L-14.032104646077975,-14.986518752731948 L-14.04800783177717,-15.071353198857596 L-14.061795439169531,-15.156277345549405 L-14.073465391892103,-15.241278403543252 L-14.08301593249293,-15.326343571992455 L-14.090445622695727,-15.411460040395548 L-14.09575334361648,-15.496614990525478 L-14.098938295931937,-15.581795598359973 L-14.1,-15.666989036012744 " />
			<path d="M-14.1,-15.666989036012808 L-14.09840705096728,-15.771341150000012 L-14.0936285637963,-15.875669685604374 L-14.085665618187273,-15.979951069770593 L-14.074520013369492,-16.084161740097244 L-14.06019426769479,-16.18827815016071 L-14.042691618068517,-16.2922767748355 L-14.022016019218158,-16.39613411560976 L-13.99817214279977,-16.49982670589477 L-13.971165376342416,-16.6033311163272 L-13.941001822030843,-16.70662396006302 L-13.907688295326713,-16.809681898061726 L-13.87123232342862,-16.91248164435982 L-13.831642143571344,-17.01499997133228 L-13.78892670116463,-17.117213714940835 L-13.743095647771977,-17.2190997799679 L-13.694159338929863,-17.320635145234927 L-13.64212883180791,-17.421796868804062 L-13.587015882710512,-17.52256209316187 L-13.528832944420504,-17.622908050383998 L-13.467593163385438,-17.7228120672796 L-13.403310376747152,-17.82225157051434 L-13.335999109215267,-17.921204091710834 L-13.265674569785313,-18.019647272525415 L-13.192352648302263,-18.11755886969997 L-13.116049911870219,-18.21491676008783 L-13.036783601109063,-18.3116989456525 L-12.954571626258947,-18.407883558438105 L-12.869432563133461,-18.50344886551048 L-12.781385648922429,-18.598373273867715 L-12.690450777845259,-18.6926353353191 L-12.596648496655838,-18.78621375133136 L-12.500000000000002,-18.87908737784105 " />
			<path d="M12.499999999999998,-18.879087377841053 L12.596648496655837,-18.786213751331363 L12.690450777845259,-18.6926353353191 L12.78138564892243,-18.59837327386771 L12.869432563133461,-18.503448865510478 L12.954571626258947,-18.407883558438105 L13.036783601109061,-18.311698945652502 L13.116049911870215,-18.21491676008783 L13.192352648302263,-18.11755886969997 L13.265674569785313,-18.01964727252541 L13.335999109215267,-17.921204091710834 L13.403310376747152,-17.82225157051434 L13.467593163385436,-17.722812067279605 L13.528832944420502,-17.622908050384 L13.587015882710512,-17.522562093161874 L13.64212883180791,-17.421796868804062 L13.694159338929863,-17.320635145234927 L13.743095647771975,-17.2190997799679 L13.78892670116463,-17.117213714940835 L13.831642143571345,-17.014999971332276 L13.87123232342862,-16.91248164435982 L13.907688295326713,-16.809681898061726 L13.941001822030843,-16.70662396006302 L13.971165376342416,-16.603331116327205 L13.99817214279977,-16.49982670589477 L14.022016019218158,-16.39613411560976 L14.042691618068517,-16.2922767748355 L14.06019426769479,-16.18827815016071 L14.074520013369492,-16.084161740097244 L14.085665618187273,-15.979951069770594 L14.093628563796297,-15.875669685604375 L14.09840705096728,-15.771341150000012 L14.1,-15.66698903601284 " />
			<path d="M14.1,-15.666989036012808 L14.09761120332111,-15.539202888904619 L14.090445622695729,-15.411460040395554 L14.078505686083457,-15.283803774413595 L14.061795439169531,-15.156277345549407 L14.040320543994003,-15.02892396440012 L14.01408827703322,-14.901786782927992 L13.983107526734303,-14.774908879838966 L13.947388790503412,-14.648333245986022 L13.906944171148842,-14.52210276980232 L13.861787372780151,-14.39626022276903 L13.811933696164711,-14.27084824492281 L13.757400033543252,-14.145909330407799 L13.69820486290615,-14.021485813077053 L13.634368241732416,-13.897619852148305 L13.565911800193488,-13.774353417918865 L13.492858733824146,-13.651728277544581 L13.415233795663019,-13.529785980887592 L13.333063287865352,-13.408567846437723 L13.246375052790881,-13.28811494731228 L13.155198463569821,-13.168468097338975 L13.059564414150191,-13.049667837226725 L12.959505308829815,-12.931754420828977 L12.855055051276562,-12.814767801504242 L12.746249033040552,-12.69874761857844 L12.633124121562215,-12.583733183913644 L12.515718647680243,-12.469763468587805 L12.394072392643734,-12.35687708968993 L12.26822657463283,-12.245112297235192 L12.13822383479252,-12.134506961204448 L12.004108222784241,-12.025098558712507 L11.865925181860272,-11.91692416130951 L11.723721533465891,-11.810020422419745 L11.577545461374577,-11.704423564922143 L11.427446495361592,-11.600169368876632 L11.273475494421467,-11.497293159400552 L11.115684629535155,-11.395829794699226 L10.954127365992582,-11.295813654254733 L10.788858445276672,-11.197278627176875 L10.619933866514938,-11.100258100720325 L10.447410867504926,-11.004784948971807 L10.271347905319981,-10.910891521711154 L10.091804636501848,-10.81860963345002 L9.908841896846882,-10.727970552651982 L9.722521680792646,-10.63900499113764 L9.532907120411956,-10.551743093678319 L9.340062464021425,-10.466214427781942 L9.144053054411792,-10.382447973674473 L8.944945306707407,-10.30047211448036 L8.74280668586239,-10.22031462660531 L8.537705683801,-10.142002670324608 L8.329711796210136,-10.065562780580255 L8.118895498991627,-9.99102085798995 L7.905328224382444,-9.918402160071011 L7.68908233675086,-9.847731292682223 L7.470231108076758,-9.779032201686467 L7.248848693124427,-9.712328164836993 L7.025010104316223,-9.64764178389007 L6.798791186315627,-9.584994976946685 L6.570268590328318,-9.524408971025899 L6.339519748129957,-9.465904294872358 L6.106622845829457,-9.4095007720004 L5.871656797376696,-9.355217513977127 L5.63470121782363,-9.303072913946727 L5.395836396347773,-9.253084640398189 L5.155143269047318,-9.20526963117858 L4.912703391517031,-9.159644087753893 L4.668598911214259,-9.11622346971939 L4.422912539624381,-9.075022489561334 L4.175727524235117,-9.036055107671862 L3.9271276203292684,-8.999334527618693 L3.677197062605402,-8.964873191671288 L3.4260205366360363,-8.932682776584947 L3.173683150173092,-8.902774189644303 L2.9202704043102927,-8.87515756496753 L2.6658681645122764,-8.849842260072545 L2.410562631520254,-8.826836852706336 L2.1544403121440565,-8.806149137938508 L1.8975879899504817,-8.78778612552003 L1.6400926958578572,-8.771754037508078 L1.3820416786468148,-8.758058306157768 L1.1235223753971852,-8.746703572081524 L0.8646223818611594,-8.737693682676653 L0.6054294227826817,-8.73103169082173 L0.3460313221730772,-8.726719853842138 L0.08651597355308979,-8.72475963274524 L-0.1730286898286415,-8.725151691725308 L-0.43251472479056924,-8.727895897938485 L-0.691854208016589,-8.732991321547797 L-0.9509592658476606,-8.740436236038207 L-1.2097421040566019,-8.750228118801626 L-1.4681150375959713,-8.762363651991674 L-1.7259905203089398,-8.776838723647865 L-1.9832811745931553,-8.793648429088911 L-2.23989982100743,-8.812787072574597 L-2.4957595078112833,-8.834248169235702 L-2.7507735404273963,-8.858024447271312 L-3.0048555108168786,-8.884107850412775 L-3.257919326757455,-8.912489540653453 L-3.509879241014649,-8.943159901243364 L-3.7606498803960644,-8.976108539947678 L-4.010146274678932,-9.011324292568 L-4.2582838854011165,-9.048795226725193 L-4.504978634505824,-9.088508645902511 L-4.7501469328302965,-9.130451093747634 L-4.993705708428898,-9.174608358632177 L-5.235572434720896,-9.220965478467107 L-5.475665158453439,-9.26950674577244 L-5.713902527470347,-9.320215712999495 L-5.950203818277168,-9.373075198103955 L-6.1844889633932345,-9.428067290367734 L-6.416678578481445,-9.485173356467804 L-6.6466939892465655,-9.544374046789834 L-6.8744572580929475,-9.60564930198454 L-7.099891210532621,-9.668978359764534 L-7.322919461334817,-9.734339761939331 L-7.543466440408067,-9.80171136168617 L-7.761457418406115,-9.871070331054174 L-7.976818532048935,-9.942393168699274 L-8.189476809150271,-10.01565570784733 L-8.399360193343304,-10.090833124482705 L-8.606397568495959,-10.167899945759562 L-8.810518782807645,-10.246830058632975 L-9.011654672579237,-10.327596718706985 L-9.209737085648252,-10.41017255929658 L-9.404698904481291,-10.494529600700517 L-9.596474068915892,-10.58063925968187 L-9.784997598544125,-10.66847235915306 L-9.97020561473023,-10.757999138062084 " />
			<path d="M-8.83883476483189,-11.315047637120337 L-9.053088536893382,-11.42316034889344 L-9.26188906693704,-11.533829384380692 L-9.465110581331109,-11.64698808069329 L-9.662630667034263,-11.762568275263854 L-9.85433034533263,-11.880500346904999 L-10.040094143508112,-12.000713257746527 L-10.219810164394845,-12.123134596026006 L-10.393370153781863,-12.247690619706876 L-10.560669565621385,-12.374306300897928 L-10.721607625003449,-12.502905371047277 L-10.87608738885894,-12.63341036688369 L-11.024015804354484,-12.765742677077574 L-11.165303764943987,-12.89982258959349 L-11.299866164043086,-13.035569339705715 L-11.42762194629418,-13.172901158647873 L-11.54849415639113,-13.311735322867404 L-11.66240998543428,-13.451988203855125 L-11.769300814787805,-13.593575318519921 L-11.869102257413003,-13.736411380078202 L-11.961754196652656,-13.88041034942747 L-12.047200822443044,-14.025485486973057 L-12.125390664931844,-14.171549404876815 L-12.196276625481653,-14.318514119696285 L-12.259816005040427,-14.466291105382613 L-12.315970529861811,-14.614791346605365 L-12.36470637455981,-14.763925392372018 L-12.405994182483923,-14.913603409909868 L-12.43980908340251,-15.06373523877798 L-12.466130708483675,-15.214230445176435 L-12.484943202564702,-15.364998376420274 L-12.4962352337026,-15.515948215545293 L-12.500000000000048,-15.666989036012728 " />
			<path d="M-12.500000000000048,-15.666989036012785 L-12.497992501972748,-15.777287167137043 L-12.491970652698575,-15.887549870536398 L-12.48193638639362,-15.99774172986532 L-12.467892926061051,-16.107827351533373 L-12.449844782455896,-16.21777137607362 L-12.427797752636181,-16.32753848950009 L-12.401758918100926,-16.437093434650585 L-12.37173664251557,-16.546401022511308 L-12.33774056902555,-16.655426143519538 L-12.29978161715894,-16.76413377884082 L-12.257871979319102,-16.872489011617 L-12.212025116868482,-16.98045703818151 L-12.162255755804825,-17.088003179238292 L-12.108579882031199,-17.19509289100079 L-12.051014736221317,-17.301691776287385 L-11.989578808281845,-17.407765595569767 L-11.924291831413443,-17.513280277970665 L-11.855174775772479,-17.61820193220739 L-11.782249841735405,-17.722496857477726 L-11.70554045276802,-17.82613155428459 L-11.625071247901845,-17.92907273519608 L-11.540868073820086,-18.031287335537378 L-11.452957976555682,-18.132742524011114 L-11.361369192804124,-18.233405713242778 L-11.266131140853847,-18.333244570247757 L-11.167274411137079,-18.432227026816694 L-11.064830756404197,-18.53032128981578 L-10.958833081524773,-18.627495851398706 L-10.849315432918518,-18.72371949912696 L-10.7363129876196,-18.818961325995264 L-10.619862041977779,-18.913190740358885 L-10.500000000000048,-19.006377475759674 " />
			<path d="M10.499999999999956,-19.00637747575967 L10.619862041977694,-18.91319074035888 L10.736312987619515,-18.818961325995254 L10.84931543291843,-18.723719499126954 L10.958833081524686,-18.6274958513987 L11.064830756404112,-18.530321289815774 L11.167274411136988,-18.432227026816687 L11.266131140853759,-18.33324457024775 L11.361369192804036,-18.23340571324277 L11.452957976555592,-18.132742524011107 L11.540868073819997,-18.03128733553737 L11.625071247901753,-17.929072735196073 L11.705540452767929,-17.826131554284586 L11.782249841735315,-17.722496857477722 L11.855174775772387,-17.618201932207388 L11.92429183141335,-17.513280277970658 L11.98957880828175,-17.407765595569764 L12.051014736221225,-17.30169177628738 L12.108579882031105,-17.195092891000787 L12.16225575580473,-17.08800317923829 L12.212025116868386,-16.980457038181505 L12.257871979319008,-16.872489011616995 L12.299781617158846,-16.76413377884082 L12.337740569025454,-16.655426143519538 L12.371736642515474,-16.546401022511304 L12.401758918100832,-16.43709343465058 L12.427797752636085,-16.327538489500085 L12.4498447824558,-16.21777137607362 L12.467892926060957,-16.10782735153337 L12.481936386393524,-15.997741729865318 L12.491970652698479,-15.887549870536398 L12.497992501972652,-15.777287167137043 L12.499999999999952,-15.666989036012813 " />
			<path d="M12.499999999999952,-15.666989036012785 L12.497882272447745,-15.553703444604816 L12.491529807354322,-15.440456238479758 L12.480944757166137,-15.327285789914193 L12.466130708483579,-15.214230445176437 L12.4470926808457,-15.10132851153345 L12.423837125029403,-14.988618244270928 L12.396371920863697,-14.87613783373101 L12.364706374559715,-14.763925392372016 L12.328851215557437,-14.65201894185455 L12.288818592890157,-14.540456400158371 L12.244622071067958,-14.429275568734418 L12.196276625481559,-14.318514119696287 L12.1437986373281,-14.208209583055556 L12.087205888060604,-14.098399334005245 L12.026517553362973,-13.989120580255744 L11.961754196652564,-13.880410349427478 L11.892937762112558,-13.772305476504615 L11.82009156725647,-13.664842591354022 L11.743240295027329,-13.558058106313737 L11.66240998543419,-13.451988203855132 L11.577628026728846,-13.346668824322995 L11.488923146125675,-13.242135653757614 L11.396325400067825,-13.138424111803062 L11.299866164042996,-13.03556933970572 L11.19957812195227,-12.933606188407143 L11.09549525503563,-12.8325692067353 L10.987652830357872,-12.732492629698175 L10.876087388858846,-12.633410366883691 L10.760836732972043,-12.535355990969911 L10.641939913815769,-12.438362726349396 L10.519437217961185,-12.342463437871563 L10.39337015378177,-12.247690619706878 L10.263781437388761,-12.154076384336662 L10.13071497815739,-12.061652451672202 L9.99421586384877,-11.970450138306884 L9.854330345332535,-11.880500346904999 L9.711105820915362,-11.791833555730802 L9.56459082028069,-11.704479808321352 L9.41483498804511,-11.618468703306682 L9.261889066936943,-11.533829384380692 L9.105804880602772,-11.450590530426211 L8.94663531604769,-11.368780345797546 L8.784434305715273,-11.288426550763827 L8.61925680921329,-11.209556372116358 L8.451158794691402,-11.132196533943201 L8.280197219877103,-11.056373248574074 L8.106430012776363,-10.982112207698659 L7.9299160520455265,-10.909438573661323 L7.7507151470410784,-10.838376970935215 L7.568888017554031,-10.768951477778565 L7.3844962732358885,-10.701185618076124 L7.1976023927230255,-10.635102353368406 L7.008269702466658,-10.570724075071475 L6.816562355275537,-10.508072596889926 L6.622545308578639,-10.447169147425603 L6.426284302415224,-10.38803436298458 L6.227845837159725,-10.330688280584823 L6.027297150988984,-10.27515033116693 L5.824706197099525,-10.221439333010206 L5.6201416206825385,-10.169573485356356 L5.413672735664364,-10.119570362242918 L5.205369501220428,-10.071446906548527 L4.995302498070546,-10.025219424252075 L4.783542904563581,-9.980903578907625 L4.57016247255963,-9.93851438633705 L4.355233503117888,-9.898066209542115 L4.138828821998409,-9.859572753837767 L3.9210217549861057,-9.823047062208285 L3.7018861030452688,-9.788501510887832 L3.4814961173131334,-9.755947805166937 L3.259926473940911,-9.725396975426332 L3.0372522487907645,-9.696859373399434 L2.813548891997374,-9.670344668664818 L2.5888922024026937,-9.645861845369808 L2.3633583018725375,-9.62341919918631 L2.137023609503723,-9.603024334499956 L1.909964815730499,-9.58468416183344 L1.6822588563390317,-9.568404895505003 L1.4539828863987618,-9.554192051522774 L1.225214254119469,-9.542050445715763 L0.9960304746428469,-9.53198419210207 L0.7665092037775757,-9.523996701494918 L0.5367282116867267,-9.518090680346933 L0.3067653565363681,-9.514268129833113 L0.07669855811439347,-9.512530345172742 L-0.15339422857153856,-9.512877915190533 L-0.3834350397079993,-9.515310722117109 L-0.6133459290927686,-9.519827941628908 L-0.8430489945458463,-9.526428043127499 L-1.0724664043055459,-9.535108790258192 L-1.3015204234007314,-9.545867241667807 L-1.5301334399902426,-9.55869975200131 L-1.7582279916606465,-9.57360197313699 L-1.9857267916733012,-9.590568855659761 L-2.212552755151895,-9.609594650572088 L-2.4386290252016405,-9.630672911241955 L-2.6638789989511817,-9.653796495587223 L-2.88822635350843,-9.678957568495626 L-3.1115950718215455,-9.70614760447959 L-3.3339094684362753,-9.735357390564975 L-3.555094215140945,-9.766577029412778 L-3.7750743664904,-9.7997959426727 L-3.993775385200247,-9.835002874567486 L-4.211123167402793,-9.872185895706778 L-4.427044067756164,-9.911332407129247 L-4.641464924398005,-9.95242914457156 L-4.8543130837353665,-9.995462182962811 L-5.0655164250624125,-10.040416941142826 L-5.275003384997538,-10.087278186802807 L-5.482702981731639,-10.136030041646585 L-5.688544839079343,-10.18665598677076 L-5.8924592103250175,-10.239138868261922 L-6.094377001855498,-10.293460903009 L-6.29422979657152,-10.349603684728853 L-6.4919498770699215,-10.407548190202963 L-6.68747024858876,-10.467274785723212 L-6.880724661707597,-10.528763233744492 L-7.0716476347952035,-10.59199269974192 L-7.260174476197098,-10.656941759270339 L-7.44624130615546,-10.723588405223687 L-7.629785078453912,-10.791910055291822 L-7.810743601779874,-10.861883559612224 L-7.989055560797243,-10.933485208614005 L-8.164660536922257,-11.006690741051589 L-8.33749902879552,-11.081475352225294 L-8.507512472443215,-11.157813702386065 L-8.674643261120726,-11.235679925321518 L-8.838834764831812,-11.315047637120298 " />
			<path d="M-8.838834764831843,-11.31504763712036 L-9.053088536893334,-11.423160348893463 L-9.261889066936993,-11.533829384380716 L-9.46511058133106,-11.646988080693312 L-9.662630667034215,-11.762568275263877 L-9.854330345332581,-11.88050034690502 L-10.040094143508064,-12.00071325774655 L-10.219810164394797,-12.123134596026027 L-10.393370153781815,-12.2476906197069 L-10.560669565621337,-12.374306300897953 L-10.7216076250034,-12.502905371047298 L-10.876087388858892,-12.633410366883712 L-11.024015804354436,-12.765742677077597 L-11.165303764943939,-12.899822589593516 L-11.299866164043038,-13.035569339705738 L-11.427621946294131,-13.172901158647896 L-11.548494156391081,-13.311735322867428 L-11.662409985434232,-13.451988203855148 L-11.769300814787757,-13.593575318519944 L-11.869102257412955,-13.736411380078225 L-11.961754196652608,-13.880410349427493 L-12.047200822442996,-14.02548548697308 L-12.125390664931796,-14.171549404876838 L-12.196276625481605,-14.318514119696308 L-12.25981600504038,-14.466291105382636 L-12.315970529861763,-14.61479134660539 L-12.364706374559763,-14.763925392372041 L-12.405994182483875,-14.913603409909891 L-12.439809083402462,-15.063735238778003 L-12.466130708483627,-15.214230445176458 L-12.484943202564654,-15.364998376420298 L-12.496235233702553,-15.515948215545317 L-12.5,-15.666989036012751 " />
			<path d="M12.5,-15.666989036012808 L12.497882272447793,-15.553703444604839 L12.49152980735437,-15.440456238479781 L12.480944757166185,-15.327285789914216 L12.466130708483627,-15.21423044517646 L12.447092680845747,-15.101328511533474 L12.42383712502945,-14.98861824427095 L12.396371920863745,-14.876137833731033 L12.364706374559763,-14.763925392372041 L12.328851215557485,-14.652018941854573 L12.288818592890205,-14.540456400158394 L12.244622071068006,-14.429275568734441 L12.196276625481607,-14.31851411969631 L12.143798637328148,-14.208209583055579 L12.087205888060652,-14.098399334005268 L12.026517553363021,-13.989120580255767 L11.961754196652612,-13.880410349427502 L11.892937762112606,-13.772305476504638 L11.820091567256519,-13.664842591354045 L11.743240295027377,-13.558058106313759 L11.662409985434238,-13.451988203855155 L11.577628026728894,-13.346668824323018 L11.488923146125723,-13.24213565375764 L11.396325400067873,-13.138424111803086 L11.299866164043044,-13.035569339705741 L11.199578121952317,-12.933606188407166 L11.095495255035678,-12.832569206735323 L10.98765283035792,-12.732492629698198 L10.876087388858894,-12.633410366883714 L10.760836732972091,-12.535355990969935 L10.641939913815817,-12.43836272634942 L10.519437217961233,-12.342463437871587 L10.393370153781818,-12.247690619706901 L10.26378143738881,-12.154076384336687 L10.130714978157439,-12.061652451672225 L9.994215863848819,-11.970450138306907 L9.854330345332583,-11.880500346905022 L9.71110582091541,-11.791833555730825 L9.564590820280738,-11.704479808321377 L9.414834988045158,-11.618468703306705 L9.261889066936991,-11.533829384380715 L9.10580488060282,-11.450590530426233 L8.946635316047738,-11.36878034579757 L8.78443430571532,-11.288426550763848 L8.619256809213338,-11.209556372116381 L8.45115879469145,-11.132196533943224 L8.28019721987715,-11.056373248574097 L8.10643001277641,-10.98211220769868 L7.9299160520455745,-10.909438573661348 L7.750715147041126,-10.838376970935238 L7.568888017554079,-10.768951477778588 L7.3844962732359365,-10.701185618076147 L7.1976023927230735,-10.63510235336843 L7.0082697024667056,-10.5707240750715 L6.816562355275585,-10.50807259688995 L6.622545308578687,-10.447169147425626 L6.426284302415272,-10.388034362984602 L6.227845837159773,-10.330688280584848 L6.027297150989032,-10.275150331166952 L5.824706197099573,-10.221439333010228 L5.6201416206825865,-10.16957348535638 L5.413672735664412,-10.119570362242941 L5.205369501220476,-10.071446906548552 L4.995302498070594,-10.025219424252096 L4.783542904563629,-9.980903578907649 L4.570162472559678,-9.938514386337074 L4.355233503117936,-9.898066209542138 L4.138828821998457,-9.859572753837792 L3.9210217549861537,-9.82304706220831 L3.7018861030453167,-9.788501510887855 L3.4814961173131813,-9.755947805166961 L3.259926473940959,-9.725396975426353 L3.0372522487908125,-9.696859373399455 L2.813548891997422,-9.670344668664843 L2.5888922024027416,-9.64586184536983 L2.3633583018725854,-9.623419199186333 L2.137023609503771,-9.603024334499977 L1.9099648157305467,-9.584684161833465 L1.6822588563390795,-9.568404895505026 L1.4539828863988096,-9.554192051522797 L1.2252142541195168,-9.542050445715786 L0.9960304746428947,-9.531984192102094 L0.7665092037776235,-9.52399670149494 L0.5367282116867745,-9.518090680346958 L0.30676535653641596,-9.514268129833136 L0.0766985581144413,-9.512530345172765 L-0.1533942285714907,-9.512877915190556 L-0.38343503970795145,-9.515310722117132 L-0.6133459290927208,-9.519827941628932 L-0.8430489945457984,-9.52642804312752 L-1.0724664043054981,-9.535108790258214 L-1.3015204234006836,-9.54586724166783 L-1.530133439990195,-9.558699752001333 L-1.7582279916605987,-9.573601973137013 L-1.9857267916732535,-9.590568855659784 L-2.212552755151847,-9.60959465057211 L-2.4386290252015925,-9.630672911241977 L-2.663878998951134,-9.653796495587248 L-2.888226353508382,-9.67895756849565 L-3.1115950718214975,-9.706147604479611 L-3.3339094684362274,-9.735357390564998 L-3.555094215140897,-9.766577029412801 L-3.775074366490352,-9.799795942672723 L-3.993775385200199,-9.83500287456751 L-4.211123167402745,-9.872185895706803 L-4.427044067756116,-9.911332407129269 L-4.641464924397957,-9.952429144571585 L-4.854313083735319,-9.995462182962834 L-5.0655164250623645,-10.04041694114285 L-5.27500338499749,-10.08727818680283 L-5.482702981731591,-10.136030041646606 L-5.688544839079295,-10.186655986770784 L-5.8924592103249696,-10.239138868261943 L-6.09437700185545,-10.293460903009024 L-6.294229796571472,-10.349603684728876 L-6.491949877069874,-10.407548190202988 L-6.687470248588712,-10.467274785723236 L-6.880724661707549,-10.528763233744513 L-7.071647634795156,-10.591992699741944 L-7.26017447619705,-10.65694175927036 L-7.446241306155412,-10.723588405223708 L-7.629785078453864,-10.791910055291844 L-7.810743601779826,-10.861883559612245 L-7.989055560797195,-10.933485208614028 L-8.16466053692221,-11.006690741051614 L-8.337499028795472,-11.081475352225317 L-8.507512472443167,-11.15781370238609 L-8.674643261120679,-11.235679925321541 L-8.838834764831764,-11.315047637120323 " />
			<path d="M-8.838834764831843,-28.722813232690143 L-9.053088536893334,-28.830925944463246 L-9.261889066936993,-28.9415949799505 L-9.46511058133106,-29.054753676263097 L-9.662630667034215,-29.170333870833662 L-9.854330345332581,-29.288265942474805 L-10.040094143508064,-29.408478853316335 L-10.219810164394797,-29.530900191595812 L-10.393370153781815,-29.655456215276686 L-10.560669565621337,-29.782071896467738 L-10.7216076250034,-29.910670966617083 L-10.876087388858892,-30.041175962453497 L-11.024015804354436,-30.173508272647382 L-11.165303764943939,-30.3075881851633 L-11.299866164043038,-30.443334935275523 L-11.427621946294131,-30.58066675421768 L-11.548494156391081,-30.719500918437213 L-11.662409985434232,-30.859753799424933 L-11.769300814787757,-31.001340914089727 L-11.869102257412955,-31.14417697564801 L-11.961754196652608,-31.288175944997278 L-12.047200822442996,-31.433251082542867 L-12.125390664931796,-31.579315000446623 L-12.196276625481605,-31.72627971526609 L-12.25981600504038,-31.874056700952423 L-12.315970529861763,-32.02255694217517 L-12.364706374559763,-32.17169098794182 L-12.405994182483875,-32.321369005479674 L-12.439809083402462,-32.471500834347786 L-12.466130708483627,-32.62199604074624 L-12.484943202564654,-32.77276397199008 L-12.496235233702553,-32.9237138111151 L-12.5,-33.074754631582536 " />
			<path d="M-12.5,-33.07475463158259 L-12.496235233702553,-33.225795452050086 L-12.484943202564654,-33.376745291175105 L-12.466130708483627,-33.527513222418946 L-12.439809083402462,-33.6780084288174 L-12.405994182483875,-33.82814025768551 L-12.364706374559761,-33.97781827522336 L-12.315970529861765,-34.12695232099001 L-12.259816005040381,-34.27545256221276 L-12.196276625481607,-34.42322954789909 L-12.1253906649318,-34.57019426271856 L-12.047200822442997,-34.71625818062231 L-11.96175419665261,-34.8613333181679 L-11.869102257412958,-35.00533228751717 L-11.769300814787758,-35.148168349075455 L-11.662409985434236,-35.28975546374025 L-11.548494156391085,-35.43000834472797 L-11.427621946294133,-35.568842508947505 L-11.299866164043042,-35.70617432788966 L-11.16530376494394,-35.84192107800188 L-11.024015804354438,-35.976000990517804 L-10.876087388858892,-36.108333300711685 L-10.7216076250034,-36.2388382965481 L-10.560669565621337,-36.36743736669745 L-10.393370153781815,-36.4940530478885 L-10.219810164394795,-36.618609071569374 L-10.040094143508062,-36.741030409848854 L-9.854330345332578,-36.861243320690384 L-9.662630667034211,-36.97917539233153 L-9.465110581331055,-37.09475558690209 L-9.261889066936988,-37.20791428321469 L-9.053088536893336,-37.31858331870194 L-8.838834764831843,-37.42669603047504 L-8.619256809213335,-37.53218729547902 L-8.394486935587729,-37.634993569720415 L-8.16466053692221,-37.73505292654379 L-7.929916052045568,-37.83230509393405 L-7.690394882257835,-37.92669149082207 L-7.446241306155417,-38.01815526237169 L-7.1976023927230655,-38.10664131422698 L-6.9446279127450286,-38.19209634569899 L-6.687470248588714,-38.27446888187217 L-6.4262843024152705,-38.3537093046108 L-6.161227402872301,-38.42976988244723 L-5.892459210324972,-38.502604799333454 L-5.620141620682586,-38.57217018223902 L-5.344438667878528,-38.63842412757848 L-5.065516425062373,-38.70132672645255 L-4.783542904563623,-38.76084008868775 L-4.498687956687354,-38.816928365660026 L-4.211123167402751,-38.869557771888594 L-3.9210217549861417,-38.9186966053871 L-3.628558465680779,-38.964315266759634 L-3.3339094684362305,-39.0063862770304 L-3.0372522487907996,-39.044884294195946 L-2.738765501960875,-39.079786128490255 L-2.438629025201604,-39.11107075635342 L-2.137023609503764,-39.13871933309542 L-1.834130930692022,-39.162715204247476 L-1.5301334399902036,-39.18304391559407 L-1.2252142541195097,-39.19969322187961 L-0.9195570449958459,-39.212653094184574 L-0.6133459290927266,-39.22191572596647 L-0.3067653565364033,-39.22747553776227 L-7.654042494670958e-16,-39.22932918054923 L0.3067653565364018,-39.22747553776227 L0.6133459290927251,-39.22191572596647 L0.9195570449958443,-39.212653094184574 L1.2252142541195081,-39.19969322187961 L1.530133439990202,-39.18304391559407 L1.8341309306920204,-39.162715204247476 L2.1370236095037627,-39.13871933309542 L2.4386290252016023,-39.11107075635342 L2.738765501960873,-39.079786128490255 L3.0372522487907982,-39.044884294195946 L3.3339094684362287,-39.0063862770304 L3.628558465680777,-38.964315266759634 L3.9210217549861404,-38.9186966053871 L4.211123167402749,-38.869557771888594 L4.498687956687352,-38.816928365660026 L4.783542904563622,-38.76084008868775 L5.065516425062374,-38.70132672645255 L5.344438667878528,-38.638424127578475 L5.620141620682584,-38.57217018223902 L5.892459210324971,-38.502604799333454 L6.1612274028723,-38.42976988244723 L6.4262843024152705,-38.3537093046108 L6.687470248588713,-38.27446888187217 L6.944627912745024,-38.192096345699 L7.197602392723063,-38.10664131422698 L7.446241306155412,-38.01815526237169 L7.69039488225783,-37.92669149082207 L7.929916052045567,-37.83230509393405 L8.164660536922211,-37.73505292654379 L8.39448693558773,-37.634993569720415 L8.619256809213336,-37.53218729547902 L8.838834764831843,-37.42669603047504 L9.053088536893334,-37.31858331870194 L9.261889066936986,-37.20791428321469 L9.465110581331054,-37.09475558690209 L9.662630667034213,-36.97917539233153 L9.854330345332581,-36.86124332069038 L10.040094143508064,-36.74103040984885 L10.219810164394797,-36.618609071569374 L10.393370153781817,-36.4940530478885 L10.560669565621339,-36.36743736669745 L10.7216076250034,-36.2388382965481 L10.876087388858892,-36.108333300711685 L11.024015804354438,-35.976000990517804 L11.16530376494394,-35.84192107800189 L11.299866164043038,-35.70617432788966 L11.427621946294131,-35.568842508947505 L11.548494156391085,-35.43000834472797 L11.662409985434238,-35.28975546374025 L11.76930081478776,-35.14816834907545 L11.869102257412958,-35.00533228751717 L11.96175419665261,-34.8613333181679 L12.047200822442997,-34.71625818062231 L12.1253906649318,-34.57019426271856 L12.196276625481605,-34.42322954789909 L12.259816005040381,-34.27545256221276 L12.315970529861765,-34.126952320990014 L12.364706374559761,-33.97781827522336 L12.405994182483875,-33.82814025768551 L12.43980908340246,-33.6780084288174 L12.466130708483627,-33.527513222418946 L12.484943202564654,-33.376745291175105 L12.496235233702553,-33.225795452050086 L12.5,-33.07475463158262 " />
			<path d="M12.5,-33.07475463158259 L12.497882272447793,-32.96146904017462 L12.49152980735437,-32.84822183404957 L12.480944757166185,-32.735051385484 L12.466130708483627,-32.62199604074625 L12.447092680845747,-32.50909410710326 L12.42383712502945,-32.39638383984074 L12.396371920863745,-32.28390342930082 L12.364706374559763,-32.17169098794182 L12.328851215557485,-32.059784537424356 L12.288818592890205,-31.94822199572818 L12.244622071068006,-31.837041164304225 L12.196276625481607,-31.726279715266095 L12.143798637328148,-31.615975178625362 L12.087205888060652,-31.506164929575053 L12.026517553363021,-31.396886175825554 L11.961754196652612,-31.288175944997285 L11.892937762112606,-31.180071072074423 L11.820091567256519,-31.07260818692383 L11.743240295027377,-30.965823701883544 L11.662409985434238,-30.85975379942494 L11.577628026728894,-30.754434419892803 L11.488923146125723,-30.649901249327424 L11.396325400067873,-30.54618970737287 L11.299866164043044,-30.443334935275526 L11.199578121952317,-30.34137178397695 L11.095495255035678,-30.240334802305107 L10.98765283035792,-30.140258225267985 L10.876087388858894,-30.0411759624535 L10.760836732972091,-29.943121586539718 L10.641939913815817,-29.846128321919206 L10.519437217961233,-29.75022903344137 L10.393370153781818,-29.655456215276686 L10.26378143738881,-29.561841979906472 L10.130714978157439,-29.469418047242012 L9.994215863848819,-29.378215733876694 L9.854330345332583,-29.28826594247481 L9.71110582091541,-29.19959915130061 L9.564590820280738,-29.112245403891162 L9.414834988045158,-29.02623429887649 L9.261889066936991,-28.9415949799505 L9.10580488060282,-28.858356125996018 L8.946635316047738,-28.776545941367353 L8.78443430571532,-28.696192146333633 L8.619256809213338,-28.617321967686166 L8.45115879469145,-28.539962129513007 L8.28019721987715,-28.464138844143882 L8.10643001277641,-28.389877803268465 L7.9299160520455745,-28.317204169231132 L7.750715147041126,-28.24614256650502 L7.568888017554079,-28.17671707334837 L7.3844962732359365,-28.10895121364593 L7.1976023927230735,-28.042867948938216 L7.0082697024667056,-27.978489670641284 L6.816562355275585,-27.915838192459734 L6.622545308578687,-27.85493474299541 L6.426284302415272,-27.795799958554387 L6.227845837159773,-27.738453876154633 L6.027297150989032,-27.682915926736737 L5.824706197099573,-27.629204928580013 L5.6201416206825865,-27.577339080926166 L5.413672735664412,-27.527335957812724 L5.205369501220476,-27.479212502118337 L4.995302498070594,-27.43298501982188 L4.783542904563629,-27.388669174477435 L4.570162472559678,-27.34627998190686 L4.355233503117936,-27.30583180511192 L4.138828821998457,-27.267338349407577 L3.9210217549861537,-27.230812657778095 L3.7018861030453167,-27.19626710645764 L3.4814961173131813,-27.163713400736746 L3.259926473940959,-27.133162570996138 L3.0372522487908125,-27.10462496896924 L2.813548891997422,-27.078110264234628 L2.5888922024027416,-27.053627440939614 L2.3633583018725854,-27.03118479475612 L2.137023609503771,-27.010789930069762 L1.9099648157305467,-26.99244975740325 L1.6822588563390795,-26.97617049107481 L1.4539828863988096,-26.961957647092582 L1.2252142541195168,-26.949816041285573 L0.9960304746428947,-26.93974978767188 L0.7665092037776235,-26.931762297064726 L0.5367282116867745,-26.925856275916743 L0.30676535653641596,-26.92203372540292 L0.0766985581144413,-26.920295940742548 L-0.1533942285714907,-26.920643510760343 L-0.38343503970795145,-26.923076317686917 L-0.6133459290927208,-26.927593537198717 L-0.8430489945457984,-26.934193638697305 L-1.0724664043054981,-26.942874385828 L-1.3015204234006836,-26.953632837237613 L-1.530133439990195,-26.966465347571116 L-1.7582279916605987,-26.981367568706798 L-1.9857267916732535,-26.998334451229567 L-2.212552755151847,-27.017360246141894 L-2.4386290252015925,-27.03843850681176 L-2.663878998951134,-27.061562091157032 L-2.888226353508382,-27.086723164065432 L-3.1115950718214975,-27.113913200049396 L-3.3339094684362274,-27.143122986134784 L-3.555094215140897,-27.174342624982586 L-3.775074366490352,-27.20756153824251 L-3.993775385200199,-27.242768470137293 L-4.211123167402745,-27.279951491276588 L-4.427044067756116,-27.319098002699054 L-4.641464924397957,-27.36019474014137 L-4.854313083735319,-27.403227778532617 L-5.0655164250623645,-27.448182536712636 L-5.27500338499749,-27.495043782372615 L-5.482702981731591,-27.54379563721639 L-5.688544839079295,-27.59442158234057 L-5.8924592103249696,-27.646904463831728 L-6.09437700185545,-27.70122649857881 L-6.294229796571472,-27.75736928029866 L-6.491949877069874,-27.815313785772773 L-6.687470248588712,-27.87504038129302 L-6.880724661707549,-27.936528829314298 L-7.071647634795156,-27.99975829531173 L-7.26017447619705,-28.064707354840145 L-7.446241306155412,-28.131354000793493 L-7.629785078453864,-28.19967565086163 L-7.810743601779826,-28.26964915518203 L-7.989055560797195,-28.341250804183815 L-8.16466053692221,-28.4144563366214 L-8.337499028795472,-28.489240947795103 L-8.507512472443167,-28.565579297955875 L-8.674643261120679,-28.643445520891326 L-8.838834764831764,-28.722813232690108 " />
			<path d="M-7.424621202458789,-29.419123856512915 L-7.604594370990442,-29.509938534402323 L-7.779986816227117,-29.602900524211613 L-7.950692888318133,-29.697953829114198 L-8.116609760308783,-29.79504119255347 L-8.27763749007941,-29.894104132732032 L-8.433679080546815,-29.995082977838916 L-8.584640538091671,-30.097916901993678 L-8.730430929176768,-30.20254396188561 L-8.870962435121966,-30.308901134086092 L-9.006150405002899,-30.416924353011545 L-9.135913406641512,-30.526548549514132 L-9.260173275657769,-30.637707690076994 L-9.37885516255295,-30.750334816590367 L-9.491887577796195,-30.864362086684633 L-9.599202434887113,-30.979720814596046 L-9.700735091368552,-31.09634151254045 L-9.796424387764798,-31.214153932570138 L-9.886212684421757,-31.333087108888567 L-9.970045896226924,-31.45306940059752 L-10.047873525188233,-31.574028534850907 L-10.11964869085216,-31.6958916503892 L-10.185328158542752,-31.818585341428356 L-10.244872365404591,-31.942035701876712 L-10.298245444233961,-32.06616836985323 L-10.345415245083924,-32.19090857248034 L-10.386353354630243,-32.316181170924324 L-10.421035113286496,-32.44191070565612 L-10.44943963005811,-32.56802144190534 L-10.47154979512629,-32.694437415280035 L-10.487352290154353,-32.82108247752486 L-10.496837596310188,-32.94788034238988 L-10.500000000000043,-33.07475463158252 " />
			<path d="M-10.500000000000043,-33.07475463158257 L-10.496837596310188,-33.20162892077526 L-10.487352290154353,-33.32842678564028 L-10.47154979512629,-33.45507184788511 L-10.44943963005811,-33.581487821259806 L-10.421035113286496,-33.70759855750902 L-10.386353354630241,-33.83332809224082 L-10.345415245083926,-33.958600690684804 L-10.298245444233963,-34.08334089331191 L-10.244872365404593,-34.20747356128843 L-10.185328158542754,-34.33092392173678 L-10.119648690852161,-34.453617612775936 L-10.047873525188235,-34.57548072831423 L-9.970045896226928,-34.696439862567615 L-9.88621268442176,-34.81642215427657 L-9.7964243877648,-34.935355330595 L-9.700735091368553,-35.05316775062469 L-9.599202434887113,-35.16978844856909 L-9.491887577796197,-35.28514717648051 L-9.378855162552954,-35.399174446574776 L-9.26017327565777,-35.51180157308815 L-9.135913406641512,-35.62296071365101 L-9.006150405002899,-35.7325849101536 L-8.870962435121966,-35.84060812907905 L-8.730430929176768,-35.94696530127953 L-8.584640538091671,-36.051592361171465 L-8.433679080546815,-36.15442628532623 L-8.277637490079409,-36.25540513043311 L-8.11660976030878,-36.354468070611674 L-7.950692888318129,-36.45155543405095 L-7.779986816227112,-36.54660873895353 L-7.604594370990445,-36.63957072876282 L-7.424621202458791,-36.730385406652225 L-7.240175719739244,-36.81899806925557 L-7.051369025893735,-36.90535533961834 L-6.858314851014699,-36.989405199349974 L-6.66112948371832,-37.0710970199578 L-6.459931701096624,-37.15038159334374 L-6.254842697170593,-37.22721116144541 L-6.045986009887417,-37.301539445003854 L-5.833487446705867,-37.37332167144035 L-5.617475008814563,-37.44251460182581 L-5.39807881402887,-37.50907655692627 L-5.175431018412776,-37.572967442308865 L-4.94966573667302,-37.6341487724933 L-4.720918961373414,-37.69258369413397 L-4.489328481018005,-37.748237008219114 L-4.255033797052437,-37.801075191273334 L-4.018176039833486,-37.8510664155509 L-3.778897883617419,-37.898180568207614 L-3.5373434606183527,-37.942389269439616 L-3.2936582741884015,-37.983665889578354 L-3.047989111171897,-38.02198556513129 L-2.800483953486476,-38.05732521375873 L-2.551291888984314,-38.08966354817779 L-2.3005630216471773,-38.11898108898501 L-2.04844838116939,-38.14526017639007 L-1.7950998319832043,-38.16848498085335 L-1.5406699817813407,-38.188641512621075 L-1.2853120895918133,-38.20571763015221 L-1.0291799734604306,-38.21970304743207 L-0.7724279177965528,-38.23058934016824 L-0.5152105804379327,-38.23836995086503 L-0.25768289949062106,-38.24304019277349 L-4.2947510776328003e-14,-38.24459725271455 L0.2576828994905352,-38.24304019277349 L0.5152105804378467,-38.23836995086503 L0.772427917796467,-38.23058934016824 L1.0291799734603444,-38.21970304743207 L1.2853120895917272,-38.20571763015221 L1.5406699817812548,-38.188641512621075 L1.7950998319831184,-38.16848498085335 L2.0484483811693037,-38.14526017639007 L2.300563021647091,-38.11898108898501 L2.5512918889842284,-38.08966354817779 L2.80048395348639,-38.05732521375873 L3.0479891111718107,-38.02198556513129 L3.293658274188316,-37.983665889578354 L3.537343460618267,-37.942389269439616 L3.7788978836173337,-37.898180568207614 L4.018176039833399,-37.8510664155509 L4.255033797052351,-37.801075191273334 L4.489328481017921,-37.748237008219114 L4.720918961373328,-37.69258369413397 L4.949665736672933,-37.6341487724933 L5.175431018412689,-37.572967442308865 L5.398078814028785,-37.50907655692627 L5.617475008814476,-37.44251460182581 L5.833487446705778,-37.37332167144035 L6.04598600988733,-37.301539445003854 L6.254842697170503,-37.22721116144541 L6.459931701096535,-37.15038159334374 L6.661129483718234,-37.071097019957804 L6.858314851014614,-36.989405199349974 L7.051369025893651,-36.90535533961834 L7.2401757197391605,-36.81899806925557 L7.424621202458706,-36.730385406652225 L7.604594370990359,-36.63957072876282 L7.779986816227026,-36.54660873895353 L7.950692888318043,-36.45155543405095 L8.116609760308696,-36.354468070611674 L8.277637490079325,-36.25540513043311 L8.43367908054673,-36.154426285326224 L8.584640538091588,-36.051592361171465 L8.730430929176684,-35.94696530127953 L8.870962435121882,-35.84060812907905 L9.006150405002813,-35.7325849101536 L9.135913406641427,-35.62296071365101 L9.260173275657685,-35.51180157308815 L9.378855162552867,-35.399174446574776 L9.49188757779611,-35.28514717648051 L9.599202434887028,-35.16978844856909 L9.700735091368468,-35.05316775062469 L9.796424387764716,-34.935355330595 L9.886212684421675,-34.81642215427657 L9.970045896226843,-34.696439862567615 L10.04787352518815,-34.57548072831423 L10.119648690852076,-34.453617612775936 L10.185328158542669,-34.33092392173678 L10.244872365404506,-34.20747356128843 L10.298245444233878,-34.08334089331191 L10.34541524508384,-33.958600690684804 L10.386353354630156,-33.83332809224082 L10.421035113286411,-33.70759855750902 L10.449439630058023,-33.581487821259806 L10.471549795126204,-33.45507184788511 L10.487352290154268,-33.32842678564028 L10.496837596310103,-33.20162892077526 L10.499999999999957,-33.07475463158259 " />
			<path d="M10.499999999999957,-33.07475463158257 L10.498221108856104,-32.979594734799875 L10.492885038177628,-32.884467081654826 L10.483993596019552,-32.78940390485975 L10.471549795126204,-32.69443741528004 L10.455557851910385,-32.59959979101993 L10.436023185024697,-32.50492316651941 L10.412952413525502,-32.41043962166588 L10.386353354630158,-32.316181170924324 L10.356235021068244,-32.22217975248965 L10.32260761802773,-32.128467217464866 L10.285482539697083,-32.035075319068746 L10.244872365404508,-31.942035701876712 L10.200790855355601,-31.8493798910985 L10.153252945970905,-31.75713928189624 L10.102274744824895,-31.665345128746658 L10.047873525188152,-31.574028534850914 L9.990067720174546,-31.48322044159571 L9.928876916495433,-31.392951618069212 L9.864321847822954,-31.303252650635372 L9.796424387764718,-31.21415393257014 L9.725207542452228,-31.12568565376315 L9.650695442745564,-31.03787779048823 L9.57291333605697,-30.950760095246405 L9.491887577796113,-30.864362086684636 L9.407645622439905,-30.778713039593832 L9.320216014229926,-30.693841974989486 L9.22962837750061,-30.6097776502783 L9.135913406641428,-30.526548549514132 L9.039102855696514,-30.44418287374656 L8.939229527605242,-30.362708531465326 L8.836327263087393,-30.282153129143946 L8.730430929176684,-30.20254396188561 L8.621576407406558,-30.12390800417463 L8.509800581652206,-30.046271900736482 L8.395141325632965,-29.969661957509615 L8.277637490079327,-29.894104132732032 L8.157328889568902,-29.819624028145707 L8.034256289035778,-29.74624688032177 L7.90846138995789,-29.673997552109444 L7.77998681622703,-29.602900524211613 L7.648876099706326,-29.532979886889848 L7.515173665480058,-29.46425933180177 L7.378924816800827,-29.396762143973447 L7.240175719739161,-29.330511193909572 L7.0989733875407754,-29.265528929844123 L6.955365664696764,-29.201837370134054 L6.809401210732142,-29.139458095798705 L6.6611294837182395,-29.078412243207346 L6.510600723514504,-29.018720496917414 L6.357865934745384,-28.960403082665827 L6.202976869518144,-28.90347976051578 L6.045986009887339,-28.847969818161296 L5.886946550071991,-28.793892064391873 L5.725912378431449,-28.74126482271937 L5.398078814028786,-28.64043270623888 L5.062929606830744,-28.545610119512055 L4.7209189613733304,-28.45692556903117 L4.372510381025156,-28.374499242832595 L4.018176039833406,-28.29844284761424 L3.6583961426190235,-28.22885945734721 L3.293658274188327,-28.165843373586792 L2.92445673854303,-28.10947999767206 L2.55129188898424,-28.059845714987357 L2.174669450018261,-28.01700779144247 L1.7950998319831253,-27.981024282311793 L1.4130974393247844,-27.951943953556036 L1.0291799734603517,-27.929806215733073 L0.6438677311731614,-27.914641070587564 L0.2576828994905471,-27.906469070391648 L-0.12885115200009448,-27.90530129009188 L-0.5152105804379278,-27.911139312300115 L-0.9008717796166608,-27.923975225148713 L-1.2853120895918062,-27.943791633012935 L-1.6680105050055754,-27.970561680086032 L-2.04844838116938,-28.004249086775076 L-2.4261101369470834,-28.04480819886816 L-2.800483953486473,-28.092184049406413 L-3.1710624678519377,-28.146312433176902 L-3.5373434606183483,-28.207119993725527 L-3.8988305364943265,-28.274524322771946 L-4.2550337970524295,-28.348434071891806 L-4.605470504654579,-28.428749076314965 L-4.949665736673017,-28.515360490671846 L-5.28715302912008,-28.608150936504067 L-5.61747500881456,-28.70699466133933 L-5.940184013227974,-28.811757709115046 L-6.098546560005564,-28.866314919118917 L-6.254842697170588,-28.92229810171973 L-6.409019465901289,-28.979688287776963 L-6.561024625495097,-29.0384660314061 L-6.710806671069687,-29.098611416567596 L-6.858314851014699,-29.16010406381517 L-7.003499184188239,-29.22292313720108 L-7.146310476852303,-29.287047351336128 L-7.286700339341413,-29.35245497860191 L-7.424621202458725,-29.419123856512883 " />
			<path d="M16.000000000000004,-8.703882797784892 L16.000000000000004,0.0 " />
			<path d="M-16.000000000000004,-8.703882797784892 L-16.000000000000004,0.0 " />
			<path d="M14.100000000000001,-15.666989036012808 L14.100000000000001,-8.703882797784892 " />
			<path d="M-14.100000000000001,-15.666989036012808 L-14.100000000000001,-8.703882797784892 " />
			<path d="M12.500000000000002,-33.07475463158259 L12.500000000000002,-15.666989036012808 " />
			<path d="M-12.500000000000002,-33.07475463158259 L-12.500000000000002,-15.666989036012808 " />

       </g>
    </g>
    
</svg>
