<?xml version="1.0" encoding="UTF-8" standalone="no"?>
<svg
   xmlns:svg="http://www.w3.org/2000/svg"
   xmlns="http://www.w3.org/2000/svg"
   width="800.0"
   height="800.0"

>
    <g transform="scale(13.636363574380166, -13.636363574380166)   translate(6.933333446666667,-20.933333446666673)" stroke-width="0.07333333366666667"  fill="none">
       <!-- hidden lines -->
       <g  stroke="rgb(180,180,180)" fill="none" stroke-dasharray="0.07333333366666667,0.07333333366666667" >

       </g>

       <!-- solid lines -->
       <g  stroke="rgb(40,40,40)" fill="none">
			<path d="M0.0,0.0 L0.0,-2.0153605698595416 L0.0,-4.005376811213659 L0.0,-5.945023115193008 L0.0,-7.809907304116046 L0.0,-9.576577377276058 L0.0,-11.222816433457202 L0.0,-12.727922061357855 L0.0,-14.072966684424536 L0.0,-15.241035586109113 L0.0,-16.217439622243546 L0.0,-16.989899945550615 L0.0,-17.548702419272825 L0.0,-17.886819778078365 L0.0,-17.999999999999996 " />
			<path d="M0.0,18.0 L0.0,17.886819778078365 L0.0,17.548702419272825 L0.0,16.989899945550615 L0.0,16.217439622243546 L0.0,15.241035586109117 L0.0,14.07296668442454 L0.0,12.727922061357859 L0.0,11.222816433457206 L0.0,9.576577377276063 L0.0,7.8099073041160505 L0.0,5.9450231151930115 L0.0,4.005376811213663 L0.0,2.0153605698595456 L0.0,1.6342482922482304e-13 " />
			<path d="M12.0,0.0 L12.0,-2.0153605698595416 L12.0,-4.005376811213659 L12.0,-5.945023115193008 L12.0,-7.809907304116046 L12.0,-9.576577377276058 L12.0,-11.222816433457202 L12.0,-12.727922061357855 L12.0,-14.072966684424536 L12.0,-15.241035586109113 L12.0,-16.217439622243546 L12.0,-16.989899945550615 L12.0,-17.548702419272825 L12.0,-17.886819778078365 L12.0,-17.999999999999996 " />
			<path d="M12.0,18.0 L12.0,17.886819778078365 L12.0,17.548702419272825 L12.0,16.989899945550615 L12.0,16.217439622243546 L12.0,15.241035586109117 L12.0,14.07296668442454 L12.0,12.727922061357859 L12.0,11.222816433457206 L12.0,9.576577377276063 L12.0,7.8099073041160505 L12.0,5.9450231151930115 L12.0,4.005376811213663 L12.0,2.0153605698595456 L12.0,1.6342482922482304e-13 " />
			<path d="M20.0,0.0 L20.0,-1.5786991130566408 L20.0,-3.137545168784033 L20.0,-4.656934773567856 L20.0,-6.11776072155757 L20.0,-7.501652278866246 L20.0,-8.791206206208141 L20.0,-9.970205614730318 L20.0,-11.02382390279922 L20.0,-11.938811209118805 L20.0,-12.70366103742411 L20.0,-13.308754957347983 L20.0,-13.746483561763712 L20.0,-14.01134215949472 L20.0,-14.099999999999998 " />
			<path d="M20.0,14.1 L20.0,14.01134215949472 L20.0,13.746483561763712 L20.0,13.308754957347983 L20.0,12.70366103742411 L20.0,11.938811209118807 L20.0,11.023823902799222 L20.0,9.970205614730322 L20.0,8.791206206208145 L20.0,7.501652278866248 L20.0,6.1177607215575724 L20.0,4.656934773567859 L20.0,3.1375451687840363 L20.0,1.5786991130566441 L20.0,1.283417816466681e-13 " />
			<path d="M-4.0,13.000000000000002 L-4.0,12.729238842718209 L-4.0,11.92823407922554 L-4.0,10.630352013637607 L-4.0,8.889656653661163 L-4.0,6.7786576439334745 L-4.0,4.3852898359767885 L-4.0,1.809250312480848 L-4.0,-0.8421545507719785 L-4.0,-3.4584789923667816 L-4.0,-5.930738545591124 L-4.0,-8.15594984771701 L-4.0,-10.041420469919801 L-4.0,-11.508610072555122 L-4.0,-12.496402047198101 " />
			<path d="M-4.0,-12.496402047198144 L-4.0,-13.457663743136463 " />
			<path d="M-4.0,-13.457663743136463 L-4.0,-13.490826344920722 " />
			<path d="M-4.0,-13.490826344920722 L-4.0,-13.522961568046956 " />
			<path d="M-4.0,-13.522961568046956 L-4.0,-13.554066965293508 " />
			<path d="M-4.0,-13.554066965293508 L-4.0,-13.584140167863948 " />
			<path d="M-4.0,-13.584140167863948 L-4.0,-13.613178885567471 " />
			<path d="M-4.0,-13.613178885567471 L-4.0,-13.641180906993291 " />
			<path d="M-4.0,-13.641180906993291 L-4.0,-13.668144099679067 " />
			<path d="M-4.0,-13.668144099679067 L-4.0,-13.694066410273278 " />
			<path d="M-4.0,-13.69406641027328 L-4.0,-13.718945864691614 " />
			<path d="M-4.0,-13.718945864691612 L-4.0,-13.742780568267294 " />
			<path d="M-4.0,-13.742780568267296 L-4.0,-13.765568705895364 " />
			<path d="M-4.0,-13.765568705895364 L-4.0,-13.787308542170912 " />
			<path d="M-4.0,-13.787308542170912 L-4.0,-13.807998421521239 " />
			<path d="M-4.0,-13.807998421521239 L-4.0,-13.827636768331928 " />
			<path d="M-4.0,-13.827636768331928 L-4.0,-13.846222087066833 " />
			<path d="M-4.0,-13.846222087066835 L-4.0,-13.863752962381984 " />
			<path d="M-4.0,-13.863752962381984 L-4.0,-13.880228059233346 " />
			<path d="M-4.0,-13.880228059233344 L-4.0,-13.895646122978505 " />
			<path d="M-4.0,-13.895646122978508 L-4.0,-13.910005979472226 " />
			<path d="M-4.0,-13.910005979472224 L-4.0,-13.923306535155826 " />
			<path d="M-4.0,-13.923306535155826 L-4.0,-13.935546777140503 " />
			<path d="M-4.0,-13.935546777140502 L-4.0,-13.946725773284436 " />
			<path d="M-4.0,-13.946725773284438 L-4.0,-13.956842672263791 " />
			<path d="M-4.0,-13.956842672263791 L-4.0,-13.965896703637538 " />
			<path d="M-4.0,13.965896703637538 L-4.0,13.0 " />
			<path d="M0.0,-12.496402047198146 L-4.0,-12.496402047198146 " />
			<path d="M-4.0,-13.457663743136463 L0.0,-13.457663743136463 " />
			<path d="M-4.0,-13.490826344920722 L0.0,-13.490826344920722 " />
			<path d="M-4.0,-13.522961568046956 L0.0,-13.522961568046956 " />
			<path d="M-4.0,-13.554066965293508 L0.0,-13.554066965293508 " />
			<path d="M-4.0,-13.584140167863948 L0.0,-13.584140167863948 " />
			<path d="M-4.0,-13.613178885567471 L0.0,-13.613178885567471 " />
			<path d="M-4.0,-13.641180906993291 L0.0,-13.641180906993291 " />
			<path d="M-4.0,-13.668144099679067 L0.0,-13.668144099679067 " />
			<path d="M-4.0,-13.69406641027328 L0.0,-13.69406641027328 " />
			<path d="M-4.0,-13.718945864691612 L0.0,-13.718945864691612 " />
			<path d="M-4.0,-13.742780568267296 L0.0,-13.742780568267296 " />
			<path d="M-4.0,-13.765568705895364 L0.0,-13.765568705895364 " />
			<path d="M-4.0,-13.787308542170912 L0.0,-13.787308542170912 " />
			<path d="M-4.0,-13.807998421521239 L0.0,-13.807998421521239 " />
			<path d="M-4.0,-13.827636768331928 L0.0,-13.827636768331928 " />
			<path d="M-4.0,-13.846222087066835 L0.0,-13.846222087066835 " />
			<path d="M-4.0,-13.863752962381984 L0.0,-13.863752962381984 " />
			<path d="M-4.0,-13.880228059233344 L0.0,-13.880228059233344 " />
			<path d="M-4.0,-13.895646122978508 L0.0,-13.895646122978508 " />
			<path d="M-4.0,-13.910005979472224 L0.0,-13.910005979472224 " />
			<path d="M-4.0,-13.923306535155826 L0.0,-13.923306535155826 " />
			<path d="M-4.0,-13.935546777140502 L0.0,-13.935546777140502 " />
			<path d="M-4.0,-13.946725773284438 L0.0,-13.946725773284438 " />
			<path d="M-4.0,-13.956842672263791 L0.0,-13.956842672263791 " />
			<path d="M-4.0,-13.965896703637538 L0.0,-13.965896703637538 " />
			<path d="M-4.0,13.965896703637538 L0.0,13.965896703637538 " />
			<path d="M40.0,0.0 L40.0,-1.3995559512913482 L40.0,-2.78151167445393 L40.0,-4.128488274439588 L40.0,-5.423546738969477 L40.0,-6.6504009564417075 L40.0,-7.793622523234169 L40.0,-8.838834764831843 L40.0,-9.772893530850373 L40.0,-10.584052490353551 L40.0,-11.262110848780239 L40.0,-11.798541628854595 L40.0,-12.186598902272795 L40.0,-12.421402623665532 L40.0,-12.499999999999998 " />
			<path d="M40.0,12.5 L40.0,12.421402623665532 L40.0,12.186598902272795 L40.0,11.798541628854595 L40.0,11.26211084878024 L40.0,10.584052490353553 L40.0,9.772893530850373 L40.0,8.838834764831846 L40.0,7.793622523234172 L40.0,6.65040095644171 L40.0,5.423546738969479 L40.0,4.128488274439592 L40.0,2.781511674453933 L40.0,1.3995559512913511 L40.0,1.1368683772161603e-13 " />
			<path d="M12.0,18.0 L0.0,18.0 " />
			<path d="M12.0,-18.0 L0.0,-18.0 " />
			<path d="M20.0,14.1 L12.0,14.1 " />
			<path d="M20.0,-14.1 L12.0,-14.1 " />
			<path d="M0.0,13.0 L-4.0,13.0 " />
			<path d="M40.0,12.5 L20.0,12.5 " />
			<path d="M40.0,-12.5 L20.0,-12.5 " />

       </g>
    </g>
    
</svg>
