ISO-10303-21;
HEADER;
FILE_DESCRIPTION(('Open CASCADE Model'),'2;1');
FILE_NAME('Open CASCADE Shape Model','2026-10-02T01:47:02',('Author'),(
    'Open CASCADE'),'Open CASCADE STEP processor 7.9','Open CASCADE 7.9'
  ,'Unknown');
FILE_SCHEMA(('AUTOMOTIVE_DESIGN { 1 0 10303 214 1 1 1 1 }'));
ENDSEC;
DATA;
#1 = APPLICATION_PROTOCOL_DEFINITION('international standard',
  'automotive_design',2000,#2);
#2 = APPLICATION_CONTEXT(
  'core data for automotive mechanical design processes');
#3 = SHAPE_DEFINITION_REPRESENTATION(#4,#10);
#4 = PRODUCT_DEFINITION_SHAPE('','',#5);
#5 = PRODUCT_DEFINITION('design','',#6,#9);
#6 = PRODUCT_DEFINITION_FORMATION('','',#7);
#7 = PRODUCT('Open CASCADE STEP translator 7.9 1',
  'Open CASCADE STEP translator 7.9 1','',(#8));
#8 = PRODUCT_CONTEXT('',#2,'mechanical');
#9 = PRODUCT_DEFINITION_CONTEXT('part definition',#2,'design');
#10 = ADVANCED_BREP_SHAPE_REPRESENTATION('',(#11,#15),#904);
#11 = AXIS2_PLACEMENT_3D('',#12,#13,#14);
#12 = CARTESIAN_POINT('',(0.,0.,0.));
#13 = DIRECTION('',(0.,0.,1.));
#14 = DIRECTION('',(1.,0.,-0.));
#15 = MANIFOLD_SOLID_BREP('',#16);
#16 = CLOSED_SHELL('',(#17,#447,#523,#572,#621,#670,#719,#746,#801,#810,
    #845,#900));
#17 = ADVANCED_FACE('',(#18),#43,.T.);
#18 = FACE_BOUND('',#19,.T.);
#19 = EDGE_LOOP('',(#20,#92,#116,#143,#144,#205,#266,#327,#388));
#20 = ORIENTED_EDGE('',*,*,#21,.F.);
#21 = EDGE_CURVE('',#22,#24,#26,.T.);
#22 = VERTEX_POINT('',#23);
#23 = CARTESIAN_POINT('',(2.7424125,0.,-2.385473535751));
#24 = VERTEX_POINT('',#25);
#25 = CARTESIAN_POINT('',(1.37120625,-2.374998892656,-2.385473535751));
#26 = SURFACE_CURVE('',#27,(#42,#69),.PCURVE_S1.);
#27 = B_SPLINE_CURVE_WITH_KNOTS('',7,(#28,#29,#30,#31,#32,#33,#34,#35,
    #36,#37,#38,#39,#40,#41),.UNSPECIFIED.,.F.,.F.,(8,6,8),(0.,
    0.502643567349,1.),.UNSPECIFIED.);
#28 = CARTESIAN_POINT('',(2.7424125,-8.881784197001E-16,-2.385473535751)
  );
#29 = CARTESIAN_POINT('',(2.64361829966,-0.171116574482,-2.428160250657)
  );
#30 = CARTESIAN_POINT('',(2.54463725002,-0.342556781445,-2.462648653014)
  );
#31 = CARTESIAN_POINT('',(2.4457957287,-0.513755318269,-2.48935287531));
#32 = CARTESIAN_POINT('',(2.347292135668,-0.684368546128,-2.508805242068
    ));
#33 = CARTESIAN_POINT('',(2.24913370555,-0.854383934283,-2.521528069746)
  );
#34 = CARTESIAN_POINT('',(2.151169968216,-1.024062104645,-2.527789926276
    ));
#35 = CARTESIAN_POINT('',(1.956265472866,-1.361646593215,-2.52738397329)
  );
#36 = CARTESIAN_POINT('',(1.859322325028,-1.529557050717,-2.520851460403
    ));
#37 = CARTESIAN_POINT('',(1.762182373156,-1.697808382803,-2.507982020376
    ));
#38 = CARTESIAN_POINT('',(1.664704162954,-1.866645595505,-2.488507733397
    ));
#39 = CARTESIAN_POINT('',(1.566899053621,-2.036049014109,-2.461922202594
    ));
#40 = CARTESIAN_POINT('',(1.468960775779,-2.205683087337,-2.427711031052
    ));
#41 = CARTESIAN_POINT('',(1.37120625,-2.374998892656,-2.385473535751));
#42 = PCURVE('',#43,#52);
#43 = SURFACE_OF_REVOLUTION('',#44,#49);
#44 = CIRCLE('',#45,5.08137250519);
#45 = AXIS2_PLACEMENT_3D('',#46,#47,#48);
#46 = CARTESIAN_POINT('',(0.726955409357,0.,2.279103535354));
#47 = DIRECTION('',(0.,-1.,0.));
#48 = DIRECTION('',(-0.143062806085,-0.,-0.989713611867));
#49 = AXIS1_PLACEMENT('',#50,#51);
#50 = CARTESIAN_POINT('',(0.,0.,0.));
#51 = DIRECTION('',(0.,0.,1.));
#52 = DEFINITIONAL_REPRESENTATION('',(#53),#68);
#53 = B_SPLINE_CURVE_WITH_KNOTS('',7,(#54,#55,#56,#57,#58,#59,#60,#61,
    #62,#63,#64,#65,#66,#67),.UNSPECIFIED.,.F.,.F.,(8,6,8),(0.,
    0.502643567349,1.),.UNSPECIFIED.);
#54 = CARTESIAN_POINT('',(6.28318530718,0.551405106002));
#55 = CARTESIAN_POINT('',(6.22078894103,0.530225436584));
#56 = CARTESIAN_POINT('',(6.153028689377,0.511902300712));
#57 = CARTESIAN_POINT('',(6.080082380293,0.49680256412));
#58 = CARTESIAN_POINT('',(6.002517502609,0.485262301342));
#59 = CARTESIAN_POINT('',(5.921589406645,0.477537191025));
#60 = CARTESIAN_POINT('',(5.839047369047,0.473737591475));
#61 = CARTESIAN_POINT('',(5.67491870538,0.473983914033));
#62 = CARTESIAN_POINT('',(5.59333146246,0.477947730289));
#63 = CARTESIAN_POINT('',(5.513395221297,0.485750159382));
#64 = CARTESIAN_POINT('',(5.436790862267,0.497280068106));
#65 = CARTESIAN_POINT('',(5.3647192499,0.512288093708));
#66 = CARTESIAN_POINT('',(5.297727485261,0.530448323792));
#67 = CARTESIAN_POINT('',(5.235987755983,0.551405106002));
#68 = ( GEOMETRIC_REPRESENTATION_CONTEXT(2) 
PARAMETRIC_REPRESENTATION_CONTEXT() REPRESENTATION_CONTEXT('2D SPACE',''
  ) );
#69 = PCURVE('',#70,#75);
#70 = PLANE('',#71);
#71 = AXIS2_PLACEMENT_3D('',#72,#73,#74);
#72 = CARTESIAN_POINT('',(1.37120625,-2.374998892656,-3.575));
#73 = DIRECTION('',(-0.866025403784,0.5,0.));
#74 = DIRECTION('',(0.5,0.866025403784,0.));
#75 = DEFINITIONAL_REPRESENTATION('',(#76),#91);
#76 = B_SPLINE_CURVE_WITH_KNOTS('',7,(#77,#78,#79,#80,#81,#82,#83,#84,
    #85,#86,#87,#88,#89,#90),.UNSPECIFIED.,.F.,.F.,(8,6,8),(0.,
    0.502643567349,1.),.UNSPECIFIED.);
#77 = CARTESIAN_POINT('',(2.7424125,-1.189526464249));
#78 = CARTESIAN_POINT('',(2.54482409932,-1.146839749343));
#79 = CARTESIAN_POINT('',(2.34686200004,-1.112351346986));
#80 = CARTESIAN_POINT('',(2.1491789574,-1.08564712469));
#81 = CARTESIAN_POINT('',(1.952171771336,-1.066194757932));
#82 = CARTESIAN_POINT('',(1.755854911101,-1.053471930254));
#83 = CARTESIAN_POINT('',(1.559927436432,-1.047210073724));
#84 = CARTESIAN_POINT('',(1.170118445732,-1.04761602671));
#85 = CARTESIAN_POINT('',(0.976232150056,-1.054148539597));
#86 = CARTESIAN_POINT('',(0.781952246313,-1.067017979624));
#87 = CARTESIAN_POINT('',(0.586995825907,-1.086492266603));
#88 = CARTESIAN_POINT('',(0.391385607242,-1.113077797406));
#89 = CARTESIAN_POINT('',(0.195509051558,-1.147288968948));
#90 = CARTESIAN_POINT('',(0.,-1.189526464249));
#91 = ( GEOMETRIC_REPRESENTATION_CONTEXT(2) 
PARAMETRIC_REPRESENTATION_CONTEXT() REPRESENTATION_CONTEXT('2D SPACE',''
  ) );
#92 = ORIENTED_EDGE('',*,*,#93,.T.);
#93 = EDGE_CURVE('',#22,#94,#96,.T.);
#94 = VERTEX_POINT('',#95);
#95 = CARTESIAN_POINT('',(4.75,0.,-0.825));
#96 = SEAM_CURVE('',#97,(#102,#109),.PCURVE_S1.);
#97 = CIRCLE('',#98,5.08137250519);
#98 = AXIS2_PLACEMENT_3D('',#99,#100,#101);
#99 = CARTESIAN_POINT('',(0.726955409357,0.,2.279103535354));
#100 = DIRECTION('',(0.,-1.,0.));
#101 = DIRECTION('',(-0.143062806085,-0.,-0.989713611867));
#102 = PCURVE('',#43,#103);
#103 = DEFINITIONAL_REPRESENTATION('',(#104),#108);
#104 = LINE('',#105,#106);
#105 = CARTESIAN_POINT('',(0.,0.));
#106 = VECTOR('',#107,1.);
#107 = DIRECTION('',(0.,1.));
#108 = ( GEOMETRIC_REPRESENTATION_CONTEXT(2) 
PARAMETRIC_REPRESENTATION_CONTEXT() REPRESENTATION_CONTEXT('2D SPACE',''
  ) );
#109 = PCURVE('',#43,#110);
#110 = DEFINITIONAL_REPRESENTATION('',(#111),#115);
#111 = LINE('',#112,#113);
#112 = CARTESIAN_POINT('',(6.28318530718,0.));
#113 = VECTOR('',#114,1.);
#114 = DIRECTION('',(0.,1.));
#115 = ( GEOMETRIC_REPRESENTATION_CONTEXT(2) 
PARAMETRIC_REPRESENTATION_CONTEXT() REPRESENTATION_CONTEXT('2D SPACE',''
  ) );
#116 = ORIENTED_EDGE('',*,*,#117,.F.);
#117 = EDGE_CURVE('',#94,#94,#118,.T.);
#118 = SURFACE_CURVE('',#119,(#124,#131),.PCURVE_S1.);
#119 = CIRCLE('',#120,4.75);
#120 = AXIS2_PLACEMENT_3D('',#121,#122,#123);
#121 = CARTESIAN_POINT('',(0.,0.,-0.825));
#122 = DIRECTION('',(0.,0.,1.));
#123 = DIRECTION('',(1.,0.,-0.));
#124 = PCURVE('',#43,#125);
#125 = DEFINITIONAL_REPRESENTATION('',(#126),#130);
#126 = LINE('',#127,#128);
#127 = CARTESIAN_POINT('',(0.,1.057181396375));
#128 = VECTOR('',#129,1.);
#129 = DIRECTION('',(1.,0.));
#130 = ( GEOMETRIC_REPRESENTATION_CONTEXT(2) 
PARAMETRIC_REPRESENTATION_CONTEXT() REPRESENTATION_CONTEXT('2D SPACE',''
  ) );
#131 = PCURVE('',#132,#137);
#132 = CYLINDRICAL_SURFACE('',#133,4.75);
#133 = AXIS2_PLACEMENT_3D('',#134,#135,#136);
#134 = CARTESIAN_POINT('',(0.,0.,-0.825));
#135 = DIRECTION('',(0.,0.,1.));
#136 = DIRECTION('',(1.,0.,-0.));
#137 = DEFINITIONAL_REPRESENTATION('',(#138),#142);
#138 = LINE('',#139,#140);
#139 = CARTESIAN_POINT('',(0.,0.));
#140 = VECTOR('',#141,1.);
#141 = DIRECTION('',(1.,0.));
#142 = ( GEOMETRIC_REPRESENTATION_CONTEXT(2) 
PARAMETRIC_REPRESENTATION_CONTEXT() REPRESENTATION_CONTEXT('2D SPACE',''
  ) );
#143 = ORIENTED_EDGE('',*,*,#93,.F.);
#144 = ORIENTED_EDGE('',*,*,#145,.F.);
#145 = EDGE_CURVE('',#146,#22,#148,.T.);
#146 = VERTEX_POINT('',#147);
#147 = CARTESIAN_POINT('',(1.37120625,2.374998892656,-2.385473535751));
#148 = SURFACE_CURVE('',#149,(#164,#182),.PCURVE_S1.);
#149 = B_SPLINE_CURVE_WITH_KNOTS('',7,(#150,#151,#152,#153,#154,#155,
    #156,#157,#158,#159,#160,#161,#162,#163),.UNSPECIFIED.,.F.,.F.,(8,6,
    8),(0.,0.502900747833,1.),.UNSPECIFIED.);
#150 = CARTESIAN_POINT('',(1.37120625,2.374998892656,-2.385473535751));
#151 = CARTESIAN_POINT('',(1.470051021203,2.203794726869,-2.42818210117)
  );
#152 = CARTESIAN_POINT('',(1.569082794174,2.03226666452,-2.462683942378)
  );
#153 = CARTESIAN_POINT('',(1.667974724867,1.860980816102,-2.489393852306
    ));
#154 = CARTESIAN_POINT('',(1.766528182838,1.690281219633,-2.508845038576
    ));
#155 = CARTESIAN_POINT('',(1.864736143887,1.52018004139,-2.521560600656)
  );
#156 = CARTESIAN_POINT('',(1.962749527937,1.350415880393,-2.527809125009
    ));
#157 = CARTESIAN_POINT('',(2.157654053313,1.012831339818,-2.527363679704
    ));
#158 = CARTESIAN_POINT('',(2.254547559375,0.845006864394,-2.52081816943)
  );
#159 = CARTESIAN_POINT('',(2.351637971024,0.67684133849,-2.507941733211)
  );
#160 = CARTESIAN_POINT('',(2.449066300303,0.508090522083,-2.488466491186
    ));
#161 = CARTESIAN_POINT('',(2.546820989581,0.338774433576,-2.46188681951)
  );
#162 = CARTESIAN_POINT('',(2.644708541088,0.169228220937,-2.427689182266
    ));
#163 = CARTESIAN_POINT('',(2.7424125,0.,-2.385473535751));
#164 = PCURVE('',#43,#165);
#165 = DEFINITIONAL_REPRESENTATION('',(#166),#181);
#166 = B_SPLINE_CURVE_WITH_KNOTS('',7,(#167,#168,#169,#170,#171,#172,
    #173,#174,#175,#176,#177,#178,#179,#180),.UNSPECIFIED.,.F.,.F.,(8,6,
    8),(0.,0.502900747833,1.),.UNSPECIFIED.);
#167 = CARTESIAN_POINT('',(1.047197551197,0.551405106002));
#168 = CARTESIAN_POINT('',(0.98476924554,0.530214595116));
#169 = CARTESIAN_POINT('',(0.916971582851,0.511883551317));
#170 = CARTESIAN_POINT('',(0.843982670662,0.496779392142));
#171 = CARTESIAN_POINT('',(0.766371002503,0.485238692126));
#172 = CARTESIAN_POINT('',(0.685394631301,0.477517437));
#173 = CARTESIAN_POINT('',(0.602806200272,0.473725942327));
#174 = CARTESIAN_POINT('',(0.438677820259,0.473996227513));
#175 = CARTESIAN_POINT('',(0.357137070073,0.477967913975));
#176 = CARTESIAN_POINT('',(0.277249033589,0.48577400916));
#177 = CARTESIAN_POINT('',(0.200691323337,0.49730335006));
#178 = CARTESIAN_POINT('',(0.128662204006,0.512306875843));
#179 = CARTESIAN_POINT('',(6.17077922948E-02,0.530459164404));
#180 = CARTESIAN_POINT('',(0.,0.551405106002));
#181 = ( GEOMETRIC_REPRESENTATION_CONTEXT(2) 
PARAMETRIC_REPRESENTATION_CONTEXT() REPRESENTATION_CONTEXT('2D SPACE',''
  ) );
#182 = PCURVE('',#183,#188);
#183 = PLANE('',#184);
#184 = AXIS2_PLACEMENT_3D('',#185,#186,#187);
#185 = CARTESIAN_POINT('',(2.7424125,0.,-3.575));
#186 = DIRECTION('',(-0.866025403784,-0.5,0.));
#187 = DIRECTION('',(-0.5,0.866025403784,0.));
#188 = DEFINITIONAL_REPRESENTATION('',(#189),#204);
#189 = B_SPLINE_CURVE_WITH_KNOTS('',7,(#190,#191,#192,#193,#194,#195,
    #196,#197,#198,#199,#200,#201,#202,#203),.UNSPECIFIED.,.F.,.F.,(8,6,
    8),(0.,0.502900747833,1.),.UNSPECIFIED.);
#190 = CARTESIAN_POINT('',(2.7424125,-1.189526464249));
#191 = CARTESIAN_POINT('',(2.544722957593,-1.14681789883));
#192 = CARTESIAN_POINT('',(2.346659411652,-1.112316057622));
#193 = CARTESIAN_POINT('',(2.148875550267,-1.085606147694));
#194 = CARTESIAN_POINT('',(1.951768634323,-1.066154961424));
#195 = CARTESIAN_POINT('',(1.755352712226,-1.053439399344));
#196 = CARTESIAN_POINT('',(1.559325944126,-1.047190874991));
#197 = CARTESIAN_POINT('',(1.169516893375,-1.047636320296));
#198 = CARTESIAN_POINT('',(0.97572988125,-1.05418183057));
#199 = CARTESIAN_POINT('',(0.781549057952,-1.067058266789));
#200 = CARTESIAN_POINT('',(0.586692399395,-1.086533508814));
#201 = CARTESIAN_POINT('',(0.391183020839,-1.11311318049));
#202 = CARTESIAN_POINT('',(0.195407917825,-1.147310817734));
#203 = CARTESIAN_POINT('',(0.,-1.189526464249));
#204 = ( GEOMETRIC_REPRESENTATION_CONTEXT(2) 
PARAMETRIC_REPRESENTATION_CONTEXT() REPRESENTATION_CONTEXT('2D SPACE',''
  ) );
#205 = ORIENTED_EDGE('',*,*,#206,.F.);
#206 = EDGE_CURVE('',#207,#146,#209,.T.);
#207 = VERTEX_POINT('',#208);
#208 = CARTESIAN_POINT('',(-1.37120625,2.374998892656,-2.385473535751));
#209 = SURFACE_CURVE('',#210,(#225,#243),.PCURVE_S1.);
#210 = B_SPLINE_CURVE_WITH_KNOTS('',7,(#211,#212,#213,#214,#215,#216,
    #217,#218,#219,#220,#221,#222,#223,#224),.UNSPECIFIED.,.F.,.F.,(8,6,
    8),(0.,0.502900747833,1.),.UNSPECIFIED.);
#211 = CARTESIAN_POINT('',(-1.37120625,2.374998892656,-2.385473535751));
#212 = CARTESIAN_POINT('',(-1.173516707593,2.374998892656,-2.42818210117
    ));
#213 = CARTESIAN_POINT('',(-0.975453161653,2.374998892656,
    -2.462683942378));
#214 = CARTESIAN_POINT('',(-0.777669300265,2.374998892656,
    -2.489393852307));
#215 = CARTESIAN_POINT('',(-0.580562384325,2.374998892656,
    -2.508845038576));
#216 = CARTESIAN_POINT('',(-0.384146462226,2.374998892656,
    -2.521560600656));
#217 = CARTESIAN_POINT('',(-0.188119694126,2.374998892656,
    -2.527809125009));
#218 = CARTESIAN_POINT('',(0.201689356625,2.374998892656,-2.527363679704
    ));
#219 = CARTESIAN_POINT('',(0.39547636875,2.374998892656,-2.52081816943)
  );
#220 = CARTESIAN_POINT('',(0.589657192049,2.374998892656,-2.507941733211
    ));
#221 = CARTESIAN_POINT('',(0.784513850604,2.374998892656,-2.488466491186
    ));
#222 = CARTESIAN_POINT('',(0.980023229162,2.374998892656,-2.46188681951)
  );
#223 = CARTESIAN_POINT('',(1.175798332175,2.374998892656,-2.427689182266
    ));
#224 = CARTESIAN_POINT('',(1.37120625,2.374998892656,-2.385473535751));
#225 = PCURVE('',#43,#226);
#226 = DEFINITIONAL_REPRESENTATION('',(#227),#242);
#227 = B_SPLINE_CURVE_WITH_KNOTS('',7,(#228,#229,#230,#231,#232,#233,
    #234,#235,#236,#237,#238,#239,#240,#241),.UNSPECIFIED.,.F.,.F.,(8,6,
    8),(0.,0.502900747833,1.),.UNSPECIFIED.);
#228 = CARTESIAN_POINT('',(2.094395102393,0.551405106002));
#229 = CARTESIAN_POINT('',(2.031966796736,0.530214595116));
#230 = CARTESIAN_POINT('',(1.964169134048,0.511883551317));
#231 = CARTESIAN_POINT('',(1.891180221858,0.496779392142));
#232 = CARTESIAN_POINT('',(1.813568553701,0.485238692126));
#233 = CARTESIAN_POINT('',(1.732592182497,0.477517437));
#234 = CARTESIAN_POINT('',(1.650003751469,0.473725942327));
#235 = CARTESIAN_POINT('',(1.485875371456,0.473996227513));
#236 = CARTESIAN_POINT('',(1.40433462127,0.477967913975));
#237 = CARTESIAN_POINT('',(1.324446584785,0.48577400916));
#238 = CARTESIAN_POINT('',(1.247888874535,0.49730335006));
#239 = CARTESIAN_POINT('',(1.175859755203,0.512306875843));
#240 = CARTESIAN_POINT('',(1.108905343491,0.530459164404));
#241 = CARTESIAN_POINT('',(1.047197551197,0.551405106002));
#242 = ( GEOMETRIC_REPRESENTATION_CONTEXT(2) 
PARAMETRIC_REPRESENTATION_CONTEXT() REPRESENTATION_CONTEXT('2D SPACE',''
  ) );
#243 = PCURVE('',#244,#249);
#244 = PLANE('',#245);
#245 = AXIS2_PLACEMENT_3D('',#246,#247,#248);
#246 = CARTESIAN_POINT('',(1.37120625,2.374998892656,-3.575));
#247 = DIRECTION('',(-1.619337754076E-16,-1.,0.));
#248 = DIRECTION('',(-1.,1.619337754076E-16,0.));
#249 = DEFINITIONAL_REPRESENTATION('',(#250),#265);
#250 = B_SPLINE_CURVE_WITH_KNOTS('',7,(#251,#252,#253,#254,#255,#256,
    #257,#258,#259,#260,#261,#262,#263,#264),.UNSPECIFIED.,.F.,.F.,(8,6,
    8),(0.,0.502900747833,1.),.UNSPECIFIED.);
#251 = CARTESIAN_POINT('',(2.7424125,-1.189526464249));
#252 = CARTESIAN_POINT('',(2.544722957593,-1.14681789883));
#253 = CARTESIAN_POINT('',(2.346659411653,-1.112316057622));
#254 = CARTESIAN_POINT('',(2.148875550265,-1.085606147693));
#255 = CARTESIAN_POINT('',(1.951768634325,-1.066154961424));
#256 = CARTESIAN_POINT('',(1.755352712226,-1.053439399344));
#257 = CARTESIAN_POINT('',(1.559325944126,-1.047190874991));
#258 = CARTESIAN_POINT('',(1.169516893375,-1.047636320296));
#259 = CARTESIAN_POINT('',(0.97572988125,-1.05418183057));
#260 = CARTESIAN_POINT('',(0.781549057951,-1.067058266789));
#261 = CARTESIAN_POINT('',(0.586692399396,-1.086533508814));
#262 = CARTESIAN_POINT('',(0.391183020838,-1.11311318049));
#263 = CARTESIAN_POINT('',(0.195407917825,-1.147310817734));
#264 = CARTESIAN_POINT('',(0.,-1.189526464249));
#265 = ( GEOMETRIC_REPRESENTATION_CONTEXT(2) 
PARAMETRIC_REPRESENTATION_CONTEXT() REPRESENTATION_CONTEXT('2D SPACE',''
  ) );
#266 = ORIENTED_EDGE('',*,*,#267,.F.);
#267 = EDGE_CURVE('',#268,#207,#270,.T.);
#268 = VERTEX_POINT('',#269);
#269 = CARTESIAN_POINT('',(-2.7424125,3.358486690067E-16,-2.385473535751
    ));
#270 = SURFACE_CURVE('',#271,(#286,#304),.PCURVE_S1.);
#271 = B_SPLINE_CURVE_WITH_KNOTS('',7,(#272,#273,#274,#275,#276,#277,
    #278,#279,#280,#281,#282,#283,#284,#285),.UNSPECIFIED.,.F.,.F.,(8,6,
    8),(0.,0.502900747832,1.),.UNSPECIFIED.);
#272 = CARTESIAN_POINT('',(-2.7424125,4.440892098501E-16,-2.385473535751
    ));
#273 = CARTESIAN_POINT('',(-2.643567728797,0.171204165787,-2.42818210117
    ));
#274 = CARTESIAN_POINT('',(-2.544535955826,0.342732228136,
    -2.462683942379));
#275 = CARTESIAN_POINT('',(-2.445644025134,0.514018076553,
    -2.489393852306));
#276 = CARTESIAN_POINT('',(-2.347090567161,0.684717673024,
    -2.508845038577));
#277 = CARTESIAN_POINT('',(-2.248882606114,0.854818851265,
    -2.521560600656));
#278 = CARTESIAN_POINT('',(-2.150869222063,1.024583012263,
    -2.527809125009));
#279 = CARTESIAN_POINT('',(-1.955964696687,1.362167552839,
    -2.527363679704));
#280 = CARTESIAN_POINT('',(-1.859071190625,1.529992028261,-2.52081816943
    ));
#281 = CARTESIAN_POINT('',(-1.761980778975,1.698157554168,-2.50794173321
    ));
#282 = CARTESIAN_POINT('',(-1.664552449699,1.866908370571,
    -2.488466491187));
#283 = CARTESIAN_POINT('',(-1.566797760419,2.036224459082,-2.46188681951
    ));
#284 = CARTESIAN_POINT('',(-1.468910208912,2.205770671719,
    -2.427689182266));
#285 = CARTESIAN_POINT('',(-1.37120625,2.374998892656,-2.385473535751));
#286 = PCURVE('',#43,#287);
#287 = DEFINITIONAL_REPRESENTATION('',(#288),#303);
#288 = B_SPLINE_CURVE_WITH_KNOTS('',7,(#289,#290,#291,#292,#293,#294,
    #295,#296,#297,#298,#299,#300,#301,#302),.UNSPECIFIED.,.F.,.F.,(8,6,
    8),(0.,0.502900747832,1.),.UNSPECIFIED.);
#289 = CARTESIAN_POINT('',(3.14159265359,0.551405106002));
#290 = CARTESIAN_POINT('',(3.079164347933,0.530214595116));
#291 = CARTESIAN_POINT('',(3.011366685244,0.511883551317));
#292 = CARTESIAN_POINT('',(2.938377773055,0.496779392142));
#293 = CARTESIAN_POINT('',(2.860766104896,0.485238692126));
#294 = CARTESIAN_POINT('',(2.779789733695,0.477517437));
#295 = CARTESIAN_POINT('',(2.697201302666,0.473725942327));
#296 = CARTESIAN_POINT('',(2.533072922652,0.473996227513));
#297 = CARTESIAN_POINT('',(2.451532172467,0.477967913975));
#298 = CARTESIAN_POINT('',(2.371644135981,0.48577400916));
#299 = CARTESIAN_POINT('',(2.295086425731,0.49730335006));
#300 = CARTESIAN_POINT('',(2.223057306399,0.512306875843));
#301 = CARTESIAN_POINT('',(2.156102894688,0.530459164404));
#302 = CARTESIAN_POINT('',(2.094395102393,0.551405106002));
#303 = ( GEOMETRIC_REPRESENTATION_CONTEXT(2) 
PARAMETRIC_REPRESENTATION_CONTEXT() REPRESENTATION_CONTEXT('2D SPACE',''
  ) );
#304 = PCURVE('',#305,#310);
#305 = PLANE('',#306);
#306 = AXIS2_PLACEMENT_3D('',#307,#308,#309);
#307 = CARTESIAN_POINT('',(-1.37120625,2.374998892656,-3.575));
#308 = DIRECTION('',(0.866025403784,-0.5,0.));
#309 = DIRECTION('',(-0.5,-0.866025403784,0.));
#310 = DEFINITIONAL_REPRESENTATION('',(#311),#326);
#311 = B_SPLINE_CURVE_WITH_KNOTS('',7,(#312,#313,#314,#315,#316,#317,
    #318,#319,#320,#321,#322,#323,#324,#325),.UNSPECIFIED.,.F.,.F.,(8,6,
    8),(0.,0.502900747832,1.),.UNSPECIFIED.);
#312 = CARTESIAN_POINT('',(2.7424125,-1.189526464249));
#313 = CARTESIAN_POINT('',(2.544722957593,-1.14681789883));
#314 = CARTESIAN_POINT('',(2.346659411651,-1.112316057621));
#315 = CARTESIAN_POINT('',(2.148875550268,-1.085606147694));
#316 = CARTESIAN_POINT('',(1.951768634322,-1.066154961423));
#317 = CARTESIAN_POINT('',(1.755352712227,-1.053439399344));
#318 = CARTESIAN_POINT('',(1.559325944126,-1.047190874991));
#319 = CARTESIAN_POINT('',(1.169516893374,-1.047636320296));
#320 = CARTESIAN_POINT('',(0.975729881251,-1.05418183057));
#321 = CARTESIAN_POINT('',(0.781549057949,-1.06705826679));
#322 = CARTESIAN_POINT('',(0.586692399397,-1.086533508813));
#323 = CARTESIAN_POINT('',(0.391183020837,-1.11311318049));
#324 = CARTESIAN_POINT('',(0.195407917825,-1.147310817734));
#325 = CARTESIAN_POINT('',(0.,-1.189526464249));
#326 = ( GEOMETRIC_REPRESENTATION_CONTEXT(2) 
PARAMETRIC_REPRESENTATION_CONTEXT() REPRESENTATION_CONTEXT('2D SPACE',''
  ) );
#327 = ORIENTED_EDGE('',*,*,#328,.F.);
#328 = EDGE_CURVE('',#329,#268,#331,.T.);
#329 = VERTEX_POINT('',#330);
#330 = CARTESIAN_POINT('',(-1.37120625,-2.374998892656,-2.385473535751)
  );
#331 = SURFACE_CURVE('',#332,(#347,#365),.PCURVE_S1.);
#332 = B_SPLINE_CURVE_WITH_KNOTS('',7,(#333,#334,#335,#336,#337,#338,
    #339,#340,#341,#342,#343,#344,#345,#346),.UNSPECIFIED.,.F.,.F.,(8,6,
    8),(0.,0.502900747833,1.),.UNSPECIFIED.);
#333 = CARTESIAN_POINT('',(-1.37120625,-2.374998892656,-2.385473535751)
  );
#334 = CARTESIAN_POINT('',(-1.470051021203,-2.203794726869,
    -2.42818210117));
#335 = CARTESIAN_POINT('',(-1.569082794174,-2.03226666452,
    -2.462683942378));
#336 = CARTESIAN_POINT('',(-1.667974724866,-1.860980816103,
    -2.489393852306));
#337 = CARTESIAN_POINT('',(-1.766528182839,-1.690281219633,
    -2.508845038576));
#338 = CARTESIAN_POINT('',(-1.864736143886,-1.520180041391,
    -2.521560600656));
#339 = CARTESIAN_POINT('',(-1.962749527937,-1.350415880393,
    -2.527809125009));
#340 = CARTESIAN_POINT('',(-2.157654053313,-1.012831339818,
    -2.527363679704));
#341 = CARTESIAN_POINT('',(-2.254547559376,-0.845006864393,
    -2.52081816943));
#342 = CARTESIAN_POINT('',(-2.351637971024,-0.676841338491,
    -2.507941733211));
#343 = CARTESIAN_POINT('',(-2.449066300303,-0.508090522082,
    -2.488466491186));
#344 = CARTESIAN_POINT('',(-2.54682098958,-0.338774433576,-2.46188681951
    ));
#345 = CARTESIAN_POINT('',(-2.644708541088,-0.169228220937,
    -2.427689182266));
#346 = CARTESIAN_POINT('',(-2.7424125,3.358486690067E-16,-2.385473535751
    ));
#347 = PCURVE('',#43,#348);
#348 = DEFINITIONAL_REPRESENTATION('',(#349),#364);
#349 = B_SPLINE_CURVE_WITH_KNOTS('',7,(#350,#351,#352,#353,#354,#355,
    #356,#357,#358,#359,#360,#361,#362,#363),.UNSPECIFIED.,.F.,.F.,(8,6,
    8),(0.,0.502900747833,1.),.UNSPECIFIED.);
#350 = CARTESIAN_POINT('',(4.188790204786,0.551405106002));
#351 = CARTESIAN_POINT('',(4.12636189913,0.530214595116));
#352 = CARTESIAN_POINT('',(4.058564236441,0.511883551317));
#353 = CARTESIAN_POINT('',(3.985575324252,0.496779392142));
#354 = CARTESIAN_POINT('',(3.907963656093,0.485238692126));
#355 = CARTESIAN_POINT('',(3.826987284891,0.477517437));
#356 = CARTESIAN_POINT('',(3.744398853862,0.473725942327));
#357 = CARTESIAN_POINT('',(3.580270473849,0.473996227513));
#358 = CARTESIAN_POINT('',(3.498729723663,0.477967913975));
#359 = CARTESIAN_POINT('',(3.418841687179,0.48577400916));
#360 = CARTESIAN_POINT('',(3.342283976927,0.49730335006));
#361 = CARTESIAN_POINT('',(3.270254857596,0.512306875843));
#362 = CARTESIAN_POINT('',(3.203300445885,0.530459164404));
#363 = CARTESIAN_POINT('',(3.14159265359,0.551405106002));
#364 = ( GEOMETRIC_REPRESENTATION_CONTEXT(2) 
PARAMETRIC_REPRESENTATION_CONTEXT() REPRESENTATION_CONTEXT('2D SPACE',''
  ) );
#365 = PCURVE('',#366,#371);
#366 = PLANE('',#367);
#367 = AXIS2_PLACEMENT_3D('',#368,#369,#370);
#368 = CARTESIAN_POINT('',(-2.7424125,3.358486690067E-16,-3.575));
#369 = DIRECTION('',(0.866025403784,0.5,-0.));
#370 = DIRECTION('',(0.5,-0.866025403784,0.));
#371 = DEFINITIONAL_REPRESENTATION('',(#372),#387);
#372 = B_SPLINE_CURVE_WITH_KNOTS('',7,(#373,#374,#375,#376,#377,#378,
    #379,#380,#381,#382,#383,#384,#385,#386),.UNSPECIFIED.,.F.,.F.,(8,6,
    8),(0.,0.502900747833,1.),.UNSPECIFIED.);
#373 = CARTESIAN_POINT('',(2.7424125,-1.189526464249));
#374 = CARTESIAN_POINT('',(2.544722957593,-1.14681789883));
#375 = CARTESIAN_POINT('',(2.346659411652,-1.112316057622));
#376 = CARTESIAN_POINT('',(2.148875550267,-1.085606147694));
#377 = CARTESIAN_POINT('',(1.951768634322,-1.066154961424));
#378 = CARTESIAN_POINT('',(1.755352712227,-1.053439399344));
#379 = CARTESIAN_POINT('',(1.559325944126,-1.047190874991));
#380 = CARTESIAN_POINT('',(1.169516893375,-1.047636320296));
#381 = CARTESIAN_POINT('',(0.975729881249,-1.05418183057));
#382 = CARTESIAN_POINT('',(0.781549057953,-1.067058266789));
#383 = CARTESIAN_POINT('',(0.586692399394,-1.086533508814));
#384 = CARTESIAN_POINT('',(0.391183020839,-1.11311318049));
#385 = CARTESIAN_POINT('',(0.195407917824,-1.147310817734));
#386 = CARTESIAN_POINT('',(0.,-1.189526464249));
#387 = ( GEOMETRIC_REPRESENTATION_CONTEXT(2) 
PARAMETRIC_REPRESENTATION_CONTEXT() REPRESENTATION_CONTEXT('2D SPACE',''
  ) );
#388 = ORIENTED_EDGE('',*,*,#389,.F.);
#389 = EDGE_CURVE('',#24,#329,#390,.T.);
#390 = SURFACE_CURVE('',#391,(#406,#424),.PCURVE_S1.);
#391 = B_SPLINE_CURVE_WITH_KNOTS('',7,(#392,#393,#394,#395,#396,#397,
    #398,#399,#400,#401,#402,#403,#404,#405),.UNSPECIFIED.,.F.,.F.,(8,6,
    8),(0.,0.502900747834,1.),.UNSPECIFIED.);
#392 = CARTESIAN_POINT('',(1.37120625,-2.374998892656,-2.385473535751));
#393 = CARTESIAN_POINT('',(1.173516707592,-2.374998892656,
    -2.428182101171));
#394 = CARTESIAN_POINT('',(0.975453161654,-2.374998892656,
    -2.462683942378));
#395 = CARTESIAN_POINT('',(0.777669300262,-2.374998892656,
    -2.489393852307));
#396 = CARTESIAN_POINT('',(0.580562384328,-2.374998892656,
    -2.508845038576));
#397 = CARTESIAN_POINT('',(0.384146462224,-2.374998892656,
    -2.521560600656));
#398 = CARTESIAN_POINT('',(0.188119694127,-2.374998892656,
    -2.527809125009));
#399 = CARTESIAN_POINT('',(-0.201689356625,-2.374998892656,
    -2.527363679704));
#400 = CARTESIAN_POINT('',(-0.395476368751,-2.374998892656,
    -2.52081816943));
#401 = CARTESIAN_POINT('',(-0.589657192048,-2.374998892656,
    -2.507941733211));
#402 = CARTESIAN_POINT('',(-0.784513850605,-2.374998892656,
    -2.488466491186));
#403 = CARTESIAN_POINT('',(-0.980023229161,-2.374998892656,
    -2.46188681951));
#404 = CARTESIAN_POINT('',(-1.175798332175,-2.374998892656,
    -2.427689182266));
#405 = CARTESIAN_POINT('',(-1.37120625,-2.374998892656,-2.385473535751)
  );
#406 = PCURVE('',#43,#407);
#407 = DEFINITIONAL_REPRESENTATION('',(#408),#423);
#408 = B_SPLINE_CURVE_WITH_KNOTS('',7,(#409,#410,#411,#412,#413,#414,
    #415,#416,#417,#418,#419,#420,#421,#422),.UNSPECIFIED.,.F.,.F.,(8,6,
    8),(0.,0.502900747834,1.),.UNSPECIFIED.);
#409 = CARTESIAN_POINT('',(5.235987755983,0.551405106002));
#410 = CARTESIAN_POINT('',(5.173559450326,0.530214595116));
#411 = CARTESIAN_POINT('',(5.105761787639,0.511883551317));
#412 = CARTESIAN_POINT('',(5.032772875446,0.496779392142));
#413 = CARTESIAN_POINT('',(4.955161207292,0.485238692126));
#414 = CARTESIAN_POINT('',(4.874184836087,0.477517437));
#415 = CARTESIAN_POINT('',(4.791596405059,0.473725942327));
#416 = CARTESIAN_POINT('',(4.627468025046,0.473996227513));
#417 = CARTESIAN_POINT('',(4.545927274859,0.477967913975));
#418 = CARTESIAN_POINT('',(4.466039238375,0.48577400916));
#419 = CARTESIAN_POINT('',(4.389481528124,0.49730335006));
#420 = CARTESIAN_POINT('',(4.317452408793,0.512306875843));
#421 = CARTESIAN_POINT('',(4.250497997081,0.530459164404));
#422 = CARTESIAN_POINT('',(4.188790204786,0.551405106002));
#423 = ( GEOMETRIC_REPRESENTATION_CONTEXT(2) 
PARAMETRIC_REPRESENTATION_CONTEXT() REPRESENTATION_CONTEXT('2D SPACE',''
  ) );
#424 = PCURVE('',#425,#430);
#425 = PLANE('',#426);
#426 = AXIS2_PLACEMENT_3D('',#427,#428,#429);
#427 = CARTESIAN_POINT('',(-1.37120625,-2.374998892656,-3.575));
#428 = DIRECTION('',(6.477351016305E-16,1.,-0.));
#429 = DIRECTION('',(1.,-6.477351016305E-16,0.));
#430 = DEFINITIONAL_REPRESENTATION('',(#431),#446);
#431 = B_SPLINE_CURVE_WITH_KNOTS('',7,(#432,#433,#434,#435,#436,#437,
    #438,#439,#440,#441,#442,#443,#444,#445),.UNSPECIFIED.,.F.,.F.,(8,6,
    8),(0.,0.502900747834,1.),.UNSPECIFIED.);
#432 = CARTESIAN_POINT('',(2.7424125,-1.189526464249));
#433 = CARTESIAN_POINT('',(2.544722957592,-1.146817898829));
#434 = CARTESIAN_POINT('',(2.346659411654,-1.112316057622));
#435 = CARTESIAN_POINT('',(2.148875550262,-1.085606147693));
#436 = CARTESIAN_POINT('',(1.951768634328,-1.066154961424));
#437 = CARTESIAN_POINT('',(1.755352712224,-1.053439399344));
#438 = CARTESIAN_POINT('',(1.559325944127,-1.047190874991));
#439 = CARTESIAN_POINT('',(1.169516893375,-1.047636320296));
#440 = CARTESIAN_POINT('',(0.975729881249,-1.05418183057));
#441 = CARTESIAN_POINT('',(0.781549057952,-1.067058266789));
#442 = CARTESIAN_POINT('',(0.586692399395,-1.086533508814));
#443 = CARTESIAN_POINT('',(0.391183020839,-1.11311318049));
#444 = CARTESIAN_POINT('',(0.195407917825,-1.147310817734));
#445 = CARTESIAN_POINT('',(0.,-1.189526464249));
#446 = ( GEOMETRIC_REPRESENTATION_CONTEXT(2) 
PARAMETRIC_REPRESENTATION_CONTEXT() REPRESENTATION_CONTEXT('2D SPACE',''
  ) );
#447 = ADVANCED_FACE('',(#448),#70,.T.);
#448 = FACE_BOUND('',#449,.T.);
#449 = EDGE_LOOP('',(#450,#451,#474,#502));
#450 = ORIENTED_EDGE('',*,*,#21,.T.);
#451 = ORIENTED_EDGE('',*,*,#452,.T.);
#452 = EDGE_CURVE('',#24,#453,#455,.T.);
#453 = VERTEX_POINT('',#454);
#454 = CARTESIAN_POINT('',(1.37120625,-2.374998892656,-1.1));
#455 = SURFACE_CURVE('',#456,(#460,#467),.PCURVE_S1.);
#456 = LINE('',#457,#458);
#457 = CARTESIAN_POINT('',(1.37120625,-2.374998892656,-3.575));
#458 = VECTOR('',#459,1.);
#459 = DIRECTION('',(0.,0.,1.));
#460 = PCURVE('',#70,#461);
#461 = DEFINITIONAL_REPRESENTATION('',(#462),#466);
#462 = LINE('',#463,#464);
#463 = CARTESIAN_POINT('',(0.,0.));
#464 = VECTOR('',#465,1.);
#465 = DIRECTION('',(0.,-1.));
#466 = ( GEOMETRIC_REPRESENTATION_CONTEXT(2) 
PARAMETRIC_REPRESENTATION_CONTEXT() REPRESENTATION_CONTEXT('2D SPACE',''
  ) );
#467 = PCURVE('',#425,#468);
#468 = DEFINITIONAL_REPRESENTATION('',(#469),#473);
#469 = LINE('',#470,#471);
#470 = CARTESIAN_POINT('',(2.7424125,0.));
#471 = VECTOR('',#472,1.);
#472 = DIRECTION('',(0.,-1.));
#473 = ( GEOMETRIC_REPRESENTATION_CONTEXT(2) 
PARAMETRIC_REPRESENTATION_CONTEXT() REPRESENTATION_CONTEXT('2D SPACE',''
  ) );
#474 = ORIENTED_EDGE('',*,*,#475,.T.);
#475 = EDGE_CURVE('',#453,#476,#478,.T.);
#476 = VERTEX_POINT('',#477);
#477 = CARTESIAN_POINT('',(2.7424125,0.,-1.1));
#478 = SURFACE_CURVE('',#479,(#483,#490),.PCURVE_S1.);
#479 = LINE('',#480,#481);
#480 = CARTESIAN_POINT('',(1.37120625,-2.374998892656,-1.1));
#481 = VECTOR('',#482,1.);
#482 = DIRECTION('',(0.5,0.866025403784,0.));
#483 = PCURVE('',#70,#484);
#484 = DEFINITIONAL_REPRESENTATION('',(#485),#489);
#485 = LINE('',#486,#487);
#486 = CARTESIAN_POINT('',(0.,-2.475));
#487 = VECTOR('',#488,1.);
#488 = DIRECTION('',(1.,0.));
#489 = ( GEOMETRIC_REPRESENTATION_CONTEXT(2) 
PARAMETRIC_REPRESENTATION_CONTEXT() REPRESENTATION_CONTEXT('2D SPACE',''
  ) );
#490 = PCURVE('',#491,#496);
#491 = PLANE('',#492);
#492 = AXIS2_PLACEMENT_3D('',#493,#494,#495);
#493 = CARTESIAN_POINT('',(-1.079558502717E-16,-1.889227379756E-16,-1.1)
  );
#494 = DIRECTION('',(0.,0.,1.));
#495 = DIRECTION('',(1.,0.,-0.));
#496 = DEFINITIONAL_REPRESENTATION('',(#497),#501);
#497 = LINE('',#498,#499);
#498 = CARTESIAN_POINT('',(1.37120625,-2.374998892656));
#499 = VECTOR('',#500,1.);
#500 = DIRECTION('',(0.5,0.866025403784));
#501 = ( GEOMETRIC_REPRESENTATION_CONTEXT(2) 
PARAMETRIC_REPRESENTATION_CONTEXT() REPRESENTATION_CONTEXT('2D SPACE',''
  ) );
#502 = ORIENTED_EDGE('',*,*,#503,.F.);
#503 = EDGE_CURVE('',#22,#476,#504,.T.);
#504 = SURFACE_CURVE('',#505,(#509,#516),.PCURVE_S1.);
#505 = LINE('',#506,#507);
#506 = CARTESIAN_POINT('',(2.7424125,0.,-3.575));
#507 = VECTOR('',#508,1.);
#508 = DIRECTION('',(0.,0.,1.));
#509 = PCURVE('',#70,#510);
#510 = DEFINITIONAL_REPRESENTATION('',(#511),#515);
#511 = LINE('',#512,#513);
#512 = CARTESIAN_POINT('',(2.7424125,0.));
#513 = VECTOR('',#514,1.);
#514 = DIRECTION('',(0.,-1.));
#515 = ( GEOMETRIC_REPRESENTATION_CONTEXT(2) 
PARAMETRIC_REPRESENTATION_CONTEXT() REPRESENTATION_CONTEXT('2D SPACE',''
  ) );
#516 = PCURVE('',#183,#517);
#517 = DEFINITIONAL_REPRESENTATION('',(#518),#522);
#518 = LINE('',#519,#520);
#519 = CARTESIAN_POINT('',(0.,0.));
#520 = VECTOR('',#521,1.);
#521 = DIRECTION('',(0.,-1.));
#522 = ( GEOMETRIC_REPRESENTATION_CONTEXT(2) 
PARAMETRIC_REPRESENTATION_CONTEXT() REPRESENTATION_CONTEXT('2D SPACE',''
  ) );
#523 = ADVANCED_FACE('',(#524),#425,.T.);
#524 = FACE_BOUND('',#525,.T.);
#525 = EDGE_LOOP('',(#526,#527,#550,#571));
#526 = ORIENTED_EDGE('',*,*,#389,.T.);
#527 = ORIENTED_EDGE('',*,*,#528,.T.);
#528 = EDGE_CURVE('',#329,#529,#531,.T.);
#529 = VERTEX_POINT('',#530);
#530 = CARTESIAN_POINT('',(-1.37120625,-2.374998892656,-1.1));
#531 = SURFACE_CURVE('',#532,(#536,#543),.PCURVE_S1.);
#532 = LINE('',#533,#534);
#533 = CARTESIAN_POINT('',(-1.37120625,-2.374998892656,-3.575));
#534 = VECTOR('',#535,1.);
#535 = DIRECTION('',(0.,0.,1.));
#536 = PCURVE('',#425,#537);
#537 = DEFINITIONAL_REPRESENTATION('',(#538),#542);
#538 = LINE('',#539,#540);
#539 = CARTESIAN_POINT('',(0.,0.));
#540 = VECTOR('',#541,1.);
#541 = DIRECTION('',(0.,-1.));
#542 = ( GEOMETRIC_REPRESENTATION_CONTEXT(2) 
PARAMETRIC_REPRESENTATION_CONTEXT() REPRESENTATION_CONTEXT('2D SPACE',''
  ) );
#543 = PCURVE('',#366,#544);
#544 = DEFINITIONAL_REPRESENTATION('',(#545),#549);
#545 = LINE('',#546,#547);
#546 = CARTESIAN_POINT('',(2.7424125,0.));
#547 = VECTOR('',#548,1.);
#548 = DIRECTION('',(0.,-1.));
#549 = ( GEOMETRIC_REPRESENTATION_CONTEXT(2) 
PARAMETRIC_REPRESENTATION_CONTEXT() REPRESENTATION_CONTEXT('2D SPACE',''
  ) );
#550 = ORIENTED_EDGE('',*,*,#551,.T.);
#551 = EDGE_CURVE('',#529,#453,#552,.T.);
#552 = SURFACE_CURVE('',#553,(#557,#564),.PCURVE_S1.);
#553 = LINE('',#554,#555);
#554 = CARTESIAN_POINT('',(-1.37120625,-2.374998892656,-1.1));
#555 = VECTOR('',#556,1.);
#556 = DIRECTION('',(1.,-6.477351016305E-16,0.));
#557 = PCURVE('',#425,#558);
#558 = DEFINITIONAL_REPRESENTATION('',(#559),#563);
#559 = LINE('',#560,#561);
#560 = CARTESIAN_POINT('',(0.,-2.475));
#561 = VECTOR('',#562,1.);
#562 = DIRECTION('',(1.,0.));
#563 = ( GEOMETRIC_REPRESENTATION_CONTEXT(2) 
PARAMETRIC_REPRESENTATION_CONTEXT() REPRESENTATION_CONTEXT('2D SPACE',''
  ) );
#564 = PCURVE('',#491,#565);
#565 = DEFINITIONAL_REPRESENTATION('',(#566),#570);
#566 = LINE('',#567,#568);
#567 = CARTESIAN_POINT('',(-1.37120625,-2.374998892656));
#568 = VECTOR('',#569,1.);
#569 = DIRECTION('',(1.,-6.477351016305E-16));
#570 = ( GEOMETRIC_REPRESENTATION_CONTEXT(2) 
PARAMETRIC_REPRESENTATION_CONTEXT() REPRESENTATION_CONTEXT('2D SPACE',''
  ) );
#571 = ORIENTED_EDGE('',*,*,#452,.F.);
#572 = ADVANCED_FACE('',(#573),#366,.T.);
#573 = FACE_BOUND('',#574,.T.);
#574 = EDGE_LOOP('',(#575,#576,#599,#620));
#575 = ORIENTED_EDGE('',*,*,#328,.T.);
#576 = ORIENTED_EDGE('',*,*,#577,.T.);
#577 = EDGE_CURVE('',#268,#578,#580,.T.);
#578 = VERTEX_POINT('',#579);
#579 = CARTESIAN_POINT('',(-2.7424125,3.358486690067E-16,-1.1));
#580 = SURFACE_CURVE('',#581,(#585,#592),.PCURVE_S1.);
#581 = LINE('',#582,#583);
#582 = CARTESIAN_POINT('',(-2.7424125,3.358486690067E-16,-3.575));
#583 = VECTOR('',#584,1.);
#584 = DIRECTION('',(0.,0.,1.));
#585 = PCURVE('',#366,#586);
#586 = DEFINITIONAL_REPRESENTATION('',(#587),#591);
#587 = LINE('',#588,#589);
#588 = CARTESIAN_POINT('',(0.,0.));
#589 = VECTOR('',#590,1.);
#590 = DIRECTION('',(0.,-1.));
#591 = ( GEOMETRIC_REPRESENTATION_CONTEXT(2) 
PARAMETRIC_REPRESENTATION_CONTEXT() REPRESENTATION_CONTEXT('2D SPACE',''
  ) );
#592 = PCURVE('',#305,#593);
#593 = DEFINITIONAL_REPRESENTATION('',(#594),#598);
#594 = LINE('',#595,#596);
#595 = CARTESIAN_POINT('',(2.7424125,0.));
#596 = VECTOR('',#597,1.);
#597 = DIRECTION('',(0.,-1.));
#598 = ( GEOMETRIC_REPRESENTATION_CONTEXT(2) 
PARAMETRIC_REPRESENTATION_CONTEXT() REPRESENTATION_CONTEXT('2D SPACE',''
  ) );
#599 = ORIENTED_EDGE('',*,*,#600,.T.);
#600 = EDGE_CURVE('',#578,#529,#601,.T.);
#601 = SURFACE_CURVE('',#602,(#606,#613),.PCURVE_S1.);
#602 = LINE('',#603,#604);
#603 = CARTESIAN_POINT('',(-2.7424125,3.358486690067E-16,-1.1));
#604 = VECTOR('',#605,1.);
#605 = DIRECTION('',(0.5,-0.866025403784,0.));
#606 = PCURVE('',#366,#607);
#607 = DEFINITIONAL_REPRESENTATION('',(#608),#612);
#608 = LINE('',#609,#610);
#609 = CARTESIAN_POINT('',(0.,-2.475));
#610 = VECTOR('',#611,1.);
#611 = DIRECTION('',(1.,0.));
#612 = ( GEOMETRIC_REPRESENTATION_CONTEXT(2) 
PARAMETRIC_REPRESENTATION_CONTEXT() REPRESENTATION_CONTEXT('2D SPACE',''
  ) );
#613 = PCURVE('',#491,#614);
#614 = DEFINITIONAL_REPRESENTATION('',(#615),#619);
#615 = LINE('',#616,#617);
#616 = CARTESIAN_POINT('',(-2.7424125,5.247714069822E-16));
#617 = VECTOR('',#618,1.);
#618 = DIRECTION('',(0.5,-0.866025403784));
#619 = ( GEOMETRIC_REPRESENTATION_CONTEXT(2) 
PARAMETRIC_REPRESENTATION_CONTEXT() REPRESENTATION_CONTEXT('2D SPACE',''
  ) );
#620 = ORIENTED_EDGE('',*,*,#528,.F.);
#621 = ADVANCED_FACE('',(#622),#305,.T.);
#622 = FACE_BOUND('',#623,.T.);
#623 = EDGE_LOOP('',(#624,#625,#648,#669));
#624 = ORIENTED_EDGE('',*,*,#267,.T.);
#625 = ORIENTED_EDGE('',*,*,#626,.T.);
#626 = EDGE_CURVE('',#207,#627,#629,.T.);
#627 = VERTEX_POINT('',#628);
#628 = CARTESIAN_POINT('',(-1.37120625,2.374998892656,-1.1));
#629 = SURFACE_CURVE('',#630,(#634,#641),.PCURVE_S1.);
#630 = LINE('',#631,#632);
#631 = CARTESIAN_POINT('',(-1.37120625,2.374998892656,-3.575));
#632 = VECTOR('',#633,1.);
#633 = DIRECTION('',(0.,0.,1.));
#634 = PCURVE('',#305,#635);
#635 = DEFINITIONAL_REPRESENTATION('',(#636),#640);
#636 = LINE('',#637,#638);
#637 = CARTESIAN_POINT('',(0.,0.));
#638 = VECTOR('',#639,1.);
#639 = DIRECTION('',(0.,-1.));
#640 = ( GEOMETRIC_REPRESENTATION_CONTEXT(2) 
PARAMETRIC_REPRESENTATION_CONTEXT() REPRESENTATION_CONTEXT('2D SPACE',''
  ) );
#641 = PCURVE('',#244,#642);
#642 = DEFINITIONAL_REPRESENTATION('',(#643),#647);
#643 = LINE('',#644,#645);
#644 = CARTESIAN_POINT('',(2.7424125,0.));
#645 = VECTOR('',#646,1.);
#646 = DIRECTION('',(0.,-1.));
#647 = ( GEOMETRIC_REPRESENTATION_CONTEXT(2) 
PARAMETRIC_REPRESENTATION_CONTEXT() REPRESENTATION_CONTEXT('2D SPACE',''
  ) );
#648 = ORIENTED_EDGE('',*,*,#649,.T.);
#649 = EDGE_CURVE('',#627,#578,#650,.T.);
#650 = SURFACE_CURVE('',#651,(#655,#662),.PCURVE_S1.);
#651 = LINE('',#652,#653);
#652 = CARTESIAN_POINT('',(-1.37120625,2.374998892656,-1.1));
#653 = VECTOR('',#654,1.);
#654 = DIRECTION('',(-0.5,-0.866025403784,0.));
#655 = PCURVE('',#305,#656);
#656 = DEFINITIONAL_REPRESENTATION('',(#657),#661);
#657 = LINE('',#658,#659);
#658 = CARTESIAN_POINT('',(0.,-2.475));
#659 = VECTOR('',#660,1.);
#660 = DIRECTION('',(1.,0.));
#661 = ( GEOMETRIC_REPRESENTATION_CONTEXT(2) 
PARAMETRIC_REPRESENTATION_CONTEXT() REPRESENTATION_CONTEXT('2D SPACE',''
  ) );
#662 = PCURVE('',#491,#663);
#663 = DEFINITIONAL_REPRESENTATION('',(#664),#668);
#664 = LINE('',#665,#666);
#665 = CARTESIAN_POINT('',(-1.37120625,2.374998892656));
#666 = VECTOR('',#667,1.);
#667 = DIRECTION('',(-0.5,-0.866025403784));
#668 = ( GEOMETRIC_REPRESENTATION_CONTEXT(2) 
PARAMETRIC_REPRESENTATION_CONTEXT() REPRESENTATION_CONTEXT('2D SPACE',''
  ) );
#669 = ORIENTED_EDGE('',*,*,#577,.F.);
#670 = ADVANCED_FACE('',(#671),#244,.T.);
#671 = FACE_BOUND('',#672,.T.);
#672 = EDGE_LOOP('',(#673,#674,#697,#718));
#673 = ORIENTED_EDGE('',*,*,#206,.T.);
#674 = ORIENTED_EDGE('',*,*,#675,.T.);
#675 = EDGE_CURVE('',#146,#676,#678,.T.);
#676 = VERTEX_POINT('',#677);
#677 = CARTESIAN_POINT('',(1.37120625,2.374998892656,-1.1));
#678 = SURFACE_CURVE('',#679,(#683,#690),.PCURVE_S1.);
#679 = LINE('',#680,#681);
#680 = CARTESIAN_POINT('',(1.37120625,2.374998892656,-3.575));
#681 = VECTOR('',#682,1.);
#682 = DIRECTION('',(0.,0.,1.));
#683 = PCURVE('',#244,#684);
#684 = DEFINITIONAL_REPRESENTATION('',(#685),#689);
#685 = LINE('',#686,#687);
#686 = CARTESIAN_POINT('',(0.,0.));
#687 = VECTOR('',#688,1.);
#688 = DIRECTION('',(0.,-1.));
#689 = ( GEOMETRIC_REPRESENTATION_CONTEXT(2) 
PARAMETRIC_REPRESENTATION_CONTEXT() REPRESENTATION_CONTEXT('2D SPACE',''
  ) );
#690 = PCURVE('',#183,#691);
#691 = DEFINITIONAL_REPRESENTATION('',(#692),#696);
#692 = LINE('',#693,#694);
#693 = CARTESIAN_POINT('',(2.7424125,0.));
#694 = VECTOR('',#695,1.);
#695 = DIRECTION('',(0.,-1.));
#696 = ( GEOMETRIC_REPRESENTATION_CONTEXT(2) 
PARAMETRIC_REPRESENTATION_CONTEXT() REPRESENTATION_CONTEXT('2D SPACE',''
  ) );
#697 = ORIENTED_EDGE('',*,*,#698,.T.);
#698 = EDGE_CURVE('',#676,#627,#699,.T.);
#699 = SURFACE_CURVE('',#700,(#704,#711),.PCURVE_S1.);
#700 = LINE('',#701,#702);
#701 = CARTESIAN_POINT('',(1.37120625,2.374998892656,-1.1));
#702 = VECTOR('',#703,1.);
#703 = DIRECTION('',(-1.,1.619337754076E-16,0.));
#704 = PCURVE('',#244,#705);
#705 = DEFINITIONAL_REPRESENTATION('',(#706),#710);
#706 = LINE('',#707,#708);
#707 = CARTESIAN_POINT('',(0.,-2.475));
#708 = VECTOR('',#709,1.);
#709 = DIRECTION('',(1.,0.));
#710 = ( GEOMETRIC_REPRESENTATION_CONTEXT(2) 
PARAMETRIC_REPRESENTATION_CONTEXT() REPRESENTATION_CONTEXT('2D SPACE',''
  ) );
#711 = PCURVE('',#491,#712);
#712 = DEFINITIONAL_REPRESENTATION('',(#713),#717);
#713 = LINE('',#714,#715);
#714 = CARTESIAN_POINT('',(1.37120625,2.374998892656));
#715 = VECTOR('',#716,1.);
#716 = DIRECTION('',(-1.,1.619337754076E-16));
#717 = ( GEOMETRIC_REPRESENTATION_CONTEXT(2) 
PARAMETRIC_REPRESENTATION_CONTEXT() REPRESENTATION_CONTEXT('2D SPACE',''
  ) );
#718 = ORIENTED_EDGE('',*,*,#626,.F.);
#719 = ADVANCED_FACE('',(#720),#183,.T.);
#720 = FACE_BOUND('',#721,.T.);
#721 = EDGE_LOOP('',(#722,#723,#724,#745));
#722 = ORIENTED_EDGE('',*,*,#145,.T.);
#723 = ORIENTED_EDGE('',*,*,#503,.T.);
#724 = ORIENTED_EDGE('',*,*,#725,.T.);
#725 = EDGE_CURVE('',#476,#676,#726,.T.);
#726 = SURFACE_CURVE('',#727,(#731,#738),.PCURVE_S1.);
#727 = LINE('',#728,#729);
#728 = CARTESIAN_POINT('',(2.7424125,0.,-1.1));
#729 = VECTOR('',#730,1.);
#730 = DIRECTION('',(-0.5,0.866025403784,0.));
#731 = PCURVE('',#183,#732);
#732 = DEFINITIONAL_REPRESENTATION('',(#733),#737);
#733 = LINE('',#734,#735);
#734 = CARTESIAN_POINT('',(0.,-2.475));
#735 = VECTOR('',#736,1.);
#736 = DIRECTION('',(1.,0.));
#737 = ( GEOMETRIC_REPRESENTATION_CONTEXT(2) 
PARAMETRIC_REPRESENTATION_CONTEXT() REPRESENTATION_CONTEXT('2D SPACE',''
  ) );
#738 = PCURVE('',#491,#739);
#739 = DEFINITIONAL_REPRESENTATION('',(#740),#744);
#740 = LINE('',#741,#742);
#741 = CARTESIAN_POINT('',(2.7424125,1.889227379756E-16));
#742 = VECTOR('',#743,1.);
#743 = DIRECTION('',(-0.5,0.866025403784));
#744 = ( GEOMETRIC_REPRESENTATION_CONTEXT(2) 
PARAMETRIC_REPRESENTATION_CONTEXT() REPRESENTATION_CONTEXT('2D SPACE',''
  ) );
#745 = ORIENTED_EDGE('',*,*,#675,.F.);
#746 = ADVANCED_FACE('',(#747),#132,.T.);
#747 = FACE_BOUND('',#748,.T.);
#748 = EDGE_LOOP('',(#749,#750,#773,#800));
#749 = ORIENTED_EDGE('',*,*,#117,.T.);
#750 = ORIENTED_EDGE('',*,*,#751,.T.);
#751 = EDGE_CURVE('',#94,#752,#754,.T.);
#752 = VERTEX_POINT('',#753);
#753 = CARTESIAN_POINT('',(4.75,0.,0.));
#754 = SEAM_CURVE('',#755,(#759,#766),.PCURVE_S1.);
#755 = LINE('',#756,#757);
#756 = CARTESIAN_POINT('',(4.75,0.,-0.825));
#757 = VECTOR('',#758,1.);
#758 = DIRECTION('',(0.,0.,1.));
#759 = PCURVE('',#132,#760);
#760 = DEFINITIONAL_REPRESENTATION('',(#761),#765);
#761 = LINE('',#762,#763);
#762 = CARTESIAN_POINT('',(0.,0.));
#763 = VECTOR('',#764,1.);
#764 = DIRECTION('',(0.,1.));
#765 = ( GEOMETRIC_REPRESENTATION_CONTEXT(2) 
PARAMETRIC_REPRESENTATION_CONTEXT() REPRESENTATION_CONTEXT('2D SPACE',''
  ) );
#766 = PCURVE('',#132,#767);
#767 = DEFINITIONAL_REPRESENTATION('',(#768),#772);
#768 = LINE('',#769,#770);
#769 = CARTESIAN_POINT('',(6.28318530718,0.));
#770 = VECTOR('',#771,1.);
#771 = DIRECTION('',(0.,1.));
#772 = ( GEOMETRIC_REPRESENTATION_CONTEXT(2) 
PARAMETRIC_REPRESENTATION_CONTEXT() REPRESENTATION_CONTEXT('2D SPACE',''
  ) );
#773 = ORIENTED_EDGE('',*,*,#774,.F.);
#774 = EDGE_CURVE('',#752,#752,#775,.T.);
#775 = SURFACE_CURVE('',#776,(#781,#788),.PCURVE_S1.);
#776 = CIRCLE('',#777,4.75);
#777 = AXIS2_PLACEMENT_3D('',#778,#779,#780);
#778 = CARTESIAN_POINT('',(0.,0.,0.));
#779 = DIRECTION('',(0.,0.,1.));
#780 = DIRECTION('',(1.,0.,-0.));
#781 = PCURVE('',#132,#782);
#782 = DEFINITIONAL_REPRESENTATION('',(#783),#787);
#783 = LINE('',#784,#785);
#784 = CARTESIAN_POINT('',(0.,0.825));
#785 = VECTOR('',#786,1.);
#786 = DIRECTION('',(1.,0.));
#787 = ( GEOMETRIC_REPRESENTATION_CONTEXT(2) 
PARAMETRIC_REPRESENTATION_CONTEXT() REPRESENTATION_CONTEXT('2D SPACE',''
  ) );
#788 = PCURVE('',#789,#794);
#789 = PLANE('',#790);
#790 = AXIS2_PLACEMENT_3D('',#791,#792,#793);
#791 = CARTESIAN_POINT('',(0.,0.,0.));
#792 = DIRECTION('',(0.,0.,1.));
#793 = DIRECTION('',(1.,0.,-0.));
#794 = DEFINITIONAL_REPRESENTATION('',(#795),#799);
#795 = CIRCLE('',#796,4.75);
#796 = AXIS2_PLACEMENT_2D('',#797,#798);
#797 = CARTESIAN_POINT('',(0.,0.));
#798 = DIRECTION('',(1.,0.));
#799 = ( GEOMETRIC_REPRESENTATION_CONTEXT(2) 
PARAMETRIC_REPRESENTATION_CONTEXT() REPRESENTATION_CONTEXT('2D SPACE',''
  ) );
#800 = ORIENTED_EDGE('',*,*,#751,.F.);
#801 = ADVANCED_FACE('',(#802),#491,.F.);
#802 = FACE_BOUND('',#803,.F.);
#803 = EDGE_LOOP('',(#804,#805,#806,#807,#808,#809));
#804 = ORIENTED_EDGE('',*,*,#725,.T.);
#805 = ORIENTED_EDGE('',*,*,#698,.T.);
#806 = ORIENTED_EDGE('',*,*,#649,.T.);
#807 = ORIENTED_EDGE('',*,*,#600,.T.);
#808 = ORIENTED_EDGE('',*,*,#551,.T.);
#809 = ORIENTED_EDGE('',*,*,#475,.T.);
#810 = ADVANCED_FACE('',(#811,#814),#789,.T.);
#811 = FACE_BOUND('',#812,.T.);
#812 = EDGE_LOOP('',(#813));
#813 = ORIENTED_EDGE('',*,*,#774,.T.);
#814 = FACE_BOUND('',#815,.T.);
#815 = EDGE_LOOP('',(#816));
#816 = ORIENTED_EDGE('',*,*,#817,.F.);
#817 = EDGE_CURVE('',#818,#818,#820,.T.);
#818 = VERTEX_POINT('',#819);
#819 = CARTESIAN_POINT('',(2.5,0.,0.));
#820 = SURFACE_CURVE('',#821,(#826,#833),.PCURVE_S1.);
#821 = CIRCLE('',#822,2.5);
#822 = AXIS2_PLACEMENT_3D('',#823,#824,#825);
#823 = CARTESIAN_POINT('',(0.,0.,0.));
#824 = DIRECTION('',(0.,0.,1.));
#825 = DIRECTION('',(1.,0.,-0.));
#826 = PCURVE('',#789,#827);
#827 = DEFINITIONAL_REPRESENTATION('',(#828),#832);
#828 = CIRCLE('',#829,2.5);
#829 = AXIS2_PLACEMENT_2D('',#830,#831);
#830 = CARTESIAN_POINT('',(0.,0.));
#831 = DIRECTION('',(1.,0.));
#832 = ( GEOMETRIC_REPRESENTATION_CONTEXT(2) 
PARAMETRIC_REPRESENTATION_CONTEXT() REPRESENTATION_CONTEXT('2D SPACE',''
  ) );
#833 = PCURVE('',#834,#839);
#834 = CYLINDRICAL_SURFACE('',#835,2.5);
#835 = AXIS2_PLACEMENT_3D('',#836,#837,#838);
#836 = CARTESIAN_POINT('',(0.,0.,0.));
#837 = DIRECTION('',(0.,0.,1.));
#838 = DIRECTION('',(1.,0.,-0.));
#839 = DEFINITIONAL_REPRESENTATION('',(#840),#844);
#840 = LINE('',#841,#842);
#841 = CARTESIAN_POINT('',(0.,0.));
#842 = VECTOR('',#843,1.);
#843 = DIRECTION('',(1.,0.));
#844 = ( GEOMETRIC_REPRESENTATION_CONTEXT(2) 
PARAMETRIC_REPRESENTATION_CONTEXT() REPRESENTATION_CONTEXT('2D SPACE',''
  ) );
#845 = ADVANCED_FACE('',(#846),#834,.T.);
#846 = FACE_BOUND('',#847,.T.);
#847 = EDGE_LOOP('',(#848,#849,#872,#899));
#848 = ORIENTED_EDGE('',*,*,#817,.T.);
#849 = ORIENTED_EDGE('',*,*,#850,.T.);
#850 = EDGE_CURVE('',#818,#851,#853,.T.);
#851 = VERTEX_POINT('',#852);
#852 = CARTESIAN_POINT('',(2.5,0.,45.));
#853 = SEAM_CURVE('',#854,(#858,#865),.PCURVE_S1.);
#854 = LINE('',#855,#856);
#855 = CARTESIAN_POINT('',(2.5,0.,0.));
#856 = VECTOR('',#857,1.);
#857 = DIRECTION('',(0.,0.,1.));
#858 = PCURVE('',#834,#859);
#859 = DEFINITIONAL_REPRESENTATION('',(#860),#864);
#860 = LINE('',#861,#862);
#861 = CARTESIAN_POINT('',(0.,0.));
#862 = VECTOR('',#863,1.);
#863 = DIRECTION('',(0.,1.));
#864 = ( GEOMETRIC_REPRESENTATION_CONTEXT(2) 
PARAMETRIC_REPRESENTATION_CONTEXT() REPRESENTATION_CONTEXT('2D SPACE',''
  ) );
#865 = PCURVE('',#834,#866);
#866 = DEFINITIONAL_REPRESENTATION('',(#867),#871);
#867 = LINE('',#868,#869);
#868 = CARTESIAN_POINT('',(6.28318530718,0.));
#869 = VECTOR('',#870,1.);
#870 = DIRECTION('',(0.,1.));
#871 = ( GEOMETRIC_REPRESENTATION_CONTEXT(2) 
PARAMETRIC_REPRESENTATION_CONTEXT() REPRESENTATION_CONTEXT('2D SPACE',''
  ) );
#872 = ORIENTED_EDGE('',*,*,#873,.F.);
#873 = EDGE_CURVE('',#851,#851,#874,.T.);
#874 = SURFACE_CURVE('',#875,(#880,#887),.PCURVE_S1.);
#875 = CIRCLE('',#876,2.5);
#876 = AXIS2_PLACEMENT_3D('',#877,#878,#879);
#877 = CARTESIAN_POINT('',(0.,0.,45.));
#878 = DIRECTION('',(0.,0.,1.));
#879 = DIRECTION('',(1.,0.,-0.));
#880 = PCURVE('',#834,#881);
#881 = DEFINITIONAL_REPRESENTATION('',(#882),#886);
#882 = LINE('',#883,#884);
#883 = CARTESIAN_POINT('',(0.,45.));
#884 = VECTOR('',#885,1.);
#885 = DIRECTION('',(1.,0.));
#886 = ( GEOMETRIC_REPRESENTATION_CONTEXT(2) 
PARAMETRIC_REPRESENTATION_CONTEXT() REPRESENTATION_CONTEXT('2D SPACE',''
  ) );
#887 = PCURVE('',#888,#893);
#888 = PLANE('',#889);
#889 = AXIS2_PLACEMENT_3D('',#890,#891,#892);
#890 = CARTESIAN_POINT('',(0.,0.,45.));
#891 = DIRECTION('',(0.,0.,1.));
#892 = DIRECTION('',(1.,0.,-0.));
#893 = DEFINITIONAL_REPRESENTATION('',(#894),#898);
#894 = CIRCLE('',#895,2.5);
#895 = AXIS2_PLACEMENT_2D('',#896,#897);
#896 = CARTESIAN_POINT('',(0.,0.));
#897 = DIRECTION('',(1.,0.));
#898 = ( GEOMETRIC_REPRESENTATION_CONTEXT(2) 
PARAMETRIC_REPRESENTATION_CONTEXT() REPRESENTATION_CONTEXT('2D SPACE',''
  ) );
#899 = ORIENTED_EDGE('',*,*,#850,.F.);
#900 = ADVANCED_FACE('',(#901),#888,.T.);
#901 = FACE_BOUND('',#902,.T.);
#902 = EDGE_LOOP('',(#903));
#903 = ORIENTED_EDGE('',*,*,#873,.T.);
#904 = ( GEOMETRIC_REPRESENTATION_CONTEXT(3) 
GLOBAL_UNCERTAINTY_ASSIGNED_CONTEXT((#908)) GLOBAL_UNIT_ASSIGNED_CONTEXT
((#905,#906,#907)) REPRESENTATION_CONTEXT('Context #1',
  '3D Context with UNIT and UNCERTAINTY') );
#905 = ( LENGTH_UNIT() NAMED_UNIT(*) SI_UNIT(.MILLI.,.METRE.) );
#906 = ( NAMED_UNIT(*) PLANE_ANGLE_UNIT() SI_UNIT($,.RADIAN.) );
#907 = ( NAMED_UNIT(*) SI_UNIT($,.STERADIAN.) SOLID_ANGLE_UNIT() );
#908 = UNCERTAINTY_MEASURE_WITH_UNIT(LENGTH_MEASURE(2.E-06),#905,
  'distance_accuracy_value','confusion accuracy');
#909 = PRODUCT_RELATED_PRODUCT_CATEGORY('part',$,(#7));
ENDSEC;
END-ISO-10303-21;
