%TF.GenerationSoftware,KiCad,Pcbnew,7.0.11+dfsg-1build4*%
%TF.ProjectId,test_module_unplaced,74657374-5f6d-46f6-9475-6c655f756e70,rev?*%
%TF.SameCoordinates,Original*%
%TF.FileFunction,Drillmap*%
%TF.FilePolarity,Positive*%
%FSLAX45Y45*%
G04 Gerber Fmt 4.5, Leading zero omitted, Abs format (unit mm)*
%MOMM*%
%LPD*%
G01*
G04 APERTURE LIST*
%ADD10C,0.100000*%
%ADD11C,0.200000*%
%ADD12C,0.102000*%
%ADD13C,0.152000*%
%ADD14C,0.218000*%
%ADD15C,0.250000*%
G04 APERTURE END LIST*
D10*
X10500000Y500000D02*
X10500000Y-10500000D01*
X-500000Y-10500000D02*
X-500000Y500000D01*
X10500000Y-10500000D02*
X-500000Y-10500000D01*
X-500000Y500000D02*
X10500000Y500000D01*
D11*
D10*
X2465227Y-2293321D02*
X2495737Y-2323831D01*
X2495737Y-2293321D02*
X2465227Y-2323831D01*
X2816295Y-9938160D02*
X2846805Y-9968670D01*
X2846805Y-9938160D02*
X2816295Y-9968670D01*
X2858753Y-5777346D02*
X2889264Y-5807856D01*
X2889264Y-5777346D02*
X2858753Y-5807856D01*
X3810429Y-8756593D02*
X3840939Y-8787104D01*
X3840939Y-8756593D02*
X3810429Y-8787104D01*
X5590741Y-6354609D02*
X5621252Y-6385120D01*
X5621252Y-6354609D02*
X5590741Y-6385120D01*
X6039676Y-1797101D02*
X6070187Y-1827612D01*
X6070187Y-1797101D02*
X6039676Y-1827612D01*
X6183325Y-1475445D02*
X6213835Y-1505956D01*
X6213835Y-1475445D02*
X6183325Y-1505956D01*
X6457071Y-5966134D02*
X6487581Y-5996645D01*
X6487581Y-5966134D02*
X6457071Y-5996645D01*
X7003257Y-1959574D02*
X7033767Y-1990084D01*
X7033767Y-1959574D02*
X7003257Y-1990084D01*
X7094422Y-4419208D02*
X7124933Y-4449718D01*
X7124933Y-4419208D02*
X7094422Y-4449718D01*
X7120746Y-5037278D02*
X7151256Y-5067788D01*
X7151256Y-5037278D02*
X7120746Y-5067788D01*
X7150811Y-3284893D02*
X7181321Y-3315403D01*
X7181321Y-3284893D02*
X7150811Y-3315403D01*
X7178183Y-5847450D02*
X7208693Y-5877960D01*
X7208693Y-5847450D02*
X7178183Y-5877960D01*
X7240239Y-1595421D02*
X7270750Y-1625931D01*
X7270750Y-1595421D02*
X7240239Y-1625931D01*
X8676680Y-2134373D02*
X8707190Y-2164883D01*
X8707190Y-2134373D02*
X8676680Y-2164883D01*
X8763056Y-8548812D02*
X8793566Y-8579323D01*
X8793566Y-8548812D02*
X8763056Y-8579323D01*
X8968809Y-3980056D02*
X8999320Y-4010566D01*
X8999320Y-3980056D02*
X8968809Y-4010566D01*
X9000037Y-5615859D02*
X9030548Y-5646370D01*
X9030548Y-5615859D02*
X9000037Y-5646370D01*
X9007668Y-3059458D02*
X9038179Y-3089968D01*
X9038179Y-3059458D02*
X9007668Y-3089968D01*
X3079751Y-7429780D02*
G75*
G03*
X2999751Y-7429780I-40000J0D01*
G01*
X2999751Y-7429780D02*
G75*
G03*
X3079751Y-7429780I40000J0D01*
G01*
X3079751Y-7779780D02*
G75*
G03*
X2999751Y-7779780I-40000J0D01*
G01*
X2999751Y-7779780D02*
G75*
G03*
X3079751Y-7779780I40000J0D01*
G01*
X6775064Y-296968D02*
G75*
G03*
X6695064Y-296968I-40000J0D01*
G01*
X6695064Y-296968D02*
G75*
G03*
X6775064Y-296968I40000J0D01*
G01*
X6775064Y-646968D02*
G75*
G03*
X6695064Y-646968I-40000J0D01*
G01*
X6695064Y-646968D02*
G75*
G03*
X6775064Y-646968I40000J0D01*
G01*
X8619595Y-8421186D02*
G75*
G03*
X8539595Y-8421186I-40000J0D01*
G01*
X8539595Y-8421186D02*
G75*
G03*
X8619595Y-8421186I40000J0D01*
G01*
X8969595Y-8421186D02*
G75*
G03*
X8889595Y-8421186I-40000J0D01*
G01*
X8889595Y-8421186D02*
G75*
G03*
X8969595Y-8421186I40000J0D01*
G01*
X2155220Y-2040780D02*
X2155220Y-2140780D01*
X2105220Y-2090780D02*
X2205220Y-2090780D01*
X2155220Y-2294780D02*
X2155220Y-2394780D01*
X2105220Y-2344780D02*
X2205220Y-2344780D01*
X2456001Y-1267343D02*
X2456001Y-1367343D01*
X2406001Y-1317343D02*
X2506001Y-1317343D01*
X2456001Y-1521342D02*
X2456001Y-1621342D01*
X2406001Y-1571342D02*
X2506001Y-1571342D01*
X2831571Y-8549624D02*
X2831571Y-8649624D01*
X2781571Y-8599624D02*
X2881571Y-8599624D01*
X2731571Y-8649624D02*
X2931571Y-8649624D01*
X2931571Y-8649624D02*
G75*
G03*
X2931571Y-8549624I0J50000D01*
G01*
X2931571Y-8549624D02*
X2731571Y-8549624D01*
X2731571Y-8549624D02*
G75*
G03*
X2731571Y-8649624I0J-50000D01*
G01*
X2831571Y-9149624D02*
X2831571Y-9249624D01*
X2781571Y-9199624D02*
X2881571Y-9199624D01*
X2731571Y-9249624D02*
X2931571Y-9249624D01*
X2931571Y-9249624D02*
G75*
G03*
X2931571Y-9149624I0J50000D01*
G01*
X2931571Y-9149624D02*
X2731571Y-9149624D01*
X2731571Y-9149624D02*
G75*
G03*
X2731571Y-9249624I0J-50000D01*
G01*
X3301571Y-8849624D02*
X3301571Y-8949624D01*
X3251571Y-8899624D02*
X3351571Y-8899624D01*
X3351571Y-8999624D02*
X3351571Y-8799624D01*
X3351571Y-8799624D02*
G75*
G03*
X3251571Y-8799624I-50000J0D01*
G01*
X3251571Y-8799624D02*
X3251571Y-8999624D01*
X3251571Y-8999624D02*
G75*
G03*
X3351571Y-8999624I50000J0D01*
G01*
X4948189Y-1164093D02*
X4948189Y-1264093D01*
X4898189Y-1214093D02*
X4998189Y-1214093D01*
X4948189Y-1418092D02*
X4948189Y-1518092D01*
X4898189Y-1468092D02*
X4998189Y-1468092D01*
X4948189Y-1672092D02*
X4948189Y-1772092D01*
X4898189Y-1722092D02*
X4998189Y-1722092D01*
X4948189Y-1926092D02*
X4948189Y-2026092D01*
X4898189Y-1976092D02*
X4998189Y-1976092D01*
X4948189Y-2180093D02*
X4948189Y-2280093D01*
X4898189Y-2230093D02*
X4998189Y-2230093D01*
X4948189Y-2434093D02*
X4948189Y-2534093D01*
X4898189Y-2484093D02*
X4998189Y-2484093D01*
X4948189Y-2688093D02*
X4948189Y-2788093D01*
X4898189Y-2738093D02*
X4998189Y-2738093D01*
X4948189Y-2942092D02*
X4948189Y-3042092D01*
X4898189Y-2992092D02*
X4998189Y-2992092D01*
X4948189Y-3196092D02*
X4948189Y-3296092D01*
X4898189Y-3246092D02*
X4998189Y-3246092D01*
X4948189Y-3450092D02*
X4948189Y-3550092D01*
X4898189Y-3500092D02*
X4998189Y-3500092D01*
X4948189Y-3704092D02*
X4948189Y-3804092D01*
X4898189Y-3754092D02*
X4998189Y-3754092D01*
X4948189Y-3958092D02*
X4948189Y-4058092D01*
X4898189Y-4008092D02*
X4998189Y-4008092D01*
X4948189Y-4212093D02*
X4948189Y-4312093D01*
X4898189Y-4262093D02*
X4998189Y-4262093D01*
X4948189Y-4466093D02*
X4948189Y-4566093D01*
X4898189Y-4516093D02*
X4998189Y-4516093D01*
X4948189Y-4720093D02*
X4948189Y-4820093D01*
X4898189Y-4770093D02*
X4998189Y-4770093D01*
X4948189Y-4974093D02*
X4948189Y-5074093D01*
X4898189Y-5024093D02*
X4998189Y-5024093D01*
X4948189Y-5228093D02*
X4948189Y-5328093D01*
X4898189Y-5278093D02*
X4998189Y-5278093D01*
X4948189Y-5482093D02*
X4948189Y-5582093D01*
X4898189Y-5532093D02*
X4998189Y-5532093D01*
X4948189Y-5736092D02*
X4948189Y-5836092D01*
X4898189Y-5786092D02*
X4998189Y-5786092D01*
X4948189Y-5990092D02*
X4948189Y-6090092D01*
X4898189Y-6040092D02*
X4998189Y-6040092D01*
X5979439Y-153968D02*
X5979439Y-253967D01*
X5929439Y-203967D02*
X6029439Y-203967D01*
X5979439Y-407967D02*
X5979439Y-507967D01*
X5929439Y-457967D02*
X6029439Y-457967D01*
X5979439Y-661968D02*
X5979439Y-761967D01*
X5929439Y-711967D02*
X6029439Y-711967D01*
X6366157Y-6505717D02*
X6366157Y-6605717D01*
X6316157Y-6555717D02*
X6416157Y-6555717D01*
X6620157Y-6505717D02*
X6620157Y-6605717D01*
X6570157Y-6555717D02*
X6670157Y-6555717D01*
X6726189Y-1164093D02*
X6726189Y-1264093D01*
X6676189Y-1214093D02*
X6776189Y-1214093D01*
X6726189Y-1418092D02*
X6726189Y-1518092D01*
X6676189Y-1468092D02*
X6776189Y-1468092D01*
X6726189Y-1672092D02*
X6726189Y-1772092D01*
X6676189Y-1722092D02*
X6776189Y-1722092D01*
X6726189Y-1926092D02*
X6726189Y-2026092D01*
X6676189Y-1976092D02*
X6776189Y-1976092D01*
X6726189Y-2180093D02*
X6726189Y-2280093D01*
X6676189Y-2230093D02*
X6776189Y-2230093D01*
X6726189Y-2434093D02*
X6726189Y-2534093D01*
X6676189Y-2484093D02*
X6776189Y-2484093D01*
X6726189Y-2688093D02*
X6726189Y-2788093D01*
X6676189Y-2738093D02*
X6776189Y-2738093D01*
X6726189Y-2942092D02*
X6726189Y-3042092D01*
X6676189Y-2992092D02*
X6776189Y-2992092D01*
X6726189Y-3196092D02*
X6726189Y-3296092D01*
X6676189Y-3246092D02*
X6776189Y-3246092D01*
X6726189Y-3450092D02*
X6726189Y-3550092D01*
X6676189Y-3500092D02*
X6776189Y-3500092D01*
X6726189Y-3704092D02*
X6726189Y-3804092D01*
X6676189Y-3754092D02*
X6776189Y-3754092D01*
X6726189Y-3958092D02*
X6726189Y-4058092D01*
X6676189Y-4008092D02*
X6776189Y-4008092D01*
X6726189Y-4212093D02*
X6726189Y-4312093D01*
X6676189Y-4262093D02*
X6776189Y-4262093D01*
X6726189Y-4466093D02*
X6726189Y-4566093D01*
X6676189Y-4516093D02*
X6776189Y-4516093D01*
X6726189Y-4720093D02*
X6726189Y-4820093D01*
X6676189Y-4770093D02*
X6776189Y-4770093D01*
X6726189Y-4974093D02*
X6726189Y-5074093D01*
X6676189Y-5024093D02*
X6776189Y-5024093D01*
X6726189Y-5228093D02*
X6726189Y-5328093D01*
X6676189Y-5278093D02*
X6776189Y-5278093D01*
X6726189Y-5482093D02*
X6726189Y-5582093D01*
X6676189Y-5532093D02*
X6776189Y-5532093D01*
X6726189Y-5736092D02*
X6726189Y-5836092D01*
X6676189Y-5786092D02*
X6776189Y-5786092D01*
X6726189Y-5990092D02*
X6726189Y-6090092D01*
X6676189Y-6040092D02*
X6776189Y-6040092D01*
X6874157Y-6505717D02*
X6874157Y-6605717D01*
X6824157Y-6555717D02*
X6924157Y-6555717D01*
X7397407Y-1591780D02*
X7397407Y-1691780D01*
X7347407Y-1641780D02*
X7447407Y-1641780D01*
X7397407Y-1845780D02*
X7397407Y-1945780D01*
X7347407Y-1895780D02*
X7447407Y-1895780D01*
X7397407Y-2099780D02*
X7397407Y-2199780D01*
X7347407Y-2149780D02*
X7447407Y-2149780D01*
X7397407Y-2353780D02*
X7397407Y-2453780D01*
X7347407Y-2403780D02*
X7447407Y-2403780D01*
X7397407Y-2607780D02*
X7397407Y-2707780D01*
X7347407Y-2657780D02*
X7447407Y-2657780D01*
X7397407Y-2861780D02*
X7397407Y-2961780D01*
X7347407Y-2911780D02*
X7447407Y-2911780D01*
X7397407Y-3115780D02*
X7397407Y-3215780D01*
X7347407Y-3165780D02*
X7447407Y-3165780D01*
X7397407Y-3369780D02*
X7397407Y-3469780D01*
X7347407Y-3419780D02*
X7447407Y-3419780D01*
X7397407Y-3623780D02*
X7397407Y-3723780D01*
X7347407Y-3673780D02*
X7447407Y-3673780D01*
X7397407Y-3877780D02*
X7397407Y-3977780D01*
X7347407Y-3927780D02*
X7447407Y-3927780D01*
X7397407Y-4131780D02*
X7397407Y-4231780D01*
X7347407Y-4181780D02*
X7447407Y-4181780D01*
X7397407Y-4385780D02*
X7397407Y-4485780D01*
X7347407Y-4435780D02*
X7447407Y-4435780D01*
X7397407Y-4639780D02*
X7397407Y-4739780D01*
X7347407Y-4689780D02*
X7447407Y-4689780D01*
X7397407Y-4893780D02*
X7397407Y-4993780D01*
X7347407Y-4943780D02*
X7447407Y-4943780D01*
X7397407Y-5147780D02*
X7397407Y-5247780D01*
X7347407Y-5197780D02*
X7447407Y-5197780D01*
X7397407Y-5401780D02*
X7397407Y-5501780D01*
X7347407Y-5451780D02*
X7447407Y-5451780D01*
X7397407Y-5655780D02*
X7397407Y-5755780D01*
X7347407Y-5705780D02*
X7447407Y-5705780D01*
X7397407Y-5909780D02*
X7397407Y-6009780D01*
X7347407Y-5959780D02*
X7447407Y-5959780D01*
X7397407Y-6163780D02*
X7397407Y-6263780D01*
X7347407Y-6213780D02*
X7447407Y-6213780D01*
X7397407Y-6417780D02*
X7397407Y-6517780D01*
X7347407Y-6467780D02*
X7447407Y-6467780D01*
X8514595Y-9138249D02*
X8514595Y-9238249D01*
X8464595Y-9188249D02*
X8564595Y-9188249D01*
X8514595Y-9392249D02*
X8514595Y-9492249D01*
X8464595Y-9442249D02*
X8564595Y-9442249D01*
X8514595Y-9646249D02*
X8514595Y-9746249D01*
X8464595Y-9696249D02*
X8564595Y-9696249D01*
X8514595Y-9900249D02*
X8514595Y-10000249D01*
X8464595Y-9950249D02*
X8564595Y-9950249D01*
X9175408Y-1591780D02*
X9175408Y-1691780D01*
X9125408Y-1641780D02*
X9225408Y-1641780D01*
X9175408Y-1845780D02*
X9175408Y-1945780D01*
X9125408Y-1895780D02*
X9225408Y-1895780D01*
X9175408Y-2099780D02*
X9175408Y-2199780D01*
X9125408Y-2149780D02*
X9225408Y-2149780D01*
X9175408Y-2353780D02*
X9175408Y-2453780D01*
X9125408Y-2403780D02*
X9225408Y-2403780D01*
X9175408Y-2607780D02*
X9175408Y-2707780D01*
X9125408Y-2657780D02*
X9225408Y-2657780D01*
X9175408Y-2861780D02*
X9175408Y-2961780D01*
X9125408Y-2911780D02*
X9225408Y-2911780D01*
X9175408Y-3115780D02*
X9175408Y-3215780D01*
X9125408Y-3165780D02*
X9225408Y-3165780D01*
X9175408Y-3369780D02*
X9175408Y-3469780D01*
X9125408Y-3419780D02*
X9225408Y-3419780D01*
X9175408Y-3623780D02*
X9175408Y-3723780D01*
X9125408Y-3673780D02*
X9225408Y-3673780D01*
X9175408Y-3877780D02*
X9175408Y-3977780D01*
X9125408Y-3927780D02*
X9225408Y-3927780D01*
X9175408Y-4131780D02*
X9175408Y-4231780D01*
X9125408Y-4181780D02*
X9225408Y-4181780D01*
X9175408Y-4385780D02*
X9175408Y-4485780D01*
X9125408Y-4435780D02*
X9225408Y-4435780D01*
X9175408Y-4639780D02*
X9175408Y-4739780D01*
X9125408Y-4689780D02*
X9225408Y-4689780D01*
X9175408Y-4893780D02*
X9175408Y-4993780D01*
X9125408Y-4943780D02*
X9225408Y-4943780D01*
X9175408Y-5147780D02*
X9175408Y-5247780D01*
X9125408Y-5197780D02*
X9225408Y-5197780D01*
X9175408Y-5401780D02*
X9175408Y-5501780D01*
X9125408Y-5451780D02*
X9225408Y-5451780D01*
X9175408Y-5655780D02*
X9175408Y-5755780D01*
X9125408Y-5705780D02*
X9225408Y-5705780D01*
X9175408Y-5909780D02*
X9175408Y-6009780D01*
X9125408Y-5959780D02*
X9225408Y-5959780D01*
X9175408Y-6163780D02*
X9175408Y-6263780D01*
X9125408Y-6213780D02*
X9225408Y-6213780D01*
X9175408Y-6417780D02*
X9175408Y-6517780D01*
X9125408Y-6467780D02*
X9225408Y-6467780D01*
D12*
X458627Y-8866405D02*
X458627Y-8794280D01*
X386501Y-8794280D01*
X386501Y-8866405D01*
X458627Y-8866405D01*
X458627Y-9120405D02*
X458627Y-9048280D01*
X386501Y-9048280D01*
X386501Y-9120405D01*
X458627Y-9120405D01*
X458627Y-9374405D02*
X458627Y-9302280D01*
X386501Y-9302280D01*
X386501Y-9374405D01*
X458627Y-9374405D01*
X798627Y-7638405D02*
X798627Y-7566280D01*
X726501Y-7566280D01*
X726501Y-7638405D01*
X798627Y-7638405D01*
X1048627Y-7638405D02*
X1048627Y-7566280D01*
X976501Y-7566280D01*
X976501Y-7638405D01*
X1048627Y-7638405D01*
X1298627Y-7638405D02*
X1298627Y-7566280D01*
X1226501Y-7566280D01*
X1226501Y-7638405D01*
X1298627Y-7638405D01*
X1511627Y-8465405D02*
X1511627Y-8393280D01*
X1439501Y-8393280D01*
X1439501Y-8465405D01*
X1511627Y-8465405D01*
X1548627Y-7638405D02*
X1548627Y-7566280D01*
X1476501Y-7566280D01*
X1476501Y-7638405D01*
X1548627Y-7638405D01*
X2061627Y-7792405D02*
X2061627Y-7720280D01*
X1989501Y-7720280D01*
X1989501Y-7792405D01*
X2061627Y-7792405D01*
X2562970Y-6950561D02*
X2562970Y-6878436D01*
X2490845Y-6878436D01*
X2490845Y-6950561D01*
X2562970Y-6950561D01*
X2816970Y-6950561D02*
X2816970Y-6878436D01*
X2744845Y-6878436D01*
X2744845Y-6950561D01*
X2816970Y-6950561D01*
X3019970Y-5424562D02*
X3019970Y-5352436D01*
X2947845Y-5352436D01*
X2947845Y-5424562D01*
X3019970Y-5424562D01*
X3022045Y-4762968D02*
X3022045Y-4690842D01*
X2949920Y-4690842D01*
X2949920Y-4762968D01*
X3022045Y-4762968D01*
X3070970Y-6950561D02*
X3070970Y-6878436D01*
X2998845Y-6878436D01*
X2998845Y-6950561D01*
X3070970Y-6950561D01*
X3076689Y-787843D02*
X3076689Y-715717D01*
X3004563Y-715717D01*
X3004563Y-787843D01*
X3076689Y-787843D01*
X3076689Y-1803843D02*
X3076689Y-1731717D01*
X3004563Y-1731717D01*
X3004563Y-1803843D01*
X3076689Y-1803843D01*
X3242845Y-2984968D02*
X3242845Y-2912842D01*
X3170720Y-2912842D01*
X3170720Y-2984968D01*
X3242845Y-2984968D01*
X3324970Y-6950561D02*
X3324970Y-6878436D01*
X3252845Y-6878436D01*
X3252845Y-6950561D01*
X3324970Y-6950561D01*
X3372045Y-4762968D02*
X3372045Y-4690842D01*
X3299920Y-4690842D01*
X3299920Y-4762968D01*
X3372045Y-4762968D01*
X3496845Y-2984968D02*
X3496845Y-2912842D01*
X3424720Y-2912842D01*
X3424720Y-2984968D01*
X3496845Y-2984968D01*
X3578970Y-6950561D02*
X3578970Y-6878436D01*
X3506845Y-6878436D01*
X3506845Y-6950561D01*
X3578970Y-6950561D01*
X3750845Y-2984968D02*
X3750845Y-2912842D01*
X3678720Y-2912842D01*
X3678720Y-2984968D01*
X3750845Y-2984968D01*
X3885645Y-4762968D02*
X3885645Y-4690842D01*
X3813520Y-4690842D01*
X3813520Y-4762968D01*
X3885645Y-4762968D01*
X4004845Y-2984968D02*
X4004845Y-2912842D01*
X3932720Y-2912842D01*
X3932720Y-2984968D01*
X4004845Y-2984968D01*
X4235645Y-4762968D02*
X4235645Y-4690842D01*
X4163520Y-4690842D01*
X4163520Y-4762968D01*
X4235645Y-4762968D01*
X4346689Y-787843D02*
X4346689Y-715717D01*
X4274564Y-715717D01*
X4274564Y-787843D01*
X4346689Y-787843D01*
X4346689Y-1041843D02*
X4346689Y-969717D01*
X4274564Y-969717D01*
X4274564Y-1041843D01*
X4346689Y-1041843D01*
X4346689Y-1295843D02*
X4346689Y-1223717D01*
X4274564Y-1223717D01*
X4274564Y-1295843D01*
X4346689Y-1295843D01*
X4346689Y-1549843D02*
X4346689Y-1477717D01*
X4274564Y-1477717D01*
X4274564Y-1549843D01*
X4346689Y-1549843D01*
X4346689Y-1803843D02*
X4346689Y-1731717D01*
X4274564Y-1731717D01*
X4274564Y-1803843D01*
X4346689Y-1803843D01*
X4539533Y-7717249D02*
X4539533Y-7645123D01*
X4467407Y-7645123D01*
X4467407Y-7717249D01*
X4539533Y-7717249D01*
X4539533Y-7971249D02*
X4539533Y-7899123D01*
X4467407Y-7899123D01*
X4467407Y-7971249D01*
X4539533Y-7971249D01*
X4539533Y-8225249D02*
X4539533Y-8153123D01*
X4467407Y-8153123D01*
X4467407Y-8225249D01*
X4539533Y-8225249D01*
X4539533Y-8479249D02*
X4539533Y-8407123D01*
X4467407Y-8407123D01*
X4467407Y-8479249D01*
X4539533Y-8479249D01*
X4539533Y-8733249D02*
X4539533Y-8661123D01*
X4467407Y-8661123D01*
X4467407Y-8733249D01*
X4539533Y-8733249D01*
X4539533Y-8987249D02*
X4539533Y-8915123D01*
X4467407Y-8915123D01*
X4467407Y-8987249D01*
X4539533Y-8987249D01*
X4539533Y-9241249D02*
X4539533Y-9169123D01*
X4467407Y-9169123D01*
X4467407Y-9241249D01*
X4539533Y-9241249D01*
X4539533Y-9495249D02*
X4539533Y-9423123D01*
X4467407Y-9423123D01*
X4467407Y-9495249D01*
X4539533Y-9495249D01*
X4539533Y-9749249D02*
X4539533Y-9677123D01*
X4467407Y-9677123D01*
X4467407Y-9749249D01*
X4539533Y-9749249D01*
X4539533Y-10003249D02*
X4539533Y-9931123D01*
X4467407Y-9931123D01*
X4467407Y-10003249D01*
X4539533Y-10003249D01*
X5809533Y-7717249D02*
X5809533Y-7645123D01*
X5737407Y-7645123D01*
X5737407Y-7717249D01*
X5809533Y-7717249D01*
X6063533Y-7717249D02*
X6063533Y-7645123D01*
X5991407Y-7645123D01*
X5991407Y-7717249D01*
X6063533Y-7717249D01*
X6317533Y-7717249D02*
X6317533Y-7645123D01*
X6245407Y-7645123D01*
X6245407Y-7717249D01*
X6317533Y-7717249D01*
X6571533Y-7717249D02*
X6571533Y-7645123D01*
X6499407Y-7645123D01*
X6499407Y-7717249D01*
X6571533Y-7717249D01*
X6825533Y-7717249D02*
X6825533Y-7645123D01*
X6753407Y-7645123D01*
X6753407Y-7717249D01*
X6825533Y-7717249D01*
X8095533Y-8479249D02*
X8095533Y-8407123D01*
X8023407Y-8407123D01*
X8023407Y-8479249D01*
X8095533Y-8479249D01*
X8095533Y-8733249D02*
X8095533Y-8661123D01*
X8023407Y-8661123D01*
X8023407Y-8733249D01*
X8095533Y-8733249D01*
X8095533Y-9241249D02*
X8095533Y-9169123D01*
X8023407Y-9169123D01*
X8023407Y-9241249D01*
X8095533Y-9241249D01*
X8095533Y-9495249D02*
X8095533Y-9423123D01*
X8023407Y-9423123D01*
X8023407Y-9495249D01*
X8095533Y-9495249D01*
X8095533Y-9749249D02*
X8095533Y-9677123D01*
X8023407Y-9677123D01*
X8023407Y-9749249D01*
X8095533Y-9749249D01*
X8095533Y-10003249D02*
X8095533Y-9931123D01*
X8023407Y-9931123D01*
X8023407Y-10003249D01*
X8095533Y-10003249D01*
D13*
X7805470Y-8372186D02*
X7881470Y-8296186D01*
X7805470Y-8220186D01*
X7729470Y-8296186D01*
X7805470Y-8372186D01*
X7805470Y-8722186D02*
X7881470Y-8646186D01*
X7805470Y-8570186D01*
X7729470Y-8646186D01*
X7805470Y-8722186D01*
X7805470Y-9072186D02*
X7881470Y-8996186D01*
X7805470Y-8920186D01*
X7729470Y-8996186D01*
X7805470Y-9072186D01*
X7805470Y-9422186D02*
X7881470Y-9346186D01*
X7805470Y-9270186D01*
X7729470Y-9346186D01*
X7805470Y-9422186D01*
X7805470Y-9772186D02*
X7881470Y-9696186D01*
X7805470Y-9620186D01*
X7729470Y-9696186D01*
X7805470Y-9772186D01*
X7805470Y-10122186D02*
X7881470Y-10046186D01*
X7805470Y-9970186D01*
X7729470Y-10046186D01*
X7805470Y-10122186D01*
D14*
X233564Y-7257342D02*
X451564Y-7475342D01*
X451564Y-7257342D02*
X233564Y-7475342D01*
X451564Y-7366342D02*
G75*
G03*
X233564Y-7366342I-109000J0D01*
G01*
X233564Y-7366342D02*
G75*
G03*
X451564Y-7366342I109000J0D01*
G01*
X233564Y-9677343D02*
X451564Y-9895343D01*
X451564Y-9677343D02*
X233564Y-9895343D01*
X451564Y-9786343D02*
G75*
G03*
X233564Y-9786343I-109000J0D01*
G01*
X233564Y-9786343D02*
G75*
G03*
X451564Y-9786343I109000J0D01*
G01*
X778564Y-7273342D02*
X996564Y-7491342D01*
X996564Y-7273342D02*
X778564Y-7491342D01*
X996564Y-7382342D02*
G75*
G03*
X778564Y-7382342I-109000J0D01*
G01*
X778564Y-7382342D02*
G75*
G03*
X996564Y-7382342I109000J0D01*
G01*
X1278564Y-7273342D02*
X1496564Y-7491342D01*
X1496564Y-7273342D02*
X1278564Y-7491342D01*
X1496564Y-7382342D02*
G75*
G03*
X1278564Y-7382342I-109000J0D01*
G01*
X1278564Y-7382342D02*
G75*
G03*
X1496564Y-7382342I109000J0D01*
G01*
X1823564Y-9677343D02*
X2041564Y-9895343D01*
X2041564Y-9677343D02*
X1823564Y-9895343D01*
X2041564Y-9786343D02*
G75*
G03*
X1823564Y-9786343I-109000J0D01*
G01*
X1823564Y-9786343D02*
G75*
G03*
X2041564Y-9786343I109000J0D01*
G01*
X2520908Y-5382499D02*
X2738908Y-5600499D01*
X2738908Y-5382499D02*
X2520908Y-5600499D01*
X2738908Y-5491499D02*
G75*
G03*
X2520908Y-5491499I-109000J0D01*
G01*
X2520908Y-5491499D02*
G75*
G03*
X2738908Y-5491499I109000J0D01*
G01*
X3840907Y-6702499D02*
X4058907Y-6920499D01*
X4058907Y-6702499D02*
X3840907Y-6920499D01*
X4058907Y-6811499D02*
G75*
G03*
X3840907Y-6811499I-109000J0D01*
G01*
X3840907Y-6811499D02*
G75*
G03*
X4058907Y-6811499I109000J0D01*
G01*
X4775470Y-9858186D02*
X4993470Y-10076186D01*
X4993470Y-9858186D02*
X4775470Y-10076186D01*
X4993470Y-9967186D02*
G75*
G03*
X4775470Y-9967186I-109000J0D01*
G01*
X4775470Y-9967186D02*
G75*
G03*
X4993470Y-9967186I109000J0D01*
G01*
X7823470Y-7699186D02*
X8041470Y-7917186D01*
X8041470Y-7699186D02*
X7823470Y-7917186D01*
X8041470Y-7808186D02*
G75*
G03*
X7823470Y-7808186I-109000J0D01*
G01*
X7823470Y-7808186D02*
G75*
G03*
X8041470Y-7808186I109000J0D01*
G01*
D15*
X2700783Y-2823905D02*
X2950782Y-3073905D01*
X2950782Y-2823905D02*
X2700783Y-3073905D01*
X2825782Y-2823905D02*
X2825782Y-3073905D01*
X2700783Y-2948905D02*
X2950782Y-2948905D01*
X2915626Y-118780D02*
X3165626Y-368780D01*
X3165626Y-118780D02*
X2915626Y-368780D01*
X3040626Y-118780D02*
X3040626Y-368780D01*
X2915626Y-243780D02*
X3165626Y-243780D01*
X2915626Y-2150780D02*
X3165626Y-2400780D01*
X3165626Y-2150780D02*
X2915626Y-2400780D01*
X3040626Y-2150780D02*
X3040626Y-2400780D01*
X2915626Y-2275780D02*
X3165626Y-2275780D01*
X4185626Y-118780D02*
X4435626Y-368780D01*
X4435626Y-118780D02*
X4185626Y-368780D01*
X4310626Y-118780D02*
X4310626Y-368780D01*
X4185626Y-243780D02*
X4435626Y-243780D01*
X4185626Y-2150780D02*
X4435626Y-2400780D01*
X4435626Y-2150780D02*
X4185626Y-2400780D01*
X4310626Y-2150780D02*
X4310626Y-2400780D01*
X4185626Y-2275780D02*
X4435626Y-2275780D01*
X4224783Y-2823905D02*
X4474783Y-3073905D01*
X4474783Y-2823905D02*
X4224783Y-3073905D01*
X4349783Y-2823905D02*
X4349783Y-3073905D01*
X4224783Y-2948905D02*
X4474783Y-2948905D01*
D11*
X-244223Y-10816484D02*
X-244223Y-10616484D01*
X-244223Y-10616484D02*
X-196604Y-10616484D01*
X-196604Y-10616484D02*
X-168033Y-10626008D01*
X-168033Y-10626008D02*
X-148985Y-10645055D01*
X-148985Y-10645055D02*
X-139461Y-10664103D01*
X-139461Y-10664103D02*
X-129937Y-10702198D01*
X-129937Y-10702198D02*
X-129937Y-10730770D01*
X-129937Y-10730770D02*
X-139461Y-10768865D01*
X-139461Y-10768865D02*
X-148985Y-10787912D01*
X-148985Y-10787912D02*
X-168033Y-10806960D01*
X-168033Y-10806960D02*
X-196604Y-10816484D01*
X-196604Y-10816484D02*
X-244223Y-10816484D01*
X-44223Y-10816484D02*
X-44223Y-10683150D01*
X-44223Y-10721246D02*
X-34699Y-10702198D01*
X-34699Y-10702198D02*
X-25175Y-10692674D01*
X-25175Y-10692674D02*
X-6128Y-10683150D01*
X-6128Y-10683150D02*
X12920Y-10683150D01*
X79586Y-10816484D02*
X79586Y-10683150D01*
X79586Y-10616484D02*
X70063Y-10626008D01*
X70063Y-10626008D02*
X79586Y-10635531D01*
X79586Y-10635531D02*
X89110Y-10626008D01*
X89110Y-10626008D02*
X79586Y-10616484D01*
X79586Y-10616484D02*
X79586Y-10635531D01*
X203396Y-10816484D02*
X184348Y-10806960D01*
X184348Y-10806960D02*
X174824Y-10787912D01*
X174824Y-10787912D02*
X174824Y-10616484D01*
X308158Y-10816484D02*
X289110Y-10806960D01*
X289110Y-10806960D02*
X279586Y-10787912D01*
X279586Y-10787912D02*
X279586Y-10616484D01*
X536729Y-10816484D02*
X536729Y-10616484D01*
X536729Y-10616484D02*
X603396Y-10759341D01*
X603396Y-10759341D02*
X670063Y-10616484D01*
X670063Y-10616484D02*
X670063Y-10816484D01*
X851015Y-10816484D02*
X851015Y-10711722D01*
X851015Y-10711722D02*
X841491Y-10692674D01*
X841491Y-10692674D02*
X822443Y-10683150D01*
X822443Y-10683150D02*
X784348Y-10683150D01*
X784348Y-10683150D02*
X765301Y-10692674D01*
X851015Y-10806960D02*
X831967Y-10816484D01*
X831967Y-10816484D02*
X784348Y-10816484D01*
X784348Y-10816484D02*
X765301Y-10806960D01*
X765301Y-10806960D02*
X755777Y-10787912D01*
X755777Y-10787912D02*
X755777Y-10768865D01*
X755777Y-10768865D02*
X765301Y-10749817D01*
X765301Y-10749817D02*
X784348Y-10740293D01*
X784348Y-10740293D02*
X831967Y-10740293D01*
X831967Y-10740293D02*
X851015Y-10730770D01*
X946253Y-10683150D02*
X946253Y-10883150D01*
X946253Y-10692674D02*
X965301Y-10683150D01*
X965301Y-10683150D02*
X1003396Y-10683150D01*
X1003396Y-10683150D02*
X1022443Y-10692674D01*
X1022443Y-10692674D02*
X1031967Y-10702198D01*
X1031967Y-10702198D02*
X1041491Y-10721246D01*
X1041491Y-10721246D02*
X1041491Y-10778389D01*
X1041491Y-10778389D02*
X1031967Y-10797436D01*
X1031967Y-10797436D02*
X1022443Y-10806960D01*
X1022443Y-10806960D02*
X1003396Y-10816484D01*
X1003396Y-10816484D02*
X965301Y-10816484D01*
X965301Y-10816484D02*
X946253Y-10806960D01*
X1127205Y-10797436D02*
X1136729Y-10806960D01*
X1136729Y-10806960D02*
X1127205Y-10816484D01*
X1127205Y-10816484D02*
X1117682Y-10806960D01*
X1117682Y-10806960D02*
X1127205Y-10797436D01*
X1127205Y-10797436D02*
X1127205Y-10816484D01*
X1127205Y-10692674D02*
X1136729Y-10702198D01*
X1136729Y-10702198D02*
X1127205Y-10711722D01*
X1127205Y-10711722D02*
X1117682Y-10702198D01*
X1117682Y-10702198D02*
X1127205Y-10692674D01*
X1127205Y-10692674D02*
X1127205Y-10711722D01*
D10*
X-535511Y-11129745D02*
X-505000Y-11160255D01*
X-505000Y-11129745D02*
X-535511Y-11160255D01*
D11*
X-206128Y-11036484D02*
X-187080Y-11036484D01*
X-187080Y-11036484D02*
X-168033Y-11046008D01*
X-168033Y-11046008D02*
X-158509Y-11055531D01*
X-158509Y-11055531D02*
X-148985Y-11074579D01*
X-148985Y-11074579D02*
X-139461Y-11112674D01*
X-139461Y-11112674D02*
X-139461Y-11160293D01*
X-139461Y-11160293D02*
X-148985Y-11198388D01*
X-148985Y-11198388D02*
X-158509Y-11217436D01*
X-158509Y-11217436D02*
X-168033Y-11226960D01*
X-168033Y-11226960D02*
X-187080Y-11236484D01*
X-187080Y-11236484D02*
X-206128Y-11236484D01*
X-206128Y-11236484D02*
X-225175Y-11226960D01*
X-225175Y-11226960D02*
X-234699Y-11217436D01*
X-234699Y-11217436D02*
X-244223Y-11198388D01*
X-244223Y-11198388D02*
X-253747Y-11160293D01*
X-253747Y-11160293D02*
X-253747Y-11112674D01*
X-253747Y-11112674D02*
X-244223Y-11074579D01*
X-244223Y-11074579D02*
X-234699Y-11055531D01*
X-234699Y-11055531D02*
X-225175Y-11046008D01*
X-225175Y-11046008D02*
X-206128Y-11036484D01*
X-53747Y-11217436D02*
X-44223Y-11226960D01*
X-44223Y-11226960D02*
X-53747Y-11236484D01*
X-53747Y-11236484D02*
X-63271Y-11226960D01*
X-63271Y-11226960D02*
X-53747Y-11217436D01*
X-53747Y-11217436D02*
X-53747Y-11236484D01*
X22443Y-11036484D02*
X146253Y-11036484D01*
X146253Y-11036484D02*
X79586Y-11112674D01*
X79586Y-11112674D02*
X108158Y-11112674D01*
X108158Y-11112674D02*
X127205Y-11122198D01*
X127205Y-11122198D02*
X136729Y-11131722D01*
X136729Y-11131722D02*
X146253Y-11150770D01*
X146253Y-11150770D02*
X146253Y-11198388D01*
X146253Y-11198388D02*
X136729Y-11217436D01*
X136729Y-11217436D02*
X127205Y-11226960D01*
X127205Y-11226960D02*
X108158Y-11236484D01*
X108158Y-11236484D02*
X51015Y-11236484D01*
X51015Y-11236484D02*
X31967Y-11226960D01*
X31967Y-11226960D02*
X22443Y-11217436D01*
X270063Y-11036484D02*
X289110Y-11036484D01*
X289110Y-11036484D02*
X308158Y-11046008D01*
X308158Y-11046008D02*
X317682Y-11055531D01*
X317682Y-11055531D02*
X327205Y-11074579D01*
X327205Y-11074579D02*
X336729Y-11112674D01*
X336729Y-11112674D02*
X336729Y-11160293D01*
X336729Y-11160293D02*
X327205Y-11198388D01*
X327205Y-11198388D02*
X317682Y-11217436D01*
X317682Y-11217436D02*
X308158Y-11226960D01*
X308158Y-11226960D02*
X289110Y-11236484D01*
X289110Y-11236484D02*
X270063Y-11236484D01*
X270063Y-11236484D02*
X251015Y-11226960D01*
X251015Y-11226960D02*
X241491Y-11217436D01*
X241491Y-11217436D02*
X231967Y-11198388D01*
X231967Y-11198388D02*
X222443Y-11160293D01*
X222443Y-11160293D02*
X222443Y-11112674D01*
X222443Y-11112674D02*
X231967Y-11074579D01*
X231967Y-11074579D02*
X241491Y-11055531D01*
X241491Y-11055531D02*
X251015Y-11046008D01*
X251015Y-11046008D02*
X270063Y-11036484D01*
X517682Y-11036484D02*
X422443Y-11036484D01*
X422443Y-11036484D02*
X412920Y-11131722D01*
X412920Y-11131722D02*
X422443Y-11122198D01*
X422443Y-11122198D02*
X441491Y-11112674D01*
X441491Y-11112674D02*
X489110Y-11112674D01*
X489110Y-11112674D02*
X508158Y-11122198D01*
X508158Y-11122198D02*
X517682Y-11131722D01*
X517682Y-11131722D02*
X527205Y-11150770D01*
X527205Y-11150770D02*
X527205Y-11198388D01*
X527205Y-11198388D02*
X517682Y-11217436D01*
X517682Y-11217436D02*
X508158Y-11226960D01*
X508158Y-11226960D02*
X489110Y-11236484D01*
X489110Y-11236484D02*
X441491Y-11236484D01*
X441491Y-11236484D02*
X422443Y-11226960D01*
X422443Y-11226960D02*
X412920Y-11217436D01*
X612920Y-11236484D02*
X612920Y-11103150D01*
X612920Y-11122198D02*
X622444Y-11112674D01*
X622444Y-11112674D02*
X641491Y-11103150D01*
X641491Y-11103150D02*
X670063Y-11103150D01*
X670063Y-11103150D02*
X689110Y-11112674D01*
X689110Y-11112674D02*
X698634Y-11131722D01*
X698634Y-11131722D02*
X698634Y-11236484D01*
X698634Y-11131722D02*
X708158Y-11112674D01*
X708158Y-11112674D02*
X727205Y-11103150D01*
X727205Y-11103150D02*
X755777Y-11103150D01*
X755777Y-11103150D02*
X774824Y-11112674D01*
X774824Y-11112674D02*
X784348Y-11131722D01*
X784348Y-11131722D02*
X784348Y-11236484D01*
X879586Y-11236484D02*
X879586Y-11103150D01*
X879586Y-11122198D02*
X889110Y-11112674D01*
X889110Y-11112674D02*
X908158Y-11103150D01*
X908158Y-11103150D02*
X936729Y-11103150D01*
X936729Y-11103150D02*
X955777Y-11112674D01*
X955777Y-11112674D02*
X965301Y-11131722D01*
X965301Y-11131722D02*
X965301Y-11236484D01*
X965301Y-11131722D02*
X974824Y-11112674D01*
X974824Y-11112674D02*
X993872Y-11103150D01*
X993872Y-11103150D02*
X1022443Y-11103150D01*
X1022443Y-11103150D02*
X1041491Y-11112674D01*
X1041491Y-11112674D02*
X1051015Y-11131722D01*
X1051015Y-11131722D02*
X1051015Y-11236484D01*
X1441491Y-11026960D02*
X1270063Y-11284103D01*
X1698634Y-11036484D02*
X1717682Y-11036484D01*
X1717682Y-11036484D02*
X1736729Y-11046008D01*
X1736729Y-11046008D02*
X1746253Y-11055531D01*
X1746253Y-11055531D02*
X1755777Y-11074579D01*
X1755777Y-11074579D02*
X1765301Y-11112674D01*
X1765301Y-11112674D02*
X1765301Y-11160293D01*
X1765301Y-11160293D02*
X1755777Y-11198388D01*
X1755777Y-11198388D02*
X1746253Y-11217436D01*
X1746253Y-11217436D02*
X1736729Y-11226960D01*
X1736729Y-11226960D02*
X1717682Y-11236484D01*
X1717682Y-11236484D02*
X1698634Y-11236484D01*
X1698634Y-11236484D02*
X1679586Y-11226960D01*
X1679586Y-11226960D02*
X1670063Y-11217436D01*
X1670063Y-11217436D02*
X1660539Y-11198388D01*
X1660539Y-11198388D02*
X1651015Y-11160293D01*
X1651015Y-11160293D02*
X1651015Y-11112674D01*
X1651015Y-11112674D02*
X1660539Y-11074579D01*
X1660539Y-11074579D02*
X1670063Y-11055531D01*
X1670063Y-11055531D02*
X1679586Y-11046008D01*
X1679586Y-11046008D02*
X1698634Y-11036484D01*
X1851015Y-11217436D02*
X1860539Y-11226960D01*
X1860539Y-11226960D02*
X1851015Y-11236484D01*
X1851015Y-11236484D02*
X1841491Y-11226960D01*
X1841491Y-11226960D02*
X1851015Y-11217436D01*
X1851015Y-11217436D02*
X1851015Y-11236484D01*
X1984348Y-11036484D02*
X2003396Y-11036484D01*
X2003396Y-11036484D02*
X2022444Y-11046008D01*
X2022444Y-11046008D02*
X2031967Y-11055531D01*
X2031967Y-11055531D02*
X2041491Y-11074579D01*
X2041491Y-11074579D02*
X2051015Y-11112674D01*
X2051015Y-11112674D02*
X2051015Y-11160293D01*
X2051015Y-11160293D02*
X2041491Y-11198388D01*
X2041491Y-11198388D02*
X2031967Y-11217436D01*
X2031967Y-11217436D02*
X2022444Y-11226960D01*
X2022444Y-11226960D02*
X2003396Y-11236484D01*
X2003396Y-11236484D02*
X1984348Y-11236484D01*
X1984348Y-11236484D02*
X1965301Y-11226960D01*
X1965301Y-11226960D02*
X1955777Y-11217436D01*
X1955777Y-11217436D02*
X1946253Y-11198388D01*
X1946253Y-11198388D02*
X1936729Y-11160293D01*
X1936729Y-11160293D02*
X1936729Y-11112674D01*
X1936729Y-11112674D02*
X1946253Y-11074579D01*
X1946253Y-11074579D02*
X1955777Y-11055531D01*
X1955777Y-11055531D02*
X1965301Y-11046008D01*
X1965301Y-11046008D02*
X1984348Y-11036484D01*
X2241491Y-11236484D02*
X2127206Y-11236484D01*
X2184348Y-11236484D02*
X2184348Y-11036484D01*
X2184348Y-11036484D02*
X2165301Y-11065055D01*
X2165301Y-11065055D02*
X2146253Y-11084103D01*
X2146253Y-11084103D02*
X2127206Y-11093627D01*
X2317682Y-11055531D02*
X2327206Y-11046008D01*
X2327206Y-11046008D02*
X2346253Y-11036484D01*
X2346253Y-11036484D02*
X2393872Y-11036484D01*
X2393872Y-11036484D02*
X2412920Y-11046008D01*
X2412920Y-11046008D02*
X2422444Y-11055531D01*
X2422444Y-11055531D02*
X2431968Y-11074579D01*
X2431968Y-11074579D02*
X2431968Y-11093627D01*
X2431968Y-11093627D02*
X2422444Y-11122198D01*
X2422444Y-11122198D02*
X2308158Y-11236484D01*
X2308158Y-11236484D02*
X2431968Y-11236484D01*
X2555777Y-11036484D02*
X2574825Y-11036484D01*
X2574825Y-11036484D02*
X2593872Y-11046008D01*
X2593872Y-11046008D02*
X2603396Y-11055531D01*
X2603396Y-11055531D02*
X2612920Y-11074579D01*
X2612920Y-11074579D02*
X2622444Y-11112674D01*
X2622444Y-11112674D02*
X2622444Y-11160293D01*
X2622444Y-11160293D02*
X2612920Y-11198388D01*
X2612920Y-11198388D02*
X2603396Y-11217436D01*
X2603396Y-11217436D02*
X2593872Y-11226960D01*
X2593872Y-11226960D02*
X2574825Y-11236484D01*
X2574825Y-11236484D02*
X2555777Y-11236484D01*
X2555777Y-11236484D02*
X2536729Y-11226960D01*
X2536729Y-11226960D02*
X2527206Y-11217436D01*
X2527206Y-11217436D02*
X2517682Y-11198388D01*
X2517682Y-11198388D02*
X2508158Y-11160293D01*
X2508158Y-11160293D02*
X2508158Y-11112674D01*
X2508158Y-11112674D02*
X2517682Y-11074579D01*
X2517682Y-11074579D02*
X2527206Y-11055531D01*
X2527206Y-11055531D02*
X2536729Y-11046008D01*
X2536729Y-11046008D02*
X2555777Y-11036484D01*
X2698634Y-11036484D02*
X2698634Y-11074579D01*
X2774825Y-11036484D02*
X2774825Y-11074579D01*
X3070063Y-11312674D02*
X3060539Y-11303150D01*
X3060539Y-11303150D02*
X3041491Y-11274579D01*
X3041491Y-11274579D02*
X3031968Y-11255531D01*
X3031968Y-11255531D02*
X3022444Y-11226960D01*
X3022444Y-11226960D02*
X3012920Y-11179341D01*
X3012920Y-11179341D02*
X3012920Y-11141246D01*
X3012920Y-11141246D02*
X3022444Y-11093627D01*
X3022444Y-11093627D02*
X3031968Y-11065055D01*
X3031968Y-11065055D02*
X3041491Y-11046008D01*
X3041491Y-11046008D02*
X3060539Y-11017436D01*
X3060539Y-11017436D02*
X3070063Y-11007912D01*
X3251015Y-11236484D02*
X3136729Y-11236484D01*
X3193872Y-11236484D02*
X3193872Y-11036484D01*
X3193872Y-11036484D02*
X3174825Y-11065055D01*
X3174825Y-11065055D02*
X3155777Y-11084103D01*
X3155777Y-11084103D02*
X3136729Y-11093627D01*
X3346253Y-11236484D02*
X3384348Y-11236484D01*
X3384348Y-11236484D02*
X3403396Y-11226960D01*
X3403396Y-11226960D02*
X3412920Y-11217436D01*
X3412920Y-11217436D02*
X3431968Y-11188865D01*
X3431968Y-11188865D02*
X3441491Y-11150770D01*
X3441491Y-11150770D02*
X3441491Y-11074579D01*
X3441491Y-11074579D02*
X3431968Y-11055531D01*
X3431968Y-11055531D02*
X3422444Y-11046008D01*
X3422444Y-11046008D02*
X3403396Y-11036484D01*
X3403396Y-11036484D02*
X3365301Y-11036484D01*
X3365301Y-11036484D02*
X3346253Y-11046008D01*
X3346253Y-11046008D02*
X3336729Y-11055531D01*
X3336729Y-11055531D02*
X3327206Y-11074579D01*
X3327206Y-11074579D02*
X3327206Y-11122198D01*
X3327206Y-11122198D02*
X3336729Y-11141246D01*
X3336729Y-11141246D02*
X3346253Y-11150770D01*
X3346253Y-11150770D02*
X3365301Y-11160293D01*
X3365301Y-11160293D02*
X3403396Y-11160293D01*
X3403396Y-11160293D02*
X3422444Y-11150770D01*
X3422444Y-11150770D02*
X3431968Y-11141246D01*
X3431968Y-11141246D02*
X3441491Y-11122198D01*
X3679587Y-11236484D02*
X3679587Y-11036484D01*
X3765301Y-11236484D02*
X3765301Y-11131722D01*
X3765301Y-11131722D02*
X3755777Y-11112674D01*
X3755777Y-11112674D02*
X3736730Y-11103150D01*
X3736730Y-11103150D02*
X3708158Y-11103150D01*
X3708158Y-11103150D02*
X3689110Y-11112674D01*
X3689110Y-11112674D02*
X3679587Y-11122198D01*
X3889110Y-11236484D02*
X3870063Y-11226960D01*
X3870063Y-11226960D02*
X3860539Y-11217436D01*
X3860539Y-11217436D02*
X3851015Y-11198388D01*
X3851015Y-11198388D02*
X3851015Y-11141246D01*
X3851015Y-11141246D02*
X3860539Y-11122198D01*
X3860539Y-11122198D02*
X3870063Y-11112674D01*
X3870063Y-11112674D02*
X3889110Y-11103150D01*
X3889110Y-11103150D02*
X3917682Y-11103150D01*
X3917682Y-11103150D02*
X3936730Y-11112674D01*
X3936730Y-11112674D02*
X3946253Y-11122198D01*
X3946253Y-11122198D02*
X3955777Y-11141246D01*
X3955777Y-11141246D02*
X3955777Y-11198388D01*
X3955777Y-11198388D02*
X3946253Y-11217436D01*
X3946253Y-11217436D02*
X3936730Y-11226960D01*
X3936730Y-11226960D02*
X3917682Y-11236484D01*
X3917682Y-11236484D02*
X3889110Y-11236484D01*
X4070063Y-11236484D02*
X4051015Y-11226960D01*
X4051015Y-11226960D02*
X4041491Y-11207912D01*
X4041491Y-11207912D02*
X4041491Y-11036484D01*
X4222444Y-11226960D02*
X4203396Y-11236484D01*
X4203396Y-11236484D02*
X4165301Y-11236484D01*
X4165301Y-11236484D02*
X4146253Y-11226960D01*
X4146253Y-11226960D02*
X4136730Y-11207912D01*
X4136730Y-11207912D02*
X4136730Y-11131722D01*
X4136730Y-11131722D02*
X4146253Y-11112674D01*
X4146253Y-11112674D02*
X4165301Y-11103150D01*
X4165301Y-11103150D02*
X4203396Y-11103150D01*
X4203396Y-11103150D02*
X4222444Y-11112674D01*
X4222444Y-11112674D02*
X4231968Y-11131722D01*
X4231968Y-11131722D02*
X4231968Y-11150770D01*
X4231968Y-11150770D02*
X4136730Y-11169817D01*
X4308158Y-11226960D02*
X4327206Y-11236484D01*
X4327206Y-11236484D02*
X4365301Y-11236484D01*
X4365301Y-11236484D02*
X4384349Y-11226960D01*
X4384349Y-11226960D02*
X4393873Y-11207912D01*
X4393873Y-11207912D02*
X4393873Y-11198388D01*
X4393873Y-11198388D02*
X4384349Y-11179341D01*
X4384349Y-11179341D02*
X4365301Y-11169817D01*
X4365301Y-11169817D02*
X4336730Y-11169817D01*
X4336730Y-11169817D02*
X4317682Y-11160293D01*
X4317682Y-11160293D02*
X4308158Y-11141246D01*
X4308158Y-11141246D02*
X4308158Y-11131722D01*
X4308158Y-11131722D02*
X4317682Y-11112674D01*
X4317682Y-11112674D02*
X4336730Y-11103150D01*
X4336730Y-11103150D02*
X4365301Y-11103150D01*
X4365301Y-11103150D02*
X4384349Y-11112674D01*
X4460539Y-11312674D02*
X4470063Y-11303150D01*
X4470063Y-11303150D02*
X4489111Y-11274579D01*
X4489111Y-11274579D02*
X4498634Y-11255531D01*
X4498634Y-11255531D02*
X4508158Y-11226960D01*
X4508158Y-11226960D02*
X4517682Y-11179341D01*
X4517682Y-11179341D02*
X4517682Y-11141246D01*
X4517682Y-11141246D02*
X4508158Y-11093627D01*
X4508158Y-11093627D02*
X4498634Y-11065055D01*
X4498634Y-11065055D02*
X4489111Y-11046008D01*
X4489111Y-11046008D02*
X4470063Y-11017436D01*
X4470063Y-11017436D02*
X4460539Y-11007912D01*
D10*
X-505000Y-11409000D02*
G75*
G03*
X-585000Y-11409000I-40000J0D01*
G01*
X-585000Y-11409000D02*
G75*
G03*
X-505000Y-11409000I40000J0D01*
G01*
D11*
X-206128Y-11300484D02*
X-187080Y-11300484D01*
X-187080Y-11300484D02*
X-168033Y-11310008D01*
X-168033Y-11310008D02*
X-158509Y-11319531D01*
X-158509Y-11319531D02*
X-148985Y-11338579D01*
X-148985Y-11338579D02*
X-139461Y-11376674D01*
X-139461Y-11376674D02*
X-139461Y-11424293D01*
X-139461Y-11424293D02*
X-148985Y-11462388D01*
X-148985Y-11462388D02*
X-158509Y-11481436D01*
X-158509Y-11481436D02*
X-168033Y-11490960D01*
X-168033Y-11490960D02*
X-187080Y-11500484D01*
X-187080Y-11500484D02*
X-206128Y-11500484D01*
X-206128Y-11500484D02*
X-225175Y-11490960D01*
X-225175Y-11490960D02*
X-234699Y-11481436D01*
X-234699Y-11481436D02*
X-244223Y-11462388D01*
X-244223Y-11462388D02*
X-253747Y-11424293D01*
X-253747Y-11424293D02*
X-253747Y-11376674D01*
X-253747Y-11376674D02*
X-244223Y-11338579D01*
X-244223Y-11338579D02*
X-234699Y-11319531D01*
X-234699Y-11319531D02*
X-225175Y-11310008D01*
X-225175Y-11310008D02*
X-206128Y-11300484D01*
X-53747Y-11481436D02*
X-44223Y-11490960D01*
X-44223Y-11490960D02*
X-53747Y-11500484D01*
X-53747Y-11500484D02*
X-63271Y-11490960D01*
X-63271Y-11490960D02*
X-53747Y-11481436D01*
X-53747Y-11481436D02*
X-53747Y-11500484D01*
X70063Y-11386198D02*
X51015Y-11376674D01*
X51015Y-11376674D02*
X41491Y-11367150D01*
X41491Y-11367150D02*
X31967Y-11348103D01*
X31967Y-11348103D02*
X31967Y-11338579D01*
X31967Y-11338579D02*
X41491Y-11319531D01*
X41491Y-11319531D02*
X51015Y-11310008D01*
X51015Y-11310008D02*
X70063Y-11300484D01*
X70063Y-11300484D02*
X108158Y-11300484D01*
X108158Y-11300484D02*
X127205Y-11310008D01*
X127205Y-11310008D02*
X136729Y-11319531D01*
X136729Y-11319531D02*
X146253Y-11338579D01*
X146253Y-11338579D02*
X146253Y-11348103D01*
X146253Y-11348103D02*
X136729Y-11367150D01*
X136729Y-11367150D02*
X127205Y-11376674D01*
X127205Y-11376674D02*
X108158Y-11386198D01*
X108158Y-11386198D02*
X70063Y-11386198D01*
X70063Y-11386198D02*
X51015Y-11395722D01*
X51015Y-11395722D02*
X41491Y-11405246D01*
X41491Y-11405246D02*
X31967Y-11424293D01*
X31967Y-11424293D02*
X31967Y-11462388D01*
X31967Y-11462388D02*
X41491Y-11481436D01*
X41491Y-11481436D02*
X51015Y-11490960D01*
X51015Y-11490960D02*
X70063Y-11500484D01*
X70063Y-11500484D02*
X108158Y-11500484D01*
X108158Y-11500484D02*
X127205Y-11490960D01*
X127205Y-11490960D02*
X136729Y-11481436D01*
X136729Y-11481436D02*
X146253Y-11462388D01*
X146253Y-11462388D02*
X146253Y-11424293D01*
X146253Y-11424293D02*
X136729Y-11405246D01*
X136729Y-11405246D02*
X127205Y-11395722D01*
X127205Y-11395722D02*
X108158Y-11386198D01*
X270063Y-11300484D02*
X289110Y-11300484D01*
X289110Y-11300484D02*
X308158Y-11310008D01*
X308158Y-11310008D02*
X317682Y-11319531D01*
X317682Y-11319531D02*
X327205Y-11338579D01*
X327205Y-11338579D02*
X336729Y-11376674D01*
X336729Y-11376674D02*
X336729Y-11424293D01*
X336729Y-11424293D02*
X327205Y-11462388D01*
X327205Y-11462388D02*
X317682Y-11481436D01*
X317682Y-11481436D02*
X308158Y-11490960D01*
X308158Y-11490960D02*
X289110Y-11500484D01*
X289110Y-11500484D02*
X270063Y-11500484D01*
X270063Y-11500484D02*
X251015Y-11490960D01*
X251015Y-11490960D02*
X241491Y-11481436D01*
X241491Y-11481436D02*
X231967Y-11462388D01*
X231967Y-11462388D02*
X222443Y-11424293D01*
X222443Y-11424293D02*
X222443Y-11376674D01*
X222443Y-11376674D02*
X231967Y-11338579D01*
X231967Y-11338579D02*
X241491Y-11319531D01*
X241491Y-11319531D02*
X251015Y-11310008D01*
X251015Y-11310008D02*
X270063Y-11300484D01*
X460539Y-11300484D02*
X479586Y-11300484D01*
X479586Y-11300484D02*
X498634Y-11310008D01*
X498634Y-11310008D02*
X508158Y-11319531D01*
X508158Y-11319531D02*
X517682Y-11338579D01*
X517682Y-11338579D02*
X527205Y-11376674D01*
X527205Y-11376674D02*
X527205Y-11424293D01*
X527205Y-11424293D02*
X517682Y-11462388D01*
X517682Y-11462388D02*
X508158Y-11481436D01*
X508158Y-11481436D02*
X498634Y-11490960D01*
X498634Y-11490960D02*
X479586Y-11500484D01*
X479586Y-11500484D02*
X460539Y-11500484D01*
X460539Y-11500484D02*
X441491Y-11490960D01*
X441491Y-11490960D02*
X431967Y-11481436D01*
X431967Y-11481436D02*
X422443Y-11462388D01*
X422443Y-11462388D02*
X412920Y-11424293D01*
X412920Y-11424293D02*
X412920Y-11376674D01*
X412920Y-11376674D02*
X422443Y-11338579D01*
X422443Y-11338579D02*
X431967Y-11319531D01*
X431967Y-11319531D02*
X441491Y-11310008D01*
X441491Y-11310008D02*
X460539Y-11300484D01*
X612920Y-11500484D02*
X612920Y-11367150D01*
X612920Y-11386198D02*
X622444Y-11376674D01*
X622444Y-11376674D02*
X641491Y-11367150D01*
X641491Y-11367150D02*
X670063Y-11367150D01*
X670063Y-11367150D02*
X689110Y-11376674D01*
X689110Y-11376674D02*
X698634Y-11395722D01*
X698634Y-11395722D02*
X698634Y-11500484D01*
X698634Y-11395722D02*
X708158Y-11376674D01*
X708158Y-11376674D02*
X727205Y-11367150D01*
X727205Y-11367150D02*
X755777Y-11367150D01*
X755777Y-11367150D02*
X774824Y-11376674D01*
X774824Y-11376674D02*
X784348Y-11395722D01*
X784348Y-11395722D02*
X784348Y-11500484D01*
X879586Y-11500484D02*
X879586Y-11367150D01*
X879586Y-11386198D02*
X889110Y-11376674D01*
X889110Y-11376674D02*
X908158Y-11367150D01*
X908158Y-11367150D02*
X936729Y-11367150D01*
X936729Y-11367150D02*
X955777Y-11376674D01*
X955777Y-11376674D02*
X965301Y-11395722D01*
X965301Y-11395722D02*
X965301Y-11500484D01*
X965301Y-11395722D02*
X974824Y-11376674D01*
X974824Y-11376674D02*
X993872Y-11367150D01*
X993872Y-11367150D02*
X1022443Y-11367150D01*
X1022443Y-11367150D02*
X1041491Y-11376674D01*
X1041491Y-11376674D02*
X1051015Y-11395722D01*
X1051015Y-11395722D02*
X1051015Y-11500484D01*
X1441491Y-11290960D02*
X1270063Y-11548103D01*
X1698634Y-11300484D02*
X1717682Y-11300484D01*
X1717682Y-11300484D02*
X1736729Y-11310008D01*
X1736729Y-11310008D02*
X1746253Y-11319531D01*
X1746253Y-11319531D02*
X1755777Y-11338579D01*
X1755777Y-11338579D02*
X1765301Y-11376674D01*
X1765301Y-11376674D02*
X1765301Y-11424293D01*
X1765301Y-11424293D02*
X1755777Y-11462388D01*
X1755777Y-11462388D02*
X1746253Y-11481436D01*
X1746253Y-11481436D02*
X1736729Y-11490960D01*
X1736729Y-11490960D02*
X1717682Y-11500484D01*
X1717682Y-11500484D02*
X1698634Y-11500484D01*
X1698634Y-11500484D02*
X1679586Y-11490960D01*
X1679586Y-11490960D02*
X1670063Y-11481436D01*
X1670063Y-11481436D02*
X1660539Y-11462388D01*
X1660539Y-11462388D02*
X1651015Y-11424293D01*
X1651015Y-11424293D02*
X1651015Y-11376674D01*
X1651015Y-11376674D02*
X1660539Y-11338579D01*
X1660539Y-11338579D02*
X1670063Y-11319531D01*
X1670063Y-11319531D02*
X1679586Y-11310008D01*
X1679586Y-11310008D02*
X1698634Y-11300484D01*
X1851015Y-11481436D02*
X1860539Y-11490960D01*
X1860539Y-11490960D02*
X1851015Y-11500484D01*
X1851015Y-11500484D02*
X1841491Y-11490960D01*
X1841491Y-11490960D02*
X1851015Y-11481436D01*
X1851015Y-11481436D02*
X1851015Y-11500484D01*
X1984348Y-11300484D02*
X2003396Y-11300484D01*
X2003396Y-11300484D02*
X2022444Y-11310008D01*
X2022444Y-11310008D02*
X2031967Y-11319531D01*
X2031967Y-11319531D02*
X2041491Y-11338579D01*
X2041491Y-11338579D02*
X2051015Y-11376674D01*
X2051015Y-11376674D02*
X2051015Y-11424293D01*
X2051015Y-11424293D02*
X2041491Y-11462388D01*
X2041491Y-11462388D02*
X2031967Y-11481436D01*
X2031967Y-11481436D02*
X2022444Y-11490960D01*
X2022444Y-11490960D02*
X2003396Y-11500484D01*
X2003396Y-11500484D02*
X1984348Y-11500484D01*
X1984348Y-11500484D02*
X1965301Y-11490960D01*
X1965301Y-11490960D02*
X1955777Y-11481436D01*
X1955777Y-11481436D02*
X1946253Y-11462388D01*
X1946253Y-11462388D02*
X1936729Y-11424293D01*
X1936729Y-11424293D02*
X1936729Y-11376674D01*
X1936729Y-11376674D02*
X1946253Y-11338579D01*
X1946253Y-11338579D02*
X1955777Y-11319531D01*
X1955777Y-11319531D02*
X1965301Y-11310008D01*
X1965301Y-11310008D02*
X1984348Y-11300484D01*
X2117682Y-11300484D02*
X2241491Y-11300484D01*
X2241491Y-11300484D02*
X2174825Y-11376674D01*
X2174825Y-11376674D02*
X2203396Y-11376674D01*
X2203396Y-11376674D02*
X2222444Y-11386198D01*
X2222444Y-11386198D02*
X2231968Y-11395722D01*
X2231968Y-11395722D02*
X2241491Y-11414769D01*
X2241491Y-11414769D02*
X2241491Y-11462388D01*
X2241491Y-11462388D02*
X2231968Y-11481436D01*
X2231968Y-11481436D02*
X2222444Y-11490960D01*
X2222444Y-11490960D02*
X2203396Y-11500484D01*
X2203396Y-11500484D02*
X2146253Y-11500484D01*
X2146253Y-11500484D02*
X2127206Y-11490960D01*
X2127206Y-11490960D02*
X2117682Y-11481436D01*
X2431968Y-11500484D02*
X2317682Y-11500484D01*
X2374825Y-11500484D02*
X2374825Y-11300484D01*
X2374825Y-11300484D02*
X2355777Y-11329055D01*
X2355777Y-11329055D02*
X2336729Y-11348103D01*
X2336729Y-11348103D02*
X2317682Y-11357627D01*
X2612920Y-11300484D02*
X2517682Y-11300484D01*
X2517682Y-11300484D02*
X2508158Y-11395722D01*
X2508158Y-11395722D02*
X2517682Y-11386198D01*
X2517682Y-11386198D02*
X2536729Y-11376674D01*
X2536729Y-11376674D02*
X2584349Y-11376674D01*
X2584349Y-11376674D02*
X2603396Y-11386198D01*
X2603396Y-11386198D02*
X2612920Y-11395722D01*
X2612920Y-11395722D02*
X2622444Y-11414769D01*
X2622444Y-11414769D02*
X2622444Y-11462388D01*
X2622444Y-11462388D02*
X2612920Y-11481436D01*
X2612920Y-11481436D02*
X2603396Y-11490960D01*
X2603396Y-11490960D02*
X2584349Y-11500484D01*
X2584349Y-11500484D02*
X2536729Y-11500484D01*
X2536729Y-11500484D02*
X2517682Y-11490960D01*
X2517682Y-11490960D02*
X2508158Y-11481436D01*
X2698634Y-11300484D02*
X2698634Y-11338579D01*
X2774825Y-11300484D02*
X2774825Y-11338579D01*
X3070063Y-11576674D02*
X3060539Y-11567150D01*
X3060539Y-11567150D02*
X3041491Y-11538579D01*
X3041491Y-11538579D02*
X3031968Y-11519531D01*
X3031968Y-11519531D02*
X3022444Y-11490960D01*
X3022444Y-11490960D02*
X3012920Y-11443341D01*
X3012920Y-11443341D02*
X3012920Y-11405246D01*
X3012920Y-11405246D02*
X3022444Y-11357627D01*
X3022444Y-11357627D02*
X3031968Y-11329055D01*
X3031968Y-11329055D02*
X3041491Y-11310008D01*
X3041491Y-11310008D02*
X3060539Y-11281436D01*
X3060539Y-11281436D02*
X3070063Y-11271912D01*
X3231968Y-11300484D02*
X3193872Y-11300484D01*
X3193872Y-11300484D02*
X3174825Y-11310008D01*
X3174825Y-11310008D02*
X3165301Y-11319531D01*
X3165301Y-11319531D02*
X3146253Y-11348103D01*
X3146253Y-11348103D02*
X3136729Y-11386198D01*
X3136729Y-11386198D02*
X3136729Y-11462388D01*
X3136729Y-11462388D02*
X3146253Y-11481436D01*
X3146253Y-11481436D02*
X3155777Y-11490960D01*
X3155777Y-11490960D02*
X3174825Y-11500484D01*
X3174825Y-11500484D02*
X3212920Y-11500484D01*
X3212920Y-11500484D02*
X3231968Y-11490960D01*
X3231968Y-11490960D02*
X3241491Y-11481436D01*
X3241491Y-11481436D02*
X3251015Y-11462388D01*
X3251015Y-11462388D02*
X3251015Y-11414769D01*
X3251015Y-11414769D02*
X3241491Y-11395722D01*
X3241491Y-11395722D02*
X3231968Y-11386198D01*
X3231968Y-11386198D02*
X3212920Y-11376674D01*
X3212920Y-11376674D02*
X3174825Y-11376674D01*
X3174825Y-11376674D02*
X3155777Y-11386198D01*
X3155777Y-11386198D02*
X3146253Y-11395722D01*
X3146253Y-11395722D02*
X3136729Y-11414769D01*
X3489110Y-11500484D02*
X3489110Y-11300484D01*
X3574825Y-11500484D02*
X3574825Y-11395722D01*
X3574825Y-11395722D02*
X3565301Y-11376674D01*
X3565301Y-11376674D02*
X3546253Y-11367150D01*
X3546253Y-11367150D02*
X3517682Y-11367150D01*
X3517682Y-11367150D02*
X3498634Y-11376674D01*
X3498634Y-11376674D02*
X3489110Y-11386198D01*
X3698634Y-11500484D02*
X3679587Y-11490960D01*
X3679587Y-11490960D02*
X3670063Y-11481436D01*
X3670063Y-11481436D02*
X3660539Y-11462388D01*
X3660539Y-11462388D02*
X3660539Y-11405246D01*
X3660539Y-11405246D02*
X3670063Y-11386198D01*
X3670063Y-11386198D02*
X3679587Y-11376674D01*
X3679587Y-11376674D02*
X3698634Y-11367150D01*
X3698634Y-11367150D02*
X3727206Y-11367150D01*
X3727206Y-11367150D02*
X3746253Y-11376674D01*
X3746253Y-11376674D02*
X3755777Y-11386198D01*
X3755777Y-11386198D02*
X3765301Y-11405246D01*
X3765301Y-11405246D02*
X3765301Y-11462388D01*
X3765301Y-11462388D02*
X3755777Y-11481436D01*
X3755777Y-11481436D02*
X3746253Y-11490960D01*
X3746253Y-11490960D02*
X3727206Y-11500484D01*
X3727206Y-11500484D02*
X3698634Y-11500484D01*
X3879587Y-11500484D02*
X3860539Y-11490960D01*
X3860539Y-11490960D02*
X3851015Y-11471912D01*
X3851015Y-11471912D02*
X3851015Y-11300484D01*
X4031968Y-11490960D02*
X4012920Y-11500484D01*
X4012920Y-11500484D02*
X3974825Y-11500484D01*
X3974825Y-11500484D02*
X3955777Y-11490960D01*
X3955777Y-11490960D02*
X3946253Y-11471912D01*
X3946253Y-11471912D02*
X3946253Y-11395722D01*
X3946253Y-11395722D02*
X3955777Y-11376674D01*
X3955777Y-11376674D02*
X3974825Y-11367150D01*
X3974825Y-11367150D02*
X4012920Y-11367150D01*
X4012920Y-11367150D02*
X4031968Y-11376674D01*
X4031968Y-11376674D02*
X4041491Y-11395722D01*
X4041491Y-11395722D02*
X4041491Y-11414769D01*
X4041491Y-11414769D02*
X3946253Y-11433817D01*
X4117682Y-11490960D02*
X4136730Y-11500484D01*
X4136730Y-11500484D02*
X4174825Y-11500484D01*
X4174825Y-11500484D02*
X4193872Y-11490960D01*
X4193872Y-11490960D02*
X4203396Y-11471912D01*
X4203396Y-11471912D02*
X4203396Y-11462388D01*
X4203396Y-11462388D02*
X4193872Y-11443341D01*
X4193872Y-11443341D02*
X4174825Y-11433817D01*
X4174825Y-11433817D02*
X4146253Y-11433817D01*
X4146253Y-11433817D02*
X4127206Y-11424293D01*
X4127206Y-11424293D02*
X4117682Y-11405246D01*
X4117682Y-11405246D02*
X4117682Y-11395722D01*
X4117682Y-11395722D02*
X4127206Y-11376674D01*
X4127206Y-11376674D02*
X4146253Y-11367150D01*
X4146253Y-11367150D02*
X4174825Y-11367150D01*
X4174825Y-11367150D02*
X4193872Y-11376674D01*
X4270063Y-11576674D02*
X4279587Y-11567150D01*
X4279587Y-11567150D02*
X4298634Y-11538579D01*
X4298634Y-11538579D02*
X4308158Y-11519531D01*
X4308158Y-11519531D02*
X4317682Y-11490960D01*
X4317682Y-11490960D02*
X4327206Y-11443341D01*
X4327206Y-11443341D02*
X4327206Y-11405246D01*
X4327206Y-11405246D02*
X4317682Y-11357627D01*
X4317682Y-11357627D02*
X4308158Y-11329055D01*
X4308158Y-11329055D02*
X4298634Y-11310008D01*
X4298634Y-11310008D02*
X4279587Y-11281436D01*
X4279587Y-11281436D02*
X4270063Y-11271912D01*
D10*
X-555000Y-11623000D02*
X-555000Y-11723000D01*
X-605000Y-11673000D02*
X-505000Y-11673000D01*
D11*
X-139461Y-11764484D02*
X-253747Y-11764484D01*
X-196604Y-11764484D02*
X-196604Y-11564484D01*
X-196604Y-11564484D02*
X-215652Y-11593055D01*
X-215652Y-11593055D02*
X-234699Y-11612103D01*
X-234699Y-11612103D02*
X-253747Y-11621627D01*
X-53747Y-11745436D02*
X-44223Y-11754960D01*
X-44223Y-11754960D02*
X-53747Y-11764484D01*
X-53747Y-11764484D02*
X-63271Y-11754960D01*
X-63271Y-11754960D02*
X-53747Y-11745436D01*
X-53747Y-11745436D02*
X-53747Y-11764484D01*
X79586Y-11564484D02*
X98634Y-11564484D01*
X98634Y-11564484D02*
X117682Y-11574008D01*
X117682Y-11574008D02*
X127205Y-11583531D01*
X127205Y-11583531D02*
X136729Y-11602579D01*
X136729Y-11602579D02*
X146253Y-11640674D01*
X146253Y-11640674D02*
X146253Y-11688293D01*
X146253Y-11688293D02*
X136729Y-11726388D01*
X136729Y-11726388D02*
X127205Y-11745436D01*
X127205Y-11745436D02*
X117682Y-11754960D01*
X117682Y-11754960D02*
X98634Y-11764484D01*
X98634Y-11764484D02*
X79586Y-11764484D01*
X79586Y-11764484D02*
X60539Y-11754960D01*
X60539Y-11754960D02*
X51015Y-11745436D01*
X51015Y-11745436D02*
X41491Y-11726388D01*
X41491Y-11726388D02*
X31967Y-11688293D01*
X31967Y-11688293D02*
X31967Y-11640674D01*
X31967Y-11640674D02*
X41491Y-11602579D01*
X41491Y-11602579D02*
X51015Y-11583531D01*
X51015Y-11583531D02*
X60539Y-11574008D01*
X60539Y-11574008D02*
X79586Y-11564484D01*
X270063Y-11564484D02*
X289110Y-11564484D01*
X289110Y-11564484D02*
X308158Y-11574008D01*
X308158Y-11574008D02*
X317682Y-11583531D01*
X317682Y-11583531D02*
X327205Y-11602579D01*
X327205Y-11602579D02*
X336729Y-11640674D01*
X336729Y-11640674D02*
X336729Y-11688293D01*
X336729Y-11688293D02*
X327205Y-11726388D01*
X327205Y-11726388D02*
X317682Y-11745436D01*
X317682Y-11745436D02*
X308158Y-11754960D01*
X308158Y-11754960D02*
X289110Y-11764484D01*
X289110Y-11764484D02*
X270063Y-11764484D01*
X270063Y-11764484D02*
X251015Y-11754960D01*
X251015Y-11754960D02*
X241491Y-11745436D01*
X241491Y-11745436D02*
X231967Y-11726388D01*
X231967Y-11726388D02*
X222443Y-11688293D01*
X222443Y-11688293D02*
X222443Y-11640674D01*
X222443Y-11640674D02*
X231967Y-11602579D01*
X231967Y-11602579D02*
X241491Y-11583531D01*
X241491Y-11583531D02*
X251015Y-11574008D01*
X251015Y-11574008D02*
X270063Y-11564484D01*
X460539Y-11564484D02*
X479586Y-11564484D01*
X479586Y-11564484D02*
X498634Y-11574008D01*
X498634Y-11574008D02*
X508158Y-11583531D01*
X508158Y-11583531D02*
X517682Y-11602579D01*
X517682Y-11602579D02*
X527205Y-11640674D01*
X527205Y-11640674D02*
X527205Y-11688293D01*
X527205Y-11688293D02*
X517682Y-11726388D01*
X517682Y-11726388D02*
X508158Y-11745436D01*
X508158Y-11745436D02*
X498634Y-11754960D01*
X498634Y-11754960D02*
X479586Y-11764484D01*
X479586Y-11764484D02*
X460539Y-11764484D01*
X460539Y-11764484D02*
X441491Y-11754960D01*
X441491Y-11754960D02*
X431967Y-11745436D01*
X431967Y-11745436D02*
X422443Y-11726388D01*
X422443Y-11726388D02*
X412920Y-11688293D01*
X412920Y-11688293D02*
X412920Y-11640674D01*
X412920Y-11640674D02*
X422443Y-11602579D01*
X422443Y-11602579D02*
X431967Y-11583531D01*
X431967Y-11583531D02*
X441491Y-11574008D01*
X441491Y-11574008D02*
X460539Y-11564484D01*
X612920Y-11764484D02*
X612920Y-11631150D01*
X612920Y-11650198D02*
X622444Y-11640674D01*
X622444Y-11640674D02*
X641491Y-11631150D01*
X641491Y-11631150D02*
X670063Y-11631150D01*
X670063Y-11631150D02*
X689110Y-11640674D01*
X689110Y-11640674D02*
X698634Y-11659722D01*
X698634Y-11659722D02*
X698634Y-11764484D01*
X698634Y-11659722D02*
X708158Y-11640674D01*
X708158Y-11640674D02*
X727205Y-11631150D01*
X727205Y-11631150D02*
X755777Y-11631150D01*
X755777Y-11631150D02*
X774824Y-11640674D01*
X774824Y-11640674D02*
X784348Y-11659722D01*
X784348Y-11659722D02*
X784348Y-11764484D01*
X879586Y-11764484D02*
X879586Y-11631150D01*
X879586Y-11650198D02*
X889110Y-11640674D01*
X889110Y-11640674D02*
X908158Y-11631150D01*
X908158Y-11631150D02*
X936729Y-11631150D01*
X936729Y-11631150D02*
X955777Y-11640674D01*
X955777Y-11640674D02*
X965301Y-11659722D01*
X965301Y-11659722D02*
X965301Y-11764484D01*
X965301Y-11659722D02*
X974824Y-11640674D01*
X974824Y-11640674D02*
X993872Y-11631150D01*
X993872Y-11631150D02*
X1022443Y-11631150D01*
X1022443Y-11631150D02*
X1041491Y-11640674D01*
X1041491Y-11640674D02*
X1051015Y-11659722D01*
X1051015Y-11659722D02*
X1051015Y-11764484D01*
X1441491Y-11554960D02*
X1270063Y-11812103D01*
X1698634Y-11564484D02*
X1717682Y-11564484D01*
X1717682Y-11564484D02*
X1736729Y-11574008D01*
X1736729Y-11574008D02*
X1746253Y-11583531D01*
X1746253Y-11583531D02*
X1755777Y-11602579D01*
X1755777Y-11602579D02*
X1765301Y-11640674D01*
X1765301Y-11640674D02*
X1765301Y-11688293D01*
X1765301Y-11688293D02*
X1755777Y-11726388D01*
X1755777Y-11726388D02*
X1746253Y-11745436D01*
X1746253Y-11745436D02*
X1736729Y-11754960D01*
X1736729Y-11754960D02*
X1717682Y-11764484D01*
X1717682Y-11764484D02*
X1698634Y-11764484D01*
X1698634Y-11764484D02*
X1679586Y-11754960D01*
X1679586Y-11754960D02*
X1670063Y-11745436D01*
X1670063Y-11745436D02*
X1660539Y-11726388D01*
X1660539Y-11726388D02*
X1651015Y-11688293D01*
X1651015Y-11688293D02*
X1651015Y-11640674D01*
X1651015Y-11640674D02*
X1660539Y-11602579D01*
X1660539Y-11602579D02*
X1670063Y-11583531D01*
X1670063Y-11583531D02*
X1679586Y-11574008D01*
X1679586Y-11574008D02*
X1698634Y-11564484D01*
X1851015Y-11745436D02*
X1860539Y-11754960D01*
X1860539Y-11754960D02*
X1851015Y-11764484D01*
X1851015Y-11764484D02*
X1841491Y-11754960D01*
X1841491Y-11754960D02*
X1851015Y-11745436D01*
X1851015Y-11745436D02*
X1851015Y-11764484D01*
X1984348Y-11564484D02*
X2003396Y-11564484D01*
X2003396Y-11564484D02*
X2022444Y-11574008D01*
X2022444Y-11574008D02*
X2031967Y-11583531D01*
X2031967Y-11583531D02*
X2041491Y-11602579D01*
X2041491Y-11602579D02*
X2051015Y-11640674D01*
X2051015Y-11640674D02*
X2051015Y-11688293D01*
X2051015Y-11688293D02*
X2041491Y-11726388D01*
X2041491Y-11726388D02*
X2031967Y-11745436D01*
X2031967Y-11745436D02*
X2022444Y-11754960D01*
X2022444Y-11754960D02*
X2003396Y-11764484D01*
X2003396Y-11764484D02*
X1984348Y-11764484D01*
X1984348Y-11764484D02*
X1965301Y-11754960D01*
X1965301Y-11754960D02*
X1955777Y-11745436D01*
X1955777Y-11745436D02*
X1946253Y-11726388D01*
X1946253Y-11726388D02*
X1936729Y-11688293D01*
X1936729Y-11688293D02*
X1936729Y-11640674D01*
X1936729Y-11640674D02*
X1946253Y-11602579D01*
X1946253Y-11602579D02*
X1955777Y-11583531D01*
X1955777Y-11583531D02*
X1965301Y-11574008D01*
X1965301Y-11574008D02*
X1984348Y-11564484D01*
X2117682Y-11564484D02*
X2241491Y-11564484D01*
X2241491Y-11564484D02*
X2174825Y-11640674D01*
X2174825Y-11640674D02*
X2203396Y-11640674D01*
X2203396Y-11640674D02*
X2222444Y-11650198D01*
X2222444Y-11650198D02*
X2231968Y-11659722D01*
X2231968Y-11659722D02*
X2241491Y-11678769D01*
X2241491Y-11678769D02*
X2241491Y-11726388D01*
X2241491Y-11726388D02*
X2231968Y-11745436D01*
X2231968Y-11745436D02*
X2222444Y-11754960D01*
X2222444Y-11754960D02*
X2203396Y-11764484D01*
X2203396Y-11764484D02*
X2146253Y-11764484D01*
X2146253Y-11764484D02*
X2127206Y-11754960D01*
X2127206Y-11754960D02*
X2117682Y-11745436D01*
X2336729Y-11764484D02*
X2374825Y-11764484D01*
X2374825Y-11764484D02*
X2393872Y-11754960D01*
X2393872Y-11754960D02*
X2403396Y-11745436D01*
X2403396Y-11745436D02*
X2422444Y-11716865D01*
X2422444Y-11716865D02*
X2431968Y-11678769D01*
X2431968Y-11678769D02*
X2431968Y-11602579D01*
X2431968Y-11602579D02*
X2422444Y-11583531D01*
X2422444Y-11583531D02*
X2412920Y-11574008D01*
X2412920Y-11574008D02*
X2393872Y-11564484D01*
X2393872Y-11564484D02*
X2355777Y-11564484D01*
X2355777Y-11564484D02*
X2336729Y-11574008D01*
X2336729Y-11574008D02*
X2327206Y-11583531D01*
X2327206Y-11583531D02*
X2317682Y-11602579D01*
X2317682Y-11602579D02*
X2317682Y-11650198D01*
X2317682Y-11650198D02*
X2327206Y-11669246D01*
X2327206Y-11669246D02*
X2336729Y-11678769D01*
X2336729Y-11678769D02*
X2355777Y-11688293D01*
X2355777Y-11688293D02*
X2393872Y-11688293D01*
X2393872Y-11688293D02*
X2412920Y-11678769D01*
X2412920Y-11678769D02*
X2422444Y-11669246D01*
X2422444Y-11669246D02*
X2431968Y-11650198D01*
X2603396Y-11631150D02*
X2603396Y-11764484D01*
X2555777Y-11554960D02*
X2508158Y-11697817D01*
X2508158Y-11697817D02*
X2631968Y-11697817D01*
X2698634Y-11564484D02*
X2698634Y-11602579D01*
X2774825Y-11564484D02*
X2774825Y-11602579D01*
X3070063Y-11840674D02*
X3060539Y-11831150D01*
X3060539Y-11831150D02*
X3041491Y-11802579D01*
X3041491Y-11802579D02*
X3031968Y-11783531D01*
X3031968Y-11783531D02*
X3022444Y-11754960D01*
X3022444Y-11754960D02*
X3012920Y-11707341D01*
X3012920Y-11707341D02*
X3012920Y-11669246D01*
X3012920Y-11669246D02*
X3022444Y-11621627D01*
X3022444Y-11621627D02*
X3031968Y-11593055D01*
X3031968Y-11593055D02*
X3041491Y-11574008D01*
X3041491Y-11574008D02*
X3060539Y-11545436D01*
X3060539Y-11545436D02*
X3070063Y-11535912D01*
X3155777Y-11764484D02*
X3193872Y-11764484D01*
X3193872Y-11764484D02*
X3212920Y-11754960D01*
X3212920Y-11754960D02*
X3222444Y-11745436D01*
X3222444Y-11745436D02*
X3241491Y-11716865D01*
X3241491Y-11716865D02*
X3251015Y-11678769D01*
X3251015Y-11678769D02*
X3251015Y-11602579D01*
X3251015Y-11602579D02*
X3241491Y-11583531D01*
X3241491Y-11583531D02*
X3231968Y-11574008D01*
X3231968Y-11574008D02*
X3212920Y-11564484D01*
X3212920Y-11564484D02*
X3174825Y-11564484D01*
X3174825Y-11564484D02*
X3155777Y-11574008D01*
X3155777Y-11574008D02*
X3146253Y-11583531D01*
X3146253Y-11583531D02*
X3136729Y-11602579D01*
X3136729Y-11602579D02*
X3136729Y-11650198D01*
X3136729Y-11650198D02*
X3146253Y-11669246D01*
X3146253Y-11669246D02*
X3155777Y-11678769D01*
X3155777Y-11678769D02*
X3174825Y-11688293D01*
X3174825Y-11688293D02*
X3212920Y-11688293D01*
X3212920Y-11688293D02*
X3231968Y-11678769D01*
X3231968Y-11678769D02*
X3241491Y-11669246D01*
X3241491Y-11669246D02*
X3251015Y-11650198D01*
X3422444Y-11631150D02*
X3422444Y-11764484D01*
X3374825Y-11554960D02*
X3327206Y-11697817D01*
X3327206Y-11697817D02*
X3451015Y-11697817D01*
X3679587Y-11764484D02*
X3679587Y-11564484D01*
X3765301Y-11764484D02*
X3765301Y-11659722D01*
X3765301Y-11659722D02*
X3755777Y-11640674D01*
X3755777Y-11640674D02*
X3736730Y-11631150D01*
X3736730Y-11631150D02*
X3708158Y-11631150D01*
X3708158Y-11631150D02*
X3689110Y-11640674D01*
X3689110Y-11640674D02*
X3679587Y-11650198D01*
X3889110Y-11764484D02*
X3870063Y-11754960D01*
X3870063Y-11754960D02*
X3860539Y-11745436D01*
X3860539Y-11745436D02*
X3851015Y-11726388D01*
X3851015Y-11726388D02*
X3851015Y-11669246D01*
X3851015Y-11669246D02*
X3860539Y-11650198D01*
X3860539Y-11650198D02*
X3870063Y-11640674D01*
X3870063Y-11640674D02*
X3889110Y-11631150D01*
X3889110Y-11631150D02*
X3917682Y-11631150D01*
X3917682Y-11631150D02*
X3936730Y-11640674D01*
X3936730Y-11640674D02*
X3946253Y-11650198D01*
X3946253Y-11650198D02*
X3955777Y-11669246D01*
X3955777Y-11669246D02*
X3955777Y-11726388D01*
X3955777Y-11726388D02*
X3946253Y-11745436D01*
X3946253Y-11745436D02*
X3936730Y-11754960D01*
X3936730Y-11754960D02*
X3917682Y-11764484D01*
X3917682Y-11764484D02*
X3889110Y-11764484D01*
X4070063Y-11764484D02*
X4051015Y-11754960D01*
X4051015Y-11754960D02*
X4041491Y-11735912D01*
X4041491Y-11735912D02*
X4041491Y-11564484D01*
X4222444Y-11754960D02*
X4203396Y-11764484D01*
X4203396Y-11764484D02*
X4165301Y-11764484D01*
X4165301Y-11764484D02*
X4146253Y-11754960D01*
X4146253Y-11754960D02*
X4136730Y-11735912D01*
X4136730Y-11735912D02*
X4136730Y-11659722D01*
X4136730Y-11659722D02*
X4146253Y-11640674D01*
X4146253Y-11640674D02*
X4165301Y-11631150D01*
X4165301Y-11631150D02*
X4203396Y-11631150D01*
X4203396Y-11631150D02*
X4222444Y-11640674D01*
X4222444Y-11640674D02*
X4231968Y-11659722D01*
X4231968Y-11659722D02*
X4231968Y-11678769D01*
X4231968Y-11678769D02*
X4136730Y-11697817D01*
X4308158Y-11754960D02*
X4327206Y-11764484D01*
X4327206Y-11764484D02*
X4365301Y-11764484D01*
X4365301Y-11764484D02*
X4384349Y-11754960D01*
X4384349Y-11754960D02*
X4393873Y-11735912D01*
X4393873Y-11735912D02*
X4393873Y-11726388D01*
X4393873Y-11726388D02*
X4384349Y-11707341D01*
X4384349Y-11707341D02*
X4365301Y-11697817D01*
X4365301Y-11697817D02*
X4336730Y-11697817D01*
X4336730Y-11697817D02*
X4317682Y-11688293D01*
X4317682Y-11688293D02*
X4308158Y-11669246D01*
X4308158Y-11669246D02*
X4308158Y-11659722D01*
X4308158Y-11659722D02*
X4317682Y-11640674D01*
X4317682Y-11640674D02*
X4336730Y-11631150D01*
X4336730Y-11631150D02*
X4365301Y-11631150D01*
X4365301Y-11631150D02*
X4384349Y-11640674D01*
X4631968Y-11688293D02*
X4784349Y-11688293D01*
X4708158Y-11764484D02*
X4708158Y-11612103D01*
X5012920Y-11564484D02*
X5136730Y-11564484D01*
X5136730Y-11564484D02*
X5070063Y-11640674D01*
X5070063Y-11640674D02*
X5098635Y-11640674D01*
X5098635Y-11640674D02*
X5117682Y-11650198D01*
X5117682Y-11650198D02*
X5127206Y-11659722D01*
X5127206Y-11659722D02*
X5136730Y-11678769D01*
X5136730Y-11678769D02*
X5136730Y-11726388D01*
X5136730Y-11726388D02*
X5127206Y-11745436D01*
X5127206Y-11745436D02*
X5117682Y-11754960D01*
X5117682Y-11754960D02*
X5098635Y-11764484D01*
X5098635Y-11764484D02*
X5041492Y-11764484D01*
X5041492Y-11764484D02*
X5022444Y-11754960D01*
X5022444Y-11754960D02*
X5012920Y-11745436D01*
X5365301Y-11754960D02*
X5384349Y-11764484D01*
X5384349Y-11764484D02*
X5422444Y-11764484D01*
X5422444Y-11764484D02*
X5441492Y-11754960D01*
X5441492Y-11754960D02*
X5451016Y-11735912D01*
X5451016Y-11735912D02*
X5451016Y-11726388D01*
X5451016Y-11726388D02*
X5441492Y-11707341D01*
X5441492Y-11707341D02*
X5422444Y-11697817D01*
X5422444Y-11697817D02*
X5393873Y-11697817D01*
X5393873Y-11697817D02*
X5374825Y-11688293D01*
X5374825Y-11688293D02*
X5365301Y-11669246D01*
X5365301Y-11669246D02*
X5365301Y-11659722D01*
X5365301Y-11659722D02*
X5374825Y-11640674D01*
X5374825Y-11640674D02*
X5393873Y-11631150D01*
X5393873Y-11631150D02*
X5422444Y-11631150D01*
X5422444Y-11631150D02*
X5441492Y-11640674D01*
X5565301Y-11764484D02*
X5546254Y-11754960D01*
X5546254Y-11754960D02*
X5536730Y-11735912D01*
X5536730Y-11735912D02*
X5536730Y-11564484D01*
X5670063Y-11764484D02*
X5651015Y-11754960D01*
X5651015Y-11754960D02*
X5641492Y-11745436D01*
X5641492Y-11745436D02*
X5631968Y-11726388D01*
X5631968Y-11726388D02*
X5631968Y-11669246D01*
X5631968Y-11669246D02*
X5641492Y-11650198D01*
X5641492Y-11650198D02*
X5651015Y-11640674D01*
X5651015Y-11640674D02*
X5670063Y-11631150D01*
X5670063Y-11631150D02*
X5698635Y-11631150D01*
X5698635Y-11631150D02*
X5717682Y-11640674D01*
X5717682Y-11640674D02*
X5727206Y-11650198D01*
X5727206Y-11650198D02*
X5736730Y-11669246D01*
X5736730Y-11669246D02*
X5736730Y-11726388D01*
X5736730Y-11726388D02*
X5727206Y-11745436D01*
X5727206Y-11745436D02*
X5717682Y-11754960D01*
X5717682Y-11754960D02*
X5698635Y-11764484D01*
X5698635Y-11764484D02*
X5670063Y-11764484D01*
X5793873Y-11631150D02*
X5870063Y-11631150D01*
X5822444Y-11564484D02*
X5822444Y-11735912D01*
X5822444Y-11735912D02*
X5831968Y-11754960D01*
X5831968Y-11754960D02*
X5851015Y-11764484D01*
X5851015Y-11764484D02*
X5870063Y-11764484D01*
X5927206Y-11754960D02*
X5946254Y-11764484D01*
X5946254Y-11764484D02*
X5984349Y-11764484D01*
X5984349Y-11764484D02*
X6003396Y-11754960D01*
X6003396Y-11754960D02*
X6012920Y-11735912D01*
X6012920Y-11735912D02*
X6012920Y-11726388D01*
X6012920Y-11726388D02*
X6003396Y-11707341D01*
X6003396Y-11707341D02*
X5984349Y-11697817D01*
X5984349Y-11697817D02*
X5955777Y-11697817D01*
X5955777Y-11697817D02*
X5936730Y-11688293D01*
X5936730Y-11688293D02*
X5927206Y-11669246D01*
X5927206Y-11669246D02*
X5927206Y-11659722D01*
X5927206Y-11659722D02*
X5936730Y-11640674D01*
X5936730Y-11640674D02*
X5955777Y-11631150D01*
X5955777Y-11631150D02*
X5984349Y-11631150D01*
X5984349Y-11631150D02*
X6003396Y-11640674D01*
X6079587Y-11840674D02*
X6089111Y-11831150D01*
X6089111Y-11831150D02*
X6108158Y-11802579D01*
X6108158Y-11802579D02*
X6117682Y-11783531D01*
X6117682Y-11783531D02*
X6127206Y-11754960D01*
X6127206Y-11754960D02*
X6136730Y-11707341D01*
X6136730Y-11707341D02*
X6136730Y-11669246D01*
X6136730Y-11669246D02*
X6127206Y-11621627D01*
X6127206Y-11621627D02*
X6117682Y-11593055D01*
X6117682Y-11593055D02*
X6108158Y-11574008D01*
X6108158Y-11574008D02*
X6089111Y-11545436D01*
X6089111Y-11545436D02*
X6079587Y-11535912D01*
D12*
X-519937Y-11973063D02*
X-519937Y-11900937D01*
X-592063Y-11900937D01*
X-592063Y-11973063D01*
X-519937Y-11973063D01*
D11*
X-139461Y-12028484D02*
X-253747Y-12028484D01*
X-196604Y-12028484D02*
X-196604Y-11828484D01*
X-196604Y-11828484D02*
X-215652Y-11857055D01*
X-215652Y-11857055D02*
X-234699Y-11876103D01*
X-234699Y-11876103D02*
X-253747Y-11885627D01*
X-53747Y-12009436D02*
X-44223Y-12018960D01*
X-44223Y-12018960D02*
X-53747Y-12028484D01*
X-53747Y-12028484D02*
X-63271Y-12018960D01*
X-63271Y-12018960D02*
X-53747Y-12009436D01*
X-53747Y-12009436D02*
X-53747Y-12028484D01*
X79586Y-11828484D02*
X98634Y-11828484D01*
X98634Y-11828484D02*
X117682Y-11838008D01*
X117682Y-11838008D02*
X127205Y-11847531D01*
X127205Y-11847531D02*
X136729Y-11866579D01*
X136729Y-11866579D02*
X146253Y-11904674D01*
X146253Y-11904674D02*
X146253Y-11952293D01*
X146253Y-11952293D02*
X136729Y-11990388D01*
X136729Y-11990388D02*
X127205Y-12009436D01*
X127205Y-12009436D02*
X117682Y-12018960D01*
X117682Y-12018960D02*
X98634Y-12028484D01*
X98634Y-12028484D02*
X79586Y-12028484D01*
X79586Y-12028484D02*
X60539Y-12018960D01*
X60539Y-12018960D02*
X51015Y-12009436D01*
X51015Y-12009436D02*
X41491Y-11990388D01*
X41491Y-11990388D02*
X31967Y-11952293D01*
X31967Y-11952293D02*
X31967Y-11904674D01*
X31967Y-11904674D02*
X41491Y-11866579D01*
X41491Y-11866579D02*
X51015Y-11847531D01*
X51015Y-11847531D02*
X60539Y-11838008D01*
X60539Y-11838008D02*
X79586Y-11828484D01*
X222443Y-11847531D02*
X231967Y-11838008D01*
X231967Y-11838008D02*
X251015Y-11828484D01*
X251015Y-11828484D02*
X298634Y-11828484D01*
X298634Y-11828484D02*
X317682Y-11838008D01*
X317682Y-11838008D02*
X327205Y-11847531D01*
X327205Y-11847531D02*
X336729Y-11866579D01*
X336729Y-11866579D02*
X336729Y-11885627D01*
X336729Y-11885627D02*
X327205Y-11914198D01*
X327205Y-11914198D02*
X212920Y-12028484D01*
X212920Y-12028484D02*
X336729Y-12028484D01*
X460539Y-11828484D02*
X479586Y-11828484D01*
X479586Y-11828484D02*
X498634Y-11838008D01*
X498634Y-11838008D02*
X508158Y-11847531D01*
X508158Y-11847531D02*
X517682Y-11866579D01*
X517682Y-11866579D02*
X527205Y-11904674D01*
X527205Y-11904674D02*
X527205Y-11952293D01*
X527205Y-11952293D02*
X517682Y-11990388D01*
X517682Y-11990388D02*
X508158Y-12009436D01*
X508158Y-12009436D02*
X498634Y-12018960D01*
X498634Y-12018960D02*
X479586Y-12028484D01*
X479586Y-12028484D02*
X460539Y-12028484D01*
X460539Y-12028484D02*
X441491Y-12018960D01*
X441491Y-12018960D02*
X431967Y-12009436D01*
X431967Y-12009436D02*
X422443Y-11990388D01*
X422443Y-11990388D02*
X412920Y-11952293D01*
X412920Y-11952293D02*
X412920Y-11904674D01*
X412920Y-11904674D02*
X422443Y-11866579D01*
X422443Y-11866579D02*
X431967Y-11847531D01*
X431967Y-11847531D02*
X441491Y-11838008D01*
X441491Y-11838008D02*
X460539Y-11828484D01*
X612920Y-12028484D02*
X612920Y-11895150D01*
X612920Y-11914198D02*
X622444Y-11904674D01*
X622444Y-11904674D02*
X641491Y-11895150D01*
X641491Y-11895150D02*
X670063Y-11895150D01*
X670063Y-11895150D02*
X689110Y-11904674D01*
X689110Y-11904674D02*
X698634Y-11923722D01*
X698634Y-11923722D02*
X698634Y-12028484D01*
X698634Y-11923722D02*
X708158Y-11904674D01*
X708158Y-11904674D02*
X727205Y-11895150D01*
X727205Y-11895150D02*
X755777Y-11895150D01*
X755777Y-11895150D02*
X774824Y-11904674D01*
X774824Y-11904674D02*
X784348Y-11923722D01*
X784348Y-11923722D02*
X784348Y-12028484D01*
X879586Y-12028484D02*
X879586Y-11895150D01*
X879586Y-11914198D02*
X889110Y-11904674D01*
X889110Y-11904674D02*
X908158Y-11895150D01*
X908158Y-11895150D02*
X936729Y-11895150D01*
X936729Y-11895150D02*
X955777Y-11904674D01*
X955777Y-11904674D02*
X965301Y-11923722D01*
X965301Y-11923722D02*
X965301Y-12028484D01*
X965301Y-11923722D02*
X974824Y-11904674D01*
X974824Y-11904674D02*
X993872Y-11895150D01*
X993872Y-11895150D02*
X1022443Y-11895150D01*
X1022443Y-11895150D02*
X1041491Y-11904674D01*
X1041491Y-11904674D02*
X1051015Y-11923722D01*
X1051015Y-11923722D02*
X1051015Y-12028484D01*
X1441491Y-11818960D02*
X1270063Y-12076103D01*
X1698634Y-11828484D02*
X1717682Y-11828484D01*
X1717682Y-11828484D02*
X1736729Y-11838008D01*
X1736729Y-11838008D02*
X1746253Y-11847531D01*
X1746253Y-11847531D02*
X1755777Y-11866579D01*
X1755777Y-11866579D02*
X1765301Y-11904674D01*
X1765301Y-11904674D02*
X1765301Y-11952293D01*
X1765301Y-11952293D02*
X1755777Y-11990388D01*
X1755777Y-11990388D02*
X1746253Y-12009436D01*
X1746253Y-12009436D02*
X1736729Y-12018960D01*
X1736729Y-12018960D02*
X1717682Y-12028484D01*
X1717682Y-12028484D02*
X1698634Y-12028484D01*
X1698634Y-12028484D02*
X1679586Y-12018960D01*
X1679586Y-12018960D02*
X1670063Y-12009436D01*
X1670063Y-12009436D02*
X1660539Y-11990388D01*
X1660539Y-11990388D02*
X1651015Y-11952293D01*
X1651015Y-11952293D02*
X1651015Y-11904674D01*
X1651015Y-11904674D02*
X1660539Y-11866579D01*
X1660539Y-11866579D02*
X1670063Y-11847531D01*
X1670063Y-11847531D02*
X1679586Y-11838008D01*
X1679586Y-11838008D02*
X1698634Y-11828484D01*
X1851015Y-12009436D02*
X1860539Y-12018960D01*
X1860539Y-12018960D02*
X1851015Y-12028484D01*
X1851015Y-12028484D02*
X1841491Y-12018960D01*
X1841491Y-12018960D02*
X1851015Y-12009436D01*
X1851015Y-12009436D02*
X1851015Y-12028484D01*
X1984348Y-11828484D02*
X2003396Y-11828484D01*
X2003396Y-11828484D02*
X2022444Y-11838008D01*
X2022444Y-11838008D02*
X2031967Y-11847531D01*
X2031967Y-11847531D02*
X2041491Y-11866579D01*
X2041491Y-11866579D02*
X2051015Y-11904674D01*
X2051015Y-11904674D02*
X2051015Y-11952293D01*
X2051015Y-11952293D02*
X2041491Y-11990388D01*
X2041491Y-11990388D02*
X2031967Y-12009436D01*
X2031967Y-12009436D02*
X2022444Y-12018960D01*
X2022444Y-12018960D02*
X2003396Y-12028484D01*
X2003396Y-12028484D02*
X1984348Y-12028484D01*
X1984348Y-12028484D02*
X1965301Y-12018960D01*
X1965301Y-12018960D02*
X1955777Y-12009436D01*
X1955777Y-12009436D02*
X1946253Y-11990388D01*
X1946253Y-11990388D02*
X1936729Y-11952293D01*
X1936729Y-11952293D02*
X1936729Y-11904674D01*
X1936729Y-11904674D02*
X1946253Y-11866579D01*
X1946253Y-11866579D02*
X1955777Y-11847531D01*
X1955777Y-11847531D02*
X1965301Y-11838008D01*
X1965301Y-11838008D02*
X1984348Y-11828484D01*
X2222444Y-11895150D02*
X2222444Y-12028484D01*
X2174825Y-11818960D02*
X2127206Y-11961817D01*
X2127206Y-11961817D02*
X2251015Y-11961817D01*
X2365301Y-11828484D02*
X2384349Y-11828484D01*
X2384349Y-11828484D02*
X2403396Y-11838008D01*
X2403396Y-11838008D02*
X2412920Y-11847531D01*
X2412920Y-11847531D02*
X2422444Y-11866579D01*
X2422444Y-11866579D02*
X2431968Y-11904674D01*
X2431968Y-11904674D02*
X2431968Y-11952293D01*
X2431968Y-11952293D02*
X2422444Y-11990388D01*
X2422444Y-11990388D02*
X2412920Y-12009436D01*
X2412920Y-12009436D02*
X2403396Y-12018960D01*
X2403396Y-12018960D02*
X2384349Y-12028484D01*
X2384349Y-12028484D02*
X2365301Y-12028484D01*
X2365301Y-12028484D02*
X2346253Y-12018960D01*
X2346253Y-12018960D02*
X2336729Y-12009436D01*
X2336729Y-12009436D02*
X2327206Y-11990388D01*
X2327206Y-11990388D02*
X2317682Y-11952293D01*
X2317682Y-11952293D02*
X2317682Y-11904674D01*
X2317682Y-11904674D02*
X2327206Y-11866579D01*
X2327206Y-11866579D02*
X2336729Y-11847531D01*
X2336729Y-11847531D02*
X2346253Y-11838008D01*
X2346253Y-11838008D02*
X2365301Y-11828484D01*
X2508158Y-11847531D02*
X2517682Y-11838008D01*
X2517682Y-11838008D02*
X2536729Y-11828484D01*
X2536729Y-11828484D02*
X2584349Y-11828484D01*
X2584349Y-11828484D02*
X2603396Y-11838008D01*
X2603396Y-11838008D02*
X2612920Y-11847531D01*
X2612920Y-11847531D02*
X2622444Y-11866579D01*
X2622444Y-11866579D02*
X2622444Y-11885627D01*
X2622444Y-11885627D02*
X2612920Y-11914198D01*
X2612920Y-11914198D02*
X2498634Y-12028484D01*
X2498634Y-12028484D02*
X2622444Y-12028484D01*
X2698634Y-11828484D02*
X2698634Y-11866579D01*
X2774825Y-11828484D02*
X2774825Y-11866579D01*
X3070063Y-12104674D02*
X3060539Y-12095150D01*
X3060539Y-12095150D02*
X3041491Y-12066579D01*
X3041491Y-12066579D02*
X3031968Y-12047531D01*
X3031968Y-12047531D02*
X3022444Y-12018960D01*
X3022444Y-12018960D02*
X3012920Y-11971341D01*
X3012920Y-11971341D02*
X3012920Y-11933246D01*
X3012920Y-11933246D02*
X3022444Y-11885627D01*
X3022444Y-11885627D02*
X3031968Y-11857055D01*
X3031968Y-11857055D02*
X3041491Y-11838008D01*
X3041491Y-11838008D02*
X3060539Y-11809436D01*
X3060539Y-11809436D02*
X3070063Y-11799912D01*
X3241491Y-11828484D02*
X3146253Y-11828484D01*
X3146253Y-11828484D02*
X3136729Y-11923722D01*
X3136729Y-11923722D02*
X3146253Y-11914198D01*
X3146253Y-11914198D02*
X3165301Y-11904674D01*
X3165301Y-11904674D02*
X3212920Y-11904674D01*
X3212920Y-11904674D02*
X3231968Y-11914198D01*
X3231968Y-11914198D02*
X3241491Y-11923722D01*
X3241491Y-11923722D02*
X3251015Y-11942769D01*
X3251015Y-11942769D02*
X3251015Y-11990388D01*
X3251015Y-11990388D02*
X3241491Y-12009436D01*
X3241491Y-12009436D02*
X3231968Y-12018960D01*
X3231968Y-12018960D02*
X3212920Y-12028484D01*
X3212920Y-12028484D02*
X3165301Y-12028484D01*
X3165301Y-12028484D02*
X3146253Y-12018960D01*
X3146253Y-12018960D02*
X3136729Y-12009436D01*
X3441491Y-12028484D02*
X3327206Y-12028484D01*
X3384348Y-12028484D02*
X3384348Y-11828484D01*
X3384348Y-11828484D02*
X3365301Y-11857055D01*
X3365301Y-11857055D02*
X3346253Y-11876103D01*
X3346253Y-11876103D02*
X3327206Y-11885627D01*
X3679587Y-12028484D02*
X3679587Y-11828484D01*
X3765301Y-12028484D02*
X3765301Y-11923722D01*
X3765301Y-11923722D02*
X3755777Y-11904674D01*
X3755777Y-11904674D02*
X3736730Y-11895150D01*
X3736730Y-11895150D02*
X3708158Y-11895150D01*
X3708158Y-11895150D02*
X3689110Y-11904674D01*
X3689110Y-11904674D02*
X3679587Y-11914198D01*
X3889110Y-12028484D02*
X3870063Y-12018960D01*
X3870063Y-12018960D02*
X3860539Y-12009436D01*
X3860539Y-12009436D02*
X3851015Y-11990388D01*
X3851015Y-11990388D02*
X3851015Y-11933246D01*
X3851015Y-11933246D02*
X3860539Y-11914198D01*
X3860539Y-11914198D02*
X3870063Y-11904674D01*
X3870063Y-11904674D02*
X3889110Y-11895150D01*
X3889110Y-11895150D02*
X3917682Y-11895150D01*
X3917682Y-11895150D02*
X3936730Y-11904674D01*
X3936730Y-11904674D02*
X3946253Y-11914198D01*
X3946253Y-11914198D02*
X3955777Y-11933246D01*
X3955777Y-11933246D02*
X3955777Y-11990388D01*
X3955777Y-11990388D02*
X3946253Y-12009436D01*
X3946253Y-12009436D02*
X3936730Y-12018960D01*
X3936730Y-12018960D02*
X3917682Y-12028484D01*
X3917682Y-12028484D02*
X3889110Y-12028484D01*
X4070063Y-12028484D02*
X4051015Y-12018960D01*
X4051015Y-12018960D02*
X4041491Y-11999912D01*
X4041491Y-11999912D02*
X4041491Y-11828484D01*
X4222444Y-12018960D02*
X4203396Y-12028484D01*
X4203396Y-12028484D02*
X4165301Y-12028484D01*
X4165301Y-12028484D02*
X4146253Y-12018960D01*
X4146253Y-12018960D02*
X4136730Y-11999912D01*
X4136730Y-11999912D02*
X4136730Y-11923722D01*
X4136730Y-11923722D02*
X4146253Y-11904674D01*
X4146253Y-11904674D02*
X4165301Y-11895150D01*
X4165301Y-11895150D02*
X4203396Y-11895150D01*
X4203396Y-11895150D02*
X4222444Y-11904674D01*
X4222444Y-11904674D02*
X4231968Y-11923722D01*
X4231968Y-11923722D02*
X4231968Y-11942769D01*
X4231968Y-11942769D02*
X4136730Y-11961817D01*
X4308158Y-12018960D02*
X4327206Y-12028484D01*
X4327206Y-12028484D02*
X4365301Y-12028484D01*
X4365301Y-12028484D02*
X4384349Y-12018960D01*
X4384349Y-12018960D02*
X4393873Y-11999912D01*
X4393873Y-11999912D02*
X4393873Y-11990388D01*
X4393873Y-11990388D02*
X4384349Y-11971341D01*
X4384349Y-11971341D02*
X4365301Y-11961817D01*
X4365301Y-11961817D02*
X4336730Y-11961817D01*
X4336730Y-11961817D02*
X4317682Y-11952293D01*
X4317682Y-11952293D02*
X4308158Y-11933246D01*
X4308158Y-11933246D02*
X4308158Y-11923722D01*
X4308158Y-11923722D02*
X4317682Y-11904674D01*
X4317682Y-11904674D02*
X4336730Y-11895150D01*
X4336730Y-11895150D02*
X4365301Y-11895150D01*
X4365301Y-11895150D02*
X4384349Y-11904674D01*
X4460539Y-12104674D02*
X4470063Y-12095150D01*
X4470063Y-12095150D02*
X4489111Y-12066579D01*
X4489111Y-12066579D02*
X4498634Y-12047531D01*
X4498634Y-12047531D02*
X4508158Y-12018960D01*
X4508158Y-12018960D02*
X4517682Y-11971341D01*
X4517682Y-11971341D02*
X4517682Y-11933246D01*
X4517682Y-11933246D02*
X4508158Y-11885627D01*
X4508158Y-11885627D02*
X4498634Y-11857055D01*
X4498634Y-11857055D02*
X4489111Y-11838008D01*
X4489111Y-11838008D02*
X4470063Y-11809436D01*
X4470063Y-11809436D02*
X4460539Y-11799912D01*
D13*
X-581000Y-12277000D02*
X-505000Y-12201000D01*
X-581000Y-12125000D01*
X-657000Y-12201000D01*
X-581000Y-12277000D01*
D11*
X-139461Y-12292484D02*
X-253747Y-12292484D01*
X-196604Y-12292484D02*
X-196604Y-12092484D01*
X-196604Y-12092484D02*
X-215652Y-12121055D01*
X-215652Y-12121055D02*
X-234699Y-12140103D01*
X-234699Y-12140103D02*
X-253747Y-12149627D01*
X-53747Y-12273436D02*
X-44223Y-12282960D01*
X-44223Y-12282960D02*
X-53747Y-12292484D01*
X-53747Y-12292484D02*
X-63271Y-12282960D01*
X-63271Y-12282960D02*
X-53747Y-12273436D01*
X-53747Y-12273436D02*
X-53747Y-12292484D01*
X136729Y-12092484D02*
X41491Y-12092484D01*
X41491Y-12092484D02*
X31967Y-12187722D01*
X31967Y-12187722D02*
X41491Y-12178198D01*
X41491Y-12178198D02*
X60539Y-12168674D01*
X60539Y-12168674D02*
X108158Y-12168674D01*
X108158Y-12168674D02*
X127205Y-12178198D01*
X127205Y-12178198D02*
X136729Y-12187722D01*
X136729Y-12187722D02*
X146253Y-12206769D01*
X146253Y-12206769D02*
X146253Y-12254388D01*
X146253Y-12254388D02*
X136729Y-12273436D01*
X136729Y-12273436D02*
X127205Y-12282960D01*
X127205Y-12282960D02*
X108158Y-12292484D01*
X108158Y-12292484D02*
X60539Y-12292484D01*
X60539Y-12292484D02*
X41491Y-12282960D01*
X41491Y-12282960D02*
X31967Y-12273436D01*
X222443Y-12111531D02*
X231967Y-12102008D01*
X231967Y-12102008D02*
X251015Y-12092484D01*
X251015Y-12092484D02*
X298634Y-12092484D01*
X298634Y-12092484D02*
X317682Y-12102008D01*
X317682Y-12102008D02*
X327205Y-12111531D01*
X327205Y-12111531D02*
X336729Y-12130579D01*
X336729Y-12130579D02*
X336729Y-12149627D01*
X336729Y-12149627D02*
X327205Y-12178198D01*
X327205Y-12178198D02*
X212920Y-12292484D01*
X212920Y-12292484D02*
X336729Y-12292484D01*
X460539Y-12092484D02*
X479586Y-12092484D01*
X479586Y-12092484D02*
X498634Y-12102008D01*
X498634Y-12102008D02*
X508158Y-12111531D01*
X508158Y-12111531D02*
X517682Y-12130579D01*
X517682Y-12130579D02*
X527205Y-12168674D01*
X527205Y-12168674D02*
X527205Y-12216293D01*
X527205Y-12216293D02*
X517682Y-12254388D01*
X517682Y-12254388D02*
X508158Y-12273436D01*
X508158Y-12273436D02*
X498634Y-12282960D01*
X498634Y-12282960D02*
X479586Y-12292484D01*
X479586Y-12292484D02*
X460539Y-12292484D01*
X460539Y-12292484D02*
X441491Y-12282960D01*
X441491Y-12282960D02*
X431967Y-12273436D01*
X431967Y-12273436D02*
X422443Y-12254388D01*
X422443Y-12254388D02*
X412920Y-12216293D01*
X412920Y-12216293D02*
X412920Y-12168674D01*
X412920Y-12168674D02*
X422443Y-12130579D01*
X422443Y-12130579D02*
X431967Y-12111531D01*
X431967Y-12111531D02*
X441491Y-12102008D01*
X441491Y-12102008D02*
X460539Y-12092484D01*
X612920Y-12292484D02*
X612920Y-12159150D01*
X612920Y-12178198D02*
X622444Y-12168674D01*
X622444Y-12168674D02*
X641491Y-12159150D01*
X641491Y-12159150D02*
X670063Y-12159150D01*
X670063Y-12159150D02*
X689110Y-12168674D01*
X689110Y-12168674D02*
X698634Y-12187722D01*
X698634Y-12187722D02*
X698634Y-12292484D01*
X698634Y-12187722D02*
X708158Y-12168674D01*
X708158Y-12168674D02*
X727205Y-12159150D01*
X727205Y-12159150D02*
X755777Y-12159150D01*
X755777Y-12159150D02*
X774824Y-12168674D01*
X774824Y-12168674D02*
X784348Y-12187722D01*
X784348Y-12187722D02*
X784348Y-12292484D01*
X879586Y-12292484D02*
X879586Y-12159150D01*
X879586Y-12178198D02*
X889110Y-12168674D01*
X889110Y-12168674D02*
X908158Y-12159150D01*
X908158Y-12159150D02*
X936729Y-12159150D01*
X936729Y-12159150D02*
X955777Y-12168674D01*
X955777Y-12168674D02*
X965301Y-12187722D01*
X965301Y-12187722D02*
X965301Y-12292484D01*
X965301Y-12187722D02*
X974824Y-12168674D01*
X974824Y-12168674D02*
X993872Y-12159150D01*
X993872Y-12159150D02*
X1022443Y-12159150D01*
X1022443Y-12159150D02*
X1041491Y-12168674D01*
X1041491Y-12168674D02*
X1051015Y-12187722D01*
X1051015Y-12187722D02*
X1051015Y-12292484D01*
X1441491Y-12082960D02*
X1270063Y-12340103D01*
X1698634Y-12092484D02*
X1717682Y-12092484D01*
X1717682Y-12092484D02*
X1736729Y-12102008D01*
X1736729Y-12102008D02*
X1746253Y-12111531D01*
X1746253Y-12111531D02*
X1755777Y-12130579D01*
X1755777Y-12130579D02*
X1765301Y-12168674D01*
X1765301Y-12168674D02*
X1765301Y-12216293D01*
X1765301Y-12216293D02*
X1755777Y-12254388D01*
X1755777Y-12254388D02*
X1746253Y-12273436D01*
X1746253Y-12273436D02*
X1736729Y-12282960D01*
X1736729Y-12282960D02*
X1717682Y-12292484D01*
X1717682Y-12292484D02*
X1698634Y-12292484D01*
X1698634Y-12292484D02*
X1679586Y-12282960D01*
X1679586Y-12282960D02*
X1670063Y-12273436D01*
X1670063Y-12273436D02*
X1660539Y-12254388D01*
X1660539Y-12254388D02*
X1651015Y-12216293D01*
X1651015Y-12216293D02*
X1651015Y-12168674D01*
X1651015Y-12168674D02*
X1660539Y-12130579D01*
X1660539Y-12130579D02*
X1670063Y-12111531D01*
X1670063Y-12111531D02*
X1679586Y-12102008D01*
X1679586Y-12102008D02*
X1698634Y-12092484D01*
X1851015Y-12273436D02*
X1860539Y-12282960D01*
X1860539Y-12282960D02*
X1851015Y-12292484D01*
X1851015Y-12292484D02*
X1841491Y-12282960D01*
X1841491Y-12282960D02*
X1851015Y-12273436D01*
X1851015Y-12273436D02*
X1851015Y-12292484D01*
X1984348Y-12092484D02*
X2003396Y-12092484D01*
X2003396Y-12092484D02*
X2022444Y-12102008D01*
X2022444Y-12102008D02*
X2031967Y-12111531D01*
X2031967Y-12111531D02*
X2041491Y-12130579D01*
X2041491Y-12130579D02*
X2051015Y-12168674D01*
X2051015Y-12168674D02*
X2051015Y-12216293D01*
X2051015Y-12216293D02*
X2041491Y-12254388D01*
X2041491Y-12254388D02*
X2031967Y-12273436D01*
X2031967Y-12273436D02*
X2022444Y-12282960D01*
X2022444Y-12282960D02*
X2003396Y-12292484D01*
X2003396Y-12292484D02*
X1984348Y-12292484D01*
X1984348Y-12292484D02*
X1965301Y-12282960D01*
X1965301Y-12282960D02*
X1955777Y-12273436D01*
X1955777Y-12273436D02*
X1946253Y-12254388D01*
X1946253Y-12254388D02*
X1936729Y-12216293D01*
X1936729Y-12216293D02*
X1936729Y-12168674D01*
X1936729Y-12168674D02*
X1946253Y-12130579D01*
X1946253Y-12130579D02*
X1955777Y-12111531D01*
X1955777Y-12111531D02*
X1965301Y-12102008D01*
X1965301Y-12102008D02*
X1984348Y-12092484D01*
X2231968Y-12092484D02*
X2136729Y-12092484D01*
X2136729Y-12092484D02*
X2127206Y-12187722D01*
X2127206Y-12187722D02*
X2136729Y-12178198D01*
X2136729Y-12178198D02*
X2155777Y-12168674D01*
X2155777Y-12168674D02*
X2203396Y-12168674D01*
X2203396Y-12168674D02*
X2222444Y-12178198D01*
X2222444Y-12178198D02*
X2231968Y-12187722D01*
X2231968Y-12187722D02*
X2241491Y-12206769D01*
X2241491Y-12206769D02*
X2241491Y-12254388D01*
X2241491Y-12254388D02*
X2231968Y-12273436D01*
X2231968Y-12273436D02*
X2222444Y-12282960D01*
X2222444Y-12282960D02*
X2203396Y-12292484D01*
X2203396Y-12292484D02*
X2155777Y-12292484D01*
X2155777Y-12292484D02*
X2136729Y-12282960D01*
X2136729Y-12282960D02*
X2127206Y-12273436D01*
X2336729Y-12292484D02*
X2374825Y-12292484D01*
X2374825Y-12292484D02*
X2393872Y-12282960D01*
X2393872Y-12282960D02*
X2403396Y-12273436D01*
X2403396Y-12273436D02*
X2422444Y-12244865D01*
X2422444Y-12244865D02*
X2431968Y-12206769D01*
X2431968Y-12206769D02*
X2431968Y-12130579D01*
X2431968Y-12130579D02*
X2422444Y-12111531D01*
X2422444Y-12111531D02*
X2412920Y-12102008D01*
X2412920Y-12102008D02*
X2393872Y-12092484D01*
X2393872Y-12092484D02*
X2355777Y-12092484D01*
X2355777Y-12092484D02*
X2336729Y-12102008D01*
X2336729Y-12102008D02*
X2327206Y-12111531D01*
X2327206Y-12111531D02*
X2317682Y-12130579D01*
X2317682Y-12130579D02*
X2317682Y-12178198D01*
X2317682Y-12178198D02*
X2327206Y-12197246D01*
X2327206Y-12197246D02*
X2336729Y-12206769D01*
X2336729Y-12206769D02*
X2355777Y-12216293D01*
X2355777Y-12216293D02*
X2393872Y-12216293D01*
X2393872Y-12216293D02*
X2412920Y-12206769D01*
X2412920Y-12206769D02*
X2422444Y-12197246D01*
X2422444Y-12197246D02*
X2431968Y-12178198D01*
X2546253Y-12178198D02*
X2527206Y-12168674D01*
X2527206Y-12168674D02*
X2517682Y-12159150D01*
X2517682Y-12159150D02*
X2508158Y-12140103D01*
X2508158Y-12140103D02*
X2508158Y-12130579D01*
X2508158Y-12130579D02*
X2517682Y-12111531D01*
X2517682Y-12111531D02*
X2527206Y-12102008D01*
X2527206Y-12102008D02*
X2546253Y-12092484D01*
X2546253Y-12092484D02*
X2584349Y-12092484D01*
X2584349Y-12092484D02*
X2603396Y-12102008D01*
X2603396Y-12102008D02*
X2612920Y-12111531D01*
X2612920Y-12111531D02*
X2622444Y-12130579D01*
X2622444Y-12130579D02*
X2622444Y-12140103D01*
X2622444Y-12140103D02*
X2612920Y-12159150D01*
X2612920Y-12159150D02*
X2603396Y-12168674D01*
X2603396Y-12168674D02*
X2584349Y-12178198D01*
X2584349Y-12178198D02*
X2546253Y-12178198D01*
X2546253Y-12178198D02*
X2527206Y-12187722D01*
X2527206Y-12187722D02*
X2517682Y-12197246D01*
X2517682Y-12197246D02*
X2508158Y-12216293D01*
X2508158Y-12216293D02*
X2508158Y-12254388D01*
X2508158Y-12254388D02*
X2517682Y-12273436D01*
X2517682Y-12273436D02*
X2527206Y-12282960D01*
X2527206Y-12282960D02*
X2546253Y-12292484D01*
X2546253Y-12292484D02*
X2584349Y-12292484D01*
X2584349Y-12292484D02*
X2603396Y-12282960D01*
X2603396Y-12282960D02*
X2612920Y-12273436D01*
X2612920Y-12273436D02*
X2622444Y-12254388D01*
X2622444Y-12254388D02*
X2622444Y-12216293D01*
X2622444Y-12216293D02*
X2612920Y-12197246D01*
X2612920Y-12197246D02*
X2603396Y-12187722D01*
X2603396Y-12187722D02*
X2584349Y-12178198D01*
X2698634Y-12092484D02*
X2698634Y-12130579D01*
X2774825Y-12092484D02*
X2774825Y-12130579D01*
X3070063Y-12368674D02*
X3060539Y-12359150D01*
X3060539Y-12359150D02*
X3041491Y-12330579D01*
X3041491Y-12330579D02*
X3031968Y-12311531D01*
X3031968Y-12311531D02*
X3022444Y-12282960D01*
X3022444Y-12282960D02*
X3012920Y-12235341D01*
X3012920Y-12235341D02*
X3012920Y-12197246D01*
X3012920Y-12197246D02*
X3022444Y-12149627D01*
X3022444Y-12149627D02*
X3031968Y-12121055D01*
X3031968Y-12121055D02*
X3041491Y-12102008D01*
X3041491Y-12102008D02*
X3060539Y-12073436D01*
X3060539Y-12073436D02*
X3070063Y-12063912D01*
X3231968Y-12092484D02*
X3193872Y-12092484D01*
X3193872Y-12092484D02*
X3174825Y-12102008D01*
X3174825Y-12102008D02*
X3165301Y-12111531D01*
X3165301Y-12111531D02*
X3146253Y-12140103D01*
X3146253Y-12140103D02*
X3136729Y-12178198D01*
X3136729Y-12178198D02*
X3136729Y-12254388D01*
X3136729Y-12254388D02*
X3146253Y-12273436D01*
X3146253Y-12273436D02*
X3155777Y-12282960D01*
X3155777Y-12282960D02*
X3174825Y-12292484D01*
X3174825Y-12292484D02*
X3212920Y-12292484D01*
X3212920Y-12292484D02*
X3231968Y-12282960D01*
X3231968Y-12282960D02*
X3241491Y-12273436D01*
X3241491Y-12273436D02*
X3251015Y-12254388D01*
X3251015Y-12254388D02*
X3251015Y-12206769D01*
X3251015Y-12206769D02*
X3241491Y-12187722D01*
X3241491Y-12187722D02*
X3231968Y-12178198D01*
X3231968Y-12178198D02*
X3212920Y-12168674D01*
X3212920Y-12168674D02*
X3174825Y-12168674D01*
X3174825Y-12168674D02*
X3155777Y-12178198D01*
X3155777Y-12178198D02*
X3146253Y-12187722D01*
X3146253Y-12187722D02*
X3136729Y-12206769D01*
X3489110Y-12292484D02*
X3489110Y-12092484D01*
X3574825Y-12292484D02*
X3574825Y-12187722D01*
X3574825Y-12187722D02*
X3565301Y-12168674D01*
X3565301Y-12168674D02*
X3546253Y-12159150D01*
X3546253Y-12159150D02*
X3517682Y-12159150D01*
X3517682Y-12159150D02*
X3498634Y-12168674D01*
X3498634Y-12168674D02*
X3489110Y-12178198D01*
X3698634Y-12292484D02*
X3679587Y-12282960D01*
X3679587Y-12282960D02*
X3670063Y-12273436D01*
X3670063Y-12273436D02*
X3660539Y-12254388D01*
X3660539Y-12254388D02*
X3660539Y-12197246D01*
X3660539Y-12197246D02*
X3670063Y-12178198D01*
X3670063Y-12178198D02*
X3679587Y-12168674D01*
X3679587Y-12168674D02*
X3698634Y-12159150D01*
X3698634Y-12159150D02*
X3727206Y-12159150D01*
X3727206Y-12159150D02*
X3746253Y-12168674D01*
X3746253Y-12168674D02*
X3755777Y-12178198D01*
X3755777Y-12178198D02*
X3765301Y-12197246D01*
X3765301Y-12197246D02*
X3765301Y-12254388D01*
X3765301Y-12254388D02*
X3755777Y-12273436D01*
X3755777Y-12273436D02*
X3746253Y-12282960D01*
X3746253Y-12282960D02*
X3727206Y-12292484D01*
X3727206Y-12292484D02*
X3698634Y-12292484D01*
X3879587Y-12292484D02*
X3860539Y-12282960D01*
X3860539Y-12282960D02*
X3851015Y-12263912D01*
X3851015Y-12263912D02*
X3851015Y-12092484D01*
X4031968Y-12282960D02*
X4012920Y-12292484D01*
X4012920Y-12292484D02*
X3974825Y-12292484D01*
X3974825Y-12292484D02*
X3955777Y-12282960D01*
X3955777Y-12282960D02*
X3946253Y-12263912D01*
X3946253Y-12263912D02*
X3946253Y-12187722D01*
X3946253Y-12187722D02*
X3955777Y-12168674D01*
X3955777Y-12168674D02*
X3974825Y-12159150D01*
X3974825Y-12159150D02*
X4012920Y-12159150D01*
X4012920Y-12159150D02*
X4031968Y-12168674D01*
X4031968Y-12168674D02*
X4041491Y-12187722D01*
X4041491Y-12187722D02*
X4041491Y-12206769D01*
X4041491Y-12206769D02*
X3946253Y-12225817D01*
X4117682Y-12282960D02*
X4136730Y-12292484D01*
X4136730Y-12292484D02*
X4174825Y-12292484D01*
X4174825Y-12292484D02*
X4193872Y-12282960D01*
X4193872Y-12282960D02*
X4203396Y-12263912D01*
X4203396Y-12263912D02*
X4203396Y-12254388D01*
X4203396Y-12254388D02*
X4193872Y-12235341D01*
X4193872Y-12235341D02*
X4174825Y-12225817D01*
X4174825Y-12225817D02*
X4146253Y-12225817D01*
X4146253Y-12225817D02*
X4127206Y-12216293D01*
X4127206Y-12216293D02*
X4117682Y-12197246D01*
X4117682Y-12197246D02*
X4117682Y-12187722D01*
X4117682Y-12187722D02*
X4127206Y-12168674D01*
X4127206Y-12168674D02*
X4146253Y-12159150D01*
X4146253Y-12159150D02*
X4174825Y-12159150D01*
X4174825Y-12159150D02*
X4193872Y-12168674D01*
X4270063Y-12368674D02*
X4279587Y-12359150D01*
X4279587Y-12359150D02*
X4298634Y-12330579D01*
X4298634Y-12330579D02*
X4308158Y-12311531D01*
X4308158Y-12311531D02*
X4317682Y-12282960D01*
X4317682Y-12282960D02*
X4327206Y-12235341D01*
X4327206Y-12235341D02*
X4327206Y-12197246D01*
X4327206Y-12197246D02*
X4317682Y-12149627D01*
X4317682Y-12149627D02*
X4308158Y-12121055D01*
X4308158Y-12121055D02*
X4298634Y-12102008D01*
X4298634Y-12102008D02*
X4279587Y-12073436D01*
X4279587Y-12073436D02*
X4270063Y-12063912D01*
X-705000Y-12373000D02*
X-505000Y-12573000D01*
X-505000Y-12373000D02*
X-705000Y-12573000D01*
X-505000Y-12473000D02*
G75*
G03*
X-705000Y-12473000I-100000J0D01*
G01*
X-705000Y-12473000D02*
G75*
G03*
X-505000Y-12473000I100000J0D01*
G01*
X-253747Y-12383531D02*
X-244223Y-12374008D01*
X-244223Y-12374008D02*
X-225175Y-12364484D01*
X-225175Y-12364484D02*
X-177556Y-12364484D01*
X-177556Y-12364484D02*
X-158509Y-12374008D01*
X-158509Y-12374008D02*
X-148985Y-12383531D01*
X-148985Y-12383531D02*
X-139461Y-12402579D01*
X-139461Y-12402579D02*
X-139461Y-12421627D01*
X-139461Y-12421627D02*
X-148985Y-12450198D01*
X-148985Y-12450198D02*
X-263271Y-12564484D01*
X-263271Y-12564484D02*
X-139461Y-12564484D01*
X-53747Y-12545436D02*
X-44223Y-12554960D01*
X-44223Y-12554960D02*
X-53747Y-12564484D01*
X-53747Y-12564484D02*
X-63271Y-12554960D01*
X-63271Y-12554960D02*
X-53747Y-12545436D01*
X-53747Y-12545436D02*
X-53747Y-12564484D01*
X146253Y-12564484D02*
X31967Y-12564484D01*
X89110Y-12564484D02*
X89110Y-12364484D01*
X89110Y-12364484D02*
X70063Y-12393055D01*
X70063Y-12393055D02*
X51015Y-12412103D01*
X51015Y-12412103D02*
X31967Y-12421627D01*
X260539Y-12450198D02*
X241491Y-12440674D01*
X241491Y-12440674D02*
X231967Y-12431150D01*
X231967Y-12431150D02*
X222443Y-12412103D01*
X222443Y-12412103D02*
X222443Y-12402579D01*
X222443Y-12402579D02*
X231967Y-12383531D01*
X231967Y-12383531D02*
X241491Y-12374008D01*
X241491Y-12374008D02*
X260539Y-12364484D01*
X260539Y-12364484D02*
X298634Y-12364484D01*
X298634Y-12364484D02*
X317682Y-12374008D01*
X317682Y-12374008D02*
X327205Y-12383531D01*
X327205Y-12383531D02*
X336729Y-12402579D01*
X336729Y-12402579D02*
X336729Y-12412103D01*
X336729Y-12412103D02*
X327205Y-12431150D01*
X327205Y-12431150D02*
X317682Y-12440674D01*
X317682Y-12440674D02*
X298634Y-12450198D01*
X298634Y-12450198D02*
X260539Y-12450198D01*
X260539Y-12450198D02*
X241491Y-12459722D01*
X241491Y-12459722D02*
X231967Y-12469246D01*
X231967Y-12469246D02*
X222443Y-12488293D01*
X222443Y-12488293D02*
X222443Y-12526388D01*
X222443Y-12526388D02*
X231967Y-12545436D01*
X231967Y-12545436D02*
X241491Y-12554960D01*
X241491Y-12554960D02*
X260539Y-12564484D01*
X260539Y-12564484D02*
X298634Y-12564484D01*
X298634Y-12564484D02*
X317682Y-12554960D01*
X317682Y-12554960D02*
X327205Y-12545436D01*
X327205Y-12545436D02*
X336729Y-12526388D01*
X336729Y-12526388D02*
X336729Y-12488293D01*
X336729Y-12488293D02*
X327205Y-12469246D01*
X327205Y-12469246D02*
X317682Y-12459722D01*
X317682Y-12459722D02*
X298634Y-12450198D01*
X460539Y-12364484D02*
X479586Y-12364484D01*
X479586Y-12364484D02*
X498634Y-12374008D01*
X498634Y-12374008D02*
X508158Y-12383531D01*
X508158Y-12383531D02*
X517682Y-12402579D01*
X517682Y-12402579D02*
X527205Y-12440674D01*
X527205Y-12440674D02*
X527205Y-12488293D01*
X527205Y-12488293D02*
X517682Y-12526388D01*
X517682Y-12526388D02*
X508158Y-12545436D01*
X508158Y-12545436D02*
X498634Y-12554960D01*
X498634Y-12554960D02*
X479586Y-12564484D01*
X479586Y-12564484D02*
X460539Y-12564484D01*
X460539Y-12564484D02*
X441491Y-12554960D01*
X441491Y-12554960D02*
X431967Y-12545436D01*
X431967Y-12545436D02*
X422443Y-12526388D01*
X422443Y-12526388D02*
X412920Y-12488293D01*
X412920Y-12488293D02*
X412920Y-12440674D01*
X412920Y-12440674D02*
X422443Y-12402579D01*
X422443Y-12402579D02*
X431967Y-12383531D01*
X431967Y-12383531D02*
X441491Y-12374008D01*
X441491Y-12374008D02*
X460539Y-12364484D01*
X612920Y-12564484D02*
X612920Y-12431150D01*
X612920Y-12450198D02*
X622444Y-12440674D01*
X622444Y-12440674D02*
X641491Y-12431150D01*
X641491Y-12431150D02*
X670063Y-12431150D01*
X670063Y-12431150D02*
X689110Y-12440674D01*
X689110Y-12440674D02*
X698634Y-12459722D01*
X698634Y-12459722D02*
X698634Y-12564484D01*
X698634Y-12459722D02*
X708158Y-12440674D01*
X708158Y-12440674D02*
X727205Y-12431150D01*
X727205Y-12431150D02*
X755777Y-12431150D01*
X755777Y-12431150D02*
X774824Y-12440674D01*
X774824Y-12440674D02*
X784348Y-12459722D01*
X784348Y-12459722D02*
X784348Y-12564484D01*
X879586Y-12564484D02*
X879586Y-12431150D01*
X879586Y-12450198D02*
X889110Y-12440674D01*
X889110Y-12440674D02*
X908158Y-12431150D01*
X908158Y-12431150D02*
X936729Y-12431150D01*
X936729Y-12431150D02*
X955777Y-12440674D01*
X955777Y-12440674D02*
X965301Y-12459722D01*
X965301Y-12459722D02*
X965301Y-12564484D01*
X965301Y-12459722D02*
X974824Y-12440674D01*
X974824Y-12440674D02*
X993872Y-12431150D01*
X993872Y-12431150D02*
X1022443Y-12431150D01*
X1022443Y-12431150D02*
X1041491Y-12440674D01*
X1041491Y-12440674D02*
X1051015Y-12459722D01*
X1051015Y-12459722D02*
X1051015Y-12564484D01*
X1441491Y-12354960D02*
X1270063Y-12612103D01*
X1698634Y-12364484D02*
X1717682Y-12364484D01*
X1717682Y-12364484D02*
X1736729Y-12374008D01*
X1736729Y-12374008D02*
X1746253Y-12383531D01*
X1746253Y-12383531D02*
X1755777Y-12402579D01*
X1755777Y-12402579D02*
X1765301Y-12440674D01*
X1765301Y-12440674D02*
X1765301Y-12488293D01*
X1765301Y-12488293D02*
X1755777Y-12526388D01*
X1755777Y-12526388D02*
X1746253Y-12545436D01*
X1746253Y-12545436D02*
X1736729Y-12554960D01*
X1736729Y-12554960D02*
X1717682Y-12564484D01*
X1717682Y-12564484D02*
X1698634Y-12564484D01*
X1698634Y-12564484D02*
X1679586Y-12554960D01*
X1679586Y-12554960D02*
X1670063Y-12545436D01*
X1670063Y-12545436D02*
X1660539Y-12526388D01*
X1660539Y-12526388D02*
X1651015Y-12488293D01*
X1651015Y-12488293D02*
X1651015Y-12440674D01*
X1651015Y-12440674D02*
X1660539Y-12402579D01*
X1660539Y-12402579D02*
X1670063Y-12383531D01*
X1670063Y-12383531D02*
X1679586Y-12374008D01*
X1679586Y-12374008D02*
X1698634Y-12364484D01*
X1851015Y-12545436D02*
X1860539Y-12554960D01*
X1860539Y-12554960D02*
X1851015Y-12564484D01*
X1851015Y-12564484D02*
X1841491Y-12554960D01*
X1841491Y-12554960D02*
X1851015Y-12545436D01*
X1851015Y-12545436D02*
X1851015Y-12564484D01*
X1984348Y-12364484D02*
X2003396Y-12364484D01*
X2003396Y-12364484D02*
X2022444Y-12374008D01*
X2022444Y-12374008D02*
X2031967Y-12383531D01*
X2031967Y-12383531D02*
X2041491Y-12402579D01*
X2041491Y-12402579D02*
X2051015Y-12440674D01*
X2051015Y-12440674D02*
X2051015Y-12488293D01*
X2051015Y-12488293D02*
X2041491Y-12526388D01*
X2041491Y-12526388D02*
X2031967Y-12545436D01*
X2031967Y-12545436D02*
X2022444Y-12554960D01*
X2022444Y-12554960D02*
X2003396Y-12564484D01*
X2003396Y-12564484D02*
X1984348Y-12564484D01*
X1984348Y-12564484D02*
X1965301Y-12554960D01*
X1965301Y-12554960D02*
X1955777Y-12545436D01*
X1955777Y-12545436D02*
X1946253Y-12526388D01*
X1946253Y-12526388D02*
X1936729Y-12488293D01*
X1936729Y-12488293D02*
X1936729Y-12440674D01*
X1936729Y-12440674D02*
X1946253Y-12402579D01*
X1946253Y-12402579D02*
X1955777Y-12383531D01*
X1955777Y-12383531D02*
X1965301Y-12374008D01*
X1965301Y-12374008D02*
X1984348Y-12364484D01*
X2165301Y-12450198D02*
X2146253Y-12440674D01*
X2146253Y-12440674D02*
X2136729Y-12431150D01*
X2136729Y-12431150D02*
X2127206Y-12412103D01*
X2127206Y-12412103D02*
X2127206Y-12402579D01*
X2127206Y-12402579D02*
X2136729Y-12383531D01*
X2136729Y-12383531D02*
X2146253Y-12374008D01*
X2146253Y-12374008D02*
X2165301Y-12364484D01*
X2165301Y-12364484D02*
X2203396Y-12364484D01*
X2203396Y-12364484D02*
X2222444Y-12374008D01*
X2222444Y-12374008D02*
X2231968Y-12383531D01*
X2231968Y-12383531D02*
X2241491Y-12402579D01*
X2241491Y-12402579D02*
X2241491Y-12412103D01*
X2241491Y-12412103D02*
X2231968Y-12431150D01*
X2231968Y-12431150D02*
X2222444Y-12440674D01*
X2222444Y-12440674D02*
X2203396Y-12450198D01*
X2203396Y-12450198D02*
X2165301Y-12450198D01*
X2165301Y-12450198D02*
X2146253Y-12459722D01*
X2146253Y-12459722D02*
X2136729Y-12469246D01*
X2136729Y-12469246D02*
X2127206Y-12488293D01*
X2127206Y-12488293D02*
X2127206Y-12526388D01*
X2127206Y-12526388D02*
X2136729Y-12545436D01*
X2136729Y-12545436D02*
X2146253Y-12554960D01*
X2146253Y-12554960D02*
X2165301Y-12564484D01*
X2165301Y-12564484D02*
X2203396Y-12564484D01*
X2203396Y-12564484D02*
X2222444Y-12554960D01*
X2222444Y-12554960D02*
X2231968Y-12545436D01*
X2231968Y-12545436D02*
X2241491Y-12526388D01*
X2241491Y-12526388D02*
X2241491Y-12488293D01*
X2241491Y-12488293D02*
X2231968Y-12469246D01*
X2231968Y-12469246D02*
X2222444Y-12459722D01*
X2222444Y-12459722D02*
X2203396Y-12450198D01*
X2422444Y-12364484D02*
X2327206Y-12364484D01*
X2327206Y-12364484D02*
X2317682Y-12459722D01*
X2317682Y-12459722D02*
X2327206Y-12450198D01*
X2327206Y-12450198D02*
X2346253Y-12440674D01*
X2346253Y-12440674D02*
X2393872Y-12440674D01*
X2393872Y-12440674D02*
X2412920Y-12450198D01*
X2412920Y-12450198D02*
X2422444Y-12459722D01*
X2422444Y-12459722D02*
X2431968Y-12478769D01*
X2431968Y-12478769D02*
X2431968Y-12526388D01*
X2431968Y-12526388D02*
X2422444Y-12545436D01*
X2422444Y-12545436D02*
X2412920Y-12554960D01*
X2412920Y-12554960D02*
X2393872Y-12564484D01*
X2393872Y-12564484D02*
X2346253Y-12564484D01*
X2346253Y-12564484D02*
X2327206Y-12554960D01*
X2327206Y-12554960D02*
X2317682Y-12545436D01*
X2546253Y-12450198D02*
X2527206Y-12440674D01*
X2527206Y-12440674D02*
X2517682Y-12431150D01*
X2517682Y-12431150D02*
X2508158Y-12412103D01*
X2508158Y-12412103D02*
X2508158Y-12402579D01*
X2508158Y-12402579D02*
X2517682Y-12383531D01*
X2517682Y-12383531D02*
X2527206Y-12374008D01*
X2527206Y-12374008D02*
X2546253Y-12364484D01*
X2546253Y-12364484D02*
X2584349Y-12364484D01*
X2584349Y-12364484D02*
X2603396Y-12374008D01*
X2603396Y-12374008D02*
X2612920Y-12383531D01*
X2612920Y-12383531D02*
X2622444Y-12402579D01*
X2622444Y-12402579D02*
X2622444Y-12412103D01*
X2622444Y-12412103D02*
X2612920Y-12431150D01*
X2612920Y-12431150D02*
X2603396Y-12440674D01*
X2603396Y-12440674D02*
X2584349Y-12450198D01*
X2584349Y-12450198D02*
X2546253Y-12450198D01*
X2546253Y-12450198D02*
X2527206Y-12459722D01*
X2527206Y-12459722D02*
X2517682Y-12469246D01*
X2517682Y-12469246D02*
X2508158Y-12488293D01*
X2508158Y-12488293D02*
X2508158Y-12526388D01*
X2508158Y-12526388D02*
X2517682Y-12545436D01*
X2517682Y-12545436D02*
X2527206Y-12554960D01*
X2527206Y-12554960D02*
X2546253Y-12564484D01*
X2546253Y-12564484D02*
X2584349Y-12564484D01*
X2584349Y-12564484D02*
X2603396Y-12554960D01*
X2603396Y-12554960D02*
X2612920Y-12545436D01*
X2612920Y-12545436D02*
X2622444Y-12526388D01*
X2622444Y-12526388D02*
X2622444Y-12488293D01*
X2622444Y-12488293D02*
X2612920Y-12469246D01*
X2612920Y-12469246D02*
X2603396Y-12459722D01*
X2603396Y-12459722D02*
X2584349Y-12450198D01*
X2698634Y-12364484D02*
X2698634Y-12402579D01*
X2774825Y-12364484D02*
X2774825Y-12402579D01*
X3070063Y-12640674D02*
X3060539Y-12631150D01*
X3060539Y-12631150D02*
X3041491Y-12602579D01*
X3041491Y-12602579D02*
X3031968Y-12583531D01*
X3031968Y-12583531D02*
X3022444Y-12554960D01*
X3022444Y-12554960D02*
X3012920Y-12507341D01*
X3012920Y-12507341D02*
X3012920Y-12469246D01*
X3012920Y-12469246D02*
X3022444Y-12421627D01*
X3022444Y-12421627D02*
X3031968Y-12393055D01*
X3031968Y-12393055D02*
X3041491Y-12374008D01*
X3041491Y-12374008D02*
X3060539Y-12345436D01*
X3060539Y-12345436D02*
X3070063Y-12335912D01*
X3155777Y-12564484D02*
X3193872Y-12564484D01*
X3193872Y-12564484D02*
X3212920Y-12554960D01*
X3212920Y-12554960D02*
X3222444Y-12545436D01*
X3222444Y-12545436D02*
X3241491Y-12516865D01*
X3241491Y-12516865D02*
X3251015Y-12478769D01*
X3251015Y-12478769D02*
X3251015Y-12402579D01*
X3251015Y-12402579D02*
X3241491Y-12383531D01*
X3241491Y-12383531D02*
X3231968Y-12374008D01*
X3231968Y-12374008D02*
X3212920Y-12364484D01*
X3212920Y-12364484D02*
X3174825Y-12364484D01*
X3174825Y-12364484D02*
X3155777Y-12374008D01*
X3155777Y-12374008D02*
X3146253Y-12383531D01*
X3146253Y-12383531D02*
X3136729Y-12402579D01*
X3136729Y-12402579D02*
X3136729Y-12450198D01*
X3136729Y-12450198D02*
X3146253Y-12469246D01*
X3146253Y-12469246D02*
X3155777Y-12478769D01*
X3155777Y-12478769D02*
X3174825Y-12488293D01*
X3174825Y-12488293D02*
X3212920Y-12488293D01*
X3212920Y-12488293D02*
X3231968Y-12478769D01*
X3231968Y-12478769D02*
X3241491Y-12469246D01*
X3241491Y-12469246D02*
X3251015Y-12450198D01*
X3489110Y-12564484D02*
X3489110Y-12364484D01*
X3574825Y-12564484D02*
X3574825Y-12459722D01*
X3574825Y-12459722D02*
X3565301Y-12440674D01*
X3565301Y-12440674D02*
X3546253Y-12431150D01*
X3546253Y-12431150D02*
X3517682Y-12431150D01*
X3517682Y-12431150D02*
X3498634Y-12440674D01*
X3498634Y-12440674D02*
X3489110Y-12450198D01*
X3698634Y-12564484D02*
X3679587Y-12554960D01*
X3679587Y-12554960D02*
X3670063Y-12545436D01*
X3670063Y-12545436D02*
X3660539Y-12526388D01*
X3660539Y-12526388D02*
X3660539Y-12469246D01*
X3660539Y-12469246D02*
X3670063Y-12450198D01*
X3670063Y-12450198D02*
X3679587Y-12440674D01*
X3679587Y-12440674D02*
X3698634Y-12431150D01*
X3698634Y-12431150D02*
X3727206Y-12431150D01*
X3727206Y-12431150D02*
X3746253Y-12440674D01*
X3746253Y-12440674D02*
X3755777Y-12450198D01*
X3755777Y-12450198D02*
X3765301Y-12469246D01*
X3765301Y-12469246D02*
X3765301Y-12526388D01*
X3765301Y-12526388D02*
X3755777Y-12545436D01*
X3755777Y-12545436D02*
X3746253Y-12554960D01*
X3746253Y-12554960D02*
X3727206Y-12564484D01*
X3727206Y-12564484D02*
X3698634Y-12564484D01*
X3879587Y-12564484D02*
X3860539Y-12554960D01*
X3860539Y-12554960D02*
X3851015Y-12535912D01*
X3851015Y-12535912D02*
X3851015Y-12364484D01*
X4031968Y-12554960D02*
X4012920Y-12564484D01*
X4012920Y-12564484D02*
X3974825Y-12564484D01*
X3974825Y-12564484D02*
X3955777Y-12554960D01*
X3955777Y-12554960D02*
X3946253Y-12535912D01*
X3946253Y-12535912D02*
X3946253Y-12459722D01*
X3946253Y-12459722D02*
X3955777Y-12440674D01*
X3955777Y-12440674D02*
X3974825Y-12431150D01*
X3974825Y-12431150D02*
X4012920Y-12431150D01*
X4012920Y-12431150D02*
X4031968Y-12440674D01*
X4031968Y-12440674D02*
X4041491Y-12459722D01*
X4041491Y-12459722D02*
X4041491Y-12478769D01*
X4041491Y-12478769D02*
X3946253Y-12497817D01*
X4117682Y-12554960D02*
X4136730Y-12564484D01*
X4136730Y-12564484D02*
X4174825Y-12564484D01*
X4174825Y-12564484D02*
X4193872Y-12554960D01*
X4193872Y-12554960D02*
X4203396Y-12535912D01*
X4203396Y-12535912D02*
X4203396Y-12526388D01*
X4203396Y-12526388D02*
X4193872Y-12507341D01*
X4193872Y-12507341D02*
X4174825Y-12497817D01*
X4174825Y-12497817D02*
X4146253Y-12497817D01*
X4146253Y-12497817D02*
X4127206Y-12488293D01*
X4127206Y-12488293D02*
X4117682Y-12469246D01*
X4117682Y-12469246D02*
X4117682Y-12459722D01*
X4117682Y-12459722D02*
X4127206Y-12440674D01*
X4127206Y-12440674D02*
X4146253Y-12431150D01*
X4146253Y-12431150D02*
X4174825Y-12431150D01*
X4174825Y-12431150D02*
X4193872Y-12440674D01*
X4270063Y-12640674D02*
X4279587Y-12631150D01*
X4279587Y-12631150D02*
X4298634Y-12602579D01*
X4298634Y-12602579D02*
X4308158Y-12583531D01*
X4308158Y-12583531D02*
X4317682Y-12554960D01*
X4317682Y-12554960D02*
X4327206Y-12507341D01*
X4327206Y-12507341D02*
X4327206Y-12469246D01*
X4327206Y-12469246D02*
X4317682Y-12421627D01*
X4317682Y-12421627D02*
X4308158Y-12393055D01*
X4308158Y-12393055D02*
X4298634Y-12374008D01*
X4298634Y-12374008D02*
X4279587Y-12345436D01*
X4279587Y-12345436D02*
X4270063Y-12335912D01*
X-705000Y-12693000D02*
X-505000Y-12893000D01*
X-505000Y-12693000D02*
X-705000Y-12893000D01*
X-605000Y-12693000D02*
X-605000Y-12893000D01*
X-705000Y-12793000D02*
X-505000Y-12793000D01*
X-253747Y-12703531D02*
X-244223Y-12694008D01*
X-244223Y-12694008D02*
X-225175Y-12684484D01*
X-225175Y-12684484D02*
X-177556Y-12684484D01*
X-177556Y-12684484D02*
X-158509Y-12694008D01*
X-158509Y-12694008D02*
X-148985Y-12703531D01*
X-148985Y-12703531D02*
X-139461Y-12722579D01*
X-139461Y-12722579D02*
X-139461Y-12741627D01*
X-139461Y-12741627D02*
X-148985Y-12770198D01*
X-148985Y-12770198D02*
X-263271Y-12884484D01*
X-263271Y-12884484D02*
X-139461Y-12884484D01*
X-53747Y-12865436D02*
X-44223Y-12874960D01*
X-44223Y-12874960D02*
X-53747Y-12884484D01*
X-53747Y-12884484D02*
X-63271Y-12874960D01*
X-63271Y-12874960D02*
X-53747Y-12865436D01*
X-53747Y-12865436D02*
X-53747Y-12884484D01*
X136729Y-12684484D02*
X41491Y-12684484D01*
X41491Y-12684484D02*
X31967Y-12779722D01*
X31967Y-12779722D02*
X41491Y-12770198D01*
X41491Y-12770198D02*
X60539Y-12760674D01*
X60539Y-12760674D02*
X108158Y-12760674D01*
X108158Y-12760674D02*
X127205Y-12770198D01*
X127205Y-12770198D02*
X136729Y-12779722D01*
X136729Y-12779722D02*
X146253Y-12798769D01*
X146253Y-12798769D02*
X146253Y-12846388D01*
X146253Y-12846388D02*
X136729Y-12865436D01*
X136729Y-12865436D02*
X127205Y-12874960D01*
X127205Y-12874960D02*
X108158Y-12884484D01*
X108158Y-12884484D02*
X60539Y-12884484D01*
X60539Y-12884484D02*
X41491Y-12874960D01*
X41491Y-12874960D02*
X31967Y-12865436D01*
X270063Y-12684484D02*
X289110Y-12684484D01*
X289110Y-12684484D02*
X308158Y-12694008D01*
X308158Y-12694008D02*
X317682Y-12703531D01*
X317682Y-12703531D02*
X327205Y-12722579D01*
X327205Y-12722579D02*
X336729Y-12760674D01*
X336729Y-12760674D02*
X336729Y-12808293D01*
X336729Y-12808293D02*
X327205Y-12846388D01*
X327205Y-12846388D02*
X317682Y-12865436D01*
X317682Y-12865436D02*
X308158Y-12874960D01*
X308158Y-12874960D02*
X289110Y-12884484D01*
X289110Y-12884484D02*
X270063Y-12884484D01*
X270063Y-12884484D02*
X251015Y-12874960D01*
X251015Y-12874960D02*
X241491Y-12865436D01*
X241491Y-12865436D02*
X231967Y-12846388D01*
X231967Y-12846388D02*
X222443Y-12808293D01*
X222443Y-12808293D02*
X222443Y-12760674D01*
X222443Y-12760674D02*
X231967Y-12722579D01*
X231967Y-12722579D02*
X241491Y-12703531D01*
X241491Y-12703531D02*
X251015Y-12694008D01*
X251015Y-12694008D02*
X270063Y-12684484D01*
X460539Y-12684484D02*
X479586Y-12684484D01*
X479586Y-12684484D02*
X498634Y-12694008D01*
X498634Y-12694008D02*
X508158Y-12703531D01*
X508158Y-12703531D02*
X517682Y-12722579D01*
X517682Y-12722579D02*
X527205Y-12760674D01*
X527205Y-12760674D02*
X527205Y-12808293D01*
X527205Y-12808293D02*
X517682Y-12846388D01*
X517682Y-12846388D02*
X508158Y-12865436D01*
X508158Y-12865436D02*
X498634Y-12874960D01*
X498634Y-12874960D02*
X479586Y-12884484D01*
X479586Y-12884484D02*
X460539Y-12884484D01*
X460539Y-12884484D02*
X441491Y-12874960D01*
X441491Y-12874960D02*
X431967Y-12865436D01*
X431967Y-12865436D02*
X422443Y-12846388D01*
X422443Y-12846388D02*
X412920Y-12808293D01*
X412920Y-12808293D02*
X412920Y-12760674D01*
X412920Y-12760674D02*
X422443Y-12722579D01*
X422443Y-12722579D02*
X431967Y-12703531D01*
X431967Y-12703531D02*
X441491Y-12694008D01*
X441491Y-12694008D02*
X460539Y-12684484D01*
X612920Y-12884484D02*
X612920Y-12751150D01*
X612920Y-12770198D02*
X622444Y-12760674D01*
X622444Y-12760674D02*
X641491Y-12751150D01*
X641491Y-12751150D02*
X670063Y-12751150D01*
X670063Y-12751150D02*
X689110Y-12760674D01*
X689110Y-12760674D02*
X698634Y-12779722D01*
X698634Y-12779722D02*
X698634Y-12884484D01*
X698634Y-12779722D02*
X708158Y-12760674D01*
X708158Y-12760674D02*
X727205Y-12751150D01*
X727205Y-12751150D02*
X755777Y-12751150D01*
X755777Y-12751150D02*
X774824Y-12760674D01*
X774824Y-12760674D02*
X784348Y-12779722D01*
X784348Y-12779722D02*
X784348Y-12884484D01*
X879586Y-12884484D02*
X879586Y-12751150D01*
X879586Y-12770198D02*
X889110Y-12760674D01*
X889110Y-12760674D02*
X908158Y-12751150D01*
X908158Y-12751150D02*
X936729Y-12751150D01*
X936729Y-12751150D02*
X955777Y-12760674D01*
X955777Y-12760674D02*
X965301Y-12779722D01*
X965301Y-12779722D02*
X965301Y-12884484D01*
X965301Y-12779722D02*
X974824Y-12760674D01*
X974824Y-12760674D02*
X993872Y-12751150D01*
X993872Y-12751150D02*
X1022443Y-12751150D01*
X1022443Y-12751150D02*
X1041491Y-12760674D01*
X1041491Y-12760674D02*
X1051015Y-12779722D01*
X1051015Y-12779722D02*
X1051015Y-12884484D01*
X1441491Y-12674960D02*
X1270063Y-12932103D01*
X1698634Y-12684484D02*
X1717682Y-12684484D01*
X1717682Y-12684484D02*
X1736729Y-12694008D01*
X1736729Y-12694008D02*
X1746253Y-12703531D01*
X1746253Y-12703531D02*
X1755777Y-12722579D01*
X1755777Y-12722579D02*
X1765301Y-12760674D01*
X1765301Y-12760674D02*
X1765301Y-12808293D01*
X1765301Y-12808293D02*
X1755777Y-12846388D01*
X1755777Y-12846388D02*
X1746253Y-12865436D01*
X1746253Y-12865436D02*
X1736729Y-12874960D01*
X1736729Y-12874960D02*
X1717682Y-12884484D01*
X1717682Y-12884484D02*
X1698634Y-12884484D01*
X1698634Y-12884484D02*
X1679586Y-12874960D01*
X1679586Y-12874960D02*
X1670063Y-12865436D01*
X1670063Y-12865436D02*
X1660539Y-12846388D01*
X1660539Y-12846388D02*
X1651015Y-12808293D01*
X1651015Y-12808293D02*
X1651015Y-12760674D01*
X1651015Y-12760674D02*
X1660539Y-12722579D01*
X1660539Y-12722579D02*
X1670063Y-12703531D01*
X1670063Y-12703531D02*
X1679586Y-12694008D01*
X1679586Y-12694008D02*
X1698634Y-12684484D01*
X1851015Y-12865436D02*
X1860539Y-12874960D01*
X1860539Y-12874960D02*
X1851015Y-12884484D01*
X1851015Y-12884484D02*
X1841491Y-12874960D01*
X1841491Y-12874960D02*
X1851015Y-12865436D01*
X1851015Y-12865436D02*
X1851015Y-12884484D01*
X1984348Y-12684484D02*
X2003396Y-12684484D01*
X2003396Y-12684484D02*
X2022444Y-12694008D01*
X2022444Y-12694008D02*
X2031967Y-12703531D01*
X2031967Y-12703531D02*
X2041491Y-12722579D01*
X2041491Y-12722579D02*
X2051015Y-12760674D01*
X2051015Y-12760674D02*
X2051015Y-12808293D01*
X2051015Y-12808293D02*
X2041491Y-12846388D01*
X2041491Y-12846388D02*
X2031967Y-12865436D01*
X2031967Y-12865436D02*
X2022444Y-12874960D01*
X2022444Y-12874960D02*
X2003396Y-12884484D01*
X2003396Y-12884484D02*
X1984348Y-12884484D01*
X1984348Y-12884484D02*
X1965301Y-12874960D01*
X1965301Y-12874960D02*
X1955777Y-12865436D01*
X1955777Y-12865436D02*
X1946253Y-12846388D01*
X1946253Y-12846388D02*
X1936729Y-12808293D01*
X1936729Y-12808293D02*
X1936729Y-12760674D01*
X1936729Y-12760674D02*
X1946253Y-12722579D01*
X1946253Y-12722579D02*
X1955777Y-12703531D01*
X1955777Y-12703531D02*
X1965301Y-12694008D01*
X1965301Y-12694008D02*
X1984348Y-12684484D01*
X2146253Y-12884484D02*
X2184348Y-12884484D01*
X2184348Y-12884484D02*
X2203396Y-12874960D01*
X2203396Y-12874960D02*
X2212920Y-12865436D01*
X2212920Y-12865436D02*
X2231968Y-12836865D01*
X2231968Y-12836865D02*
X2241491Y-12798769D01*
X2241491Y-12798769D02*
X2241491Y-12722579D01*
X2241491Y-12722579D02*
X2231968Y-12703531D01*
X2231968Y-12703531D02*
X2222444Y-12694008D01*
X2222444Y-12694008D02*
X2203396Y-12684484D01*
X2203396Y-12684484D02*
X2165301Y-12684484D01*
X2165301Y-12684484D02*
X2146253Y-12694008D01*
X2146253Y-12694008D02*
X2136729Y-12703531D01*
X2136729Y-12703531D02*
X2127206Y-12722579D01*
X2127206Y-12722579D02*
X2127206Y-12770198D01*
X2127206Y-12770198D02*
X2136729Y-12789246D01*
X2136729Y-12789246D02*
X2146253Y-12798769D01*
X2146253Y-12798769D02*
X2165301Y-12808293D01*
X2165301Y-12808293D02*
X2203396Y-12808293D01*
X2203396Y-12808293D02*
X2222444Y-12798769D01*
X2222444Y-12798769D02*
X2231968Y-12789246D01*
X2231968Y-12789246D02*
X2241491Y-12770198D01*
X2355777Y-12770198D02*
X2336729Y-12760674D01*
X2336729Y-12760674D02*
X2327206Y-12751150D01*
X2327206Y-12751150D02*
X2317682Y-12732103D01*
X2317682Y-12732103D02*
X2317682Y-12722579D01*
X2317682Y-12722579D02*
X2327206Y-12703531D01*
X2327206Y-12703531D02*
X2336729Y-12694008D01*
X2336729Y-12694008D02*
X2355777Y-12684484D01*
X2355777Y-12684484D02*
X2393872Y-12684484D01*
X2393872Y-12684484D02*
X2412920Y-12694008D01*
X2412920Y-12694008D02*
X2422444Y-12703531D01*
X2422444Y-12703531D02*
X2431968Y-12722579D01*
X2431968Y-12722579D02*
X2431968Y-12732103D01*
X2431968Y-12732103D02*
X2422444Y-12751150D01*
X2422444Y-12751150D02*
X2412920Y-12760674D01*
X2412920Y-12760674D02*
X2393872Y-12770198D01*
X2393872Y-12770198D02*
X2355777Y-12770198D01*
X2355777Y-12770198D02*
X2336729Y-12779722D01*
X2336729Y-12779722D02*
X2327206Y-12789246D01*
X2327206Y-12789246D02*
X2317682Y-12808293D01*
X2317682Y-12808293D02*
X2317682Y-12846388D01*
X2317682Y-12846388D02*
X2327206Y-12865436D01*
X2327206Y-12865436D02*
X2336729Y-12874960D01*
X2336729Y-12874960D02*
X2355777Y-12884484D01*
X2355777Y-12884484D02*
X2393872Y-12884484D01*
X2393872Y-12884484D02*
X2412920Y-12874960D01*
X2412920Y-12874960D02*
X2422444Y-12865436D01*
X2422444Y-12865436D02*
X2431968Y-12846388D01*
X2431968Y-12846388D02*
X2431968Y-12808293D01*
X2431968Y-12808293D02*
X2422444Y-12789246D01*
X2422444Y-12789246D02*
X2412920Y-12779722D01*
X2412920Y-12779722D02*
X2393872Y-12770198D01*
X2603396Y-12751150D02*
X2603396Y-12884484D01*
X2555777Y-12674960D02*
X2508158Y-12817817D01*
X2508158Y-12817817D02*
X2631968Y-12817817D01*
X2698634Y-12684484D02*
X2698634Y-12722579D01*
X2774825Y-12684484D02*
X2774825Y-12722579D01*
X3070063Y-12960674D02*
X3060539Y-12951150D01*
X3060539Y-12951150D02*
X3041491Y-12922579D01*
X3041491Y-12922579D02*
X3031968Y-12903531D01*
X3031968Y-12903531D02*
X3022444Y-12874960D01*
X3022444Y-12874960D02*
X3012920Y-12827341D01*
X3012920Y-12827341D02*
X3012920Y-12789246D01*
X3012920Y-12789246D02*
X3022444Y-12741627D01*
X3022444Y-12741627D02*
X3031968Y-12713055D01*
X3031968Y-12713055D02*
X3041491Y-12694008D01*
X3041491Y-12694008D02*
X3060539Y-12665436D01*
X3060539Y-12665436D02*
X3070063Y-12655912D01*
X3231968Y-12684484D02*
X3193872Y-12684484D01*
X3193872Y-12684484D02*
X3174825Y-12694008D01*
X3174825Y-12694008D02*
X3165301Y-12703531D01*
X3165301Y-12703531D02*
X3146253Y-12732103D01*
X3146253Y-12732103D02*
X3136729Y-12770198D01*
X3136729Y-12770198D02*
X3136729Y-12846388D01*
X3136729Y-12846388D02*
X3146253Y-12865436D01*
X3146253Y-12865436D02*
X3155777Y-12874960D01*
X3155777Y-12874960D02*
X3174825Y-12884484D01*
X3174825Y-12884484D02*
X3212920Y-12884484D01*
X3212920Y-12884484D02*
X3231968Y-12874960D01*
X3231968Y-12874960D02*
X3241491Y-12865436D01*
X3241491Y-12865436D02*
X3251015Y-12846388D01*
X3251015Y-12846388D02*
X3251015Y-12798769D01*
X3251015Y-12798769D02*
X3241491Y-12779722D01*
X3241491Y-12779722D02*
X3231968Y-12770198D01*
X3231968Y-12770198D02*
X3212920Y-12760674D01*
X3212920Y-12760674D02*
X3174825Y-12760674D01*
X3174825Y-12760674D02*
X3155777Y-12770198D01*
X3155777Y-12770198D02*
X3146253Y-12779722D01*
X3146253Y-12779722D02*
X3136729Y-12798769D01*
X3489110Y-12884484D02*
X3489110Y-12684484D01*
X3574825Y-12884484D02*
X3574825Y-12779722D01*
X3574825Y-12779722D02*
X3565301Y-12760674D01*
X3565301Y-12760674D02*
X3546253Y-12751150D01*
X3546253Y-12751150D02*
X3517682Y-12751150D01*
X3517682Y-12751150D02*
X3498634Y-12760674D01*
X3498634Y-12760674D02*
X3489110Y-12770198D01*
X3698634Y-12884484D02*
X3679587Y-12874960D01*
X3679587Y-12874960D02*
X3670063Y-12865436D01*
X3670063Y-12865436D02*
X3660539Y-12846388D01*
X3660539Y-12846388D02*
X3660539Y-12789246D01*
X3660539Y-12789246D02*
X3670063Y-12770198D01*
X3670063Y-12770198D02*
X3679587Y-12760674D01*
X3679587Y-12760674D02*
X3698634Y-12751150D01*
X3698634Y-12751150D02*
X3727206Y-12751150D01*
X3727206Y-12751150D02*
X3746253Y-12760674D01*
X3746253Y-12760674D02*
X3755777Y-12770198D01*
X3755777Y-12770198D02*
X3765301Y-12789246D01*
X3765301Y-12789246D02*
X3765301Y-12846388D01*
X3765301Y-12846388D02*
X3755777Y-12865436D01*
X3755777Y-12865436D02*
X3746253Y-12874960D01*
X3746253Y-12874960D02*
X3727206Y-12884484D01*
X3727206Y-12884484D02*
X3698634Y-12884484D01*
X3879587Y-12884484D02*
X3860539Y-12874960D01*
X3860539Y-12874960D02*
X3851015Y-12855912D01*
X3851015Y-12855912D02*
X3851015Y-12684484D01*
X4031968Y-12874960D02*
X4012920Y-12884484D01*
X4012920Y-12884484D02*
X3974825Y-12884484D01*
X3974825Y-12884484D02*
X3955777Y-12874960D01*
X3955777Y-12874960D02*
X3946253Y-12855912D01*
X3946253Y-12855912D02*
X3946253Y-12779722D01*
X3946253Y-12779722D02*
X3955777Y-12760674D01*
X3955777Y-12760674D02*
X3974825Y-12751150D01*
X3974825Y-12751150D02*
X4012920Y-12751150D01*
X4012920Y-12751150D02*
X4031968Y-12760674D01*
X4031968Y-12760674D02*
X4041491Y-12779722D01*
X4041491Y-12779722D02*
X4041491Y-12798769D01*
X4041491Y-12798769D02*
X3946253Y-12817817D01*
X4117682Y-12874960D02*
X4136730Y-12884484D01*
X4136730Y-12884484D02*
X4174825Y-12884484D01*
X4174825Y-12884484D02*
X4193872Y-12874960D01*
X4193872Y-12874960D02*
X4203396Y-12855912D01*
X4203396Y-12855912D02*
X4203396Y-12846388D01*
X4203396Y-12846388D02*
X4193872Y-12827341D01*
X4193872Y-12827341D02*
X4174825Y-12817817D01*
X4174825Y-12817817D02*
X4146253Y-12817817D01*
X4146253Y-12817817D02*
X4127206Y-12808293D01*
X4127206Y-12808293D02*
X4117682Y-12789246D01*
X4117682Y-12789246D02*
X4117682Y-12779722D01*
X4117682Y-12779722D02*
X4127206Y-12760674D01*
X4127206Y-12760674D02*
X4146253Y-12751150D01*
X4146253Y-12751150D02*
X4174825Y-12751150D01*
X4174825Y-12751150D02*
X4193872Y-12760674D01*
X4270063Y-12960674D02*
X4279587Y-12951150D01*
X4279587Y-12951150D02*
X4298634Y-12922579D01*
X4298634Y-12922579D02*
X4308158Y-12903531D01*
X4308158Y-12903531D02*
X4317682Y-12874960D01*
X4317682Y-12874960D02*
X4327206Y-12827341D01*
X4327206Y-12827341D02*
X4327206Y-12789246D01*
X4327206Y-12789246D02*
X4317682Y-12741627D01*
X4317682Y-12741627D02*
X4308158Y-12713055D01*
X4308158Y-12713055D02*
X4298634Y-12694008D01*
X4298634Y-12694008D02*
X4279587Y-12665436D01*
X4279587Y-12665436D02*
X4270063Y-12655912D01*
M02*
