G04 #@! TF.GenerationSoftware,KiCad,Pcbnew,7.0.11+dfsg-1build4*
G04 #@! TF.ProjectId,test_module_unplaced,74657374-5f6d-46f6-9475-6c655f756e70,rev?*
G04 #@! TF.SameCoordinates,Original*
G04 #@! TF.FileFunction,Copper,L4,Bot*
G04 #@! TF.FilePolarity,Positive*
%FSLAX46Y46*%
G04 Gerber Fmt 4.6, Leading zero omitted, Abs format (unit mm)*
%MOMM*%
%LPD*%
G01*
G04 APERTURE LIST*
G04 #@! TA.AperFunction,ComponentPad*
%ADD10R,1.600000X1.600000*%
G04 #@! TD*
G04 #@! TA.AperFunction,ComponentPad*
%ADD11C,1.600000*%
G04 #@! TD*
G04 #@! TA.AperFunction,ComponentPad*
%ADD12R,1.700000X1.700000*%
G04 #@! TD*
G04 #@! TA.AperFunction,ComponentPad*
%ADD13O,1.700000X1.700000*%
G04 #@! TD*
G04 #@! TA.AperFunction,ComponentPad*
%ADD14C,1.930000*%
G04 #@! TD*
G04 #@! TA.AperFunction,ComponentPad*
%ADD15C,3.200000*%
G04 #@! TD*
G04 #@! TA.AperFunction,ComponentPad*
%ADD16C,2.600000*%
G04 #@! TD*
G04 #@! TA.AperFunction,ComponentPad*
%ADD17C,3.600000*%
G04 #@! TD*
G04 #@! TA.AperFunction,ComponentPad*
%ADD18R,3.500000X3.500000*%
G04 #@! TD*
G04 #@! TA.AperFunction,ComponentPad*
%ADD19C,2.180000*%
G04 #@! TD*
G04 #@! TA.AperFunction,ViaPad*
%ADD20C,0.610210*%
G04 #@! TD*
G04 #@! TA.AperFunction,Conductor*
%ADD21C,0.254254*%
G04 #@! TD*
G04 APERTURE END LIST*
D10*
G04 #@! TO.P,C2,1,+*
G04 #@! TO.N,+5V*
X67350637Y-6469675D03*
D11*
G04 #@! TO.P,C2,2,-*
G04 #@! TO.N,GND*
X67350637Y-2969675D03*
G04 #@! TD*
D12*
G04 #@! TO.P,M3,1,+5V*
G04 #@! TO.N,+5V*
X63661575Y-65557175D03*
D13*
G04 #@! TO.P,M3,2,GND*
G04 #@! TO.N,GND*
X66201575Y-65557175D03*
G04 #@! TO.P,M3,3,SIG*
G04 #@! TO.N,SERVO_SIG*
X68741575Y-65557175D03*
G04 #@! TD*
D12*
G04 #@! TO.P,M4,1,+5V*
G04 #@! TO.N,+5V*
X59794388Y-2039675D03*
D13*
G04 #@! TO.P,M4,2,GND*
G04 #@! TO.N,GND*
X59794388Y-4579675D03*
G04 #@! TO.P,M4,3,SIG*
G04 #@! TO.N,SERVO_SIG2*
X59794388Y-7119675D03*
G04 #@! TD*
D12*
G04 #@! TO.P,M1,1,+*
G04 #@! TO.N,VIB_A*
X21552200Y-23447800D03*
D13*
G04 #@! TO.P,M1,2,-*
G04 #@! TO.N,VIB_B*
X21552200Y-20907800D03*
G04 #@! TD*
D12*
G04 #@! TO.P,SOL1,1,+*
G04 #@! TO.N,SOL_A*
X24560013Y-13173425D03*
D13*
G04 #@! TO.P,SOL1,2,-*
G04 #@! TO.N,SOL_B*
X24560013Y-15713425D03*
G04 #@! TD*
D14*
G04 #@! TO.P,U3,1,VIN*
G04 #@! TO.N,+3V3*
X43106263Y-17677800D03*
G04 #@! TO.P,U3,2,GND*
G04 #@! TO.N,GND*
X43106263Y-15137800D03*
G04 #@! TO.P,U3,3,SCL*
G04 #@! TO.N,I2C_SCL*
X43106263Y-12597800D03*
G04 #@! TO.P,U3,4,SDA*
G04 #@! TO.N,I2C_SDA*
X43106263Y-10057800D03*
G04 #@! TO.P,U3,5,IN_TRIG*
G04 #@! TO.N,HAPT_EN*
X43106263Y-7517800D03*
G04 #@! TO.P,U3,6,OUT+*
G04 #@! TO.N,VIB_A*
X30406263Y-7517800D03*
G04 #@! TO.P,U3,7,OUT-*
G04 #@! TO.N,VIB_B*
X30406263Y-17677800D03*
D15*
G04 #@! TO.P,U3,8,MNT*
G04 #@! TO.N,N/C*
X43106263Y-22757800D03*
G04 #@! TO.P,U3,9,MNT*
X43106263Y-2437800D03*
G04 #@! TO.P,U3,10,MNT*
X30406263Y-22757800D03*
G04 #@! TO.P,U3,11,MNT*
X30406263Y-2437800D03*
G04 #@! TD*
D14*
G04 #@! TO.P,U1,1,PG*
G04 #@! TO.N,N/C*
X25269075Y-69144987D03*
G04 #@! TO.P,U1,2,SHDN*
G04 #@! TO.N,+12V*
X27809075Y-69144987D03*
G04 #@! TO.P,U1,3,VIN*
X30349075Y-69144987D03*
G04 #@! TO.P,U1,4,GND*
G04 #@! TO.N,GND*
X32889075Y-69144987D03*
G04 #@! TO.P,U1,5,VOUT*
G04 #@! TO.N,+5V*
X35429075Y-69144987D03*
G04 #@! TO.P,U1,6,GND*
G04 #@! TO.N,GND*
X29839075Y-53884987D03*
D15*
G04 #@! TO.P,U1,7,MNT*
G04 #@! TO.N,N/C*
X26299075Y-54914987D03*
G04 #@! TO.P,U1,8,MNT*
X39499075Y-68114987D03*
G04 #@! TD*
D12*
G04 #@! TO.P,U2,1,GP0*
G04 #@! TO.N,I2C_SDA*
X49481888Y-12140925D03*
D13*
G04 #@! TO.P,U2,2,GP1*
G04 #@! TO.N,I2C_SCL*
X49481888Y-14680925D03*
G04 #@! TO.P,U2,3,GND*
G04 #@! TO.N,GND*
X49481888Y-17220925D03*
G04 #@! TO.P,U2,4,GP2*
G04 #@! TO.N,SERVO_SIG2*
X49481888Y-19760925D03*
G04 #@! TO.P,U2,5,GP3*
G04 #@! TO.N,N/C*
X49481888Y-22300925D03*
G04 #@! TO.P,U2,6,GP4*
G04 #@! TO.N,STP_TX*
X49481888Y-24840925D03*
G04 #@! TO.P,U2,7,GP5*
G04 #@! TO.N,STP_RX*
X49481888Y-27380925D03*
G04 #@! TO.P,U2,8,GND*
G04 #@! TO.N,GND*
X49481888Y-29920925D03*
G04 #@! TO.P,U2,9,GP6*
G04 #@! TO.N,N/C*
X49481888Y-32460925D03*
G04 #@! TO.P,U2,10,GP7*
X49481888Y-35000925D03*
G04 #@! TO.P,U2,11,GP8*
X49481888Y-37540925D03*
G04 #@! TO.P,U2,12,GP9*
X49481888Y-40080925D03*
G04 #@! TO.P,U2,13,GND*
G04 #@! TO.N,GND*
X49481888Y-42620925D03*
G04 #@! TO.P,U2,14,GP10*
G04 #@! TO.N,SOL_IN1*
X49481888Y-45160925D03*
G04 #@! TO.P,U2,15,GP11*
G04 #@! TO.N,SOL_IN2*
X49481888Y-47700925D03*
G04 #@! TO.P,U2,16,GP12*
G04 #@! TO.N,SCALE_TX*
X49481888Y-50240925D03*
G04 #@! TO.P,U2,17,GP13*
G04 #@! TO.N,SCALE_RX*
X49481888Y-52780925D03*
G04 #@! TO.P,U2,18,GND*
G04 #@! TO.N,GND*
X49481888Y-55320925D03*
G04 #@! TO.P,U2,19,GP14*
G04 #@! TO.N,HAPT_EN*
X49481888Y-57860925D03*
G04 #@! TO.P,U2,20,GP15*
G04 #@! TO.N,SERVO_SIG*
X49481888Y-60400925D03*
D12*
G04 #@! TO.P,U2,21,VBUS*
G04 #@! TO.N,N/C*
X67261888Y-12140925D03*
D13*
G04 #@! TO.P,U2,22,VSYS*
G04 #@! TO.N,+5V*
X67261888Y-14680925D03*
G04 #@! TO.P,U2,23,GND*
G04 #@! TO.N,GND*
X67261888Y-17220925D03*
G04 #@! TO.P,U2,24,3V3_EN*
G04 #@! TO.N,N/C*
X67261888Y-19760925D03*
G04 #@! TO.P,U2,25,3V3*
G04 #@! TO.N,+3V3*
X67261888Y-22300925D03*
G04 #@! TO.P,U2,26,ADC_VREF*
G04 #@! TO.N,N/C*
X67261888Y-24840925D03*
G04 #@! TO.P,U2,27,GP28*
X67261888Y-27380925D03*
G04 #@! TO.P,U2,28,GND*
G04 #@! TO.N,GND*
X67261888Y-29920925D03*
G04 #@! TO.P,U2,29,GP27*
G04 #@! TO.N,N/C*
X67261888Y-32460925D03*
G04 #@! TO.P,U2,30,GP26*
X67261888Y-35000925D03*
G04 #@! TO.P,U2,31,RUN*
X67261888Y-37540925D03*
G04 #@! TO.P,U2,32,GP22*
X67261888Y-40080925D03*
G04 #@! TO.P,U2,33,GND*
G04 #@! TO.N,GND*
X67261888Y-42620925D03*
G04 #@! TO.P,U2,34,GP21*
G04 #@! TO.N,N/C*
X67261888Y-45160925D03*
G04 #@! TO.P,U2,35,GP20*
X67261888Y-47700925D03*
G04 #@! TO.P,U2,36,GP19*
X67261888Y-50240925D03*
G04 #@! TO.P,U2,37,GP18*
X67261888Y-52780925D03*
G04 #@! TO.P,U2,38,GND*
G04 #@! TO.N,GND*
X67261888Y-55320925D03*
G04 #@! TO.P,U2,39,GP17*
G04 #@! TO.N,N/C*
X67261888Y-57860925D03*
G04 #@! TO.P,U2,40,GP16*
X67261888Y-60400925D03*
G04 #@! TD*
D12*
G04 #@! TO.P,U6,1,TXD0*
G04 #@! TO.N,SCALE_TX*
X73974075Y-16417800D03*
D13*
G04 #@! TO.P,U6,2,RXD0*
G04 #@! TO.N,SCALE_RX*
X73974075Y-18957800D03*
G04 #@! TO.P,U6,3,GND*
G04 #@! TO.N,GND*
X73974075Y-21497800D03*
G04 #@! TO.P,U6,4,GP2*
G04 #@! TO.N,N/C*
X73974075Y-24037800D03*
G04 #@! TO.P,U6,5,GP3*
X73974075Y-26577800D03*
G04 #@! TO.P,U6,6,TXD1*
X73974075Y-29117800D03*
G04 #@! TO.P,U6,7,RXD1*
X73974075Y-31657800D03*
G04 #@! TO.P,U6,8,GND*
G04 #@! TO.N,GND*
X73974075Y-34197800D03*
G04 #@! TO.P,U6,9,GP6*
G04 #@! TO.N,N/C*
X73974075Y-36737800D03*
G04 #@! TO.P,U6,10,GP7*
X73974075Y-39277800D03*
G04 #@! TO.P,U6,11,GP8*
X73974075Y-41817800D03*
G04 #@! TO.P,U6,12,GP9*
X73974075Y-44357800D03*
G04 #@! TO.P,U6,13,GND*
G04 #@! TO.N,GND*
X73974075Y-46897800D03*
G04 #@! TO.P,U6,14,GP10*
G04 #@! TO.N,N/C*
X73974075Y-49437800D03*
G04 #@! TO.P,U6,15,GP11*
X73974075Y-51977800D03*
G04 #@! TO.P,U6,16,GP12*
X73974075Y-54517800D03*
G04 #@! TO.P,U6,17,GP13*
X73974075Y-57057800D03*
G04 #@! TO.P,U6,18,GND*
G04 #@! TO.N,GND*
X73974075Y-59597800D03*
G04 #@! TO.P,U6,19,GP14*
G04 #@! TO.N,N/C*
X73974075Y-62137800D03*
G04 #@! TO.P,U6,20,GP15*
X73974075Y-64677800D03*
D12*
G04 #@! TO.P,U6,21,VBUS*
X91754075Y-16417800D03*
D13*
G04 #@! TO.P,U6,22,VCC*
G04 #@! TO.N,+3V3*
X91754075Y-18957800D03*
G04 #@! TO.P,U6,23,GND*
G04 #@! TO.N,GND*
X91754075Y-21497800D03*
G04 #@! TO.P,U6,24,3V3_EN*
G04 #@! TO.N,N/C*
X91754075Y-24037800D03*
G04 #@! TO.P,U6,25,3V3*
G04 #@! TO.N,+3V3*
X91754075Y-26577800D03*
G04 #@! TO.P,U6,26,ADC_VREF*
G04 #@! TO.N,N/C*
X91754075Y-29117800D03*
G04 #@! TO.P,U6,27,GP28*
X91754075Y-31657800D03*
G04 #@! TO.P,U6,28,GND*
G04 #@! TO.N,GND*
X91754075Y-34197800D03*
G04 #@! TO.P,U6,29,GP27*
G04 #@! TO.N,N/C*
X91754075Y-36737800D03*
G04 #@! TO.P,U6,30,GP26*
X91754075Y-39277800D03*
G04 #@! TO.P,U6,31,RUN*
X91754075Y-41817800D03*
G04 #@! TO.P,U6,32,GP22*
X91754075Y-44357800D03*
G04 #@! TO.P,U6,33,GND*
G04 #@! TO.N,GND*
X91754075Y-46897800D03*
G04 #@! TO.P,U6,34,GP21*
G04 #@! TO.N,N/C*
X91754075Y-49437800D03*
G04 #@! TO.P,U6,35,GP20*
X91754075Y-51977800D03*
G04 #@! TO.P,U6,36,GP19*
X91754075Y-54517800D03*
G04 #@! TO.P,U6,37,GP18*
X91754075Y-57057800D03*
G04 #@! TO.P,U6,38,GND*
G04 #@! TO.N,GND*
X91754075Y-59597800D03*
G04 #@! TO.P,U6,39,GP17*
G04 #@! TO.N,N/C*
X91754075Y-62137800D03*
G04 #@! TO.P,U6,40,GP16*
X91754075Y-64677800D03*
G04 #@! TD*
D14*
G04 #@! TO.P,U5,1,ERR*
G04 #@! TO.N,N/C*
X45034700Y-76811862D03*
G04 #@! TO.P,U5,2,RST*
X45034700Y-79351862D03*
G04 #@! TO.P,U5,3,SCL*
X45034700Y-81891862D03*
G04 #@! TO.P,U5,4,SDA*
X45034700Y-84431862D03*
G04 #@! TO.P,U5,5,GND*
G04 #@! TO.N,GND*
X45034700Y-86971862D03*
G04 #@! TO.P,U5,6,TX*
G04 #@! TO.N,STP_RX*
X45034700Y-89511862D03*
G04 #@! TO.P,U5,7,RX*
G04 #@! TO.N,STP_TX*
X45034700Y-92051862D03*
G04 #@! TO.P,U5,8,RC*
G04 #@! TO.N,N/C*
X45034700Y-94591862D03*
G04 #@! TO.P,U5,9,5V*
X45034700Y-97131862D03*
G04 #@! TO.P,U5,10,GND*
G04 #@! TO.N,GND*
X45034700Y-99671862D03*
G04 #@! TO.P,U5,11,STEP*
G04 #@! TO.N,N/C*
X57734700Y-76811862D03*
G04 #@! TO.P,U5,12,DIR*
X60274700Y-76811862D03*
G04 #@! TO.P,U5,13,GND*
G04 #@! TO.N,GND*
X62814700Y-76811862D03*
G04 #@! TO.P,U5,14,GND*
X65354700Y-76811862D03*
G04 #@! TO.P,U5,15,VM*
G04 #@! TO.N,N/C*
X67894700Y-76811862D03*
G04 #@! TO.P,U5,16,VIN*
G04 #@! TO.N,+12V*
X80594700Y-84431862D03*
G04 #@! TO.P,U5,17,GND*
G04 #@! TO.N,GND*
X80594700Y-86971862D03*
G04 #@! TO.P,U5,18,A2*
G04 #@! TO.N,STP_A2*
X80594700Y-92051862D03*
G04 #@! TO.P,U5,19,A1*
G04 #@! TO.N,STP_A1*
X80594700Y-94591862D03*
G04 #@! TO.P,U5,20,B1*
G04 #@! TO.N,STP_B1*
X80594700Y-97131862D03*
G04 #@! TO.P,U5,21,B2*
G04 #@! TO.N,STP_B2*
X80594700Y-99671862D03*
D16*
G04 #@! TO.P,U5,22,VIN*
G04 #@! TO.N,+12V*
X78054700Y-82961862D03*
G04 #@! TO.P,U5,23,GND*
G04 #@! TO.N,GND*
X78054700Y-86461862D03*
G04 #@! TO.P,U5,24,A2*
G04 #@! TO.N,STP_A2*
X78054700Y-89961862D03*
G04 #@! TO.P,U5,25,A1*
G04 #@! TO.N,STP_A1*
X78054700Y-93461862D03*
G04 #@! TO.P,U5,26,B1*
G04 #@! TO.N,STP_B1*
X78054700Y-96961862D03*
G04 #@! TO.P,U5,27,B2*
G04 #@! TO.N,STP_B2*
X78054700Y-100461862D03*
D15*
G04 #@! TO.P,U5,28,MNT*
G04 #@! TO.N,N/C*
X79324700Y-78081862D03*
G04 #@! TO.P,U5,29,MNT*
X48844700Y-99671862D03*
G04 #@! TD*
D17*
G04 #@! TO.P,SR1,1,+*
G04 #@! TO.N,+12V*
X13875638Y-73823425D03*
D14*
G04 #@! TO.P,SR1,2,A*
X15125638Y-76023425D03*
G04 #@! TO.P,SR1,3,A*
X12625638Y-76023425D03*
D17*
G04 #@! TO.P,SR1,4,-*
G04 #@! TO.N,GND*
X8875638Y-73823425D03*
D14*
G04 #@! TO.P,SR1,5,B*
X10125638Y-76023425D03*
G04 #@! TO.P,SR1,6,B*
X7625638Y-76023425D03*
G04 #@! TO.P,SR1,7,SRX*
G04 #@! TO.N,N/C*
X20255638Y-77563425D03*
G04 #@! TO.P,SR1,8,SRX*
X14755638Y-84293425D03*
G04 #@! TO.P,SR1,9,POT*
X4225638Y-88303425D03*
G04 #@! TO.P,SR1,10,POT*
X4225638Y-90843425D03*
G04 #@! TO.P,SR1,11,POT*
X4225638Y-93383425D03*
D15*
G04 #@! TO.P,SR1,12,MNT*
X19325638Y-97863425D03*
G04 #@! TO.P,SR1,13,MNT*
X3425638Y-97863425D03*
G04 #@! TO.P,SR1,14,MNT*
X3425638Y-73663425D03*
G04 #@! TD*
D18*
G04 #@! TO.P,J1,1,+12V*
G04 #@! TO.N,+12V*
X28315708Y-85996237D03*
G04 #@! TO.P,J1,2,GND*
G04 #@! TO.N,GND*
G04 #@! TA.AperFunction,ComponentPad*
G36*
G01*
X29315708Y-93496237D02*
X27315708Y-93496237D01*
G75*
G02*
X26565708Y-92746237I0J750000D01*
G01*
X26565708Y-91246237D01*
G75*
G02*
X27315708Y-90496237I750000J0D01*
G01*
X29315708Y-90496237D01*
G75*
G02*
X30065708Y-91246237I0J-750000D01*
G01*
X30065708Y-92746237D01*
G75*
G02*
X29315708Y-93496237I-750000J0D01*
G01*
G37*
G04 #@! TD.AperFunction*
G04 #@! TO.P,J1,3,SW*
G04 #@! TO.N,N/C*
G04 #@! TA.AperFunction,ComponentPad*
G36*
G01*
X33890708Y-90746237D02*
X32140708Y-90746237D01*
G75*
G02*
X31265708Y-89871237I0J875000D01*
G01*
X31265708Y-88121237D01*
G75*
G02*
X32140708Y-87246237I875000J0D01*
G01*
X33890708Y-87246237D01*
G75*
G02*
X34765708Y-88121237I0J-875000D01*
G01*
X34765708Y-89871237D01*
G75*
G02*
X33890708Y-90746237I-875000J0D01*
G01*
G37*
G04 #@! TD.AperFunction*
G04 #@! TD*
D19*
G04 #@! TO.P,U4,1,OUT2*
G04 #@! TO.N,SOL_B*
X41995825Y-47269050D03*
G04 #@! TO.P,U4,2,OUT1*
G04 #@! TO.N,SOL_A*
X38495825Y-47269050D03*
G04 #@! TO.P,U4,3,VM*
G04 #@! TO.N,+12V*
X33359825Y-47269050D03*
G04 #@! TO.P,U4,4,GND*
G04 #@! TO.N,GND*
X29859825Y-47269050D03*
D14*
G04 #@! TO.P,U4,5,IN2*
G04 #@! TO.N,SOL_IN2*
X39687825Y-29489050D03*
G04 #@! TO.P,U4,6,IN1*
G04 #@! TO.N,SOL_IN1*
X37147825Y-29489050D03*
G04 #@! TO.P,U4,7,VM*
G04 #@! TO.N,+12V*
X34607825Y-29489050D03*
G04 #@! TO.P,U4,8,GND*
G04 #@! TO.N,GND*
X32067825Y-29489050D03*
D15*
G04 #@! TO.P,U4,9,MNT*
G04 #@! TO.N,N/C*
X43497825Y-29489050D03*
G04 #@! TO.P,U4,10,MNT*
X28257825Y-29489050D03*
G04 #@! TD*
D10*
G04 #@! TO.P,C3,1,+*
G04 #@! TO.N,+12V*
X85795950Y-84211862D03*
D11*
G04 #@! TO.P,C3,2,-*
G04 #@! TO.N,GND*
X89295950Y-84211862D03*
G04 #@! TD*
D10*
G04 #@! TO.P,C1,1,+*
G04 #@! TO.N,+12V*
X30397513Y-74297800D03*
D11*
G04 #@! TO.P,C1,2,-*
G04 #@! TO.N,GND*
X30397513Y-77797800D03*
G04 #@! TD*
D12*
G04 #@! TO.P,M2,1,A1*
G04 #@! TO.N,STP_A1*
X85145950Y-99502487D03*
D13*
G04 #@! TO.P,M2,2,A2*
G04 #@! TO.N,STP_A2*
X85145950Y-96962487D03*
G04 #@! TO.P,M2,3,B1*
G04 #@! TO.N,STP_B1*
X85145950Y-94422487D03*
G04 #@! TO.P,M2,4,B2*
G04 #@! TO.N,STP_B2*
X85145950Y-91882487D03*
G04 #@! TD*
D20*
G04 #@! TO.N,GND*
X89840645Y-39953111D03*
X86919351Y-21496278D03*
X28315500Y-99534151D03*
X90229233Y-30747129D03*
X71660662Y-33001478D03*
X64723262Y-59813897D03*
X28740085Y-57926012D03*
X38256842Y-87718483D03*
X87783111Y-85640674D03*
X70185119Y-19748291D03*
X71360013Y-50525332D03*
X71096776Y-44344628D03*
X90152924Y-56311147D03*
X71934379Y-58627050D03*
G04 #@! TO.N,SCALE_RX*
X61985801Y-14907007D03*
X72554944Y-16106762D03*
G04 #@! TO.N,SCALE_TX*
X60549316Y-18123565D03*
G04 #@! TO.N,SERVO_SIG*
X56059964Y-63698646D03*
G04 #@! TO.N,SOL_A*
X24804817Y-23085762D03*
G04 #@! TD*
D21*
G04 #@! TO.N,+3V3*
X88978913Y-20227500D02*
X90248913Y-18957500D01*
X46357005Y-16047582D02*
X44727087Y-17677500D01*
X66406000Y-22301000D02*
X65756913Y-22301000D01*
X68118000Y-22301000D02*
X68767087Y-22301000D01*
X90898000Y-18957500D02*
X91754000Y-18957500D01*
X67262000Y-22301000D02*
X68118000Y-22301000D01*
X90248913Y-18957500D02*
X90898000Y-18957500D01*
X44078000Y-17677500D02*
X43106500Y-17677500D01*
X68767087Y-22301000D02*
X70840587Y-20227500D01*
X65756913Y-22301000D02*
X58799462Y-22301000D01*
X67262000Y-22301000D02*
X66406000Y-22301000D01*
X44727087Y-17677500D02*
X44078000Y-17677500D01*
X52546044Y-16047582D02*
X46357005Y-16047582D01*
X58799462Y-22301000D02*
X52546044Y-16047582D01*
X70840587Y-20227500D02*
X88978913Y-20227500D01*
G04 #@! TO.N,SCALE_RX*
X65989426Y-10903382D02*
X68127542Y-10903382D01*
X72554944Y-15330784D02*
X72554944Y-16106762D01*
X61985801Y-14907007D02*
X65989426Y-10903382D01*
X68127542Y-10903382D02*
X72554944Y-15330784D01*
G04 #@! TO.N,SCALE_TX*
X62666917Y-16005964D02*
X71230055Y-16005964D01*
X72908191Y-17483809D02*
X73549000Y-16843000D01*
X71230055Y-16005964D02*
X72707900Y-17483809D01*
X73549000Y-16843000D02*
X73974000Y-16418000D01*
X72707900Y-17483809D02*
X72908191Y-17483809D01*
X60549316Y-18123565D02*
X62666917Y-16005964D01*
G04 #@! TO.N,SERVO_SIG*
X67938703Y-66360297D02*
X68439250Y-65859750D01*
X56059964Y-63698646D02*
X59192853Y-66831534D01*
X59192853Y-66831534D02*
X67467466Y-66831534D01*
X67467466Y-66831534D02*
X67938703Y-66360297D01*
X68439250Y-65859750D02*
X68742000Y-65557000D01*
G04 #@! TO.N,SOL_A*
X38108000Y-46881000D02*
X37261026Y-46034026D01*
X38496000Y-47269000D02*
X38108000Y-46881000D01*
X37261026Y-46034026D02*
X24804817Y-33577817D01*
X24804817Y-33577817D02*
X24804817Y-23085762D01*
G04 #@! TO.N,SOL_B*
X38409659Y-23903071D02*
X30220087Y-15713500D01*
X41996000Y-47269000D02*
X41995750Y-46720500D01*
X30220087Y-15713500D02*
X26065087Y-15713500D01*
X41995204Y-45522913D02*
X38409659Y-41937368D01*
X38409659Y-41937368D02*
X38409659Y-23903071D01*
X25416000Y-15713500D02*
X24560000Y-15713500D01*
X41995750Y-46720500D02*
X41995204Y-45522913D01*
X26065087Y-15713500D02*
X25416000Y-15713500D01*
G04 #@! TO.N,SOL_IN2*
X48418026Y-46637026D02*
X40833641Y-39052641D01*
X40833641Y-39052641D02*
X40833641Y-30634306D01*
X40031000Y-29832250D02*
X39687500Y-29489000D01*
X49179500Y-47398500D02*
X48418026Y-46637026D01*
X40833641Y-30634306D02*
X40031000Y-29832250D01*
X49482000Y-47701000D02*
X49179500Y-47398500D01*
G04 #@! TO.N,STP_B1*
X82239716Y-95486284D02*
X84081337Y-95486284D01*
X84843250Y-94725000D02*
X85146000Y-94422500D01*
X80938000Y-96788000D02*
X81567156Y-96158844D01*
X84081337Y-95486284D02*
X84843250Y-94725000D01*
X81567156Y-96158844D02*
X82239716Y-95486284D01*
X80594500Y-97131500D02*
X80938000Y-96788000D01*
G04 #@! TO.N,STP_B2*
X80938000Y-99328000D02*
X81740474Y-98525526D01*
X85448750Y-92185000D02*
X85146000Y-91882500D01*
X81740474Y-98525526D02*
X84573500Y-95692500D01*
X86322764Y-93058385D02*
X86210663Y-92946284D01*
X84573500Y-95692500D02*
X85519334Y-95692500D01*
X80594500Y-99671500D02*
X80938000Y-99328000D01*
X85519334Y-95692500D02*
X86322764Y-94889069D01*
X86210663Y-92946284D02*
X85448750Y-92185000D01*
X86322764Y-94889069D02*
X86322764Y-93058385D01*
G04 #@! TO.N,STP_RX*
X49784500Y-27683500D02*
X49482000Y-27381000D01*
X45973333Y-88572667D02*
X50623811Y-83922189D01*
X50437900Y-28336900D02*
X49784500Y-27683500D01*
X45034500Y-89511500D02*
X45378000Y-89168000D01*
X50623811Y-83922189D02*
X50623811Y-28522811D01*
X45378000Y-89168000D02*
X45973333Y-88572667D01*
X50623811Y-28522811D02*
X50437900Y-28336900D01*
G04 #@! TO.N,STP_TX*
X45034500Y-92051500D02*
X45378000Y-91708000D01*
X50545974Y-25904974D02*
X49784500Y-25143500D01*
X51119239Y-26478239D02*
X50545974Y-25904974D01*
X45973333Y-91112667D02*
X51119239Y-85966761D01*
X45378000Y-91708000D02*
X45973333Y-91112667D01*
X49784500Y-25143500D02*
X49482000Y-24841000D01*
X51119239Y-85966761D02*
X51119239Y-26478239D01*
G04 #@! TO.N,VIB_B*
X30063000Y-18021000D02*
X29260526Y-18823474D01*
X23057087Y-20908000D02*
X22408000Y-20908000D01*
X29260526Y-18823474D02*
X27176000Y-20908000D01*
X30406500Y-17677500D02*
X30063000Y-18021000D01*
X22408000Y-20908000D02*
X21552000Y-20908000D01*
X27176000Y-20908000D02*
X23057087Y-20908000D01*
G04 #@! TD*
M02*
