M48
; FORMAT={-:-/ absolute / metric / decimal}
; #@! TF.GenerationSoftware,Kicad,Pcbnew,7.0.11+dfsg-1build4
; #@! TF.FileFunction,MixedPlating,1,4
FMAT,2
METRIC
; #@! TA.AperFunction,Plated,PTH,ViaDrill
T1C0.305
; #@! TA.AperFunction,Plated,PTH,ComponentDrill
T2C0.800
; #@! TA.AperFunction,Plated,PTH,ComponentDrill
T3C1.000
; #@! TA.AperFunction,Plated,PTH,ComponentDrill
T4C1.020
; #@! TA.AperFunction,Plated,PTH,ComponentDrill
T5C1.520
; #@! TA.AperFunction,Plated,PTH,ComponentDrill
T6C2.180
; #@! TA.AperFunction,Plated,PTH,ComponentDrill
T7C2.500
%
G90
G05
T1
X24.805Y-23.086
X28.316Y-99.534
X28.74Y-57.926
X38.257Y-87.718
X56.06Y-63.699
X60.549Y-18.124
X61.986Y-14.907
X64.723Y-59.814
X70.185Y-19.748
X71.097Y-44.345
X71.36Y-50.525
X71.661Y-33.001
X71.934Y-58.627
X72.555Y-16.107
X86.919Y-21.496
X87.783Y-85.641
X89.841Y-39.953
X90.153Y-56.311
X90.229Y-30.747
T2
X30.398Y-74.298
X30.398Y-77.798
X67.351Y-2.97
X67.351Y-6.47
X85.796Y-84.212
X89.296Y-84.212
T3
X21.552Y-20.908
X21.552Y-23.448
X24.56Y-13.173
X24.56Y-15.713
X49.482Y-12.141
X49.482Y-14.681
X49.482Y-17.221
X49.482Y-19.761
X49.482Y-22.301
X49.482Y-24.841
X49.482Y-27.381
X49.482Y-29.921
X49.482Y-32.461
X49.482Y-35.001
X49.482Y-37.541
X49.482Y-40.081
X49.482Y-42.621
X49.482Y-45.161
X49.482Y-47.701
X49.482Y-50.241
X49.482Y-52.781
X49.482Y-55.321
X49.482Y-57.861
X49.482Y-60.401
X59.794Y-2.04
X59.794Y-4.58
X59.794Y-7.12
X63.662Y-65.557
X66.202Y-65.557
X67.262Y-12.141
X67.262Y-14.681
X67.262Y-17.221
X67.262Y-19.761
X67.262Y-22.301
X67.262Y-24.841
X67.262Y-27.381
X67.262Y-29.921
X67.262Y-32.461
X67.262Y-35.001
X67.262Y-37.541
X67.262Y-40.081
X67.262Y-42.621
X67.262Y-45.161
X67.262Y-47.701
X67.262Y-50.241
X67.262Y-52.781
X67.262Y-55.321
X67.262Y-57.861
X67.262Y-60.401
X68.742Y-65.557
X73.974Y-16.418
X73.974Y-18.958
X73.974Y-21.498
X73.974Y-24.038
X73.974Y-26.578
X73.974Y-29.118
X73.974Y-31.658
X73.974Y-34.198
X73.974Y-36.738
X73.974Y-39.278
X73.974Y-41.818
X73.974Y-44.358
X73.974Y-46.898
X73.974Y-49.438
X73.974Y-51.978
X73.974Y-54.518
X73.974Y-57.058
X73.974Y-59.598
X73.974Y-62.138
X73.974Y-64.678
X85.146Y-91.882
X85.146Y-94.422
X85.146Y-96.962
X85.146Y-99.502
X91.754Y-16.418
X91.754Y-18.958
X91.754Y-21.498
X91.754Y-24.038
X91.754Y-26.578
X91.754Y-29.118
X91.754Y-31.658
X91.754Y-34.198
X91.754Y-36.738
X91.754Y-39.278
X91.754Y-41.818
X91.754Y-44.358
X91.754Y-46.898
X91.754Y-49.438
X91.754Y-51.978
X91.754Y-54.518
X91.754Y-57.058
X91.754Y-59.598
X91.754Y-62.138
X91.754Y-64.678
T4
X4.226Y-88.303
X4.226Y-90.843
X4.226Y-93.383
X7.626Y-76.023
X10.126Y-76.023
X12.626Y-76.023
X14.756Y-84.293
X15.126Y-76.023
X20.256Y-77.563
X25.269Y-69.145
X27.809Y-69.145
X29.839Y-53.885
X29.86Y-47.269
X30.349Y-69.145
X30.406Y-7.518
X30.406Y-17.678
X32.068Y-29.489
X32.889Y-69.145
X33.36Y-47.269
X34.608Y-29.489
X35.429Y-69.145
X37.148Y-29.489
X38.496Y-47.269
X39.688Y-29.489
X41.996Y-47.269
X43.106Y-7.518
X43.106Y-10.058
X43.106Y-12.598
X43.106Y-15.138
X43.106Y-17.678
X45.035Y-76.812
X45.035Y-79.352
X45.035Y-81.892
X45.035Y-84.432
X45.035Y-86.972
X45.035Y-89.512
X45.035Y-92.052
X45.035Y-94.592
X45.035Y-97.132
X45.035Y-99.672
X57.735Y-76.812
X60.275Y-76.812
X62.815Y-76.812
X65.355Y-76.812
X67.895Y-76.812
X80.595Y-84.432
X80.595Y-86.972
X80.595Y-92.052
X80.595Y-94.592
X80.595Y-97.132
X80.595Y-99.672
T5
X78.055Y-82.962
X78.055Y-86.462
X78.055Y-89.962
X78.055Y-93.462
X78.055Y-96.962
X78.055Y-100.462
T6
X3.426Y-73.663
X3.426Y-97.863
X8.876Y-73.823
X13.876Y-73.823
X19.326Y-97.863
X26.299Y-54.915
X39.499Y-68.115
X48.845Y-99.672
X79.325Y-78.082
T7
X28.258Y-29.489
X30.406Y-2.438
X30.406Y-22.758
X43.106Y-2.438
X43.106Y-22.758
X43.498Y-29.489
T3
X27.316Y-85.996G85X29.316Y-85.996
G05
X27.316Y-91.996G85X29.316Y-91.996
G05
X33.016Y-89.996G85X33.016Y-87.996
G05
M30
