G04 #@! TF.GenerationSoftware,KiCad,Pcbnew,7.0.11+dfsg-1build4*
G04 #@! TF.ProjectId,test_module_unplaced,74657374-5f6d-46f6-9475-6c655f756e70,rev?*
G04 #@! TF.SameCoordinates,Original*
G04 #@! TF.FileFunction,Legend,Top*
G04 #@! TF.FilePolarity,Positive*
%FSLAX46Y46*%
G04 Gerber Fmt 4.6, Leading zero omitted, Abs format (unit mm)*
%MOMM*%
%LPD*%
G01*
G04 APERTURE LIST*
%ADD10C,0.150000*%
%ADD11C,0.120000*%
%ADD12R,1.600000X1.600000*%
%ADD13C,1.600000*%
%ADD14R,1.700000X1.700000*%
%ADD15O,1.700000X1.700000*%
%ADD16C,1.930000*%
%ADD17C,3.200000*%
%ADD18C,2.600000*%
%ADD19C,3.600000*%
%ADD20R,3.500000X3.500000*%
%ADD21C,2.180000*%
G04 APERTURE END LIST*
D10*
X62460217Y-4886341D02*
X62507837Y-4933960D01*
X62507837Y-4933960D02*
X62555456Y-5076817D01*
X62555456Y-5076817D02*
X62555456Y-5172055D01*
X62555456Y-5172055D02*
X62507837Y-5314912D01*
X62507837Y-5314912D02*
X62412598Y-5410150D01*
X62412598Y-5410150D02*
X62317360Y-5457769D01*
X62317360Y-5457769D02*
X62126884Y-5505388D01*
X62126884Y-5505388D02*
X61984027Y-5505388D01*
X61984027Y-5505388D02*
X61793551Y-5457769D01*
X61793551Y-5457769D02*
X61698313Y-5410150D01*
X61698313Y-5410150D02*
X61603075Y-5314912D01*
X61603075Y-5314912D02*
X61555456Y-5172055D01*
X61555456Y-5172055D02*
X61555456Y-5076817D01*
X61555456Y-5076817D02*
X61603075Y-4933960D01*
X61603075Y-4933960D02*
X61650694Y-4886341D01*
X61650694Y-4505388D02*
X61603075Y-4457769D01*
X61603075Y-4457769D02*
X61555456Y-4362531D01*
X61555456Y-4362531D02*
X61555456Y-4124436D01*
X61555456Y-4124436D02*
X61603075Y-4029198D01*
X61603075Y-4029198D02*
X61650694Y-3981579D01*
X61650694Y-3981579D02*
X61745932Y-3933960D01*
X61745932Y-3933960D02*
X61841170Y-3933960D01*
X61841170Y-3933960D02*
X61984027Y-3981579D01*
X61984027Y-3981579D02*
X62555456Y-4553007D01*
X62555456Y-4553007D02*
X62555456Y-3933960D01*
X61266394Y-66366698D02*
X60266394Y-66366698D01*
X60266394Y-66366698D02*
X60980679Y-66033365D01*
X60980679Y-66033365D02*
X60266394Y-65700032D01*
X60266394Y-65700032D02*
X61266394Y-65700032D01*
X60266394Y-65319079D02*
X60266394Y-64700032D01*
X60266394Y-64700032D02*
X60647346Y-65033365D01*
X60647346Y-65033365D02*
X60647346Y-64890508D01*
X60647346Y-64890508D02*
X60694965Y-64795270D01*
X60694965Y-64795270D02*
X60742584Y-64747651D01*
X60742584Y-64747651D02*
X60837822Y-64700032D01*
X60837822Y-64700032D02*
X61075917Y-64700032D01*
X61075917Y-64700032D02*
X61171155Y-64747651D01*
X61171155Y-64747651D02*
X61218775Y-64795270D01*
X61218775Y-64795270D02*
X61266394Y-64890508D01*
X61266394Y-64890508D02*
X61266394Y-65176222D01*
X61266394Y-65176222D02*
X61218775Y-65271460D01*
X61218775Y-65271460D02*
X61171155Y-65319079D01*
X58984864Y355505D02*
X58984864Y1355505D01*
X58984864Y1355505D02*
X59318197Y641220D01*
X59318197Y641220D02*
X59651530Y1355505D01*
X59651530Y1355505D02*
X59651530Y355505D01*
X60556292Y1022172D02*
X60556292Y355505D01*
X60318197Y1403125D02*
X60080102Y688839D01*
X60080102Y688839D02*
X60699149Y688839D01*
X20742676Y-26752619D02*
X20742676Y-25752619D01*
X20742676Y-25752619D02*
X21076009Y-26466904D01*
X21076009Y-26466904D02*
X21409342Y-25752619D01*
X21409342Y-25752619D02*
X21409342Y-26752619D01*
X22409342Y-26752619D02*
X21837914Y-26752619D01*
X22123628Y-26752619D02*
X22123628Y-25752619D01*
X22123628Y-25752619D02*
X22028390Y-25895476D01*
X22028390Y-25895476D02*
X21933152Y-25990714D01*
X21933152Y-25990714D02*
X21837914Y-26038333D01*
X22869537Y-10730625D02*
X23012394Y-10778244D01*
X23012394Y-10778244D02*
X23250489Y-10778244D01*
X23250489Y-10778244D02*
X23345727Y-10730625D01*
X23345727Y-10730625D02*
X23393346Y-10683005D01*
X23393346Y-10683005D02*
X23440965Y-10587767D01*
X23440965Y-10587767D02*
X23440965Y-10492529D01*
X23440965Y-10492529D02*
X23393346Y-10397291D01*
X23393346Y-10397291D02*
X23345727Y-10349672D01*
X23345727Y-10349672D02*
X23250489Y-10302053D01*
X23250489Y-10302053D02*
X23060013Y-10254434D01*
X23060013Y-10254434D02*
X22964775Y-10206815D01*
X22964775Y-10206815D02*
X22917156Y-10159196D01*
X22917156Y-10159196D02*
X22869537Y-10063958D01*
X22869537Y-10063958D02*
X22869537Y-9968720D01*
X22869537Y-9968720D02*
X22917156Y-9873482D01*
X22917156Y-9873482D02*
X22964775Y-9825863D01*
X22964775Y-9825863D02*
X23060013Y-9778244D01*
X23060013Y-9778244D02*
X23298108Y-9778244D01*
X23298108Y-9778244D02*
X23440965Y-9825863D01*
X24060013Y-9778244D02*
X24250489Y-9778244D01*
X24250489Y-9778244D02*
X24345727Y-9825863D01*
X24345727Y-9825863D02*
X24440965Y-9921101D01*
X24440965Y-9921101D02*
X24488584Y-10111577D01*
X24488584Y-10111577D02*
X24488584Y-10444910D01*
X24488584Y-10444910D02*
X24440965Y-10635386D01*
X24440965Y-10635386D02*
X24345727Y-10730625D01*
X24345727Y-10730625D02*
X24250489Y-10778244D01*
X24250489Y-10778244D02*
X24060013Y-10778244D01*
X24060013Y-10778244D02*
X23964775Y-10730625D01*
X23964775Y-10730625D02*
X23869537Y-10635386D01*
X23869537Y-10635386D02*
X23821918Y-10444910D01*
X23821918Y-10444910D02*
X23821918Y-10111577D01*
X23821918Y-10111577D02*
X23869537Y-9921101D01*
X23869537Y-9921101D02*
X23964775Y-9825863D01*
X23964775Y-9825863D02*
X24060013Y-9778244D01*
X25393346Y-10778244D02*
X24917156Y-10778244D01*
X24917156Y-10778244D02*
X24917156Y-9778244D01*
X26250489Y-10778244D02*
X25679061Y-10778244D01*
X25964775Y-10778244D02*
X25964775Y-9778244D01*
X25964775Y-9778244D02*
X25869537Y-9921101D01*
X25869537Y-9921101D02*
X25774299Y-10016339D01*
X25774299Y-10016339D02*
X25679061Y-10063958D01*
X26321082Y-13359704D02*
X27130605Y-13359704D01*
X27130605Y-13359704D02*
X27225843Y-13312085D01*
X27225843Y-13312085D02*
X27273463Y-13264466D01*
X27273463Y-13264466D02*
X27321082Y-13169228D01*
X27321082Y-13169228D02*
X27321082Y-12978752D01*
X27321082Y-12978752D02*
X27273463Y-12883514D01*
X27273463Y-12883514D02*
X27225843Y-12835895D01*
X27225843Y-12835895D02*
X27130605Y-12788276D01*
X27130605Y-12788276D02*
X26321082Y-12788276D01*
X26321082Y-12407323D02*
X26321082Y-11788276D01*
X26321082Y-11788276D02*
X26702034Y-12121609D01*
X26702034Y-12121609D02*
X26702034Y-11978752D01*
X26702034Y-11978752D02*
X26749653Y-11883514D01*
X26749653Y-11883514D02*
X26797272Y-11835895D01*
X26797272Y-11835895D02*
X26892510Y-11788276D01*
X26892510Y-11788276D02*
X27130605Y-11788276D01*
X27130605Y-11788276D02*
X27225843Y-11835895D01*
X27225843Y-11835895D02*
X27273463Y-11883514D01*
X27273463Y-11883514D02*
X27321082Y-11978752D01*
X27321082Y-11978752D02*
X27321082Y-12264466D01*
X27321082Y-12264466D02*
X27273463Y-12359704D01*
X27273463Y-12359704D02*
X27225843Y-12407323D01*
X22453894Y-62276891D02*
X23263417Y-62276891D01*
X23263417Y-62276891D02*
X23358655Y-62229272D01*
X23358655Y-62229272D02*
X23406275Y-62181653D01*
X23406275Y-62181653D02*
X23453894Y-62086415D01*
X23453894Y-62086415D02*
X23453894Y-61895939D01*
X23453894Y-61895939D02*
X23406275Y-61800701D01*
X23406275Y-61800701D02*
X23358655Y-61753082D01*
X23358655Y-61753082D02*
X23263417Y-61705463D01*
X23263417Y-61705463D02*
X22453894Y-61705463D01*
X23453894Y-60705463D02*
X23453894Y-61276891D01*
X23453894Y-60991177D02*
X22453894Y-60991177D01*
X22453894Y-60991177D02*
X22596751Y-61086415D01*
X22596751Y-61086415D02*
X22691989Y-61181653D01*
X22691989Y-61181653D02*
X22739608Y-61276891D01*
X57609983Y-8745744D02*
X57609983Y-9555267D01*
X57609983Y-9555267D02*
X57657602Y-9650505D01*
X57657602Y-9650505D02*
X57705221Y-9698125D01*
X57705221Y-9698125D02*
X57800459Y-9745744D01*
X57800459Y-9745744D02*
X57990935Y-9745744D01*
X57990935Y-9745744D02*
X58086173Y-9698125D01*
X58086173Y-9698125D02*
X58133792Y-9650505D01*
X58133792Y-9650505D02*
X58181411Y-9555267D01*
X58181411Y-9555267D02*
X58181411Y-8745744D01*
X58609983Y-8840982D02*
X58657602Y-8793363D01*
X58657602Y-8793363D02*
X58752840Y-8745744D01*
X58752840Y-8745744D02*
X58990935Y-8745744D01*
X58990935Y-8745744D02*
X59086173Y-8793363D01*
X59086173Y-8793363D02*
X59133792Y-8840982D01*
X59133792Y-8840982D02*
X59181411Y-8936220D01*
X59181411Y-8936220D02*
X59181411Y-9031458D01*
X59181411Y-9031458D02*
X59133792Y-9174315D01*
X59133792Y-9174315D02*
X58562364Y-9745744D01*
X58562364Y-9745744D02*
X59181411Y-9745744D01*
X82102170Y-13002619D02*
X82102170Y-13812142D01*
X82102170Y-13812142D02*
X82149789Y-13907380D01*
X82149789Y-13907380D02*
X82197408Y-13955000D01*
X82197408Y-13955000D02*
X82292646Y-14002619D01*
X82292646Y-14002619D02*
X82483122Y-14002619D01*
X82483122Y-14002619D02*
X82578360Y-13955000D01*
X82578360Y-13955000D02*
X82625979Y-13907380D01*
X82625979Y-13907380D02*
X82673598Y-13812142D01*
X82673598Y-13812142D02*
X82673598Y-13002619D01*
X83578360Y-13002619D02*
X83387884Y-13002619D01*
X83387884Y-13002619D02*
X83292646Y-13050238D01*
X83292646Y-13050238D02*
X83245027Y-13097857D01*
X83245027Y-13097857D02*
X83149789Y-13240714D01*
X83149789Y-13240714D02*
X83102170Y-13431190D01*
X83102170Y-13431190D02*
X83102170Y-13812142D01*
X83102170Y-13812142D02*
X83149789Y-13907380D01*
X83149789Y-13907380D02*
X83197408Y-13955000D01*
X83197408Y-13955000D02*
X83292646Y-14002619D01*
X83292646Y-14002619D02*
X83483122Y-14002619D01*
X83483122Y-14002619D02*
X83578360Y-13955000D01*
X83578360Y-13955000D02*
X83625979Y-13907380D01*
X83625979Y-13907380D02*
X83673598Y-13812142D01*
X83673598Y-13812142D02*
X83673598Y-13574047D01*
X83673598Y-13574047D02*
X83625979Y-13478809D01*
X83625979Y-13478809D02*
X83578360Y-13431190D01*
X83578360Y-13431190D02*
X83483122Y-13383571D01*
X83483122Y-13383571D02*
X83292646Y-13383571D01*
X83292646Y-13383571D02*
X83197408Y-13431190D01*
X83197408Y-13431190D02*
X83149789Y-13478809D01*
X83149789Y-13478809D02*
X83102170Y-13574047D01*
X62052795Y-73966681D02*
X62052795Y-74776204D01*
X62052795Y-74776204D02*
X62100414Y-74871442D01*
X62100414Y-74871442D02*
X62148033Y-74919062D01*
X62148033Y-74919062D02*
X62243271Y-74966681D01*
X62243271Y-74966681D02*
X62433747Y-74966681D01*
X62433747Y-74966681D02*
X62528985Y-74919062D01*
X62528985Y-74919062D02*
X62576604Y-74871442D01*
X62576604Y-74871442D02*
X62624223Y-74776204D01*
X62624223Y-74776204D02*
X62624223Y-73966681D01*
X63576604Y-73966681D02*
X63100414Y-73966681D01*
X63100414Y-73966681D02*
X63052795Y-74442871D01*
X63052795Y-74442871D02*
X63100414Y-74395252D01*
X63100414Y-74395252D02*
X63195652Y-74347633D01*
X63195652Y-74347633D02*
X63433747Y-74347633D01*
X63433747Y-74347633D02*
X63528985Y-74395252D01*
X63528985Y-74395252D02*
X63576604Y-74442871D01*
X63576604Y-74442871D02*
X63624223Y-74538109D01*
X63624223Y-74538109D02*
X63624223Y-74776204D01*
X63624223Y-74776204D02*
X63576604Y-74871442D01*
X63576604Y-74871442D02*
X63528985Y-74919062D01*
X63528985Y-74919062D02*
X63433747Y-74966681D01*
X63433747Y-74966681D02*
X63195652Y-74966681D01*
X63195652Y-74966681D02*
X63100414Y-74919062D01*
X63100414Y-74919062D02*
X63052795Y-74871442D01*
X22932838Y-87025329D02*
X22980457Y-86882472D01*
X22980457Y-86882472D02*
X22980457Y-86644377D01*
X22980457Y-86644377D02*
X22932838Y-86549139D01*
X22932838Y-86549139D02*
X22885218Y-86501520D01*
X22885218Y-86501520D02*
X22789980Y-86453901D01*
X22789980Y-86453901D02*
X22694742Y-86453901D01*
X22694742Y-86453901D02*
X22599504Y-86501520D01*
X22599504Y-86501520D02*
X22551885Y-86549139D01*
X22551885Y-86549139D02*
X22504266Y-86644377D01*
X22504266Y-86644377D02*
X22456647Y-86834853D01*
X22456647Y-86834853D02*
X22409028Y-86930091D01*
X22409028Y-86930091D02*
X22361409Y-86977710D01*
X22361409Y-86977710D02*
X22266171Y-87025329D01*
X22266171Y-87025329D02*
X22170933Y-87025329D01*
X22170933Y-87025329D02*
X22075695Y-86977710D01*
X22075695Y-86977710D02*
X22028076Y-86930091D01*
X22028076Y-86930091D02*
X21980457Y-86834853D01*
X21980457Y-86834853D02*
X21980457Y-86596758D01*
X21980457Y-86596758D02*
X22028076Y-86453901D01*
X22980457Y-85453901D02*
X22504266Y-85787234D01*
X22980457Y-86025329D02*
X21980457Y-86025329D01*
X21980457Y-86025329D02*
X21980457Y-85644377D01*
X21980457Y-85644377D02*
X22028076Y-85549139D01*
X22028076Y-85549139D02*
X22075695Y-85501520D01*
X22075695Y-85501520D02*
X22170933Y-85453901D01*
X22170933Y-85453901D02*
X22313790Y-85453901D01*
X22313790Y-85453901D02*
X22409028Y-85501520D01*
X22409028Y-85501520D02*
X22456647Y-85549139D01*
X22456647Y-85549139D02*
X22504266Y-85644377D01*
X22504266Y-85644377D02*
X22504266Y-86025329D01*
X22980457Y-84501520D02*
X22980457Y-85072948D01*
X22980457Y-84787234D02*
X21980457Y-84787234D01*
X21980457Y-84787234D02*
X22123314Y-84882472D01*
X22123314Y-84882472D02*
X22218552Y-84977710D01*
X22218552Y-84977710D02*
X22266171Y-85072948D01*
X22453894Y-89329570D02*
X23168179Y-89329570D01*
X23168179Y-89329570D02*
X23311036Y-89377189D01*
X23311036Y-89377189D02*
X23406275Y-89472427D01*
X23406275Y-89472427D02*
X23453894Y-89615284D01*
X23453894Y-89615284D02*
X23453894Y-89710522D01*
X23453894Y-88329570D02*
X23453894Y-88900998D01*
X23453894Y-88615284D02*
X22453894Y-88615284D01*
X22453894Y-88615284D02*
X22596751Y-88710522D01*
X22596751Y-88710522D02*
X22691989Y-88805760D01*
X22691989Y-88805760D02*
X22739608Y-88900998D01*
X35115920Y-51533869D02*
X35115920Y-52343392D01*
X35115920Y-52343392D02*
X35163539Y-52438630D01*
X35163539Y-52438630D02*
X35211158Y-52486250D01*
X35211158Y-52486250D02*
X35306396Y-52533869D01*
X35306396Y-52533869D02*
X35496872Y-52533869D01*
X35496872Y-52533869D02*
X35592110Y-52486250D01*
X35592110Y-52486250D02*
X35639729Y-52438630D01*
X35639729Y-52438630D02*
X35687348Y-52343392D01*
X35687348Y-52343392D02*
X35687348Y-51533869D01*
X36592110Y-51867202D02*
X36592110Y-52533869D01*
X36354015Y-51486250D02*
X36115920Y-52200535D01*
X36115920Y-52200535D02*
X36734967Y-52200535D01*
X87379283Y-79321442D02*
X87331664Y-79369062D01*
X87331664Y-79369062D02*
X87188807Y-79416681D01*
X87188807Y-79416681D02*
X87093569Y-79416681D01*
X87093569Y-79416681D02*
X86950712Y-79369062D01*
X86950712Y-79369062D02*
X86855474Y-79273823D01*
X86855474Y-79273823D02*
X86807855Y-79178585D01*
X86807855Y-79178585D02*
X86760236Y-78988109D01*
X86760236Y-78988109D02*
X86760236Y-78845252D01*
X86760236Y-78845252D02*
X86807855Y-78654776D01*
X86807855Y-78654776D02*
X86855474Y-78559538D01*
X86855474Y-78559538D02*
X86950712Y-78464300D01*
X86950712Y-78464300D02*
X87093569Y-78416681D01*
X87093569Y-78416681D02*
X87188807Y-78416681D01*
X87188807Y-78416681D02*
X87331664Y-78464300D01*
X87331664Y-78464300D02*
X87379283Y-78511919D01*
X87712617Y-78416681D02*
X88331664Y-78416681D01*
X88331664Y-78416681D02*
X87998331Y-78797633D01*
X87998331Y-78797633D02*
X88141188Y-78797633D01*
X88141188Y-78797633D02*
X88236426Y-78845252D01*
X88236426Y-78845252D02*
X88284045Y-78892871D01*
X88284045Y-78892871D02*
X88331664Y-78988109D01*
X88331664Y-78988109D02*
X88331664Y-79226204D01*
X88331664Y-79226204D02*
X88284045Y-79321442D01*
X88284045Y-79321442D02*
X88236426Y-79369062D01*
X88236426Y-79369062D02*
X88141188Y-79416681D01*
X88141188Y-79416681D02*
X87855474Y-79416681D01*
X87855474Y-79416681D02*
X87760236Y-79369062D01*
X87760236Y-79369062D02*
X87712617Y-79321442D01*
X36007093Y-76214466D02*
X36054713Y-76262085D01*
X36054713Y-76262085D02*
X36102332Y-76404942D01*
X36102332Y-76404942D02*
X36102332Y-76500180D01*
X36102332Y-76500180D02*
X36054713Y-76643037D01*
X36054713Y-76643037D02*
X35959474Y-76738275D01*
X35959474Y-76738275D02*
X35864236Y-76785894D01*
X35864236Y-76785894D02*
X35673760Y-76833513D01*
X35673760Y-76833513D02*
X35530903Y-76833513D01*
X35530903Y-76833513D02*
X35340427Y-76785894D01*
X35340427Y-76785894D02*
X35245189Y-76738275D01*
X35245189Y-76738275D02*
X35149951Y-76643037D01*
X35149951Y-76643037D02*
X35102332Y-76500180D01*
X35102332Y-76500180D02*
X35102332Y-76404942D01*
X35102332Y-76404942D02*
X35149951Y-76262085D01*
X35149951Y-76262085D02*
X35197570Y-76214466D01*
X36102332Y-75262085D02*
X36102332Y-75833513D01*
X36102332Y-75547799D02*
X35102332Y-75547799D01*
X35102332Y-75547799D02*
X35245189Y-75643037D01*
X35245189Y-75643037D02*
X35340427Y-75738275D01*
X35340427Y-75738275D02*
X35388046Y-75833513D01*
X84336426Y-102807306D02*
X84336426Y-101807306D01*
X84336426Y-101807306D02*
X84669759Y-102521591D01*
X84669759Y-102521591D02*
X85003092Y-101807306D01*
X85003092Y-101807306D02*
X85003092Y-102807306D01*
X85431664Y-101902544D02*
X85479283Y-101854925D01*
X85479283Y-101854925D02*
X85574521Y-101807306D01*
X85574521Y-101807306D02*
X85812616Y-101807306D01*
X85812616Y-101807306D02*
X85907854Y-101854925D01*
X85907854Y-101854925D02*
X85955473Y-101902544D01*
X85955473Y-101902544D02*
X86003092Y-101997782D01*
X86003092Y-101997782D02*
X86003092Y-102093020D01*
X86003092Y-102093020D02*
X85955473Y-102235877D01*
X85955473Y-102235877D02*
X85384045Y-102807306D01*
X85384045Y-102807306D02*
X86003092Y-102807306D01*
D11*
G04 #@! TO.C,C2*
X63000637Y-9069675D02*
X63000637Y-369675D01*
X71700637Y-9069675D02*
X63000637Y-9069675D01*
X63000637Y-369675D02*
X71700637Y-369675D01*
X71700637Y-369675D02*
X71700637Y-9069675D01*
G04 #@! TO.C,M3*
X61711575Y-67507175D02*
X61711575Y-63607175D01*
X70691575Y-67507175D02*
X61711575Y-67507175D01*
X61711575Y-63607175D02*
X70691575Y-63607175D01*
X70691575Y-63607175D02*
X70691575Y-67507175D01*
G04 #@! TO.C,M4*
X57844388Y-89675D02*
X61744388Y-89675D01*
X57844388Y-9069675D02*
X57844388Y-89675D01*
X61744388Y-89675D02*
X61744388Y-9069675D01*
X61744388Y-9069675D02*
X57844388Y-9069675D01*
G04 #@! TO.C,M1*
X23502200Y-25397800D02*
X19602200Y-25397800D01*
X23502200Y-18957800D02*
X23502200Y-25397800D01*
X19602200Y-25397800D02*
X19602200Y-18957800D01*
X19602200Y-18957800D02*
X23502200Y-18957800D01*
G04 #@! TO.C,SOL1*
X22610013Y-11223425D02*
X26510013Y-11223425D01*
X22610013Y-17663425D02*
X22610013Y-11223425D01*
X26510013Y-11223425D02*
X26510013Y-17663425D01*
X26510013Y-17663425D02*
X22610013Y-17663425D01*
G04 #@! TO.C,U3*
X27766263Y-25397800D02*
X27766263Y202200D01*
X45746263Y-25397800D02*
X27766263Y-25397800D01*
X27766263Y202200D02*
X45746263Y202200D01*
X45746263Y202200D02*
X45746263Y-25397800D01*
G04 #@! TO.C,U1*
X23899075Y-70514987D02*
X23899075Y-52514987D01*
X41899075Y-70514987D02*
X23899075Y-70514987D01*
X23899075Y-52514987D02*
X41899075Y-52514987D01*
X41899075Y-52514987D02*
X41899075Y-70514987D01*
G04 #@! TO.C,U2*
X47531888Y-10190925D02*
X69211888Y-10190925D01*
X47531888Y-62350925D02*
X47531888Y-10190925D01*
X69211888Y-10190925D02*
X69211888Y-62350925D01*
X69211888Y-62350925D02*
X47531888Y-62350925D01*
G04 #@! TO.C,U6*
X72024075Y-14447800D02*
X93704075Y-14447800D01*
X72024075Y-66647800D02*
X72024075Y-14447800D01*
X93704075Y-14447800D02*
X93704075Y-66647800D01*
X93704075Y-66647800D02*
X72024075Y-66647800D01*
G04 #@! TO.C,U5*
X43664700Y-75411862D02*
X81964700Y-75411862D01*
X43664700Y-102311862D02*
X43664700Y-75411862D01*
X81964700Y-75411862D02*
X81964700Y-102311862D01*
X81964700Y-102311862D02*
X43664700Y-102311862D01*
G04 #@! TO.C,SR1*
X21625638Y-71363425D02*
X21625638Y-100163425D01*
X1125638Y-71363425D02*
X21625638Y-71363425D01*
X21625638Y-100163425D02*
X1125638Y-100163425D01*
X1125638Y-100163425D02*
X1125638Y-71363425D01*
G04 #@! TO.C,J1*
X23899075Y-96296237D02*
X23899075Y-81696237D01*
X35865741Y-96296237D02*
X23899075Y-96296237D01*
X23899075Y-81696237D02*
X35865741Y-81696237D01*
X35865741Y-81696237D02*
X35865741Y-96296237D01*
G04 #@! TO.C,U4*
X46137825Y-51179050D02*
X25617825Y-51179050D01*
X46137825Y-26849050D02*
X46137825Y-51179050D01*
X25617825Y-51179050D02*
X25617825Y-26849050D01*
X25617825Y-26849050D02*
X46137825Y-26849050D01*
G04 #@! TO.C,C3*
X83195950Y-79861862D02*
X91895950Y-79861862D01*
X83195950Y-88561862D02*
X83195950Y-79861862D01*
X91895950Y-79861862D02*
X91895950Y-88561862D01*
X91895950Y-88561862D02*
X83195950Y-88561862D01*
G04 #@! TO.C,C1*
X34747513Y-71697800D02*
X34747513Y-80397800D01*
X26047513Y-71697800D02*
X34747513Y-71697800D01*
X34747513Y-80397800D02*
X26047513Y-80397800D01*
X26047513Y-80397800D02*
X26047513Y-71697800D01*
G04 #@! TO.C,M2*
X87095950Y-101452487D02*
X83195950Y-101452487D01*
X87095950Y-89932487D02*
X87095950Y-101452487D01*
X83195950Y-101452487D02*
X83195950Y-89932487D01*
X83195950Y-89932487D02*
X87095950Y-89932487D01*
G04 #@! TD*
%LPC*%
D12*
G04 #@! TO.C,C2*
X67350637Y-6469675D03*
D13*
X67350637Y-2969675D03*
G04 #@! TD*
D14*
G04 #@! TO.C,M3*
X63661575Y-65557175D03*
D15*
X66201575Y-65557175D03*
X68741575Y-65557175D03*
G04 #@! TD*
D14*
G04 #@! TO.C,M4*
X59794388Y-2039675D03*
D15*
X59794388Y-4579675D03*
X59794388Y-7119675D03*
G04 #@! TD*
D14*
G04 #@! TO.C,M1*
X21552200Y-23447800D03*
D15*
X21552200Y-20907800D03*
G04 #@! TD*
D14*
G04 #@! TO.C,SOL1*
X24560013Y-13173425D03*
D15*
X24560013Y-15713425D03*
G04 #@! TD*
D16*
G04 #@! TO.C,U3*
X43106263Y-17677800D03*
X43106263Y-15137800D03*
X43106263Y-12597800D03*
X43106263Y-10057800D03*
X43106263Y-7517800D03*
X30406263Y-7517800D03*
X30406263Y-17677800D03*
D17*
X43106263Y-22757800D03*
X43106263Y-2437800D03*
X30406263Y-22757800D03*
X30406263Y-2437800D03*
G04 #@! TD*
D16*
G04 #@! TO.C,U1*
X25269075Y-69144987D03*
X27809075Y-69144987D03*
X30349075Y-69144987D03*
X32889075Y-69144987D03*
X35429075Y-69144987D03*
X29839075Y-53884987D03*
D17*
X26299075Y-54914987D03*
X39499075Y-68114987D03*
G04 #@! TD*
D14*
G04 #@! TO.C,U2*
X49481888Y-12140925D03*
D15*
X49481888Y-14680925D03*
X49481888Y-17220925D03*
X49481888Y-19760925D03*
X49481888Y-22300925D03*
X49481888Y-24840925D03*
X49481888Y-27380925D03*
X49481888Y-29920925D03*
X49481888Y-32460925D03*
X49481888Y-35000925D03*
X49481888Y-37540925D03*
X49481888Y-40080925D03*
X49481888Y-42620925D03*
X49481888Y-45160925D03*
X49481888Y-47700925D03*
X49481888Y-50240925D03*
X49481888Y-52780925D03*
X49481888Y-55320925D03*
X49481888Y-57860925D03*
X49481888Y-60400925D03*
D14*
X67261888Y-12140925D03*
D15*
X67261888Y-14680925D03*
X67261888Y-17220925D03*
X67261888Y-19760925D03*
X67261888Y-22300925D03*
X67261888Y-24840925D03*
X67261888Y-27380925D03*
X67261888Y-29920925D03*
X67261888Y-32460925D03*
X67261888Y-35000925D03*
X67261888Y-37540925D03*
X67261888Y-40080925D03*
X67261888Y-42620925D03*
X67261888Y-45160925D03*
X67261888Y-47700925D03*
X67261888Y-50240925D03*
X67261888Y-52780925D03*
X67261888Y-55320925D03*
X67261888Y-57860925D03*
X67261888Y-60400925D03*
G04 #@! TD*
D14*
G04 #@! TO.C,U6*
X73974075Y-16417800D03*
D15*
X73974075Y-18957800D03*
X73974075Y-21497800D03*
X73974075Y-24037800D03*
X73974075Y-26577800D03*
X73974075Y-29117800D03*
X73974075Y-31657800D03*
X73974075Y-34197800D03*
X73974075Y-36737800D03*
X73974075Y-39277800D03*
X73974075Y-41817800D03*
X73974075Y-44357800D03*
X73974075Y-46897800D03*
X73974075Y-49437800D03*
X73974075Y-51977800D03*
X73974075Y-54517800D03*
X73974075Y-57057800D03*
X73974075Y-59597800D03*
X73974075Y-62137800D03*
X73974075Y-64677800D03*
D14*
X91754075Y-16417800D03*
D15*
X91754075Y-18957800D03*
X91754075Y-21497800D03*
X91754075Y-24037800D03*
X91754075Y-26577800D03*
X91754075Y-29117800D03*
X91754075Y-31657800D03*
X91754075Y-34197800D03*
X91754075Y-36737800D03*
X91754075Y-39277800D03*
X91754075Y-41817800D03*
X91754075Y-44357800D03*
X91754075Y-46897800D03*
X91754075Y-49437800D03*
X91754075Y-51977800D03*
X91754075Y-54517800D03*
X91754075Y-57057800D03*
X91754075Y-59597800D03*
X91754075Y-62137800D03*
X91754075Y-64677800D03*
G04 #@! TD*
D16*
G04 #@! TO.C,U5*
X45034700Y-76811862D03*
X45034700Y-79351862D03*
X45034700Y-81891862D03*
X45034700Y-84431862D03*
X45034700Y-86971862D03*
X45034700Y-89511862D03*
X45034700Y-92051862D03*
X45034700Y-94591862D03*
X45034700Y-97131862D03*
X45034700Y-99671862D03*
X57734700Y-76811862D03*
X60274700Y-76811862D03*
X62814700Y-76811862D03*
X65354700Y-76811862D03*
X67894700Y-76811862D03*
X80594700Y-84431862D03*
X80594700Y-86971862D03*
X80594700Y-92051862D03*
X80594700Y-94591862D03*
X80594700Y-97131862D03*
X80594700Y-99671862D03*
D18*
X78054700Y-82961862D03*
X78054700Y-86461862D03*
X78054700Y-89961862D03*
X78054700Y-93461862D03*
X78054700Y-96961862D03*
X78054700Y-100461862D03*
D17*
X79324700Y-78081862D03*
X48844700Y-99671862D03*
G04 #@! TD*
D19*
G04 #@! TO.C,SR1*
X13875638Y-73823425D03*
D16*
X15125638Y-76023425D03*
X12625638Y-76023425D03*
D19*
X8875638Y-73823425D03*
D16*
X10125638Y-76023425D03*
X7625638Y-76023425D03*
X20255638Y-77563425D03*
X14755638Y-84293425D03*
X4225638Y-88303425D03*
X4225638Y-90843425D03*
X4225638Y-93383425D03*
D17*
X19325638Y-97863425D03*
X3425638Y-97863425D03*
X3425638Y-73663425D03*
G04 #@! TD*
D20*
G04 #@! TO.C,J1*
X28315708Y-85996237D03*
G36*
G01*
X29315708Y-93496237D02*
X27315708Y-93496237D01*
G75*
G02*
X26565708Y-92746237I0J750000D01*
G01*
X26565708Y-91246237D01*
G75*
G02*
X27315708Y-90496237I750000J0D01*
G01*
X29315708Y-90496237D01*
G75*
G02*
X30065708Y-91246237I0J-750000D01*
G01*
X30065708Y-92746237D01*
G75*
G02*
X29315708Y-93496237I-750000J0D01*
G01*
G37*
G36*
G01*
X33890708Y-90746237D02*
X32140708Y-90746237D01*
G75*
G02*
X31265708Y-89871237I0J875000D01*
G01*
X31265708Y-88121237D01*
G75*
G02*
X32140708Y-87246237I875000J0D01*
G01*
X33890708Y-87246237D01*
G75*
G02*
X34765708Y-88121237I0J-875000D01*
G01*
X34765708Y-89871237D01*
G75*
G02*
X33890708Y-90746237I-875000J0D01*
G01*
G37*
G04 #@! TD*
D21*
G04 #@! TO.C,U4*
X41995825Y-47269050D03*
X38495825Y-47269050D03*
X33359825Y-47269050D03*
X29859825Y-47269050D03*
D16*
X39687825Y-29489050D03*
X37147825Y-29489050D03*
X34607825Y-29489050D03*
X32067825Y-29489050D03*
D17*
X43497825Y-29489050D03*
X28257825Y-29489050D03*
G04 #@! TD*
D12*
G04 #@! TO.C,C3*
X85795950Y-84211862D03*
D13*
X89295950Y-84211862D03*
G04 #@! TD*
D12*
G04 #@! TO.C,C1*
X30397513Y-74297800D03*
D13*
X30397513Y-77797800D03*
G04 #@! TD*
D14*
G04 #@! TO.C,M2*
X85145950Y-99502487D03*
D15*
X85145950Y-96962487D03*
X85145950Y-94422487D03*
X85145950Y-91882487D03*
G04 #@! TD*
%LPD*%
M02*
