G04 #@! TF.GenerationSoftware,KiCad,Pcbnew,7.0.11+dfsg-1build4*
G04 #@! TF.ProjectId,test_module_unplaced,74657374-5f6d-46f6-9475-6c655f756e70,rev?*
G04 #@! TF.SameCoordinates,Original*
G04 #@! TF.FileFunction,Legend,Bot*
G04 #@! TF.FilePolarity,Positive*
%FSLAX46Y46*%
G04 Gerber Fmt 4.6, Leading zero omitted, Abs format (unit mm)*
%MOMM*%
%LPD*%
G01*
G04 APERTURE LIST*
%ADD10R,1.600000X1.600000*%
%ADD11C,1.600000*%
%ADD12R,1.700000X1.700000*%
%ADD13O,1.700000X1.700000*%
%ADD14C,1.930000*%
%ADD15C,3.200000*%
%ADD16C,2.600000*%
%ADD17C,3.600000*%
%ADD18R,3.500000X3.500000*%
%ADD19C,2.180000*%
G04 APERTURE END LIST*
%LPC*%
D10*
G04 #@! TO.C,C2*
X67350637Y-6469675D03*
D11*
X67350637Y-2969675D03*
G04 #@! TD*
D12*
G04 #@! TO.C,M3*
X63661575Y-65557175D03*
D13*
X66201575Y-65557175D03*
X68741575Y-65557175D03*
G04 #@! TD*
D12*
G04 #@! TO.C,M4*
X59794388Y-2039675D03*
D13*
X59794388Y-4579675D03*
X59794388Y-7119675D03*
G04 #@! TD*
D12*
G04 #@! TO.C,M1*
X21552200Y-23447800D03*
D13*
X21552200Y-20907800D03*
G04 #@! TD*
D12*
G04 #@! TO.C,SOL1*
X24560013Y-13173425D03*
D13*
X24560013Y-15713425D03*
G04 #@! TD*
D14*
G04 #@! TO.C,U3*
X43106263Y-17677800D03*
X43106263Y-15137800D03*
X43106263Y-12597800D03*
X43106263Y-10057800D03*
X43106263Y-7517800D03*
X30406263Y-7517800D03*
X30406263Y-17677800D03*
D15*
X43106263Y-22757800D03*
X43106263Y-2437800D03*
X30406263Y-22757800D03*
X30406263Y-2437800D03*
G04 #@! TD*
D14*
G04 #@! TO.C,U1*
X25269075Y-69144987D03*
X27809075Y-69144987D03*
X30349075Y-69144987D03*
X32889075Y-69144987D03*
X35429075Y-69144987D03*
X29839075Y-53884987D03*
D15*
X26299075Y-54914987D03*
X39499075Y-68114987D03*
G04 #@! TD*
D12*
G04 #@! TO.C,U2*
X49481888Y-12140925D03*
D13*
X49481888Y-14680925D03*
X49481888Y-17220925D03*
X49481888Y-19760925D03*
X49481888Y-22300925D03*
X49481888Y-24840925D03*
X49481888Y-27380925D03*
X49481888Y-29920925D03*
X49481888Y-32460925D03*
X49481888Y-35000925D03*
X49481888Y-37540925D03*
X49481888Y-40080925D03*
X49481888Y-42620925D03*
X49481888Y-45160925D03*
X49481888Y-47700925D03*
X49481888Y-50240925D03*
X49481888Y-52780925D03*
X49481888Y-55320925D03*
X49481888Y-57860925D03*
X49481888Y-60400925D03*
D12*
X67261888Y-12140925D03*
D13*
X67261888Y-14680925D03*
X67261888Y-17220925D03*
X67261888Y-19760925D03*
X67261888Y-22300925D03*
X67261888Y-24840925D03*
X67261888Y-27380925D03*
X67261888Y-29920925D03*
X67261888Y-32460925D03*
X67261888Y-35000925D03*
X67261888Y-37540925D03*
X67261888Y-40080925D03*
X67261888Y-42620925D03*
X67261888Y-45160925D03*
X67261888Y-47700925D03*
X67261888Y-50240925D03*
X67261888Y-52780925D03*
X67261888Y-55320925D03*
X67261888Y-57860925D03*
X67261888Y-60400925D03*
G04 #@! TD*
D12*
G04 #@! TO.C,U6*
X73974075Y-16417800D03*
D13*
X73974075Y-18957800D03*
X73974075Y-21497800D03*
X73974075Y-24037800D03*
X73974075Y-26577800D03*
X73974075Y-29117800D03*
X73974075Y-31657800D03*
X73974075Y-34197800D03*
X73974075Y-36737800D03*
X73974075Y-39277800D03*
X73974075Y-41817800D03*
X73974075Y-44357800D03*
X73974075Y-46897800D03*
X73974075Y-49437800D03*
X73974075Y-51977800D03*
X73974075Y-54517800D03*
X73974075Y-57057800D03*
X73974075Y-59597800D03*
X73974075Y-62137800D03*
X73974075Y-64677800D03*
D12*
X91754075Y-16417800D03*
D13*
X91754075Y-18957800D03*
X91754075Y-21497800D03*
X91754075Y-24037800D03*
X91754075Y-26577800D03*
X91754075Y-29117800D03*
X91754075Y-31657800D03*
X91754075Y-34197800D03*
X91754075Y-36737800D03*
X91754075Y-39277800D03*
X91754075Y-41817800D03*
X91754075Y-44357800D03*
X91754075Y-46897800D03*
X91754075Y-49437800D03*
X91754075Y-51977800D03*
X91754075Y-54517800D03*
X91754075Y-57057800D03*
X91754075Y-59597800D03*
X91754075Y-62137800D03*
X91754075Y-64677800D03*
G04 #@! TD*
D14*
G04 #@! TO.C,U5*
X45034700Y-76811862D03*
X45034700Y-79351862D03*
X45034700Y-81891862D03*
X45034700Y-84431862D03*
X45034700Y-86971862D03*
X45034700Y-89511862D03*
X45034700Y-92051862D03*
X45034700Y-94591862D03*
X45034700Y-97131862D03*
X45034700Y-99671862D03*
X57734700Y-76811862D03*
X60274700Y-76811862D03*
X62814700Y-76811862D03*
X65354700Y-76811862D03*
X67894700Y-76811862D03*
X80594700Y-84431862D03*
X80594700Y-86971862D03*
X80594700Y-92051862D03*
X80594700Y-94591862D03*
X80594700Y-97131862D03*
X80594700Y-99671862D03*
D16*
X78054700Y-82961862D03*
X78054700Y-86461862D03*
X78054700Y-89961862D03*
X78054700Y-93461862D03*
X78054700Y-96961862D03*
X78054700Y-100461862D03*
D15*
X79324700Y-78081862D03*
X48844700Y-99671862D03*
G04 #@! TD*
D17*
G04 #@! TO.C,SR1*
X13875638Y-73823425D03*
D14*
X15125638Y-76023425D03*
X12625638Y-76023425D03*
D17*
X8875638Y-73823425D03*
D14*
X10125638Y-76023425D03*
X7625638Y-76023425D03*
X20255638Y-77563425D03*
X14755638Y-84293425D03*
X4225638Y-88303425D03*
X4225638Y-90843425D03*
X4225638Y-93383425D03*
D15*
X19325638Y-97863425D03*
X3425638Y-97863425D03*
X3425638Y-73663425D03*
G04 #@! TD*
D18*
G04 #@! TO.C,J1*
X28315708Y-85996237D03*
G36*
G01*
X29315708Y-93496237D02*
X27315708Y-93496237D01*
G75*
G02*
X26565708Y-92746237I0J750000D01*
G01*
X26565708Y-91246237D01*
G75*
G02*
X27315708Y-90496237I750000J0D01*
G01*
X29315708Y-90496237D01*
G75*
G02*
X30065708Y-91246237I0J-750000D01*
G01*
X30065708Y-92746237D01*
G75*
G02*
X29315708Y-93496237I-750000J0D01*
G01*
G37*
G36*
G01*
X33890708Y-90746237D02*
X32140708Y-90746237D01*
G75*
G02*
X31265708Y-89871237I0J875000D01*
G01*
X31265708Y-88121237D01*
G75*
G02*
X32140708Y-87246237I875000J0D01*
G01*
X33890708Y-87246237D01*
G75*
G02*
X34765708Y-88121237I0J-875000D01*
G01*
X34765708Y-89871237D01*
G75*
G02*
X33890708Y-90746237I-875000J0D01*
G01*
G37*
G04 #@! TD*
D19*
G04 #@! TO.C,U4*
X41995825Y-47269050D03*
X38495825Y-47269050D03*
X33359825Y-47269050D03*
X29859825Y-47269050D03*
D14*
X39687825Y-29489050D03*
X37147825Y-29489050D03*
X34607825Y-29489050D03*
X32067825Y-29489050D03*
D15*
X43497825Y-29489050D03*
X28257825Y-29489050D03*
G04 #@! TD*
D10*
G04 #@! TO.C,C3*
X85795950Y-84211862D03*
D11*
X89295950Y-84211862D03*
G04 #@! TD*
D10*
G04 #@! TO.C,C1*
X30397513Y-74297800D03*
D11*
X30397513Y-77797800D03*
G04 #@! TD*
D12*
G04 #@! TO.C,M2*
X85145950Y-99502487D03*
D13*
X85145950Y-96962487D03*
X85145950Y-94422487D03*
X85145950Y-91882487D03*
G04 #@! TD*
%LPD*%
M02*
