G04 #@! TF.GenerationSoftware,KiCad,Pcbnew,7.0.11+dfsg-1build4*
G04 #@! TF.ProjectId,test_module_unplaced,74657374-5f6d-46f6-9475-6c655f756e70,rev?*
G04 #@! TF.SameCoordinates,Original*
G04 #@! TF.FileFunction,Soldermask,Bot*
G04 #@! TF.FilePolarity,Negative*
%FSLAX46Y46*%
G04 Gerber Fmt 4.6, Leading zero omitted, Abs format (unit mm)*
%MOMM*%
%LPD*%
G01*
G04 APERTURE LIST*
G04 APERTURE END LIST*
G36*
X78280443Y-99181612D02*
G01*
X78499326Y-99240262D01*
X78704700Y-99336029D01*
X78890324Y-99466004D01*
X79050558Y-99626238D01*
X79180533Y-99811862D01*
X79276300Y-100017236D01*
X79334950Y-100236119D01*
X79354700Y-100461862D01*
X79334950Y-100687605D01*
X79276300Y-100906488D01*
X79180533Y-101111862D01*
X79050558Y-101297486D01*
X78890324Y-101457720D01*
X78704700Y-101587695D01*
X78499326Y-101683462D01*
X78280443Y-101742112D01*
X78054700Y-101761862D01*
X77828957Y-101742112D01*
X77610074Y-101683462D01*
X77404700Y-101587695D01*
X77219076Y-101457720D01*
X77058842Y-101297486D01*
X76928867Y-101111862D01*
X76833100Y-100906488D01*
X76774450Y-100687605D01*
X76754700Y-100461862D01*
X76774450Y-100236119D01*
X76833100Y-100017236D01*
X76928867Y-99811862D01*
X77058842Y-99626238D01*
X77219076Y-99466004D01*
X77404700Y-99336029D01*
X77610074Y-99240262D01*
X77828957Y-99181612D01*
X78054700Y-99161862D01*
X78280443Y-99181612D01*
G37*
G36*
X49094995Y-98091561D02*
G01*
X49339127Y-98150172D01*
X49571085Y-98246252D01*
X49785156Y-98377435D01*
X49976071Y-98540491D01*
X50139127Y-98731406D01*
X50270310Y-98945477D01*
X50366390Y-99177435D01*
X50425001Y-99421567D01*
X50444700Y-99671862D01*
X50425001Y-99922157D01*
X50366390Y-100166289D01*
X50270310Y-100398247D01*
X50139127Y-100612318D01*
X49976071Y-100803233D01*
X49785156Y-100966289D01*
X49571085Y-101097472D01*
X49339127Y-101193552D01*
X49094995Y-101252163D01*
X48844700Y-101271862D01*
X48594405Y-101252163D01*
X48350273Y-101193552D01*
X48118315Y-101097472D01*
X47904244Y-100966289D01*
X47713329Y-100803233D01*
X47550273Y-100612318D01*
X47419090Y-100398247D01*
X47323010Y-100166289D01*
X47264399Y-99922157D01*
X47244700Y-99671862D01*
X47264399Y-99421567D01*
X47323010Y-99177435D01*
X47419090Y-98945477D01*
X47550273Y-98731406D01*
X47713329Y-98540491D01*
X47904244Y-98377435D01*
X48118315Y-98246252D01*
X48350273Y-98150172D01*
X48594405Y-98091561D01*
X48844700Y-98071862D01*
X49094995Y-98091561D01*
G37*
G36*
X45222962Y-98725404D02*
G01*
X45403990Y-98780318D01*
X45570825Y-98869494D01*
X45717058Y-98989504D01*
X45837068Y-99135737D01*
X45926244Y-99302572D01*
X45981158Y-99483600D01*
X45999700Y-99671862D01*
X45981158Y-99860124D01*
X45926244Y-100041152D01*
X45837068Y-100207987D01*
X45717058Y-100354220D01*
X45570825Y-100474230D01*
X45403990Y-100563406D01*
X45222962Y-100618320D01*
X45034700Y-100636862D01*
X44846438Y-100618320D01*
X44665410Y-100563406D01*
X44498575Y-100474230D01*
X44352342Y-100354220D01*
X44232332Y-100207987D01*
X44143156Y-100041152D01*
X44088242Y-99860124D01*
X44069700Y-99671862D01*
X44088242Y-99483600D01*
X44143156Y-99302572D01*
X44232332Y-99135737D01*
X44352342Y-98989504D01*
X44498575Y-98869494D01*
X44665410Y-98780318D01*
X44846438Y-98725404D01*
X45034700Y-98706862D01*
X45222962Y-98725404D01*
G37*
G36*
X80782962Y-98725404D02*
G01*
X80963990Y-98780318D01*
X81130825Y-98869494D01*
X81277058Y-98989504D01*
X81397068Y-99135737D01*
X81486244Y-99302572D01*
X81541158Y-99483600D01*
X81559700Y-99671862D01*
X81541158Y-99860124D01*
X81486244Y-100041152D01*
X81397068Y-100207987D01*
X81277058Y-100354220D01*
X81130825Y-100474230D01*
X80963990Y-100563406D01*
X80782962Y-100618320D01*
X80594700Y-100636862D01*
X80406438Y-100618320D01*
X80225410Y-100563406D01*
X80058575Y-100474230D01*
X79912342Y-100354220D01*
X79792332Y-100207987D01*
X79703156Y-100041152D01*
X79648242Y-99860124D01*
X79629700Y-99671862D01*
X79648242Y-99483600D01*
X79703156Y-99302572D01*
X79792332Y-99135737D01*
X79912342Y-98989504D01*
X80058575Y-98869494D01*
X80225410Y-98780318D01*
X80406438Y-98725404D01*
X80594700Y-98706862D01*
X80782962Y-98725404D01*
G37*
G36*
X85995950Y-100352487D02*
G01*
X84295950Y-100352487D01*
X84295950Y-98652487D01*
X85995950Y-98652487D01*
X85995950Y-100352487D01*
G37*
G36*
X3675933Y-96283124D02*
G01*
X3920065Y-96341735D01*
X4152023Y-96437815D01*
X4366094Y-96568998D01*
X4557009Y-96732054D01*
X4720065Y-96922969D01*
X4851248Y-97137040D01*
X4947328Y-97368998D01*
X5005939Y-97613130D01*
X5025638Y-97863425D01*
X5005939Y-98113720D01*
X4947328Y-98357852D01*
X4851248Y-98589810D01*
X4720065Y-98803881D01*
X4557009Y-98994796D01*
X4366094Y-99157852D01*
X4152023Y-99289035D01*
X3920065Y-99385115D01*
X3675933Y-99443726D01*
X3425638Y-99463425D01*
X3175343Y-99443726D01*
X2931211Y-99385115D01*
X2699253Y-99289035D01*
X2485182Y-99157852D01*
X2294267Y-98994796D01*
X2131211Y-98803881D01*
X2000028Y-98589810D01*
X1903948Y-98357852D01*
X1845337Y-98113720D01*
X1825638Y-97863425D01*
X1845337Y-97613130D01*
X1903948Y-97368998D01*
X2000028Y-97137040D01*
X2131211Y-96922969D01*
X2294267Y-96732054D01*
X2485182Y-96568998D01*
X2699253Y-96437815D01*
X2931211Y-96341735D01*
X3175343Y-96283124D01*
X3425638Y-96263425D01*
X3675933Y-96283124D01*
G37*
G36*
X19575933Y-96283124D02*
G01*
X19820065Y-96341735D01*
X20052023Y-96437815D01*
X20266094Y-96568998D01*
X20457009Y-96732054D01*
X20620065Y-96922969D01*
X20751248Y-97137040D01*
X20847328Y-97368998D01*
X20905939Y-97613130D01*
X20925638Y-97863425D01*
X20905939Y-98113720D01*
X20847328Y-98357852D01*
X20751248Y-98589810D01*
X20620065Y-98803881D01*
X20457009Y-98994796D01*
X20266094Y-99157852D01*
X20052023Y-99289035D01*
X19820065Y-99385115D01*
X19575933Y-99443726D01*
X19325638Y-99463425D01*
X19075343Y-99443726D01*
X18831211Y-99385115D01*
X18599253Y-99289035D01*
X18385182Y-99157852D01*
X18194267Y-98994796D01*
X18031211Y-98803881D01*
X17900028Y-98589810D01*
X17803948Y-98357852D01*
X17745337Y-98113720D01*
X17725638Y-97863425D01*
X17745337Y-97613130D01*
X17803948Y-97368998D01*
X17900028Y-97137040D01*
X18031211Y-96922969D01*
X18194267Y-96732054D01*
X18385182Y-96568998D01*
X18599253Y-96437815D01*
X18831211Y-96341735D01*
X19075343Y-96283124D01*
X19325638Y-96263425D01*
X19575933Y-96283124D01*
G37*
G36*
X78280443Y-95681612D02*
G01*
X78499326Y-95740262D01*
X78704700Y-95836029D01*
X78890324Y-95966004D01*
X79050558Y-96126238D01*
X79180533Y-96311862D01*
X79276300Y-96517236D01*
X79334950Y-96736119D01*
X79354700Y-96961862D01*
X79334950Y-97187605D01*
X79276300Y-97406488D01*
X79180533Y-97611862D01*
X79050558Y-97797486D01*
X78890324Y-97957720D01*
X78704700Y-98087695D01*
X78499326Y-98183462D01*
X78280443Y-98242112D01*
X78054700Y-98261862D01*
X77828957Y-98242112D01*
X77610074Y-98183462D01*
X77404700Y-98087695D01*
X77219076Y-97957720D01*
X77058842Y-97797486D01*
X76928867Y-97611862D01*
X76833100Y-97406488D01*
X76774450Y-97187605D01*
X76754700Y-96961862D01*
X76774450Y-96736119D01*
X76833100Y-96517236D01*
X76928867Y-96311862D01*
X77058842Y-96126238D01*
X77219076Y-95966004D01*
X77404700Y-95836029D01*
X77610074Y-95740262D01*
X77828957Y-95681612D01*
X78054700Y-95661862D01*
X78280443Y-95681612D01*
G37*
G36*
X45222962Y-96185404D02*
G01*
X45403990Y-96240318D01*
X45570825Y-96329494D01*
X45717058Y-96449504D01*
X45837068Y-96595737D01*
X45926244Y-96762572D01*
X45981158Y-96943600D01*
X45999700Y-97131862D01*
X45981158Y-97320124D01*
X45926244Y-97501152D01*
X45837068Y-97667987D01*
X45717058Y-97814220D01*
X45570825Y-97934230D01*
X45403990Y-98023406D01*
X45222962Y-98078320D01*
X45034700Y-98096862D01*
X44846438Y-98078320D01*
X44665410Y-98023406D01*
X44498575Y-97934230D01*
X44352342Y-97814220D01*
X44232332Y-97667987D01*
X44143156Y-97501152D01*
X44088242Y-97320124D01*
X44069700Y-97131862D01*
X44088242Y-96943600D01*
X44143156Y-96762572D01*
X44232332Y-96595737D01*
X44352342Y-96449504D01*
X44498575Y-96329494D01*
X44665410Y-96240318D01*
X44846438Y-96185404D01*
X45034700Y-96166862D01*
X45222962Y-96185404D01*
G37*
G36*
X80782962Y-96185404D02*
G01*
X80963990Y-96240318D01*
X81130825Y-96329494D01*
X81277058Y-96449504D01*
X81397068Y-96595737D01*
X81486244Y-96762572D01*
X81541158Y-96943600D01*
X81559700Y-97131862D01*
X81541158Y-97320124D01*
X81486244Y-97501152D01*
X81397068Y-97667987D01*
X81277058Y-97814220D01*
X81130825Y-97934230D01*
X80963990Y-98023406D01*
X80782962Y-98078320D01*
X80594700Y-98096862D01*
X80406438Y-98078320D01*
X80225410Y-98023406D01*
X80058575Y-97934230D01*
X79912342Y-97814220D01*
X79792332Y-97667987D01*
X79703156Y-97501152D01*
X79648242Y-97320124D01*
X79629700Y-97131862D01*
X79648242Y-96943600D01*
X79703156Y-96762572D01*
X79792332Y-96595737D01*
X79912342Y-96449504D01*
X80058575Y-96329494D01*
X80225410Y-96240318D01*
X80406438Y-96185404D01*
X80594700Y-96166862D01*
X80782962Y-96185404D01*
G37*
G36*
X85408614Y-96154089D02*
G01*
X85570950Y-96226365D01*
X85714711Y-96330814D01*
X85833614Y-96462870D01*
X85922464Y-96616761D01*
X85977375Y-96785762D01*
X85995950Y-96962487D01*
X85977375Y-97139212D01*
X85922464Y-97308213D01*
X85833614Y-97462104D01*
X85714711Y-97594160D01*
X85570950Y-97698609D01*
X85408614Y-97770885D01*
X85234799Y-97807831D01*
X85057101Y-97807831D01*
X84883286Y-97770885D01*
X84720950Y-97698609D01*
X84577189Y-97594160D01*
X84458286Y-97462104D01*
X84369436Y-97308213D01*
X84314525Y-97139212D01*
X84295950Y-96962487D01*
X84314525Y-96785762D01*
X84369436Y-96616761D01*
X84458286Y-96462870D01*
X84577189Y-96330814D01*
X84720950Y-96226365D01*
X84883286Y-96154089D01*
X85057101Y-96117143D01*
X85234799Y-96117143D01*
X85408614Y-96154089D01*
G37*
G36*
X45222962Y-93645404D02*
G01*
X45403990Y-93700318D01*
X45570825Y-93789494D01*
X45717058Y-93909504D01*
X45837068Y-94055737D01*
X45926244Y-94222572D01*
X45981158Y-94403600D01*
X45999700Y-94591862D01*
X45981158Y-94780124D01*
X45926244Y-94961152D01*
X45837068Y-95127987D01*
X45717058Y-95274220D01*
X45570825Y-95394230D01*
X45403990Y-95483406D01*
X45222962Y-95538320D01*
X45034700Y-95556862D01*
X44846438Y-95538320D01*
X44665410Y-95483406D01*
X44498575Y-95394230D01*
X44352342Y-95274220D01*
X44232332Y-95127987D01*
X44143156Y-94961152D01*
X44088242Y-94780124D01*
X44069700Y-94591862D01*
X44088242Y-94403600D01*
X44143156Y-94222572D01*
X44232332Y-94055737D01*
X44352342Y-93909504D01*
X44498575Y-93789494D01*
X44665410Y-93700318D01*
X44846438Y-93645404D01*
X45034700Y-93626862D01*
X45222962Y-93645404D01*
G37*
G36*
X80782962Y-93645404D02*
G01*
X80963990Y-93700318D01*
X81130825Y-93789494D01*
X81277058Y-93909504D01*
X81397068Y-94055737D01*
X81486244Y-94222572D01*
X81541158Y-94403600D01*
X81559700Y-94591862D01*
X81541158Y-94780124D01*
X81486244Y-94961152D01*
X81397068Y-95127987D01*
X81277058Y-95274220D01*
X81130825Y-95394230D01*
X80963990Y-95483406D01*
X80782962Y-95538320D01*
X80594700Y-95556862D01*
X80406438Y-95538320D01*
X80225410Y-95483406D01*
X80058575Y-95394230D01*
X79912342Y-95274220D01*
X79792332Y-95127987D01*
X79703156Y-94961152D01*
X79648242Y-94780124D01*
X79629700Y-94591862D01*
X79648242Y-94403600D01*
X79703156Y-94222572D01*
X79792332Y-94055737D01*
X79912342Y-93909504D01*
X80058575Y-93789494D01*
X80225410Y-93700318D01*
X80406438Y-93645404D01*
X80594700Y-93626862D01*
X80782962Y-93645404D01*
G37*
G36*
X85408614Y-93614089D02*
G01*
X85570950Y-93686365D01*
X85714711Y-93790814D01*
X85833614Y-93922870D01*
X85922464Y-94076761D01*
X85977375Y-94245762D01*
X85995950Y-94422487D01*
X85977375Y-94599212D01*
X85922464Y-94768213D01*
X85833614Y-94922104D01*
X85714711Y-95054160D01*
X85570950Y-95158609D01*
X85408614Y-95230885D01*
X85234799Y-95267831D01*
X85057101Y-95267831D01*
X84883286Y-95230885D01*
X84720950Y-95158609D01*
X84577189Y-95054160D01*
X84458286Y-94922104D01*
X84369436Y-94768213D01*
X84314525Y-94599212D01*
X84295950Y-94422487D01*
X84314525Y-94245762D01*
X84369436Y-94076761D01*
X84458286Y-93922870D01*
X84577189Y-93790814D01*
X84720950Y-93686365D01*
X84883286Y-93614089D01*
X85057101Y-93577143D01*
X85234799Y-93577143D01*
X85408614Y-93614089D01*
G37*
G36*
X78280443Y-92181612D02*
G01*
X78499326Y-92240262D01*
X78704700Y-92336029D01*
X78890324Y-92466004D01*
X79050558Y-92626238D01*
X79180533Y-92811862D01*
X79276300Y-93017236D01*
X79334950Y-93236119D01*
X79354700Y-93461862D01*
X79334950Y-93687605D01*
X79276300Y-93906488D01*
X79180533Y-94111862D01*
X79050558Y-94297486D01*
X78890324Y-94457720D01*
X78704700Y-94587695D01*
X78499326Y-94683462D01*
X78280443Y-94742112D01*
X78054700Y-94761862D01*
X77828957Y-94742112D01*
X77610074Y-94683462D01*
X77404700Y-94587695D01*
X77219076Y-94457720D01*
X77058842Y-94297486D01*
X76928867Y-94111862D01*
X76833100Y-93906488D01*
X76774450Y-93687605D01*
X76754700Y-93461862D01*
X76774450Y-93236119D01*
X76833100Y-93017236D01*
X76928867Y-92811862D01*
X77058842Y-92626238D01*
X77219076Y-92466004D01*
X77404700Y-92336029D01*
X77610074Y-92240262D01*
X77828957Y-92181612D01*
X78054700Y-92161862D01*
X78280443Y-92181612D01*
G37*
G36*
X4413900Y-92436967D02*
G01*
X4594928Y-92491881D01*
X4761763Y-92581057D01*
X4907996Y-92701067D01*
X5028006Y-92847300D01*
X5117182Y-93014135D01*
X5172096Y-93195163D01*
X5190638Y-93383425D01*
X5172096Y-93571687D01*
X5117182Y-93752715D01*
X5028006Y-93919550D01*
X4907996Y-94065783D01*
X4761763Y-94185793D01*
X4594928Y-94274969D01*
X4413900Y-94329883D01*
X4225638Y-94348425D01*
X4037376Y-94329883D01*
X3856348Y-94274969D01*
X3689513Y-94185793D01*
X3543280Y-94065783D01*
X3423270Y-93919550D01*
X3334094Y-93752715D01*
X3279180Y-93571687D01*
X3260638Y-93383425D01*
X3279180Y-93195163D01*
X3334094Y-93014135D01*
X3423270Y-92847300D01*
X3543280Y-92701067D01*
X3689513Y-92581057D01*
X3856348Y-92491881D01*
X4037376Y-92436967D01*
X4225638Y-92418425D01*
X4413900Y-92436967D01*
G37*
G36*
X29467371Y-90511732D02*
G01*
X29476104Y-90514626D01*
X29482530Y-90515350D01*
X29558271Y-90541852D01*
X29632672Y-90566506D01*
X29637843Y-90569695D01*
X29640985Y-90570795D01*
X29713638Y-90616446D01*
X29780885Y-90657925D01*
X29782973Y-90660013D01*
X29783124Y-90660108D01*
X29901836Y-90778820D01*
X29901930Y-90778970D01*
X29904020Y-90781060D01*
X29945518Y-90848338D01*
X29991149Y-90920959D01*
X29992247Y-90924099D01*
X29995439Y-90929273D01*
X30020103Y-91003708D01*
X30046594Y-91079414D01*
X30047317Y-91085835D01*
X30050213Y-91094574D01*
X30065708Y-91246237D01*
X30065708Y-92746237D01*
X30050213Y-92897900D01*
X30047317Y-92906638D01*
X30046594Y-92913059D01*
X30020110Y-92988746D01*
X29995439Y-93063201D01*
X29992247Y-93068375D01*
X29991149Y-93071514D01*
X29945551Y-93144080D01*
X29904020Y-93211414D01*
X29901928Y-93213505D01*
X29901836Y-93213653D01*
X29783124Y-93332365D01*
X29782976Y-93332457D01*
X29780885Y-93334549D01*
X29713551Y-93376080D01*
X29640985Y-93421678D01*
X29637846Y-93422776D01*
X29632672Y-93425968D01*
X29558217Y-93450639D01*
X29482530Y-93477123D01*
X29476109Y-93477846D01*
X29467371Y-93480742D01*
X29315708Y-93496237D01*
X27315708Y-93496237D01*
X27164045Y-93480742D01*
X27155306Y-93477846D01*
X27148885Y-93477123D01*
X27073179Y-93450632D01*
X26998744Y-93425968D01*
X26993570Y-93422776D01*
X26990430Y-93421678D01*
X26917809Y-93376047D01*
X26850531Y-93334549D01*
X26848441Y-93332459D01*
X26848291Y-93332365D01*
X26729579Y-93213653D01*
X26729484Y-93213502D01*
X26727396Y-93211414D01*
X26685917Y-93144167D01*
X26640266Y-93071514D01*
X26639166Y-93068372D01*
X26635977Y-93063201D01*
X26611323Y-92988800D01*
X26584821Y-92913059D01*
X26584097Y-92906633D01*
X26581203Y-92897900D01*
X26565708Y-92746237D01*
X26565708Y-91246237D01*
X26581203Y-91094574D01*
X26584096Y-91085840D01*
X26584821Y-91079414D01*
X26611329Y-91003654D01*
X26635977Y-90929273D01*
X26639165Y-90924103D01*
X26640266Y-90920959D01*
X26685951Y-90848252D01*
X26727396Y-90781060D01*
X26729482Y-90778973D01*
X26729579Y-90778820D01*
X26848291Y-90660108D01*
X26848444Y-90660011D01*
X26850531Y-90657925D01*
X26917723Y-90616480D01*
X26990430Y-90570795D01*
X26993574Y-90569694D01*
X26998744Y-90566506D01*
X27073125Y-90541858D01*
X27148885Y-90515350D01*
X27155311Y-90514625D01*
X27164045Y-90511732D01*
X27315708Y-90496237D01*
X29315708Y-90496237D01*
X29467371Y-90511732D01*
G37*
G36*
X45222962Y-91105404D02*
G01*
X45403990Y-91160318D01*
X45570825Y-91249494D01*
X45717058Y-91369504D01*
X45837068Y-91515737D01*
X45926244Y-91682572D01*
X45981158Y-91863600D01*
X45999700Y-92051862D01*
X45981158Y-92240124D01*
X45926244Y-92421152D01*
X45837068Y-92587987D01*
X45717058Y-92734220D01*
X45570825Y-92854230D01*
X45403990Y-92943406D01*
X45222962Y-92998320D01*
X45034700Y-93016862D01*
X44846438Y-92998320D01*
X44665410Y-92943406D01*
X44498575Y-92854230D01*
X44352342Y-92734220D01*
X44232332Y-92587987D01*
X44143156Y-92421152D01*
X44088242Y-92240124D01*
X44069700Y-92051862D01*
X44088242Y-91863600D01*
X44143156Y-91682572D01*
X44232332Y-91515737D01*
X44352342Y-91369504D01*
X44498575Y-91249494D01*
X44665410Y-91160318D01*
X44846438Y-91105404D01*
X45034700Y-91086862D01*
X45222962Y-91105404D01*
G37*
G36*
X80782962Y-91105404D02*
G01*
X80963990Y-91160318D01*
X81130825Y-91249494D01*
X81277058Y-91369504D01*
X81397068Y-91515737D01*
X81486244Y-91682572D01*
X81541158Y-91863600D01*
X81559700Y-92051862D01*
X81541158Y-92240124D01*
X81486244Y-92421152D01*
X81397068Y-92587987D01*
X81277058Y-92734220D01*
X81130825Y-92854230D01*
X80963990Y-92943406D01*
X80782962Y-92998320D01*
X80594700Y-93016862D01*
X80406438Y-92998320D01*
X80225410Y-92943406D01*
X80058575Y-92854230D01*
X79912342Y-92734220D01*
X79792332Y-92587987D01*
X79703156Y-92421152D01*
X79648242Y-92240124D01*
X79629700Y-92051862D01*
X79648242Y-91863600D01*
X79703156Y-91682572D01*
X79792332Y-91515737D01*
X79912342Y-91369504D01*
X80058575Y-91249494D01*
X80225410Y-91160318D01*
X80406438Y-91105404D01*
X80594700Y-91086862D01*
X80782962Y-91105404D01*
G37*
G36*
X85408614Y-91074089D02*
G01*
X85570950Y-91146365D01*
X85714711Y-91250814D01*
X85833614Y-91382870D01*
X85922464Y-91536761D01*
X85977375Y-91705762D01*
X85995950Y-91882487D01*
X85977375Y-92059212D01*
X85922464Y-92228213D01*
X85833614Y-92382104D01*
X85714711Y-92514160D01*
X85570950Y-92618609D01*
X85408614Y-92690885D01*
X85234799Y-92727831D01*
X85057101Y-92727831D01*
X84883286Y-92690885D01*
X84720950Y-92618609D01*
X84577189Y-92514160D01*
X84458286Y-92382104D01*
X84369436Y-92228213D01*
X84314525Y-92059212D01*
X84295950Y-91882487D01*
X84314525Y-91705762D01*
X84369436Y-91536761D01*
X84458286Y-91382870D01*
X84577189Y-91250814D01*
X84720950Y-91146365D01*
X84883286Y-91074089D01*
X85057101Y-91037143D01*
X85234799Y-91037143D01*
X85408614Y-91074089D01*
G37*
G36*
X4413900Y-89896967D02*
G01*
X4594928Y-89951881D01*
X4761763Y-90041057D01*
X4907996Y-90161067D01*
X5028006Y-90307300D01*
X5117182Y-90474135D01*
X5172096Y-90655163D01*
X5190638Y-90843425D01*
X5172096Y-91031687D01*
X5117182Y-91212715D01*
X5028006Y-91379550D01*
X4907996Y-91525783D01*
X4761763Y-91645793D01*
X4594928Y-91734969D01*
X4413900Y-91789883D01*
X4225638Y-91808425D01*
X4037376Y-91789883D01*
X3856348Y-91734969D01*
X3689513Y-91645793D01*
X3543280Y-91525783D01*
X3423270Y-91379550D01*
X3334094Y-91212715D01*
X3279180Y-91031687D01*
X3260638Y-90843425D01*
X3279180Y-90655163D01*
X3334094Y-90474135D01*
X3423270Y-90307300D01*
X3543280Y-90161067D01*
X3689513Y-90041057D01*
X3856348Y-89951881D01*
X4037376Y-89896967D01*
X4225638Y-89878425D01*
X4413900Y-89896967D01*
G37*
G36*
X78280443Y-88681612D02*
G01*
X78499326Y-88740262D01*
X78704700Y-88836029D01*
X78890324Y-88966004D01*
X79050558Y-89126238D01*
X79180533Y-89311862D01*
X79276300Y-89517236D01*
X79334950Y-89736119D01*
X79354700Y-89961862D01*
X79334950Y-90187605D01*
X79276300Y-90406488D01*
X79180533Y-90611862D01*
X79050558Y-90797486D01*
X78890324Y-90957720D01*
X78704700Y-91087695D01*
X78499326Y-91183462D01*
X78280443Y-91242112D01*
X78054700Y-91261862D01*
X77828957Y-91242112D01*
X77610074Y-91183462D01*
X77404700Y-91087695D01*
X77219076Y-90957720D01*
X77058842Y-90797486D01*
X76928867Y-90611862D01*
X76833100Y-90406488D01*
X76774450Y-90187605D01*
X76754700Y-89961862D01*
X76774450Y-89736119D01*
X76833100Y-89517236D01*
X76928867Y-89311862D01*
X77058842Y-89126238D01*
X77219076Y-88966004D01*
X77404700Y-88836029D01*
X77610074Y-88740262D01*
X77828957Y-88681612D01*
X78054700Y-88661862D01*
X78280443Y-88681612D01*
G37*
G36*
X34008833Y-87254247D02*
G01*
X34017307Y-87256354D01*
X34026909Y-87257110D01*
X34111630Y-87279811D01*
X34192449Y-87299910D01*
X34199278Y-87303297D01*
X34204182Y-87304611D01*
X34286578Y-87346594D01*
X34361955Y-87383978D01*
X34365430Y-87386771D01*
X34367115Y-87387630D01*
X34450344Y-87455027D01*
X34509426Y-87502519D01*
X34556942Y-87561632D01*
X34624314Y-87644829D01*
X34625171Y-87646512D01*
X34627967Y-87649990D01*
X34665368Y-87725402D01*
X34707333Y-87807762D01*
X34708646Y-87812663D01*
X34712035Y-87819496D01*
X34732144Y-87900360D01*
X34754834Y-87985036D01*
X34755589Y-87994632D01*
X34757698Y-88003112D01*
X34765708Y-88121237D01*
X34765708Y-89871237D01*
X34757698Y-89989362D01*
X34755589Y-89997841D01*
X34754834Y-90007438D01*
X34732146Y-90092107D01*
X34712035Y-90172978D01*
X34708645Y-90179811D01*
X34707333Y-90184711D01*
X34665387Y-90267033D01*
X34627967Y-90342484D01*
X34625170Y-90345962D01*
X34624314Y-90347644D01*
X34557052Y-90430705D01*
X34509426Y-90489955D01*
X34450176Y-90537581D01*
X34367115Y-90604843D01*
X34365433Y-90605699D01*
X34361955Y-90608496D01*
X34286504Y-90645916D01*
X34204182Y-90687862D01*
X34199282Y-90689174D01*
X34192449Y-90692564D01*
X34111570Y-90712677D01*
X34026908Y-90735363D01*
X34017313Y-90736118D01*
X34008833Y-90738227D01*
X33890708Y-90746237D01*
X32140708Y-90746237D01*
X32022583Y-90738227D01*
X32014103Y-90736118D01*
X32004506Y-90735363D01*
X31919823Y-90712672D01*
X31838967Y-90692564D01*
X31832134Y-90689175D01*
X31827233Y-90687862D01*
X31744873Y-90645897D01*
X31669461Y-90608496D01*
X31665983Y-90605700D01*
X31664300Y-90604843D01*
X31581103Y-90537471D01*
X31521990Y-90489955D01*
X31474498Y-90430873D01*
X31407101Y-90347644D01*
X31406242Y-90345959D01*
X31403449Y-90342484D01*
X31366065Y-90267107D01*
X31324082Y-90184711D01*
X31322768Y-90179807D01*
X31319381Y-90172978D01*
X31299280Y-90092151D01*
X31276581Y-90007437D01*
X31275825Y-89997836D01*
X31273718Y-89989362D01*
X31265708Y-89871237D01*
X31265708Y-88121237D01*
X31273718Y-88003112D01*
X31275825Y-87994638D01*
X31276581Y-87985035D01*
X31299285Y-87900301D01*
X31319381Y-87819496D01*
X31322767Y-87812667D01*
X31324082Y-87807762D01*
X31366083Y-87725329D01*
X31403449Y-87649990D01*
X31406241Y-87646516D01*
X31407101Y-87644829D01*
X31474608Y-87561464D01*
X31521990Y-87502519D01*
X31580935Y-87455137D01*
X31664300Y-87387630D01*
X31665987Y-87386770D01*
X31669461Y-87383978D01*
X31744800Y-87346612D01*
X31827233Y-87304611D01*
X31832138Y-87303296D01*
X31838967Y-87299910D01*
X31919779Y-87279812D01*
X32004507Y-87257110D01*
X32014109Y-87256354D01*
X32022583Y-87254247D01*
X32140708Y-87246237D01*
X33890708Y-87246237D01*
X34008833Y-87254247D01*
G37*
G36*
X45222962Y-88565404D02*
G01*
X45403990Y-88620318D01*
X45570825Y-88709494D01*
X45717058Y-88829504D01*
X45837068Y-88975737D01*
X45926244Y-89142572D01*
X45981158Y-89323600D01*
X45999700Y-89511862D01*
X45981158Y-89700124D01*
X45926244Y-89881152D01*
X45837068Y-90047987D01*
X45717058Y-90194220D01*
X45570825Y-90314230D01*
X45403990Y-90403406D01*
X45222962Y-90458320D01*
X45034700Y-90476862D01*
X44846438Y-90458320D01*
X44665410Y-90403406D01*
X44498575Y-90314230D01*
X44352342Y-90194220D01*
X44232332Y-90047987D01*
X44143156Y-89881152D01*
X44088242Y-89700124D01*
X44069700Y-89511862D01*
X44088242Y-89323600D01*
X44143156Y-89142572D01*
X44232332Y-88975737D01*
X44352342Y-88829504D01*
X44498575Y-88709494D01*
X44665410Y-88620318D01*
X44846438Y-88565404D01*
X45034700Y-88546862D01*
X45222962Y-88565404D01*
G37*
G36*
X4413900Y-87356967D02*
G01*
X4594928Y-87411881D01*
X4761763Y-87501057D01*
X4907996Y-87621067D01*
X5028006Y-87767300D01*
X5117182Y-87934135D01*
X5172096Y-88115163D01*
X5190638Y-88303425D01*
X5172096Y-88491687D01*
X5117182Y-88672715D01*
X5028006Y-88839550D01*
X4907996Y-88985783D01*
X4761763Y-89105793D01*
X4594928Y-89194969D01*
X4413900Y-89249883D01*
X4225638Y-89268425D01*
X4037376Y-89249883D01*
X3856348Y-89194969D01*
X3689513Y-89105793D01*
X3543280Y-88985783D01*
X3423270Y-88839550D01*
X3334094Y-88672715D01*
X3279180Y-88491687D01*
X3260638Y-88303425D01*
X3279180Y-88115163D01*
X3334094Y-87934135D01*
X3423270Y-87767300D01*
X3543280Y-87621067D01*
X3689513Y-87501057D01*
X3856348Y-87411881D01*
X4037376Y-87356967D01*
X4225638Y-87338425D01*
X4413900Y-87356967D01*
G37*
G36*
X45222962Y-86025404D02*
G01*
X45403990Y-86080318D01*
X45570825Y-86169494D01*
X45717058Y-86289504D01*
X45837068Y-86435737D01*
X45926244Y-86602572D01*
X45981158Y-86783600D01*
X45999700Y-86971862D01*
X45981158Y-87160124D01*
X45926244Y-87341152D01*
X45837068Y-87507987D01*
X45717058Y-87654220D01*
X45570825Y-87774230D01*
X45403990Y-87863406D01*
X45222962Y-87918320D01*
X45034700Y-87936862D01*
X44846438Y-87918320D01*
X44665410Y-87863406D01*
X44498575Y-87774230D01*
X44352342Y-87654220D01*
X44232332Y-87507987D01*
X44143156Y-87341152D01*
X44088242Y-87160124D01*
X44069700Y-86971862D01*
X44088242Y-86783600D01*
X44143156Y-86602572D01*
X44232332Y-86435737D01*
X44352342Y-86289504D01*
X44498575Y-86169494D01*
X44665410Y-86080318D01*
X44846438Y-86025404D01*
X45034700Y-86006862D01*
X45222962Y-86025404D01*
G37*
G36*
X80782962Y-86025404D02*
G01*
X80963990Y-86080318D01*
X81130825Y-86169494D01*
X81277058Y-86289504D01*
X81397068Y-86435737D01*
X81486244Y-86602572D01*
X81541158Y-86783600D01*
X81559700Y-86971862D01*
X81541158Y-87160124D01*
X81486244Y-87341152D01*
X81397068Y-87507987D01*
X81277058Y-87654220D01*
X81130825Y-87774230D01*
X80963990Y-87863406D01*
X80782962Y-87918320D01*
X80594700Y-87936862D01*
X80406438Y-87918320D01*
X80225410Y-87863406D01*
X80058575Y-87774230D01*
X79912342Y-87654220D01*
X79792332Y-87507987D01*
X79703156Y-87341152D01*
X79648242Y-87160124D01*
X79629700Y-86971862D01*
X79648242Y-86783600D01*
X79703156Y-86602572D01*
X79792332Y-86435737D01*
X79912342Y-86289504D01*
X80058575Y-86169494D01*
X80225410Y-86080318D01*
X80406438Y-86025404D01*
X80594700Y-86006862D01*
X80782962Y-86025404D01*
G37*
G36*
X78280443Y-85181612D02*
G01*
X78499326Y-85240262D01*
X78704700Y-85336029D01*
X78890324Y-85466004D01*
X79050558Y-85626238D01*
X79180533Y-85811862D01*
X79276300Y-86017236D01*
X79334950Y-86236119D01*
X79354700Y-86461862D01*
X79334950Y-86687605D01*
X79276300Y-86906488D01*
X79180533Y-87111862D01*
X79050558Y-87297486D01*
X78890324Y-87457720D01*
X78704700Y-87587695D01*
X78499326Y-87683462D01*
X78280443Y-87742112D01*
X78054700Y-87761862D01*
X77828957Y-87742112D01*
X77610074Y-87683462D01*
X77404700Y-87587695D01*
X77219076Y-87457720D01*
X77058842Y-87297486D01*
X76928867Y-87111862D01*
X76833100Y-86906488D01*
X76774450Y-86687605D01*
X76754700Y-86461862D01*
X76774450Y-86236119D01*
X76833100Y-86017236D01*
X76928867Y-85811862D01*
X77058842Y-85626238D01*
X77219076Y-85466004D01*
X77404700Y-85336029D01*
X77610074Y-85240262D01*
X77828957Y-85181612D01*
X78054700Y-85161862D01*
X78280443Y-85181612D01*
G37*
G36*
X30065708Y-87746237D02*
G01*
X26565708Y-87746237D01*
X26565708Y-84246237D01*
X30065708Y-84246237D01*
X30065708Y-87746237D01*
G37*
G36*
X45222962Y-83485404D02*
G01*
X45403990Y-83540318D01*
X45570825Y-83629494D01*
X45717058Y-83749504D01*
X45837068Y-83895737D01*
X45926244Y-84062572D01*
X45981158Y-84243600D01*
X45999700Y-84431862D01*
X45981158Y-84620124D01*
X45926244Y-84801152D01*
X45837068Y-84967987D01*
X45717058Y-85114220D01*
X45570825Y-85234230D01*
X45403990Y-85323406D01*
X45222962Y-85378320D01*
X45034700Y-85396862D01*
X44846438Y-85378320D01*
X44665410Y-85323406D01*
X44498575Y-85234230D01*
X44352342Y-85114220D01*
X44232332Y-84967987D01*
X44143156Y-84801152D01*
X44088242Y-84620124D01*
X44069700Y-84431862D01*
X44088242Y-84243600D01*
X44143156Y-84062572D01*
X44232332Y-83895737D01*
X44352342Y-83749504D01*
X44498575Y-83629494D01*
X44665410Y-83540318D01*
X44846438Y-83485404D01*
X45034700Y-83466862D01*
X45222962Y-83485404D01*
G37*
G36*
X80782962Y-83485404D02*
G01*
X80963990Y-83540318D01*
X81130825Y-83629494D01*
X81277058Y-83749504D01*
X81397068Y-83895737D01*
X81486244Y-84062572D01*
X81541158Y-84243600D01*
X81559700Y-84431862D01*
X81541158Y-84620124D01*
X81486244Y-84801152D01*
X81397068Y-84967987D01*
X81277058Y-85114220D01*
X81130825Y-85234230D01*
X80963990Y-85323406D01*
X80782962Y-85378320D01*
X80594700Y-85396862D01*
X80406438Y-85378320D01*
X80225410Y-85323406D01*
X80058575Y-85234230D01*
X79912342Y-85114220D01*
X79792332Y-84967987D01*
X79703156Y-84801152D01*
X79648242Y-84620124D01*
X79629700Y-84431862D01*
X79648242Y-84243600D01*
X79703156Y-84062572D01*
X79792332Y-83895737D01*
X79912342Y-83749504D01*
X80058575Y-83629494D01*
X80225410Y-83540318D01*
X80406438Y-83485404D01*
X80594700Y-83466862D01*
X80782962Y-83485404D01*
G37*
G36*
X14943900Y-83346967D02*
G01*
X15124928Y-83401881D01*
X15291763Y-83491057D01*
X15437996Y-83611067D01*
X15558006Y-83757300D01*
X15647182Y-83924135D01*
X15702096Y-84105163D01*
X15720638Y-84293425D01*
X15702096Y-84481687D01*
X15647182Y-84662715D01*
X15558006Y-84829550D01*
X15437996Y-84975783D01*
X15291763Y-85095793D01*
X15124928Y-85184969D01*
X14943900Y-85239883D01*
X14755638Y-85258425D01*
X14567376Y-85239883D01*
X14386348Y-85184969D01*
X14219513Y-85095793D01*
X14073280Y-84975783D01*
X13953270Y-84829550D01*
X13864094Y-84662715D01*
X13809180Y-84481687D01*
X13790638Y-84293425D01*
X13809180Y-84105163D01*
X13864094Y-83924135D01*
X13953270Y-83757300D01*
X14073280Y-83611067D01*
X14219513Y-83491057D01*
X14386348Y-83401881D01*
X14567376Y-83346967D01*
X14755638Y-83328425D01*
X14943900Y-83346967D01*
G37*
G36*
X86595950Y-85011862D02*
G01*
X84995950Y-85011862D01*
X84995950Y-83411862D01*
X86595950Y-83411862D01*
X86595950Y-85011862D01*
G37*
G36*
X89337273Y-83416518D02*
G01*
X89379545Y-83416518D01*
X89427232Y-83426654D01*
X89473967Y-83431920D01*
X89507950Y-83443811D01*
X89543079Y-83451278D01*
X89593704Y-83473817D01*
X89643057Y-83491087D01*
X89668745Y-83507228D01*
X89695810Y-83519278D01*
X89746272Y-83555941D01*
X89794742Y-83586397D01*
X89812149Y-83603804D01*
X89831071Y-83617552D01*
X89877851Y-83669506D01*
X89921415Y-83713070D01*
X89931434Y-83729015D01*
X89942942Y-83741796D01*
X89982315Y-83809992D01*
X90016725Y-83864755D01*
X90021020Y-83877032D01*
X90026534Y-83886581D01*
X90054759Y-83973452D01*
X90075892Y-84033845D01*
X90076693Y-84040958D01*
X90078198Y-84045589D01*
X90091842Y-84175404D01*
X90095950Y-84211862D01*
X90091841Y-84248322D01*
X90078198Y-84378134D01*
X90076693Y-84382763D01*
X90075892Y-84389879D01*
X90054755Y-84450284D01*
X90026534Y-84537142D01*
X90021021Y-84546689D01*
X90016725Y-84558969D01*
X89982308Y-84613743D01*
X89942942Y-84681927D01*
X89931436Y-84694705D01*
X89921415Y-84710654D01*
X89877842Y-84754226D01*
X89831071Y-84806171D01*
X89812153Y-84819915D01*
X89794742Y-84837327D01*
X89746262Y-84867788D01*
X89695810Y-84904445D01*
X89668750Y-84916492D01*
X89643057Y-84932637D01*
X89593694Y-84949909D01*
X89543079Y-84972445D01*
X89507955Y-84979910D01*
X89473967Y-84991804D01*
X89427229Y-84997070D01*
X89379545Y-85007206D01*
X89337273Y-85007206D01*
X89295950Y-85011862D01*
X89254627Y-85007206D01*
X89212355Y-85007206D01*
X89164669Y-84997070D01*
X89117933Y-84991804D01*
X89083945Y-84979911D01*
X89048820Y-84972445D01*
X88998201Y-84949908D01*
X88948843Y-84932637D01*
X88923151Y-84916493D01*
X88896089Y-84904445D01*
X88845630Y-84867784D01*
X88797158Y-84837327D01*
X88779749Y-84819918D01*
X88760828Y-84806171D01*
X88714047Y-84754216D01*
X88670485Y-84710654D01*
X88660466Y-84694709D01*
X88648957Y-84681927D01*
X88609579Y-84613723D01*
X88575175Y-84558969D01*
X88570879Y-84546693D01*
X88565365Y-84537142D01*
X88537130Y-84450244D01*
X88516008Y-84389879D01*
X88515206Y-84382768D01*
X88513701Y-84378134D01*
X88500043Y-84248190D01*
X88495950Y-84211862D01*
X88500042Y-84175536D01*
X88513701Y-84045589D01*
X88515207Y-84040953D01*
X88516008Y-84033845D01*
X88537126Y-83973492D01*
X88565365Y-83886581D01*
X88570880Y-83877027D01*
X88575175Y-83864755D01*
X88609572Y-83810011D01*
X88648957Y-83741796D01*
X88660468Y-83729011D01*
X88670485Y-83713070D01*
X88714038Y-83669516D01*
X88760828Y-83617552D01*
X88779752Y-83603802D01*
X88797158Y-83586397D01*
X88845624Y-83555943D01*
X88896090Y-83519278D01*
X88923154Y-83507227D01*
X88948843Y-83491087D01*
X88998192Y-83473818D01*
X89048820Y-83451278D01*
X89083951Y-83443810D01*
X89117933Y-83431920D01*
X89164667Y-83426654D01*
X89212355Y-83416518D01*
X89254627Y-83416518D01*
X89295950Y-83411862D01*
X89337273Y-83416518D01*
G37*
G36*
X78280443Y-81681612D02*
G01*
X78499326Y-81740262D01*
X78704700Y-81836029D01*
X78890324Y-81966004D01*
X79050558Y-82126238D01*
X79180533Y-82311862D01*
X79276300Y-82517236D01*
X79334950Y-82736119D01*
X79354700Y-82961862D01*
X79334950Y-83187605D01*
X79276300Y-83406488D01*
X79180533Y-83611862D01*
X79050558Y-83797486D01*
X78890324Y-83957720D01*
X78704700Y-84087695D01*
X78499326Y-84183462D01*
X78280443Y-84242112D01*
X78054700Y-84261862D01*
X77828957Y-84242112D01*
X77610074Y-84183462D01*
X77404700Y-84087695D01*
X77219076Y-83957720D01*
X77058842Y-83797486D01*
X76928867Y-83611862D01*
X76833100Y-83406488D01*
X76774450Y-83187605D01*
X76754700Y-82961862D01*
X76774450Y-82736119D01*
X76833100Y-82517236D01*
X76928867Y-82311862D01*
X77058842Y-82126238D01*
X77219076Y-81966004D01*
X77404700Y-81836029D01*
X77610074Y-81740262D01*
X77828957Y-81681612D01*
X78054700Y-81661862D01*
X78280443Y-81681612D01*
G37*
G36*
X45222962Y-80945404D02*
G01*
X45403990Y-81000318D01*
X45570825Y-81089494D01*
X45717058Y-81209504D01*
X45837068Y-81355737D01*
X45926244Y-81522572D01*
X45981158Y-81703600D01*
X45999700Y-81891862D01*
X45981158Y-82080124D01*
X45926244Y-82261152D01*
X45837068Y-82427987D01*
X45717058Y-82574220D01*
X45570825Y-82694230D01*
X45403990Y-82783406D01*
X45222962Y-82838320D01*
X45034700Y-82856862D01*
X44846438Y-82838320D01*
X44665410Y-82783406D01*
X44498575Y-82694230D01*
X44352342Y-82574220D01*
X44232332Y-82427987D01*
X44143156Y-82261152D01*
X44088242Y-82080124D01*
X44069700Y-81891862D01*
X44088242Y-81703600D01*
X44143156Y-81522572D01*
X44232332Y-81355737D01*
X44352342Y-81209504D01*
X44498575Y-81089494D01*
X44665410Y-81000318D01*
X44846438Y-80945404D01*
X45034700Y-80926862D01*
X45222962Y-80945404D01*
G37*
G36*
X45222962Y-78405404D02*
G01*
X45403990Y-78460318D01*
X45570825Y-78549494D01*
X45717058Y-78669504D01*
X45837068Y-78815737D01*
X45926244Y-78982572D01*
X45981158Y-79163600D01*
X45999700Y-79351862D01*
X45981158Y-79540124D01*
X45926244Y-79721152D01*
X45837068Y-79887987D01*
X45717058Y-80034220D01*
X45570825Y-80154230D01*
X45403990Y-80243406D01*
X45222962Y-80298320D01*
X45034700Y-80316862D01*
X44846438Y-80298320D01*
X44665410Y-80243406D01*
X44498575Y-80154230D01*
X44352342Y-80034220D01*
X44232332Y-79887987D01*
X44143156Y-79721152D01*
X44088242Y-79540124D01*
X44069700Y-79351862D01*
X44088242Y-79163600D01*
X44143156Y-78982572D01*
X44232332Y-78815737D01*
X44352342Y-78669504D01*
X44498575Y-78549494D01*
X44665410Y-78460318D01*
X44846438Y-78405404D01*
X45034700Y-78386862D01*
X45222962Y-78405404D01*
G37*
G36*
X79574995Y-76501561D02*
G01*
X79819127Y-76560172D01*
X80051085Y-76656252D01*
X80265156Y-76787435D01*
X80456071Y-76950491D01*
X80619127Y-77141406D01*
X80750310Y-77355477D01*
X80846390Y-77587435D01*
X80905001Y-77831567D01*
X80924700Y-78081862D01*
X80905001Y-78332157D01*
X80846390Y-78576289D01*
X80750310Y-78808247D01*
X80619127Y-79022318D01*
X80456071Y-79213233D01*
X80265156Y-79376289D01*
X80051085Y-79507472D01*
X79819127Y-79603552D01*
X79574995Y-79662163D01*
X79324700Y-79681862D01*
X79074405Y-79662163D01*
X78830273Y-79603552D01*
X78598315Y-79507472D01*
X78384244Y-79376289D01*
X78193329Y-79213233D01*
X78030273Y-79022318D01*
X77899090Y-78808247D01*
X77803010Y-78576289D01*
X77744399Y-78332157D01*
X77724700Y-78081862D01*
X77744399Y-77831567D01*
X77803010Y-77587435D01*
X77899090Y-77355477D01*
X78030273Y-77141406D01*
X78193329Y-76950491D01*
X78384244Y-76787435D01*
X78598315Y-76656252D01*
X78830273Y-76560172D01*
X79074405Y-76501561D01*
X79324700Y-76481862D01*
X79574995Y-76501561D01*
G37*
G36*
X30438836Y-77002456D02*
G01*
X30481108Y-77002456D01*
X30528795Y-77012592D01*
X30575530Y-77017858D01*
X30609513Y-77029749D01*
X30644642Y-77037216D01*
X30695267Y-77059755D01*
X30744620Y-77077025D01*
X30770308Y-77093166D01*
X30797373Y-77105216D01*
X30847835Y-77141879D01*
X30896305Y-77172335D01*
X30913712Y-77189742D01*
X30932634Y-77203490D01*
X30979414Y-77255444D01*
X31022978Y-77299008D01*
X31032997Y-77314953D01*
X31044505Y-77327734D01*
X31083878Y-77395930D01*
X31118288Y-77450693D01*
X31122583Y-77462970D01*
X31128097Y-77472519D01*
X31156322Y-77559390D01*
X31177455Y-77619783D01*
X31178256Y-77626896D01*
X31179761Y-77631527D01*
X31193405Y-77761342D01*
X31197513Y-77797800D01*
X31193404Y-77834260D01*
X31179761Y-77964072D01*
X31178256Y-77968701D01*
X31177455Y-77975817D01*
X31156318Y-78036222D01*
X31128097Y-78123080D01*
X31122584Y-78132627D01*
X31118288Y-78144907D01*
X31083871Y-78199681D01*
X31044505Y-78267865D01*
X31032999Y-78280643D01*
X31022978Y-78296592D01*
X30979405Y-78340164D01*
X30932634Y-78392109D01*
X30913716Y-78405853D01*
X30896305Y-78423265D01*
X30847825Y-78453726D01*
X30797373Y-78490383D01*
X30770313Y-78502430D01*
X30744620Y-78518575D01*
X30695257Y-78535847D01*
X30644642Y-78558383D01*
X30609518Y-78565848D01*
X30575530Y-78577742D01*
X30528792Y-78583008D01*
X30481108Y-78593144D01*
X30438836Y-78593144D01*
X30397513Y-78597800D01*
X30356190Y-78593144D01*
X30313918Y-78593144D01*
X30266232Y-78583008D01*
X30219496Y-78577742D01*
X30185508Y-78565849D01*
X30150383Y-78558383D01*
X30099764Y-78535846D01*
X30050406Y-78518575D01*
X30024714Y-78502431D01*
X29997652Y-78490383D01*
X29947193Y-78453722D01*
X29898721Y-78423265D01*
X29881312Y-78405856D01*
X29862391Y-78392109D01*
X29815610Y-78340154D01*
X29772048Y-78296592D01*
X29762029Y-78280647D01*
X29750520Y-78267865D01*
X29711142Y-78199661D01*
X29676738Y-78144907D01*
X29672442Y-78132631D01*
X29666928Y-78123080D01*
X29638693Y-78036182D01*
X29617571Y-77975817D01*
X29616769Y-77968706D01*
X29615264Y-77964072D01*
X29601606Y-77834128D01*
X29597513Y-77797800D01*
X29601605Y-77761474D01*
X29615264Y-77631527D01*
X29616770Y-77626891D01*
X29617571Y-77619783D01*
X29638689Y-77559430D01*
X29666928Y-77472519D01*
X29672443Y-77462965D01*
X29676738Y-77450693D01*
X29711135Y-77395949D01*
X29750520Y-77327734D01*
X29762031Y-77314949D01*
X29772048Y-77299008D01*
X29815601Y-77255454D01*
X29862391Y-77203490D01*
X29881315Y-77189740D01*
X29898721Y-77172335D01*
X29947187Y-77141881D01*
X29997653Y-77105216D01*
X30024717Y-77093165D01*
X30050406Y-77077025D01*
X30099755Y-77059756D01*
X30150383Y-77037216D01*
X30185514Y-77029748D01*
X30219496Y-77017858D01*
X30266230Y-77012592D01*
X30313918Y-77002456D01*
X30356190Y-77002456D01*
X30397513Y-76997800D01*
X30438836Y-77002456D01*
G37*
G36*
X20443900Y-76616967D02*
G01*
X20624928Y-76671881D01*
X20791763Y-76761057D01*
X20937996Y-76881067D01*
X21058006Y-77027300D01*
X21147182Y-77194135D01*
X21202096Y-77375163D01*
X21220638Y-77563425D01*
X21202096Y-77751687D01*
X21147182Y-77932715D01*
X21058006Y-78099550D01*
X20937996Y-78245783D01*
X20791763Y-78365793D01*
X20624928Y-78454969D01*
X20443900Y-78509883D01*
X20255638Y-78528425D01*
X20067376Y-78509883D01*
X19886348Y-78454969D01*
X19719513Y-78365793D01*
X19573280Y-78245783D01*
X19453270Y-78099550D01*
X19364094Y-77932715D01*
X19309180Y-77751687D01*
X19290638Y-77563425D01*
X19309180Y-77375163D01*
X19364094Y-77194135D01*
X19453270Y-77027300D01*
X19573280Y-76881067D01*
X19719513Y-76761057D01*
X19886348Y-76671881D01*
X20067376Y-76616967D01*
X20255638Y-76598425D01*
X20443900Y-76616967D01*
G37*
G36*
X45222962Y-75865404D02*
G01*
X45403990Y-75920318D01*
X45570825Y-76009494D01*
X45717058Y-76129504D01*
X45837068Y-76275737D01*
X45926244Y-76442572D01*
X45981158Y-76623600D01*
X45999700Y-76811862D01*
X45981158Y-77000124D01*
X45926244Y-77181152D01*
X45837068Y-77347987D01*
X45717058Y-77494220D01*
X45570825Y-77614230D01*
X45403990Y-77703406D01*
X45222962Y-77758320D01*
X45034700Y-77776862D01*
X44846438Y-77758320D01*
X44665410Y-77703406D01*
X44498575Y-77614230D01*
X44352342Y-77494220D01*
X44232332Y-77347987D01*
X44143156Y-77181152D01*
X44088242Y-77000124D01*
X44069700Y-76811862D01*
X44088242Y-76623600D01*
X44143156Y-76442572D01*
X44232332Y-76275737D01*
X44352342Y-76129504D01*
X44498575Y-76009494D01*
X44665410Y-75920318D01*
X44846438Y-75865404D01*
X45034700Y-75846862D01*
X45222962Y-75865404D01*
G37*
G36*
X57922962Y-75865404D02*
G01*
X58103990Y-75920318D01*
X58270825Y-76009494D01*
X58417058Y-76129504D01*
X58537068Y-76275737D01*
X58626244Y-76442572D01*
X58681158Y-76623600D01*
X58699700Y-76811862D01*
X58681158Y-77000124D01*
X58626244Y-77181152D01*
X58537068Y-77347987D01*
X58417058Y-77494220D01*
X58270825Y-77614230D01*
X58103990Y-77703406D01*
X57922962Y-77758320D01*
X57734700Y-77776862D01*
X57546438Y-77758320D01*
X57365410Y-77703406D01*
X57198575Y-77614230D01*
X57052342Y-77494220D01*
X56932332Y-77347987D01*
X56843156Y-77181152D01*
X56788242Y-77000124D01*
X56769700Y-76811862D01*
X56788242Y-76623600D01*
X56843156Y-76442572D01*
X56932332Y-76275737D01*
X57052342Y-76129504D01*
X57198575Y-76009494D01*
X57365410Y-75920318D01*
X57546438Y-75865404D01*
X57734700Y-75846862D01*
X57922962Y-75865404D01*
G37*
G36*
X60462962Y-75865404D02*
G01*
X60643990Y-75920318D01*
X60810825Y-76009494D01*
X60957058Y-76129504D01*
X61077068Y-76275737D01*
X61166244Y-76442572D01*
X61221158Y-76623600D01*
X61239700Y-76811862D01*
X61221158Y-77000124D01*
X61166244Y-77181152D01*
X61077068Y-77347987D01*
X60957058Y-77494220D01*
X60810825Y-77614230D01*
X60643990Y-77703406D01*
X60462962Y-77758320D01*
X60274700Y-77776862D01*
X60086438Y-77758320D01*
X59905410Y-77703406D01*
X59738575Y-77614230D01*
X59592342Y-77494220D01*
X59472332Y-77347987D01*
X59383156Y-77181152D01*
X59328242Y-77000124D01*
X59309700Y-76811862D01*
X59328242Y-76623600D01*
X59383156Y-76442572D01*
X59472332Y-76275737D01*
X59592342Y-76129504D01*
X59738575Y-76009494D01*
X59905410Y-75920318D01*
X60086438Y-75865404D01*
X60274700Y-75846862D01*
X60462962Y-75865404D01*
G37*
G36*
X63002962Y-75865404D02*
G01*
X63183990Y-75920318D01*
X63350825Y-76009494D01*
X63497058Y-76129504D01*
X63617068Y-76275737D01*
X63706244Y-76442572D01*
X63761158Y-76623600D01*
X63779700Y-76811862D01*
X63761158Y-77000124D01*
X63706244Y-77181152D01*
X63617068Y-77347987D01*
X63497058Y-77494220D01*
X63350825Y-77614230D01*
X63183990Y-77703406D01*
X63002962Y-77758320D01*
X62814700Y-77776862D01*
X62626438Y-77758320D01*
X62445410Y-77703406D01*
X62278575Y-77614230D01*
X62132342Y-77494220D01*
X62012332Y-77347987D01*
X61923156Y-77181152D01*
X61868242Y-77000124D01*
X61849700Y-76811862D01*
X61868242Y-76623600D01*
X61923156Y-76442572D01*
X62012332Y-76275737D01*
X62132342Y-76129504D01*
X62278575Y-76009494D01*
X62445410Y-75920318D01*
X62626438Y-75865404D01*
X62814700Y-75846862D01*
X63002962Y-75865404D01*
G37*
G36*
X65542962Y-75865404D02*
G01*
X65723990Y-75920318D01*
X65890825Y-76009494D01*
X66037058Y-76129504D01*
X66157068Y-76275737D01*
X66246244Y-76442572D01*
X66301158Y-76623600D01*
X66319700Y-76811862D01*
X66301158Y-77000124D01*
X66246244Y-77181152D01*
X66157068Y-77347987D01*
X66037058Y-77494220D01*
X65890825Y-77614230D01*
X65723990Y-77703406D01*
X65542962Y-77758320D01*
X65354700Y-77776862D01*
X65166438Y-77758320D01*
X64985410Y-77703406D01*
X64818575Y-77614230D01*
X64672342Y-77494220D01*
X64552332Y-77347987D01*
X64463156Y-77181152D01*
X64408242Y-77000124D01*
X64389700Y-76811862D01*
X64408242Y-76623600D01*
X64463156Y-76442572D01*
X64552332Y-76275737D01*
X64672342Y-76129504D01*
X64818575Y-76009494D01*
X64985410Y-75920318D01*
X65166438Y-75865404D01*
X65354700Y-75846862D01*
X65542962Y-75865404D01*
G37*
G36*
X68082962Y-75865404D02*
G01*
X68263990Y-75920318D01*
X68430825Y-76009494D01*
X68577058Y-76129504D01*
X68697068Y-76275737D01*
X68786244Y-76442572D01*
X68841158Y-76623600D01*
X68859700Y-76811862D01*
X68841158Y-77000124D01*
X68786244Y-77181152D01*
X68697068Y-77347987D01*
X68577058Y-77494220D01*
X68430825Y-77614230D01*
X68263990Y-77703406D01*
X68082962Y-77758320D01*
X67894700Y-77776862D01*
X67706438Y-77758320D01*
X67525410Y-77703406D01*
X67358575Y-77614230D01*
X67212342Y-77494220D01*
X67092332Y-77347987D01*
X67003156Y-77181152D01*
X66948242Y-77000124D01*
X66929700Y-76811862D01*
X66948242Y-76623600D01*
X67003156Y-76442572D01*
X67092332Y-76275737D01*
X67212342Y-76129504D01*
X67358575Y-76009494D01*
X67525410Y-75920318D01*
X67706438Y-75865404D01*
X67894700Y-75846862D01*
X68082962Y-75865404D01*
G37*
G36*
X8944220Y-72028458D02*
G01*
X9010152Y-72028458D01*
X9069684Y-72037431D01*
X9131791Y-72041873D01*
X9205422Y-72057890D01*
X9276176Y-72068555D01*
X9328167Y-72084592D01*
X9382714Y-72096458D01*
X9459574Y-72125125D01*
X9533252Y-72147852D01*
X9577030Y-72168934D01*
X9623334Y-72186205D01*
X9701332Y-72228795D01*
X9775638Y-72264579D01*
X9810925Y-72288637D01*
X9848724Y-72309277D01*
X9925535Y-72366777D01*
X9997920Y-72416128D01*
X10024890Y-72441153D01*
X10054299Y-72463168D01*
X10127393Y-72536262D01*
X10195131Y-72599114D01*
X10214370Y-72623239D01*
X10235894Y-72644763D01*
X10302641Y-72733928D01*
X10362868Y-72809449D01*
X10375316Y-72831009D01*
X10389785Y-72850338D01*
X10447505Y-72956045D01*
X10497382Y-73042434D01*
X10504294Y-73060047D01*
X10512857Y-73075728D01*
X10558947Y-73199299D01*
X10595669Y-73292866D01*
X10598544Y-73305463D01*
X10602604Y-73316348D01*
X10634617Y-73463512D01*
X10655533Y-73555149D01*
X10656048Y-73562028D01*
X10657189Y-73567271D01*
X10672812Y-73785727D01*
X10675638Y-73823425D01*
X10672812Y-73861125D01*
X10657189Y-74079578D01*
X10656048Y-74084819D01*
X10655533Y-74091701D01*
X10634613Y-74183357D01*
X10602604Y-74330501D01*
X10598544Y-74341383D01*
X10595669Y-74353984D01*
X10558939Y-74447569D01*
X10512857Y-74571121D01*
X10504296Y-74586799D01*
X10497382Y-74604416D01*
X10447495Y-74690822D01*
X10389785Y-74796511D01*
X10375318Y-74815835D01*
X10362868Y-74837401D01*
X10302628Y-74912939D01*
X10224537Y-75017257D01*
X10247984Y-75070475D01*
X10313900Y-75076967D01*
X10494928Y-75131881D01*
X10661763Y-75221057D01*
X10807996Y-75341067D01*
X10928006Y-75487300D01*
X11017182Y-75654135D01*
X11072096Y-75835163D01*
X11090638Y-76023425D01*
X11072096Y-76211687D01*
X11017182Y-76392715D01*
X10928006Y-76559550D01*
X10807996Y-76705783D01*
X10661763Y-76825793D01*
X10494928Y-76914969D01*
X10313900Y-76969883D01*
X10125638Y-76988425D01*
X9937376Y-76969883D01*
X9756348Y-76914969D01*
X9589513Y-76825793D01*
X9443280Y-76705783D01*
X9323270Y-76559550D01*
X9234094Y-76392715D01*
X9179180Y-76211687D01*
X9160638Y-76023425D01*
X9179180Y-75835163D01*
X9234094Y-75654135D01*
X9234674Y-75653048D01*
X9241152Y-75631696D01*
X9202335Y-75589630D01*
X9131791Y-75604976D01*
X9069697Y-75609416D01*
X9010152Y-75618392D01*
X8944206Y-75618392D01*
X8875638Y-75623296D01*
X8807069Y-75618392D01*
X8741124Y-75618392D01*
X8681579Y-75609417D01*
X8619484Y-75604976D01*
X8548940Y-75589630D01*
X8510123Y-75631697D01*
X8516598Y-75653042D01*
X8517182Y-75654135D01*
X8572096Y-75835163D01*
X8590638Y-76023425D01*
X8572096Y-76211687D01*
X8517182Y-76392715D01*
X8428006Y-76559550D01*
X8307996Y-76705783D01*
X8161763Y-76825793D01*
X7994928Y-76914969D01*
X7813900Y-76969883D01*
X7625638Y-76988425D01*
X7437376Y-76969883D01*
X7256348Y-76914969D01*
X7089513Y-76825793D01*
X6943280Y-76705783D01*
X6823270Y-76559550D01*
X6734094Y-76392715D01*
X6679180Y-76211687D01*
X6660638Y-76023425D01*
X6679180Y-75835163D01*
X6734094Y-75654135D01*
X6823270Y-75487300D01*
X6943280Y-75341067D01*
X7089513Y-75221057D01*
X7256348Y-75131881D01*
X7437376Y-75076967D01*
X7503289Y-75070475D01*
X7526738Y-75017258D01*
X7448625Y-74912910D01*
X7388408Y-74837401D01*
X7375960Y-74815841D01*
X7361490Y-74796511D01*
X7303762Y-74690790D01*
X7253894Y-74604416D01*
X7246982Y-74586805D01*
X7238418Y-74571121D01*
X7192316Y-74447517D01*
X7155607Y-74353984D01*
X7152732Y-74341390D01*
X7148671Y-74330501D01*
X7116641Y-74183264D01*
X7095743Y-74091701D01*
X7095227Y-74084827D01*
X7094086Y-74079578D01*
X7078441Y-73860833D01*
X7075638Y-73823425D01*
X7078441Y-73786019D01*
X7094086Y-73567271D01*
X7095227Y-73562021D01*
X7095743Y-73555149D01*
X7116636Y-73463606D01*
X7148671Y-73316348D01*
X7152733Y-73305456D01*
X7155607Y-73292866D01*
X7192308Y-73199351D01*
X7238418Y-73075728D01*
X7246983Y-73060040D01*
X7253894Y-73042434D01*
X7303752Y-72956076D01*
X7361490Y-72850338D01*
X7375963Y-72831003D01*
X7388408Y-72809449D01*
X7448617Y-72733948D01*
X7515381Y-72644763D01*
X7536909Y-72623234D01*
X7556145Y-72599114D01*
X7623869Y-72536274D01*
X7696976Y-72463168D01*
X7726389Y-72441149D01*
X7753356Y-72416128D01*
X7825729Y-72366784D01*
X7902551Y-72309277D01*
X7940354Y-72288634D01*
X7975638Y-72264579D01*
X8049934Y-72228799D01*
X8127941Y-72186205D01*
X8174249Y-72168932D01*
X8218024Y-72147852D01*
X8291695Y-72125127D01*
X8368561Y-72096458D01*
X8423111Y-72084591D01*
X8475100Y-72068555D01*
X8545850Y-72057890D01*
X8619484Y-72041873D01*
X8681592Y-72037431D01*
X8741124Y-72028458D01*
X8807055Y-72028458D01*
X8875638Y-72023553D01*
X8944220Y-72028458D01*
G37*
G36*
X13944220Y-72028458D02*
G01*
X14010152Y-72028458D01*
X14069684Y-72037431D01*
X14131791Y-72041873D01*
X14205422Y-72057890D01*
X14276176Y-72068555D01*
X14328167Y-72084592D01*
X14382714Y-72096458D01*
X14459574Y-72125125D01*
X14533252Y-72147852D01*
X14577030Y-72168934D01*
X14623334Y-72186205D01*
X14701332Y-72228795D01*
X14775638Y-72264579D01*
X14810925Y-72288637D01*
X14848724Y-72309277D01*
X14925535Y-72366777D01*
X14997920Y-72416128D01*
X15024890Y-72441153D01*
X15054299Y-72463168D01*
X15127393Y-72536262D01*
X15195131Y-72599114D01*
X15214370Y-72623239D01*
X15235894Y-72644763D01*
X15302641Y-72733928D01*
X15362868Y-72809449D01*
X15375316Y-72831009D01*
X15389785Y-72850338D01*
X15447505Y-72956045D01*
X15497382Y-73042434D01*
X15504294Y-73060047D01*
X15512857Y-73075728D01*
X15558947Y-73199299D01*
X15595669Y-73292866D01*
X15598544Y-73305463D01*
X15602604Y-73316348D01*
X15634617Y-73463512D01*
X15655533Y-73555149D01*
X15656048Y-73562028D01*
X15657189Y-73567271D01*
X15672812Y-73785727D01*
X15675638Y-73823425D01*
X15672812Y-73861125D01*
X15657189Y-74079578D01*
X15656048Y-74084819D01*
X15655533Y-74091701D01*
X15634613Y-74183357D01*
X15602604Y-74330501D01*
X15598544Y-74341383D01*
X15595669Y-74353984D01*
X15558939Y-74447569D01*
X15512857Y-74571121D01*
X15504296Y-74586799D01*
X15497382Y-74604416D01*
X15447495Y-74690822D01*
X15389785Y-74796511D01*
X15375318Y-74815835D01*
X15362868Y-74837401D01*
X15302628Y-74912939D01*
X15224537Y-75017257D01*
X15247984Y-75070475D01*
X15313900Y-75076967D01*
X15494928Y-75131881D01*
X15661763Y-75221057D01*
X15807996Y-75341067D01*
X15928006Y-75487300D01*
X16017182Y-75654135D01*
X16072096Y-75835163D01*
X16090638Y-76023425D01*
X16072096Y-76211687D01*
X16017182Y-76392715D01*
X15928006Y-76559550D01*
X15807996Y-76705783D01*
X15661763Y-76825793D01*
X15494928Y-76914969D01*
X15313900Y-76969883D01*
X15125638Y-76988425D01*
X14937376Y-76969883D01*
X14756348Y-76914969D01*
X14589513Y-76825793D01*
X14443280Y-76705783D01*
X14323270Y-76559550D01*
X14234094Y-76392715D01*
X14179180Y-76211687D01*
X14160638Y-76023425D01*
X14179180Y-75835163D01*
X14234094Y-75654135D01*
X14234674Y-75653048D01*
X14241152Y-75631696D01*
X14202335Y-75589630D01*
X14131791Y-75604976D01*
X14069697Y-75609416D01*
X14010152Y-75618392D01*
X13944206Y-75618392D01*
X13875638Y-75623296D01*
X13807069Y-75618392D01*
X13741124Y-75618392D01*
X13681579Y-75609417D01*
X13619484Y-75604976D01*
X13548940Y-75589630D01*
X13510123Y-75631697D01*
X13516598Y-75653042D01*
X13517182Y-75654135D01*
X13572096Y-75835163D01*
X13590638Y-76023425D01*
X13572096Y-76211687D01*
X13517182Y-76392715D01*
X13428006Y-76559550D01*
X13307996Y-76705783D01*
X13161763Y-76825793D01*
X12994928Y-76914969D01*
X12813900Y-76969883D01*
X12625638Y-76988425D01*
X12437376Y-76969883D01*
X12256348Y-76914969D01*
X12089513Y-76825793D01*
X11943280Y-76705783D01*
X11823270Y-76559550D01*
X11734094Y-76392715D01*
X11679180Y-76211687D01*
X11660638Y-76023425D01*
X11679180Y-75835163D01*
X11734094Y-75654135D01*
X11823270Y-75487300D01*
X11943280Y-75341067D01*
X12089513Y-75221057D01*
X12256348Y-75131881D01*
X12437376Y-75076967D01*
X12503289Y-75070475D01*
X12526738Y-75017258D01*
X12448625Y-74912910D01*
X12388408Y-74837401D01*
X12375960Y-74815841D01*
X12361490Y-74796511D01*
X12303762Y-74690790D01*
X12253894Y-74604416D01*
X12246982Y-74586805D01*
X12238418Y-74571121D01*
X12192316Y-74447517D01*
X12155607Y-74353984D01*
X12152732Y-74341390D01*
X12148671Y-74330501D01*
X12116641Y-74183264D01*
X12095743Y-74091701D01*
X12095227Y-74084827D01*
X12094086Y-74079578D01*
X12078441Y-73860833D01*
X12075638Y-73823425D01*
X12078441Y-73786019D01*
X12094086Y-73567271D01*
X12095227Y-73562021D01*
X12095743Y-73555149D01*
X12116636Y-73463606D01*
X12148671Y-73316348D01*
X12152733Y-73305456D01*
X12155607Y-73292866D01*
X12192308Y-73199351D01*
X12238418Y-73075728D01*
X12246983Y-73060040D01*
X12253894Y-73042434D01*
X12303752Y-72956076D01*
X12361490Y-72850338D01*
X12375963Y-72831003D01*
X12388408Y-72809449D01*
X12448617Y-72733948D01*
X12515381Y-72644763D01*
X12536909Y-72623234D01*
X12556145Y-72599114D01*
X12623869Y-72536274D01*
X12696976Y-72463168D01*
X12726389Y-72441149D01*
X12753356Y-72416128D01*
X12825729Y-72366784D01*
X12902551Y-72309277D01*
X12940354Y-72288634D01*
X12975638Y-72264579D01*
X13049934Y-72228799D01*
X13127941Y-72186205D01*
X13174249Y-72168932D01*
X13218024Y-72147852D01*
X13291695Y-72125127D01*
X13368561Y-72096458D01*
X13423111Y-72084591D01*
X13475100Y-72068555D01*
X13545850Y-72057890D01*
X13619484Y-72041873D01*
X13681592Y-72037431D01*
X13741124Y-72028458D01*
X13807055Y-72028458D01*
X13875638Y-72023553D01*
X13944220Y-72028458D01*
G37*
G36*
X3675933Y-72083124D02*
G01*
X3920065Y-72141735D01*
X4152023Y-72237815D01*
X4366094Y-72368998D01*
X4557009Y-72532054D01*
X4720065Y-72722969D01*
X4851248Y-72937040D01*
X4947328Y-73168998D01*
X5005939Y-73413130D01*
X5025638Y-73663425D01*
X5005939Y-73913720D01*
X4947328Y-74157852D01*
X4851248Y-74389810D01*
X4720065Y-74603881D01*
X4557009Y-74794796D01*
X4366094Y-74957852D01*
X4152023Y-75089035D01*
X3920065Y-75185115D01*
X3675933Y-75243726D01*
X3425638Y-75263425D01*
X3175343Y-75243726D01*
X2931211Y-75185115D01*
X2699253Y-75089035D01*
X2485182Y-74957852D01*
X2294267Y-74794796D01*
X2131211Y-74603881D01*
X2000028Y-74389810D01*
X1903948Y-74157852D01*
X1845337Y-73913720D01*
X1825638Y-73663425D01*
X1845337Y-73413130D01*
X1903948Y-73168998D01*
X2000028Y-72937040D01*
X2131211Y-72722969D01*
X2294267Y-72532054D01*
X2485182Y-72368998D01*
X2699253Y-72237815D01*
X2931211Y-72141735D01*
X3175343Y-72083124D01*
X3425638Y-72063425D01*
X3675933Y-72083124D01*
G37*
G36*
X31197513Y-75097800D02*
G01*
X29597513Y-75097800D01*
X29597513Y-73497800D01*
X31197513Y-73497800D01*
X31197513Y-75097800D01*
G37*
G36*
X25457337Y-68198529D02*
G01*
X25638365Y-68253443D01*
X25805200Y-68342619D01*
X25951433Y-68462629D01*
X26071443Y-68608862D01*
X26160619Y-68775697D01*
X26215533Y-68956725D01*
X26234075Y-69144987D01*
X26215533Y-69333249D01*
X26160619Y-69514277D01*
X26071443Y-69681112D01*
X25951433Y-69827345D01*
X25805200Y-69947355D01*
X25638365Y-70036531D01*
X25457337Y-70091445D01*
X25269075Y-70109987D01*
X25080813Y-70091445D01*
X24899785Y-70036531D01*
X24732950Y-69947355D01*
X24586717Y-69827345D01*
X24466707Y-69681112D01*
X24377531Y-69514277D01*
X24322617Y-69333249D01*
X24304075Y-69144987D01*
X24322617Y-68956725D01*
X24377531Y-68775697D01*
X24466707Y-68608862D01*
X24586717Y-68462629D01*
X24732950Y-68342619D01*
X24899785Y-68253443D01*
X25080813Y-68198529D01*
X25269075Y-68179987D01*
X25457337Y-68198529D01*
G37*
G36*
X27997337Y-68198529D02*
G01*
X28178365Y-68253443D01*
X28345200Y-68342619D01*
X28491433Y-68462629D01*
X28611443Y-68608862D01*
X28700619Y-68775697D01*
X28755533Y-68956725D01*
X28774075Y-69144987D01*
X28755533Y-69333249D01*
X28700619Y-69514277D01*
X28611443Y-69681112D01*
X28491433Y-69827345D01*
X28345200Y-69947355D01*
X28178365Y-70036531D01*
X27997337Y-70091445D01*
X27809075Y-70109987D01*
X27620813Y-70091445D01*
X27439785Y-70036531D01*
X27272950Y-69947355D01*
X27126717Y-69827345D01*
X27006707Y-69681112D01*
X26917531Y-69514277D01*
X26862617Y-69333249D01*
X26844075Y-69144987D01*
X26862617Y-68956725D01*
X26917531Y-68775697D01*
X27006707Y-68608862D01*
X27126717Y-68462629D01*
X27272950Y-68342619D01*
X27439785Y-68253443D01*
X27620813Y-68198529D01*
X27809075Y-68179987D01*
X27997337Y-68198529D01*
G37*
G36*
X30537337Y-68198529D02*
G01*
X30718365Y-68253443D01*
X30885200Y-68342619D01*
X31031433Y-68462629D01*
X31151443Y-68608862D01*
X31240619Y-68775697D01*
X31295533Y-68956725D01*
X31314075Y-69144987D01*
X31295533Y-69333249D01*
X31240619Y-69514277D01*
X31151443Y-69681112D01*
X31031433Y-69827345D01*
X30885200Y-69947355D01*
X30718365Y-70036531D01*
X30537337Y-70091445D01*
X30349075Y-70109987D01*
X30160813Y-70091445D01*
X29979785Y-70036531D01*
X29812950Y-69947355D01*
X29666717Y-69827345D01*
X29546707Y-69681112D01*
X29457531Y-69514277D01*
X29402617Y-69333249D01*
X29384075Y-69144987D01*
X29402617Y-68956725D01*
X29457531Y-68775697D01*
X29546707Y-68608862D01*
X29666717Y-68462629D01*
X29812950Y-68342619D01*
X29979785Y-68253443D01*
X30160813Y-68198529D01*
X30349075Y-68179987D01*
X30537337Y-68198529D01*
G37*
G36*
X33077337Y-68198529D02*
G01*
X33258365Y-68253443D01*
X33425200Y-68342619D01*
X33571433Y-68462629D01*
X33691443Y-68608862D01*
X33780619Y-68775697D01*
X33835533Y-68956725D01*
X33854075Y-69144987D01*
X33835533Y-69333249D01*
X33780619Y-69514277D01*
X33691443Y-69681112D01*
X33571433Y-69827345D01*
X33425200Y-69947355D01*
X33258365Y-70036531D01*
X33077337Y-70091445D01*
X32889075Y-70109987D01*
X32700813Y-70091445D01*
X32519785Y-70036531D01*
X32352950Y-69947355D01*
X32206717Y-69827345D01*
X32086707Y-69681112D01*
X31997531Y-69514277D01*
X31942617Y-69333249D01*
X31924075Y-69144987D01*
X31942617Y-68956725D01*
X31997531Y-68775697D01*
X32086707Y-68608862D01*
X32206717Y-68462629D01*
X32352950Y-68342619D01*
X32519785Y-68253443D01*
X32700813Y-68198529D01*
X32889075Y-68179987D01*
X33077337Y-68198529D01*
G37*
G36*
X35617337Y-68198529D02*
G01*
X35798365Y-68253443D01*
X35965200Y-68342619D01*
X36111433Y-68462629D01*
X36231443Y-68608862D01*
X36320619Y-68775697D01*
X36375533Y-68956725D01*
X36394075Y-69144987D01*
X36375533Y-69333249D01*
X36320619Y-69514277D01*
X36231443Y-69681112D01*
X36111433Y-69827345D01*
X35965200Y-69947355D01*
X35798365Y-70036531D01*
X35617337Y-70091445D01*
X35429075Y-70109987D01*
X35240813Y-70091445D01*
X35059785Y-70036531D01*
X34892950Y-69947355D01*
X34746717Y-69827345D01*
X34626707Y-69681112D01*
X34537531Y-69514277D01*
X34482617Y-69333249D01*
X34464075Y-69144987D01*
X34482617Y-68956725D01*
X34537531Y-68775697D01*
X34626707Y-68608862D01*
X34746717Y-68462629D01*
X34892950Y-68342619D01*
X35059785Y-68253443D01*
X35240813Y-68198529D01*
X35429075Y-68179987D01*
X35617337Y-68198529D01*
G37*
G36*
X39749370Y-66534686D02*
G01*
X39993502Y-66593297D01*
X40225460Y-66689377D01*
X40439531Y-66820560D01*
X40630446Y-66983616D01*
X40793502Y-67174531D01*
X40924685Y-67388602D01*
X41020765Y-67620560D01*
X41079376Y-67864692D01*
X41099075Y-68114987D01*
X41079376Y-68365282D01*
X41020765Y-68609414D01*
X40924685Y-68841372D01*
X40793502Y-69055443D01*
X40630446Y-69246358D01*
X40439531Y-69409414D01*
X40225460Y-69540597D01*
X39993502Y-69636677D01*
X39749370Y-69695288D01*
X39499075Y-69714987D01*
X39248780Y-69695288D01*
X39004648Y-69636677D01*
X38772690Y-69540597D01*
X38558619Y-69409414D01*
X38367704Y-69246358D01*
X38204648Y-69055443D01*
X38073465Y-68841372D01*
X37977385Y-68609414D01*
X37918774Y-68365282D01*
X37899075Y-68114987D01*
X37918774Y-67864692D01*
X37977385Y-67620560D01*
X38073465Y-67388602D01*
X38204648Y-67174531D01*
X38367704Y-66983616D01*
X38558619Y-66820560D01*
X38772690Y-66689377D01*
X39004648Y-66593297D01*
X39248780Y-66534686D01*
X39499075Y-66514987D01*
X39749370Y-66534686D01*
G37*
G36*
X64511575Y-66407175D02*
G01*
X62811575Y-66407175D01*
X62811575Y-64707175D01*
X64511575Y-64707175D01*
X64511575Y-66407175D01*
G37*
G36*
X66464239Y-64748777D02*
G01*
X66626575Y-64821053D01*
X66770336Y-64925502D01*
X66889239Y-65057558D01*
X66978089Y-65211449D01*
X67033000Y-65380450D01*
X67051575Y-65557175D01*
X67033000Y-65733900D01*
X66978089Y-65902901D01*
X66889239Y-66056792D01*
X66770336Y-66188848D01*
X66626575Y-66293297D01*
X66464239Y-66365573D01*
X66290424Y-66402519D01*
X66112726Y-66402519D01*
X65938911Y-66365573D01*
X65776575Y-66293297D01*
X65632814Y-66188848D01*
X65513911Y-66056792D01*
X65425061Y-65902901D01*
X65370150Y-65733900D01*
X65351575Y-65557175D01*
X65370150Y-65380450D01*
X65425061Y-65211449D01*
X65513911Y-65057558D01*
X65632814Y-64925502D01*
X65776575Y-64821053D01*
X65938911Y-64748777D01*
X66112726Y-64711831D01*
X66290424Y-64711831D01*
X66464239Y-64748777D01*
G37*
G36*
X69004239Y-64748777D02*
G01*
X69166575Y-64821053D01*
X69310336Y-64925502D01*
X69429239Y-65057558D01*
X69518089Y-65211449D01*
X69573000Y-65380450D01*
X69591575Y-65557175D01*
X69573000Y-65733900D01*
X69518089Y-65902901D01*
X69429239Y-66056792D01*
X69310336Y-66188848D01*
X69166575Y-66293297D01*
X69004239Y-66365573D01*
X68830424Y-66402519D01*
X68652726Y-66402519D01*
X68478911Y-66365573D01*
X68316575Y-66293297D01*
X68172814Y-66188848D01*
X68053911Y-66056792D01*
X67965061Y-65902901D01*
X67910150Y-65733900D01*
X67891575Y-65557175D01*
X67910150Y-65380450D01*
X67965061Y-65211449D01*
X68053911Y-65057558D01*
X68172814Y-64925502D01*
X68316575Y-64821053D01*
X68478911Y-64748777D01*
X68652726Y-64711831D01*
X68830424Y-64711831D01*
X69004239Y-64748777D01*
G37*
G36*
X74236739Y-63869402D02*
G01*
X74399075Y-63941678D01*
X74542836Y-64046127D01*
X74661739Y-64178183D01*
X74750589Y-64332074D01*
X74805500Y-64501075D01*
X74824075Y-64677800D01*
X74805500Y-64854525D01*
X74750589Y-65023526D01*
X74661739Y-65177417D01*
X74542836Y-65309473D01*
X74399075Y-65413922D01*
X74236739Y-65486198D01*
X74062924Y-65523144D01*
X73885226Y-65523144D01*
X73711411Y-65486198D01*
X73549075Y-65413922D01*
X73405314Y-65309473D01*
X73286411Y-65177417D01*
X73197561Y-65023526D01*
X73142650Y-64854525D01*
X73124075Y-64677800D01*
X73142650Y-64501075D01*
X73197561Y-64332074D01*
X73286411Y-64178183D01*
X73405314Y-64046127D01*
X73549075Y-63941678D01*
X73711411Y-63869402D01*
X73885226Y-63832456D01*
X74062924Y-63832456D01*
X74236739Y-63869402D01*
G37*
G36*
X92016739Y-63869402D02*
G01*
X92179075Y-63941678D01*
X92322836Y-64046127D01*
X92441739Y-64178183D01*
X92530589Y-64332074D01*
X92585500Y-64501075D01*
X92604075Y-64677800D01*
X92585500Y-64854525D01*
X92530589Y-65023526D01*
X92441739Y-65177417D01*
X92322836Y-65309473D01*
X92179075Y-65413922D01*
X92016739Y-65486198D01*
X91842924Y-65523144D01*
X91665226Y-65523144D01*
X91491411Y-65486198D01*
X91329075Y-65413922D01*
X91185314Y-65309473D01*
X91066411Y-65177417D01*
X90977561Y-65023526D01*
X90922650Y-64854525D01*
X90904075Y-64677800D01*
X90922650Y-64501075D01*
X90977561Y-64332074D01*
X91066411Y-64178183D01*
X91185314Y-64046127D01*
X91329075Y-63941678D01*
X91491411Y-63869402D01*
X91665226Y-63832456D01*
X91842924Y-63832456D01*
X92016739Y-63869402D01*
G37*
G36*
X74236739Y-61329402D02*
G01*
X74399075Y-61401678D01*
X74542836Y-61506127D01*
X74661739Y-61638183D01*
X74750589Y-61792074D01*
X74805500Y-61961075D01*
X74824075Y-62137800D01*
X74805500Y-62314525D01*
X74750589Y-62483526D01*
X74661739Y-62637417D01*
X74542836Y-62769473D01*
X74399075Y-62873922D01*
X74236739Y-62946198D01*
X74062924Y-62983144D01*
X73885226Y-62983144D01*
X73711411Y-62946198D01*
X73549075Y-62873922D01*
X73405314Y-62769473D01*
X73286411Y-62637417D01*
X73197561Y-62483526D01*
X73142650Y-62314525D01*
X73124075Y-62137800D01*
X73142650Y-61961075D01*
X73197561Y-61792074D01*
X73286411Y-61638183D01*
X73405314Y-61506127D01*
X73549075Y-61401678D01*
X73711411Y-61329402D01*
X73885226Y-61292456D01*
X74062924Y-61292456D01*
X74236739Y-61329402D01*
G37*
G36*
X92016739Y-61329402D02*
G01*
X92179075Y-61401678D01*
X92322836Y-61506127D01*
X92441739Y-61638183D01*
X92530589Y-61792074D01*
X92585500Y-61961075D01*
X92604075Y-62137800D01*
X92585500Y-62314525D01*
X92530589Y-62483526D01*
X92441739Y-62637417D01*
X92322836Y-62769473D01*
X92179075Y-62873922D01*
X92016739Y-62946198D01*
X91842924Y-62983144D01*
X91665226Y-62983144D01*
X91491411Y-62946198D01*
X91329075Y-62873922D01*
X91185314Y-62769473D01*
X91066411Y-62637417D01*
X90977561Y-62483526D01*
X90922650Y-62314525D01*
X90904075Y-62137800D01*
X90922650Y-61961075D01*
X90977561Y-61792074D01*
X91066411Y-61638183D01*
X91185314Y-61506127D01*
X91329075Y-61401678D01*
X91491411Y-61329402D01*
X91665226Y-61292456D01*
X91842924Y-61292456D01*
X92016739Y-61329402D01*
G37*
G36*
X49744552Y-59592527D02*
G01*
X49906888Y-59664803D01*
X50050649Y-59769252D01*
X50169552Y-59901308D01*
X50258402Y-60055199D01*
X50313313Y-60224200D01*
X50331888Y-60400925D01*
X50313313Y-60577650D01*
X50258402Y-60746651D01*
X50169552Y-60900542D01*
X50050649Y-61032598D01*
X49906888Y-61137047D01*
X49744552Y-61209323D01*
X49570737Y-61246269D01*
X49393039Y-61246269D01*
X49219224Y-61209323D01*
X49056888Y-61137047D01*
X48913127Y-61032598D01*
X48794224Y-60900542D01*
X48705374Y-60746651D01*
X48650463Y-60577650D01*
X48631888Y-60400925D01*
X48650463Y-60224200D01*
X48705374Y-60055199D01*
X48794224Y-59901308D01*
X48913127Y-59769252D01*
X49056888Y-59664803D01*
X49219224Y-59592527D01*
X49393039Y-59555581D01*
X49570737Y-59555581D01*
X49744552Y-59592527D01*
G37*
G36*
X67524552Y-59592527D02*
G01*
X67686888Y-59664803D01*
X67830649Y-59769252D01*
X67949552Y-59901308D01*
X68038402Y-60055199D01*
X68093313Y-60224200D01*
X68111888Y-60400925D01*
X68093313Y-60577650D01*
X68038402Y-60746651D01*
X67949552Y-60900542D01*
X67830649Y-61032598D01*
X67686888Y-61137047D01*
X67524552Y-61209323D01*
X67350737Y-61246269D01*
X67173039Y-61246269D01*
X66999224Y-61209323D01*
X66836888Y-61137047D01*
X66693127Y-61032598D01*
X66574224Y-60900542D01*
X66485374Y-60746651D01*
X66430463Y-60577650D01*
X66411888Y-60400925D01*
X66430463Y-60224200D01*
X66485374Y-60055199D01*
X66574224Y-59901308D01*
X66693127Y-59769252D01*
X66836888Y-59664803D01*
X66999224Y-59592527D01*
X67173039Y-59555581D01*
X67350737Y-59555581D01*
X67524552Y-59592527D01*
G37*
G36*
X74236739Y-58789402D02*
G01*
X74399075Y-58861678D01*
X74542836Y-58966127D01*
X74661739Y-59098183D01*
X74750589Y-59252074D01*
X74805500Y-59421075D01*
X74824075Y-59597800D01*
X74805500Y-59774525D01*
X74750589Y-59943526D01*
X74661739Y-60097417D01*
X74542836Y-60229473D01*
X74399075Y-60333922D01*
X74236739Y-60406198D01*
X74062924Y-60443144D01*
X73885226Y-60443144D01*
X73711411Y-60406198D01*
X73549075Y-60333922D01*
X73405314Y-60229473D01*
X73286411Y-60097417D01*
X73197561Y-59943526D01*
X73142650Y-59774525D01*
X73124075Y-59597800D01*
X73142650Y-59421075D01*
X73197561Y-59252074D01*
X73286411Y-59098183D01*
X73405314Y-58966127D01*
X73549075Y-58861678D01*
X73711411Y-58789402D01*
X73885226Y-58752456D01*
X74062924Y-58752456D01*
X74236739Y-58789402D01*
G37*
G36*
X92016739Y-58789402D02*
G01*
X92179075Y-58861678D01*
X92322836Y-58966127D01*
X92441739Y-59098183D01*
X92530589Y-59252074D01*
X92585500Y-59421075D01*
X92604075Y-59597800D01*
X92585500Y-59774525D01*
X92530589Y-59943526D01*
X92441739Y-60097417D01*
X92322836Y-60229473D01*
X92179075Y-60333922D01*
X92016739Y-60406198D01*
X91842924Y-60443144D01*
X91665226Y-60443144D01*
X91491411Y-60406198D01*
X91329075Y-60333922D01*
X91185314Y-60229473D01*
X91066411Y-60097417D01*
X90977561Y-59943526D01*
X90922650Y-59774525D01*
X90904075Y-59597800D01*
X90922650Y-59421075D01*
X90977561Y-59252074D01*
X91066411Y-59098183D01*
X91185314Y-58966127D01*
X91329075Y-58861678D01*
X91491411Y-58789402D01*
X91665226Y-58752456D01*
X91842924Y-58752456D01*
X92016739Y-58789402D01*
G37*
G36*
X49744552Y-57052527D02*
G01*
X49906888Y-57124803D01*
X50050649Y-57229252D01*
X50169552Y-57361308D01*
X50258402Y-57515199D01*
X50313313Y-57684200D01*
X50331888Y-57860925D01*
X50313313Y-58037650D01*
X50258402Y-58206651D01*
X50169552Y-58360542D01*
X50050649Y-58492598D01*
X49906888Y-58597047D01*
X49744552Y-58669323D01*
X49570737Y-58706269D01*
X49393039Y-58706269D01*
X49219224Y-58669323D01*
X49056888Y-58597047D01*
X48913127Y-58492598D01*
X48794224Y-58360542D01*
X48705374Y-58206651D01*
X48650463Y-58037650D01*
X48631888Y-57860925D01*
X48650463Y-57684200D01*
X48705374Y-57515199D01*
X48794224Y-57361308D01*
X48913127Y-57229252D01*
X49056888Y-57124803D01*
X49219224Y-57052527D01*
X49393039Y-57015581D01*
X49570737Y-57015581D01*
X49744552Y-57052527D01*
G37*
G36*
X67524552Y-57052527D02*
G01*
X67686888Y-57124803D01*
X67830649Y-57229252D01*
X67949552Y-57361308D01*
X68038402Y-57515199D01*
X68093313Y-57684200D01*
X68111888Y-57860925D01*
X68093313Y-58037650D01*
X68038402Y-58206651D01*
X67949552Y-58360542D01*
X67830649Y-58492598D01*
X67686888Y-58597047D01*
X67524552Y-58669323D01*
X67350737Y-58706269D01*
X67173039Y-58706269D01*
X66999224Y-58669323D01*
X66836888Y-58597047D01*
X66693127Y-58492598D01*
X66574224Y-58360542D01*
X66485374Y-58206651D01*
X66430463Y-58037650D01*
X66411888Y-57860925D01*
X66430463Y-57684200D01*
X66485374Y-57515199D01*
X66574224Y-57361308D01*
X66693127Y-57229252D01*
X66836888Y-57124803D01*
X66999224Y-57052527D01*
X67173039Y-57015581D01*
X67350737Y-57015581D01*
X67524552Y-57052527D01*
G37*
G36*
X74236739Y-56249402D02*
G01*
X74399075Y-56321678D01*
X74542836Y-56426127D01*
X74661739Y-56558183D01*
X74750589Y-56712074D01*
X74805500Y-56881075D01*
X74824075Y-57057800D01*
X74805500Y-57234525D01*
X74750589Y-57403526D01*
X74661739Y-57557417D01*
X74542836Y-57689473D01*
X74399075Y-57793922D01*
X74236739Y-57866198D01*
X74062924Y-57903144D01*
X73885226Y-57903144D01*
X73711411Y-57866198D01*
X73549075Y-57793922D01*
X73405314Y-57689473D01*
X73286411Y-57557417D01*
X73197561Y-57403526D01*
X73142650Y-57234525D01*
X73124075Y-57057800D01*
X73142650Y-56881075D01*
X73197561Y-56712074D01*
X73286411Y-56558183D01*
X73405314Y-56426127D01*
X73549075Y-56321678D01*
X73711411Y-56249402D01*
X73885226Y-56212456D01*
X74062924Y-56212456D01*
X74236739Y-56249402D01*
G37*
G36*
X92016739Y-56249402D02*
G01*
X92179075Y-56321678D01*
X92322836Y-56426127D01*
X92441739Y-56558183D01*
X92530589Y-56712074D01*
X92585500Y-56881075D01*
X92604075Y-57057800D01*
X92585500Y-57234525D01*
X92530589Y-57403526D01*
X92441739Y-57557417D01*
X92322836Y-57689473D01*
X92179075Y-57793922D01*
X92016739Y-57866198D01*
X91842924Y-57903144D01*
X91665226Y-57903144D01*
X91491411Y-57866198D01*
X91329075Y-57793922D01*
X91185314Y-57689473D01*
X91066411Y-57557417D01*
X90977561Y-57403526D01*
X90922650Y-57234525D01*
X90904075Y-57057800D01*
X90922650Y-56881075D01*
X90977561Y-56712074D01*
X91066411Y-56558183D01*
X91185314Y-56426127D01*
X91329075Y-56321678D01*
X91491411Y-56249402D01*
X91665226Y-56212456D01*
X91842924Y-56212456D01*
X92016739Y-56249402D01*
G37*
G36*
X26549370Y-53334686D02*
G01*
X26793502Y-53393297D01*
X27025460Y-53489377D01*
X27239531Y-53620560D01*
X27430446Y-53783616D01*
X27593502Y-53974531D01*
X27724685Y-54188602D01*
X27820765Y-54420560D01*
X27879376Y-54664692D01*
X27899075Y-54914987D01*
X27879376Y-55165282D01*
X27820765Y-55409414D01*
X27724685Y-55641372D01*
X27593502Y-55855443D01*
X27430446Y-56046358D01*
X27239531Y-56209414D01*
X27025460Y-56340597D01*
X26793502Y-56436677D01*
X26549370Y-56495288D01*
X26299075Y-56514987D01*
X26048780Y-56495288D01*
X25804648Y-56436677D01*
X25572690Y-56340597D01*
X25358619Y-56209414D01*
X25167704Y-56046358D01*
X25004648Y-55855443D01*
X24873465Y-55641372D01*
X24777385Y-55409414D01*
X24718774Y-55165282D01*
X24699075Y-54914987D01*
X24718774Y-54664692D01*
X24777385Y-54420560D01*
X24873465Y-54188602D01*
X25004648Y-53974531D01*
X25167704Y-53783616D01*
X25358619Y-53620560D01*
X25572690Y-53489377D01*
X25804648Y-53393297D01*
X26048780Y-53334686D01*
X26299075Y-53314987D01*
X26549370Y-53334686D01*
G37*
G36*
X49744552Y-54512527D02*
G01*
X49906888Y-54584803D01*
X50050649Y-54689252D01*
X50169552Y-54821308D01*
X50258402Y-54975199D01*
X50313313Y-55144200D01*
X50331888Y-55320925D01*
X50313313Y-55497650D01*
X50258402Y-55666651D01*
X50169552Y-55820542D01*
X50050649Y-55952598D01*
X49906888Y-56057047D01*
X49744552Y-56129323D01*
X49570737Y-56166269D01*
X49393039Y-56166269D01*
X49219224Y-56129323D01*
X49056888Y-56057047D01*
X48913127Y-55952598D01*
X48794224Y-55820542D01*
X48705374Y-55666651D01*
X48650463Y-55497650D01*
X48631888Y-55320925D01*
X48650463Y-55144200D01*
X48705374Y-54975199D01*
X48794224Y-54821308D01*
X48913127Y-54689252D01*
X49056888Y-54584803D01*
X49219224Y-54512527D01*
X49393039Y-54475581D01*
X49570737Y-54475581D01*
X49744552Y-54512527D01*
G37*
G36*
X67524552Y-54512527D02*
G01*
X67686888Y-54584803D01*
X67830649Y-54689252D01*
X67949552Y-54821308D01*
X68038402Y-54975199D01*
X68093313Y-55144200D01*
X68111888Y-55320925D01*
X68093313Y-55497650D01*
X68038402Y-55666651D01*
X67949552Y-55820542D01*
X67830649Y-55952598D01*
X67686888Y-56057047D01*
X67524552Y-56129323D01*
X67350737Y-56166269D01*
X67173039Y-56166269D01*
X66999224Y-56129323D01*
X66836888Y-56057047D01*
X66693127Y-55952598D01*
X66574224Y-55820542D01*
X66485374Y-55666651D01*
X66430463Y-55497650D01*
X66411888Y-55320925D01*
X66430463Y-55144200D01*
X66485374Y-54975199D01*
X66574224Y-54821308D01*
X66693127Y-54689252D01*
X66836888Y-54584803D01*
X66999224Y-54512527D01*
X67173039Y-54475581D01*
X67350737Y-54475581D01*
X67524552Y-54512527D01*
G37*
G36*
X74236739Y-53709402D02*
G01*
X74399075Y-53781678D01*
X74542836Y-53886127D01*
X74661739Y-54018183D01*
X74750589Y-54172074D01*
X74805500Y-54341075D01*
X74824075Y-54517800D01*
X74805500Y-54694525D01*
X74750589Y-54863526D01*
X74661739Y-55017417D01*
X74542836Y-55149473D01*
X74399075Y-55253922D01*
X74236739Y-55326198D01*
X74062924Y-55363144D01*
X73885226Y-55363144D01*
X73711411Y-55326198D01*
X73549075Y-55253922D01*
X73405314Y-55149473D01*
X73286411Y-55017417D01*
X73197561Y-54863526D01*
X73142650Y-54694525D01*
X73124075Y-54517800D01*
X73142650Y-54341075D01*
X73197561Y-54172074D01*
X73286411Y-54018183D01*
X73405314Y-53886127D01*
X73549075Y-53781678D01*
X73711411Y-53709402D01*
X73885226Y-53672456D01*
X74062924Y-53672456D01*
X74236739Y-53709402D01*
G37*
G36*
X92016739Y-53709402D02*
G01*
X92179075Y-53781678D01*
X92322836Y-53886127D01*
X92441739Y-54018183D01*
X92530589Y-54172074D01*
X92585500Y-54341075D01*
X92604075Y-54517800D01*
X92585500Y-54694525D01*
X92530589Y-54863526D01*
X92441739Y-55017417D01*
X92322836Y-55149473D01*
X92179075Y-55253922D01*
X92016739Y-55326198D01*
X91842924Y-55363144D01*
X91665226Y-55363144D01*
X91491411Y-55326198D01*
X91329075Y-55253922D01*
X91185314Y-55149473D01*
X91066411Y-55017417D01*
X90977561Y-54863526D01*
X90922650Y-54694525D01*
X90904075Y-54517800D01*
X90922650Y-54341075D01*
X90977561Y-54172074D01*
X91066411Y-54018183D01*
X91185314Y-53886127D01*
X91329075Y-53781678D01*
X91491411Y-53709402D01*
X91665226Y-53672456D01*
X91842924Y-53672456D01*
X92016739Y-53709402D01*
G37*
G36*
X30027337Y-52938529D02*
G01*
X30208365Y-52993443D01*
X30375200Y-53082619D01*
X30521433Y-53202629D01*
X30641443Y-53348862D01*
X30730619Y-53515697D01*
X30785533Y-53696725D01*
X30804075Y-53884987D01*
X30785533Y-54073249D01*
X30730619Y-54254277D01*
X30641443Y-54421112D01*
X30521433Y-54567345D01*
X30375200Y-54687355D01*
X30208365Y-54776531D01*
X30027337Y-54831445D01*
X29839075Y-54849987D01*
X29650813Y-54831445D01*
X29469785Y-54776531D01*
X29302950Y-54687355D01*
X29156717Y-54567345D01*
X29036707Y-54421112D01*
X28947531Y-54254277D01*
X28892617Y-54073249D01*
X28874075Y-53884987D01*
X28892617Y-53696725D01*
X28947531Y-53515697D01*
X29036707Y-53348862D01*
X29156717Y-53202629D01*
X29302950Y-53082619D01*
X29469785Y-52993443D01*
X29650813Y-52938529D01*
X29839075Y-52919987D01*
X30027337Y-52938529D01*
G37*
G36*
X49744552Y-51972527D02*
G01*
X49906888Y-52044803D01*
X50050649Y-52149252D01*
X50169552Y-52281308D01*
X50258402Y-52435199D01*
X50313313Y-52604200D01*
X50331888Y-52780925D01*
X50313313Y-52957650D01*
X50258402Y-53126651D01*
X50169552Y-53280542D01*
X50050649Y-53412598D01*
X49906888Y-53517047D01*
X49744552Y-53589323D01*
X49570737Y-53626269D01*
X49393039Y-53626269D01*
X49219224Y-53589323D01*
X49056888Y-53517047D01*
X48913127Y-53412598D01*
X48794224Y-53280542D01*
X48705374Y-53126651D01*
X48650463Y-52957650D01*
X48631888Y-52780925D01*
X48650463Y-52604200D01*
X48705374Y-52435199D01*
X48794224Y-52281308D01*
X48913127Y-52149252D01*
X49056888Y-52044803D01*
X49219224Y-51972527D01*
X49393039Y-51935581D01*
X49570737Y-51935581D01*
X49744552Y-51972527D01*
G37*
G36*
X67524552Y-51972527D02*
G01*
X67686888Y-52044803D01*
X67830649Y-52149252D01*
X67949552Y-52281308D01*
X68038402Y-52435199D01*
X68093313Y-52604200D01*
X68111888Y-52780925D01*
X68093313Y-52957650D01*
X68038402Y-53126651D01*
X67949552Y-53280542D01*
X67830649Y-53412598D01*
X67686888Y-53517047D01*
X67524552Y-53589323D01*
X67350737Y-53626269D01*
X67173039Y-53626269D01*
X66999224Y-53589323D01*
X66836888Y-53517047D01*
X66693127Y-53412598D01*
X66574224Y-53280542D01*
X66485374Y-53126651D01*
X66430463Y-52957650D01*
X66411888Y-52780925D01*
X66430463Y-52604200D01*
X66485374Y-52435199D01*
X66574224Y-52281308D01*
X66693127Y-52149252D01*
X66836888Y-52044803D01*
X66999224Y-51972527D01*
X67173039Y-51935581D01*
X67350737Y-51935581D01*
X67524552Y-51972527D01*
G37*
G36*
X74236739Y-51169402D02*
G01*
X74399075Y-51241678D01*
X74542836Y-51346127D01*
X74661739Y-51478183D01*
X74750589Y-51632074D01*
X74805500Y-51801075D01*
X74824075Y-51977800D01*
X74805500Y-52154525D01*
X74750589Y-52323526D01*
X74661739Y-52477417D01*
X74542836Y-52609473D01*
X74399075Y-52713922D01*
X74236739Y-52786198D01*
X74062924Y-52823144D01*
X73885226Y-52823144D01*
X73711411Y-52786198D01*
X73549075Y-52713922D01*
X73405314Y-52609473D01*
X73286411Y-52477417D01*
X73197561Y-52323526D01*
X73142650Y-52154525D01*
X73124075Y-51977800D01*
X73142650Y-51801075D01*
X73197561Y-51632074D01*
X73286411Y-51478183D01*
X73405314Y-51346127D01*
X73549075Y-51241678D01*
X73711411Y-51169402D01*
X73885226Y-51132456D01*
X74062924Y-51132456D01*
X74236739Y-51169402D01*
G37*
G36*
X92016739Y-51169402D02*
G01*
X92179075Y-51241678D01*
X92322836Y-51346127D01*
X92441739Y-51478183D01*
X92530589Y-51632074D01*
X92585500Y-51801075D01*
X92604075Y-51977800D01*
X92585500Y-52154525D01*
X92530589Y-52323526D01*
X92441739Y-52477417D01*
X92322836Y-52609473D01*
X92179075Y-52713922D01*
X92016739Y-52786198D01*
X91842924Y-52823144D01*
X91665226Y-52823144D01*
X91491411Y-52786198D01*
X91329075Y-52713922D01*
X91185314Y-52609473D01*
X91066411Y-52477417D01*
X90977561Y-52323526D01*
X90922650Y-52154525D01*
X90904075Y-51977800D01*
X90922650Y-51801075D01*
X90977561Y-51632074D01*
X91066411Y-51478183D01*
X91185314Y-51346127D01*
X91329075Y-51241678D01*
X91491411Y-51169402D01*
X91665226Y-51132456D01*
X91842924Y-51132456D01*
X92016739Y-51169402D01*
G37*
G36*
X49744552Y-49432527D02*
G01*
X49906888Y-49504803D01*
X50050649Y-49609252D01*
X50169552Y-49741308D01*
X50258402Y-49895199D01*
X50313313Y-50064200D01*
X50331888Y-50240925D01*
X50313313Y-50417650D01*
X50258402Y-50586651D01*
X50169552Y-50740542D01*
X50050649Y-50872598D01*
X49906888Y-50977047D01*
X49744552Y-51049323D01*
X49570737Y-51086269D01*
X49393039Y-51086269D01*
X49219224Y-51049323D01*
X49056888Y-50977047D01*
X48913127Y-50872598D01*
X48794224Y-50740542D01*
X48705374Y-50586651D01*
X48650463Y-50417650D01*
X48631888Y-50240925D01*
X48650463Y-50064200D01*
X48705374Y-49895199D01*
X48794224Y-49741308D01*
X48913127Y-49609252D01*
X49056888Y-49504803D01*
X49219224Y-49432527D01*
X49393039Y-49395581D01*
X49570737Y-49395581D01*
X49744552Y-49432527D01*
G37*
G36*
X67524552Y-49432527D02*
G01*
X67686888Y-49504803D01*
X67830649Y-49609252D01*
X67949552Y-49741308D01*
X68038402Y-49895199D01*
X68093313Y-50064200D01*
X68111888Y-50240925D01*
X68093313Y-50417650D01*
X68038402Y-50586651D01*
X67949552Y-50740542D01*
X67830649Y-50872598D01*
X67686888Y-50977047D01*
X67524552Y-51049323D01*
X67350737Y-51086269D01*
X67173039Y-51086269D01*
X66999224Y-51049323D01*
X66836888Y-50977047D01*
X66693127Y-50872598D01*
X66574224Y-50740542D01*
X66485374Y-50586651D01*
X66430463Y-50417650D01*
X66411888Y-50240925D01*
X66430463Y-50064200D01*
X66485374Y-49895199D01*
X66574224Y-49741308D01*
X66693127Y-49609252D01*
X66836888Y-49504803D01*
X66999224Y-49432527D01*
X67173039Y-49395581D01*
X67350737Y-49395581D01*
X67524552Y-49432527D01*
G37*
G36*
X74236739Y-48629402D02*
G01*
X74399075Y-48701678D01*
X74542836Y-48806127D01*
X74661739Y-48938183D01*
X74750589Y-49092074D01*
X74805500Y-49261075D01*
X74824075Y-49437800D01*
X74805500Y-49614525D01*
X74750589Y-49783526D01*
X74661739Y-49937417D01*
X74542836Y-50069473D01*
X74399075Y-50173922D01*
X74236739Y-50246198D01*
X74062924Y-50283144D01*
X73885226Y-50283144D01*
X73711411Y-50246198D01*
X73549075Y-50173922D01*
X73405314Y-50069473D01*
X73286411Y-49937417D01*
X73197561Y-49783526D01*
X73142650Y-49614525D01*
X73124075Y-49437800D01*
X73142650Y-49261075D01*
X73197561Y-49092074D01*
X73286411Y-48938183D01*
X73405314Y-48806127D01*
X73549075Y-48701678D01*
X73711411Y-48629402D01*
X73885226Y-48592456D01*
X74062924Y-48592456D01*
X74236739Y-48629402D01*
G37*
G36*
X92016739Y-48629402D02*
G01*
X92179075Y-48701678D01*
X92322836Y-48806127D01*
X92441739Y-48938183D01*
X92530589Y-49092074D01*
X92585500Y-49261075D01*
X92604075Y-49437800D01*
X92585500Y-49614525D01*
X92530589Y-49783526D01*
X92441739Y-49937417D01*
X92322836Y-50069473D01*
X92179075Y-50173922D01*
X92016739Y-50246198D01*
X91842924Y-50283144D01*
X91665226Y-50283144D01*
X91491411Y-50246198D01*
X91329075Y-50173922D01*
X91185314Y-50069473D01*
X91066411Y-49937417D01*
X90977561Y-49783526D01*
X90922650Y-49614525D01*
X90904075Y-49437800D01*
X90922650Y-49261075D01*
X90977561Y-49092074D01*
X91066411Y-48938183D01*
X91185314Y-48806127D01*
X91329075Y-48701678D01*
X91491411Y-48629402D01*
X91665226Y-48592456D01*
X91842924Y-48592456D01*
X92016739Y-48629402D01*
G37*
G36*
X49744552Y-46892527D02*
G01*
X49906888Y-46964803D01*
X50050649Y-47069252D01*
X50169552Y-47201308D01*
X50258402Y-47355199D01*
X50313313Y-47524200D01*
X50331888Y-47700925D01*
X50313313Y-47877650D01*
X50258402Y-48046651D01*
X50169552Y-48200542D01*
X50050649Y-48332598D01*
X49906888Y-48437047D01*
X49744552Y-48509323D01*
X49570737Y-48546269D01*
X49393039Y-48546269D01*
X49219224Y-48509323D01*
X49056888Y-48437047D01*
X48913127Y-48332598D01*
X48794224Y-48200542D01*
X48705374Y-48046651D01*
X48650463Y-47877650D01*
X48631888Y-47700925D01*
X48650463Y-47524200D01*
X48705374Y-47355199D01*
X48794224Y-47201308D01*
X48913127Y-47069252D01*
X49056888Y-46964803D01*
X49219224Y-46892527D01*
X49393039Y-46855581D01*
X49570737Y-46855581D01*
X49744552Y-46892527D01*
G37*
G36*
X67524552Y-46892527D02*
G01*
X67686888Y-46964803D01*
X67830649Y-47069252D01*
X67949552Y-47201308D01*
X68038402Y-47355199D01*
X68093313Y-47524200D01*
X68111888Y-47700925D01*
X68093313Y-47877650D01*
X68038402Y-48046651D01*
X67949552Y-48200542D01*
X67830649Y-48332598D01*
X67686888Y-48437047D01*
X67524552Y-48509323D01*
X67350737Y-48546269D01*
X67173039Y-48546269D01*
X66999224Y-48509323D01*
X66836888Y-48437047D01*
X66693127Y-48332598D01*
X66574224Y-48200542D01*
X66485374Y-48046651D01*
X66430463Y-47877650D01*
X66411888Y-47700925D01*
X66430463Y-47524200D01*
X66485374Y-47355199D01*
X66574224Y-47201308D01*
X66693127Y-47069252D01*
X66836888Y-46964803D01*
X66999224Y-46892527D01*
X67173039Y-46855581D01*
X67350737Y-46855581D01*
X67524552Y-46892527D01*
G37*
G36*
X30158118Y-46220660D02*
G01*
X30345680Y-46293322D01*
X30516697Y-46399211D01*
X30665345Y-46534722D01*
X30786562Y-46695239D01*
X30876220Y-46875297D01*
X30931266Y-47068763D01*
X30949825Y-47269050D01*
X30931266Y-47469337D01*
X30876220Y-47662803D01*
X30786562Y-47842861D01*
X30665345Y-48003378D01*
X30516697Y-48138889D01*
X30345680Y-48244778D01*
X30158118Y-48317440D01*
X29960398Y-48354400D01*
X29759252Y-48354400D01*
X29561532Y-48317440D01*
X29373970Y-48244778D01*
X29202953Y-48138889D01*
X29054305Y-48003378D01*
X28933088Y-47842861D01*
X28843430Y-47662803D01*
X28788384Y-47469337D01*
X28769825Y-47269050D01*
X28788384Y-47068763D01*
X28843430Y-46875297D01*
X28933088Y-46695239D01*
X29054305Y-46534722D01*
X29202953Y-46399211D01*
X29373970Y-46293322D01*
X29561532Y-46220660D01*
X29759252Y-46183700D01*
X29960398Y-46183700D01*
X30158118Y-46220660D01*
G37*
G36*
X33658118Y-46220660D02*
G01*
X33845680Y-46293322D01*
X34016697Y-46399211D01*
X34165345Y-46534722D01*
X34286562Y-46695239D01*
X34376220Y-46875297D01*
X34431266Y-47068763D01*
X34449825Y-47269050D01*
X34431266Y-47469337D01*
X34376220Y-47662803D01*
X34286562Y-47842861D01*
X34165345Y-48003378D01*
X34016697Y-48138889D01*
X33845680Y-48244778D01*
X33658118Y-48317440D01*
X33460398Y-48354400D01*
X33259252Y-48354400D01*
X33061532Y-48317440D01*
X32873970Y-48244778D01*
X32702953Y-48138889D01*
X32554305Y-48003378D01*
X32433088Y-47842861D01*
X32343430Y-47662803D01*
X32288384Y-47469337D01*
X32269825Y-47269050D01*
X32288384Y-47068763D01*
X32343430Y-46875297D01*
X32433088Y-46695239D01*
X32554305Y-46534722D01*
X32702953Y-46399211D01*
X32873970Y-46293322D01*
X33061532Y-46220660D01*
X33259252Y-46183700D01*
X33460398Y-46183700D01*
X33658118Y-46220660D01*
G37*
G36*
X38794118Y-46220660D02*
G01*
X38981680Y-46293322D01*
X39152697Y-46399211D01*
X39301345Y-46534722D01*
X39422562Y-46695239D01*
X39512220Y-46875297D01*
X39567266Y-47068763D01*
X39585825Y-47269050D01*
X39567266Y-47469337D01*
X39512220Y-47662803D01*
X39422562Y-47842861D01*
X39301345Y-48003378D01*
X39152697Y-48138889D01*
X38981680Y-48244778D01*
X38794118Y-48317440D01*
X38596398Y-48354400D01*
X38395252Y-48354400D01*
X38197532Y-48317440D01*
X38009970Y-48244778D01*
X37838953Y-48138889D01*
X37690305Y-48003378D01*
X37569088Y-47842861D01*
X37479430Y-47662803D01*
X37424384Y-47469337D01*
X37405825Y-47269050D01*
X37424384Y-47068763D01*
X37479430Y-46875297D01*
X37569088Y-46695239D01*
X37690305Y-46534722D01*
X37838953Y-46399211D01*
X38009970Y-46293322D01*
X38197532Y-46220660D01*
X38395252Y-46183700D01*
X38596398Y-46183700D01*
X38794118Y-46220660D01*
G37*
G36*
X42294118Y-46220660D02*
G01*
X42481680Y-46293322D01*
X42652697Y-46399211D01*
X42801345Y-46534722D01*
X42922562Y-46695239D01*
X43012220Y-46875297D01*
X43067266Y-47068763D01*
X43085825Y-47269050D01*
X43067266Y-47469337D01*
X43012220Y-47662803D01*
X42922562Y-47842861D01*
X42801345Y-48003378D01*
X42652697Y-48138889D01*
X42481680Y-48244778D01*
X42294118Y-48317440D01*
X42096398Y-48354400D01*
X41895252Y-48354400D01*
X41697532Y-48317440D01*
X41509970Y-48244778D01*
X41338953Y-48138889D01*
X41190305Y-48003378D01*
X41069088Y-47842861D01*
X40979430Y-47662803D01*
X40924384Y-47469337D01*
X40905825Y-47269050D01*
X40924384Y-47068763D01*
X40979430Y-46875297D01*
X41069088Y-46695239D01*
X41190305Y-46534722D01*
X41338953Y-46399211D01*
X41509970Y-46293322D01*
X41697532Y-46220660D01*
X41895252Y-46183700D01*
X42096398Y-46183700D01*
X42294118Y-46220660D01*
G37*
G36*
X74236739Y-46089402D02*
G01*
X74399075Y-46161678D01*
X74542836Y-46266127D01*
X74661739Y-46398183D01*
X74750589Y-46552074D01*
X74805500Y-46721075D01*
X74824075Y-46897800D01*
X74805500Y-47074525D01*
X74750589Y-47243526D01*
X74661739Y-47397417D01*
X74542836Y-47529473D01*
X74399075Y-47633922D01*
X74236739Y-47706198D01*
X74062924Y-47743144D01*
X73885226Y-47743144D01*
X73711411Y-47706198D01*
X73549075Y-47633922D01*
X73405314Y-47529473D01*
X73286411Y-47397417D01*
X73197561Y-47243526D01*
X73142650Y-47074525D01*
X73124075Y-46897800D01*
X73142650Y-46721075D01*
X73197561Y-46552074D01*
X73286411Y-46398183D01*
X73405314Y-46266127D01*
X73549075Y-46161678D01*
X73711411Y-46089402D01*
X73885226Y-46052456D01*
X74062924Y-46052456D01*
X74236739Y-46089402D01*
G37*
G36*
X92016739Y-46089402D02*
G01*
X92179075Y-46161678D01*
X92322836Y-46266127D01*
X92441739Y-46398183D01*
X92530589Y-46552074D01*
X92585500Y-46721075D01*
X92604075Y-46897800D01*
X92585500Y-47074525D01*
X92530589Y-47243526D01*
X92441739Y-47397417D01*
X92322836Y-47529473D01*
X92179075Y-47633922D01*
X92016739Y-47706198D01*
X91842924Y-47743144D01*
X91665226Y-47743144D01*
X91491411Y-47706198D01*
X91329075Y-47633922D01*
X91185314Y-47529473D01*
X91066411Y-47397417D01*
X90977561Y-47243526D01*
X90922650Y-47074525D01*
X90904075Y-46897800D01*
X90922650Y-46721075D01*
X90977561Y-46552074D01*
X91066411Y-46398183D01*
X91185314Y-46266127D01*
X91329075Y-46161678D01*
X91491411Y-46089402D01*
X91665226Y-46052456D01*
X91842924Y-46052456D01*
X92016739Y-46089402D01*
G37*
G36*
X49744552Y-44352527D02*
G01*
X49906888Y-44424803D01*
X50050649Y-44529252D01*
X50169552Y-44661308D01*
X50258402Y-44815199D01*
X50313313Y-44984200D01*
X50331888Y-45160925D01*
X50313313Y-45337650D01*
X50258402Y-45506651D01*
X50169552Y-45660542D01*
X50050649Y-45792598D01*
X49906888Y-45897047D01*
X49744552Y-45969323D01*
X49570737Y-46006269D01*
X49393039Y-46006269D01*
X49219224Y-45969323D01*
X49056888Y-45897047D01*
X48913127Y-45792598D01*
X48794224Y-45660542D01*
X48705374Y-45506651D01*
X48650463Y-45337650D01*
X48631888Y-45160925D01*
X48650463Y-44984200D01*
X48705374Y-44815199D01*
X48794224Y-44661308D01*
X48913127Y-44529252D01*
X49056888Y-44424803D01*
X49219224Y-44352527D01*
X49393039Y-44315581D01*
X49570737Y-44315581D01*
X49744552Y-44352527D01*
G37*
G36*
X67524552Y-44352527D02*
G01*
X67686888Y-44424803D01*
X67830649Y-44529252D01*
X67949552Y-44661308D01*
X68038402Y-44815199D01*
X68093313Y-44984200D01*
X68111888Y-45160925D01*
X68093313Y-45337650D01*
X68038402Y-45506651D01*
X67949552Y-45660542D01*
X67830649Y-45792598D01*
X67686888Y-45897047D01*
X67524552Y-45969323D01*
X67350737Y-46006269D01*
X67173039Y-46006269D01*
X66999224Y-45969323D01*
X66836888Y-45897047D01*
X66693127Y-45792598D01*
X66574224Y-45660542D01*
X66485374Y-45506651D01*
X66430463Y-45337650D01*
X66411888Y-45160925D01*
X66430463Y-44984200D01*
X66485374Y-44815199D01*
X66574224Y-44661308D01*
X66693127Y-44529252D01*
X66836888Y-44424803D01*
X66999224Y-44352527D01*
X67173039Y-44315581D01*
X67350737Y-44315581D01*
X67524552Y-44352527D01*
G37*
G36*
X74236739Y-43549402D02*
G01*
X74399075Y-43621678D01*
X74542836Y-43726127D01*
X74661739Y-43858183D01*
X74750589Y-44012074D01*
X74805500Y-44181075D01*
X74824075Y-44357800D01*
X74805500Y-44534525D01*
X74750589Y-44703526D01*
X74661739Y-44857417D01*
X74542836Y-44989473D01*
X74399075Y-45093922D01*
X74236739Y-45166198D01*
X74062924Y-45203144D01*
X73885226Y-45203144D01*
X73711411Y-45166198D01*
X73549075Y-45093922D01*
X73405314Y-44989473D01*
X73286411Y-44857417D01*
X73197561Y-44703526D01*
X73142650Y-44534525D01*
X73124075Y-44357800D01*
X73142650Y-44181075D01*
X73197561Y-44012074D01*
X73286411Y-43858183D01*
X73405314Y-43726127D01*
X73549075Y-43621678D01*
X73711411Y-43549402D01*
X73885226Y-43512456D01*
X74062924Y-43512456D01*
X74236739Y-43549402D01*
G37*
G36*
X92016739Y-43549402D02*
G01*
X92179075Y-43621678D01*
X92322836Y-43726127D01*
X92441739Y-43858183D01*
X92530589Y-44012074D01*
X92585500Y-44181075D01*
X92604075Y-44357800D01*
X92585500Y-44534525D01*
X92530589Y-44703526D01*
X92441739Y-44857417D01*
X92322836Y-44989473D01*
X92179075Y-45093922D01*
X92016739Y-45166198D01*
X91842924Y-45203144D01*
X91665226Y-45203144D01*
X91491411Y-45166198D01*
X91329075Y-45093922D01*
X91185314Y-44989473D01*
X91066411Y-44857417D01*
X90977561Y-44703526D01*
X90922650Y-44534525D01*
X90904075Y-44357800D01*
X90922650Y-44181075D01*
X90977561Y-44012074D01*
X91066411Y-43858183D01*
X91185314Y-43726127D01*
X91329075Y-43621678D01*
X91491411Y-43549402D01*
X91665226Y-43512456D01*
X91842924Y-43512456D01*
X92016739Y-43549402D01*
G37*
G36*
X49744552Y-41812527D02*
G01*
X49906888Y-41884803D01*
X50050649Y-41989252D01*
X50169552Y-42121308D01*
X50258402Y-42275199D01*
X50313313Y-42444200D01*
X50331888Y-42620925D01*
X50313313Y-42797650D01*
X50258402Y-42966651D01*
X50169552Y-43120542D01*
X50050649Y-43252598D01*
X49906888Y-43357047D01*
X49744552Y-43429323D01*
X49570737Y-43466269D01*
X49393039Y-43466269D01*
X49219224Y-43429323D01*
X49056888Y-43357047D01*
X48913127Y-43252598D01*
X48794224Y-43120542D01*
X48705374Y-42966651D01*
X48650463Y-42797650D01*
X48631888Y-42620925D01*
X48650463Y-42444200D01*
X48705374Y-42275199D01*
X48794224Y-42121308D01*
X48913127Y-41989252D01*
X49056888Y-41884803D01*
X49219224Y-41812527D01*
X49393039Y-41775581D01*
X49570737Y-41775581D01*
X49744552Y-41812527D01*
G37*
G36*
X67524552Y-41812527D02*
G01*
X67686888Y-41884803D01*
X67830649Y-41989252D01*
X67949552Y-42121308D01*
X68038402Y-42275199D01*
X68093313Y-42444200D01*
X68111888Y-42620925D01*
X68093313Y-42797650D01*
X68038402Y-42966651D01*
X67949552Y-43120542D01*
X67830649Y-43252598D01*
X67686888Y-43357047D01*
X67524552Y-43429323D01*
X67350737Y-43466269D01*
X67173039Y-43466269D01*
X66999224Y-43429323D01*
X66836888Y-43357047D01*
X66693127Y-43252598D01*
X66574224Y-43120542D01*
X66485374Y-42966651D01*
X66430463Y-42797650D01*
X66411888Y-42620925D01*
X66430463Y-42444200D01*
X66485374Y-42275199D01*
X66574224Y-42121308D01*
X66693127Y-41989252D01*
X66836888Y-41884803D01*
X66999224Y-41812527D01*
X67173039Y-41775581D01*
X67350737Y-41775581D01*
X67524552Y-41812527D01*
G37*
G36*
X74236739Y-41009402D02*
G01*
X74399075Y-41081678D01*
X74542836Y-41186127D01*
X74661739Y-41318183D01*
X74750589Y-41472074D01*
X74805500Y-41641075D01*
X74824075Y-41817800D01*
X74805500Y-41994525D01*
X74750589Y-42163526D01*
X74661739Y-42317417D01*
X74542836Y-42449473D01*
X74399075Y-42553922D01*
X74236739Y-42626198D01*
X74062924Y-42663144D01*
X73885226Y-42663144D01*
X73711411Y-42626198D01*
X73549075Y-42553922D01*
X73405314Y-42449473D01*
X73286411Y-42317417D01*
X73197561Y-42163526D01*
X73142650Y-41994525D01*
X73124075Y-41817800D01*
X73142650Y-41641075D01*
X73197561Y-41472074D01*
X73286411Y-41318183D01*
X73405314Y-41186127D01*
X73549075Y-41081678D01*
X73711411Y-41009402D01*
X73885226Y-40972456D01*
X74062924Y-40972456D01*
X74236739Y-41009402D01*
G37*
G36*
X92016739Y-41009402D02*
G01*
X92179075Y-41081678D01*
X92322836Y-41186127D01*
X92441739Y-41318183D01*
X92530589Y-41472074D01*
X92585500Y-41641075D01*
X92604075Y-41817800D01*
X92585500Y-41994525D01*
X92530589Y-42163526D01*
X92441739Y-42317417D01*
X92322836Y-42449473D01*
X92179075Y-42553922D01*
X92016739Y-42626198D01*
X91842924Y-42663144D01*
X91665226Y-42663144D01*
X91491411Y-42626198D01*
X91329075Y-42553922D01*
X91185314Y-42449473D01*
X91066411Y-42317417D01*
X90977561Y-42163526D01*
X90922650Y-41994525D01*
X90904075Y-41817800D01*
X90922650Y-41641075D01*
X90977561Y-41472074D01*
X91066411Y-41318183D01*
X91185314Y-41186127D01*
X91329075Y-41081678D01*
X91491411Y-41009402D01*
X91665226Y-40972456D01*
X91842924Y-40972456D01*
X92016739Y-41009402D01*
G37*
G36*
X49744552Y-39272527D02*
G01*
X49906888Y-39344803D01*
X50050649Y-39449252D01*
X50169552Y-39581308D01*
X50258402Y-39735199D01*
X50313313Y-39904200D01*
X50331888Y-40080925D01*
X50313313Y-40257650D01*
X50258402Y-40426651D01*
X50169552Y-40580542D01*
X50050649Y-40712598D01*
X49906888Y-40817047D01*
X49744552Y-40889323D01*
X49570737Y-40926269D01*
X49393039Y-40926269D01*
X49219224Y-40889323D01*
X49056888Y-40817047D01*
X48913127Y-40712598D01*
X48794224Y-40580542D01*
X48705374Y-40426651D01*
X48650463Y-40257650D01*
X48631888Y-40080925D01*
X48650463Y-39904200D01*
X48705374Y-39735199D01*
X48794224Y-39581308D01*
X48913127Y-39449252D01*
X49056888Y-39344803D01*
X49219224Y-39272527D01*
X49393039Y-39235581D01*
X49570737Y-39235581D01*
X49744552Y-39272527D01*
G37*
G36*
X67524552Y-39272527D02*
G01*
X67686888Y-39344803D01*
X67830649Y-39449252D01*
X67949552Y-39581308D01*
X68038402Y-39735199D01*
X68093313Y-39904200D01*
X68111888Y-40080925D01*
X68093313Y-40257650D01*
X68038402Y-40426651D01*
X67949552Y-40580542D01*
X67830649Y-40712598D01*
X67686888Y-40817047D01*
X67524552Y-40889323D01*
X67350737Y-40926269D01*
X67173039Y-40926269D01*
X66999224Y-40889323D01*
X66836888Y-40817047D01*
X66693127Y-40712598D01*
X66574224Y-40580542D01*
X66485374Y-40426651D01*
X66430463Y-40257650D01*
X66411888Y-40080925D01*
X66430463Y-39904200D01*
X66485374Y-39735199D01*
X66574224Y-39581308D01*
X66693127Y-39449252D01*
X66836888Y-39344803D01*
X66999224Y-39272527D01*
X67173039Y-39235581D01*
X67350737Y-39235581D01*
X67524552Y-39272527D01*
G37*
G36*
X74236739Y-38469402D02*
G01*
X74399075Y-38541678D01*
X74542836Y-38646127D01*
X74661739Y-38778183D01*
X74750589Y-38932074D01*
X74805500Y-39101075D01*
X74824075Y-39277800D01*
X74805500Y-39454525D01*
X74750589Y-39623526D01*
X74661739Y-39777417D01*
X74542836Y-39909473D01*
X74399075Y-40013922D01*
X74236739Y-40086198D01*
X74062924Y-40123144D01*
X73885226Y-40123144D01*
X73711411Y-40086198D01*
X73549075Y-40013922D01*
X73405314Y-39909473D01*
X73286411Y-39777417D01*
X73197561Y-39623526D01*
X73142650Y-39454525D01*
X73124075Y-39277800D01*
X73142650Y-39101075D01*
X73197561Y-38932074D01*
X73286411Y-38778183D01*
X73405314Y-38646127D01*
X73549075Y-38541678D01*
X73711411Y-38469402D01*
X73885226Y-38432456D01*
X74062924Y-38432456D01*
X74236739Y-38469402D01*
G37*
G36*
X92016739Y-38469402D02*
G01*
X92179075Y-38541678D01*
X92322836Y-38646127D01*
X92441739Y-38778183D01*
X92530589Y-38932074D01*
X92585500Y-39101075D01*
X92604075Y-39277800D01*
X92585500Y-39454525D01*
X92530589Y-39623526D01*
X92441739Y-39777417D01*
X92322836Y-39909473D01*
X92179075Y-40013922D01*
X92016739Y-40086198D01*
X91842924Y-40123144D01*
X91665226Y-40123144D01*
X91491411Y-40086198D01*
X91329075Y-40013922D01*
X91185314Y-39909473D01*
X91066411Y-39777417D01*
X90977561Y-39623526D01*
X90922650Y-39454525D01*
X90904075Y-39277800D01*
X90922650Y-39101075D01*
X90977561Y-38932074D01*
X91066411Y-38778183D01*
X91185314Y-38646127D01*
X91329075Y-38541678D01*
X91491411Y-38469402D01*
X91665226Y-38432456D01*
X91842924Y-38432456D01*
X92016739Y-38469402D01*
G37*
G36*
X49744552Y-36732527D02*
G01*
X49906888Y-36804803D01*
X50050649Y-36909252D01*
X50169552Y-37041308D01*
X50258402Y-37195199D01*
X50313313Y-37364200D01*
X50331888Y-37540925D01*
X50313313Y-37717650D01*
X50258402Y-37886651D01*
X50169552Y-38040542D01*
X50050649Y-38172598D01*
X49906888Y-38277047D01*
X49744552Y-38349323D01*
X49570737Y-38386269D01*
X49393039Y-38386269D01*
X49219224Y-38349323D01*
X49056888Y-38277047D01*
X48913127Y-38172598D01*
X48794224Y-38040542D01*
X48705374Y-37886651D01*
X48650463Y-37717650D01*
X48631888Y-37540925D01*
X48650463Y-37364200D01*
X48705374Y-37195199D01*
X48794224Y-37041308D01*
X48913127Y-36909252D01*
X49056888Y-36804803D01*
X49219224Y-36732527D01*
X49393039Y-36695581D01*
X49570737Y-36695581D01*
X49744552Y-36732527D01*
G37*
G36*
X67524552Y-36732527D02*
G01*
X67686888Y-36804803D01*
X67830649Y-36909252D01*
X67949552Y-37041308D01*
X68038402Y-37195199D01*
X68093313Y-37364200D01*
X68111888Y-37540925D01*
X68093313Y-37717650D01*
X68038402Y-37886651D01*
X67949552Y-38040542D01*
X67830649Y-38172598D01*
X67686888Y-38277047D01*
X67524552Y-38349323D01*
X67350737Y-38386269D01*
X67173039Y-38386269D01*
X66999224Y-38349323D01*
X66836888Y-38277047D01*
X66693127Y-38172598D01*
X66574224Y-38040542D01*
X66485374Y-37886651D01*
X66430463Y-37717650D01*
X66411888Y-37540925D01*
X66430463Y-37364200D01*
X66485374Y-37195199D01*
X66574224Y-37041308D01*
X66693127Y-36909252D01*
X66836888Y-36804803D01*
X66999224Y-36732527D01*
X67173039Y-36695581D01*
X67350737Y-36695581D01*
X67524552Y-36732527D01*
G37*
G36*
X74236739Y-35929402D02*
G01*
X74399075Y-36001678D01*
X74542836Y-36106127D01*
X74661739Y-36238183D01*
X74750589Y-36392074D01*
X74805500Y-36561075D01*
X74824075Y-36737800D01*
X74805500Y-36914525D01*
X74750589Y-37083526D01*
X74661739Y-37237417D01*
X74542836Y-37369473D01*
X74399075Y-37473922D01*
X74236739Y-37546198D01*
X74062924Y-37583144D01*
X73885226Y-37583144D01*
X73711411Y-37546198D01*
X73549075Y-37473922D01*
X73405314Y-37369473D01*
X73286411Y-37237417D01*
X73197561Y-37083526D01*
X73142650Y-36914525D01*
X73124075Y-36737800D01*
X73142650Y-36561075D01*
X73197561Y-36392074D01*
X73286411Y-36238183D01*
X73405314Y-36106127D01*
X73549075Y-36001678D01*
X73711411Y-35929402D01*
X73885226Y-35892456D01*
X74062924Y-35892456D01*
X74236739Y-35929402D01*
G37*
G36*
X92016739Y-35929402D02*
G01*
X92179075Y-36001678D01*
X92322836Y-36106127D01*
X92441739Y-36238183D01*
X92530589Y-36392074D01*
X92585500Y-36561075D01*
X92604075Y-36737800D01*
X92585500Y-36914525D01*
X92530589Y-37083526D01*
X92441739Y-37237417D01*
X92322836Y-37369473D01*
X92179075Y-37473922D01*
X92016739Y-37546198D01*
X91842924Y-37583144D01*
X91665226Y-37583144D01*
X91491411Y-37546198D01*
X91329075Y-37473922D01*
X91185314Y-37369473D01*
X91066411Y-37237417D01*
X90977561Y-37083526D01*
X90922650Y-36914525D01*
X90904075Y-36737800D01*
X90922650Y-36561075D01*
X90977561Y-36392074D01*
X91066411Y-36238183D01*
X91185314Y-36106127D01*
X91329075Y-36001678D01*
X91491411Y-35929402D01*
X91665226Y-35892456D01*
X91842924Y-35892456D01*
X92016739Y-35929402D01*
G37*
G36*
X49744552Y-34192527D02*
G01*
X49906888Y-34264803D01*
X50050649Y-34369252D01*
X50169552Y-34501308D01*
X50258402Y-34655199D01*
X50313313Y-34824200D01*
X50331888Y-35000925D01*
X50313313Y-35177650D01*
X50258402Y-35346651D01*
X50169552Y-35500542D01*
X50050649Y-35632598D01*
X49906888Y-35737047D01*
X49744552Y-35809323D01*
X49570737Y-35846269D01*
X49393039Y-35846269D01*
X49219224Y-35809323D01*
X49056888Y-35737047D01*
X48913127Y-35632598D01*
X48794224Y-35500542D01*
X48705374Y-35346651D01*
X48650463Y-35177650D01*
X48631888Y-35000925D01*
X48650463Y-34824200D01*
X48705374Y-34655199D01*
X48794224Y-34501308D01*
X48913127Y-34369252D01*
X49056888Y-34264803D01*
X49219224Y-34192527D01*
X49393039Y-34155581D01*
X49570737Y-34155581D01*
X49744552Y-34192527D01*
G37*
G36*
X67524552Y-34192527D02*
G01*
X67686888Y-34264803D01*
X67830649Y-34369252D01*
X67949552Y-34501308D01*
X68038402Y-34655199D01*
X68093313Y-34824200D01*
X68111888Y-35000925D01*
X68093313Y-35177650D01*
X68038402Y-35346651D01*
X67949552Y-35500542D01*
X67830649Y-35632598D01*
X67686888Y-35737047D01*
X67524552Y-35809323D01*
X67350737Y-35846269D01*
X67173039Y-35846269D01*
X66999224Y-35809323D01*
X66836888Y-35737047D01*
X66693127Y-35632598D01*
X66574224Y-35500542D01*
X66485374Y-35346651D01*
X66430463Y-35177650D01*
X66411888Y-35000925D01*
X66430463Y-34824200D01*
X66485374Y-34655199D01*
X66574224Y-34501308D01*
X66693127Y-34369252D01*
X66836888Y-34264803D01*
X66999224Y-34192527D01*
X67173039Y-34155581D01*
X67350737Y-34155581D01*
X67524552Y-34192527D01*
G37*
G36*
X74236739Y-33389402D02*
G01*
X74399075Y-33461678D01*
X74542836Y-33566127D01*
X74661739Y-33698183D01*
X74750589Y-33852074D01*
X74805500Y-34021075D01*
X74824075Y-34197800D01*
X74805500Y-34374525D01*
X74750589Y-34543526D01*
X74661739Y-34697417D01*
X74542836Y-34829473D01*
X74399075Y-34933922D01*
X74236739Y-35006198D01*
X74062924Y-35043144D01*
X73885226Y-35043144D01*
X73711411Y-35006198D01*
X73549075Y-34933922D01*
X73405314Y-34829473D01*
X73286411Y-34697417D01*
X73197561Y-34543526D01*
X73142650Y-34374525D01*
X73124075Y-34197800D01*
X73142650Y-34021075D01*
X73197561Y-33852074D01*
X73286411Y-33698183D01*
X73405314Y-33566127D01*
X73549075Y-33461678D01*
X73711411Y-33389402D01*
X73885226Y-33352456D01*
X74062924Y-33352456D01*
X74236739Y-33389402D01*
G37*
G36*
X92016739Y-33389402D02*
G01*
X92179075Y-33461678D01*
X92322836Y-33566127D01*
X92441739Y-33698183D01*
X92530589Y-33852074D01*
X92585500Y-34021075D01*
X92604075Y-34197800D01*
X92585500Y-34374525D01*
X92530589Y-34543526D01*
X92441739Y-34697417D01*
X92322836Y-34829473D01*
X92179075Y-34933922D01*
X92016739Y-35006198D01*
X91842924Y-35043144D01*
X91665226Y-35043144D01*
X91491411Y-35006198D01*
X91329075Y-34933922D01*
X91185314Y-34829473D01*
X91066411Y-34697417D01*
X90977561Y-34543526D01*
X90922650Y-34374525D01*
X90904075Y-34197800D01*
X90922650Y-34021075D01*
X90977561Y-33852074D01*
X91066411Y-33698183D01*
X91185314Y-33566127D01*
X91329075Y-33461678D01*
X91491411Y-33389402D01*
X91665226Y-33352456D01*
X91842924Y-33352456D01*
X92016739Y-33389402D01*
G37*
G36*
X49744552Y-31652527D02*
G01*
X49906888Y-31724803D01*
X50050649Y-31829252D01*
X50169552Y-31961308D01*
X50258402Y-32115199D01*
X50313313Y-32284200D01*
X50331888Y-32460925D01*
X50313313Y-32637650D01*
X50258402Y-32806651D01*
X50169552Y-32960542D01*
X50050649Y-33092598D01*
X49906888Y-33197047D01*
X49744552Y-33269323D01*
X49570737Y-33306269D01*
X49393039Y-33306269D01*
X49219224Y-33269323D01*
X49056888Y-33197047D01*
X48913127Y-33092598D01*
X48794224Y-32960542D01*
X48705374Y-32806651D01*
X48650463Y-32637650D01*
X48631888Y-32460925D01*
X48650463Y-32284200D01*
X48705374Y-32115199D01*
X48794224Y-31961308D01*
X48913127Y-31829252D01*
X49056888Y-31724803D01*
X49219224Y-31652527D01*
X49393039Y-31615581D01*
X49570737Y-31615581D01*
X49744552Y-31652527D01*
G37*
G36*
X67524552Y-31652527D02*
G01*
X67686888Y-31724803D01*
X67830649Y-31829252D01*
X67949552Y-31961308D01*
X68038402Y-32115199D01*
X68093313Y-32284200D01*
X68111888Y-32460925D01*
X68093313Y-32637650D01*
X68038402Y-32806651D01*
X67949552Y-32960542D01*
X67830649Y-33092598D01*
X67686888Y-33197047D01*
X67524552Y-33269323D01*
X67350737Y-33306269D01*
X67173039Y-33306269D01*
X66999224Y-33269323D01*
X66836888Y-33197047D01*
X66693127Y-33092598D01*
X66574224Y-32960542D01*
X66485374Y-32806651D01*
X66430463Y-32637650D01*
X66411888Y-32460925D01*
X66430463Y-32284200D01*
X66485374Y-32115199D01*
X66574224Y-31961308D01*
X66693127Y-31829252D01*
X66836888Y-31724803D01*
X66999224Y-31652527D01*
X67173039Y-31615581D01*
X67350737Y-31615581D01*
X67524552Y-31652527D01*
G37*
G36*
X74236739Y-30849402D02*
G01*
X74399075Y-30921678D01*
X74542836Y-31026127D01*
X74661739Y-31158183D01*
X74750589Y-31312074D01*
X74805500Y-31481075D01*
X74824075Y-31657800D01*
X74805500Y-31834525D01*
X74750589Y-32003526D01*
X74661739Y-32157417D01*
X74542836Y-32289473D01*
X74399075Y-32393922D01*
X74236739Y-32466198D01*
X74062924Y-32503144D01*
X73885226Y-32503144D01*
X73711411Y-32466198D01*
X73549075Y-32393922D01*
X73405314Y-32289473D01*
X73286411Y-32157417D01*
X73197561Y-32003526D01*
X73142650Y-31834525D01*
X73124075Y-31657800D01*
X73142650Y-31481075D01*
X73197561Y-31312074D01*
X73286411Y-31158183D01*
X73405314Y-31026127D01*
X73549075Y-30921678D01*
X73711411Y-30849402D01*
X73885226Y-30812456D01*
X74062924Y-30812456D01*
X74236739Y-30849402D01*
G37*
G36*
X92016739Y-30849402D02*
G01*
X92179075Y-30921678D01*
X92322836Y-31026127D01*
X92441739Y-31158183D01*
X92530589Y-31312074D01*
X92585500Y-31481075D01*
X92604075Y-31657800D01*
X92585500Y-31834525D01*
X92530589Y-32003526D01*
X92441739Y-32157417D01*
X92322836Y-32289473D01*
X92179075Y-32393922D01*
X92016739Y-32466198D01*
X91842924Y-32503144D01*
X91665226Y-32503144D01*
X91491411Y-32466198D01*
X91329075Y-32393922D01*
X91185314Y-32289473D01*
X91066411Y-32157417D01*
X90977561Y-32003526D01*
X90922650Y-31834525D01*
X90904075Y-31657800D01*
X90922650Y-31481075D01*
X90977561Y-31312074D01*
X91066411Y-31158183D01*
X91185314Y-31026127D01*
X91329075Y-30921678D01*
X91491411Y-30849402D01*
X91665226Y-30812456D01*
X91842924Y-30812456D01*
X92016739Y-30849402D01*
G37*
G36*
X28508120Y-27908749D02*
G01*
X28752252Y-27967360D01*
X28984210Y-28063440D01*
X29198281Y-28194623D01*
X29389196Y-28357679D01*
X29552252Y-28548594D01*
X29683435Y-28762665D01*
X29779515Y-28994623D01*
X29838126Y-29238755D01*
X29857825Y-29489050D01*
X29838126Y-29739345D01*
X29779515Y-29983477D01*
X29683435Y-30215435D01*
X29552252Y-30429506D01*
X29389196Y-30620421D01*
X29198281Y-30783477D01*
X28984210Y-30914660D01*
X28752252Y-31010740D01*
X28508120Y-31069351D01*
X28257825Y-31089050D01*
X28007530Y-31069351D01*
X27763398Y-31010740D01*
X27531440Y-30914660D01*
X27317369Y-30783477D01*
X27126454Y-30620421D01*
X26963398Y-30429506D01*
X26832215Y-30215435D01*
X26736135Y-29983477D01*
X26677524Y-29739345D01*
X26657825Y-29489050D01*
X26677524Y-29238755D01*
X26736135Y-28994623D01*
X26832215Y-28762665D01*
X26963398Y-28548594D01*
X27126454Y-28357679D01*
X27317369Y-28194623D01*
X27531440Y-28063440D01*
X27763398Y-27967360D01*
X28007530Y-27908749D01*
X28257825Y-27889050D01*
X28508120Y-27908749D01*
G37*
G36*
X43748120Y-27908749D02*
G01*
X43992252Y-27967360D01*
X44224210Y-28063440D01*
X44438281Y-28194623D01*
X44629196Y-28357679D01*
X44792252Y-28548594D01*
X44923435Y-28762665D01*
X45019515Y-28994623D01*
X45078126Y-29238755D01*
X45097825Y-29489050D01*
X45078126Y-29739345D01*
X45019515Y-29983477D01*
X44923435Y-30215435D01*
X44792252Y-30429506D01*
X44629196Y-30620421D01*
X44438281Y-30783477D01*
X44224210Y-30914660D01*
X43992252Y-31010740D01*
X43748120Y-31069351D01*
X43497825Y-31089050D01*
X43247530Y-31069351D01*
X43003398Y-31010740D01*
X42771440Y-30914660D01*
X42557369Y-30783477D01*
X42366454Y-30620421D01*
X42203398Y-30429506D01*
X42072215Y-30215435D01*
X41976135Y-29983477D01*
X41917524Y-29739345D01*
X41897825Y-29489050D01*
X41917524Y-29238755D01*
X41976135Y-28994623D01*
X42072215Y-28762665D01*
X42203398Y-28548594D01*
X42366454Y-28357679D01*
X42557369Y-28194623D01*
X42771440Y-28063440D01*
X43003398Y-27967360D01*
X43247530Y-27908749D01*
X43497825Y-27889050D01*
X43748120Y-27908749D01*
G37*
G36*
X49744552Y-29112527D02*
G01*
X49906888Y-29184803D01*
X50050649Y-29289252D01*
X50169552Y-29421308D01*
X50258402Y-29575199D01*
X50313313Y-29744200D01*
X50331888Y-29920925D01*
X50313313Y-30097650D01*
X50258402Y-30266651D01*
X50169552Y-30420542D01*
X50050649Y-30552598D01*
X49906888Y-30657047D01*
X49744552Y-30729323D01*
X49570737Y-30766269D01*
X49393039Y-30766269D01*
X49219224Y-30729323D01*
X49056888Y-30657047D01*
X48913127Y-30552598D01*
X48794224Y-30420542D01*
X48705374Y-30266651D01*
X48650463Y-30097650D01*
X48631888Y-29920925D01*
X48650463Y-29744200D01*
X48705374Y-29575199D01*
X48794224Y-29421308D01*
X48913127Y-29289252D01*
X49056888Y-29184803D01*
X49219224Y-29112527D01*
X49393039Y-29075581D01*
X49570737Y-29075581D01*
X49744552Y-29112527D01*
G37*
G36*
X67524552Y-29112527D02*
G01*
X67686888Y-29184803D01*
X67830649Y-29289252D01*
X67949552Y-29421308D01*
X68038402Y-29575199D01*
X68093313Y-29744200D01*
X68111888Y-29920925D01*
X68093313Y-30097650D01*
X68038402Y-30266651D01*
X67949552Y-30420542D01*
X67830649Y-30552598D01*
X67686888Y-30657047D01*
X67524552Y-30729323D01*
X67350737Y-30766269D01*
X67173039Y-30766269D01*
X66999224Y-30729323D01*
X66836888Y-30657047D01*
X66693127Y-30552598D01*
X66574224Y-30420542D01*
X66485374Y-30266651D01*
X66430463Y-30097650D01*
X66411888Y-29920925D01*
X66430463Y-29744200D01*
X66485374Y-29575199D01*
X66574224Y-29421308D01*
X66693127Y-29289252D01*
X66836888Y-29184803D01*
X66999224Y-29112527D01*
X67173039Y-29075581D01*
X67350737Y-29075581D01*
X67524552Y-29112527D01*
G37*
G36*
X32256087Y-28542592D02*
G01*
X32437115Y-28597506D01*
X32603950Y-28686682D01*
X32750183Y-28806692D01*
X32870193Y-28952925D01*
X32959369Y-29119760D01*
X33014283Y-29300788D01*
X33032825Y-29489050D01*
X33014283Y-29677312D01*
X32959369Y-29858340D01*
X32870193Y-30025175D01*
X32750183Y-30171408D01*
X32603950Y-30291418D01*
X32437115Y-30380594D01*
X32256087Y-30435508D01*
X32067825Y-30454050D01*
X31879563Y-30435508D01*
X31698535Y-30380594D01*
X31531700Y-30291418D01*
X31385467Y-30171408D01*
X31265457Y-30025175D01*
X31176281Y-29858340D01*
X31121367Y-29677312D01*
X31102825Y-29489050D01*
X31121367Y-29300788D01*
X31176281Y-29119760D01*
X31265457Y-28952925D01*
X31385467Y-28806692D01*
X31531700Y-28686682D01*
X31698535Y-28597506D01*
X31879563Y-28542592D01*
X32067825Y-28524050D01*
X32256087Y-28542592D01*
G37*
G36*
X34796087Y-28542592D02*
G01*
X34977115Y-28597506D01*
X35143950Y-28686682D01*
X35290183Y-28806692D01*
X35410193Y-28952925D01*
X35499369Y-29119760D01*
X35554283Y-29300788D01*
X35572825Y-29489050D01*
X35554283Y-29677312D01*
X35499369Y-29858340D01*
X35410193Y-30025175D01*
X35290183Y-30171408D01*
X35143950Y-30291418D01*
X34977115Y-30380594D01*
X34796087Y-30435508D01*
X34607825Y-30454050D01*
X34419563Y-30435508D01*
X34238535Y-30380594D01*
X34071700Y-30291418D01*
X33925467Y-30171408D01*
X33805457Y-30025175D01*
X33716281Y-29858340D01*
X33661367Y-29677312D01*
X33642825Y-29489050D01*
X33661367Y-29300788D01*
X33716281Y-29119760D01*
X33805457Y-28952925D01*
X33925467Y-28806692D01*
X34071700Y-28686682D01*
X34238535Y-28597506D01*
X34419563Y-28542592D01*
X34607825Y-28524050D01*
X34796087Y-28542592D01*
G37*
G36*
X37336087Y-28542592D02*
G01*
X37517115Y-28597506D01*
X37683950Y-28686682D01*
X37830183Y-28806692D01*
X37950193Y-28952925D01*
X38039369Y-29119760D01*
X38094283Y-29300788D01*
X38112825Y-29489050D01*
X38094283Y-29677312D01*
X38039369Y-29858340D01*
X37950193Y-30025175D01*
X37830183Y-30171408D01*
X37683950Y-30291418D01*
X37517115Y-30380594D01*
X37336087Y-30435508D01*
X37147825Y-30454050D01*
X36959563Y-30435508D01*
X36778535Y-30380594D01*
X36611700Y-30291418D01*
X36465467Y-30171408D01*
X36345457Y-30025175D01*
X36256281Y-29858340D01*
X36201367Y-29677312D01*
X36182825Y-29489050D01*
X36201367Y-29300788D01*
X36256281Y-29119760D01*
X36345457Y-28952925D01*
X36465467Y-28806692D01*
X36611700Y-28686682D01*
X36778535Y-28597506D01*
X36959563Y-28542592D01*
X37147825Y-28524050D01*
X37336087Y-28542592D01*
G37*
G36*
X39876087Y-28542592D02*
G01*
X40057115Y-28597506D01*
X40223950Y-28686682D01*
X40370183Y-28806692D01*
X40490193Y-28952925D01*
X40579369Y-29119760D01*
X40634283Y-29300788D01*
X40652825Y-29489050D01*
X40634283Y-29677312D01*
X40579369Y-29858340D01*
X40490193Y-30025175D01*
X40370183Y-30171408D01*
X40223950Y-30291418D01*
X40057115Y-30380594D01*
X39876087Y-30435508D01*
X39687825Y-30454050D01*
X39499563Y-30435508D01*
X39318535Y-30380594D01*
X39151700Y-30291418D01*
X39005467Y-30171408D01*
X38885457Y-30025175D01*
X38796281Y-29858340D01*
X38741367Y-29677312D01*
X38722825Y-29489050D01*
X38741367Y-29300788D01*
X38796281Y-29119760D01*
X38885457Y-28952925D01*
X39005467Y-28806692D01*
X39151700Y-28686682D01*
X39318535Y-28597506D01*
X39499563Y-28542592D01*
X39687825Y-28524050D01*
X39876087Y-28542592D01*
G37*
G36*
X74236739Y-28309402D02*
G01*
X74399075Y-28381678D01*
X74542836Y-28486127D01*
X74661739Y-28618183D01*
X74750589Y-28772074D01*
X74805500Y-28941075D01*
X74824075Y-29117800D01*
X74805500Y-29294525D01*
X74750589Y-29463526D01*
X74661739Y-29617417D01*
X74542836Y-29749473D01*
X74399075Y-29853922D01*
X74236739Y-29926198D01*
X74062924Y-29963144D01*
X73885226Y-29963144D01*
X73711411Y-29926198D01*
X73549075Y-29853922D01*
X73405314Y-29749473D01*
X73286411Y-29617417D01*
X73197561Y-29463526D01*
X73142650Y-29294525D01*
X73124075Y-29117800D01*
X73142650Y-28941075D01*
X73197561Y-28772074D01*
X73286411Y-28618183D01*
X73405314Y-28486127D01*
X73549075Y-28381678D01*
X73711411Y-28309402D01*
X73885226Y-28272456D01*
X74062924Y-28272456D01*
X74236739Y-28309402D01*
G37*
G36*
X92016739Y-28309402D02*
G01*
X92179075Y-28381678D01*
X92322836Y-28486127D01*
X92441739Y-28618183D01*
X92530589Y-28772074D01*
X92585500Y-28941075D01*
X92604075Y-29117800D01*
X92585500Y-29294525D01*
X92530589Y-29463526D01*
X92441739Y-29617417D01*
X92322836Y-29749473D01*
X92179075Y-29853922D01*
X92016739Y-29926198D01*
X91842924Y-29963144D01*
X91665226Y-29963144D01*
X91491411Y-29926198D01*
X91329075Y-29853922D01*
X91185314Y-29749473D01*
X91066411Y-29617417D01*
X90977561Y-29463526D01*
X90922650Y-29294525D01*
X90904075Y-29117800D01*
X90922650Y-28941075D01*
X90977561Y-28772074D01*
X91066411Y-28618183D01*
X91185314Y-28486127D01*
X91329075Y-28381678D01*
X91491411Y-28309402D01*
X91665226Y-28272456D01*
X91842924Y-28272456D01*
X92016739Y-28309402D01*
G37*
G36*
X49744552Y-26572527D02*
G01*
X49906888Y-26644803D01*
X50050649Y-26749252D01*
X50169552Y-26881308D01*
X50258402Y-27035199D01*
X50313313Y-27204200D01*
X50331888Y-27380925D01*
X50313313Y-27557650D01*
X50258402Y-27726651D01*
X50169552Y-27880542D01*
X50050649Y-28012598D01*
X49906888Y-28117047D01*
X49744552Y-28189323D01*
X49570737Y-28226269D01*
X49393039Y-28226269D01*
X49219224Y-28189323D01*
X49056888Y-28117047D01*
X48913127Y-28012598D01*
X48794224Y-27880542D01*
X48705374Y-27726651D01*
X48650463Y-27557650D01*
X48631888Y-27380925D01*
X48650463Y-27204200D01*
X48705374Y-27035199D01*
X48794224Y-26881308D01*
X48913127Y-26749252D01*
X49056888Y-26644803D01*
X49219224Y-26572527D01*
X49393039Y-26535581D01*
X49570737Y-26535581D01*
X49744552Y-26572527D01*
G37*
G36*
X67524552Y-26572527D02*
G01*
X67686888Y-26644803D01*
X67830649Y-26749252D01*
X67949552Y-26881308D01*
X68038402Y-27035199D01*
X68093313Y-27204200D01*
X68111888Y-27380925D01*
X68093313Y-27557650D01*
X68038402Y-27726651D01*
X67949552Y-27880542D01*
X67830649Y-28012598D01*
X67686888Y-28117047D01*
X67524552Y-28189323D01*
X67350737Y-28226269D01*
X67173039Y-28226269D01*
X66999224Y-28189323D01*
X66836888Y-28117047D01*
X66693127Y-28012598D01*
X66574224Y-27880542D01*
X66485374Y-27726651D01*
X66430463Y-27557650D01*
X66411888Y-27380925D01*
X66430463Y-27204200D01*
X66485374Y-27035199D01*
X66574224Y-26881308D01*
X66693127Y-26749252D01*
X66836888Y-26644803D01*
X66999224Y-26572527D01*
X67173039Y-26535581D01*
X67350737Y-26535581D01*
X67524552Y-26572527D01*
G37*
G36*
X74236739Y-25769402D02*
G01*
X74399075Y-25841678D01*
X74542836Y-25946127D01*
X74661739Y-26078183D01*
X74750589Y-26232074D01*
X74805500Y-26401075D01*
X74824075Y-26577800D01*
X74805500Y-26754525D01*
X74750589Y-26923526D01*
X74661739Y-27077417D01*
X74542836Y-27209473D01*
X74399075Y-27313922D01*
X74236739Y-27386198D01*
X74062924Y-27423144D01*
X73885226Y-27423144D01*
X73711411Y-27386198D01*
X73549075Y-27313922D01*
X73405314Y-27209473D01*
X73286411Y-27077417D01*
X73197561Y-26923526D01*
X73142650Y-26754525D01*
X73124075Y-26577800D01*
X73142650Y-26401075D01*
X73197561Y-26232074D01*
X73286411Y-26078183D01*
X73405314Y-25946127D01*
X73549075Y-25841678D01*
X73711411Y-25769402D01*
X73885226Y-25732456D01*
X74062924Y-25732456D01*
X74236739Y-25769402D01*
G37*
G36*
X92016739Y-25769402D02*
G01*
X92179075Y-25841678D01*
X92322836Y-25946127D01*
X92441739Y-26078183D01*
X92530589Y-26232074D01*
X92585500Y-26401075D01*
X92604075Y-26577800D01*
X92585500Y-26754525D01*
X92530589Y-26923526D01*
X92441739Y-27077417D01*
X92322836Y-27209473D01*
X92179075Y-27313922D01*
X92016739Y-27386198D01*
X91842924Y-27423144D01*
X91665226Y-27423144D01*
X91491411Y-27386198D01*
X91329075Y-27313922D01*
X91185314Y-27209473D01*
X91066411Y-27077417D01*
X90977561Y-26923526D01*
X90922650Y-26754525D01*
X90904075Y-26577800D01*
X90922650Y-26401075D01*
X90977561Y-26232074D01*
X91066411Y-26078183D01*
X91185314Y-25946127D01*
X91329075Y-25841678D01*
X91491411Y-25769402D01*
X91665226Y-25732456D01*
X91842924Y-25732456D01*
X92016739Y-25769402D01*
G37*
G36*
X49744552Y-24032527D02*
G01*
X49906888Y-24104803D01*
X50050649Y-24209252D01*
X50169552Y-24341308D01*
X50258402Y-24495199D01*
X50313313Y-24664200D01*
X50331888Y-24840925D01*
X50313313Y-25017650D01*
X50258402Y-25186651D01*
X50169552Y-25340542D01*
X50050649Y-25472598D01*
X49906888Y-25577047D01*
X49744552Y-25649323D01*
X49570737Y-25686269D01*
X49393039Y-25686269D01*
X49219224Y-25649323D01*
X49056888Y-25577047D01*
X48913127Y-25472598D01*
X48794224Y-25340542D01*
X48705374Y-25186651D01*
X48650463Y-25017650D01*
X48631888Y-24840925D01*
X48650463Y-24664200D01*
X48705374Y-24495199D01*
X48794224Y-24341308D01*
X48913127Y-24209252D01*
X49056888Y-24104803D01*
X49219224Y-24032527D01*
X49393039Y-23995581D01*
X49570737Y-23995581D01*
X49744552Y-24032527D01*
G37*
G36*
X67524552Y-24032527D02*
G01*
X67686888Y-24104803D01*
X67830649Y-24209252D01*
X67949552Y-24341308D01*
X68038402Y-24495199D01*
X68093313Y-24664200D01*
X68111888Y-24840925D01*
X68093313Y-25017650D01*
X68038402Y-25186651D01*
X67949552Y-25340542D01*
X67830649Y-25472598D01*
X67686888Y-25577047D01*
X67524552Y-25649323D01*
X67350737Y-25686269D01*
X67173039Y-25686269D01*
X66999224Y-25649323D01*
X66836888Y-25577047D01*
X66693127Y-25472598D01*
X66574224Y-25340542D01*
X66485374Y-25186651D01*
X66430463Y-25017650D01*
X66411888Y-24840925D01*
X66430463Y-24664200D01*
X66485374Y-24495199D01*
X66574224Y-24341308D01*
X66693127Y-24209252D01*
X66836888Y-24104803D01*
X66999224Y-24032527D01*
X67173039Y-23995581D01*
X67350737Y-23995581D01*
X67524552Y-24032527D01*
G37*
G36*
X74236739Y-23229402D02*
G01*
X74399075Y-23301678D01*
X74542836Y-23406127D01*
X74661739Y-23538183D01*
X74750589Y-23692074D01*
X74805500Y-23861075D01*
X74824075Y-24037800D01*
X74805500Y-24214525D01*
X74750589Y-24383526D01*
X74661739Y-24537417D01*
X74542836Y-24669473D01*
X74399075Y-24773922D01*
X74236739Y-24846198D01*
X74062924Y-24883144D01*
X73885226Y-24883144D01*
X73711411Y-24846198D01*
X73549075Y-24773922D01*
X73405314Y-24669473D01*
X73286411Y-24537417D01*
X73197561Y-24383526D01*
X73142650Y-24214525D01*
X73124075Y-24037800D01*
X73142650Y-23861075D01*
X73197561Y-23692074D01*
X73286411Y-23538183D01*
X73405314Y-23406127D01*
X73549075Y-23301678D01*
X73711411Y-23229402D01*
X73885226Y-23192456D01*
X74062924Y-23192456D01*
X74236739Y-23229402D01*
G37*
G36*
X92016739Y-23229402D02*
G01*
X92179075Y-23301678D01*
X92322836Y-23406127D01*
X92441739Y-23538183D01*
X92530589Y-23692074D01*
X92585500Y-23861075D01*
X92604075Y-24037800D01*
X92585500Y-24214525D01*
X92530589Y-24383526D01*
X92441739Y-24537417D01*
X92322836Y-24669473D01*
X92179075Y-24773922D01*
X92016739Y-24846198D01*
X91842924Y-24883144D01*
X91665226Y-24883144D01*
X91491411Y-24846198D01*
X91329075Y-24773922D01*
X91185314Y-24669473D01*
X91066411Y-24537417D01*
X90977561Y-24383526D01*
X90922650Y-24214525D01*
X90904075Y-24037800D01*
X90922650Y-23861075D01*
X90977561Y-23692074D01*
X91066411Y-23538183D01*
X91185314Y-23406127D01*
X91329075Y-23301678D01*
X91491411Y-23229402D01*
X91665226Y-23192456D01*
X91842924Y-23192456D01*
X92016739Y-23229402D01*
G37*
G36*
X30656558Y-21177499D02*
G01*
X30900690Y-21236110D01*
X31132648Y-21332190D01*
X31346719Y-21463373D01*
X31537634Y-21626429D01*
X31700690Y-21817344D01*
X31831873Y-22031415D01*
X31927953Y-22263373D01*
X31986564Y-22507505D01*
X32006263Y-22757800D01*
X31986564Y-23008095D01*
X31927953Y-23252227D01*
X31831873Y-23484185D01*
X31700690Y-23698256D01*
X31537634Y-23889171D01*
X31346719Y-24052227D01*
X31132648Y-24183410D01*
X30900690Y-24279490D01*
X30656558Y-24338101D01*
X30406263Y-24357800D01*
X30155968Y-24338101D01*
X29911836Y-24279490D01*
X29679878Y-24183410D01*
X29465807Y-24052227D01*
X29274892Y-23889171D01*
X29111836Y-23698256D01*
X28980653Y-23484185D01*
X28884573Y-23252227D01*
X28825962Y-23008095D01*
X28806263Y-22757800D01*
X28825962Y-22507505D01*
X28884573Y-22263373D01*
X28980653Y-22031415D01*
X29111836Y-21817344D01*
X29274892Y-21626429D01*
X29465807Y-21463373D01*
X29679878Y-21332190D01*
X29911836Y-21236110D01*
X30155968Y-21177499D01*
X30406263Y-21157800D01*
X30656558Y-21177499D01*
G37*
G36*
X43356558Y-21177499D02*
G01*
X43600690Y-21236110D01*
X43832648Y-21332190D01*
X44046719Y-21463373D01*
X44237634Y-21626429D01*
X44400690Y-21817344D01*
X44531873Y-22031415D01*
X44627953Y-22263373D01*
X44686564Y-22507505D01*
X44706263Y-22757800D01*
X44686564Y-23008095D01*
X44627953Y-23252227D01*
X44531873Y-23484185D01*
X44400690Y-23698256D01*
X44237634Y-23889171D01*
X44046719Y-24052227D01*
X43832648Y-24183410D01*
X43600690Y-24279490D01*
X43356558Y-24338101D01*
X43106263Y-24357800D01*
X42855968Y-24338101D01*
X42611836Y-24279490D01*
X42379878Y-24183410D01*
X42165807Y-24052227D01*
X41974892Y-23889171D01*
X41811836Y-23698256D01*
X41680653Y-23484185D01*
X41584573Y-23252227D01*
X41525962Y-23008095D01*
X41506263Y-22757800D01*
X41525962Y-22507505D01*
X41584573Y-22263373D01*
X41680653Y-22031415D01*
X41811836Y-21817344D01*
X41974892Y-21626429D01*
X42165807Y-21463373D01*
X42379878Y-21332190D01*
X42611836Y-21236110D01*
X42855968Y-21177499D01*
X43106263Y-21157800D01*
X43356558Y-21177499D01*
G37*
G36*
X22402200Y-24297800D02*
G01*
X20702200Y-24297800D01*
X20702200Y-22597800D01*
X22402200Y-22597800D01*
X22402200Y-24297800D01*
G37*
G36*
X49744552Y-21492527D02*
G01*
X49906888Y-21564803D01*
X50050649Y-21669252D01*
X50169552Y-21801308D01*
X50258402Y-21955199D01*
X50313313Y-22124200D01*
X50331888Y-22300925D01*
X50313313Y-22477650D01*
X50258402Y-22646651D01*
X50169552Y-22800542D01*
X50050649Y-22932598D01*
X49906888Y-23037047D01*
X49744552Y-23109323D01*
X49570737Y-23146269D01*
X49393039Y-23146269D01*
X49219224Y-23109323D01*
X49056888Y-23037047D01*
X48913127Y-22932598D01*
X48794224Y-22800542D01*
X48705374Y-22646651D01*
X48650463Y-22477650D01*
X48631888Y-22300925D01*
X48650463Y-22124200D01*
X48705374Y-21955199D01*
X48794224Y-21801308D01*
X48913127Y-21669252D01*
X49056888Y-21564803D01*
X49219224Y-21492527D01*
X49393039Y-21455581D01*
X49570737Y-21455581D01*
X49744552Y-21492527D01*
G37*
G36*
X67524552Y-21492527D02*
G01*
X67686888Y-21564803D01*
X67830649Y-21669252D01*
X67949552Y-21801308D01*
X68038402Y-21955199D01*
X68093313Y-22124200D01*
X68111888Y-22300925D01*
X68093313Y-22477650D01*
X68038402Y-22646651D01*
X67949552Y-22800542D01*
X67830649Y-22932598D01*
X67686888Y-23037047D01*
X67524552Y-23109323D01*
X67350737Y-23146269D01*
X67173039Y-23146269D01*
X66999224Y-23109323D01*
X66836888Y-23037047D01*
X66693127Y-22932598D01*
X66574224Y-22800542D01*
X66485374Y-22646651D01*
X66430463Y-22477650D01*
X66411888Y-22300925D01*
X66430463Y-22124200D01*
X66485374Y-21955199D01*
X66574224Y-21801308D01*
X66693127Y-21669252D01*
X66836888Y-21564803D01*
X66999224Y-21492527D01*
X67173039Y-21455581D01*
X67350737Y-21455581D01*
X67524552Y-21492527D01*
G37*
G36*
X74236739Y-20689402D02*
G01*
X74399075Y-20761678D01*
X74542836Y-20866127D01*
X74661739Y-20998183D01*
X74750589Y-21152074D01*
X74805500Y-21321075D01*
X74824075Y-21497800D01*
X74805500Y-21674525D01*
X74750589Y-21843526D01*
X74661739Y-21997417D01*
X74542836Y-22129473D01*
X74399075Y-22233922D01*
X74236739Y-22306198D01*
X74062924Y-22343144D01*
X73885226Y-22343144D01*
X73711411Y-22306198D01*
X73549075Y-22233922D01*
X73405314Y-22129473D01*
X73286411Y-21997417D01*
X73197561Y-21843526D01*
X73142650Y-21674525D01*
X73124075Y-21497800D01*
X73142650Y-21321075D01*
X73197561Y-21152074D01*
X73286411Y-20998183D01*
X73405314Y-20866127D01*
X73549075Y-20761678D01*
X73711411Y-20689402D01*
X73885226Y-20652456D01*
X74062924Y-20652456D01*
X74236739Y-20689402D01*
G37*
G36*
X92016739Y-20689402D02*
G01*
X92179075Y-20761678D01*
X92322836Y-20866127D01*
X92441739Y-20998183D01*
X92530589Y-21152074D01*
X92585500Y-21321075D01*
X92604075Y-21497800D01*
X92585500Y-21674525D01*
X92530589Y-21843526D01*
X92441739Y-21997417D01*
X92322836Y-22129473D01*
X92179075Y-22233922D01*
X92016739Y-22306198D01*
X91842924Y-22343144D01*
X91665226Y-22343144D01*
X91491411Y-22306198D01*
X91329075Y-22233922D01*
X91185314Y-22129473D01*
X91066411Y-21997417D01*
X90977561Y-21843526D01*
X90922650Y-21674525D01*
X90904075Y-21497800D01*
X90922650Y-21321075D01*
X90977561Y-21152074D01*
X91066411Y-20998183D01*
X91185314Y-20866127D01*
X91329075Y-20761678D01*
X91491411Y-20689402D01*
X91665226Y-20652456D01*
X91842924Y-20652456D01*
X92016739Y-20689402D01*
G37*
G36*
X21814864Y-20099402D02*
G01*
X21977200Y-20171678D01*
X22120961Y-20276127D01*
X22239864Y-20408183D01*
X22328714Y-20562074D01*
X22383625Y-20731075D01*
X22402200Y-20907800D01*
X22383625Y-21084525D01*
X22328714Y-21253526D01*
X22239864Y-21407417D01*
X22120961Y-21539473D01*
X21977200Y-21643922D01*
X21814864Y-21716198D01*
X21641049Y-21753144D01*
X21463351Y-21753144D01*
X21289536Y-21716198D01*
X21127200Y-21643922D01*
X20983439Y-21539473D01*
X20864536Y-21407417D01*
X20775686Y-21253526D01*
X20720775Y-21084525D01*
X20702200Y-20907800D01*
X20720775Y-20731075D01*
X20775686Y-20562074D01*
X20864536Y-20408183D01*
X20983439Y-20276127D01*
X21127200Y-20171678D01*
X21289536Y-20099402D01*
X21463351Y-20062456D01*
X21641049Y-20062456D01*
X21814864Y-20099402D01*
G37*
G36*
X49744552Y-18952527D02*
G01*
X49906888Y-19024803D01*
X50050649Y-19129252D01*
X50169552Y-19261308D01*
X50258402Y-19415199D01*
X50313313Y-19584200D01*
X50331888Y-19760925D01*
X50313313Y-19937650D01*
X50258402Y-20106651D01*
X50169552Y-20260542D01*
X50050649Y-20392598D01*
X49906888Y-20497047D01*
X49744552Y-20569323D01*
X49570737Y-20606269D01*
X49393039Y-20606269D01*
X49219224Y-20569323D01*
X49056888Y-20497047D01*
X48913127Y-20392598D01*
X48794224Y-20260542D01*
X48705374Y-20106651D01*
X48650463Y-19937650D01*
X48631888Y-19760925D01*
X48650463Y-19584200D01*
X48705374Y-19415199D01*
X48794224Y-19261308D01*
X48913127Y-19129252D01*
X49056888Y-19024803D01*
X49219224Y-18952527D01*
X49393039Y-18915581D01*
X49570737Y-18915581D01*
X49744552Y-18952527D01*
G37*
G36*
X67524552Y-18952527D02*
G01*
X67686888Y-19024803D01*
X67830649Y-19129252D01*
X67949552Y-19261308D01*
X68038402Y-19415199D01*
X68093313Y-19584200D01*
X68111888Y-19760925D01*
X68093313Y-19937650D01*
X68038402Y-20106651D01*
X67949552Y-20260542D01*
X67830649Y-20392598D01*
X67686888Y-20497047D01*
X67524552Y-20569323D01*
X67350737Y-20606269D01*
X67173039Y-20606269D01*
X66999224Y-20569323D01*
X66836888Y-20497047D01*
X66693127Y-20392598D01*
X66574224Y-20260542D01*
X66485374Y-20106651D01*
X66430463Y-19937650D01*
X66411888Y-19760925D01*
X66430463Y-19584200D01*
X66485374Y-19415199D01*
X66574224Y-19261308D01*
X66693127Y-19129252D01*
X66836888Y-19024803D01*
X66999224Y-18952527D01*
X67173039Y-18915581D01*
X67350737Y-18915581D01*
X67524552Y-18952527D01*
G37*
G36*
X74236739Y-18149402D02*
G01*
X74399075Y-18221678D01*
X74542836Y-18326127D01*
X74661739Y-18458183D01*
X74750589Y-18612074D01*
X74805500Y-18781075D01*
X74824075Y-18957800D01*
X74805500Y-19134525D01*
X74750589Y-19303526D01*
X74661739Y-19457417D01*
X74542836Y-19589473D01*
X74399075Y-19693922D01*
X74236739Y-19766198D01*
X74062924Y-19803144D01*
X73885226Y-19803144D01*
X73711411Y-19766198D01*
X73549075Y-19693922D01*
X73405314Y-19589473D01*
X73286411Y-19457417D01*
X73197561Y-19303526D01*
X73142650Y-19134525D01*
X73124075Y-18957800D01*
X73142650Y-18781075D01*
X73197561Y-18612074D01*
X73286411Y-18458183D01*
X73405314Y-18326127D01*
X73549075Y-18221678D01*
X73711411Y-18149402D01*
X73885226Y-18112456D01*
X74062924Y-18112456D01*
X74236739Y-18149402D01*
G37*
G36*
X92016739Y-18149402D02*
G01*
X92179075Y-18221678D01*
X92322836Y-18326127D01*
X92441739Y-18458183D01*
X92530589Y-18612074D01*
X92585500Y-18781075D01*
X92604075Y-18957800D01*
X92585500Y-19134525D01*
X92530589Y-19303526D01*
X92441739Y-19457417D01*
X92322836Y-19589473D01*
X92179075Y-19693922D01*
X92016739Y-19766198D01*
X91842924Y-19803144D01*
X91665226Y-19803144D01*
X91491411Y-19766198D01*
X91329075Y-19693922D01*
X91185314Y-19589473D01*
X91066411Y-19457417D01*
X90977561Y-19303526D01*
X90922650Y-19134525D01*
X90904075Y-18957800D01*
X90922650Y-18781075D01*
X90977561Y-18612074D01*
X91066411Y-18458183D01*
X91185314Y-18326127D01*
X91329075Y-18221678D01*
X91491411Y-18149402D01*
X91665226Y-18112456D01*
X91842924Y-18112456D01*
X92016739Y-18149402D01*
G37*
G36*
X30594525Y-16731342D02*
G01*
X30775553Y-16786256D01*
X30942388Y-16875432D01*
X31088621Y-16995442D01*
X31208631Y-17141675D01*
X31297807Y-17308510D01*
X31352721Y-17489538D01*
X31371263Y-17677800D01*
X31352721Y-17866062D01*
X31297807Y-18047090D01*
X31208631Y-18213925D01*
X31088621Y-18360158D01*
X30942388Y-18480168D01*
X30775553Y-18569344D01*
X30594525Y-18624258D01*
X30406263Y-18642800D01*
X30218001Y-18624258D01*
X30036973Y-18569344D01*
X29870138Y-18480168D01*
X29723905Y-18360158D01*
X29603895Y-18213925D01*
X29514719Y-18047090D01*
X29459805Y-17866062D01*
X29441263Y-17677800D01*
X29459805Y-17489538D01*
X29514719Y-17308510D01*
X29603895Y-17141675D01*
X29723905Y-16995442D01*
X29870138Y-16875432D01*
X30036973Y-16786256D01*
X30218001Y-16731342D01*
X30406263Y-16712800D01*
X30594525Y-16731342D01*
G37*
G36*
X43294525Y-16731342D02*
G01*
X43475553Y-16786256D01*
X43642388Y-16875432D01*
X43788621Y-16995442D01*
X43908631Y-17141675D01*
X43997807Y-17308510D01*
X44052721Y-17489538D01*
X44071263Y-17677800D01*
X44052721Y-17866062D01*
X43997807Y-18047090D01*
X43908631Y-18213925D01*
X43788621Y-18360158D01*
X43642388Y-18480168D01*
X43475553Y-18569344D01*
X43294525Y-18624258D01*
X43106263Y-18642800D01*
X42918001Y-18624258D01*
X42736973Y-18569344D01*
X42570138Y-18480168D01*
X42423905Y-18360158D01*
X42303895Y-18213925D01*
X42214719Y-18047090D01*
X42159805Y-17866062D01*
X42141263Y-17677800D01*
X42159805Y-17489538D01*
X42214719Y-17308510D01*
X42303895Y-17141675D01*
X42423905Y-16995442D01*
X42570138Y-16875432D01*
X42736973Y-16786256D01*
X42918001Y-16731342D01*
X43106263Y-16712800D01*
X43294525Y-16731342D01*
G37*
G36*
X49744552Y-16412527D02*
G01*
X49906888Y-16484803D01*
X50050649Y-16589252D01*
X50169552Y-16721308D01*
X50258402Y-16875199D01*
X50313313Y-17044200D01*
X50331888Y-17220925D01*
X50313313Y-17397650D01*
X50258402Y-17566651D01*
X50169552Y-17720542D01*
X50050649Y-17852598D01*
X49906888Y-17957047D01*
X49744552Y-18029323D01*
X49570737Y-18066269D01*
X49393039Y-18066269D01*
X49219224Y-18029323D01*
X49056888Y-17957047D01*
X48913127Y-17852598D01*
X48794224Y-17720542D01*
X48705374Y-17566651D01*
X48650463Y-17397650D01*
X48631888Y-17220925D01*
X48650463Y-17044200D01*
X48705374Y-16875199D01*
X48794224Y-16721308D01*
X48913127Y-16589252D01*
X49056888Y-16484803D01*
X49219224Y-16412527D01*
X49393039Y-16375581D01*
X49570737Y-16375581D01*
X49744552Y-16412527D01*
G37*
G36*
X67524552Y-16412527D02*
G01*
X67686888Y-16484803D01*
X67830649Y-16589252D01*
X67949552Y-16721308D01*
X68038402Y-16875199D01*
X68093313Y-17044200D01*
X68111888Y-17220925D01*
X68093313Y-17397650D01*
X68038402Y-17566651D01*
X67949552Y-17720542D01*
X67830649Y-17852598D01*
X67686888Y-17957047D01*
X67524552Y-18029323D01*
X67350737Y-18066269D01*
X67173039Y-18066269D01*
X66999224Y-18029323D01*
X66836888Y-17957047D01*
X66693127Y-17852598D01*
X66574224Y-17720542D01*
X66485374Y-17566651D01*
X66430463Y-17397650D01*
X66411888Y-17220925D01*
X66430463Y-17044200D01*
X66485374Y-16875199D01*
X66574224Y-16721308D01*
X66693127Y-16589252D01*
X66836888Y-16484803D01*
X66999224Y-16412527D01*
X67173039Y-16375581D01*
X67350737Y-16375581D01*
X67524552Y-16412527D01*
G37*
G36*
X74824075Y-17267800D02*
G01*
X73124075Y-17267800D01*
X73124075Y-15567800D01*
X74824075Y-15567800D01*
X74824075Y-17267800D01*
G37*
G36*
X92604075Y-17267800D02*
G01*
X90904075Y-17267800D01*
X90904075Y-15567800D01*
X92604075Y-15567800D01*
X92604075Y-17267800D01*
G37*
G36*
X24822677Y-14905027D02*
G01*
X24985013Y-14977303D01*
X25128774Y-15081752D01*
X25247677Y-15213808D01*
X25336527Y-15367699D01*
X25391438Y-15536700D01*
X25410013Y-15713425D01*
X25391438Y-15890150D01*
X25336527Y-16059151D01*
X25247677Y-16213042D01*
X25128774Y-16345098D01*
X24985013Y-16449547D01*
X24822677Y-16521823D01*
X24648862Y-16558769D01*
X24471164Y-16558769D01*
X24297349Y-16521823D01*
X24135013Y-16449547D01*
X23991252Y-16345098D01*
X23872349Y-16213042D01*
X23783499Y-16059151D01*
X23728588Y-15890150D01*
X23710013Y-15713425D01*
X23728588Y-15536700D01*
X23783499Y-15367699D01*
X23872349Y-15213808D01*
X23991252Y-15081752D01*
X24135013Y-14977303D01*
X24297349Y-14905027D01*
X24471164Y-14868081D01*
X24648862Y-14868081D01*
X24822677Y-14905027D01*
G37*
G36*
X43294525Y-14191342D02*
G01*
X43475553Y-14246256D01*
X43642388Y-14335432D01*
X43788621Y-14455442D01*
X43908631Y-14601675D01*
X43997807Y-14768510D01*
X44052721Y-14949538D01*
X44071263Y-15137800D01*
X44052721Y-15326062D01*
X43997807Y-15507090D01*
X43908631Y-15673925D01*
X43788621Y-15820158D01*
X43642388Y-15940168D01*
X43475553Y-16029344D01*
X43294525Y-16084258D01*
X43106263Y-16102800D01*
X42918001Y-16084258D01*
X42736973Y-16029344D01*
X42570138Y-15940168D01*
X42423905Y-15820158D01*
X42303895Y-15673925D01*
X42214719Y-15507090D01*
X42159805Y-15326062D01*
X42141263Y-15137800D01*
X42159805Y-14949538D01*
X42214719Y-14768510D01*
X42303895Y-14601675D01*
X42423905Y-14455442D01*
X42570138Y-14335432D01*
X42736973Y-14246256D01*
X42918001Y-14191342D01*
X43106263Y-14172800D01*
X43294525Y-14191342D01*
G37*
G36*
X49744552Y-13872527D02*
G01*
X49906888Y-13944803D01*
X50050649Y-14049252D01*
X50169552Y-14181308D01*
X50258402Y-14335199D01*
X50313313Y-14504200D01*
X50331888Y-14680925D01*
X50313313Y-14857650D01*
X50258402Y-15026651D01*
X50169552Y-15180542D01*
X50050649Y-15312598D01*
X49906888Y-15417047D01*
X49744552Y-15489323D01*
X49570737Y-15526269D01*
X49393039Y-15526269D01*
X49219224Y-15489323D01*
X49056888Y-15417047D01*
X48913127Y-15312598D01*
X48794224Y-15180542D01*
X48705374Y-15026651D01*
X48650463Y-14857650D01*
X48631888Y-14680925D01*
X48650463Y-14504200D01*
X48705374Y-14335199D01*
X48794224Y-14181308D01*
X48913127Y-14049252D01*
X49056888Y-13944803D01*
X49219224Y-13872527D01*
X49393039Y-13835581D01*
X49570737Y-13835581D01*
X49744552Y-13872527D01*
G37*
G36*
X67524552Y-13872527D02*
G01*
X67686888Y-13944803D01*
X67830649Y-14049252D01*
X67949552Y-14181308D01*
X68038402Y-14335199D01*
X68093313Y-14504200D01*
X68111888Y-14680925D01*
X68093313Y-14857650D01*
X68038402Y-15026651D01*
X67949552Y-15180542D01*
X67830649Y-15312598D01*
X67686888Y-15417047D01*
X67524552Y-15489323D01*
X67350737Y-15526269D01*
X67173039Y-15526269D01*
X66999224Y-15489323D01*
X66836888Y-15417047D01*
X66693127Y-15312598D01*
X66574224Y-15180542D01*
X66485374Y-15026651D01*
X66430463Y-14857650D01*
X66411888Y-14680925D01*
X66430463Y-14504200D01*
X66485374Y-14335199D01*
X66574224Y-14181308D01*
X66693127Y-14049252D01*
X66836888Y-13944803D01*
X66999224Y-13872527D01*
X67173039Y-13835581D01*
X67350737Y-13835581D01*
X67524552Y-13872527D01*
G37*
G36*
X25410013Y-14023425D02*
G01*
X23710013Y-14023425D01*
X23710013Y-12323425D01*
X25410013Y-12323425D01*
X25410013Y-14023425D01*
G37*
G36*
X43294525Y-11651342D02*
G01*
X43475553Y-11706256D01*
X43642388Y-11795432D01*
X43788621Y-11915442D01*
X43908631Y-12061675D01*
X43997807Y-12228510D01*
X44052721Y-12409538D01*
X44071263Y-12597800D01*
X44052721Y-12786062D01*
X43997807Y-12967090D01*
X43908631Y-13133925D01*
X43788621Y-13280158D01*
X43642388Y-13400168D01*
X43475553Y-13489344D01*
X43294525Y-13544258D01*
X43106263Y-13562800D01*
X42918001Y-13544258D01*
X42736973Y-13489344D01*
X42570138Y-13400168D01*
X42423905Y-13280158D01*
X42303895Y-13133925D01*
X42214719Y-12967090D01*
X42159805Y-12786062D01*
X42141263Y-12597800D01*
X42159805Y-12409538D01*
X42214719Y-12228510D01*
X42303895Y-12061675D01*
X42423905Y-11915442D01*
X42570138Y-11795432D01*
X42736973Y-11706256D01*
X42918001Y-11651342D01*
X43106263Y-11632800D01*
X43294525Y-11651342D01*
G37*
G36*
X50331888Y-12990925D02*
G01*
X48631888Y-12990925D01*
X48631888Y-11290925D01*
X50331888Y-11290925D01*
X50331888Y-12990925D01*
G37*
G36*
X68111888Y-12990925D02*
G01*
X66411888Y-12990925D01*
X66411888Y-11290925D01*
X68111888Y-11290925D01*
X68111888Y-12990925D01*
G37*
G36*
X43294525Y-9111342D02*
G01*
X43475553Y-9166256D01*
X43642388Y-9255432D01*
X43788621Y-9375442D01*
X43908631Y-9521675D01*
X43997807Y-9688510D01*
X44052721Y-9869538D01*
X44071263Y-10057800D01*
X44052721Y-10246062D01*
X43997807Y-10427090D01*
X43908631Y-10593925D01*
X43788621Y-10740158D01*
X43642388Y-10860168D01*
X43475553Y-10949344D01*
X43294525Y-11004258D01*
X43106263Y-11022800D01*
X42918001Y-11004258D01*
X42736973Y-10949344D01*
X42570138Y-10860168D01*
X42423905Y-10740158D01*
X42303895Y-10593925D01*
X42214719Y-10427090D01*
X42159805Y-10246062D01*
X42141263Y-10057800D01*
X42159805Y-9869538D01*
X42214719Y-9688510D01*
X42303895Y-9521675D01*
X42423905Y-9375442D01*
X42570138Y-9255432D01*
X42736973Y-9166256D01*
X42918001Y-9111342D01*
X43106263Y-9092800D01*
X43294525Y-9111342D01*
G37*
G36*
X30594525Y-6571342D02*
G01*
X30775553Y-6626256D01*
X30942388Y-6715432D01*
X31088621Y-6835442D01*
X31208631Y-6981675D01*
X31297807Y-7148510D01*
X31352721Y-7329538D01*
X31371263Y-7517800D01*
X31352721Y-7706062D01*
X31297807Y-7887090D01*
X31208631Y-8053925D01*
X31088621Y-8200158D01*
X30942388Y-8320168D01*
X30775553Y-8409344D01*
X30594525Y-8464258D01*
X30406263Y-8482800D01*
X30218001Y-8464258D01*
X30036973Y-8409344D01*
X29870138Y-8320168D01*
X29723905Y-8200158D01*
X29603895Y-8053925D01*
X29514719Y-7887090D01*
X29459805Y-7706062D01*
X29441263Y-7517800D01*
X29459805Y-7329538D01*
X29514719Y-7148510D01*
X29603895Y-6981675D01*
X29723905Y-6835442D01*
X29870138Y-6715432D01*
X30036973Y-6626256D01*
X30218001Y-6571342D01*
X30406263Y-6552800D01*
X30594525Y-6571342D01*
G37*
G36*
X43294525Y-6571342D02*
G01*
X43475553Y-6626256D01*
X43642388Y-6715432D01*
X43788621Y-6835442D01*
X43908631Y-6981675D01*
X43997807Y-7148510D01*
X44052721Y-7329538D01*
X44071263Y-7517800D01*
X44052721Y-7706062D01*
X43997807Y-7887090D01*
X43908631Y-8053925D01*
X43788621Y-8200158D01*
X43642388Y-8320168D01*
X43475553Y-8409344D01*
X43294525Y-8464258D01*
X43106263Y-8482800D01*
X42918001Y-8464258D01*
X42736973Y-8409344D01*
X42570138Y-8320168D01*
X42423905Y-8200158D01*
X42303895Y-8053925D01*
X42214719Y-7887090D01*
X42159805Y-7706062D01*
X42141263Y-7517800D01*
X42159805Y-7329538D01*
X42214719Y-7148510D01*
X42303895Y-6981675D01*
X42423905Y-6835442D01*
X42570138Y-6715432D01*
X42736973Y-6626256D01*
X42918001Y-6571342D01*
X43106263Y-6552800D01*
X43294525Y-6571342D01*
G37*
G36*
X60057052Y-6311277D02*
G01*
X60219388Y-6383553D01*
X60363149Y-6488002D01*
X60482052Y-6620058D01*
X60570902Y-6773949D01*
X60625813Y-6942950D01*
X60644388Y-7119675D01*
X60625813Y-7296400D01*
X60570902Y-7465401D01*
X60482052Y-7619292D01*
X60363149Y-7751348D01*
X60219388Y-7855797D01*
X60057052Y-7928073D01*
X59883237Y-7965019D01*
X59705539Y-7965019D01*
X59531724Y-7928073D01*
X59369388Y-7855797D01*
X59225627Y-7751348D01*
X59106724Y-7619292D01*
X59017874Y-7465401D01*
X58962963Y-7296400D01*
X58944388Y-7119675D01*
X58962963Y-6942950D01*
X59017874Y-6773949D01*
X59106724Y-6620058D01*
X59225627Y-6488002D01*
X59369388Y-6383553D01*
X59531724Y-6311277D01*
X59705539Y-6274331D01*
X59883237Y-6274331D01*
X60057052Y-6311277D01*
G37*
G36*
X68150637Y-7269675D02*
G01*
X66550637Y-7269675D01*
X66550637Y-5669675D01*
X68150637Y-5669675D01*
X68150637Y-7269675D01*
G37*
G36*
X60057052Y-3771277D02*
G01*
X60219388Y-3843553D01*
X60363149Y-3948002D01*
X60482052Y-4080058D01*
X60570902Y-4233949D01*
X60625813Y-4402950D01*
X60644388Y-4579675D01*
X60625813Y-4756400D01*
X60570902Y-4925401D01*
X60482052Y-5079292D01*
X60363149Y-5211348D01*
X60219388Y-5315797D01*
X60057052Y-5388073D01*
X59883237Y-5425019D01*
X59705539Y-5425019D01*
X59531724Y-5388073D01*
X59369388Y-5315797D01*
X59225627Y-5211348D01*
X59106724Y-5079292D01*
X59017874Y-4925401D01*
X58962963Y-4756400D01*
X58944388Y-4579675D01*
X58962963Y-4402950D01*
X59017874Y-4233949D01*
X59106724Y-4080058D01*
X59225627Y-3948002D01*
X59369388Y-3843553D01*
X59531724Y-3771277D01*
X59705539Y-3734331D01*
X59883237Y-3734331D01*
X60057052Y-3771277D01*
G37*
G36*
X30656558Y-857499D02*
G01*
X30900690Y-916110D01*
X31132648Y-1012190D01*
X31346719Y-1143373D01*
X31537634Y-1306429D01*
X31700690Y-1497344D01*
X31831873Y-1711415D01*
X31927953Y-1943373D01*
X31986564Y-2187505D01*
X32006263Y-2437800D01*
X31986564Y-2688095D01*
X31927953Y-2932227D01*
X31831873Y-3164185D01*
X31700690Y-3378256D01*
X31537634Y-3569171D01*
X31346719Y-3732227D01*
X31132648Y-3863410D01*
X30900690Y-3959490D01*
X30656558Y-4018101D01*
X30406263Y-4037800D01*
X30155968Y-4018101D01*
X29911836Y-3959490D01*
X29679878Y-3863410D01*
X29465807Y-3732227D01*
X29274892Y-3569171D01*
X29111836Y-3378256D01*
X28980653Y-3164185D01*
X28884573Y-2932227D01*
X28825962Y-2688095D01*
X28806263Y-2437800D01*
X28825962Y-2187505D01*
X28884573Y-1943373D01*
X28980653Y-1711415D01*
X29111836Y-1497344D01*
X29274892Y-1306429D01*
X29465807Y-1143373D01*
X29679878Y-1012190D01*
X29911836Y-916110D01*
X30155968Y-857499D01*
X30406263Y-837800D01*
X30656558Y-857499D01*
G37*
G36*
X43356558Y-857499D02*
G01*
X43600690Y-916110D01*
X43832648Y-1012190D01*
X44046719Y-1143373D01*
X44237634Y-1306429D01*
X44400690Y-1497344D01*
X44531873Y-1711415D01*
X44627953Y-1943373D01*
X44686564Y-2187505D01*
X44706263Y-2437800D01*
X44686564Y-2688095D01*
X44627953Y-2932227D01*
X44531873Y-3164185D01*
X44400690Y-3378256D01*
X44237634Y-3569171D01*
X44046719Y-3732227D01*
X43832648Y-3863410D01*
X43600690Y-3959490D01*
X43356558Y-4018101D01*
X43106263Y-4037800D01*
X42855968Y-4018101D01*
X42611836Y-3959490D01*
X42379878Y-3863410D01*
X42165807Y-3732227D01*
X41974892Y-3569171D01*
X41811836Y-3378256D01*
X41680653Y-3164185D01*
X41584573Y-2932227D01*
X41525962Y-2688095D01*
X41506263Y-2437800D01*
X41525962Y-2187505D01*
X41584573Y-1943373D01*
X41680653Y-1711415D01*
X41811836Y-1497344D01*
X41974892Y-1306429D01*
X42165807Y-1143373D01*
X42379878Y-1012190D01*
X42611836Y-916110D01*
X42855968Y-857499D01*
X43106263Y-837800D01*
X43356558Y-857499D01*
G37*
G36*
X67391960Y-2174331D02*
G01*
X67434232Y-2174331D01*
X67481919Y-2184467D01*
X67528654Y-2189733D01*
X67562637Y-2201624D01*
X67597766Y-2209091D01*
X67648391Y-2231630D01*
X67697744Y-2248900D01*
X67723432Y-2265041D01*
X67750497Y-2277091D01*
X67800959Y-2313754D01*
X67849429Y-2344210D01*
X67866836Y-2361617D01*
X67885758Y-2375365D01*
X67932538Y-2427319D01*
X67976102Y-2470883D01*
X67986121Y-2486828D01*
X67997629Y-2499609D01*
X68037002Y-2567805D01*
X68071412Y-2622568D01*
X68075707Y-2634845D01*
X68081221Y-2644394D01*
X68109446Y-2731265D01*
X68130579Y-2791658D01*
X68131380Y-2798771D01*
X68132885Y-2803402D01*
X68146529Y-2933217D01*
X68150637Y-2969675D01*
X68146528Y-3006135D01*
X68132885Y-3135947D01*
X68131380Y-3140576D01*
X68130579Y-3147692D01*
X68109442Y-3208097D01*
X68081221Y-3294955D01*
X68075708Y-3304502D01*
X68071412Y-3316782D01*
X68036995Y-3371556D01*
X67997629Y-3439740D01*
X67986123Y-3452518D01*
X67976102Y-3468467D01*
X67932529Y-3512039D01*
X67885758Y-3563984D01*
X67866840Y-3577728D01*
X67849429Y-3595140D01*
X67800949Y-3625601D01*
X67750497Y-3662258D01*
X67723437Y-3674305D01*
X67697744Y-3690450D01*
X67648381Y-3707722D01*
X67597766Y-3730258D01*
X67562642Y-3737723D01*
X67528654Y-3749617D01*
X67481916Y-3754883D01*
X67434232Y-3765019D01*
X67391960Y-3765019D01*
X67350637Y-3769675D01*
X67309314Y-3765019D01*
X67267042Y-3765019D01*
X67219356Y-3754883D01*
X67172620Y-3749617D01*
X67138632Y-3737724D01*
X67103507Y-3730258D01*
X67052888Y-3707721D01*
X67003530Y-3690450D01*
X66977838Y-3674306D01*
X66950776Y-3662258D01*
X66900317Y-3625597D01*
X66851845Y-3595140D01*
X66834436Y-3577731D01*
X66815515Y-3563984D01*
X66768734Y-3512029D01*
X66725172Y-3468467D01*
X66715153Y-3452522D01*
X66703644Y-3439740D01*
X66664266Y-3371536D01*
X66629862Y-3316782D01*
X66625566Y-3304506D01*
X66620052Y-3294955D01*
X66591817Y-3208057D01*
X66570695Y-3147692D01*
X66569893Y-3140581D01*
X66568388Y-3135947D01*
X66554730Y-3006003D01*
X66550637Y-2969675D01*
X66554729Y-2933349D01*
X66568388Y-2803402D01*
X66569894Y-2798766D01*
X66570695Y-2791658D01*
X66591813Y-2731305D01*
X66620052Y-2644394D01*
X66625567Y-2634840D01*
X66629862Y-2622568D01*
X66664259Y-2567824D01*
X66703644Y-2499609D01*
X66715155Y-2486824D01*
X66725172Y-2470883D01*
X66768725Y-2427329D01*
X66815515Y-2375365D01*
X66834439Y-2361615D01*
X66851845Y-2344210D01*
X66900311Y-2313756D01*
X66950777Y-2277091D01*
X66977841Y-2265040D01*
X67003530Y-2248900D01*
X67052879Y-2231631D01*
X67103507Y-2209091D01*
X67138638Y-2201623D01*
X67172620Y-2189733D01*
X67219354Y-2184467D01*
X67267042Y-2174331D01*
X67309314Y-2174331D01*
X67350637Y-2169675D01*
X67391960Y-2174331D01*
G37*
G36*
X60644388Y-2889675D02*
G01*
X58944388Y-2889675D01*
X58944388Y-1189675D01*
X60644388Y-1189675D01*
X60644388Y-2889675D01*
G37*
M02*
